<svg width="1920" height="1024" viewBox="0 0 1920 1024" fill="none" xmlns="http://www.w3.org/2000/svg">
<g clip-path="url(#clip0_5_64798)">
<rect width="1920" height="1023" transform="translate(0 0.841797)" fill="#F1F4FF"/>
<g clip-path="url(#clip1_5_64798)">
<g clip-path="url(#clip2_5_64798)">
<path d="M2014.17 421.382C2014.44 416.92 2013.72 412.454 2012.05 408.307C2005.34 394.982 1982.39 397.938 1975.39 384.739C1973.81 381.74 1973.31 378.243 1971.6 375.328C1967.18 367.624 1956.81 366.542 1948.1 364.835C1939.39 363.127 1929.15 357.256 1930.44 348.47C1931.6 340.559 1941.98 335.145 1940.35 327.317C1938.98 320.821 1930.35 318.656 1927.4 312.743C1922.77 303.541 1934.02 293.672 1938.98 287.093C1945.68 278.182 1951.23 268.938 1948.56 257.279C1947.47 254.233 1946.92 251.02 1946.93 247.785C1947.52 242.746 1951.89 239.082 1955.93 235.959L1960.35 232.586C1959.58 232.137 1958.95 231.49 1958.52 230.712L1995.51 183.16C1998.79 178.444 2002.75 174.235 2007.26 170.668C2013.31 167.104 2019.62 163.986 2026.13 161.34C2032.34 158.134 2039.63 153.012 2040.54 145.975C2037.25 138.272 2026.38 138.064 2018.21 139.979C2010.05 141.894 2000.3 144.143 1994.09 138.605C1992.51 137.148 1991.22 135.149 1989.14 134.441C1984.97 133.108 1981.72 137.356 1979.18 140.729C1976.64 144.101 1971.39 147.141 1968.68 143.893C1967.01 141.894 1967.51 138.438 1965.35 136.981C1963.18 135.524 1961.18 136.981 1958.68 136.981C1953.81 137.356 1950.02 132.817 1945.77 130.527C1941.52 128.237 1933.94 129.486 1934.6 134.358L1926.73 114.912C1926.19 113.538 1925.4 111.914 1923.9 111.664C1923.33 111.638 1922.77 111.729 1922.24 111.929C1921.71 112.13 1921.22 112.436 1920.81 112.83C1914.52 117.743 1908.32 126.779 1900.98 123.198C1897.86 121.657 1895.36 117.785 1892.03 118.701C1889.53 119.409 1888.49 122.49 1886.19 123.698C1881.36 126.279 1877.2 119.242 1872.28 116.744C1867.36 114.246 1861.7 116.494 1856.37 117.618C1841.2 120.783 1836.79 101.712 1834.74 90.3026C1834.2 87.2629 1833.54 83.6818 1830.58 82.3077C1828.99 81.8307 1827.27 81.9327 1825.75 82.5958C1824.22 83.2589 1822.98 84.4402 1822.25 85.9304C1820.88 88.9565 1819.68 92.0566 1818.66 95.2161C1810.33 113.121 1777.46 108.249 1761.88 108.333C1754.17 108.333 1746.43 108.333 1738.72 108.333C1740.77 111.471 1742.5 114.804 1743.88 118.285C1746.34 125.53 1742.55 130.777 1742.63 137.439C1742.63 141.603 1745.34 143.643 1746.43 147.516C1748.09 153.512 1744.97 158.925 1745.47 164.963C1745.97 171.001 1750.01 177.122 1753.05 182.66C1760.85 196.989 1764.46 213.223 1763.46 229.505C1762.72 235.122 1762.54 240.799 1762.92 246.452C1764.07 252.086 1765.8 257.585 1768.09 262.858C1773.16 276.713 1775.14 291.507 1773.88 306.206C1773.21 313.576 1771.92 321.654 1775.92 327.858C1777.75 330.69 1780.55 332.855 1782.29 335.728C1784.32 339.807 1785.27 344.338 1785.04 348.887L1788.54 442.493C1788.54 446.116 1788.79 449.78 1788.84 453.486C1864.36 449.031 1939.94 444.159 2014.92 434.332C2014.55 430.043 2014.3 425.712 2014.17 421.382Z" fill="white" stroke="#436AE5" stroke-linecap="round" stroke-linejoin="round"/>
<path d="M1916.73 630.373C1932.45 627.39 1948.37 625.608 1964.35 625.043C1971.21 625.403 1978.09 624.942 1984.85 623.669C1991.26 621.837 1995.47 619.005 2002.72 620.462C2009.97 621.92 2014.97 627.625 2020.84 631.664C2025.01 611.843 2042.67 593.022 2034.51 574.7C2033.52 572.988 2032.8 571.134 2032.38 569.204C2031.26 560.626 2043.42 558.377 2051.54 555.379C2054.96 553.927 2058.04 551.794 2060.6 549.11C2063.16 546.426 2065.14 543.248 2066.43 539.77C2067.72 536.292 2068.28 532.589 2068.08 528.886C2067.89 525.183 2066.94 521.559 2065.29 518.236C2060.25 509.159 2050 503.413 2046.59 493.627C2045.67 491.046 2045.09 488.006 2042.71 486.715C2040.34 485.424 2037.59 486.424 2035.01 486.382C2026.97 486.382 2022.51 477.013 2020.72 469.226C2017.85 457.769 2015.92 446.1 2014.93 434.332C1939.94 444.159 1864.37 449.031 1788.84 453.486C1789.25 463.195 1788.35 472.915 1786.17 482.384C1785.04 485.931 1784.28 489.588 1783.92 493.294C1783.99 496.581 1784.49 499.844 1785.42 502.996C1787.65 514.303 1791.44 525.247 1796.67 535.517C1798.38 538.557 1800.38 541.43 1802 544.511C1805.04 551.269 1807.61 558.225 1809.71 565.331C1812.17 572.993 1814.58 580.655 1817.04 588.316C1819.2 594.598 1821 600.992 1822.46 607.471C1823.87 615.424 1823.5 623.627 1825.12 631.539C1825.4 632.954 1825.73 634.342 1826.12 635.703C1838.41 635.182 1850.65 633.791 1862.74 631.539C1880.99 628.207 1898.32 633.912 1916.73 630.373Z" fill="white" stroke="#436AE5" stroke-linecap="round" stroke-linejoin="round"/>
<path d="M2102.16 887.54C2101.78 889.002 2101.78 890.534 2102.16 891.996C2103.74 896.493 2110.28 895.452 2114.66 893.995C2119.75 892.332 2125.02 891.242 2130.36 890.747C2131.44 886.125 2132.49 881.503 2133.4 876.839C2134.13 870.326 2136.39 864.078 2139.99 858.601C2143.49 854.388 2148.3 851.459 2153.65 850.273C2152.98 840.862 2152.36 831.493 2151.69 822.082C2151.69 821.125 2151.69 820.167 2151.48 819.168C2144.69 816.128 2136.15 815.253 2130.9 809.84C2123.24 801.845 2126.49 788.437 2121.74 778.402C2113.86 761.746 2085.99 757.582 2085.58 739.302C2085.37 730.225 2092.41 719.648 2086.08 713.152C2080.74 707.614 2071.5 711.445 2064.96 715.567C2064.92 708.812 2063.46 702.14 2060.68 695.984C2057.89 689.829 2053.84 684.328 2048.79 679.84C2043.08 674.844 2036.29 671.221 2030.88 665.891C2026.82 661.791 2023.76 656.822 2021.91 651.36C2020.06 645.899 2019.48 640.088 2020.21 634.37C2020.21 633.454 2020.38 632.537 2020.71 631.621C2014.84 627.457 2009.59 621.794 2002.59 620.42C1995.59 619.046 1991.13 621.794 1984.72 623.626C1977.97 624.9 1971.08 625.361 1964.22 625.001C1948.24 625.566 1932.32 627.348 1916.6 630.331C1898.19 633.87 1880.86 628.165 1862.45 631.58C1850.35 633.832 1838.12 635.223 1825.83 635.744C1826.92 641.042 1829.63 645.872 1833.58 649.568C1835.75 651.358 1837.66 653.447 1839.24 655.773C1846.91 666.641 1865.07 671.096 1866.15 684.546C1866.65 690.667 1863.03 696.58 1863.57 702.701C1864.49 713.652 1875.65 716.234 1880.94 724.27C1888.65 735.888 1887.78 752.794 1887.36 765.91C1886.15 806.884 1892.11 847.483 1897.65 888.207C1966.76 876.298 2036.63 869.469 2106.45 862.723C2105.14 871.107 2103.71 879.379 2102.16 887.54Z" fill="white" stroke="#436AE5" stroke-linecap="round" stroke-linejoin="round"/>
<path d="M2073.83 1040.36C2076.62 1026.08 2083.95 1013.21 2090.49 1000.3C2108.32 965.581 2121.77 928.781 2130.53 890.747C2125.19 891.243 2119.92 892.332 2114.82 893.995C2110.28 895.452 2103.74 896.494 2102.33 891.996C2101.95 890.535 2101.95 889.003 2102.33 887.541C2103.88 879.38 2105.41 871.218 2106.91 863.057C2037.09 869.802 1967.22 876.631 1898.11 888.54C1901.57 913.857 1904.86 939.258 1906.15 964.741C1907.82 997.012 1907.82 1030.95 1911.32 1063.05C1913.47 1064.94 1916.01 1066.34 1918.75 1067.17C1921.5 1067.99 1924.39 1068.22 1927.23 1067.84C1930.73 1067.34 1934.94 1066.13 1937.23 1068.84C1938.25 1070.35 1938.74 1072.15 1938.64 1073.96C1939.19 1084.58 1939.48 1095.28 1939.56 1105.94C1984.78 1097 2030.49 1090.81 2076.46 1087.41C2073.12 1071.8 2070.58 1056.14 2073.83 1040.36Z" fill="white" stroke="#436AE5" stroke-linecap="round" stroke-linejoin="round"/>
<path d="M1911.36 1063.05C1907.86 1030.95 1907.86 997.012 1906.19 964.741C1904.36 928.348 1898.44 892.163 1893.69 855.978L1707.64 864.306C1667.44 866.138 1627.48 864.306 1587.28 864.972C1570.62 865.263 1550.46 869.136 1534.21 863.389V864.139C1519.79 864.347 1505.05 865.055 1490.63 864.139C1488.84 864.139 1487.72 877.63 1487.01 896.16C1534.87 899.775 1582.9 900.582 1630.86 898.575C1631.39 937.633 1631.9 976.706 1632.4 1015.79C1632.4 1017.21 1632.4 1018.91 1633.9 1019.5C1634.77 1019.83 1635.74 1019.83 1636.61 1019.5C1647.81 1016.87 1653.69 1026.16 1662.98 1026.83C1666.1 1026.83 1667.64 1024.33 1671.31 1025.58C1675.85 1026.99 1678.81 1032.95 1681.93 1036.2C1685.22 1039.52 1689.3 1041.95 1693.8 1043.23C1698.3 1044.52 1703.05 1044.62 1707.6 1043.52C1713.51 1041.98 1719.72 1038.44 1725.3 1040.94C1730.01 1043.02 1731.97 1048.48 1734.84 1052.73C1739.01 1059.06 1741.92 1057.35 1747.84 1055.47C1750.09 1054.77 1752.76 1052.1 1755.42 1052.73C1758.09 1053.35 1759.38 1057.93 1762.46 1059.47C1765.55 1061.01 1769.25 1058.72 1772.59 1057.6C1780.92 1054.77 1790.12 1059.51 1798.17 1063.59C1806.21 1067.67 1816.25 1071.13 1823.74 1066.13C1827.54 1063.59 1830.24 1059.06 1834.74 1058.35C1836.91 1057.97 1839.12 1058.6 1841.2 1058.06C1844.74 1057.1 1846.74 1053.23 1850.07 1051.77C1855.95 1049.15 1862.32 1054.77 1868.74 1054.56C1871.8 1053.97 1874.91 1053.59 1878.03 1053.43C1883.15 1054.06 1886.36 1059.26 1890.53 1062.35C1893.5 1064.26 1896.9 1065.43 1900.42 1065.74C1903.95 1066.06 1907.5 1065.53 1910.77 1064.18L1911.81 1063.68L1911.36 1063.05Z" fill="white" stroke="#436AE5" stroke-linecap="round" stroke-linejoin="round"/>
<path d="M1774.25 299.252C1774.48 286.844 1772.45 274.498 1768.25 262.817C1765.96 257.544 1764.23 252.045 1763.09 246.411C1762.71 240.758 1762.89 235.081 1763.63 229.464C1764.62 213.181 1761.01 196.948 1753.21 182.619C1750.17 177.081 1746.17 171.376 1745.63 164.922C1745.09 158.468 1748.26 153.471 1746.59 147.475C1745.51 143.602 1742.88 141.728 1742.8 137.398C1742.8 130.527 1746.51 125.489 1744.05 118.243C1742.67 114.734 1740.93 111.373 1738.88 108.208C1724.72 108.208 1710.51 107.75 1696.35 107.792L1534.96 108.541C1514.13 108.541 1493.55 108.749 1472.8 108.541C1470.02 172.917 1467.33 237.306 1464.72 301.709C1567.83 305.998 1671.18 305.123 1774.25 299.252Z" fill="white" stroke="#436AE5" stroke-linecap="round" stroke-linejoin="round"/>
<path d="M1788.54 442.493L1785.04 348.887C1785.27 344.338 1784.32 339.808 1782.29 335.729C1780.54 332.855 1777.75 330.69 1775.92 327.859C1771.75 321.654 1773.21 313.576 1773.88 306.206C1774.09 303.874 1774.17 301.584 1774.25 299.252C1671.19 305.123 1567.83 305.998 1464.72 301.75C1462.16 362.434 1459.61 423.075 1457.05 483.675L1684.6 487.839C1689.46 487.669 1694.33 488.245 1699.02 489.546C1707.68 492.461 1714.76 500.248 1724.01 500.331C1727.95 499.987 1731.84 499.247 1735.63 498.124C1753.55 494.543 1770.3 506.119 1787.83 512.115C1787.04 509.117 1786.29 506.077 1785.54 503.079C1784.61 499.927 1784.11 496.664 1784.04 493.377C1784.4 489.671 1785.16 486.014 1786.29 482.468C1788.97 469.321 1789.73 455.857 1788.54 442.493Z" fill="white" stroke="#436AE5" stroke-linecap="round" stroke-linejoin="round"/>
<path d="M1839.54 655.94C1837.95 653.614 1836.04 651.525 1833.87 649.735C1828.79 645.571 1826.45 638.284 1825.12 631.664C1823.5 623.752 1823.87 615.549 1822.46 607.596C1821 601.117 1819.19 594.722 1817.04 588.441C1814.58 580.78 1812.17 573.118 1809.71 565.456C1807.61 558.35 1805.04 551.394 1802 544.636C1800.38 541.555 1798.38 538.682 1796.67 535.642C1792.68 528.235 1789.67 520.34 1787.71 512.157C1770.17 506.161 1753.42 494.585 1735.51 498.166C1731.72 499.289 1727.83 500.028 1723.89 500.373C1714.76 500.373 1707.68 492.503 1698.89 489.588C1694.2 488.287 1689.34 487.711 1684.48 487.881L1456.93 483.717C1455.18 525.94 1453.42 568.149 1451.64 610.344C1482.34 609.844 1512.34 611.635 1543 613.467C1542.67 633.537 1542.21 653.622 1541.63 673.72C1547.65 674.295 1553.7 674.476 1559.75 674.261L1721.55 671.346C1764.34 670.597 1807 667.182 1849.83 665.434C1845.89 662.864 1842.41 659.655 1839.54 655.94Z" fill="white" stroke="#436AE5" stroke-linecap="round" stroke-linejoin="round"/>
<path d="M1887.65 766.119C1888.06 752.836 1888.94 735.93 1881.23 724.479C1875.94 716.442 1864.78 713.861 1863.86 702.91C1863.32 696.788 1866.94 690.876 1866.44 684.755C1865.73 675.885 1857.61 670.93 1849.78 665.434C1806.95 667.307 1764.29 670.597 1721.51 671.346L1559.7 674.261C1553.66 674.476 1547.6 674.295 1541.58 673.72C1539.75 737.013 1536.79 800.264 1533.79 863.515C1550.04 869.094 1570.03 865.388 1586.86 865.097C1627.07 864.389 1667.02 866.263 1707.22 864.431L1893.27 856.103C1889.04 826.302 1887.16 796.215 1887.65 766.119Z" fill="white" stroke="#436AE5" stroke-linecap="round" stroke-linejoin="round"/>
<path d="M1966.25 1235.7C1968.08 1225.71 1961.38 1216.42 1955.54 1208.14C1947.4 1197.58 1941.59 1185.42 1938.5 1172.45C1937.09 1162.89 1936.79 1153.19 1937.59 1143.55C1938.5 1120.51 1938.38 1097.49 1937.21 1074.47C1937.31 1072.66 1936.82 1070.86 1935.8 1069.35C1933.51 1066.69 1929.26 1067.85 1925.8 1068.35C1923.07 1068.73 1920.3 1068.53 1917.65 1067.78C1915.01 1067.03 1912.55 1065.73 1910.43 1063.98C1910.05 1063.98 1909.72 1064.35 1909.34 1064.48C1906.08 1065.82 1902.53 1066.36 1899.01 1066.04C1895.5 1065.72 1892.11 1064.56 1889.14 1062.65C1884.97 1059.61 1881.89 1054.32 1876.64 1053.78C1873.47 1053.94 1870.32 1054.38 1867.22 1055.07C1860.81 1055.28 1854.43 1049.61 1848.56 1052.24C1845.23 1053.74 1843.23 1057.61 1839.69 1058.52C1837.6 1059.07 1835.52 1058.52 1833.23 1058.82C1828.73 1059.52 1825.98 1064.06 1822.19 1066.6C1814.73 1071.6 1804.65 1068.14 1796.65 1064.06C1788.65 1059.98 1779.61 1055.24 1771.07 1058.11C1767.74 1059.23 1764.12 1061.48 1760.95 1059.94C1757.78 1058.4 1757.16 1053.99 1753.91 1053.24C1750.66 1052.49 1748.58 1055.24 1746.33 1055.94C1740.41 1057.86 1737.66 1059.52 1733.33 1053.19C1730.45 1049.03 1728.5 1043.53 1723.79 1041.41C1718.21 1038.91 1712 1042.49 1706.08 1043.99C1701.53 1045.1 1696.77 1045 1692.26 1043.72C1687.76 1042.43 1683.66 1040 1680.38 1036.66C1677.3 1033.46 1674.34 1027.46 1669.8 1026.05C1665.97 1024.84 1664.42 1027.54 1661.47 1027.3C1652.18 1026.63 1646.3 1017.38 1635.1 1020.01C1634.22 1020.31 1633.26 1020.31 1632.39 1020.01C1631.1 1019.38 1630.89 1017.68 1630.89 1016.3C1630.39 977.216 1629.87 938.13 1629.35 899.044C1581.39 901.071 1533.36 900.265 1485.49 896.629C1483.95 935.187 1484.25 995.607 1484.2 1001.89C1483.83 1060.48 1484.87 1118.49 1480.58 1176.78C1471.63 1177.43 1462.65 1177.18 1453.75 1176.03L1370.22 1171.33L1328.56 1169C1317.19 1168.37 1306.15 1165.71 1294.86 1167.45C1296.28 1173.33 1300.98 1175.78 1304.23 1180.24C1304.77 1181.03 1305.23 1181.95 1305.73 1182.86C1307.05 1183 1308.32 1183.41 1309.46 1184.06C1310.61 1184.71 1311.61 1185.59 1312.4 1186.65C1315.9 1190.81 1314.65 1198.48 1321.02 1200.43C1323.02 1201.06 1325.19 1200.68 1327.27 1201.18C1334.23 1202.85 1335.02 1212.09 1336.94 1218.96C1338.05 1222.89 1339.96 1226.54 1342.56 1229.68C1345.15 1232.83 1348.37 1235.4 1352.02 1237.24C1359.18 1240.78 1368.68 1242.41 1371.39 1249.74C1371.96 1252.26 1372.36 1254.82 1372.6 1257.4C1374.43 1267.02 1384.55 1272.97 1387.8 1282.38C1389.93 1288.46 1388.76 1295.16 1389.18 1301.62C1390.01 1315.98 1400.3 1314.82 1407.97 1323.23C1412.97 1328.64 1410.47 1338.68 1416.3 1343.3C1418.92 1344.96 1421.91 1345.94 1425 1346.17C1437.71 1348.44 1449.45 1354.43 1458.75 1363.37C1461.04 1365.58 1463.71 1368.16 1466.83 1367.53C1469.96 1366.91 1472 1363.12 1474.08 1360.29C1476.16 1357.46 1481.2 1355.63 1482.75 1358.83C1489.66 1353.04 1485.29 1339.8 1492.45 1334.31C1496.62 1331.22 1502.49 1332.14 1506.74 1329.31C1509.74 1327.35 1511.37 1323.81 1514.41 1321.94C1517.99 1320.25 1522.05 1319.82 1525.9 1320.73L1543.94 1322.86C1549.65 1322.89 1555.18 1324.91 1559.57 1328.56C1563.11 1332.27 1563.73 1337.76 1566.4 1342.22C1571.69 1351.59 1583.48 1355.13 1590.6 1363.04C1599.43 1372.91 1599.81 1388.02 1607.56 1398.72C1611.22 1403.8 1616.27 1407.63 1620.06 1412.51C1628.05 1422.58 1630.8 1436.95 1641.39 1444.19C1645.55 1446.98 1650.59 1448.57 1653.88 1452.52C1659.3 1458.89 1657.26 1468.43 1658.05 1476.76C1658.8 1485.3 1662.72 1493.25 1669.05 1499.03C1672.3 1501.99 1676.46 1504.86 1676.96 1509.24C1676.93 1511.6 1676.7 1513.95 1676.26 1516.27C1675.84 1524.06 1683.13 1529.89 1690 1533.51C1703.34 1539.98 1717.3 1545.09 1731.66 1548.75L1766.45 1558.91C1773.99 1561.12 1786.2 1566.2 1788.7 1558.91C1788.88 1557.72 1788.66 1556.51 1788.08 1555.45C1787.5 1554.4 1786.59 1553.56 1785.49 1553.08C1783.25 1552.17 1781.1 1551.08 1779.03 1549.83C1774.86 1546.59 1776.53 1534.26 1774.86 1529.35C1771.39 1519.16 1767.96 1508.96 1764.57 1498.74C1763.87 1497.07 1763.62 1495.25 1763.82 1493.45C1764.57 1490.25 1767.99 1488.58 1770.07 1485.96C1770.77 1484.94 1771.24 1483.79 1771.47 1482.57C1771.7 1481.36 1771.68 1480.12 1771.4 1478.91C1771.13 1477.71 1770.61 1476.58 1769.88 1475.58C1769.15 1474.59 1768.22 1473.75 1767.16 1473.13C1764.07 1471.51 1759.16 1470.39 1759.87 1467.01C1760.24 1465.14 1762.32 1464.26 1764.03 1463.56C1768.16 1462.36 1771.75 1459.81 1774.24 1456.31C1774.81 1455.43 1775.21 1454.44 1775.39 1453.4C1775.58 1452.37 1775.56 1451.31 1775.33 1450.28C1775.1 1449.25 1774.67 1448.28 1774.06 1447.42C1773.45 1446.56 1772.68 1445.83 1771.78 1445.28C1770.68 1444.95 1769.64 1444.46 1768.7 1443.82C1765.99 1441.28 1770.32 1437.07 1774.07 1436.82C1777.82 1436.57 1782.61 1436.82 1784.15 1433.49C1784.5 1432.3 1784.53 1431.04 1784.25 1429.83C1783.98 1428.62 1783.4 1427.5 1782.57 1426.58C1780.87 1424.75 1779.71 1422.49 1779.2 1420.04C1778.99 1417.54 1781.57 1414.84 1783.78 1415.88C1785.99 1416.92 1785.74 1419.71 1787.53 1420.83C1789.32 1421.96 1791.69 1420.54 1793.65 1419.13L1803.03 1411.46C1804.25 1410.62 1805.19 1409.43 1805.73 1408.05C1806.4 1405.47 1804.19 1403.18 1803.07 1400.81C1801.94 1398.43 1803.32 1394.31 1805.78 1395.27C1806.9 1395.68 1807.4 1396.97 1808.15 1397.85C1811.48 1401.8 1817.77 1398.27 1821.48 1394.64C1822.52 1393.68 1823.61 1392.39 1823.15 1391.06C1822.69 1389.73 1821.9 1389.65 1821.23 1388.98C1818.65 1386.4 1820.61 1381.57 1823.94 1380.07C1827.65 1378.93 1831.59 1378.83 1835.35 1379.78C1843.25 1381.27 1851.38 1380.95 1859.14 1378.86C1863 1377.8 1866.62 1375.99 1869.77 1373.52C1872.93 1371.06 1875.56 1367.99 1877.51 1364.5C1880.14 1359.33 1880.93 1353.21 1884.51 1348.63C1886.97 1345.47 1890.68 1343.18 1892.43 1339.55C1895.01 1334.26 1892.64 1327.81 1894.09 1322.06C1896.13 1316.64 1899.85 1312.01 1904.72 1308.86C1905.23 1308.33 1905.93 1308.01 1906.68 1307.99C1908.34 1307.99 1908.59 1310.4 1908.05 1312.15C1907.51 1313.9 1906.68 1315.53 1907.72 1316.82C1908.76 1318.11 1912.51 1317.11 1914.05 1318.82C1916.22 1321.27 1912.43 1325.48 1915.13 1327.6C1917.84 1329.73 1923.01 1326.81 1925.34 1325.48C1936.37 1318.48 1948.13 1312.7 1960.42 1308.24C1960.79 1295.75 1963.33 1282.3 1961.04 1269.85C1959.7 1265.17 1959.07 1260.31 1959.17 1255.44C1959.63 1248.44 1964.96 1242.66 1966.25 1235.7Z" fill="white" stroke="#436AE5" stroke-miterlimit="10"/>
<path d="M993.882 114.662C995.341 122.604 997.952 130.292 1001.63 137.481C1010.42 156.926 1019.59 176.914 1034.96 191.613C1037.17 193.219 1038.79 195.52 1039.54 198.15C1039.52 201.05 1038.57 203.867 1036.83 206.187C1032.46 214.275 1031.25 223.695 1033.42 232.628C1034.41 235.199 1034.7 237.987 1034.25 240.706C1033.35 242.766 1032.08 244.644 1030.5 246.244C1026.09 251.865 1029.25 254.572 1028.13 260.86C1027.35 263.076 1027.05 265.432 1027.25 267.772C1028.63 273.31 1048.83 264.191 1053.71 274.976C1055.5 279.14 1054.46 283.845 1056.16 287.926C1058.29 293.006 1064.5 296.254 1064.5 301.792C1064.5 307.33 1059.2 311.452 1060.33 316.449C1061.37 320.613 1066.41 322.362 1069.58 325.36C1072.74 329.123 1074.74 333.724 1075.33 338.601C1075.92 343.49 1078.12 348.044 1081.58 351.552C1085.2 354.466 1090.32 351.552 1094.62 352.093C1097.28 352.468 1098.45 354.466 1101.36 354.633C1104.91 354.841 1108.11 352.218 1111.82 352.634C1118.78 353.384 1124.32 362.753 1130.69 360.004C1135.48 357.964 1135.73 350.927 1139.94 347.887C1146.61 343.14 1154.9 352.051 1159.94 355.632C1159.19 347.78 1159.19 339.874 1159.94 332.022C1160.07 330.833 1160.62 329.728 1161.48 328.899C1162.14 328.389 1162.91 328.036 1163.72 327.87C1164.54 327.704 1165.38 327.729 1166.19 327.942C1265.05 338.102 1363.95 348.304 1462.26 362.669C1465.85 278.029 1469.4 193.361 1472.93 108.666C1448.68 108.374 1424.44 107.625 1400.23 105.876C1344.03 101.712 1288.42 92.2597 1232.93 82.4327C1157.27 69.0662 1081.74 55.2834 1006.92 38.9189C1003.51 54.8809 1000.1 70.829 996.715 86.7632C994.212 95.8381 993.254 105.269 993.882 114.662Z" fill="white" stroke="#436AE5" stroke-linecap="round" stroke-linejoin="round"/>
<path d="M672.769 124.864C674.743 125.553 676.537 126.678 678.018 128.153C683.892 133.192 690.058 138.73 691.849 146.225C693.057 151.18 692.141 156.385 693.015 161.424C693.89 166.462 697.64 171.709 702.722 171.334C705.472 171.334 707.93 169.335 710.679 169.335C715.887 169.335 719.011 175.373 724.177 176.622C729.343 177.871 734.884 173.541 740.174 174.707C745.465 175.873 749.381 183.41 755.339 183.493C758.796 183.493 761.754 181.036 765.129 180.328C773.127 178.704 779.418 187.074 787.125 189.614C795.749 192.404 805.997 187.782 813.829 192.279C817.62 194.402 820.495 198.525 824.827 199.024C828.379 198.788 831.842 197.809 834.992 196.151C841.256 194.857 847.762 195.436 853.697 197.817L890.858 208.727C903.78 212.856 916.996 216.002 930.393 218.137C937.975 154.553 952.056 91.9682 966.846 29.6333C890.905 12.4174 816.027 -9.18839 742.591 -35.0752C736.55 -25.498 753.172 -14.2552 749.923 -3.51212C748.715 0.402031 745.049 3.27518 744.257 7.31425C742.632 15.6422 754.047 22.4712 752.172 30.7159C750.964 36.0042 744.965 38.5859 742.049 43.2079C737.883 49.8703 742.632 57.1989 740.091 63.6115C737.883 69.2745 730.009 73.8132 725.01 77.1028C723.548 78.1542 721.891 78.9044 720.136 79.3097C714.22 80.2258 709.846 73.2303 710.304 67.2758C710.293 65.9284 710.75 64.6188 711.596 63.5698C713.429 61.5294 716.636 62.154 719.344 62.0708C724.802 62.0708 733.134 57.074 732.134 50.7031C731.342 45.7896 723.552 44.8319 723.802 39.5436C723.802 35.0048 730.343 33.8805 732.967 30.2162C733.891 28.6203 734.284 26.7724 734.089 24.9389C733.895 23.1053 733.123 21.3809 731.884 20.0144C729.36 17.3404 726.292 15.2388 722.886 13.8517L672.477 -10.8407C669.962 -12.3669 667.087 -13.2002 664.145 -13.2558C655.813 -12.5063 653.855 -0.76387 654.397 7.56411L657.396 53.7012C657.392 55.747 657.847 57.7677 658.729 59.614C660.104 62.0708 662.895 63.778 663.229 66.5679C663.437 70.1073 659.063 72.2309 657.979 75.5205C655.355 82.516 666.811 90.6774 661.895 96.3404C660.187 98.3392 657.063 98.6306 655.313 100.504C652.772 103.419 654.48 108 656.896 110.998C659.744 113.61 661.795 116.973 662.812 120.7C662.57 120.572 662.319 120.46 662.062 120.367C663.635 122.134 665.647 123.455 667.894 124.198C669.353 124.864 671.102 124.572 672.769 124.864Z" fill="white" stroke="#436AE5" stroke-linecap="round" stroke-linejoin="round"/>
<path d="M905.939 347.429C907.345 341.749 906.967 335.773 904.856 330.315C903.773 328.109 902.148 326.151 901.065 323.945C896.899 315.034 903.023 304.79 909.855 297.753C916.687 290.716 925.019 283.804 926.519 274.06C926.54 270.453 926.988 266.861 927.852 263.358C929.893 258.029 935.809 255.03 938.934 250.408C944.474 242.08 939.892 230.588 933.518 222.76C932.268 221.219 930.893 219.678 929.352 218.137C916.287 215.989 903.394 212.899 890.775 208.893L853.614 197.984C847.678 195.603 841.172 195.024 834.909 196.318C831.759 197.976 828.296 198.955 824.744 199.191C820.578 198.692 817.537 194.569 813.746 192.446C805.914 187.949 795.665 192.446 787.042 189.781C779.335 187.241 773.044 178.871 765.045 180.495C761.671 181.203 758.713 183.743 755.255 183.66C749.298 183.66 745.923 176.123 740.091 174.874C734.259 173.624 729.384 178.08 724.094 176.789C718.803 175.498 715.762 169.46 710.596 169.502C707.846 169.502 705.388 171.334 702.639 171.501C697.556 171.876 693.807 166.587 692.932 161.591C692.057 156.594 692.932 151.347 691.766 146.392C689.974 138.897 683.809 133.359 677.935 128.32C676.453 126.844 674.66 125.72 672.685 125.031C671.019 124.573 669.269 124.739 667.603 124.323C665.356 123.581 663.344 122.259 661.771 120.492C659.398 119.705 656.839 119.684 654.454 120.431C652.069 121.178 649.979 122.656 648.481 124.656C645.434 128.975 643.411 133.93 642.565 139.147C632.771 178.157 618 215.747 598.614 250.991C591.49 263.941 583.742 276.6 577.784 290.175C574.66 297.503 576.493 302.042 573.327 309.329C569.055 319.458 567.092 330.41 567.578 341.392C568.099 345.999 568.099 350.65 567.578 355.258C566.662 358.807 565.493 362.286 564.078 365.668C667.81 404.12 773.494 437.089 880.693 464.438C882.11 424.338 899.648 386.862 905.939 347.429Z" fill="white" stroke="#436AE5" stroke-linecap="round" stroke-linejoin="round"/>
<path d="M906.062 1049.27C906.18 1045.39 905.366 1041.53 903.687 1038.03C901.684 1032.32 900.438 1026.37 899.979 1020.33C899.688 1018.6 899.95 1016.82 900.729 1015.25C901.949 1013.84 903.436 1012.68 905.103 1011.84C911.936 1007.01 911.811 996.554 917.226 990.183C920.767 986.019 926.267 984.104 930.766 980.981C935.265 977.858 939.098 972.236 936.973 967.198C935.432 963.534 931.391 961.785 928.433 959.161C920.476 952.083 921.351 941.839 922.476 931.263C890.853 888.799 861.645 844.591 834.99 798.848C814.827 765.119 792.08 733.057 769.584 700.869C750.545 673.678 731.673 646.737 713.176 619.213C712.157 617.913 711.432 616.407 711.052 614.799C710.844 613.545 710.844 612.265 711.052 611.01C716.301 577.698 722.092 545.635 729.799 512.948C736.464 484.55 743.019 456.137 749.462 427.711C687 408.89 625.177 388.153 563.992 365.501C562.97 368.154 562.502 370.988 562.618 373.829C563.034 378.867 566.284 383.406 566.284 388.445C566.284 396.023 559.16 401.603 556.577 408.723C553.786 416.635 556.577 426.004 552.994 433.707C549.412 441.411 539.746 444.492 535.622 451.862C531.498 459.232 533.747 468.518 537.497 475.972C541.246 483.425 546.412 490.504 548.245 498.707C549.349 504.778 549.349 510.999 548.245 517.07C544.954 540.847 538.038 567.038 550.786 587.4C554.952 593.938 564.534 600.267 561.285 607.304C558.515 613.674 557.887 620.77 559.494 627.527C561.102 634.284 564.858 640.338 570.2 644.78C574.741 642.157 583.489 631.122 583.156 643.656L582.781 660.02C582.828 660.651 582.635 661.276 582.239 661.769C581.753 662.104 581.156 662.238 580.573 662.144C573.991 662.144 572.241 662.685 571.7 669.639C571.108 676.455 571.968 683.319 574.222 689.778C576.477 696.238 580.076 702.146 584.781 707.115C590.113 712.695 597.279 718.899 595.529 726.394C593.89 729.903 591.878 733.225 589.53 736.305C585.906 743.05 588.114 751.461 591.696 758.29C595.279 765.119 600.028 771.324 601.986 778.777C602.629 784.136 603.73 789.43 605.277 794.6C606.997 797.855 609.125 800.878 611.61 803.595C618.91 812.672 624.181 823.207 627.065 834.492C628.323 838.929 628.844 843.543 628.607 848.149C627.94 856.477 623.524 864.805 624.899 873.133C627.024 886.042 641.563 892.704 654.353 895.203C660.281 895.833 666.035 897.585 671.308 900.366C675.511 903.428 679.018 907.345 681.598 911.859C688.597 922.518 695.721 934.427 707.719 938.883C713.551 941.09 721.217 942.131 723.175 948.085C724.3 951.417 723.175 955.331 724.466 958.537C726.508 963.201 732.798 963.909 737.464 965.532C750.837 970.113 757.211 984.978 762.043 998.303C765.376 1007.34 768.709 1017 766.793 1026.45C765.834 1030.95 764.835 1037.49 769.292 1038.57L773.458 1033.82C774.174 1040.36 775.414 1046.84 777.166 1053.18C813.966 1056.13 850.751 1060.37 887.523 1065.93C886.94 1065.93 886.773 1066.22 886.94 1066.88C888.199 1065.72 889.599 1064.71 891.106 1063.89C897.146 1060.18 905.02 1056.47 906.062 1049.27Z" fill="white" stroke="#436AE5" stroke-linecap="round" stroke-linejoin="round"/>
<path d="M1158.18 392.359C1159.92 379.859 1160.23 367.202 1159.1 354.633C1154.02 350.719 1146.6 343.432 1140.35 347.804C1136.19 350.844 1135.9 357.881 1131.11 359.921C1124.65 362.67 1119.19 353.301 1112.23 352.551C1108.53 352.135 1105.32 354.758 1101.78 354.55C1098.86 354.55 1097.61 352.385 1095.03 352.01C1090.86 351.427 1085.61 354.383 1081.99 351.469C1078.53 347.961 1076.33 343.407 1075.74 338.518C1075.15 333.641 1073.15 329.04 1069.99 325.277C1066.82 322.279 1061.66 320.613 1060.74 316.366C1059.49 311.369 1064.91 306.872 1064.91 301.709C1064.91 296.545 1058.58 292.923 1056.58 287.843C1054.87 283.679 1055.91 278.89 1054.12 274.893C1049.24 264.108 1029.12 273.227 1027.66 267.689C1027.46 265.349 1027.76 262.993 1028.54 260.777C1029.66 254.572 1026.5 251.783 1030.91 246.161C1032.49 244.561 1033.76 242.683 1034.66 240.623C1035.11 237.904 1034.82 235.116 1033.83 232.545C1031.66 223.612 1032.88 214.192 1037.25 206.104C1038.99 203.784 1039.94 200.967 1039.95 198.067C1039.2 195.437 1037.59 193.136 1035.37 191.53C1019.83 176.914 1010.67 156.927 1002.04 137.398C998.363 130.209 995.753 122.521 994.294 114.579C993.616 105.166 994.531 95.7057 997.002 86.5969C1000.42 70.6627 1003.82 54.7146 1007.21 38.7527C993.877 35.8379 980.56 32.8259 967.257 29.7168C952.468 92.1767 938.387 154.637 930.804 218.221H929.846C931.221 219.761 932.596 221.302 934.012 222.843C940.386 230.671 944.969 242.08 939.428 250.492C936.304 255.28 930.388 258.112 928.346 263.442C927.482 266.944 927.035 270.536 927.013 274.143C925.597 283.887 917.265 290.799 910.349 297.836C903.434 304.873 897.393 315.117 901.559 324.028C902.642 326.235 904.267 328.192 905.35 330.399C907.462 335.857 907.84 341.832 906.433 347.513C900.268 385.946 883.52 422.465 881.438 461.315C885.575 462.831 889.823 464.029 894.144 464.896L1140.65 517.653V518.028C1144.81 501.372 1146.69 483.967 1149.27 466.728C1153.14 442.035 1155.56 417.218 1158.18 392.359Z" fill="white" stroke="#436AE5" stroke-linecap="round" stroke-linejoin="round"/>
<path d="M1166.06 327.775C1165.26 327.605 1164.43 327.618 1163.64 327.812C1162.85 328.007 1162.11 328.379 1161.48 328.9C1160.78 329.82 1160.41 330.95 1160.44 332.106C1159.69 339.958 1159.69 347.864 1160.44 355.716C1160 355.438 1159.58 355.132 1159.19 354.8C1160.32 367.369 1160.01 380.026 1158.27 392.525C1155.65 417.509 1153.02 442.202 1149.31 466.894C1146.73 484.133 1144.9 501.372 1140.69 518.195C1138.86 538.071 1137.01 557.961 1135.15 577.865C1233.13 593.639 1331.85 604.382 1430.93 610.052C1437.88 610.676 1444.87 610.48 1451.76 609.469C1455.21 527.189 1458.65 444.922 1462.1 362.669C1363.82 348.137 1264.92 337.935 1166.06 327.775Z" fill="white" stroke="#436AE5" stroke-linecap="round" stroke-linejoin="round"/>
<path d="M919.226 870.885C918.434 865.347 917.643 858.726 921.892 855.061C929.724 848.357 941.722 860.766 951.512 857.518C958.469 855.27 960.552 846.65 961.552 839.446C969.301 782.858 973.467 725.52 983.299 669.431L1000.8 569.495C1005.5 542.72 1011 516.862 1011.84 490.129L893.647 464.854C889.326 463.987 885.078 462.789 880.94 461.273C880.94 462.272 880.94 463.271 880.94 464.271C836.892 453.167 793.121 440.98 749.628 427.711C743.157 456.165 736.603 484.577 729.965 512.948C722.258 545.635 716.467 577.781 711.218 611.01C711.011 612.264 711.011 613.545 711.218 614.799C711.598 616.407 712.323 617.913 713.343 619.213C731.84 646.779 750.837 673.678 769.75 700.869C792.247 733.057 814.993 765.119 835.156 798.848C860.258 841.712 887.554 883.254 916.934 923.309C921.07 906.145 921.848 888.344 919.226 870.885Z" fill="white" stroke="#436AE5" stroke-linecap="round" stroke-linejoin="round"/>
<path d="M1201.47 838.697C1190.36 958.343 1180.06 1078.06 1170.56 1197.84C1184.14 1199.55 1197.72 1201.17 1211.43 1202.34C1214.56 1202.39 1217.63 1203.14 1220.43 1204.55C1221.65 1193.93 1222.08 1183.24 1221.72 1172.57L1300.04 1181.89C1302.75 1182.23 1304.92 1182.23 1306.83 1182.48C1306.39 1181.57 1305.89 1180.69 1305.33 1179.85C1302.08 1175.27 1297.38 1172.98 1295.96 1167.07C1307.25 1165.36 1318.29 1168.03 1329.7 1168.65L1371.36 1170.98L1454.89 1175.65C1463.79 1176.81 1472.77 1177.06 1481.72 1176.4C1485.89 1118.1 1484.97 1060.06 1485.39 1001.51C1485.39 992.723 1484.84 878.38 1489.55 865.43C1481.55 863.199 1473.28 862.092 1464.97 862.141C1376.74 858.893 1288.96 850.315 1201.47 838.697Z" fill="white" stroke="#436AE5" stroke-linecap="round" stroke-linejoin="round"/>
<path d="M1451.76 610.302V609.303C1444.87 610.313 1437.88 610.509 1430.93 609.886C1362.47 605.971 1294.22 599.614 1226.18 590.814C1217.43 673.428 1209.1 756.056 1201.18 838.697C1288.67 850.314 1376.44 858.892 1464.6 862.099C1472.9 862.05 1481.17 863.157 1489.17 865.388C1489.47 864.639 1489.76 864.181 1490.05 864.181C1504.46 865.138 1519.21 864.43 1533.63 864.181C1537.79 780.609 1541.54 697.038 1542.83 613.383C1512.46 611.593 1482.47 609.802 1451.76 610.302Z" fill="white" stroke="#436AE5" stroke-linecap="round" stroke-linejoin="round"/>
<path d="M966.263 801.638C964.805 814.13 963.263 826.871 961.555 839.447C960.556 846.65 958.473 855.27 951.515 857.519C941.725 860.766 929.727 848.358 921.895 855.062C917.729 858.726 918.438 865.347 919.229 870.885C921.723 888.355 920.818 906.141 916.563 923.268C918.563 925.933 920.479 928.598 922.479 931.221C921.354 941.798 920.479 952.041 928.436 959.12C931.394 961.743 935.435 963.284 936.976 967.156C939.142 972.195 935.268 977.858 930.769 980.939C926.27 984.021 920.77 985.978 917.229 990.142C911.814 996.512 911.939 1006.8 905.106 1011.79C903.438 1012.63 901.952 1013.8 900.732 1015.21C899.953 1016.78 899.691 1018.56 899.982 1020.29C900.441 1026.32 901.687 1032.27 903.69 1037.99C905.369 1041.49 906.183 1045.35 906.065 1049.23C905.023 1056.47 897.149 1060.18 890.9 1063.97C889.393 1064.79 887.994 1065.8 886.734 1066.97C889.252 1072.05 892.556 1076.7 896.524 1080.75C915.188 1093.53 935.393 1104.53 954.515 1117.02C986.926 1138.13 1018.71 1161.16 1052.12 1180.69C1067.83 1189.89 1085.74 1187.93 1103.41 1189.64C1125.86 1191.85 1148.07 1194.97 1170.35 1197.97C1179.69 1078.18 1189.99 958.467 1201.27 838.822C1122.82 828.287 1044.42 815.379 966.263 801.638Z" fill="white" stroke="#436AE5" stroke-linecap="round" stroke-linejoin="round"/>
<path d="M1226.26 590.815C1195.71 586.901 1165.31 582.528 1135.06 577.698C1136.95 557.656 1138.81 537.641 1140.65 517.653L1011.83 490.088C1011 516.821 1005.5 542.679 1000.79 569.454L983.297 669.389C975.631 713.028 971.424 757.416 966.258 801.596C1044.41 815.337 1122.82 828.246 1201.47 838.656C1209.27 756.014 1217.54 673.401 1226.26 590.815Z" fill="#76B5FF" stroke="#436AE5" stroke-linecap="round" stroke-linejoin="round"/>
</g>
<g filter="url(#filter0_d_5_64798)">
<ellipse cx="1078.06" cy="588.965" rx="20.5472" ry="20.5453" fill="white"/>
<path d="M1095.61 588.965C1095.61 598.655 1087.75 606.511 1078.06 606.511C1068.37 606.511 1060.52 598.655 1060.52 588.965C1060.52 579.275 1068.37 571.42 1078.06 571.42C1087.75 571.42 1095.61 579.275 1095.61 588.965Z" stroke="#FF7D01" stroke-width="6"/>
</g>
</g>
<g filter="url(#filter1_d_5_64798)">
<rect x="1220" y="474.842" width="284" height="104" rx="25" fill="white"/>
</g>
<path d="M1263.77 518.709C1262.57 519.594 1260.99 520.037 1259.04 520.037C1257.08 520.037 1255.51 519.594 1254.31 518.709C1253.11 517.817 1252.5 516.515 1252.5 514.803V505.838H1255.66V514.598C1255.66 515.516 1255.98 516.186 1256.62 516.609C1257.26 517.033 1258.07 517.244 1259.05 517.244C1260.02 517.244 1260.82 517.033 1261.46 516.609C1262.1 516.186 1262.42 515.516 1262.42 514.598V505.838H1265.58V514.803C1265.58 516.515 1264.98 517.817 1263.77 518.709ZM1269.04 516.062V512.166H1267.57V510.506L1270.36 507.84H1271.92V509.842H1275.03V512.166H1271.92V515.682C1271.92 516.43 1272.09 516.945 1272.43 517.225C1272.76 517.505 1273.25 517.645 1273.87 517.645C1274.12 517.645 1274.36 517.615 1274.6 517.557C1274.85 517.498 1275.03 517.433 1275.15 517.361L1275.34 517.283V519.686C1274.84 519.926 1274.21 520.044 1273.45 520.037C1271.97 520.037 1270.87 519.715 1270.13 519.07C1269.4 518.426 1269.04 517.423 1269.04 516.062ZM1276.72 517.02C1276.72 515.991 1277.15 515.219 1277.99 514.705C1278.84 514.197 1279.91 513.943 1281.21 513.943C1281.88 513.943 1282.48 514.012 1283.01 514.148C1283.55 514.298 1283.92 514.435 1284.12 514.559L1284.45 514.783V513.318C1284.45 512.889 1284.28 512.527 1283.96 512.234C1283.63 511.948 1283.09 511.805 1282.33 511.805C1281.78 511.805 1281.29 511.906 1280.86 512.107C1280.41 512.316 1280.19 512.635 1280.19 513.064H1277.23C1277.24 511.925 1277.7 511.069 1278.62 510.496C1279.53 509.93 1280.77 509.646 1282.33 509.646C1283.91 509.646 1285.14 509.952 1286.01 510.564C1286.89 511.176 1287.33 512.094 1287.33 513.318V516.443C1287.33 516.847 1287.38 517.127 1287.47 517.283C1287.57 517.439 1287.74 517.518 1287.98 517.518L1288.4 517.439V519.842C1288.15 519.972 1287.74 520.037 1287.16 520.037C1286.41 520.037 1285.85 519.874 1285.46 519.549C1285.12 519.269 1284.9 519.012 1284.81 518.777L1284.75 518.641H1284.6C1284.6 518.667 1284.57 518.725 1284.51 518.816C1284.44 518.901 1284.31 519.018 1284.12 519.168C1283.94 519.318 1283.72 519.451 1283.47 519.568C1282.81 519.881 1281.94 520.037 1280.86 520.037C1279.68 520.037 1278.69 519.78 1277.9 519.266C1277.12 518.758 1276.72 518.009 1276.72 517.02ZM1282.04 517.859C1282.56 517.859 1283.02 517.794 1283.43 517.664C1283.82 517.54 1284.09 517.413 1284.24 517.283L1284.45 517.098V516.502C1284.4 516.45 1284.33 516.395 1284.24 516.336C1284.13 516.264 1283.87 516.176 1283.47 516.072C1283.04 515.962 1282.57 515.906 1282.04 515.906C1280.47 515.906 1279.68 516.232 1279.68 516.883C1279.68 517.534 1280.47 517.859 1282.04 517.859ZM1301.24 519.842H1298.36V514.803C1298.36 513.963 1298.14 513.322 1297.69 512.879C1297.25 512.43 1296.62 512.205 1295.82 512.205C1295.01 512.205 1294.39 512.443 1293.95 512.918C1293.51 513.4 1293.29 514.028 1293.29 514.803V519.842H1290.4V505.838H1293.29V511.502H1293.45C1293.52 511.346 1293.68 511.131 1293.91 510.857C1294.11 510.636 1294.33 510.447 1294.55 510.291C1294.82 510.109 1295.18 509.956 1295.63 509.832C1296.08 509.708 1296.55 509.646 1297.04 509.646C1298.3 509.646 1299.32 510.008 1300.09 510.73C1300.86 511.46 1301.24 512.55 1301.24 514.002V519.842Z" fill="#272727"/>
<path d="M1254.42 536.33L1251.72 538.457V536.55L1254.57 534.238H1256.12V546.842H1254.42V536.33ZM1273.77 546.842H1271.71L1269.44 539.679H1269.36L1267.09 546.842H1265.03L1262.42 538.018H1263.98L1266.06 545.146H1266.13L1268.39 538.018H1270.41L1272.67 545.146H1272.75L1274.82 538.018H1276.38L1273.77 546.842ZM1277.75 544.372C1277.75 543.47 1278.13 542.802 1278.9 542.368C1279.66 541.94 1280.64 541.727 1281.83 541.727C1282.44 541.727 1283 541.8 1283.52 541.946C1284.06 542.099 1284.44 542.242 1284.65 542.377L1285 542.597V541.208C1285 540.61 1284.78 540.142 1284.34 539.802C1283.9 539.456 1283.24 539.283 1282.35 539.283C1280.59 539.283 1279.71 539.764 1279.71 540.725H1278.16C1278.16 539.752 1278.56 539.028 1279.34 538.554C1280.12 538.079 1281.13 537.842 1282.35 537.842C1283.58 537.842 1284.59 538.129 1285.37 538.703C1286.14 539.283 1286.54 540.118 1286.54 541.208V544.416C1286.54 544.861 1286.6 545.172 1286.72 545.348C1286.84 545.518 1287.03 545.603 1287.3 545.603C1287.53 545.603 1287.69 545.57 1287.76 545.506L1287.8 545.488V546.877C1287.62 546.971 1287.35 547.018 1287.01 547.018C1286.42 547.018 1285.99 546.892 1285.71 546.64C1285.49 546.452 1285.32 546.256 1285.22 546.051L1285.17 545.945H1285.1C1284.96 546.092 1284.81 546.215 1284.65 546.314C1284.47 546.438 1284.27 546.546 1284.06 546.64C1283.48 546.892 1282.78 547.018 1281.96 547.018C1280.71 547.018 1279.69 546.804 1278.91 546.376C1278.13 545.954 1277.75 545.286 1277.75 544.372ZM1282.18 543.168C1280.28 543.168 1279.33 543.569 1279.33 544.372C1279.33 545.181 1280.28 545.585 1282.18 545.585C1282.75 545.585 1283.26 545.523 1283.72 545.4C1284.18 545.289 1284.49 545.184 1284.66 545.084C1284.82 545.002 1284.93 544.929 1285 544.864V543.854C1284.93 543.789 1284.82 543.716 1284.66 543.634C1284.46 543.54 1284.15 543.44 1283.73 543.335C1283.28 543.224 1282.76 543.168 1282.18 543.168ZM1294.39 537.842C1294.74 537.842 1295.05 537.877 1295.32 537.947L1295.45 537.965V539.661C1295.11 539.544 1294.67 539.482 1294.12 539.477C1293.17 539.477 1292.42 539.778 1291.88 540.382C1291.33 540.985 1291.06 541.741 1291.06 542.649V546.842H1289.51V538.018H1291.06V539.731H1291.15C1291.24 539.544 1291.38 539.324 1291.58 539.072C1291.76 538.85 1291.96 538.656 1292.19 538.492C1292.44 538.316 1292.76 538.164 1293.15 538.035C1293.55 537.906 1293.96 537.842 1294.39 537.842ZM1306.28 542.43L1306.23 543.168H1298.26C1298.26 543.672 1298.56 544.199 1299.16 544.75C1299.75 545.307 1300.54 545.585 1301.54 545.585C1302.27 545.585 1302.87 545.447 1303.34 545.172C1303.73 544.938 1304 544.727 1304.15 544.539L1304.22 544.416H1306.04C1306 544.504 1305.96 544.595 1305.92 544.688C1305.85 544.823 1305.7 545.031 1305.49 545.312C1305.26 545.611 1305 545.878 1304.69 546.112C1304.4 546.341 1303.97 546.549 1303.4 546.736C1302.86 546.924 1302.24 547.018 1301.54 547.018C1300.08 547.018 1298.89 546.602 1297.99 545.77C1297.07 544.938 1296.61 543.824 1296.61 542.43C1296.61 541.047 1297.06 539.937 1297.98 539.099C1298.89 538.261 1300.04 537.842 1301.45 537.842C1302.84 537.842 1304 538.261 1304.92 539.099C1305.83 539.937 1306.28 541.047 1306.28 542.43ZM1303.79 540.118C1303.2 539.562 1302.42 539.283 1301.45 539.283C1300.46 539.283 1299.69 539.562 1299.11 540.118C1298.53 540.675 1298.24 541.223 1298.24 541.762H1304.65C1304.65 541.223 1304.36 540.675 1303.79 540.118ZM1317.49 546.842H1315.94V542.289C1315.94 541.258 1315.68 540.499 1315.16 540.013C1314.64 539.526 1313.94 539.283 1313.06 539.283C1312.13 539.283 1311.42 539.559 1310.93 540.109C1310.43 540.66 1310.19 541.387 1310.19 542.289V546.842H1308.64V534.238H1310.19V539.371H1310.27C1310.4 539.172 1310.54 538.993 1310.7 538.835C1310.9 538.659 1311.1 538.504 1311.31 538.369C1311.55 538.223 1311.87 538.1 1312.27 538C1312.67 537.895 1313.08 537.842 1313.52 537.842C1314.65 537.842 1315.6 538.182 1316.36 538.861C1317.11 539.547 1317.49 540.569 1317.49 541.929V546.842ZM1321.11 545.761C1320.2 544.923 1319.74 543.812 1319.74 542.43C1319.74 541.053 1320.2 539.942 1321.11 539.099C1322.02 538.261 1323.18 537.842 1324.58 537.842C1325.98 537.842 1327.13 538.261 1328.05 539.099C1328.96 539.942 1329.42 541.053 1329.42 542.43C1329.42 543.812 1328.96 544.923 1328.05 545.761C1327.13 546.599 1325.98 547.018 1324.58 547.018C1323.18 547.018 1322.02 546.599 1321.11 545.761ZM1326.95 544.697C1327.54 544.105 1327.83 543.35 1327.83 542.43C1327.83 541.51 1327.54 540.754 1326.95 540.162C1326.35 539.576 1325.57 539.283 1324.58 539.283C1323.59 539.283 1322.8 539.576 1322.22 540.162C1321.62 540.748 1321.32 541.504 1321.32 542.43C1321.32 543.355 1321.62 544.111 1322.22 544.697C1322.81 545.289 1323.6 545.585 1324.58 545.585C1325.55 545.585 1326.34 545.289 1326.95 544.697ZM1331.77 538.018H1333.32V542.579C1333.32 543.61 1333.58 544.369 1334.1 544.855C1334.62 545.342 1335.32 545.585 1336.19 545.585C1337.11 545.585 1337.82 545.307 1338.33 544.75C1338.83 544.199 1339.08 543.476 1339.08 542.579V538.018H1340.62V546.842H1339.08V545.488H1338.99C1338.87 545.676 1338.73 545.854 1338.56 546.024C1338.36 546.206 1338.16 546.361 1337.95 546.49C1337.71 546.643 1337.39 546.769 1336.99 546.868C1336.59 546.968 1336.18 547.018 1335.74 547.018C1334.6 547.018 1333.65 546.675 1332.91 545.989C1332.15 545.315 1331.77 544.299 1331.77 542.939V538.018ZM1349.97 544.231C1349.97 543.886 1349.81 543.619 1349.47 543.432C1349.13 543.238 1348.71 543.13 1348.22 543.106C1347.71 543.077 1347.16 543.024 1346.57 542.948C1345.94 542.872 1345.39 542.781 1344.92 542.676C1344.42 542.57 1344 542.333 1343.66 541.964C1343.32 541.601 1343.15 541.114 1343.15 540.505C1343.15 539.62 1343.53 538.952 1344.29 538.501C1345.04 538.062 1346.02 537.842 1347.22 537.842C1348.44 537.842 1349.43 538.088 1350.18 538.58C1350.92 539.072 1351.29 539.846 1351.29 540.9H1349.71C1349.71 540.35 1349.51 539.942 1349.11 539.679C1348.72 539.415 1348.09 539.283 1347.22 539.283C1345.56 539.283 1344.74 539.69 1344.74 540.505C1344.74 540.839 1344.91 541.094 1345.25 541.27C1345.58 541.451 1346 541.554 1346.5 541.577C1346.96 541.601 1347.52 541.65 1348.15 541.727C1348.76 541.809 1349.31 541.905 1349.8 542.017C1350.3 542.14 1350.72 542.386 1351.06 542.755C1351.4 543.136 1351.56 543.628 1351.56 544.231C1351.56 544.888 1351.36 545.433 1350.94 545.866C1350.53 546.294 1350.01 546.593 1349.39 546.763C1348.79 546.933 1348.08 547.018 1347.26 547.018C1345.54 547.018 1344.32 546.596 1343.58 545.752C1343.17 545.271 1342.96 544.674 1342.96 543.959V543.678H1344.54V543.959C1344.54 545.037 1345.45 545.576 1347.26 545.576C1349.07 545.588 1349.97 545.14 1349.97 544.231ZM1363.22 542.43L1363.17 543.168H1355.19C1355.19 543.672 1355.49 544.199 1356.09 544.75C1356.68 545.307 1357.48 545.585 1358.47 545.585C1359.21 545.585 1359.81 545.447 1360.27 545.172C1360.66 544.938 1360.93 544.727 1361.08 544.539L1361.15 544.416H1362.97C1362.94 544.504 1362.9 544.595 1362.86 544.688C1362.78 544.823 1362.64 545.031 1362.43 545.312C1362.2 545.611 1361.93 545.878 1361.63 546.112C1361.33 546.341 1360.9 546.549 1360.34 546.736C1359.8 546.924 1359.18 547.018 1358.47 547.018C1357.01 547.018 1355.83 546.602 1354.92 545.77C1354 544.938 1353.54 543.824 1353.54 542.43C1353.54 541.047 1354 539.937 1354.91 539.099C1355.82 538.261 1356.98 537.842 1358.38 537.842C1359.78 537.842 1360.94 538.261 1361.86 539.099C1362.76 539.937 1363.22 541.047 1363.22 542.43ZM1360.72 540.118C1360.14 539.562 1359.36 539.283 1358.38 539.283C1357.4 539.283 1356.62 539.562 1356.05 540.118C1355.47 540.675 1355.18 541.223 1355.18 541.762H1361.58C1361.58 541.223 1361.3 540.675 1360.72 540.118ZM1372.11 537.666V538.018H1374.7V539.424H1372.11V546.842H1370.56V539.424H1369.08V538.562L1370.56 538.018V537.464C1370.56 536.333 1370.87 535.483 1371.51 534.915C1372.13 534.347 1372.98 534.062 1374.06 534.062C1374.37 534.062 1374.69 534.104 1375 534.186C1375.32 534.273 1375.56 534.353 1375.71 534.423L1375.93 534.546V535.935C1375.54 535.589 1375 535.416 1374.32 535.416C1373.59 535.416 1373.04 535.592 1372.67 535.943C1372.3 536.289 1372.11 536.863 1372.11 537.666ZM1377.55 545.761C1376.64 544.923 1376.18 543.812 1376.18 542.43C1376.18 541.053 1376.64 539.942 1377.55 539.099C1378.46 538.261 1379.62 537.842 1381.03 537.842C1382.42 537.842 1383.58 538.261 1384.5 539.099C1385.41 539.942 1385.86 541.053 1385.86 542.43C1385.86 543.812 1385.41 544.923 1384.5 545.761C1383.58 546.599 1382.42 547.018 1381.03 547.018C1379.62 547.018 1378.46 546.599 1377.55 545.761ZM1383.39 544.697C1383.98 544.105 1384.28 543.35 1384.28 542.43C1384.28 541.51 1383.98 540.754 1383.39 540.162C1382.8 539.576 1382.01 539.283 1381.03 539.283C1380.04 539.283 1379.25 539.576 1378.66 540.162C1378.06 540.748 1377.76 541.504 1377.76 542.43C1377.76 543.355 1378.06 544.111 1378.66 544.697C1379.25 545.289 1380.04 545.585 1381.03 545.585C1382 545.585 1382.79 545.289 1383.39 544.697ZM1388.21 538.018H1389.76V542.579C1389.76 543.61 1390.02 544.369 1390.54 544.855C1391.07 545.342 1391.76 545.585 1392.64 545.585C1393.56 545.585 1394.27 545.307 1394.77 544.75C1395.27 544.199 1395.52 543.476 1395.52 542.579V538.018H1397.07V546.842H1395.52V545.488H1395.43C1395.31 545.676 1395.17 545.854 1395 546.024C1394.81 546.206 1394.6 546.361 1394.39 546.49C1394.15 546.643 1393.83 546.769 1393.44 546.868C1393.04 546.968 1392.62 547.018 1392.19 547.018C1391.04 547.018 1390.09 546.675 1389.35 545.989C1388.59 545.315 1388.21 544.299 1388.21 542.939V538.018ZM1408.61 546.842H1407.07V542.289C1407.07 541.258 1406.81 540.499 1406.29 540.013C1405.76 539.526 1405.06 539.283 1404.18 539.283C1403.26 539.283 1402.55 539.559 1402.06 540.109C1401.56 540.66 1401.31 541.387 1401.31 542.289V546.842H1399.76V538.018H1401.31V539.371H1401.4C1401.52 539.172 1401.67 538.993 1401.83 538.835C1402.02 538.659 1402.22 538.504 1402.44 538.369C1402.68 538.223 1403 538.1 1403.39 538C1403.79 537.895 1404.21 537.842 1404.64 537.842C1405.78 537.842 1406.73 538.182 1407.49 538.861C1408.24 539.547 1408.61 540.569 1408.61 541.929V546.842ZM1418.99 534.238H1420.54V546.842H1418.99V545.523H1418.92C1418.83 545.676 1418.66 545.852 1418.42 546.051C1418.22 546.215 1418 546.364 1417.76 546.499C1417.51 546.64 1417.18 546.76 1416.77 546.859C1416.37 546.965 1415.96 547.018 1415.54 547.018C1414.21 547.018 1413.1 546.596 1412.21 545.752C1411.31 544.908 1410.86 543.801 1410.86 542.43C1410.86 541.07 1411.31 539.963 1412.21 539.107C1413.1 538.264 1414.21 537.842 1415.54 537.842C1416.25 537.842 1416.89 537.968 1417.45 538.22C1418 538.472 1418.39 538.718 1418.62 538.958L1418.92 539.336H1418.99V534.238ZM1413.34 540.171C1412.75 540.769 1412.45 541.521 1412.45 542.43C1412.45 543.344 1412.75 544.097 1413.34 544.688C1413.93 545.286 1414.73 545.585 1415.72 545.585C1416.72 545.585 1417.51 545.286 1418.11 544.688C1418.7 544.097 1418.99 543.344 1418.99 542.43C1418.99 541.492 1418.69 540.733 1418.09 540.153C1417.49 539.573 1416.7 539.283 1415.72 539.283C1414.73 539.283 1413.93 539.579 1413.34 540.171Z" fill="#436AE5"/>
</g>
<defs>
<filter id="filter0_d_5_64798" x="1037.52" y="558.42" width="81.0938" height="81.0908" filterUnits="userSpaceOnUse" color-interpolation-filters="sRGB">
<feFlood flood-opacity="0" result="BackgroundImageFix"/>
<feColorMatrix in="SourceAlpha" type="matrix" values="0 0 0 0 0 0 0 0 0 0 0 0 0 0 0 0 0 0 127 0" result="hardAlpha"/>
<feOffset dy="10"/>
<feGaussianBlur stdDeviation="10"/>
<feComposite in2="hardAlpha" operator="out"/>
<feColorMatrix type="matrix" values="0 0 0 0 0.246875 0 0 0 0 0.367998 0 0 0 0 0.75 0 0 0 0.7 0"/>
<feBlend mode="normal" in2="BackgroundImageFix" result="effect1_dropShadow_5_64798"/>
<feBlend mode="normal" in="SourceGraphic" in2="effect1_dropShadow_5_64798" result="shape"/>
</filter>
<filter id="filter1_d_5_64798" x="1180" y="448.842" width="364" height="184" filterUnits="userSpaceOnUse" color-interpolation-filters="sRGB">
<feFlood flood-opacity="0" result="BackgroundImageFix"/>
<feColorMatrix in="SourceAlpha" type="matrix" values="0 0 0 0 0 0 0 0 0 0 0 0 0 0 0 0 0 0 127 0" result="hardAlpha"/>
<feOffset dy="14"/>
<feGaussianBlur stdDeviation="20"/>
<feComposite in2="hardAlpha" operator="out"/>
<feColorMatrix type="matrix" values="0 0 0 0 0.0437383 0 0 0 0 0.109346 0 0 0 0 0.316262 0 0 0 0.2 0"/>
<feBlend mode="normal" in2="BackgroundImageFix" result="effect1_dropShadow_5_64798"/>
<feBlend mode="normal" in="SourceGraphic" in2="effect1_dropShadow_5_64798" result="shape"/>
</filter>
<clipPath id="clip0_5_64798">
<rect width="1920" height="1023" fill="white" transform="translate(0 0.841797)"/>
</clipPath>
<clipPath id="clip1_5_64798">
<rect width="2549" height="1687" fill="white" transform="translate(-205 -663.158)"/>
</clipPath>
<clipPath id="clip2_5_64798">
<rect width="2549" height="1687" fill="white" transform="translate(-54.3203 -319.595)"/>
</clipPath>
</defs>
</svg>
