<svg width="1920" height="1024" viewBox="0 0 1920 1024" fill="none" xmlns="http://www.w3.org/2000/svg">
<g clip-path="url(#clip0_5_64987)">
<rect width="1920" height="1023" transform="translate(0 0.841797)" fill="#F1F4FF"/>
<g clip-path="url(#clip1_5_64987)">
<path d="M2074.62 163.424C2074.89 158.962 2074.16 154.496 2072.49 150.349C2065.79 137.024 2042.83 139.98 2035.83 126.781C2034.25 123.782 2033.75 120.285 2032.04 117.37C2027.63 109.667 2017.25 108.584 2008.55 106.877C1999.84 105.169 1989.59 99.2982 1990.88 90.5121C1992.05 82.6006 2002.42 77.1873 2000.8 69.359C1999.42 62.8632 1990.8 60.6979 1987.84 54.7851C1983.22 45.5826 1994.47 35.714 1999.42 29.1349C2006.13 20.224 2011.67 10.9799 2009 -0.679291C2007.91 -3.72519 2007.36 -6.93813 2007.38 -10.1732C2007.96 -15.2116 2012.34 -18.876 2016.38 -21.999L2020.79 -25.3718C2020.03 -25.8206 2019.39 -26.4679 2018.96 -27.2456L2055.96 -74.7984C2059.24 -79.5141 2063.2 -83.7229 2067.7 -87.2904C2073.76 -90.8542 2080.07 -93.9716 2086.58 -96.6177C2092.78 -99.824 2100.07 -104.946 2100.99 -111.983C2097.7 -119.686 2086.83 -119.894 2078.66 -117.979C2070.49 -116.064 2060.75 -113.815 2054.54 -119.353C2052.96 -120.81 2051.66 -122.809 2049.58 -123.517C2045.42 -124.85 2042.17 -120.602 2039.62 -117.229C2037.08 -113.857 2031.83 -110.817 2029.13 -114.065C2027.46 -116.064 2027.96 -119.52 2025.79 -120.977C2023.63 -122.434 2021.63 -120.977 2019.13 -120.977C2014.25 -120.602 2010.46 -125.141 2006.21 -127.431C2001.96 -129.721 1994.38 -128.472 1995.05 -123.6L1987.18 -143.046C1986.63 -144.42 1985.84 -146.044 1984.34 -146.294C1983.78 -146.32 1983.21 -146.229 1982.68 -146.029C1982.15 -145.828 1981.67 -145.522 1981.26 -145.128C1974.97 -140.215 1968.76 -131.179 1961.43 -134.76C1958.3 -136.301 1955.81 -140.173 1952.47 -139.257C1949.97 -138.549 1948.93 -135.468 1946.64 -134.26C1941.81 -131.679 1937.64 -138.716 1932.73 -141.214C1927.81 -143.712 1922.14 -141.464 1916.81 -140.34C1901.65 -137.175 1897.23 -156.246 1895.19 -167.655C1894.65 -170.695 1893.98 -174.276 1891.02 -175.65C1889.43 -176.127 1887.72 -176.025 1886.2 -175.362C1884.67 -174.699 1883.43 -173.518 1882.69 -172.028C1881.33 -169.001 1880.13 -165.901 1879.11 -162.742C1870.78 -144.837 1837.91 -149.709 1822.33 -149.625C1814.62 -149.625 1806.87 -149.625 1799.16 -149.625C1801.21 -146.487 1802.94 -143.154 1804.33 -139.673C1806.79 -132.428 1803 -127.181 1803.08 -120.519C1803.08 -116.355 1805.79 -114.315 1806.87 -110.442C1808.54 -104.446 1805.41 -99.0328 1805.91 -92.995C1806.41 -86.9572 1810.45 -80.8362 1813.5 -75.2981C1821.29 -60.9688 1824.9 -44.7355 1823.91 -28.4531C1823.17 -22.8358 1822.99 -17.1588 1823.37 -11.5057C1824.51 -5.87184 1826.24 -0.373184 1828.53 4.90045C1833.6 18.7545 1835.58 33.5494 1834.32 48.2476C1833.66 55.6179 1832.37 63.696 1836.37 69.9004C1838.2 72.7319 1840.99 74.8972 1842.74 77.7703C1844.77 81.8495 1845.71 86.3797 1845.49 90.9286L1848.99 184.535C1848.99 188.158 1849.24 191.822 1849.28 195.528C1924.81 191.073 2000.38 186.201 2075.37 176.374C2074.99 172.085 2074.74 167.754 2074.62 163.424Z" fill="white" stroke="#436AE5" stroke-linecap="round" stroke-linejoin="round"/>
<path d="M1977.17 372.415C1992.88 369.432 2008.8 367.65 2024.79 367.085C2031.65 367.445 2038.53 366.984 2045.28 365.711C2051.7 363.879 2055.91 361.047 2063.16 362.504C2070.41 363.962 2075.4 369.667 2081.28 373.706C2085.44 353.885 2103.11 335.064 2094.94 316.742C2093.96 315.03 2093.24 313.176 2092.82 311.246C2091.69 302.668 2103.86 300.419 2111.98 297.421C2115.4 295.969 2118.48 293.836 2121.04 291.152C2123.6 288.468 2125.58 285.29 2126.87 281.812C2128.15 278.334 2128.72 274.631 2128.52 270.928C2128.33 267.225 2127.38 263.601 2125.73 260.278C2120.69 251.201 2110.44 245.455 2107.02 235.669C2106.11 233.088 2105.52 230.048 2103.15 228.757C2100.78 227.466 2098.03 228.466 2095.44 228.424C2087.4 228.424 2082.95 219.055 2081.15 211.268C2078.29 199.811 2076.35 188.142 2075.36 176.374C2000.38 186.201 1924.8 191.073 1849.28 195.528C1849.69 205.237 1848.79 214.957 1846.61 224.426C1845.47 227.973 1844.72 231.63 1844.36 235.336C1844.42 238.623 1844.93 241.886 1845.86 245.038C1848.09 256.345 1851.87 267.289 1857.11 277.559C1858.82 280.599 1860.82 283.472 1862.44 286.553C1865.48 293.311 1868.05 300.267 1870.15 307.373C1872.6 315.035 1875.02 322.697 1877.48 330.358C1879.63 336.64 1881.44 343.034 1882.89 349.513C1884.31 357.466 1883.94 365.669 1885.56 373.581C1885.84 374.996 1886.17 376.384 1886.56 377.745C1898.85 377.224 1911.09 375.833 1923.18 373.581C1941.43 370.249 1958.76 375.954 1977.17 372.415Z" fill="white" stroke="#436AE5" stroke-linecap="round" stroke-linejoin="round"/>
<path d="M2162.6 629.582C2162.23 631.044 2162.23 632.576 2162.6 634.038C2164.19 638.535 2170.73 637.494 2175.1 636.037C2180.2 634.374 2185.47 633.284 2190.81 632.789C2191.89 628.167 2192.93 623.545 2193.85 618.881C2194.58 612.368 2196.83 606.12 2200.43 600.643C2203.94 596.43 2208.74 593.501 2214.09 592.315C2213.43 582.904 2212.8 573.535 2212.14 564.124C2212.14 563.167 2212.14 562.209 2211.93 561.21C2205.14 558.17 2196.6 557.295 2191.35 551.882C2183.68 543.887 2186.93 530.479 2182.18 520.444C2174.31 503.788 2146.44 499.624 2146.02 481.344C2145.81 472.267 2152.85 461.69 2146.52 455.194C2141.19 449.656 2131.94 453.487 2125.4 457.609C2125.37 450.854 2123.91 444.182 2121.12 438.026C2118.34 431.871 2114.29 426.37 2109.24 421.882C2103.53 416.886 2096.74 413.263 2091.32 407.933C2087.27 403.833 2084.2 398.864 2082.35 393.402C2080.5 387.941 2079.93 382.13 2080.66 376.412C2080.66 375.496 2080.82 374.579 2081.16 373.663C2075.28 369.499 2070.04 363.836 2063.04 362.462C2056.04 361.088 2051.58 363.836 2045.16 365.668C2038.41 366.942 2031.53 367.403 2024.67 367.043C2008.68 367.608 1992.76 369.39 1977.05 372.373C1958.64 375.912 1941.31 370.207 1922.89 373.622C1910.8 375.874 1898.56 377.265 1886.27 377.786C1887.36 383.084 1890.07 387.914 1894.02 391.61C1896.19 393.4 1898.1 395.489 1899.69 397.815C1907.35 408.683 1925.52 413.138 1926.6 426.588C1927.1 432.709 1923.48 438.622 1924.02 444.743C1924.93 455.694 1936.1 458.276 1941.39 466.312C1949.1 477.93 1948.22 494.836 1947.81 507.952C1946.6 548.926 1952.55 589.525 1958.09 630.249C2027.21 618.34 2097.07 611.511 2166.89 604.765C2165.59 613.149 2164.16 621.421 2162.6 629.582Z" fill="white" stroke="#436AE5" stroke-linecap="round" stroke-linejoin="round"/>
<path d="M1971.8 805.095C1968.3 772.991 1968.3 739.054 1966.63 706.783C1964.8 670.39 1958.89 634.205 1954.14 598.02L1768.08 606.348C1727.88 608.18 1687.93 606.348 1647.73 607.014C1631.06 607.305 1610.9 611.178 1594.65 605.431V606.181C1580.24 606.389 1565.49 607.097 1551.08 606.181C1549.29 606.181 1548.16 619.672 1547.45 638.202C1595.32 641.817 1643.35 642.624 1691.3 640.617C1691.83 679.675 1692.35 718.748 1692.85 757.834C1692.85 759.249 1692.85 760.957 1694.35 761.54C1695.22 761.873 1696.18 761.873 1697.05 761.54C1708.26 758.916 1714.13 768.202 1723.42 768.868C1726.55 768.868 1728.09 766.37 1731.76 767.619C1736.3 769.035 1739.26 774.989 1742.38 778.237C1745.66 781.566 1749.75 783.991 1754.25 785.275C1758.74 786.559 1763.5 786.659 1768.04 785.566C1773.96 784.025 1780.17 780.486 1785.75 782.984C1790.46 785.066 1792.41 790.521 1795.29 794.768C1799.45 801.097 1802.37 799.39 1808.29 797.516C1810.54 796.809 1813.2 794.144 1815.87 794.768C1818.53 795.393 1819.83 799.973 1822.91 801.514C1825.99 803.055 1829.7 800.764 1833.03 799.64C1841.36 796.809 1850.57 801.556 1858.61 805.636C1866.65 809.717 1876.69 813.173 1884.19 808.176C1887.98 805.636 1890.69 801.097 1895.19 800.39C1897.35 800.015 1899.56 800.639 1901.65 800.098C1905.19 799.14 1907.19 795.268 1910.52 793.811C1916.39 791.187 1922.77 796.809 1929.18 796.6C1932.25 796.012 1935.35 795.636 1938.47 795.476C1943.6 796.101 1946.8 801.306 1950.97 804.387C1953.95 806.301 1957.34 807.468 1960.87 807.787C1964.39 808.106 1967.94 807.568 1971.22 806.219L1972.26 805.719L1971.8 805.095Z" fill="white" stroke="#436AE5" stroke-linecap="round" stroke-linejoin="round"/>
<path d="M1834.7 41.2941C1834.92 28.8861 1832.89 16.5402 1828.7 4.85919C1826.41 -0.414444 1824.68 -5.9131 1823.53 -11.547C1823.15 -17.2001 1823.33 -22.8771 1824.07 -28.4944C1825.07 -44.7768 1821.46 -61.0101 1813.66 -75.3393C1810.62 -80.8774 1806.62 -86.5821 1806.08 -93.0363C1805.53 -99.4905 1808.7 -104.487 1807.03 -110.483C1805.95 -114.356 1803.33 -116.23 1803.24 -120.56C1803.24 -127.431 1806.95 -132.469 1804.49 -139.715C1803.11 -143.224 1801.38 -146.585 1799.33 -149.75C1785.16 -149.75 1770.96 -150.208 1756.79 -150.166L1595.4 -149.417C1574.57 -149.417 1553.99 -149.209 1533.25 -149.417C1530.47 -85.0414 1527.77 -20.6522 1525.16 43.7509C1628.27 48.0398 1731.63 47.1654 1834.7 41.2941Z" fill="white" stroke="#436AE5" stroke-linecap="round" stroke-linejoin="round"/>
<path d="M1848.99 184.535L1845.49 90.9287C1845.71 86.3799 1844.76 81.8497 1842.74 77.7705C1840.99 74.8973 1838.2 72.7321 1836.36 69.9006C1832.2 63.6962 1833.66 55.6181 1834.32 48.2478C1834.53 45.916 1834.61 43.6258 1834.7 41.2939C1731.63 47.1652 1628.27 48.0396 1525.17 43.7923C1522.61 104.476 1520.06 165.117 1517.5 225.717L1745.05 229.881C1749.91 229.711 1754.77 230.287 1759.46 231.588C1768.13 234.503 1775.21 242.29 1784.46 242.373C1788.39 242.029 1792.29 241.289 1796.08 240.166C1813.99 236.585 1830.74 248.161 1848.28 254.157C1847.49 251.159 1846.74 248.119 1845.99 245.121C1845.06 241.969 1844.55 238.706 1844.49 235.419C1844.85 231.713 1845.6 228.056 1846.74 224.51C1849.41 211.363 1850.17 197.899 1848.99 184.535Z" fill="white" stroke="#436AE5" stroke-linecap="round" stroke-linejoin="round"/>
<path d="M1899.98 397.982C1898.4 395.656 1896.49 393.567 1894.32 391.777C1889.23 387.613 1886.9 380.326 1885.57 373.706C1883.94 365.794 1884.32 357.591 1882.9 349.638C1881.45 343.159 1879.64 336.764 1877.48 330.483C1875.03 322.822 1872.61 315.16 1870.15 307.498C1868.06 300.392 1865.48 293.436 1862.45 286.678C1860.82 283.597 1858.82 280.724 1857.11 277.684C1853.12 270.277 1850.11 262.382 1848.16 254.199C1830.62 248.203 1813.87 236.627 1795.96 240.208C1792.17 241.331 1788.27 242.07 1784.33 242.415C1775.21 242.415 1768.13 234.545 1759.34 231.63C1754.65 230.329 1749.79 229.753 1744.92 229.923L1517.38 225.759C1515.63 267.982 1513.86 310.191 1512.09 352.386C1542.79 351.886 1572.78 353.677 1603.45 355.509C1603.11 375.579 1602.65 395.664 1602.07 415.762C1608.09 416.337 1614.15 416.518 1620.19 416.303L1782 413.388C1824.78 412.639 1867.44 409.224 1910.27 407.476C1906.34 404.906 1902.86 401.697 1899.98 397.982Z" fill="white" stroke="#436AE5" stroke-linecap="round" stroke-linejoin="round"/>
<path d="M1948.09 508.161C1948.51 494.878 1949.38 477.972 1941.68 466.521C1936.39 458.484 1925.22 455.903 1924.31 444.952C1923.76 438.83 1927.39 432.918 1926.89 426.797C1926.18 417.927 1918.06 412.972 1910.22 407.476C1867.4 409.349 1824.74 412.639 1781.95 413.388L1620.15 416.303C1614.1 416.518 1608.05 416.337 1602.02 415.762C1600.19 479.055 1597.23 542.306 1594.23 605.557C1610.48 611.136 1630.48 607.43 1647.31 607.139C1687.51 606.431 1727.46 608.305 1767.66 606.473L1953.72 598.145C1949.48 568.344 1947.6 538.257 1948.09 508.161Z" fill="white" stroke="#436AE5" stroke-linecap="round" stroke-linejoin="round"/>
<path d="M2026.69 977.745C2028.53 967.751 2021.82 958.466 2015.99 950.179C2007.85 939.622 2002.04 927.46 1998.95 914.494C1997.54 904.928 1997.23 895.232 1998.03 885.596C1998.95 862.555 1998.82 839.528 1997.66 816.515C1997.76 814.699 1997.26 812.9 1996.24 811.393C1993.95 808.728 1989.7 809.894 1986.24 810.394C1983.52 810.768 1980.74 810.573 1978.1 809.821C1975.45 809.068 1972.99 807.774 1970.87 806.022C1970.5 806.022 1970.16 806.397 1969.79 806.521C1966.52 807.866 1962.98 808.402 1959.46 808.083C1955.94 807.764 1952.55 806.6 1949.58 804.689C1945.42 801.65 1942.33 796.361 1937.08 795.82C1933.92 795.987 1930.77 796.418 1927.67 797.111C1921.25 797.319 1914.88 791.656 1909.01 794.279C1905.67 795.778 1903.67 799.651 1900.13 800.567C1898.05 801.108 1895.97 800.567 1893.68 800.858C1889.18 801.566 1886.43 806.105 1882.64 808.645C1875.18 813.642 1865.1 810.186 1857.1 806.105C1849.1 802.024 1840.06 797.277 1831.52 800.151C1828.19 801.275 1824.56 803.523 1821.4 801.983C1818.23 800.442 1817.6 796.028 1814.35 795.279C1811.11 794.529 1809.02 797.277 1806.77 797.985C1800.86 799.901 1798.11 801.566 1793.77 795.237C1790.9 791.073 1788.94 785.577 1784.23 783.453C1778.65 780.954 1772.44 784.536 1766.53 786.035C1761.98 787.14 1757.21 787.046 1752.71 785.761C1748.2 784.477 1744.11 782.046 1740.83 778.706C1737.74 775.5 1734.78 769.503 1730.24 768.088C1726.41 766.88 1724.87 769.587 1721.91 769.337C1712.62 768.671 1706.75 759.427 1695.54 762.05C1694.66 762.351 1693.71 762.351 1692.83 762.05C1691.54 761.425 1691.33 759.718 1691.33 758.344C1690.83 719.258 1690.32 680.172 1689.79 641.086C1641.84 643.113 1593.8 642.307 1545.94 638.671C1544.4 677.229 1544.69 737.649 1544.65 743.937C1544.27 802.524 1545.32 860.528 1541.02 918.824C1532.08 919.469 1523.09 919.217 1514.2 918.075L1430.67 913.37L1389.01 911.038C1377.63 910.413 1366.59 907.748 1355.3 909.497C1356.72 915.368 1361.43 917.825 1364.68 922.28C1365.22 923.072 1365.68 923.988 1366.18 924.904C1367.49 925.04 1368.76 925.447 1369.91 926.1C1371.06 926.752 1372.06 927.635 1372.84 928.693C1376.34 932.857 1375.09 940.519 1381.47 942.476C1383.47 943.1 1385.63 942.726 1387.72 943.225C1394.67 944.891 1395.46 954.135 1397.38 961.006C1398.49 964.929 1400.41 968.58 1403 971.726C1405.6 974.873 1408.82 977.447 1412.46 979.285C1419.63 982.825 1429.13 984.449 1431.83 991.777C1432.41 994.302 1432.81 996.861 1433.04 999.439C1434.88 1009.06 1445 1015.01 1448.25 1024.42C1450.37 1030.5 1449.21 1037.21 1449.62 1043.66C1450.46 1058.03 1460.75 1056.86 1468.41 1065.27C1473.41 1070.69 1470.91 1080.72 1476.74 1085.34C1479.37 1087 1482.36 1087.98 1485.45 1088.22C1498.15 1090.49 1509.9 1096.47 1519.19 1105.41C1521.49 1107.62 1524.15 1110.2 1527.28 1109.58C1530.4 1108.95 1532.44 1105.16 1534.53 1102.33C1536.61 1099.5 1541.65 1097.67 1543.19 1100.87C1550.11 1095.09 1545.73 1081.84 1552.9 1076.35C1557.06 1073.27 1562.94 1074.18 1567.19 1071.35C1570.19 1069.39 1571.81 1065.85 1574.85 1063.98C1578.44 1062.29 1582.49 1061.86 1586.35 1062.77L1604.39 1064.9C1610.1 1064.93 1615.62 1066.95 1620.01 1070.6C1623.55 1074.31 1624.18 1079.8 1626.84 1084.26C1632.13 1093.63 1643.92 1097.17 1651.05 1105.08C1659.88 1114.95 1660.25 1130.06 1668 1140.77C1671.67 1145.85 1676.71 1149.68 1680.5 1154.55C1688.5 1164.62 1691.25 1178.99 1701.83 1186.24C1706 1189.03 1711.04 1190.61 1714.33 1194.56C1719.75 1200.93 1717.7 1210.47 1718.5 1218.8C1719.24 1227.34 1723.17 1235.29 1729.49 1241.08C1732.74 1244.03 1736.91 1246.91 1737.41 1251.28C1737.38 1253.64 1737.14 1255.99 1736.7 1258.31C1736.28 1266.1 1743.57 1271.93 1750.45 1275.55C1763.79 1282.02 1777.74 1287.13 1792.11 1290.79L1826.89 1300.95C1834.43 1303.16 1846.64 1308.24 1849.14 1300.95C1849.32 1299.76 1849.11 1298.55 1848.53 1297.49C1847.95 1296.44 1847.04 1295.61 1845.93 1295.12C1843.7 1294.21 1841.54 1293.12 1839.48 1291.88C1835.31 1288.63 1836.98 1276.3 1835.31 1271.39C1831.84 1261.2 1828.41 1251 1825.02 1240.78C1824.32 1239.12 1824.06 1237.29 1824.27 1235.5C1825.02 1232.29 1828.44 1230.62 1830.52 1228C1831.21 1226.98 1831.69 1225.83 1831.92 1224.62C1832.15 1223.4 1832.12 1222.16 1831.85 1220.95C1831.58 1219.75 1831.06 1218.62 1830.33 1217.62C1829.6 1216.63 1828.67 1215.8 1827.6 1215.18C1824.52 1213.55 1819.6 1212.43 1820.31 1209.05C1820.69 1207.18 1822.77 1206.31 1824.48 1205.6C1828.6 1204.41 1832.2 1201.85 1834.68 1198.35C1835.26 1197.47 1835.65 1196.48 1835.84 1195.45C1836.03 1194.41 1836 1193.35 1835.78 1192.32C1835.55 1191.29 1835.12 1190.32 1834.51 1189.46C1833.9 1188.6 1833.12 1187.87 1832.23 1187.32C1831.13 1187 1830.09 1186.5 1829.14 1185.86C1826.44 1183.32 1830.77 1179.12 1834.52 1178.87C1838.27 1178.62 1843.06 1178.87 1844.6 1175.53C1844.94 1174.34 1844.98 1173.08 1844.7 1171.87C1844.42 1170.67 1843.84 1169.55 1843.02 1168.62C1841.32 1166.79 1840.15 1164.53 1839.64 1162.08C1839.43 1159.59 1842.02 1156.88 1844.22 1157.92C1846.43 1158.96 1846.18 1161.75 1847.97 1162.88C1849.77 1164 1852.14 1162.58 1854.1 1161.17L1863.47 1153.51C1864.7 1152.67 1865.64 1151.48 1866.18 1150.09C1866.85 1147.51 1864.64 1145.22 1863.51 1142.85C1862.39 1140.47 1863.76 1136.35 1866.22 1137.31C1867.35 1137.73 1867.85 1139.02 1868.6 1139.89C1871.93 1143.85 1878.22 1140.31 1881.93 1136.68C1882.97 1135.73 1884.05 1134.44 1883.59 1133.1C1883.14 1131.77 1882.34 1131.69 1881.68 1131.02C1879.09 1128.44 1881.05 1123.61 1884.38 1122.11C1888.09 1120.97 1892.04 1120.87 1895.8 1121.82C1903.7 1123.31 1911.83 1123 1919.59 1120.9C1923.45 1119.85 1927.06 1118.03 1930.22 1115.56C1933.37 1113.1 1936 1110.03 1937.96 1106.54C1940.58 1101.37 1941.38 1095.25 1944.96 1090.67C1947.42 1087.51 1951.12 1085.22 1952.87 1081.59C1955.46 1076.31 1953.08 1069.85 1954.54 1064.11C1956.57 1058.68 1960.3 1054.05 1965.16 1050.91C1965.68 1050.37 1966.38 1050.06 1967.12 1050.03C1968.79 1050.03 1969.04 1052.45 1968.5 1054.2C1967.95 1055.94 1967.12 1057.57 1968.16 1058.86C1969.2 1060.15 1972.95 1059.15 1974.5 1060.86C1976.66 1063.31 1972.87 1067.52 1975.58 1069.64C1978.29 1071.77 1983.45 1068.85 1985.78 1067.52C1996.82 1060.52 2008.58 1054.74 2020.86 1050.28C2021.24 1037.79 2023.78 1024.34 2021.49 1011.89C2020.15 1007.21 2019.51 1002.35 2019.61 997.482C2020.07 990.487 2025.4 984.699 2026.69 977.745Z" fill="white" stroke="#436AE5" stroke-miterlimit="10"/>
<path d="M1054.33 -143.296C1055.79 -135.354 1058.4 -127.667 1062.08 -120.477C1070.87 -101.032 1080.03 -81.0444 1095.4 -66.3455C1097.62 -64.7393 1099.23 -62.4377 1099.99 -59.808C1099.97 -56.9084 1099.02 -54.0912 1097.28 -51.7715C1092.91 -43.6828 1091.69 -34.263 1093.86 -25.3301C1094.85 -22.7594 1095.14 -19.9708 1094.7 -17.252C1093.8 -15.1917 1092.53 -13.3144 1090.95 -11.7139C1086.53 -6.09251 1089.7 -3.38588 1088.57 2.90175C1087.8 5.11841 1087.5 7.47403 1087.7 9.814C1089.07 15.3521 1109.28 6.23294 1114.15 17.0177C1115.94 21.1817 1114.9 25.887 1116.61 29.9677C1118.73 35.0478 1124.94 38.2957 1124.94 43.8338C1124.94 49.3719 1119.65 53.4942 1120.78 58.491C1121.82 62.655 1126.86 64.4039 1130.02 67.4019C1133.18 71.1646 1135.18 75.7655 1135.77 80.6435C1136.37 85.5318 1138.56 90.0858 1142.02 93.5935C1145.65 96.5083 1150.77 93.5935 1155.06 94.1348C1157.73 94.5096 1158.89 96.5082 1161.81 96.6748C1165.35 96.883 1168.56 94.2597 1172.27 94.6761C1179.22 95.4256 1184.76 104.795 1191.14 102.046C1195.93 100.006 1196.18 92.9689 1200.39 89.9292C1207.05 85.1822 1215.34 94.0932 1220.38 97.6742C1219.63 89.8221 1219.63 81.9164 1220.38 74.0644C1220.52 72.8754 1221.06 71.7705 1221.93 70.9414C1222.58 70.4305 1223.35 70.0784 1224.17 69.9123C1224.98 69.7461 1225.83 69.7706 1226.63 69.9837C1325.49 80.1438 1424.39 90.3456 1522.71 104.711C1526.29 20.0713 1529.85 -64.5966 1533.37 -149.292C1509.13 -149.584 1484.88 -150.333 1460.68 -152.082C1404.48 -156.246 1348.86 -165.698 1293.37 -175.525C1217.72 -188.892 1142.19 -202.675 1067.37 -219.039C1063.95 -203.077 1060.55 -187.129 1057.16 -171.195C1054.66 -162.12 1053.7 -152.689 1054.33 -143.296Z" fill="white" stroke="#436AE5" stroke-linecap="round" stroke-linejoin="round"/>
<path d="M966.384 89.4714C967.791 83.791 967.413 77.8154 965.301 72.3574C964.218 70.1505 962.593 68.1935 961.51 65.9865C957.344 57.0756 963.468 46.8322 970.3 39.795C977.133 32.7579 985.465 25.8457 986.964 16.1019C986.985 12.4948 987.433 8.90268 988.297 5.40044C990.339 0.0705261 996.254 -2.92755 999.379 -7.54958C1004.92 -15.8776 1000.34 -27.3702 993.963 -35.1985C992.713 -36.7392 991.339 -38.2798 989.797 -39.8205C976.732 -41.9695 963.84 -45.0588 951.22 -49.0646L914.06 -59.9742C908.124 -62.355 901.618 -62.9343 895.354 -61.6398C892.204 -59.9821 888.741 -59.0034 885.189 -58.7667C881.023 -59.2663 877.982 -63.3887 874.191 -65.5123C866.359 -70.0094 856.111 -65.5123 847.487 -68.1773C839.78 -70.7173 833.489 -79.0869 825.491 -77.463C822.116 -76.7551 819.158 -74.2151 815.701 -74.2983C809.743 -74.2983 806.369 -81.8352 800.536 -83.0844C794.704 -84.3336 789.83 -79.8781 784.539 -81.1689C779.248 -82.4598 776.207 -88.4976 771.041 -88.4559C768.292 -88.4559 765.834 -86.6238 763.084 -86.4572C758.002 -86.0825 754.252 -91.3707 753.377 -96.3675C752.503 -101.364 753.377 -106.611 752.211 -111.566C750.42 -119.061 744.254 -124.599 738.38 -129.638C736.899 -131.114 735.105 -132.238 733.131 -132.927C731.464 -133.385 729.715 -133.219 728.048 -133.635C725.801 -134.377 723.789 -135.699 722.216 -137.466C719.844 -138.253 717.284 -138.274 714.899 -137.527C712.514 -136.78 710.425 -135.302 708.926 -133.302C705.88 -128.983 703.857 -124.028 703.011 -118.811C693.216 -79.8012 678.445 -42.2115 659.059 -6.96663C651.936 5.98338 644.187 18.6419 638.23 32.2166C635.105 39.5452 636.938 44.084 633.772 51.3709C629.501 61.5002 627.537 72.4522 628.023 83.4337C628.544 88.041 628.544 92.6924 628.023 97.2998C627.108 100.849 625.938 104.328 624.523 107.71C728.255 146.162 833.94 179.131 941.138 206.48C942.555 166.38 960.094 128.904 966.384 89.4714Z" fill="white" stroke="#436AE5" stroke-linecap="round" stroke-linejoin="round"/>
<path d="M966.507 791.312C966.625 787.429 965.811 783.574 964.132 780.069C962.13 774.357 960.883 768.408 960.425 762.372C960.133 760.642 960.395 758.865 961.174 757.292C962.395 755.879 963.881 754.719 965.549 753.878C972.381 749.048 972.256 738.596 977.672 732.225C981.213 728.061 986.712 726.146 991.211 723.023C995.71 719.9 999.543 714.278 997.419 709.24C995.877 705.576 991.836 703.827 988.878 701.203C980.921 694.125 981.796 683.881 982.921 673.305C951.298 630.841 922.09 586.633 895.435 540.89C875.272 507.161 852.525 475.099 830.029 442.911C810.991 415.72 792.119 388.779 773.622 361.255C772.602 359.955 771.877 358.449 771.497 356.841C771.29 355.587 771.29 354.307 771.497 353.052C776.746 319.74 782.537 287.677 790.244 254.99C796.91 226.592 803.464 198.179 809.908 169.753C747.445 150.932 685.622 130.195 624.438 107.543C623.415 110.196 622.948 113.03 623.063 115.871C623.48 120.909 626.729 125.448 626.729 130.487C626.729 138.065 619.605 143.645 617.022 150.765C614.231 158.677 617.022 168.046 613.44 175.749C609.857 183.453 600.192 186.534 596.067 193.904C591.943 201.274 594.193 210.56 597.942 218.014C601.692 225.467 606.857 232.546 608.69 240.749C609.794 246.82 609.794 253.041 608.69 259.112C605.399 282.889 598.484 309.08 611.232 329.442C615.398 335.98 624.979 342.309 621.73 349.346C618.96 355.716 618.332 362.812 619.939 369.569C621.547 376.326 625.303 382.38 630.645 386.822C635.186 384.199 643.935 373.164 643.601 385.698L643.226 402.062C643.274 402.693 643.08 403.318 642.685 403.811C642.198 404.146 641.601 404.28 641.018 404.186C634.436 404.186 632.686 404.727 632.145 411.681C631.553 418.497 632.413 425.361 634.668 431.82C636.922 438.28 640.521 444.188 645.226 449.157C650.559 454.737 657.724 460.941 655.974 468.436C654.335 471.945 652.324 475.267 649.975 478.347C646.351 485.092 648.559 493.503 652.142 500.332C655.724 507.161 660.474 513.366 662.432 520.819C663.074 526.178 664.175 531.472 665.723 536.642C667.442 539.897 669.57 542.92 672.055 545.637C679.356 554.714 684.626 565.249 687.511 576.534C688.768 580.971 689.289 585.585 689.052 590.191C688.386 598.519 683.97 606.847 685.344 615.175C687.469 628.084 702.008 634.746 714.798 637.245C720.726 637.875 726.481 639.627 731.754 642.408C735.956 645.47 739.463 649.387 742.044 653.901C749.042 664.56 756.166 676.469 768.164 680.925C773.997 683.132 781.662 684.173 783.62 690.127C784.745 693.458 783.62 697.373 784.912 700.579C786.953 705.242 793.244 705.951 797.909 707.574C811.282 712.155 817.656 727.02 822.489 740.345C825.822 749.381 829.154 759.041 827.238 768.494C826.28 772.991 825.28 779.528 829.738 780.611L833.904 775.864C834.62 782.407 835.86 788.882 837.611 795.226C874.411 798.169 911.197 802.416 947.968 807.968C947.385 807.968 947.218 808.26 947.385 808.926C948.645 807.759 950.044 806.752 951.551 805.928C957.592 802.222 965.465 798.516 966.507 791.312Z" fill="white" stroke="#436AE5" stroke-linecap="round" stroke-linejoin="round"/>
<path d="M1218.63 134.401C1220.37 121.901 1220.68 109.244 1219.55 96.6751C1214.46 92.7609 1207.05 85.4739 1200.8 89.8461C1196.63 92.8859 1196.34 99.923 1191.55 101.963C1185.09 104.712 1179.64 95.3426 1172.68 94.5931C1168.97 94.1767 1165.76 96.8 1162.22 96.5919C1159.31 96.5919 1158.06 94.4266 1155.47 94.0518C1151.31 93.4688 1146.06 96.4253 1142.43 93.5105C1138.98 90.0027 1136.78 85.4488 1136.18 80.5605C1135.59 75.6825 1133.6 71.0817 1130.44 67.319C1127.27 64.3209 1122.1 62.6553 1121.19 58.4081C1119.94 53.4113 1125.35 48.9141 1125.35 43.7508C1125.35 38.5874 1119.02 34.9648 1117.02 29.8847C1115.31 25.7207 1116.35 20.9321 1114.56 16.9346C1109.69 6.14992 1089.57 15.2691 1088.11 9.73096C1087.91 7.39101 1088.21 5.03539 1088.98 2.81873C1090.11 -3.38564 1086.94 -6.17548 1091.36 -11.7969C1092.94 -13.3974 1094.21 -15.2747 1095.11 -17.335C1095.55 -20.0538 1095.27 -22.8424 1094.27 -25.4131C1092.1 -34.346 1093.32 -43.7658 1097.69 -51.8545C1099.43 -54.1742 1100.38 -56.9914 1100.4 -59.891C1099.64 -62.5207 1098.03 -64.8223 1095.82 -66.4285C1080.28 -81.0441 1071.11 -101.031 1062.49 -120.56C1058.81 -127.749 1056.2 -135.437 1054.74 -143.379C1054.06 -152.792 1054.98 -162.252 1057.45 -171.361C1060.86 -187.295 1064.27 -203.243 1067.65 -219.205C1054.32 -222.12 1041.01 -225.132 1027.7 -228.241C1012.91 -165.781 998.832 -103.321 991.25 -39.7373H990.292C991.666 -38.1966 993.041 -36.6559 994.458 -35.1152C1000.83 -27.2869 1005.41 -15.8776 999.873 -7.46635C996.749 -2.67775 990.833 0.153763 988.792 5.48367C987.927 8.98592 987.48 12.578 987.459 16.1852C986.042 25.9289 977.71 32.8411 970.795 39.8782C963.879 46.9154 957.839 57.1588 962.005 66.0698C963.088 68.2767 964.712 70.2338 965.796 72.4407C967.907 77.8987 968.285 83.8743 966.879 89.5547C960.713 127.988 943.966 164.507 941.883 203.357C946.02 204.873 950.268 206.071 954.589 206.938L1201.09 259.695V260.07C1205.26 243.414 1207.13 226.009 1209.71 208.77C1213.59 184.077 1216 159.26 1218.63 134.401Z" fill="white" stroke="#436AE5" stroke-linecap="round" stroke-linejoin="round"/>
<path d="M1226.51 69.8172C1225.71 69.6469 1224.88 69.6596 1224.09 69.8543C1223.29 70.049 1222.55 70.4207 1221.92 70.9415C1221.22 71.8622 1220.86 72.9922 1220.88 74.1478C1220.13 81.9999 1220.13 89.9055 1220.88 97.7576C1220.45 97.4797 1220.03 97.1737 1219.63 96.8415C1220.76 109.411 1220.45 122.068 1218.71 134.567C1216.09 159.551 1213.47 184.244 1209.76 208.936C1207.18 226.175 1205.34 243.414 1201.13 260.237C1199.3 280.113 1197.45 300.003 1195.59 319.907C1293.57 335.681 1392.3 346.424 1491.38 352.094C1498.32 352.718 1505.31 352.522 1512.21 351.511C1515.65 269.231 1519.1 186.964 1522.54 104.711C1424.26 90.1791 1325.36 79.9773 1226.51 69.8172Z" fill="white" stroke="#436AE5" stroke-linecap="round" stroke-linejoin="round"/>
<path d="M979.671 612.927C978.88 607.389 978.088 600.768 982.337 597.103C990.169 590.399 1002.17 602.808 1011.96 599.56C1018.91 597.312 1021 588.692 1022 581.488C1029.75 524.9 1033.91 467.562 1043.74 411.473L1061.24 311.537C1065.95 284.762 1071.45 258.904 1072.28 232.171L954.092 206.896C949.771 206.029 945.523 204.831 941.386 203.315C941.386 204.314 941.386 205.313 941.386 206.313C897.337 195.209 853.567 183.022 810.074 169.753C803.603 198.207 797.048 226.619 790.41 254.99C782.703 287.677 776.913 319.823 771.663 353.052C771.456 354.306 771.456 355.587 771.663 356.841C772.044 358.449 772.768 359.955 773.788 361.255C792.285 388.821 811.282 415.72 830.196 442.911C852.692 475.099 875.438 507.161 895.601 540.89C920.703 583.754 947.999 625.296 977.38 665.351C981.515 648.187 982.293 630.386 979.671 612.927Z" fill="white" stroke="#436AE5" stroke-linecap="round" stroke-linejoin="round"/>
<path d="M1261.92 580.739C1250.81 700.385 1240.51 820.099 1231.01 939.884C1244.59 941.591 1258.17 943.215 1271.88 944.381C1275 944.432 1278.08 945.186 1280.87 946.588C1282.1 935.975 1282.53 925.285 1282.17 914.608L1360.49 923.936C1363.19 924.269 1365.36 924.269 1367.28 924.519C1366.83 923.613 1366.33 922.737 1365.78 921.895C1362.53 917.315 1357.82 915.025 1356.4 909.112C1367.69 907.405 1378.73 910.07 1390.15 910.694L1431.81 913.026L1515.34 917.69C1524.23 918.852 1533.22 919.104 1542.17 918.439C1546.33 860.143 1545.41 802.097 1545.83 743.551C1545.83 734.765 1545.29 620.422 1550 607.472C1542 605.241 1533.72 604.134 1525.42 604.183C1437.18 600.935 1349.41 592.357 1261.92 580.739Z" fill="white" stroke="#436AE5" stroke-linecap="round" stroke-linejoin="round"/>
<path d="M1512.21 352.344V351.345C1505.31 352.355 1498.32 352.551 1491.38 351.928C1422.92 348.013 1354.67 341.656 1286.62 332.856C1277.87 415.47 1269.54 498.098 1261.62 580.739C1349.11 592.356 1436.89 600.934 1525.04 604.141C1533.35 604.092 1541.62 605.199 1549.62 607.43C1549.91 606.681 1550.2 606.223 1550.49 606.223C1564.91 607.18 1579.66 606.472 1594.07 606.223C1598.24 522.651 1601.99 439.08 1603.28 355.425C1572.91 353.635 1542.91 351.844 1512.21 352.344Z" fill="white" stroke="#436AE5" stroke-linecap="round" stroke-linejoin="round"/>
<path d="M1026.71 543.68C1025.25 556.172 1023.71 568.913 1022 581.489C1021 588.692 1018.92 597.312 1011.96 599.561C1002.17 602.808 990.173 590.4 982.341 597.104C978.175 600.768 978.883 607.389 979.674 612.927C982.168 630.397 981.263 648.183 977.008 665.31C979.008 667.975 980.924 670.64 982.924 673.263C981.799 683.84 980.924 694.083 988.881 701.162C991.839 703.785 995.88 705.326 997.421 709.198C999.588 714.237 995.713 719.9 991.214 722.981C986.715 726.063 981.216 728.02 977.675 732.184C972.259 738.555 972.384 748.84 965.552 753.836C963.884 754.677 962.397 755.837 961.177 757.251C960.398 758.823 960.136 760.601 960.427 762.331C960.886 768.366 962.133 774.316 964.135 780.028C965.814 783.532 966.628 787.387 966.51 791.271C965.468 798.516 957.595 802.222 951.346 806.011C949.839 806.835 948.439 807.842 947.18 809.009C949.697 814.09 953.001 818.741 956.97 822.792C975.633 835.576 995.838 846.568 1014.96 859.06C1047.37 880.172 1079.16 903.199 1112.57 922.728C1128.28 931.93 1146.19 929.973 1163.85 931.681C1186.31 933.887 1208.51 937.01 1230.8 940.009C1240.13 820.224 1250.44 700.51 1261.71 580.864C1183.27 570.329 1104.86 557.421 1026.71 543.68Z" fill="#76B5FF" stroke="#436AE5" stroke-linecap="round" stroke-linejoin="round"/>
<path d="M1286.7 332.857C1256.15 328.943 1225.75 324.57 1195.51 319.74C1197.4 299.698 1199.26 279.683 1201.09 259.695L1072.28 232.13C1071.45 258.863 1065.95 284.721 1061.24 311.496L1043.74 411.431C1036.08 455.07 1031.87 499.458 1026.7 543.638C1104.86 557.379 1183.26 570.288 1261.91 580.698C1269.72 498.056 1277.98 415.443 1286.7 332.857Z" fill="white" stroke="#436AE5" stroke-linecap="round" stroke-linejoin="round"/>
<g filter="url(#filter0_d_5_64987)">
<ellipse cx="1104.26" cy="762.459" rx="20.5472" ry="20.5453" fill="white"/>
<path d="M1121.81 762.459C1121.81 772.149 1113.95 780.005 1104.26 780.005C1094.57 780.005 1086.71 772.149 1086.71 762.459C1086.71 752.77 1094.57 744.914 1104.26 744.914C1113.95 744.914 1121.81 752.77 1121.81 762.459Z" stroke="#FF7D01" stroke-width="6"/>
</g>
</g>
<g filter="url(#filter1_d_5_64987)">
<rect x="1287" y="580.842" width="284" height="104" rx="25" fill="white"/>
</g>
<path d="M1323.64 611.838H1327.7L1333.34 625.842H1330.02L1329.04 623.42H1322.28L1321.32 625.842H1318L1323.64 611.838ZM1323.32 620.861H1328L1325.76 614.963H1325.56L1323.32 620.861ZM1341.25 615.646L1342.25 615.744V618.918C1341.82 618.716 1341.24 618.618 1340.51 618.625C1339.58 618.625 1338.86 618.885 1338.36 619.406C1337.86 619.94 1337.61 620.611 1337.61 621.418V625.842H1334.73V615.842H1337.61V617.678H1337.78C1337.88 617.443 1338.03 617.209 1338.21 616.975C1338.4 616.734 1338.62 616.525 1338.85 616.35C1339.12 616.154 1339.46 615.988 1339.89 615.852C1340.32 615.715 1340.78 615.646 1341.25 615.646ZM1344.36 615.842H1347.24V625.842H1344.36V615.842ZM1344.63 613.918C1344.34 613.684 1344.2 613.365 1344.2 612.961C1344.2 612.57 1344.34 612.251 1344.63 612.004C1344.91 611.763 1345.3 611.643 1345.8 611.643C1346.3 611.643 1346.69 611.763 1346.97 612.004C1347.26 612.251 1347.4 612.57 1347.4 612.961C1347.4 613.365 1347.26 613.684 1346.97 613.918C1346.69 614.159 1346.3 614.279 1345.8 614.279C1345.3 614.279 1344.91 614.159 1344.63 613.918ZM1355.29 618.244H1349.83V615.842H1359.31V618.244L1353.57 623.4V623.439H1359.5V625.842H1349.54V623.439L1355.29 618.283V618.244ZM1367.1 626.037C1365.41 626.037 1364.04 625.578 1362.98 624.66C1361.93 623.742 1361.4 622.469 1361.4 620.842C1361.4 619.214 1361.93 617.941 1362.98 617.023C1364.04 616.105 1365.41 615.646 1367.1 615.646C1368.79 615.646 1370.17 616.105 1371.22 617.023C1372.28 617.941 1372.8 619.214 1372.8 620.842C1372.8 622.469 1372.28 623.742 1371.22 624.66C1370.17 625.578 1368.79 626.037 1367.1 626.037ZM1367.1 623.566C1367.95 623.566 1368.62 623.312 1369.11 622.805C1369.6 622.297 1369.85 621.643 1369.85 620.842C1369.85 620.041 1369.6 619.387 1369.11 618.879C1368.62 618.371 1367.95 618.117 1367.1 618.117C1366.24 618.117 1365.57 618.371 1365.1 618.879C1364.61 619.387 1364.37 620.041 1364.37 620.842C1364.37 621.643 1364.61 622.297 1365.1 622.805C1365.57 623.312 1366.24 623.566 1367.1 623.566ZM1386.04 625.842H1383.16V620.803C1383.16 619.963 1382.93 619.322 1382.48 618.879C1382.04 618.43 1381.42 618.205 1380.62 618.205C1379.8 618.205 1379.18 618.443 1378.74 618.918C1378.3 619.4 1378.08 620.028 1378.08 620.803V625.842H1375.2V615.842H1378.08V617.502H1378.24C1378.32 617.346 1378.47 617.131 1378.7 616.857C1378.9 616.636 1379.12 616.447 1379.35 616.291C1379.61 616.109 1379.97 615.956 1380.42 615.832C1380.87 615.708 1381.34 615.646 1381.84 615.646C1383.09 615.646 1384.11 616.008 1384.88 616.73C1385.65 617.46 1386.04 618.55 1386.04 620.002V625.842ZM1388.33 623.02C1388.33 621.991 1388.76 621.219 1389.6 620.705C1390.45 620.197 1391.52 619.943 1392.81 619.943C1393.49 619.943 1394.09 620.012 1394.62 620.148C1395.15 620.298 1395.53 620.435 1395.73 620.559L1396.06 620.783V619.318C1396.06 618.889 1395.89 618.527 1395.57 618.234C1395.24 617.948 1394.7 617.805 1393.94 617.805C1393.39 617.805 1392.9 617.906 1392.47 618.107C1392.02 618.316 1391.8 618.635 1391.8 619.064H1388.84C1388.85 617.925 1389.31 617.069 1390.23 616.496C1391.14 615.93 1392.38 615.646 1393.94 615.646C1395.52 615.646 1396.75 615.952 1397.62 616.564C1398.5 617.176 1398.94 618.094 1398.94 619.318V622.443C1398.94 622.847 1398.99 623.127 1399.08 623.283C1399.18 623.439 1399.35 623.518 1399.59 623.518L1400.01 623.439V625.842C1399.76 625.972 1399.35 626.037 1398.77 626.037C1398.02 626.037 1397.46 625.874 1397.07 625.549C1396.73 625.269 1396.51 625.012 1396.42 624.777L1396.36 624.641H1396.21C1396.21 624.667 1396.18 624.725 1396.12 624.816C1396.05 624.901 1395.92 625.018 1395.73 625.168C1395.55 625.318 1395.33 625.451 1395.08 625.568C1394.42 625.881 1393.55 626.037 1392.47 626.037C1391.29 626.037 1390.3 625.78 1389.51 625.266C1388.73 624.758 1388.33 624.009 1388.33 623.02ZM1393.65 623.859C1394.17 623.859 1394.63 623.794 1395.04 623.664C1395.43 623.54 1395.7 623.413 1395.85 623.283L1396.06 623.098V622.502C1396 622.45 1395.94 622.395 1395.85 622.336C1395.74 622.264 1395.48 622.176 1395.08 622.072C1394.65 621.962 1394.18 621.906 1393.65 621.906C1392.08 621.906 1391.29 622.232 1391.29 622.883C1391.29 623.534 1392.08 623.859 1393.65 623.859Z" fill="#272727"/>
<path d="M1321.42 642.33L1318.72 644.457V642.55L1321.57 640.238H1323.12V652.842H1321.42V642.33ZM1340.77 652.842H1338.71L1336.44 645.679H1336.36L1334.09 652.842H1332.03L1329.42 644.018H1330.98L1333.06 651.146H1333.13L1335.39 644.018H1337.41L1339.67 651.146H1339.75L1341.82 644.018H1343.38L1340.77 652.842ZM1344.75 650.372C1344.75 649.47 1345.13 648.802 1345.9 648.368C1346.66 647.94 1347.64 647.727 1348.83 647.727C1349.44 647.727 1350 647.8 1350.52 647.946C1351.06 648.099 1351.44 648.242 1351.65 648.377L1352 648.597V647.208C1352 646.61 1351.78 646.142 1351.34 645.802C1350.9 645.456 1350.24 645.283 1349.35 645.283C1347.59 645.283 1346.71 645.764 1346.71 646.725H1345.16C1345.16 645.752 1345.56 645.028 1346.34 644.554C1347.12 644.079 1348.13 643.842 1349.35 643.842C1350.58 643.842 1351.59 644.129 1352.37 644.703C1353.14 645.283 1353.54 646.118 1353.54 647.208V650.416C1353.54 650.861 1353.6 651.172 1353.72 651.348C1353.84 651.518 1354.03 651.603 1354.3 651.603C1354.53 651.603 1354.69 651.57 1354.76 651.506L1354.8 651.488V652.877C1354.62 652.971 1354.35 653.018 1354.01 653.018C1353.42 653.018 1352.99 652.892 1352.71 652.64C1352.49 652.452 1352.32 652.256 1352.22 652.051L1352.17 651.945H1352.1C1351.96 652.092 1351.81 652.215 1351.65 652.314C1351.47 652.438 1351.27 652.546 1351.06 652.64C1350.48 652.892 1349.78 653.018 1348.96 653.018C1347.71 653.018 1346.69 652.804 1345.91 652.376C1345.13 651.954 1344.75 651.286 1344.75 650.372ZM1349.18 649.168C1347.28 649.168 1346.33 649.569 1346.33 650.372C1346.33 651.181 1347.28 651.585 1349.18 651.585C1349.75 651.585 1350.26 651.523 1350.72 651.4C1351.18 651.289 1351.49 651.184 1351.66 651.084C1351.82 651.002 1351.93 650.929 1352 650.864V649.854C1351.93 649.789 1351.82 649.716 1351.66 649.634C1351.46 649.54 1351.15 649.44 1350.73 649.335C1350.28 649.224 1349.76 649.168 1349.18 649.168ZM1361.39 643.842C1361.74 643.842 1362.05 643.877 1362.32 643.947L1362.45 643.965V645.661C1362.11 645.544 1361.67 645.482 1361.12 645.477C1360.17 645.477 1359.42 645.778 1358.88 646.382C1358.33 646.985 1358.06 647.741 1358.06 648.649V652.842H1356.51V644.018H1358.06V645.731H1358.15C1358.24 645.544 1358.38 645.324 1358.58 645.072C1358.76 644.85 1358.96 644.656 1359.19 644.492C1359.44 644.316 1359.76 644.164 1360.15 644.035C1360.55 643.906 1360.96 643.842 1361.39 643.842ZM1373.28 648.43L1373.23 649.168H1365.26C1365.26 649.672 1365.56 650.199 1366.16 650.75C1366.75 651.307 1367.54 651.585 1368.54 651.585C1369.27 651.585 1369.87 651.447 1370.34 651.172C1370.73 650.938 1371 650.727 1371.15 650.539L1371.22 650.416H1373.04C1373 650.504 1372.96 650.595 1372.92 650.688C1372.85 650.823 1372.7 651.031 1372.49 651.312C1372.26 651.611 1372 651.878 1371.69 652.112C1371.4 652.341 1370.97 652.549 1370.4 652.736C1369.86 652.924 1369.24 653.018 1368.54 653.018C1367.08 653.018 1365.89 652.602 1364.99 651.77C1364.07 650.938 1363.61 649.824 1363.61 648.43C1363.61 647.047 1364.06 645.937 1364.98 645.099C1365.89 644.261 1367.04 643.842 1368.45 643.842C1369.84 643.842 1371 644.261 1371.92 645.099C1372.83 645.937 1373.28 647.047 1373.28 648.43ZM1370.79 646.118C1370.2 645.562 1369.42 645.283 1368.45 645.283C1367.46 645.283 1366.69 645.562 1366.11 646.118C1365.53 646.675 1365.24 647.223 1365.24 647.762H1371.65C1371.65 647.223 1371.36 646.675 1370.79 646.118ZM1384.49 652.842H1382.94V648.289C1382.94 647.258 1382.68 646.499 1382.16 646.013C1381.64 645.526 1380.94 645.283 1380.06 645.283C1379.13 645.283 1378.42 645.559 1377.93 646.109C1377.43 646.66 1377.19 647.387 1377.19 648.289V652.842H1375.64V640.238H1377.19V645.371H1377.27C1377.4 645.172 1377.54 644.993 1377.7 644.835C1377.9 644.659 1378.1 644.504 1378.31 644.369C1378.55 644.223 1378.87 644.1 1379.27 644C1379.67 643.895 1380.08 643.842 1380.52 643.842C1381.65 643.842 1382.6 644.182 1383.36 644.861C1384.11 645.547 1384.49 646.569 1384.49 647.929V652.842ZM1388.11 651.761C1387.2 650.923 1386.74 649.812 1386.74 648.43C1386.74 647.053 1387.2 645.942 1388.11 645.099C1389.02 644.261 1390.18 643.842 1391.58 643.842C1392.98 643.842 1394.13 644.261 1395.05 645.099C1395.96 645.942 1396.42 647.053 1396.42 648.43C1396.42 649.812 1395.96 650.923 1395.05 651.761C1394.13 652.599 1392.98 653.018 1391.58 653.018C1390.18 653.018 1389.02 652.599 1388.11 651.761ZM1393.95 650.697C1394.54 650.105 1394.83 649.35 1394.83 648.43C1394.83 647.51 1394.54 646.754 1393.95 646.162C1393.35 645.576 1392.57 645.283 1391.58 645.283C1390.59 645.283 1389.8 645.576 1389.22 646.162C1388.62 646.748 1388.32 647.504 1388.32 648.43C1388.32 649.355 1388.62 650.111 1389.22 650.697C1389.81 651.289 1390.6 651.585 1391.58 651.585C1392.55 651.585 1393.34 651.289 1393.95 650.697ZM1398.77 644.018H1400.32V648.579C1400.32 649.61 1400.58 650.369 1401.1 650.855C1401.62 651.342 1402.32 651.585 1403.19 651.585C1404.11 651.585 1404.82 651.307 1405.33 650.75C1405.83 650.199 1406.08 649.476 1406.08 648.579V644.018H1407.62V652.842H1406.08V651.488H1405.99C1405.87 651.676 1405.73 651.854 1405.56 652.024C1405.36 652.206 1405.16 652.361 1404.95 652.49C1404.71 652.643 1404.39 652.769 1403.99 652.868C1403.59 652.968 1403.18 653.018 1402.74 653.018C1401.6 653.018 1400.65 652.675 1399.91 651.989C1399.15 651.315 1398.77 650.299 1398.77 648.939V644.018ZM1416.97 650.231C1416.97 649.886 1416.81 649.619 1416.47 649.432C1416.13 649.238 1415.71 649.13 1415.22 649.106C1414.71 649.077 1414.16 649.024 1413.57 648.948C1412.94 648.872 1412.39 648.781 1411.92 648.676C1411.42 648.57 1411 648.333 1410.66 647.964C1410.32 647.601 1410.15 647.114 1410.15 646.505C1410.15 645.62 1410.53 644.952 1411.29 644.501C1412.04 644.062 1413.02 643.842 1414.22 643.842C1415.44 643.842 1416.43 644.088 1417.18 644.58C1417.92 645.072 1418.29 645.846 1418.29 646.9H1416.71C1416.71 646.35 1416.51 645.942 1416.11 645.679C1415.72 645.415 1415.09 645.283 1414.22 645.283C1412.56 645.283 1411.74 645.69 1411.74 646.505C1411.74 646.839 1411.91 647.094 1412.25 647.27C1412.58 647.451 1413 647.554 1413.5 647.577C1413.96 647.601 1414.52 647.65 1415.15 647.727C1415.76 647.809 1416.31 647.905 1416.8 648.017C1417.3 648.14 1417.72 648.386 1418.06 648.755C1418.4 649.136 1418.56 649.628 1418.56 650.231C1418.56 650.888 1418.36 651.433 1417.94 651.866C1417.53 652.294 1417.01 652.593 1416.39 652.763C1415.79 652.933 1415.08 653.018 1414.26 653.018C1412.54 653.018 1411.32 652.596 1410.58 651.752C1410.17 651.271 1409.96 650.674 1409.96 649.959V649.678H1411.54V649.959C1411.54 651.037 1412.45 651.576 1414.26 651.576C1416.07 651.588 1416.97 651.14 1416.97 650.231ZM1430.22 648.43L1430.17 649.168H1422.19C1422.19 649.672 1422.49 650.199 1423.09 650.75C1423.68 651.307 1424.48 651.585 1425.47 651.585C1426.21 651.585 1426.81 651.447 1427.27 651.172C1427.66 650.938 1427.93 650.727 1428.08 650.539L1428.15 650.416H1429.97C1429.94 650.504 1429.9 650.595 1429.86 650.688C1429.78 650.823 1429.64 651.031 1429.43 651.312C1429.2 651.611 1428.93 651.878 1428.63 652.112C1428.33 652.341 1427.9 652.549 1427.34 652.736C1426.8 652.924 1426.18 653.018 1425.47 653.018C1424.01 653.018 1422.83 652.602 1421.92 651.77C1421 650.938 1420.54 649.824 1420.54 648.43C1420.54 647.047 1421 645.937 1421.91 645.099C1422.82 644.261 1423.98 643.842 1425.38 643.842C1426.78 643.842 1427.94 644.261 1428.86 645.099C1429.76 645.937 1430.22 647.047 1430.22 648.43ZM1427.72 646.118C1427.14 645.562 1426.36 645.283 1425.38 645.283C1424.4 645.283 1423.62 645.562 1423.05 646.118C1422.47 646.675 1422.18 647.223 1422.18 647.762H1428.58C1428.58 647.223 1428.3 646.675 1427.72 646.118ZM1439.11 643.666V644.018H1441.7V645.424H1439.11V652.842H1437.56V645.424H1436.08V644.562L1437.56 644.018V643.464C1437.56 642.333 1437.87 641.483 1438.51 640.915C1439.13 640.347 1439.98 640.062 1441.06 640.062C1441.37 640.062 1441.69 640.104 1442 640.186C1442.32 640.273 1442.56 640.353 1442.71 640.423L1442.93 640.546V641.935C1442.54 641.589 1442 641.416 1441.32 641.416C1440.59 641.416 1440.04 641.592 1439.67 641.943C1439.3 642.289 1439.11 642.863 1439.11 643.666ZM1444.55 651.761C1443.64 650.923 1443.18 649.812 1443.18 648.43C1443.18 647.053 1443.64 645.942 1444.55 645.099C1445.46 644.261 1446.62 643.842 1448.03 643.842C1449.42 643.842 1450.58 644.261 1451.5 645.099C1452.41 645.942 1452.86 647.053 1452.86 648.43C1452.86 649.812 1452.41 650.923 1451.5 651.761C1450.58 652.599 1449.42 653.018 1448.03 653.018C1446.62 653.018 1445.46 652.599 1444.55 651.761ZM1450.39 650.697C1450.98 650.105 1451.28 649.35 1451.28 648.43C1451.28 647.51 1450.98 646.754 1450.39 646.162C1449.8 645.576 1449.01 645.283 1448.03 645.283C1447.04 645.283 1446.25 645.576 1445.66 646.162C1445.06 646.748 1444.76 647.504 1444.76 648.43C1444.76 649.355 1445.06 650.111 1445.66 650.697C1446.25 651.289 1447.04 651.585 1448.03 651.585C1449 651.585 1449.79 651.289 1450.39 650.697ZM1455.21 644.018H1456.76V648.579C1456.76 649.61 1457.02 650.369 1457.54 650.855C1458.07 651.342 1458.76 651.585 1459.64 651.585C1460.56 651.585 1461.27 651.307 1461.77 650.75C1462.27 650.199 1462.52 649.476 1462.52 648.579V644.018H1464.07V652.842H1462.52V651.488H1462.43C1462.31 651.676 1462.17 651.854 1462 652.024C1461.81 652.206 1461.6 652.361 1461.39 652.49C1461.15 652.643 1460.83 652.769 1460.44 652.868C1460.04 652.968 1459.62 653.018 1459.19 653.018C1458.04 653.018 1457.09 652.675 1456.35 651.989C1455.59 651.315 1455.21 650.299 1455.21 648.939V644.018ZM1475.61 652.842H1474.07V648.289C1474.07 647.258 1473.81 646.499 1473.29 646.013C1472.76 645.526 1472.06 645.283 1471.18 645.283C1470.26 645.283 1469.55 645.559 1469.06 646.109C1468.56 646.66 1468.31 647.387 1468.31 648.289V652.842H1466.76V644.018H1468.31V645.371H1468.4C1468.52 645.172 1468.67 644.993 1468.83 644.835C1469.02 644.659 1469.22 644.504 1469.44 644.369C1469.68 644.223 1470 644.1 1470.39 644C1470.79 643.895 1471.21 643.842 1471.64 643.842C1472.78 643.842 1473.73 644.182 1474.49 644.861C1475.24 645.547 1475.61 646.569 1475.61 647.929V652.842ZM1485.99 640.238H1487.54V652.842H1485.99V651.523H1485.92C1485.83 651.676 1485.66 651.852 1485.42 652.051C1485.22 652.215 1485 652.364 1484.76 652.499C1484.51 652.64 1484.18 652.76 1483.77 652.859C1483.37 652.965 1482.96 653.018 1482.54 653.018C1481.21 653.018 1480.1 652.596 1479.21 651.752C1478.31 650.908 1477.86 649.801 1477.86 648.43C1477.86 647.07 1478.31 645.963 1479.21 645.107C1480.1 644.264 1481.21 643.842 1482.54 643.842C1483.25 643.842 1483.89 643.968 1484.45 644.22C1485 644.472 1485.39 644.718 1485.62 644.958L1485.92 645.336H1485.99V640.238ZM1480.34 646.171C1479.75 646.769 1479.45 647.521 1479.45 648.43C1479.45 649.344 1479.75 650.097 1480.34 650.688C1480.93 651.286 1481.73 651.585 1482.72 651.585C1483.72 651.585 1484.51 651.286 1485.11 650.688C1485.7 650.097 1485.99 649.344 1485.99 648.43C1485.99 647.492 1485.69 646.733 1485.09 646.153C1484.49 645.573 1483.7 645.283 1482.72 645.283C1481.73 645.283 1480.93 645.579 1480.34 646.171Z" fill="#436AE5"/>
</g>
<defs>
<filter id="filter0_d_5_64987" x="1063.71" y="731.914" width="81.0938" height="81.0908" filterUnits="userSpaceOnUse" color-interpolation-filters="sRGB">
<feFlood flood-opacity="0" result="BackgroundImageFix"/>
<feColorMatrix in="SourceAlpha" type="matrix" values="0 0 0 0 0 0 0 0 0 0 0 0 0 0 0 0 0 0 127 0" result="hardAlpha"/>
<feOffset dy="10"/>
<feGaussianBlur stdDeviation="10"/>
<feComposite in2="hardAlpha" operator="out"/>
<feColorMatrix type="matrix" values="0 0 0 0 0.246875 0 0 0 0 0.367998 0 0 0 0 0.75 0 0 0 0.7 0"/>
<feBlend mode="normal" in2="BackgroundImageFix" result="effect1_dropShadow_5_64987"/>
<feBlend mode="normal" in="SourceGraphic" in2="effect1_dropShadow_5_64987" result="shape"/>
</filter>
<filter id="filter1_d_5_64987" x="1247" y="554.842" width="364" height="184" filterUnits="userSpaceOnUse" color-interpolation-filters="sRGB">
<feFlood flood-opacity="0" result="BackgroundImageFix"/>
<feColorMatrix in="SourceAlpha" type="matrix" values="0 0 0 0 0 0 0 0 0 0 0 0 0 0 0 0 0 0 127 0" result="hardAlpha"/>
<feOffset dy="14"/>
<feGaussianBlur stdDeviation="20"/>
<feComposite in2="hardAlpha" operator="out"/>
<feColorMatrix type="matrix" values="0 0 0 0 0.0437383 0 0 0 0 0.109346 0 0 0 0 0.316262 0 0 0 0.2 0"/>
<feBlend mode="normal" in2="BackgroundImageFix" result="effect1_dropShadow_5_64987"/>
<feBlend mode="normal" in="SourceGraphic" in2="effect1_dropShadow_5_64987" result="shape"/>
</filter>
<clipPath id="clip0_5_64987">
<rect width="1920" height="1023" fill="white" transform="translate(0 0.841797)"/>
</clipPath>
<clipPath id="clip1_5_64987">
<rect width="2549" height="1687" fill="white" transform="translate(-132 -663.158)"/>
</clipPath>
</defs>
</svg>
