<svg width="1878" height="1023" viewBox="0 0 1878 1023" fill="none" xmlns="http://www.w3.org/2000/svg">
<g clip-path="url(#clip0_215_2282)">
<rect width="1920" height="1023" fill="#F1F4FF"/>
<path d="M1846.33 43.4343C1851.62 41.995 1852.78 34.4272 1857.75 32.1522C1864.91 28.8558 1873.45 38.8842 1880.37 35.1236C1885.53 32.3843 1885.62 23.8415 1891.06 21.7986C1897.28 19.4308 1905.32 27.7415 1910.15 23.1451C1914.98 18.5487 1907.64 7.12726 1913.82 4.10941C1918.09 2.02014 1922.36 7.77725 1927.15 7.87012C1928.81 7.66046 1930.4 7.10605 1931.83 6.24246C1933.27 5.37888 1934.5 4.22525 1935.46 2.85583C1943.82 -6.19769 1952.46 -15.7155 1955.02 -27.9261C1956.32 -34.2404 1956.22 -41.6226 1961.05 -45.894C1965.88 -50.1654 1972.81 -49.144 1978.98 -49.9332C1985.16 -50.7225 1992.36 -55.8297 1990.22 -61.7261C1989.47 -63.3253 1988.62 -64.876 1987.67 -66.3689C1986.78 -68.6813 1986.62 -71.2136 1987.23 -73.6168C1987.84 -76.02 1989.18 -78.1757 1991.06 -79.7867L1991.62 -80.251C1981.58 -138.472 1971.52 -196.724 1961.43 -255.007C1960.42 -259.032 1959.88 -263.162 1959.85 -267.311C1926.54 -257.772 1892.26 -252.071 1857.66 -250.318C1853.48 -245.368 1848.33 -241.337 1842.52 -238.479C1840.43 -237.314 1838.08 -236.692 1835.69 -236.668C1834.85 -236.69 1834.02 -236.831 1833.23 -237.086C1837.04 -186.665 1842.52 -136.429 1850.55 -86.4724C1851.34 -82.8108 1851.48 -79.0398 1850.97 -75.3296C1849.95 -70.0832 1846.33 -65.3475 1846.6 -60.0082C1847.63 -55.3934 1849.45 -50.9935 1851.99 -47.0082C1856.64 -36.6083 1853.29 -24.4905 1848.74 -14.0441C1844.19 -3.59772 1838.34 6.70944 1837.83 18.0844C1837.55 24.6772 1839.08 31.1772 1839.27 37.77C1839.34 39.0845 1839.34 40.4019 1839.27 41.7165C1841.33 43.1343 1843.84 43.7456 1846.33 43.4343Z" fill="white" stroke="#436AE5" stroke-linecap="round" stroke-linejoin="round"/>
<path d="M2145.64 -7.49795C2142.62 -9.49437 2139.28 -11.3515 2136.35 -13.3015C2127.57 -19.3372 2122.42 -29.18 2117.49 -38.6514C2113.64 -46.1264 2109.88 -55.3656 2114.06 -62.562C2107.4 -64.1757 2101.34 -67.6547 2096.59 -72.5906C2092.32 -77.2334 2087.3 -83.3619 2081.45 -80.9941C2077.73 -79.462 2076.25 -74.8656 2072.81 -72.8227C2065.75 -68.5513 2055.11 -77.0012 2048.98 -71.4763C2047.82 -70.4084 2046.94 -68.9227 2045.5 -68.2727C2041.55 -66.462 2038.48 -71.987 2034.86 -74.3084C2029.38 -77.837 2022.27 -73.8905 2015.77 -74.3084C2007.55 -74.3084 1999.51 -81.4584 1991.9 -78.3012C1991.9 -78.9977 1991.9 -79.6477 1991.52 -80.2977L1990.97 -79.8334C1989.08 -78.2224 1987.74 -76.0666 1987.14 -73.6634C1986.53 -71.2602 1986.68 -68.7279 1987.58 -66.4156C1988.52 -64.9226 1989.38 -63.372 1990.13 -61.7728C1992.27 -55.8763 1985.11 -50.7228 1978.89 -49.9799C1972.67 -49.237 1965.65 -49.9799 1960.96 -45.9407C1956.27 -41.9014 1956.32 -34.2871 1954.92 -27.9729C1952.37 -15.9479 1943.73 -6.24438 1935.37 2.80916C1934.41 4.17858 1933.17 5.33221 1931.74 6.19579C1930.31 7.05937 1928.71 7.6138 1927.05 7.82343C1922.41 7.82343 1918 1.97346 1913.72 4.06274C1907.55 7.08059 1915.02 18.3626 1910.05 23.0983C1905.08 27.834 1897.19 19.384 1890.96 21.7519C1885.53 23.7947 1885.44 32.3377 1880.28 35.0769C1873.36 38.8376 1864.81 28.809 1857.66 32.1055C1852.69 34.3805 1851.53 41.9482 1846.23 43.3875C1843.69 43.8383 1841.06 43.3073 1838.89 41.9018C1838.71 47.1772 1836.48 52.1735 1832.67 55.8303C1832.07 56.2605 1831.55 56.7953 1831.14 57.409C1829.42 60.4733 1834.25 62.841 1835.78 65.8588C1838.2 69.991 1834.3 75.1446 1830.21 77.5589C1826.12 79.9732 1820.92 82.5267 1820.08 87.2159C1819.53 89.8624 1820.36 92.7873 1818.97 95.0623C1816.83 98.5445 1811.4 97.4766 1808.05 95.0623C1804.71 92.6481 1801.69 89.2589 1797.6 89.0267C1795.51 89.0948 1793.5 89.8106 1791.83 91.075C1790.17 92.3393 1788.94 94.0898 1788.31 96.0838C1787.15 100.045 1786.87 104.212 1787.48 108.294C1788.22 118.787 1788.92 129.234 1789.66 139.726C1798.77 137.922 1808.01 136.866 1817.3 136.569C1834.85 134.991 1851.62 128.816 1868.39 123.616C1934.25 103.373 2003.65 98.0338 2071.32 84.8017C2074.76 84.1517 2078.15 83.3624 2081.59 82.6196C2085.71 73.7978 2091.82 66.0448 2099.42 59.9625C2105.42 55.3197 2112.48 51.2803 2116.24 44.6875C2118.65 40.4625 2119.54 35.4019 2122.04 31.3626C2128.32 22.8198 2140.81 18.1769 2142.25 7.63768C2142.95 2.53056 2140.9 -3.83012 2144.94 -7.08011C2145.17 -7.23499 2145.4 -7.37458 2145.64 -7.49795Z" fill="white" stroke="#436AE5" stroke-linecap="round" stroke-linejoin="round"/>
<path d="M1860.21 268.89C1860.5 262.379 1859.62 255.87 1857.61 249.669C1855.89 245.744 1853.74 242.022 1851.2 238.573C1840.6 241.962 1829.72 244.432 1818.69 245.955L1741.44 258.63C1734.94 275.096 1727.67 291.222 1719.61 307.008C1712.18 321.401 1704.01 335.747 1701.03 351.672C1695.32 381.015 1706.98 409.94 1710.32 438.818C1713.95 470.807 1698.67 498.711 1692.72 529.632C1691.24 534.223 1691.57 539.208 1693.65 543.561C1697.32 549.318 1705.87 549.596 1712.23 547.043C1718.59 544.489 1724.03 539.939 1730.53 537.757C1742.28 533.95 1755.33 539.011 1767.41 536.364C1772.89 535.157 1777.95 532.418 1783.48 531.721C1786.21 531.045 1789.09 531.278 1791.68 532.384C1794.27 533.489 1796.43 535.408 1797.83 537.85C1799.78 542.493 1797.18 548.018 1797.83 553.171C1798.39 559.764 1803.78 564.732 1807.12 570.303C1809.45 573.952 1811.02 578.022 1811.77 582.282C1816.98 582.312 1822.13 581.202 1826.86 579.032C1831.55 576.135 1836.03 572.924 1840.29 569.421C1844.94 566.108 1850.7 564.727 1856.36 565.568C1863.02 567.04 1870 566.016 1875.96 562.689C1874.18 555.526 1872.78 548.273 1871.78 540.961C1857.89 451.122 1861.24 359.843 1860.21 268.89Z" fill="white" stroke="#436AE5" stroke-linecap="round" stroke-linejoin="round"/>
<path d="M2051.35 426.468C2049.35 416.904 2046.7 405.761 2053.16 398.379C2055.67 395.501 2059.57 392.761 2058.73 389.094C2058.16 387.335 2057.04 385.805 2055.53 384.729C2049.24 379.323 2043.86 372.943 2039.6 365.833C2036.04 358.778 2033.33 351.329 2031.52 343.64C2019.63 301.081 2007.72 258.506 1995.8 215.916C1975.92 220.744 1956.02 225.387 1936.11 229.844C1922.59 232.908 1908.66 235.973 1895.05 233.558C1887.43 232.166 1879.82 229.148 1872.2 230.355C1867.34 231.573 1862.65 233.415 1858.26 235.833C1856.03 236.855 1853.62 237.737 1851.39 238.573C1853.93 242.023 1856.08 245.744 1857.8 249.669C1859.8 255.87 1860.69 262.379 1860.4 268.89C1861.42 359.704 1858.08 450.983 1871.36 540.821C1872.36 548.134 1873.76 555.387 1875.54 562.55C1880.74 559.764 1885.53 555.818 1891.71 552.429C1902.57 546.439 1906.29 560.971 1917.67 562.086C1920.41 562.335 1923.18 562.116 1925.85 561.436C1925.85 553.218 1928.21 544.396 1924.03 537.339C1922.04 534.043 1918.74 531.489 1917.67 527.821C1915.44 520.207 1923.57 513.893 1930.96 510.829C1939.4 507.776 1948.06 505.385 1956.87 503.679L2037.55 486.036C2042.52 484.697 2047.66 484.133 2052.79 484.365C2055.9 465.143 2055.41 445.512 2051.35 426.468Z" fill="white" stroke="#436AE5" stroke-linecap="round" stroke-linejoin="round"/>
<path d="M2083.49 160.619C2089.53 155.234 2092.27 147.062 2097.43 141.073C2104.02 133.737 2114.24 129.93 2119.3 121.527C2123.53 114.562 2124.83 104.209 2132.68 102.073C2135.66 101.724 2138.65 101.538 2141.65 101.516C2149.26 100.309 2153.63 92.2304 2160.23 88.4232C2163.24 86.7054 2166.77 85.9625 2169.51 84.059C2172.08 82.2083 2174.17 79.7734 2175.61 76.9557C2177.04 74.138 2177.79 71.0185 2177.78 67.8555C2177.88 64.738 2177.59 61.6206 2176.95 58.5698C2142.11 68.8305 2106.95 78.0233 2071.32 84.9876C2003.65 98.2197 1934.25 103.559 1868.39 123.802C1851.48 129.002 1834.71 135.177 1817.3 136.755C1802.01 138.148 1783.95 137.127 1774.42 149.152C1770.41 155.258 1767.9 162.226 1767.08 169.487C1760.99 199.959 1752.23 229.835 1740.89 258.769L1818.13 246.094C1831.68 244.453 1844.95 241.051 1857.61 235.973C1862 233.554 1866.69 231.712 1871.55 230.494C1879.17 229.287 1886.78 232.305 1894.4 233.698C1908.01 236.112 1921.94 233.048 1935.46 229.983C1974.2 221.1 2012.8 211.814 2051.26 202.126C2051.49 192.841 2052.23 182.348 2058.69 175.476C2065.15 168.605 2076.39 166.748 2083.49 160.619Z" fill="white" stroke="#436AE5" stroke-linecap="round" stroke-linejoin="round"/>
<path d="M1851.85 -46.8227C1849.31 -50.808 1847.49 -55.2079 1846.47 -59.8227C1846.23 -65.162 1849.81 -69.8977 1850.83 -75.1441C1851.34 -78.8543 1851.2 -82.6253 1850.41 -86.2869C1842.56 -136.244 1836.9 -186.479 1833.09 -236.901C1831.87 -237.267 1830.7 -237.781 1829.61 -238.433C1821.1 -243.447 1816.92 -253.197 1813.26 -262.297C1810.23 -269.069 1808.01 -276.176 1806.66 -283.468C1761.14 -274.183 1713.76 -274.183 1669.08 -262.204C1669.68 -260.811 1670.1 -259.279 1670.61 -257.84C1674.42 -246.929 1685.85 -240.522 1691.47 -230.401C1693.3 -226.696 1694.36 -222.655 1694.58 -218.526C1694.8 -214.398 1694.17 -210.268 1692.73 -206.391C1691.3 -202.513 1689.09 -198.969 1686.23 -195.977C1683.38 -192.984 1679.94 -190.605 1676.14 -188.986C1667.08 -185.644 1653.52 -183.137 1654.77 -173.572C1655.24 -171.42 1656.04 -169.353 1657.14 -167.444C1666.66 -146.04 1644.46 -124.08 1641.35 -100.865C1640.53 -94.4892 1641.18 -88.0106 1643.24 -81.9211C1645.3 -75.8316 1648.72 -70.2909 1653.24 -65.7191C1659.19 -59.7763 1666.85 -55.737 1673.21 -50.1656C1678.85 -45.1615 1683.36 -39.0284 1686.47 -32.1652C1689.57 -25.3019 1691.2 -17.8623 1691.23 -10.33C1698.53 -14.9728 1708.84 -19.1978 1714.78 -13.0229C1721.84 -5.78003 1713.99 6.01276 1714.23 16.1342C1714.69 36.6091 1745.77 41.252 1754.54 59.7305C1759.84 70.9197 1756.22 85.8696 1764.76 94.7839C1770.62 100.82 1780.14 101.795 1787.71 105.184C1787.47 102.156 1787.84 99.1114 1788.78 96.2231C1789.4 94.2291 1790.63 92.4787 1792.3 91.2143C1793.96 89.9499 1795.98 89.2342 1798.07 89.1661C1802.15 89.3982 1805.22 92.8339 1808.52 95.2017C1811.82 97.5695 1817.3 98.6838 1819.43 95.2017C1820.83 92.9267 1819.99 90.0017 1820.55 87.3553C1821.57 82.7125 1826.59 80.2518 1830.67 77.6982C1834.76 75.1447 1838.66 70.1303 1836.25 65.9982C1834.48 62.9804 1829.65 60.6126 1831.6 57.5483C1832.01 56.9347 1832.53 56.4001 1833.14 55.9698C1835.45 53.6189 1837.23 50.7858 1838.33 47.6723C1839.43 44.5587 1839.83 41.2411 1839.5 37.9556C1839.5 31.3627 1837.78 24.8627 1838.06 18.2698C1838.57 6.89487 1844.42 -3.41214 1848.97 -13.8586C1853.53 -24.3049 1856.45 -36.3763 1851.85 -46.8227Z" fill="white" stroke="#436AE5" stroke-linecap="round" stroke-linejoin="round"/>
<path d="M1732.57 181.419C1732.16 183.049 1732.16 184.757 1732.57 186.387C1734.34 191.401 1741.63 190.241 1746.51 188.616C1752.19 186.761 1758.07 185.547 1764.02 184.994C1765.23 179.841 1766.39 174.687 1767.41 169.487C1768.22 162.226 1770.74 155.258 1774.75 149.151C1778.66 144.455 1784.02 141.189 1789.98 139.866C1789.24 129.373 1788.54 118.927 1787.8 108.434C1787.8 107.366 1787.8 106.298 1787.57 105.184C1780 101.795 1770.48 100.82 1764.62 94.7839C1756.08 85.8696 1759.7 70.9197 1754.4 59.7305C1745.63 41.1591 1714.55 36.5162 1714.09 16.1342C1713.85 6.01276 1721.7 -5.78004 1714.64 -13.0229C1708.7 -19.1978 1698.39 -14.9264 1691.1 -10.33C1691.06 -17.8623 1689.43 -25.3019 1686.33 -32.1652C1683.22 -39.0284 1678.71 -45.1615 1673.07 -50.1656C1666.71 -55.737 1659.14 -59.7763 1653.1 -65.7191C1648.58 -70.2909 1645.16 -75.8316 1643.1 -81.9211C1641.04 -88.0106 1640.39 -94.4891 1641.21 -100.865C1641.21 -101.887 1641.4 -102.908 1641.77 -103.93C1635.22 -108.573 1629.36 -114.887 1621.56 -116.419C1613.76 -117.951 1608.79 -114.887 1601.64 -112.844C1594.11 -111.424 1586.43 -110.91 1578.78 -111.312C1560.96 -110.681 1543.21 -108.695 1525.69 -105.369C1505.16 -101.423 1485.84 -107.783 1465.31 -103.976C1451.83 -101.465 1438.18 -99.9135 1424.48 -99.3332C1425.7 -93.4257 1428.71 -88.0403 1433.12 -83.919C1435.54 -81.9236 1437.67 -79.5943 1439.44 -77.0012C1447.98 -64.8834 1468.23 -59.9155 1469.44 -44.9192C1470 -38.0942 1465.96 -31.5013 1466.56 -24.6764C1467.58 -12.4657 1480.03 -9.58717 1485.93 -0.626495C1494.52 12.327 1493.55 31.177 1493.08 45.802C1491.74 91.4875 1498.38 136.755 1504.56 182.162C1581.62 168.884 1659.51 161.269 1737.36 153.748C1735.9 163.096 1734.31 172.319 1732.57 181.419Z" fill="white" stroke="#436AE5" stroke-linecap="round" stroke-linejoin="round"/>
<path d="M1700.99 351.811C1704.1 335.886 1712.28 321.54 1719.57 307.147C1739.45 268.433 1754.44 227.402 1764.2 184.994C1758.25 185.547 1752.38 186.761 1746.69 188.616C1741.63 190.241 1734.34 191.401 1732.76 186.387C1732.34 184.757 1732.34 183.049 1732.76 181.419C1734.49 172.319 1736.2 163.219 1737.87 154.119C1660.02 161.641 1582.13 169.255 1505.07 182.534C1508.92 210.762 1512.59 239.083 1514.03 267.498C1515.89 303.48 1515.89 341.319 1519.79 377.115C1522.2 379.217 1525.03 380.78 1528.09 381.701C1531.15 382.622 1534.37 382.879 1537.54 382.454C1541.44 381.897 1546.13 380.551 1548.68 383.569C1549.82 385.249 1550.37 387.254 1550.26 389.279C1550.87 401.118 1551.19 413.05 1551.28 424.936C1601.7 414.968 1652.67 408.069 1703.91 404.276C1700.2 386.865 1697.37 369.408 1700.99 351.811Z" fill="white" stroke="#436AE5" stroke-linecap="round" stroke-linejoin="round"/>
<path d="M1845.95 650.485C1845.11 647.35 1843.41 644.514 1841.04 642.299C1838.66 640.083 1835.72 638.576 1832.53 637.949C1829.73 637.721 1826.94 637.349 1824.17 636.835C1821.76 636.124 1819.63 634.664 1818.11 632.666C1816.58 630.668 1815.73 628.237 1815.68 625.723C1815.63 623.21 1816.38 620.745 1817.82 618.686C1819.26 616.627 1821.33 615.081 1823.71 614.271C1825.99 613.818 1828.23 613.166 1830.39 612.321C1831.54 611.485 1832.48 610.399 1833.14 609.145C1833.8 607.892 1834.16 606.504 1834.2 605.088C1834.24 603.672 1833.96 602.265 1833.37 600.976C1832.78 599.687 1831.91 598.549 1830.81 597.65C1828.43 596.004 1825.59 595.142 1822.69 595.183C1819.8 595.225 1816.98 596.168 1814.65 597.882C1812.36 599.761 1809.94 601.468 1807.4 602.989C1806.1 603.706 1804.58 603.949 1803.12 603.678C1801.66 603.408 1800.33 602.639 1799.37 601.503C1797.04 597.928 1800.34 591.939 1796.86 589.478C1793.38 587.018 1790.4 590.453 1787.85 592.821C1784.87 595.803 1781.07 597.836 1776.94 598.663C1772.81 599.489 1768.52 599.072 1764.62 597.464C1757.15 593.564 1754.54 581.632 1761.19 576.432C1767.83 571.232 1777.21 575.225 1785.11 578.01C1792.82 580.762 1800.93 582.221 1809.12 582.328H1811.3C1810.56 578.069 1808.98 573.998 1806.66 570.35C1803.18 564.778 1797.79 559.81 1797.37 553.218C1796.91 548.064 1799.51 542.678 1797.37 537.896C1795.97 535.455 1793.81 533.536 1791.22 532.43C1788.63 531.324 1785.75 531.092 1783.02 531.768C1777.49 532.603 1772.43 535.343 1766.95 536.411C1754.87 539.057 1741.82 533.996 1730.07 537.804C1723.56 539.893 1718.13 544.443 1711.77 547.089C1705.4 549.736 1696.9 549.364 1693.19 543.607C1691.1 539.254 1690.77 534.269 1692.26 529.679C1698.2 498.757 1713.48 470.854 1709.86 438.864C1708.56 427.304 1705.91 415.65 1703.59 404.183C1652.34 407.976 1601.37 414.875 1550.96 424.843C1550.96 438.617 1550.76 452.391 1550.36 466.164C1549.46 476.924 1549.81 487.751 1551.38 498.432C1554.82 512.889 1561.3 526.451 1570.38 538.221C1576.88 547.507 1584.31 557.814 1582.31 568.91C1580.92 576.71 1574.93 583.164 1573.95 591.01C1573.86 596.442 1574.58 601.856 1576.09 607.075C1578.6 621.003 1575.76 635.721 1575.39 649.882C1584.62 646.714 1594.46 645.713 1604.14 646.957C1610.88 647.978 1617.34 650.253 1624.02 651.599C1633.31 653.503 1659.56 658.424 1666.71 650.439C1674.51 641.664 1666.25 631.357 1683.8 636.975C1684.89 637.162 1686.01 637.162 1687.1 636.975C1694.81 636.603 1709.4 653.271 1714.27 644.171C1716.13 640.735 1713.76 636.51 1710.98 633.817C1708.19 631.125 1704.61 628.85 1703.36 625.135C1702.88 623.634 1702.65 622.067 1702.66 620.492C1702.56 619.439 1702.75 618.378 1703.22 617.428C1703.84 616.679 1704.74 616.202 1705.71 616.098C1706.68 615.994 1707.65 616.271 1708.42 616.871C1715.12 621.799 1719.84 628.964 1721.71 637.067C1723.1 645.796 1721.29 654.803 1722.96 663.485C1724.63 672.167 1732.25 681.035 1740.75 679.41C1745.9 678.482 1749.67 674.21 1753.99 671.192C1758.31 668.174 1764.81 666.549 1768.29 670.449C1769.5 671.749 1770.29 673.699 1772.06 674.21C1772.75 674.336 1773.47 674.314 1774.16 674.146C1774.84 673.978 1775.49 673.668 1776.05 673.235C1782.39 669.949 1787.19 664.317 1789.43 657.542C1790.46 654.149 1790.38 650.513 1789.19 647.17C1788 643.827 1785.77 640.953 1782.83 638.971C1779.07 636.789 1773.54 635.489 1773.54 631.171C1773.54 626.853 1780.65 624.717 1784.6 627.596C1788.54 630.475 1790.22 635.442 1793.42 639.11C1802.29 649.371 1820.73 648.071 1827.75 659.724C1830.16 663.764 1832.39 669.799 1837.04 669.01C1838.3 668.763 1839.48 668.168 1840.43 667.292C1842.77 665.243 1844.52 662.602 1845.49 659.645C1846.47 656.688 1846.63 653.525 1845.95 650.485Z" fill="white" stroke="#436AE5" stroke-linecap="round" stroke-linejoin="round"/>
<path d="M1519.84 377.115C1515.94 341.319 1515.94 303.48 1514.08 267.498C1512.04 226.919 1505.44 186.573 1500.15 146.227L1292.71 155.512C1247.88 157.555 1203.34 155.512 1158.52 156.255C1139.94 156.58 1117.46 160.898 1099.34 154.491V155.327C1083.27 155.559 1066.83 156.348 1050.76 155.327C1048.76 155.327 1047.5 170.369 1046.71 191.03C1100.08 195.061 1153.63 195.96 1207.1 193.723C1207.69 237.273 1208.26 280.838 1208.82 324.419C1208.82 325.997 1208.82 327.901 1210.49 328.551C1211.46 328.922 1212.54 328.922 1213.51 328.551C1226.01 325.626 1232.56 335.979 1242.91 336.722C1246.4 336.722 1248.12 333.937 1252.2 335.329C1257.27 336.908 1260.56 343.547 1264.05 347.169C1267.71 350.881 1272.26 353.584 1277.28 355.016C1282.29 356.448 1287.59 356.559 1292.66 355.34C1299.26 353.622 1306.18 349.676 1312.4 352.462C1317.65 354.783 1319.83 360.865 1323.04 365.601C1327.68 372.658 1330.93 370.754 1337.53 368.665C1340.04 367.876 1343.01 364.904 1345.98 365.601C1348.96 366.297 1350.4 371.404 1353.83 373.122C1357.27 374.84 1361.4 372.286 1365.12 371.033C1374.41 367.876 1384.67 373.169 1393.64 377.719C1402.6 382.269 1413.8 386.122 1422.16 380.551C1426.39 377.719 1429.4 372.658 1434.42 371.869C1436.84 371.451 1439.3 372.147 1441.62 371.544C1445.57 370.476 1447.8 366.158 1451.51 364.533C1458.06 361.608 1465.17 367.876 1472.32 367.644C1475.74 366.988 1479.2 366.569 1482.68 366.39C1488.39 367.087 1491.97 372.89 1496.62 376.326C1499.93 378.46 1503.72 379.761 1507.65 380.116C1511.58 380.472 1515.54 379.872 1519.19 378.369L1520.35 377.811L1519.84 377.115Z" fill="white" stroke="#436AE5" stroke-linecap="round" stroke-linejoin="round"/>
<path d="M1493.41 46.0341C1493.87 31.2234 1494.85 12.3735 1486.26 -0.39431C1480.36 -9.35499 1467.91 -12.2335 1466.89 -24.4442C1466.28 -31.2692 1470.32 -37.862 1469.77 -44.687C1468.98 -54.5762 1459.92 -60.1012 1451.19 -66.2297C1403.44 -64.1405 1355.88 -60.4726 1308.17 -59.6369L1127.77 -56.3869C1121.03 -56.1473 1114.28 -56.3489 1107.56 -56.9905C1105.52 13.5806 1102.22 84.1054 1098.88 154.63C1116.99 160.852 1139.29 156.719 1158.05 156.394C1202.87 155.605 1247.42 157.694 1292.24 155.651L1499.68 146.366C1494.96 113.138 1492.86 79.5907 1493.41 46.0341Z" fill="white" stroke="#436AE5" stroke-linecap="round" stroke-linejoin="round"/>
<path d="M1581.04 569.619C1583.08 558.476 1575.6 548.122 1569.1 538.883C1560.03 527.112 1553.55 513.551 1550.1 499.094C1548.53 488.428 1548.19 477.617 1549.08 466.873C1550.1 441.182 1549.97 415.507 1548.66 389.848C1548.78 387.823 1548.22 385.817 1547.09 384.137C1544.53 381.166 1539.79 382.466 1535.94 383.023C1532.9 383.441 1529.81 383.223 1526.86 382.384C1523.91 381.545 1521.16 380.102 1518.8 378.148C1518.38 378.148 1518.01 378.566 1517.59 378.705C1513.95 380.205 1510 380.802 1506.08 380.447C1502.15 380.091 1498.38 378.793 1495.06 376.662C1490.42 373.273 1486.98 367.377 1481.13 366.773C1477.6 366.959 1474.08 367.44 1470.63 368.212C1463.48 368.444 1456.37 362.13 1449.82 365.055C1446.11 366.727 1443.88 371.044 1439.93 372.066C1437.61 372.669 1435.28 372.066 1432.73 372.391C1427.71 373.18 1424.65 378.241 1420.42 381.073C1412.11 386.644 1400.87 382.791 1391.95 378.241C1383.03 373.691 1372.95 368.398 1363.43 371.602C1359.71 372.855 1355.67 375.362 1352.14 373.644C1348.61 371.927 1347.91 367.005 1344.29 366.169C1340.67 365.334 1338.35 368.398 1335.84 369.187C1329.24 371.323 1326.18 373.18 1321.35 366.123C1318.14 361.48 1315.96 355.352 1310.71 352.984C1304.48 350.198 1297.56 354.191 1290.97 355.862C1285.89 357.095 1280.58 356.99 1275.56 355.557C1270.54 354.125 1265.97 351.415 1262.31 347.691C1258.87 344.116 1255.57 337.43 1250.51 335.852C1246.24 334.505 1244.52 337.523 1241.22 337.245C1230.86 336.502 1224.31 326.195 1211.82 329.12C1210.84 329.456 1209.78 329.456 1208.8 329.12C1207.36 328.423 1207.13 326.52 1207.13 324.987C1206.57 281.407 1206 237.826 1205.41 194.245C1151.94 196.506 1098.39 195.606 1045.02 191.552C1043.3 234.545 1043.63 301.913 1043.58 308.923C1043.17 374.248 1044.33 438.923 1039.54 503.922C1029.57 504.641 1019.55 504.361 1009.63 503.087L916.5 497.84L870.051 495.24C857.371 494.544 845.062 491.572 832.475 493.522C834.054 500.069 839.303 502.808 842.926 507.776C843.529 508.658 844.04 509.68 844.598 510.701C846.061 510.853 847.478 511.307 848.757 512.034C850.036 512.762 851.15 513.746 852.029 514.926C855.931 519.569 854.538 528.112 861.644 530.294C863.874 530.99 866.289 530.572 868.612 531.129C876.368 532.987 877.251 543.294 879.388 550.954C880.628 555.33 882.762 559.4 885.656 562.908C888.55 566.416 892.141 569.286 896.202 571.336C904.191 575.283 914.781 577.094 917.801 585.265C918.437 588.08 918.887 590.934 919.148 593.808C921.191 604.533 932.478 611.172 936.101 621.665C938.47 628.443 937.17 635.918 937.634 643.115C938.563 659.133 950.036 657.833 958.582 667.211C964.156 673.247 961.369 684.436 967.872 689.59C970.797 691.435 974.13 692.535 977.58 692.793C991.742 695.325 1004.84 701.998 1015.2 711.968C1017.76 714.429 1020.73 717.307 1024.21 716.611C1027.7 715.914 1029.97 711.689 1032.3 708.532C1034.62 705.375 1040.24 703.332 1041.96 706.907C1049.67 700.454 1044.79 685.69 1052.78 679.561C1057.42 676.125 1063.97 677.147 1068.71 673.99C1072.06 671.808 1073.87 667.861 1077.26 665.772C1081.26 663.884 1085.78 663.409 1090.08 664.425L1110.19 666.793C1116.56 666.834 1122.71 669.082 1127.61 673.154C1131.56 677.286 1132.25 683.415 1135.23 688.382C1141.13 698.829 1154.27 702.775 1162.21 711.597C1172.06 722.6 1172.48 739.454 1181.12 751.386C1185.2 757.05 1190.83 761.321 1195.05 766.754C1203.97 777.989 1207.04 794.007 1218.83 802.086C1223.48 805.196 1229.1 806.961 1232.77 811.371C1238.81 818.475 1236.53 829.107 1237.41 838.393C1238.24 847.915 1242.62 856.779 1249.68 863.232C1253.3 866.528 1257.94 869.732 1258.5 874.607C1258.47 877.24 1258.2 879.866 1257.71 882.453C1257.25 891.135 1265.38 897.635 1273.04 901.674C1287.91 908.889 1303.47 914.582 1319.49 918.667L1358.27 929.996C1366.68 932.456 1380.29 938.121 1383.08 929.996C1383.28 928.67 1383.04 927.313 1382.39 926.138C1381.75 924.962 1380.73 924.033 1379.5 923.496C1377.01 922.476 1374.6 921.265 1372.3 919.874C1367.65 916.253 1369.51 902.51 1367.65 897.032C1363.78 885.672 1359.96 874.297 1356.18 862.907C1355.4 861.046 1355.11 859.015 1355.35 857.01C1356.18 853.435 1359.99 851.578 1362.31 848.653C1363.09 847.515 1363.62 846.231 1363.87 844.879C1364.13 843.528 1364.1 842.138 1363.8 840.797C1363.49 839.456 1362.91 838.192 1362.1 837.083C1361.28 835.975 1360.25 835.045 1359.06 834.353C1355.62 832.543 1350.14 831.289 1350.93 827.528C1351.35 825.439 1353.67 824.464 1355.58 823.675C1360.18 822.345 1364.19 819.497 1366.96 815.596C1367.6 814.612 1368.04 813.51 1368.24 812.355C1368.45 811.2 1368.43 810.015 1368.17 808.869C1367.92 807.723 1367.44 806.639 1366.76 805.682C1366.08 804.724 1365.22 803.912 1364.22 803.293C1362.99 802.932 1361.83 802.384 1360.78 801.668C1357.76 798.836 1362.59 794.146 1366.77 793.868C1370.95 793.589 1376.29 793.868 1378.01 790.154C1378.39 788.825 1378.43 787.42 1378.12 786.072C1377.82 784.724 1377.17 783.477 1376.25 782.446C1374.35 780.404 1373.05 777.883 1372.49 775.157C1372.25 772.371 1375.13 769.354 1377.59 770.514C1380.06 771.675 1379.78 774.786 1381.78 776.039C1383.77 777.293 1386.42 775.714 1388.6 774.136L1399.05 765.593C1400.42 764.655 1401.47 763.328 1402.07 761.786C1402.82 758.907 1400.35 756.354 1399.1 753.707C1397.85 751.061 1399.38 746.464 1402.12 747.532C1403.37 747.997 1403.93 749.436 1404.77 750.411C1408.48 754.822 1415.5 750.875 1419.63 746.836C1420.79 745.768 1422 744.329 1421.49 742.843C1420.98 741.357 1420.1 741.264 1419.35 740.522C1416.47 737.643 1418.66 732.257 1422.37 730.586C1426.5 729.314 1430.91 729.202 1435.1 730.261C1443.9 731.922 1452.97 731.573 1461.62 729.239C1465.93 728.06 1469.95 726.037 1473.47 723.287C1476.99 720.537 1479.92 717.116 1482.1 713.222C1485.03 707.464 1485.91 700.64 1489.91 695.532C1492.65 692.004 1496.78 689.45 1498.73 685.411C1501.61 679.515 1498.96 672.318 1500.59 665.911C1502.86 659.863 1507.01 654.704 1512.43 651.193C1513.01 650.595 1513.79 650.245 1514.62 650.218C1516.48 650.218 1516.75 652.911 1516.15 654.861C1515.55 656.811 1514.62 658.622 1515.78 660.061C1516.94 661.5 1521.12 660.386 1522.84 662.29C1525.25 665.029 1521.03 669.718 1524.05 672.086C1527.07 674.454 1532.83 671.204 1535.43 669.718C1547.73 661.913 1560.84 655.468 1574.54 650.497C1574.95 636.568 1577.79 621.572 1575.23 607.69C1573.74 602.47 1573.03 597.055 1573.14 591.626C1573.65 583.826 1579.6 577.372 1581.04 569.619Z" fill="#76B5FF" stroke="#436AE5" stroke-miterlimit="10"/>
<path d="M728.355 126.959C715.969 260.363 704.481 393.845 693.891 527.404C709.033 529.307 724.175 531.118 739.457 532.418C742.943 532.475 746.372 533.316 749.49 534.879C750.851 523.045 751.332 511.127 750.929 499.222L838.253 509.622C841.272 509.993 843.687 509.993 845.824 510.272C845.33 509.262 844.771 508.285 844.152 507.347C840.529 502.24 835.28 499.686 833.701 493.093C846.288 491.19 858.597 494.161 871.324 494.858L917.773 497.458L1010.9 502.658C1020.82 503.954 1030.84 504.234 1040.81 503.493C1045.46 438.494 1044.44 373.772 1044.9 308.494C1044.9 298.698 1044.3 171.205 1049.55 156.766C1040.63 154.278 1031.4 153.044 1022.14 153.098C923.764 149.477 825.897 139.913 728.355 126.959Z" fill="white" stroke="#436AE5" stroke-linecap="round" stroke-linejoin="round"/>
<path d="M1007.42 -127.701V-128.815C999.73 -127.688 991.935 -127.47 984.195 -128.165C907.864 -132.529 831.766 -139.618 755.9 -149.429C746.146 -57.3155 736.856 34.8139 728.031 126.959C825.573 139.912 923.44 149.477 1021.73 153.052C1030.99 152.997 1040.21 154.231 1049.13 156.719C1049.46 155.884 1049.78 155.373 1050.11 155.373C1066.18 156.441 1082.62 155.652 1098.69 155.373C1103.34 62.1911 1107.52 -30.9905 1108.96 -124.265C1075.09 -126.262 1041.65 -128.258 1007.42 -127.701Z" fill="white" stroke="#436AE5" stroke-linecap="round" stroke-linejoin="round"/>
<path d="M466.108 85.6375C464.482 99.566 462.763 113.773 460.859 127.794C459.744 135.826 457.422 145.437 449.665 147.944C438.75 151.566 425.372 137.73 416.64 145.205C411.995 149.291 412.785 156.673 413.667 162.848C416.448 182.327 415.439 202.159 410.695 221.255C412.924 224.226 415.061 227.198 417.29 230.123C416.036 241.915 415.061 253.337 423.932 261.23C427.23 264.155 431.736 265.872 433.454 270.19C435.87 275.808 431.55 282.122 426.534 285.558C421.517 288.994 415.386 291.176 411.438 295.819C405.399 302.922 405.539 314.39 397.921 319.962C396.062 320.899 394.405 322.192 393.044 323.769C392.176 325.522 391.883 327.504 392.208 329.433C392.72 336.162 394.109 342.796 396.342 349.165C398.214 353.072 399.122 357.371 398.99 361.701C397.828 369.779 389.05 373.911 382.082 378.136C380.402 379.055 378.842 380.178 377.438 381.479C380.244 387.144 383.928 392.33 388.353 396.847C409.162 411.1 431.689 423.358 453.009 437.286C489.146 460.825 524.586 486.5 561.838 508.275C579.349 518.536 599.322 516.354 619.016 518.257C644.052 520.718 668.809 524.2 693.659 527.543C704.064 393.984 715.552 260.502 728.124 127.098C640.661 115.352 553.245 100.959 466.108 85.6375Z" fill="white" stroke="#436AE5" stroke-linecap="round" stroke-linejoin="round"/>
<path d="M755.993 -149.43C721.931 -153.794 688.039 -158.669 654.317 -164.054C656.423 -186.402 658.497 -208.719 660.541 -231.004L516.922 -261.74C515.993 -231.933 509.862 -203.101 504.613 -173.247L485.105 -61.8191C476.558 -13.1622 471.867 36.3304 466.107 85.5909C553.245 100.912 640.661 115.305 728.356 126.912C737.057 34.7675 746.27 -57.3466 755.993 -149.43Z" fill="white" stroke="#436AE5" stroke-linecap="round" stroke-linejoin="round"/>
<g filter="url(#filter0_d_215_2282)">
<ellipse cx="1357.18" cy="434.164" rx="22.9091" ry="22.908" fill="white"/>
<path d="M1377.09 434.164C1377.09 445.159 1368.18 454.072 1357.18 454.072C1346.19 454.072 1337.27 445.159 1337.27 434.164C1337.27 423.17 1346.19 414.256 1357.18 414.256C1368.18 414.256 1377.09 423.17 1377.09 434.164Z" stroke="#FF7D01" stroke-width="6"/>
</g>
<g filter="url(#filter1_d_215_2282)">
<ellipse cx="1306.27" cy="614.883" rx="22.9091" ry="22.908" fill="white"/>
<path d="M1326.18 614.883C1326.18 625.877 1317.27 634.791 1306.27 634.791C1295.28 634.791 1286.36 625.877 1286.36 614.883C1286.36 603.888 1295.28 594.975 1306.27 594.975C1317.27 594.975 1326.18 603.888 1326.18 614.883Z" stroke="#FF7D01" stroke-width="6"/>
</g>
<g filter="url(#filter2_d_215_2282)">
<ellipse cx="896.909" cy="555.908" rx="22.9091" ry="22.908" fill="white"/>
<path d="M916.818 555.908C916.818 566.903 907.905 575.816 896.909 575.816C885.913 575.816 877 566.903 877 555.908C877 544.913 885.913 536 896.909 536C907.905 536 916.818 544.913 916.818 555.908Z" stroke="#FF7D01" stroke-width="6"/>
</g>
<g filter="url(#filter3_d_215_2282)">
<ellipse cx="1481.91" cy="637.791" rx="22.9091" ry="22.908" fill="white"/>
<path d="M1501.82 637.791C1501.82 648.785 1492.9 657.699 1481.91 657.699C1470.91 657.699 1462 648.785 1462 637.791C1462 626.796 1470.91 617.883 1481.91 617.883C1492.9 617.883 1501.82 626.796 1501.82 637.791Z" stroke="#FF7D01" stroke-width="6"/>
</g>
<g filter="url(#filter4_d_215_2282)">
<rect x="1537" y="445.32" width="284" height="104" rx="25" fill="white"/>
</g>
<path d="M1573.08 479.08H1568.3V476.316H1581.02V479.08H1576.24V490.32H1573.08V479.08ZM1591.91 485.32L1591.85 486.082H1583.55C1583.55 486.681 1583.78 487.195 1584.26 487.625C1584.72 488.061 1585.39 488.279 1586.26 488.279C1586.76 488.279 1587.2 488.194 1587.59 488.025C1587.96 487.856 1588.21 487.686 1588.32 487.517L1588.51 487.283H1591.66C1591.65 487.374 1591.62 487.488 1591.57 487.625C1591.52 487.787 1591.38 488.044 1591.14 488.396C1590.9 488.78 1590.6 489.112 1590.26 489.392C1589.88 489.685 1589.35 489.942 1588.66 490.164C1587.95 490.398 1587.15 490.515 1586.26 490.515C1584.56 490.515 1583.17 490.056 1582.11 489.138C1581.05 488.22 1580.52 486.947 1580.52 485.32C1580.52 483.692 1581.05 482.419 1582.1 481.501C1583.16 480.583 1584.53 480.125 1586.22 480.125C1587.9 480.125 1589.27 480.583 1590.32 481.501C1591.38 482.419 1591.91 483.692 1591.91 485.32ZM1588.17 482.976C1587.7 482.566 1587.06 482.361 1586.22 482.361C1585.39 482.361 1584.74 482.569 1584.29 482.986C1583.82 483.409 1583.59 483.855 1583.59 484.324H1588.84C1588.84 483.842 1588.62 483.393 1588.17 482.976ZM1600.47 490.32L1598.14 486.824H1598.07L1595.73 490.32H1592.39L1596.1 485.125L1592.83 480.32H1596.12L1598.07 483.503H1598.14L1600.09 480.32H1603.37L1600.11 485.125L1603.81 490.32H1600.47ZM1604.7 487.498C1604.7 486.469 1605.12 485.697 1605.97 485.183C1606.82 484.675 1607.89 484.421 1609.18 484.421C1609.85 484.421 1610.45 484.49 1610.99 484.626C1611.52 484.776 1611.89 484.913 1612.1 485.037L1612.42 485.261V483.796C1612.42 483.367 1612.26 483.005 1611.94 482.712C1611.61 482.426 1611.07 482.283 1610.3 482.283C1609.76 482.283 1609.27 482.384 1608.84 482.585C1608.39 482.794 1608.17 483.113 1608.17 483.542H1605.21C1605.21 482.403 1605.68 481.547 1606.59 480.974C1607.51 480.408 1608.74 480.125 1610.3 480.125C1611.89 480.125 1613.11 480.431 1613.99 481.042C1614.87 481.654 1615.3 482.572 1615.3 483.796V486.921C1615.3 487.325 1615.35 487.605 1615.45 487.761C1615.55 487.917 1615.72 487.996 1615.96 487.996L1616.38 487.917V490.32C1616.13 490.45 1615.72 490.515 1615.14 490.515C1614.39 490.515 1613.82 490.352 1613.44 490.027C1613.09 489.747 1612.88 489.49 1612.79 489.255L1612.73 489.119H1612.58C1612.58 489.145 1612.55 489.203 1612.48 489.294C1612.42 489.379 1612.29 489.496 1612.1 489.646C1611.92 489.796 1611.7 489.929 1611.45 490.046C1610.78 490.359 1609.91 490.515 1608.84 490.515C1607.65 490.515 1606.67 490.258 1605.88 489.744C1605.09 489.236 1604.7 488.487 1604.7 487.498ZM1610.02 488.337C1610.54 488.337 1611 488.272 1611.41 488.142C1611.8 488.018 1612.07 487.891 1612.22 487.761L1612.42 487.576V486.98C1612.37 486.928 1612.3 486.873 1612.22 486.814C1612.11 486.742 1611.85 486.654 1611.45 486.55C1611.02 486.44 1610.54 486.384 1610.02 486.384C1608.45 486.384 1607.66 486.71 1607.66 487.361C1607.66 488.012 1608.45 488.337 1610.02 488.337ZM1627.77 483.416H1624.81C1624.81 483.246 1624.79 483.113 1624.76 483.015C1624.73 482.917 1624.65 482.8 1624.54 482.664C1624.32 482.397 1623.74 482.263 1622.8 482.263C1621.57 482.263 1620.95 482.569 1620.95 483.181C1620.95 483.474 1621.2 483.686 1621.7 483.816C1622.18 483.946 1622.79 484.047 1623.52 484.119C1624.29 484.19 1625.01 484.294 1625.66 484.431C1626.36 484.574 1626.96 484.89 1627.47 485.378C1627.97 485.86 1628.22 486.508 1628.22 487.322C1628.22 489.464 1626.48 490.528 1622.98 490.515C1619.52 490.515 1617.79 489.382 1617.79 487.117V486.804H1620.74V487.117C1620.74 487.566 1620.92 487.888 1621.27 488.083C1621.62 488.279 1622.19 488.376 1622.98 488.376C1624.49 488.376 1625.25 488.038 1625.27 487.361C1625.27 487.068 1625.09 486.84 1624.73 486.677C1624.38 486.528 1623.92 486.427 1623.37 486.375C1622.8 486.335 1622.22 486.264 1621.62 486.16C1620.99 486.049 1620.41 485.912 1619.88 485.75C1619.35 485.587 1618.9 485.281 1618.53 484.832C1618.16 484.389 1617.98 483.832 1617.98 483.162C1617.98 482.172 1618.42 481.417 1619.29 480.896C1620.15 480.382 1621.35 480.125 1622.86 480.125C1626.13 480.118 1627.77 481.215 1627.77 483.416Z" fill="#272727"/>
<path d="M1577.76 517.32H1576.07V514.314H1568.54V512.802L1575.49 504.716H1577.76V512.802H1579.49V514.314H1577.76V517.32ZM1570.49 512.75V512.802H1576.07V506.307H1576.01L1570.49 512.75ZM1596.15 517.32H1594.09L1591.82 510.157H1591.74L1589.47 517.32H1587.41L1584.8 508.496H1586.36L1588.43 515.624H1588.5L1590.77 508.496H1592.79L1595.05 515.624H1595.13L1597.2 508.496H1598.76L1596.15 517.32ZM1600.12 514.85C1600.12 513.948 1600.51 513.28 1601.28 512.846C1602.04 512.418 1603.02 512.205 1604.21 512.205C1604.82 512.205 1605.38 512.278 1605.9 512.424C1606.44 512.577 1606.82 512.72 1607.03 512.855L1607.38 513.075V511.686C1607.38 511.088 1607.16 510.62 1606.72 510.28C1606.28 509.934 1605.61 509.761 1604.73 509.761C1602.97 509.761 1602.08 510.242 1602.08 511.203H1600.54C1600.54 510.23 1600.94 509.506 1601.72 509.032C1602.5 508.557 1603.5 508.32 1604.73 508.32C1605.96 508.32 1606.96 508.607 1607.74 509.181C1608.52 509.761 1608.92 510.596 1608.92 511.686V514.894C1608.92 515.339 1608.98 515.65 1609.1 515.826C1609.21 515.996 1609.41 516.081 1609.68 516.081C1609.91 516.081 1610.07 516.048 1610.14 515.984L1610.18 515.966V517.355C1610 517.449 1609.73 517.496 1609.39 517.496C1608.8 517.496 1608.37 517.37 1608.09 517.118C1607.86 516.93 1607.7 516.734 1607.59 516.529L1607.55 516.423H1607.48C1607.33 516.57 1607.18 516.693 1607.03 516.792C1606.85 516.916 1606.65 517.024 1606.43 517.118C1605.86 517.37 1605.16 517.496 1604.33 517.496C1603.09 517.496 1602.07 517.282 1601.29 516.854C1600.51 516.432 1600.12 515.764 1600.12 514.85ZM1604.56 513.646C1602.66 513.646 1601.71 514.047 1601.71 514.85C1601.71 515.659 1602.66 516.063 1604.56 516.063C1605.12 516.063 1605.64 516.001 1606.1 515.878C1606.56 515.767 1606.87 515.662 1607.04 515.562C1607.2 515.48 1607.31 515.407 1607.38 515.342V514.332C1607.31 514.267 1607.2 514.194 1607.04 514.112C1606.84 514.018 1606.53 513.918 1606.11 513.813C1605.66 513.702 1605.14 513.646 1604.56 513.646ZM1616.77 508.32C1617.12 508.32 1617.43 508.355 1617.7 508.425L1617.83 508.443V510.139C1617.49 510.022 1617.05 509.96 1616.5 509.955C1615.55 509.955 1614.8 510.256 1614.26 510.86C1613.71 511.463 1613.44 512.219 1613.44 513.127V517.32H1611.89V508.496H1613.44V510.209H1613.53C1613.62 510.022 1613.76 509.802 1613.96 509.55C1614.14 509.328 1614.34 509.134 1614.56 508.97C1614.82 508.794 1615.14 508.642 1615.53 508.513C1615.93 508.384 1616.34 508.32 1616.77 508.32ZM1628.66 512.908L1628.61 513.646H1620.64C1620.64 514.15 1620.94 514.677 1621.53 515.228C1622.13 515.785 1622.92 516.063 1623.92 516.063C1624.65 516.063 1625.25 515.925 1625.72 515.65C1626.1 515.416 1626.37 515.205 1626.53 515.017L1626.6 514.894H1628.42C1628.38 514.982 1628.34 515.073 1628.3 515.167C1628.23 515.301 1628.08 515.509 1627.87 515.791C1627.64 516.089 1627.38 516.356 1627.07 516.59C1626.78 516.819 1626.35 517.027 1625.78 517.214C1625.24 517.402 1624.62 517.496 1623.92 517.496C1622.46 517.496 1621.27 517.08 1620.37 516.248C1619.45 515.416 1618.99 514.302 1618.99 512.908C1618.99 511.525 1619.44 510.415 1620.36 509.577C1621.26 508.739 1622.42 508.32 1623.83 508.32C1625.22 508.32 1626.38 508.739 1627.3 509.577C1628.21 510.415 1628.66 511.525 1628.66 512.908ZM1626.17 510.596C1625.58 510.04 1624.8 509.761 1623.83 509.761C1622.84 509.761 1622.06 510.04 1621.49 510.596C1620.91 511.153 1620.62 511.701 1620.62 512.24H1627.03C1627.03 511.701 1626.74 511.153 1626.17 510.596ZM1639.87 517.32H1638.32V512.767C1638.32 511.736 1638.06 510.977 1637.54 510.491C1637.02 510.004 1636.32 509.761 1635.44 509.761C1634.51 509.761 1633.8 510.037 1633.31 510.587C1632.81 511.138 1632.56 511.865 1632.56 512.767V517.32H1631.02V504.716H1632.56V509.849H1632.65C1632.78 509.65 1632.92 509.471 1633.08 509.313C1633.28 509.137 1633.48 508.982 1633.69 508.847C1633.93 508.701 1634.25 508.578 1634.65 508.478C1635.05 508.373 1635.46 508.32 1635.9 508.32C1637.03 508.32 1637.98 508.66 1638.74 509.339C1639.49 510.025 1639.87 511.047 1639.87 512.407V517.32ZM1643.49 516.239C1642.58 515.401 1642.12 514.291 1642.12 512.908C1642.12 511.531 1642.58 510.42 1643.49 509.577C1644.4 508.739 1645.55 508.32 1646.96 508.32C1648.36 508.32 1649.51 508.739 1650.43 509.577C1651.34 510.42 1651.79 511.531 1651.79 512.908C1651.79 514.291 1651.34 515.401 1650.43 516.239C1649.51 517.077 1648.36 517.496 1646.96 517.496C1645.55 517.496 1644.4 517.077 1643.49 516.239ZM1649.33 515.175C1649.92 514.583 1650.21 513.828 1650.21 512.908C1650.21 511.988 1649.92 511.232 1649.33 510.64C1648.73 510.054 1647.95 509.761 1646.96 509.761C1645.97 509.761 1645.18 510.054 1644.6 510.64C1644 511.226 1643.7 511.982 1643.7 512.908C1643.7 513.833 1644 514.589 1644.6 515.175C1645.19 515.767 1645.98 516.063 1646.96 516.063C1647.93 516.063 1648.72 515.767 1649.33 515.175ZM1654.15 508.496H1655.7V513.057C1655.7 514.088 1655.96 514.847 1656.48 515.333C1657 515.82 1657.7 516.063 1658.57 516.063C1659.49 516.063 1660.2 515.785 1660.71 515.228C1661.21 514.677 1661.45 513.954 1661.45 513.057V508.496H1663V517.32H1661.45V515.966H1661.37C1661.25 516.154 1661.11 516.333 1660.94 516.502C1660.74 516.684 1660.54 516.839 1660.33 516.968C1660.09 517.121 1659.77 517.247 1659.37 517.346C1658.97 517.446 1658.56 517.496 1658.12 517.496C1656.97 517.496 1656.03 517.153 1655.28 516.467C1654.53 515.793 1654.15 514.777 1654.15 513.417V508.496ZM1672.35 514.709C1672.35 514.364 1672.19 514.097 1671.85 513.91C1671.51 513.716 1671.09 513.608 1670.59 513.584C1670.08 513.555 1669.54 513.502 1668.95 513.426C1668.32 513.35 1667.77 513.259 1667.3 513.154C1666.79 513.048 1666.38 512.811 1666.04 512.442C1665.7 512.079 1665.53 511.592 1665.53 510.983C1665.53 510.098 1665.91 509.43 1666.67 508.979C1667.42 508.54 1668.4 508.32 1669.6 508.32C1670.82 508.32 1671.8 508.566 1672.55 509.058C1673.3 509.55 1673.67 510.324 1673.67 511.378H1672.09C1672.09 510.828 1671.89 510.42 1671.49 510.157C1671.1 509.893 1670.47 509.761 1669.6 509.761C1667.94 509.761 1667.11 510.168 1667.11 510.983C1667.11 511.317 1667.28 511.572 1667.62 511.748C1667.96 511.929 1668.38 512.032 1668.88 512.055C1669.34 512.079 1669.89 512.128 1670.53 512.205C1671.14 512.287 1671.68 512.383 1672.18 512.495C1672.67 512.618 1673.1 512.864 1673.44 513.233C1673.78 513.614 1673.94 514.106 1673.94 514.709C1673.94 515.366 1673.74 515.911 1673.32 516.344C1672.91 516.772 1672.39 517.071 1671.77 517.241C1671.17 517.411 1670.46 517.496 1669.64 517.496C1667.92 517.496 1666.7 517.074 1665.96 516.23C1665.55 515.75 1665.34 515.152 1665.34 514.437V514.156H1666.92V514.437C1666.92 515.515 1667.83 516.054 1669.64 516.054C1671.45 516.066 1672.35 515.618 1672.35 514.709ZM1685.6 512.908L1685.54 513.646H1677.57C1677.57 514.15 1677.87 514.677 1678.47 515.228C1679.06 515.785 1679.86 516.063 1680.85 516.063C1681.58 516.063 1682.18 515.925 1682.65 515.65C1683.04 515.416 1683.31 515.205 1683.46 515.017L1683.53 514.894H1685.35C1685.32 514.982 1685.28 515.073 1685.24 515.167C1685.16 515.301 1685.02 515.509 1684.81 515.791C1684.58 516.089 1684.31 516.356 1684.01 516.59C1683.71 516.819 1683.28 517.027 1682.71 517.214C1682.18 517.402 1681.55 517.496 1680.85 517.496C1679.39 517.496 1678.21 517.08 1677.3 516.248C1676.38 515.416 1675.92 514.302 1675.92 512.908C1675.92 511.525 1676.38 510.415 1677.29 509.577C1678.2 508.739 1679.36 508.32 1680.76 508.32C1682.16 508.32 1683.32 508.739 1684.24 509.577C1685.14 510.415 1685.6 511.525 1685.6 512.908ZM1683.1 510.596C1682.52 510.04 1681.74 509.761 1680.76 509.761C1679.78 509.761 1679 510.04 1678.43 510.596C1677.85 511.153 1677.56 511.701 1677.56 512.24H1683.96C1683.96 511.701 1683.68 511.153 1683.1 510.596ZM1694.61 514.709C1694.61 514.364 1694.44 514.097 1694.11 513.91C1693.76 513.716 1693.34 513.608 1692.85 513.584C1692.34 513.555 1691.79 513.502 1691.21 513.426C1690.57 513.35 1690.02 513.259 1689.55 513.154C1689.05 513.048 1688.63 512.811 1688.3 512.442C1687.96 512.079 1687.79 511.592 1687.79 510.983C1687.79 510.098 1688.16 509.43 1688.92 508.979C1689.68 508.54 1690.65 508.32 1691.86 508.32C1693.07 508.32 1694.06 508.566 1694.81 509.058C1695.55 509.55 1695.92 510.324 1695.92 511.378H1694.34C1694.34 510.828 1694.14 510.42 1693.75 510.157C1693.35 509.893 1692.72 509.761 1691.86 509.761C1690.2 509.761 1689.37 510.168 1689.37 510.983C1689.37 511.317 1689.54 511.572 1689.88 511.748C1690.22 511.929 1690.64 512.032 1691.13 512.055C1691.6 512.079 1692.15 512.128 1692.79 512.205C1693.39 512.287 1693.94 512.383 1694.43 512.495C1694.93 512.618 1695.35 512.864 1695.7 513.233C1696.03 513.614 1696.2 514.106 1696.2 514.709C1696.2 515.366 1695.99 515.911 1695.57 516.344C1695.16 516.772 1694.65 517.071 1694.03 517.241C1693.42 517.411 1692.71 517.496 1691.89 517.496C1690.17 517.496 1688.95 517.074 1688.22 516.23C1687.8 515.75 1687.59 515.152 1687.59 514.437V514.156H1689.17V514.437C1689.17 515.515 1690.08 516.054 1691.89 516.054C1693.7 516.066 1694.61 515.618 1694.61 514.709ZM1705.07 508.144V508.496H1707.66V509.902H1705.07V517.32H1703.52V509.902H1702.04V509.041L1703.52 508.496V507.942C1703.52 506.811 1703.83 505.961 1704.47 505.393C1705.09 504.825 1705.94 504.541 1707.02 504.541C1707.33 504.541 1707.65 504.582 1707.97 504.664C1708.28 504.751 1708.52 504.831 1708.67 504.901L1708.89 505.024V506.413C1708.5 506.067 1707.96 505.894 1707.28 505.894C1706.55 505.894 1706 506.07 1705.63 506.421C1705.26 506.767 1705.07 507.341 1705.07 508.144ZM1710.51 516.239C1709.6 515.401 1709.14 514.291 1709.14 512.908C1709.14 511.531 1709.6 510.42 1710.51 509.577C1711.42 508.739 1712.58 508.32 1713.99 508.32C1715.38 508.32 1716.54 508.739 1717.46 509.577C1718.37 510.42 1718.82 511.531 1718.82 512.908C1718.82 514.291 1718.37 515.401 1717.46 516.239C1716.54 517.077 1715.38 517.496 1713.99 517.496C1712.58 517.496 1711.42 517.077 1710.51 516.239ZM1716.35 515.175C1716.94 514.583 1717.24 513.828 1717.24 512.908C1717.24 511.988 1716.94 511.232 1716.35 510.64C1715.76 510.054 1714.97 509.761 1713.99 509.761C1713 509.761 1712.21 510.054 1711.62 510.64C1711.02 511.226 1710.73 511.982 1710.73 512.908C1710.73 513.833 1711.02 514.589 1711.62 515.175C1712.21 515.767 1713 516.063 1713.99 516.063C1714.96 516.063 1715.75 515.767 1716.35 515.175ZM1721.18 508.496H1722.72V513.057C1722.72 514.088 1722.98 514.847 1723.5 515.333C1724.03 515.82 1724.72 516.063 1725.6 516.063C1726.52 516.063 1727.23 515.785 1727.73 515.228C1728.23 514.677 1728.48 513.954 1728.48 513.057V508.496H1730.03V517.32H1728.48V515.966H1728.39C1728.27 516.154 1728.13 516.333 1727.96 516.502C1727.77 516.684 1727.57 516.839 1727.35 516.968C1727.11 517.121 1726.79 517.247 1726.4 517.346C1726 517.446 1725.58 517.496 1725.15 517.496C1724 517.496 1723.05 517.153 1722.31 516.467C1721.55 515.793 1721.18 514.777 1721.18 513.417V508.496ZM1741.58 517.32H1740.03V512.767C1740.03 511.736 1739.77 510.977 1739.25 510.491C1738.72 510.004 1738.02 509.761 1737.15 509.761C1736.22 509.761 1735.51 510.037 1735.02 510.587C1734.52 511.138 1734.27 511.865 1734.27 512.767V517.32H1732.72V508.496H1734.27V509.849H1734.36C1734.48 509.65 1734.63 509.471 1734.79 509.313C1734.98 509.137 1735.19 508.982 1735.4 508.847C1735.64 508.701 1735.96 508.578 1736.35 508.478C1736.75 508.373 1737.17 508.32 1737.6 508.32C1738.74 508.32 1739.69 508.66 1740.45 509.339C1741.2 510.025 1741.58 511.047 1741.58 512.407V517.32ZM1751.96 504.716H1753.5V517.32H1751.96V516.001H1751.88C1751.79 516.154 1751.62 516.33 1751.38 516.529C1751.18 516.693 1750.96 516.842 1750.72 516.977C1750.47 517.118 1750.14 517.238 1749.73 517.337C1749.33 517.443 1748.92 517.496 1748.5 517.496C1747.17 517.496 1746.06 517.074 1745.17 516.23C1744.27 515.386 1743.83 514.279 1743.83 512.908C1743.83 511.548 1744.27 510.441 1745.17 509.585C1746.06 508.742 1747.17 508.32 1748.5 508.32C1749.22 508.32 1749.85 508.446 1750.41 508.698C1750.96 508.95 1751.35 509.196 1751.58 509.436L1751.88 509.814H1751.96V504.716ZM1746.3 510.649C1745.71 511.247 1745.41 512 1745.41 512.908C1745.41 513.822 1745.71 514.575 1746.3 515.167C1746.9 515.764 1747.69 516.063 1748.69 516.063C1749.68 516.063 1750.48 515.764 1751.07 515.167C1751.66 514.575 1751.96 513.822 1751.96 512.908C1751.96 511.97 1751.65 511.211 1751.05 510.631C1750.45 510.051 1749.66 509.761 1748.69 509.761C1747.69 509.761 1746.9 510.057 1746.3 510.649Z" fill="#436AE5"/>
</g>
<defs>
<filter id="filter0_d_215_2282" x="1314.27" y="401.256" width="85.8184" height="85.8159" filterUnits="userSpaceOnUse" color-interpolation-filters="sRGB">
<feFlood flood-opacity="0" result="BackgroundImageFix"/>
<feColorMatrix in="SourceAlpha" type="matrix" values="0 0 0 0 0 0 0 0 0 0 0 0 0 0 0 0 0 0 127 0" result="hardAlpha"/>
<feOffset dy="10"/>
<feGaussianBlur stdDeviation="10"/>
<feComposite in2="hardAlpha" operator="out"/>
<feColorMatrix type="matrix" values="0 0 0 0 0.246875 0 0 0 0 0.367998 0 0 0 0 0.75 0 0 0 0.7 0"/>
<feBlend mode="normal" in2="BackgroundImageFix" result="effect1_dropShadow_215_2282"/>
<feBlend mode="normal" in="SourceGraphic" in2="effect1_dropShadow_215_2282" result="shape"/>
</filter>
<filter id="filter1_d_215_2282" x="1263.36" y="581.975" width="85.8184" height="85.8159" filterUnits="userSpaceOnUse" color-interpolation-filters="sRGB">
<feFlood flood-opacity="0" result="BackgroundImageFix"/>
<feColorMatrix in="SourceAlpha" type="matrix" values="0 0 0 0 0 0 0 0 0 0 0 0 0 0 0 0 0 0 127 0" result="hardAlpha"/>
<feOffset dy="10"/>
<feGaussianBlur stdDeviation="10"/>
<feComposite in2="hardAlpha" operator="out"/>
<feColorMatrix type="matrix" values="0 0 0 0 0.246875 0 0 0 0 0.367998 0 0 0 0 0.75 0 0 0 0.7 0"/>
<feBlend mode="normal" in2="BackgroundImageFix" result="effect1_dropShadow_215_2282"/>
<feBlend mode="normal" in="SourceGraphic" in2="effect1_dropShadow_215_2282" result="shape"/>
</filter>
<filter id="filter2_d_215_2282" x="854" y="523" width="85.8184" height="85.8159" filterUnits="userSpaceOnUse" color-interpolation-filters="sRGB">
<feFlood flood-opacity="0" result="BackgroundImageFix"/>
<feColorMatrix in="SourceAlpha" type="matrix" values="0 0 0 0 0 0 0 0 0 0 0 0 0 0 0 0 0 0 127 0" result="hardAlpha"/>
<feOffset dy="10"/>
<feGaussianBlur stdDeviation="10"/>
<feComposite in2="hardAlpha" operator="out"/>
<feColorMatrix type="matrix" values="0 0 0 0 0.246875 0 0 0 0 0.367998 0 0 0 0 0.75 0 0 0 0.7 0"/>
<feBlend mode="normal" in2="BackgroundImageFix" result="effect1_dropShadow_215_2282"/>
<feBlend mode="normal" in="SourceGraphic" in2="effect1_dropShadow_215_2282" result="shape"/>
</filter>
<filter id="filter3_d_215_2282" x="1439" y="604.883" width="85.8184" height="85.8159" filterUnits="userSpaceOnUse" color-interpolation-filters="sRGB">
<feFlood flood-opacity="0" result="BackgroundImageFix"/>
<feColorMatrix in="SourceAlpha" type="matrix" values="0 0 0 0 0 0 0 0 0 0 0 0 0 0 0 0 0 0 127 0" result="hardAlpha"/>
<feOffset dy="10"/>
<feGaussianBlur stdDeviation="10"/>
<feComposite in2="hardAlpha" operator="out"/>
<feColorMatrix type="matrix" values="0 0 0 0 0.246875 0 0 0 0 0.367998 0 0 0 0 0.75 0 0 0 0.7 0"/>
<feBlend mode="normal" in2="BackgroundImageFix" result="effect1_dropShadow_215_2282"/>
<feBlend mode="normal" in="SourceGraphic" in2="effect1_dropShadow_215_2282" result="shape"/>
</filter>
<filter id="filter4_d_215_2282" x="1497" y="419.32" width="364" height="184" filterUnits="userSpaceOnUse" color-interpolation-filters="sRGB">
<feFlood flood-opacity="0" result="BackgroundImageFix"/>
<feColorMatrix in="SourceAlpha" type="matrix" values="0 0 0 0 0 0 0 0 0 0 0 0 0 0 0 0 0 0 127 0" result="hardAlpha"/>
<feOffset dy="14"/>
<feGaussianBlur stdDeviation="20"/>
<feComposite in2="hardAlpha" operator="out"/>
<feColorMatrix type="matrix" values="0 0 0 0 0.0437383 0 0 0 0 0.109346 0 0 0 0 0.316262 0 0 0 0.2 0"/>
<feBlend mode="normal" in2="BackgroundImageFix" result="effect1_dropShadow_215_2282"/>
<feBlend mode="normal" in="SourceGraphic" in2="effect1_dropShadow_215_2282" result="shape"/>
</filter>
<clipPath id="clip0_215_2282">
<rect width="1920" height="1023" fill="white"/>
</clipPath>
</defs>
</svg>
