<svg width="1920" height="1024" viewBox="0 0 1920 1024" fill="none" xmlns="http://www.w3.org/2000/svg">
<g clip-path="url(#clip0_5_66162)">
<rect width="1920" height="1023" transform="translate(0 0.841797)" fill="#F1F4FF"/>
<g clip-path="url(#clip1_5_66162)">
<path d="M1723.12 466.981C1727.54 460.104 1733.28 454.162 1739.99 449.493C1752.49 441.165 1768.82 440.082 1780.24 430.505C1783.69 426.968 1787.41 423.697 1791.36 420.719C1792.32 420.136 1793.69 419.678 1794.44 420.511C1794.78 420.949 1794.95 421.499 1794.9 422.052C1794.5 425.091 1793.02 427.885 1790.73 429.922C1777.6 444.733 1763.36 458.514 1748.12 471.145C1742.33 475.684 1732.99 484.762 1724.95 483.637C1714.66 482.555 1719.37 472.436 1723.12 466.981Z" fill="white" stroke="#436AE5" stroke-linecap="round" stroke-linejoin="round"/>
<path d="M994.495 210.688C992.496 213.77 979.29 219.016 983.289 224.096C987.871 229.676 996.203 219.641 998.62 216.851C1001.99 212.687 1008.12 209.522 1009.74 204.359C1010.58 201.736 1010.78 198.196 1007.24 197.613C1003.7 197.03 998.578 204.276 996.87 206.857C996.12 208.023 995.37 209.397 994.495 210.688Z" fill="white" stroke="#436AE5" stroke-linecap="round" stroke-linejoin="round"/>
<path d="M1723.12 466.981C1727.54 460.104 1733.28 454.162 1739.99 449.493C1752.49 441.165 1768.82 440.082 1780.24 430.505C1783.69 426.968 1787.41 423.697 1791.36 420.719C1792.32 420.136 1793.69 419.678 1794.44 420.511C1794.78 420.949 1794.95 421.499 1794.9 422.052C1794.5 425.091 1793.02 427.885 1790.73 429.922C1777.6 444.733 1763.36 458.514 1748.12 471.145C1742.33 475.684 1732.99 484.762 1724.95 483.637C1714.66 482.555 1719.37 472.436 1723.12 466.981Z" fill="#76B5FF" stroke="#436AE5" stroke-miterlimit="10"/>
<path d="M994.495 210.688C992.496 213.77 979.29 219.016 983.289 224.096C987.871 229.676 996.203 219.641 998.62 216.851C1001.99 212.687 1008.12 209.522 1009.74 204.359C1010.58 201.736 1010.78 198.196 1007.24 197.613C1003.7 197.03 998.578 204.276 996.87 206.857C996.12 208.023 995.37 209.397 994.495 210.688Z" fill="white" stroke="#436AE5" stroke-miterlimit="10"/>
<path d="M1909.14 104.714C1908.39 102.222 1907.2 99.8824 1905.64 97.8021C1901 91.3207 1894.63 86.2711 1887.27 83.2282C1883.07 82.1669 1879.24 79.9947 1876.18 76.9405C1872.89 72.7765 1873.27 65.4063 1868.39 63.0328C1866.71 62.4028 1864.96 61.9561 1863.19 61.7003C1860.71 60.8073 1858.46 59.4093 1856.56 57.5954C1854.65 55.7816 1853.15 53.5917 1852.15 51.1654C1845.81 38.9233 1844.61 24.7241 1840.02 11.6908C1835.44 -1.34253 1825.32 -14.2092 1811.53 -14.7922C1810.22 -14.939 1808.9 -14.7379 1807.7 -14.2093C1802.86 -11.7109 1803.28 -1.92548 1797.86 -2.42516C1796.74 -2.42516 1795.74 -3.17467 1794.66 -3.34123C1789.7 -4.25731 1787.66 2.52999 1785.03 6.86054C1784.7 7.53246 1784.23 8.1296 1783.65 8.61616C1783.08 9.10271 1782.42 9.46867 1781.7 9.69207C1775.2 11.2327 1774.2 -3.96584 1767.7 -2.21697C1765.33 -1.59237 1764.29 1.11424 1763.54 3.48771C1758.66 20.685 1753.75 38.1738 1754.16 56.0373C1754.41 68.5293 1757.37 81.0213 1758.33 93.8464C1759.11 102.049 1758.34 110.325 1756.08 118.247C1753.95 124.91 1749.45 129.99 1749.54 137.152C1749.62 144.314 1754.62 144.814 1747.7 151.309C1746.32 152.541 1744.8 153.603 1743.16 154.474L1784.28 271.066C1784.94 273.544 1786.25 275.801 1788.07 277.603C1789.93 278.883 1792.08 279.684 1794.32 279.935L1801.07 281.309C1801.07 280.601 1801.4 279.977 1801.49 279.352C1802.57 272.815 1800.99 265.986 1802.82 259.532C1804.95 251.87 1812.07 246.207 1813.57 238.42C1813.61 234.214 1814.12 230.025 1815.07 225.928C1817.12 222.421 1820.08 219.541 1823.65 217.6C1831.01 212.752 1837.28 206.427 1842.06 199.029C1844.42 195.313 1845.99 191.15 1846.66 186.8C1847.34 182.45 1847.11 178.009 1845.98 173.753C1844.89 171.475 1844.48 168.929 1844.81 166.425C1845.14 165.576 1845.68 164.824 1846.38 164.239C1847.07 163.653 1847.91 163.253 1848.8 163.074C1849.69 162.896 1850.62 162.945 1851.49 163.218C1852.35 163.49 1853.14 163.978 1853.77 164.634C1855.27 166.508 1855.44 169.381 1857.4 170.755C1859.35 172.129 1863.69 170.339 1864.98 167.466C1865.84 164.449 1866.38 161.351 1866.6 158.222C1867.19 155.099 1869.31 151.809 1872.43 151.726C1872.1 154.391 1875.98 155.89 1878.31 154.474C1880.41 152.802 1882.01 150.583 1882.93 148.062C1888.97 136.486 1902.1 129.698 1907.55 117.831C1909.62 113.784 1910.18 109.136 1909.14 104.714Z" fill="white" stroke="#436AE5" stroke-linecap="round" stroke-linejoin="round"/>
<path d="M1801.07 281.101L1794.32 279.727C1792.08 279.475 1789.93 278.674 1788.07 277.395C1786.25 275.593 1784.94 273.335 1784.28 270.857L1743.16 154.474C1740.07 155.935 1737.38 158.137 1735.33 160.886C1731.17 167.882 1733.04 173.919 1729.37 178.958C1730.77 184.119 1732.71 189.117 1735.17 193.865C1736.44 195.537 1737.62 197.275 1738.71 199.07C1742.25 206.399 1736.67 214.56 1733.25 221.93C1729.53 231.226 1727.41 241.079 1726.96 251.078C1726.13 259.795 1725.26 268.511 1724.38 277.228C1724 279.083 1724 280.995 1724.38 282.85C1725.38 285.889 1728.21 287.805 1730.33 290.178C1739.79 300.713 1734.5 318.452 1737.96 331.568L1772.95 318.119C1776.68 316.928 1780.17 315.112 1783.28 312.747C1785.85 310.298 1788.15 307.591 1790.16 304.669C1793.45 300.651 1797.39 297.216 1801.82 294.509C1797.41 291.386 1799.86 285.681 1801.07 281.101Z" fill="white" stroke="#436AE5" stroke-linecap="round" stroke-linejoin="round"/>
<path d="M1724.58 282.934C1724.21 281.079 1724.21 279.167 1724.58 277.312C1725.44 268.568 1726.31 259.851 1727.17 251.162C1727.62 241.163 1729.74 231.31 1733.46 222.014C1736.87 214.644 1742.46 206.483 1738.92 199.154C1737.83 197.359 1736.64 195.621 1735.37 193.949C1732.92 189.201 1730.98 184.203 1729.58 179.042C1727.7 181.471 1725.17 183.33 1722.29 184.414C1705.03 192.39 1687.19 199.044 1668.93 204.317C1665.89 205.109 1662.89 206.066 1659.89 207.024C1659.5 212.91 1660.1 218.819 1661.64 224.513C1663.89 232.299 1668.59 239.17 1671.47 246.749C1675.18 256.7 1675.63 267.568 1680.51 277.187C1682.72 281.934 1686.05 286.098 1688.96 290.262C1698.25 305.923 1704.19 323.331 1706.42 341.396C1712.86 340.698 1719.16 339.071 1725.13 336.566L1738.17 331.569C1734.58 318.452 1740 300.714 1730.54 290.179C1728.42 287.889 1725.58 286.098 1724.58 282.934Z" fill="white" stroke="#436AE5" stroke-linecap="round" stroke-linejoin="round"/>
<path d="M1862.69 330.861C1860.73 326.697 1858.81 322.866 1856.89 318.827C1856.56 317.831 1855.86 316.998 1854.94 316.495C1854.36 316.354 1853.76 316.337 1853.18 316.444C1852.6 316.552 1852.05 316.782 1851.56 317.12C1848.31 318.744 1844.69 320.868 1844.15 324.49C1843.06 331.569 1854.77 335.9 1853.35 342.937C1852.83 344.939 1851.59 346.675 1849.85 347.809C1845.85 350.678 1840.9 351.922 1836.02 351.288C1831.13 350.654 1826.67 348.19 1823.53 344.394C1817.69 336.857 1818.15 325.698 1811.9 318.494C1809.24 315.413 1805.19 312.456 1805.86 308.417C1806.53 304.378 1810.78 301.713 1809.11 298.549C1807.9 296.258 1804.94 296.258 1802.49 295.009L1801.95 294.593C1797.51 297.3 1793.57 300.735 1790.28 304.753C1788.27 307.675 1785.97 310.383 1783.41 312.831C1780.29 315.196 1776.8 317.013 1773.08 318.203L1725.04 336.649C1719.07 339.155 1712.77 340.782 1706.34 341.479C1707.79 350.89 1708.71 360.259 1709.34 369.253C1709.88 376.499 1710.21 383.827 1710.96 391.031C1714.29 388.637 1717.92 386.678 1721.75 385.201C1729.67 382.12 1738.12 380.621 1746.12 377.706C1761.99 372.001 1775.99 361.05 1792.61 357.969C1794.89 357.448 1797.25 357.448 1799.53 357.969C1803.38 359.815 1806.64 362.699 1808.94 366.297C1811.74 369.559 1815.03 372.368 1818.69 374.625C1823.28 374.625 1827.73 374.625 1829.77 370.794C1830.46 368.871 1831.03 366.911 1831.48 364.923C1832.19 363.007 1834.36 361.258 1836.19 362.216C1838.02 363.174 1837.94 365.006 1839.31 365.922C1841.31 367.296 1843.86 365.464 1845.56 363.798L1858.35 351.306C1861.89 348.534 1864.29 344.565 1865.1 340.147C1865.12 336.894 1864.28 333.694 1862.69 330.861Z" fill="white" stroke="#436AE5" stroke-linecap="round" stroke-linejoin="round"/>
<path d="M1786.9 373.084C1785.71 368.886 1784.8 364.616 1784.15 360.301C1771.11 364.756 1759.16 373.001 1746.2 377.706C1738.2 380.621 1729.54 382.12 1721.83 385.201C1718 386.678 1714.37 388.637 1711.04 391.031C1711.41 394.779 1711.91 398.443 1712.62 402.107C1715.95 418.763 1729.74 431.713 1728.41 447.911C1739.14 435.589 1751.8 425.097 1765.91 416.848C1774.24 412.018 1787.44 408.77 1796.4 402.274C1795.05 399.6 1793.93 396.814 1793.07 393.946C1790.85 386.895 1788.79 379.941 1786.9 373.084Z" fill="white" stroke="#436AE5" stroke-linecap="round" stroke-linejoin="round"/>
<path d="M1809.03 366.089C1806.73 362.491 1803.46 359.607 1799.61 357.761C1797.34 357.24 1794.97 357.24 1792.7 357.761C1789.8 358.322 1786.94 359.101 1784.16 360.092C1784.8 364.408 1785.72 368.677 1786.91 372.876C1788.77 379.76 1790.77 386.603 1792.9 393.404C1793.77 396.272 1794.89 399.059 1796.24 401.732C1798.76 400.13 1800.9 397.989 1802.5 395.462C1804.1 392.935 1805.12 390.085 1805.49 387.117C1805.25 383.658 1805.97 380.201 1807.57 377.123C1810.07 374 1814.44 373.959 1818.78 373.875C1815.15 371.784 1811.87 369.159 1809.03 366.089Z" fill="white" stroke="#436AE5" stroke-linecap="round" stroke-linejoin="round"/>
<path d="M1728.41 447.744C1729.74 431.712 1715.91 418.846 1712.62 401.94C1710.88 391.064 1709.81 380.092 1709.41 369.086C1707.54 342.769 1703.58 312.83 1688.96 290.178C1686.08 285.723 1682.71 281.642 1680.29 276.937C1675.46 267.484 1674.96 256.45 1671.25 246.498C1668.38 238.919 1663.67 232.049 1661.42 224.262C1659.88 218.568 1659.29 212.66 1659.67 206.773C1647.17 210.688 1635.34 215.518 1622.8 219.265C1616.82 220.636 1611.02 222.704 1605.51 225.428C1596.81 230.342 1591.02 239.003 1584.68 246.706C1580.04 251.585 1576.02 257.026 1572.73 262.904C1569.06 270.607 1568.56 279.31 1565.4 287.139C1562.23 294.967 1555.11 298.631 1551.81 305.752C1551.04 307.168 1550.77 308.805 1551.05 310.393C1551.34 311.982 1552.15 313.428 1553.36 314.496C1556.94 316.953 1562.65 314.08 1565.85 316.994C1570.48 321.158 1563.6 328.82 1565.85 334.65C1566.94 336.791 1568.35 338.756 1570.02 340.479C1581.56 356.177 1553.11 362.673 1543.82 369.211C1533.53 376.456 1522.99 385.867 1509.49 385.409C1505.66 385.409 1501.82 384.409 1497.99 384.534C1493.54 384.967 1489.19 386.12 1485.12 387.949L1468 394.486C1466.1 394.93 1464.32 395.772 1462.78 396.957C1461.23 398.142 1459.96 399.641 1459.04 401.357C1456.83 407.853 1464.58 412.933 1468.33 418.679C1473.49 426.674 1470.54 437.708 1464.7 445.245C1458.87 452.782 1450.66 458.029 1443.87 464.65C1436 472.145 1429.79 481.305 1422.46 489.342C1436.42 488.468 1448.25 482.097 1462.62 478.974C1482.27 474.404 1501.6 468.548 1520.49 461.443C1557.36 448.035 1593.72 432.295 1632.39 424.55C1634.32 424.031 1636.36 424.031 1638.3 424.55C1642.09 425.716 1643.76 429.922 1645.63 433.378C1651.45 443.077 1660.74 450.195 1671.63 453.282C1682.49 456.301 1693.69 457.938 1704.96 458.154L1719.95 459.07C1720.83 457.737 1721.79 456.446 1722.75 455.156C1724.29 452.657 1726.33 450.117 1728.41 447.744Z" fill="#76B5FF" stroke="#436AE5" stroke-linecap="round" stroke-linejoin="round"/>
<path d="M1696.38 593.859C1696.67 596.732 1697.92 601.063 1700.54 599.938C1701.33 599.533 1701.94 598.871 1702.29 598.064C1715.5 574.288 1710.38 543.933 1721.25 519.198C1723.81 514.769 1725.24 509.778 1725.42 504.666C1725 499.586 1719.62 494.631 1715.04 496.879C1713.67 497.587 1712.17 498.837 1710.88 498.17C1710.47 497.901 1710.13 497.545 1709.87 497.127C1709.62 496.709 1709.47 496.241 1709.42 495.755C1706.42 482.972 1711.96 469.938 1719.54 458.987L1704.54 458.071C1693.27 457.855 1682.08 456.218 1671.22 453.199C1667.74 460.306 1664.31 467.412 1660.93 474.519C1659.89 476.222 1659.37 478.189 1659.43 480.182C1659.93 483.971 1664.38 486.345 1664.68 490.175C1664.97 494.006 1661.72 496.463 1661.63 499.919C1661.63 504.874 1667.34 507.331 1671.51 509.996C1674.7 512.081 1677.32 514.928 1679.13 518.28C1680.94 521.632 1681.89 525.383 1681.88 529.192C1681.88 542.517 1669.84 553.718 1670.05 567.043C1670.32 572.439 1672.11 577.649 1675.22 582.075C1675.94 581.384 1676.85 580.92 1677.84 580.742C1679.92 580.367 1682.06 580.409 1684.12 580.868C1686.18 581.326 1688.14 582.191 1689.86 583.413C1691.59 584.634 1693.05 586.187 1694.17 587.98C1695.29 589.774 1696.04 591.772 1696.38 593.859Z" fill="white" stroke="#436AE5" stroke-linecap="round" stroke-linejoin="round"/>
<path d="M1443.13 637.289L1650.68 568.584C1657.39 566.377 1664.05 564.128 1670.63 561.63C1672.93 550.512 1681.76 540.81 1681.92 529.109C1681.93 525.299 1680.98 521.549 1679.17 518.197C1677.36 514.845 1674.74 511.998 1671.55 509.913C1667.39 507.248 1661.51 504.791 1661.68 499.836C1661.68 496.38 1665.01 493.507 1664.72 490.092C1664.43 486.678 1659.97 483.888 1659.47 480.099C1659.41 478.106 1659.93 476.139 1660.97 474.436C1664.39 467.357 1667.82 460.25 1671.26 453.116C1660.46 450.015 1651.24 442.93 1645.47 433.296C1643.6 429.839 1641.93 425.634 1638.14 424.468C1636.2 423.948 1634.16 423.948 1632.22 424.468C1593.56 432.213 1557.24 447.953 1520.33 461.361C1501.44 468.465 1482.11 474.321 1462.46 478.891C1448.09 482.014 1436.26 488.385 1422.3 489.26C1418.94 493.007 1415.13 496.335 1410.97 499.17C1417.8 528.429 1424.62 557.688 1431.42 586.947C1435.34 603.797 1439.24 620.578 1443.13 637.289Z" fill="white" stroke="#436AE5" stroke-linecap="round" stroke-linejoin="round"/>
<path d="M1700.09 633.666C1700.09 631.376 1700.09 629.044 1700.09 626.712C1699.84 620.55 1703.17 616.552 1697.79 613.512C1692 610.632 1686.64 606.945 1681.88 602.561C1679.5 600.321 1677.61 597.608 1676.34 594.596C1675.07 591.584 1674.45 588.34 1674.51 585.072C1674.49 584.06 1674.8 583.07 1675.38 582.241C1672.28 577.815 1670.49 572.605 1670.22 567.209C1670.18 565.417 1670.37 563.628 1670.76 561.879C1664.22 564.377 1657.59 566.584 1650.97 568.791C1661.52 592.372 1669.67 616.952 1675.3 642.161C1683.82 640.137 1692.12 637.292 1700.09 633.666Z" fill="white" stroke="#436AE5" stroke-linecap="round" stroke-linejoin="round"/>
<path d="M1494.41 646.742C1497.66 646.034 1499.7 642.869 1501.75 640.204C1505.33 635.499 1511.99 633.292 1516.45 628.878C1519.87 625.505 1524.12 621.841 1528.95 622.674C1532.49 623.298 1535.87 626.338 1539.2 624.964C1542.53 623.59 1542.78 619.592 1544.07 616.636C1545.02 614.787 1546.4 613.191 1548.09 611.98C1549.78 610.769 1551.73 609.978 1553.79 609.673C1555.85 609.367 1557.95 609.556 1559.91 610.224C1561.88 610.892 1563.66 612.02 1565.11 613.513C1566.17 615.388 1567.59 617.042 1569.28 618.385C1572.36 620.05 1576.23 618.385 1579.65 619.051C1586.27 620.675 1586.77 630.46 1592.15 634.416C1597.02 637.914 1604.65 636.165 1608.81 640.621C1610.01 642.485 1610.64 644.652 1610.64 646.867C1610.64 649.081 1610.01 651.248 1608.81 653.113C1606.4 656.779 1604.22 660.589 1602.27 664.522C1601.58 666.01 1601.47 667.707 1601.98 669.269C1602.72 670.441 1603.83 671.337 1605.13 671.819C1606.43 672.3 1607.86 672.341 1609.19 671.934C1611.81 671.099 1614.48 670.404 1617.19 669.852C1620.64 669.644 1624.02 671.268 1627.48 670.976C1631.64 670.643 1635.14 667.478 1639.02 665.813C1642.26 664.479 1645.83 664.145 1649.26 664.855C1650.64 662.94 1652.39 661.232 1652.22 658.942C1651.76 653.904 1643.31 654.528 1640.43 650.364C1638.6 647.658 1639.72 644.035 1639.47 640.787C1638.97 634.833 1633.93 630.419 1631.14 625.131C1624.81 612.639 1631.6 598.148 1638.31 586.072C1638.97 584.865 1639.89 583.491 1641.26 583.324C1643.56 583.116 1644.56 586.197 1644.43 588.487C1643.97 595.441 1640.26 601.854 1639.06 608.766C1637.85 615.678 1639.81 624.298 1646.47 626.463C1649.39 627.462 1653.51 627.587 1654.18 630.627C1654.26 632.233 1653.9 633.831 1653.14 635.249C1652.78 636.658 1652.74 638.127 1653 639.555C1653.27 640.984 1653.84 642.337 1654.68 643.524C1655.52 644.711 1656.61 645.702 1657.86 646.43C1659.12 647.157 1660.52 647.605 1661.97 647.741C1663.56 647.586 1665.16 647.685 1666.72 648.032C1673.59 650.656 1665.3 663.856 1671.43 667.936C1675.59 670.768 1682.47 665.48 1686.22 668.977C1689.96 672.475 1686.22 677.305 1683.67 681.053C1681.1 685.25 1679.77 690.091 1679.83 695.015C1679.9 699.939 1681.36 704.742 1684.05 708.868C1694.39 685.235 1699.71 659.712 1699.67 633.917C1691.63 637.498 1683.26 640.287 1674.68 642.245C1669.04 617.036 1660.89 592.456 1650.35 568.875L1492.04 621.383C1492.41 634.333 1493 647.075 1494.41 646.742Z" fill="white" stroke="#436AE5" stroke-linecap="round" stroke-linejoin="round"/>
<path d="M1232.2 565.959C1250.57 558.18 1269.4 551.506 1288.57 545.972C1288.32 539.06 1297.19 530.441 1299.02 525.152C1301.57 517.657 1299.44 509.496 1299.02 501.584C1298.61 493.673 1301.32 484.304 1308.81 481.722C1310.7 481.332 1312.53 480.717 1314.27 479.89C1315.58 478.71 1316.57 477.226 1317.17 475.57C1317.77 473.914 1317.94 472.137 1317.69 470.396C1317.48 456.072 1310.86 442.622 1304.86 429.589L1295.9 410.268C1294.83 407.598 1293.31 405.133 1291.4 402.981C1290.05 401.701 1288.42 400.746 1286.65 400.191C1284.87 399.635 1282.99 399.493 1281.15 399.775C1277.05 400.728 1273.47 403.198 1271.11 406.687C1268.81 410.155 1266.91 413.87 1265.45 417.763L1259.7 430.671C1259.15 431.736 1258.39 432.672 1257.45 433.414C1256.51 434.156 1255.42 434.687 1254.26 434.971C1253.1 435.256 1251.89 435.287 1250.71 435.062C1249.54 434.837 1248.42 434.362 1247.45 433.669C1245.6 432.119 1244.42 429.908 1244.17 427.506C1243.92 425.104 1244.62 422.7 1246.12 420.803C1248.78 417.555 1253.49 416.264 1255.45 412.475C1257.41 408.685 1256.07 404.938 1256.49 401.107C1257.35 397.172 1258.75 393.375 1260.66 389.823C1263.04 383.622 1263.68 376.889 1262.52 370.349C1261.35 363.81 1258.41 357.715 1254.03 352.721C1252.75 351.567 1251.74 350.145 1251.07 348.557C1250.2 345.559 1252.2 342.603 1253.41 339.73C1254.61 336.857 1254.49 332.568 1251.49 331.735C1249.28 331.11 1246.87 332.859 1244.74 331.985C1243.37 331.402 1242.66 329.944 1241.58 328.945C1240.66 328.193 1239.62 327.615 1238.49 327.238C1232.61 324.907 1226.36 323.624 1220.04 323.449C1216.72 323.593 1213.39 323.27 1210.16 322.491C1205.66 321.033 1202.29 317.327 1198.04 315.245C1191.08 311.831 1181.79 317.203 1178.04 323.324C1175.21 327.946 1176.38 335.358 1181.54 337.023C1182.79 337.44 1184.29 337.523 1185.08 338.605C1185.88 339.688 1184.67 342.769 1182.71 343.269C1180.75 343.769 1178.54 343.686 1176.71 344.393C1172.13 346.101 1171.17 352.18 1171.88 356.885C1172.59 361.591 1174.25 366.837 1172.25 371.293C1171.92 372.12 1171.41 372.867 1170.76 373.485C1170.12 374.102 1169.35 374.575 1168.5 374.874C1165.3 375.79 1162.13 372.917 1161.05 369.794C1160.32 366.56 1159.85 363.274 1159.63 359.967C1159.59 359.413 1159.43 358.875 1159.16 358.392C1158.88 357.909 1158.5 357.494 1158.05 357.177C1155.67 356.094 1154.26 359.8 1153.42 362.299C1151.26 369.003 1142.97 372.042 1140.01 378.455C1138.75 381.96 1138.25 385.694 1138.55 389.406C1138.55 401.898 1136.72 414.765 1136.59 427.465C1135.92 440.228 1138.64 452.941 1144.47 464.316C1148.05 469.56 1151.38 474.98 1154.42 480.556C1158.59 490.3 1157.92 501.376 1156.96 512.161C1156.39 525.363 1154.11 538.436 1150.17 551.052C1147.71 558.05 1143.96 564.531 1139.13 570.165C1170.17 568.593 1200.92 563.48 1230.79 554.925C1230.82 558.646 1231.3 562.35 1232.2 565.959Z" fill="white" stroke="#436AE5" stroke-linecap="round" stroke-linejoin="round"/>
<path d="M1129.01 833.413C1133.76 832.122 1134.8 825.335 1139.26 823.294C1145.68 820.338 1153.34 829.332 1159.55 825.959C1164.17 823.503 1164.26 815.841 1169.13 814.009C1174.71 811.885 1181.92 819.339 1186.25 815.216C1190.59 811.094 1184 800.85 1189.55 798.144C1193.38 796.27 1197.21 801.433 1201.5 801.517C1202.99 801.329 1204.42 800.831 1205.71 800.057C1206.99 799.282 1208.1 798.248 1208.96 797.02C1216.46 788.9 1224.21 780.364 1226.5 769.412C1227.66 763.749 1227.58 757.128 1231.91 753.298C1236.25 749.467 1242.45 750.383 1247.99 749.675C1253.53 748.967 1259.99 744.387 1258.08 739.098C1257.4 737.664 1256.63 736.273 1255.78 734.934C1254.98 732.861 1254.85 730.589 1255.39 728.434C1255.94 726.279 1257.14 724.345 1258.83 722.9L1259.33 722.484C1250.33 670.268 1241.3 618.023 1232.25 565.751C1231.34 562.142 1230.87 558.438 1230.83 554.717C1200.96 563.272 1170.21 568.385 1139.18 569.957C1135.43 574.396 1130.81 578.012 1125.6 580.575C1123.72 581.62 1121.62 582.178 1119.47 582.199C1118.72 582.179 1117.98 582.053 1117.27 581.824C1120.68 627.045 1125.6 672.1 1132.8 716.904C1133.51 720.188 1133.64 723.57 1133.18 726.898C1132.26 731.603 1129.01 735.851 1129.26 740.639C1130.18 744.778 1131.82 748.724 1134.1 752.298C1138.26 761.626 1135.26 772.494 1131.18 781.863C1127.1 791.232 1121.85 800.476 1121.39 810.678C1121.14 816.59 1122.51 822.42 1122.68 828.333C1122.74 829.512 1122.74 830.693 1122.68 831.872C1124.53 833.144 1126.79 833.692 1129.01 833.413Z" fill="white" stroke="#436AE5" stroke-linecap="round" stroke-linejoin="round"/>
<path d="M1397.47 787.734C1394.76 785.944 1391.76 784.278 1389.13 782.529C1381.26 777.116 1376.64 768.288 1372.22 759.794C1368.76 753.09 1365.39 744.804 1369.14 738.349C1363.17 736.902 1357.73 733.782 1353.47 729.355C1349.64 725.191 1345.14 719.695 1339.89 721.818C1336.56 723.192 1335.23 727.315 1332.14 729.147C1325.81 732.978 1316.27 725.399 1310.77 730.355C1309.73 731.312 1308.94 732.645 1307.65 733.228C1304.11 734.852 1301.36 729.897 1298.11 727.815C1293.19 724.65 1286.82 728.189 1280.98 727.815C1273.61 727.815 1266.4 721.402 1259.57 724.233C1259.57 723.609 1259.57 723.026 1259.24 722.443L1258.74 722.859C1257.05 724.304 1255.85 726.238 1255.3 728.393C1254.76 730.548 1254.9 732.819 1255.7 734.893C1256.55 736.232 1257.31 737.623 1257.99 739.057C1259.9 744.346 1253.49 748.968 1247.91 749.634C1242.32 750.3 1236.03 749.634 1231.83 753.257C1227.62 756.879 1227.66 763.708 1226.41 769.371C1224.12 780.156 1216.37 788.859 1208.87 796.978C1208.01 798.207 1206.9 799.241 1205.62 800.016C1204.33 800.79 1202.9 801.288 1201.41 801.476C1197.25 801.476 1193.29 796.229 1189.46 798.103C1183.92 800.809 1190.62 810.928 1186.17 815.175C1181.71 819.422 1174.63 811.844 1169.04 813.967C1164.17 815.8 1164.09 823.461 1159.46 825.918C1153.26 829.291 1145.59 820.297 1139.17 823.253C1134.72 825.294 1133.67 832.081 1128.93 833.372C1126.64 833.776 1124.29 833.3 1122.34 832.039C1122.18 836.77 1120.18 841.252 1116.76 844.531C1116.22 844.917 1115.76 845.397 1115.39 845.947C1113.84 848.695 1118.18 850.819 1119.55 853.525C1121.72 857.231 1118.22 861.853 1114.55 864.019C1110.89 866.184 1106.22 868.474 1105.47 872.68C1104.97 875.053 1105.72 877.677 1104.47 879.717C1102.55 882.84 1097.68 881.882 1094.68 879.717C1091.68 877.552 1088.97 874.512 1085.31 874.304C1083.43 874.365 1081.63 875.007 1080.13 876.141C1078.64 877.275 1077.54 878.845 1076.98 880.633C1075.93 884.186 1075.68 887.923 1076.23 891.584C1076.89 900.995 1077.52 910.364 1078.18 919.775C1086.36 918.156 1094.65 917.209 1102.97 916.943C1118.72 915.527 1133.76 909.989 1148.8 905.325C1207.87 887.17 1270.11 882.382 1330.81 870.515C1333.89 869.932 1336.93 869.224 1340.02 868.557C1343.72 860.646 1349.19 853.692 1356.01 848.237C1361.39 844.073 1367.72 840.45 1371.09 834.538C1373.26 830.748 1374.05 826.21 1376.3 822.587C1381.93 814.925 1393.13 810.761 1394.42 801.309C1395.05 796.729 1393.22 791.024 1396.84 788.109C1397.04 787.97 1397.25 787.845 1397.47 787.734Z" fill="white" stroke="#436AE5" stroke-linecap="round" stroke-linejoin="round"/>
<path d="M1411.09 499.336L1409.18 500.627C1403.05 504.249 1396.01 506.415 1390.6 510.995C1383.35 517.158 1379.85 526.943 1372.18 532.523C1366.18 536.687 1358.56 537.978 1351.6 540.393C1340.81 544.099 1334.02 559.464 1322.73 560.88C1321.66 561.09 1320.55 560.872 1319.64 560.272C1318.73 559.672 1318.09 558.739 1317.86 557.673C1317.86 556.674 1318.19 555.55 1317.86 554.675C1317.58 554.28 1317.21 553.954 1316.78 553.723C1316.36 553.492 1315.88 553.362 1315.4 553.343C1311.32 553.1 1307.23 553.296 1303.19 553.926C1299.11 554.579 1294.93 553.624 1291.53 551.261C1290.73 550.622 1290.08 549.819 1289.62 548.907C1289.16 547.994 1288.9 546.994 1288.86 545.973C1269.72 551.517 1250.91 558.177 1232.54 565.918C1241.65 618.662 1250.79 671.503 1259.95 724.441C1266.78 721.61 1273.99 727.856 1281.36 728.022C1287.2 728.022 1293.57 724.65 1298.49 728.022C1301.74 730.104 1304.49 735.059 1308.03 733.436C1309.32 732.853 1310.11 731.52 1311.15 730.562C1316.65 725.607 1326.19 733.186 1332.52 729.355C1335.61 727.523 1336.94 723.4 1340.27 722.026C1345.4 719.903 1350.02 725.524 1353.85 729.563C1358.11 733.99 1363.55 737.11 1369.52 738.557C1369.52 738.557 1369.52 738.266 1369.52 738.141C1372.14 733.977 1377.1 732.02 1379.89 728.022C1382.68 724.025 1381.26 680.886 1390.8 702.122C1397.3 698.208 1397.97 689.172 1397.51 681.636C1397.05 674.099 1396.76 665.313 1402.39 660.274C1402.98 659.655 1403.78 659.271 1404.64 659.192C1407.43 659.192 1407.84 664.188 1410.59 664.522C1416.91 658.544 1420.88 650.512 1421.8 641.869C1424.72 625.963 1423.88 609.598 1425.97 593.567C1426.59 588.014 1427.69 582.525 1429.26 577.161C1423.12 551.122 1417.06 525.18 1411.09 499.336Z" fill="white" stroke="#436AE5" stroke-linecap="round" stroke-linejoin="round"/>
<path d="M1569.4 618.218C1567.71 616.875 1566.3 615.221 1565.23 613.346C1563.79 611.853 1562.01 610.725 1560.04 610.057C1558.07 609.389 1555.97 609.2 1553.91 609.506C1551.86 609.811 1549.9 610.602 1548.21 611.813C1546.52 613.024 1545.15 614.62 1544.2 616.469C1542.9 619.592 1542.45 623.714 1539.32 624.797C1536.2 625.88 1532.61 623.131 1529.07 622.507C1524.32 621.674 1520.07 625.338 1516.58 628.711C1512.12 633.125 1505.45 635.332 1501.87 640.037C1499.83 642.702 1497.7 645.867 1494.54 646.575C1493 646.908 1492.41 634.083 1492.16 620.924L1443.13 637.122C1439.24 620.466 1435.34 603.741 1431.42 586.946L1429.05 576.786C1427.48 582.15 1426.38 587.639 1425.76 593.192C1423.8 609.224 1424.63 625.588 1421.59 641.495C1420.67 650.138 1416.7 658.17 1410.38 664.147C1407.63 663.814 1407.22 658.817 1404.43 658.817C1403.57 658.896 1402.77 659.281 1402.18 659.899C1396.55 664.938 1396.89 673.682 1397.3 681.261C1397.72 688.839 1397.09 697.917 1390.6 701.748C1381.06 680.511 1382.26 723.9 1379.68 727.648C1377.1 731.395 1371.93 733.685 1369.31 737.766C1365.14 744.262 1368.68 752.756 1372.18 759.627C1376.35 767.955 1381.22 776.949 1389.1 782.362C1391.64 784.111 1394.64 785.777 1397.43 787.567C1398.64 786.991 1399.99 786.745 1401.32 786.855C1402.66 786.965 1403.95 787.426 1405.05 788.192C1407.37 790.01 1409.38 792.19 1411.01 794.646C1413.83 798.261 1417.09 801.506 1420.72 804.307C1423.84 806.763 1428.55 808.804 1431.42 806.139C1434.3 803.474 1432.55 797.103 1435.59 794.105C1437.67 792.189 1440.92 792.564 1443.92 792.231C1453.42 791.024 1459.67 780.697 1468.92 779.198C1473.33 778.532 1478.83 779.489 1481.41 775.867C1482.43 774.222 1482.88 772.294 1482.71 770.37C1482.5 762.042 1478.25 754.047 1479.08 745.761C1480 740.321 1482.02 735.123 1485 730.479C1490.12 721.235 1495.2 711.949 1500.33 702.664C1502.49 698.749 1505.24 694.336 1509.66 693.586C1511.56 693.525 1513.45 693.358 1515.33 693.086C1522.16 690.963 1519.82 679.97 1524.57 674.598C1526.3 672.978 1528.21 671.579 1530.28 670.434C1541.24 662.856 1540.95 646.908 1545.57 634.416C1547.07 630.252 1550.44 626.088 1554.61 626.962C1558.78 627.837 1561.07 633.458 1564.98 632.459C1567.36 631.834 1568.4 629.128 1569.15 626.754L1571.52 618.426C1570.81 618.473 1570.09 618.403 1569.4 618.218Z" fill="white" stroke="#436AE5" stroke-linecap="round" stroke-linejoin="round"/>
<path d="M1686.05 742.138C1684.42 740.583 1682.39 739.498 1680.19 739C1677.99 738.501 1675.7 738.607 1673.55 739.307C1669.3 740.767 1664.92 741.827 1660.47 742.472C1658.23 742.726 1655.98 742.168 1654.12 740.899C1652.26 739.63 1650.92 737.734 1650.35 735.559C1650.24 734.681 1650.42 733.791 1650.85 733.019C1653.22 729.272 1659.18 734.602 1663.35 733.019C1664.01 732.649 1664.6 732.146 1665.07 731.543C1665.54 730.939 1665.88 730.247 1666.08 729.508C1666.27 728.769 1666.31 727.998 1666.2 727.242C1666.09 726.485 1665.83 725.759 1665.43 725.108C1663.65 722.561 1661.28 720.488 1658.51 719.07C1655.76 717.279 1652.93 713.449 1655.31 711.2C1656.18 710.409 1657.43 710.201 1658.39 709.493C1661.14 707.369 1659.1 702.664 1656.01 701.165C1652.93 699.666 1649.18 699.832 1646.02 698.5C1642.85 697.167 1640.35 692.795 1642.77 690.172C1646.35 686.424 1652.89 693.087 1657.47 690.713C1662.05 688.34 1659.14 681.719 1655.43 678.554C1651.72 675.39 1646.81 671.559 1648.22 666.895C1648.55 665.977 1649.03 665.119 1649.64 664.355C1646.2 663.645 1642.64 663.979 1639.39 665.313C1635.52 666.978 1632.1 670.143 1627.85 670.476C1624.39 670.768 1621.02 669.144 1617.56 669.352C1614.86 669.904 1612.19 670.599 1609.56 671.434C1608.24 671.841 1606.81 671.801 1605.51 671.319C1604.21 670.837 1603.1 669.941 1602.36 668.769C1601.85 667.207 1601.95 665.51 1602.65 664.022C1604.59 660.089 1606.78 656.279 1609.19 652.613C1610.38 650.748 1611.02 648.581 1611.02 646.367C1611.02 644.152 1610.38 641.985 1609.19 640.121C1605.27 635.665 1597.56 637.414 1592.52 633.916C1586.98 629.752 1586.48 620.175 1580.03 618.551C1577.25 618.358 1574.47 618.358 1571.69 618.551L1569.32 626.879C1568.61 629.253 1567.57 631.959 1565.15 632.584C1561.24 633.583 1558.7 628.045 1554.78 627.087C1550.86 626.13 1547.24 630.543 1545.74 634.541C1541.12 647.033 1541.57 662.981 1530.45 670.559C1528.38 671.704 1526.46 673.103 1524.74 674.723C1519.99 680.095 1522.33 691.088 1515.49 693.212C1513.62 693.483 1511.73 693.65 1509.83 693.711C1505.41 694.544 1502.66 698.875 1500.5 702.789C1495.37 712.074 1490.29 721.36 1485.17 730.604C1482.19 735.248 1480.17 740.446 1479.25 745.886C1478.42 754.214 1482.67 762.167 1482.87 770.495C1483.05 772.419 1482.6 774.347 1481.58 775.992C1479 779.614 1473.5 778.657 1469.09 779.323C1459.63 780.822 1453.38 791.149 1444.09 792.356C1441.3 792.689 1438.05 792.356 1435.76 794.23C1432.59 797.228 1434.67 803.307 1431.59 806.264C1428.51 809.22 1424.01 806.889 1420.89 804.432C1417.26 801.631 1414 798.386 1411.18 794.771C1409.55 792.315 1407.54 790.135 1405.22 788.317C1404.03 787.418 1402.59 786.911 1401.09 786.866C1399.6 786.821 1398.13 787.241 1396.89 788.067C1393.26 790.982 1395.1 796.687 1394.47 801.267C1393.22 810.594 1381.97 814.675 1376.93 822.712C1374.68 826.418 1373.89 831.04 1371.73 834.662C1368.35 840.575 1362.02 844.115 1356.65 848.362C1349.82 853.817 1344.35 860.77 1340.65 868.682C1404.93 855.357 1467.42 834.537 1529.7 813.676L1692.67 759.044C1692.95 758.307 1693.18 757.557 1693.38 756.796C1695.09 750.05 1692.88 743.388 1686.05 742.138Z" fill="white" stroke="#436AE5" stroke-linecap="round" stroke-linejoin="round"/>
<path d="M1559.36 934.473C1547.4 926.978 1545.2 924.688 1532.74 931.6C1522.96 936.526 1512.5 939.965 1501.7 941.802C1499.6 942.531 1497.31 942.531 1495.2 941.802C1492.58 940.594 1491.5 937.638 1489.75 935.306C1484.54 928.685 1474.5 929.435 1466.25 930.767L1431.67 936.388C1421.74 937.452 1412.08 940.271 1403.14 944.716C1397.68 947.798 1392.89 952.045 1387.35 955.043C1383.48 956.999 1379.41 958.548 1375.22 959.665C1374.05 962.541 1373.23 965.547 1372.77 968.618C1372.23 971.591 1372.4 974.65 1373.27 977.544C1374.14 980.438 1375.68 983.087 1377.77 985.274C1381.93 989.438 1388.64 990.312 1393.51 993.81C1403.76 1001.22 1402.43 1011.76 1415.13 1017.21C1424.38 1021.38 1436.88 1022.29 1444.55 1029.29C1450.42 1034.66 1451.75 1044.4 1458.42 1048.9C1461.56 1050.41 1464.88 1051.52 1468.29 1052.19C1471.36 1053.33 1474.04 1055.31 1476.04 1057.9C1478.04 1060.49 1479.26 1063.59 1479.58 1066.85C1479.92 1071.26 1478.58 1075.92 1480.29 1080C1482.5 1085.33 1488.62 1087.46 1493.16 1091.16C1497.11 1095.04 1500.35 1099.58 1502.75 1104.57C1505.15 1109.58 1509.05 1113.71 1513.91 1116.4H1514.24C1514.53 1115.03 1514.63 1113.63 1514.54 1112.23C1514.25 1110.42 1514.39 1108.57 1514.95 1106.82C1515.53 1105.49 1516.7 1104.49 1517.2 1103.16C1518.16 1100.74 1516.78 1098.08 1515.99 1095.62C1515.2 1093.16 1515.62 1089.62 1518.12 1089C1520.62 1088.37 1522.28 1090.37 1524.49 1089.67C1526.7 1088.96 1526.66 1084.88 1528.03 1082.54C1530.37 1078.63 1536.36 1079.96 1540.28 1077.55C1542.99 1075.8 1544.07 1072.43 1546.03 1069.84C1549.86 1064.81 1556.99 1062.81 1560.07 1057.35C1560.91 1055.56 1561.6 1053.69 1562.11 1051.77C1563.07 1048.96 1564.48 1046.31 1566.28 1043.94C1570.98 1037.45 1579.32 1032.74 1580.11 1024.75C1580.05 1022.81 1580.2 1020.87 1580.57 1018.96C1581.32 1017.12 1582.42 1015.43 1583.82 1014.01C1594.23 1000.93 1594.27 980.693 1608.44 971.824C1608.84 971.078 1609.29 970.356 1609.77 969.659C1593.62 957.017 1576.8 945.27 1559.36 934.473Z" fill="white" stroke="#436AE5" stroke-linecap="round" stroke-linejoin="round"/>
<path d="M1141.47 1035.62C1141.72 1029.78 1140.93 1023.94 1139.13 1018.38C1137.59 1014.86 1135.67 1011.52 1133.39 1008.43C1123.87 1011.47 1114.12 1013.68 1104.22 1015.05L1034.94 1026.41C1029.11 1041.18 1022.58 1055.65 1015.36 1069.8C1008.7 1082.71 1001.37 1095.58 998.699 1109.86C993.575 1136.18 1004.03 1162.12 1007.03 1188.02C1010.28 1216.71 996.575 1241.73 991.242 1269.47C989.91 1273.58 990.209 1278.05 992.076 1281.96C995.367 1287.12 1003.03 1287.37 1008.74 1285.08C1014.45 1282.79 1019.32 1278.71 1025.15 1276.75C1035.69 1273.34 1047.4 1277.88 1058.23 1275.5C1063.15 1274.42 1067.69 1271.96 1072.65 1271.34C1075.1 1270.73 1077.68 1270.94 1080 1271.93C1082.33 1272.93 1084.26 1274.65 1085.52 1276.84C1087.27 1281 1084.94 1285.96 1085.52 1290.58C1086.02 1296.49 1090.85 1300.95 1093.85 1305.94C1095.93 1309.21 1097.35 1312.87 1098.02 1316.69C1102.69 1316.71 1107.31 1315.72 1111.56 1313.77C1115.76 1311.17 1119.78 1308.29 1123.6 1305.15C1127.77 1302.18 1132.94 1300.94 1138.01 1301.7C1143.99 1303.02 1150.24 1302.1 1155.59 1299.11C1153.99 1292.69 1152.74 1286.18 1151.84 1279.63C1139.38 1199.05 1142.38 1117.19 1141.47 1035.62Z" fill="white" stroke="#436AE5" stroke-linecap="round" stroke-linejoin="round"/>
<path d="M1312.9 1176.94C1311.11 1168.36 1308.73 1158.37 1314.53 1151.75C1316.77 1149.17 1320.27 1146.71 1319.52 1143.42C1319.01 1141.84 1318 1140.47 1316.65 1139.51C1311.01 1134.66 1306.19 1128.94 1302.36 1122.56C1299.17 1116.23 1296.74 1109.55 1295.11 1102.66C1284.45 1064.49 1273.77 1026.3 1263.08 988.105C1245.24 992.436 1227.4 996.6 1209.54 1000.6C1197.42 1003.35 1184.92 1006.09 1172.71 1003.93C1165.88 1002.68 1159.05 999.973 1152.22 1001.06C1147.86 1002.15 1143.66 1003.8 1139.72 1005.97C1137.72 1006.89 1135.55 1007.68 1133.55 1008.43C1135.83 1011.52 1137.76 1014.86 1139.3 1018.38C1141.1 1023.94 1141.89 1029.78 1141.64 1035.62C1142.55 1117.06 1139.55 1198.93 1151.47 1279.5C1152.37 1286.06 1153.62 1292.57 1155.22 1298.99C1159.88 1296.49 1164.17 1292.95 1169.72 1289.91C1179.46 1284.54 1182.8 1297.57 1193 1298.57C1195.46 1298.8 1197.94 1298.6 1200.34 1297.99C1200.34 1290.62 1202.46 1282.71 1198.71 1276.38C1196.92 1273.42 1193.96 1271.13 1193 1267.84C1191 1261.01 1198.29 1255.35 1204.92 1252.6C1212.49 1249.86 1220.26 1247.72 1228.16 1246.19L1300.53 1230.37C1304.98 1229.17 1309.59 1228.66 1314.19 1228.87C1316.98 1211.63 1316.54 1194.02 1312.9 1176.94Z" fill="white" stroke="#436AE5" stroke-linecap="round" stroke-linejoin="round"/>
<path d="M1502.74 1104.2C1500.35 1099.21 1497.11 1094.67 1493.16 1090.79C1488.74 1087.08 1482.5 1084.96 1480.29 1079.63C1478.58 1075.47 1479.91 1070.89 1479.58 1066.47C1479.26 1063.22 1478.03 1060.12 1476.04 1057.52C1474.04 1054.93 1471.36 1052.95 1468.29 1051.81C1464.87 1051.14 1461.55 1050.04 1458.42 1048.53C1451.75 1044.03 1450.42 1034.28 1444.54 1028.91C1436.88 1021.92 1424.38 1020.83 1415.13 1016.84C1402.42 1011.38 1403.76 1000.85 1393.51 993.436C1388.64 989.938 1382.14 988.98 1377.76 984.9C1375.68 982.712 1374.14 980.064 1373.27 977.17C1372.4 974.276 1372.23 971.217 1372.76 968.244C1373.22 965.172 1374.05 962.167 1375.22 959.291L1371.06 960.498C1335.23 970.076 1299.3 979.209 1263.28 987.898C1273.95 1026.1 1284.62 1064.28 1295.32 1102.45C1296.94 1109.34 1299.38 1116.03 1302.57 1122.35C1306.39 1128.73 1311.22 1134.45 1316.86 1139.3C1318.21 1140.27 1319.21 1141.64 1319.73 1143.21C1320.48 1146.55 1316.98 1149 1314.73 1151.54C1309.02 1158.16 1311.31 1168.2 1313.11 1176.73C1316.71 1193.86 1317.09 1211.52 1314.23 1228.78H1315.15C1323.48 1229.87 1330.1 1235.57 1337.89 1238.2C1347.18 1241.36 1357.31 1240.03 1367.06 1238.69L1447.42 1227.45C1452.54 1226.74 1458.29 1226.16 1462.46 1229.28C1465.29 1231.37 1468 1235.24 1471.29 1233.95C1472.22 1233.4 1472.99 1232.62 1473.51 1231.67C1474.03 1230.73 1474.29 1229.66 1474.25 1228.58C1474.62 1224.12 1473.46 1219.62 1473.66 1215.13C1473.58 1212.87 1474.22 1210.65 1475.47 1208.77C1476.73 1206.89 1478.54 1205.46 1480.66 1204.68C1482.93 1204.39 1485.23 1204.59 1487.41 1205.26C1493.83 1206.52 1500.44 1206.45 1506.82 1205.05C1506.82 1203.13 1506.41 1201.22 1506.12 1199.35C1503.75 1183.32 1503.48 1167.05 1505.32 1150.96C1505.73 1142.97 1507.13 1135.07 1509.49 1127.43C1511.49 1123.75 1513.14 1119.89 1514.41 1115.9H1514.07C1509.17 1113.27 1505.21 1109.18 1502.74 1104.2Z" fill="white" stroke="#436AE5" stroke-linecap="round" stroke-linejoin="round"/>
<path d="M1341.73 938.512C1347.14 933.682 1349.6 926.353 1354.23 920.981C1360.14 914.402 1369.31 910.988 1373.85 903.451C1377.64 897.205 1378.81 887.919 1385.85 886.004C1388.52 885.691 1391.2 885.524 1393.89 885.504C1400.72 884.422 1404.63 877.176 1410.55 873.762C1413.26 872.221 1416.42 871.555 1418.88 869.848C1421.18 868.188 1423.06 866.004 1424.35 863.477C1425.64 860.95 1426.31 858.152 1426.3 855.315C1426.38 852.519 1426.13 849.723 1425.55 846.987C1394.3 856.19 1362.77 864.434 1330.81 870.68C1270.12 882.548 1207.88 887.336 1148.8 905.491C1133.64 910.155 1118.6 915.693 1102.98 917.109C1089.27 918.358 1073.06 917.442 1064.52 928.227C1060.92 933.704 1058.67 939.953 1057.94 946.465C1052.48 973.794 1044.62 1000.59 1034.45 1026.54L1103.73 1015.17C1115.87 1013.7 1127.78 1010.65 1139.14 1006.09C1143.07 1003.92 1147.27 1002.27 1151.63 1001.18C1158.47 1000.1 1165.3 1002.8 1172.13 1004.05C1184.34 1006.22 1196.84 1003.47 1208.96 1000.72C1243.7 992.755 1278.32 984.427 1312.82 975.738C1313.02 967.41 1313.69 957.999 1319.48 951.837C1325.27 945.674 1335.35 944.008 1341.73 938.512Z" fill="white" stroke="#436AE5" stroke-linecap="round" stroke-linejoin="round"/>
<path d="M1716.13 799.31C1715.71 796.187 1713.67 792.273 1710.67 793.147C1709 793.605 1708.13 795.354 1707.34 796.895C1705.17 801.059 1701.42 805.431 1696.71 804.973C1693.51 804.682 1690.88 802.266 1687.8 801.35C1677.84 798.311 1678.01 808.762 1671.59 809.887C1665.18 811.011 1662.64 800.226 1663.26 795.438C1665.3 781.696 1671.09 802.6 1677.38 791.274C1679.92 786.818 1683.55 790.691 1686.51 789.067C1689.46 787.443 1689.21 782.779 1692.3 780.988C1693.59 780.239 1695.26 780.447 1696.46 779.823C1699.59 778.324 1698.88 773.535 1696.84 770.745C1694.8 767.955 1691.84 765.332 1691.84 761.876C1691.87 760.883 1692.06 759.9 1692.38 758.961L1529.41 813.593C1495.04 825.085 1460.63 836.578 1425.88 846.904C1426.46 849.641 1426.72 852.436 1426.63 855.232C1426.64 858.069 1425.97 860.867 1424.68 863.394C1423.39 865.921 1421.52 868.105 1419.22 869.765C1416.55 871.472 1413.38 872.138 1410.89 873.679C1404.84 877.01 1400.93 884.339 1394.22 885.421C1391.53 885.441 1388.85 885.608 1386.18 885.921C1379.14 887.836 1377.85 897.122 1374.18 903.368C1369.64 910.905 1360.48 914.32 1354.56 920.899C1349.73 926.27 1347.27 933.391 1342.06 938.429C1335.69 944.05 1326.23 945.424 1320.4 951.629C1314.57 957.833 1313.94 966.994 1313.73 975.53C1332.93 970.672 1352.08 965.689 1371.18 960.582C1376.94 959.266 1382.53 957.31 1387.85 954.752C1393.39 951.754 1398.18 947.507 1403.64 944.425C1412.58 939.98 1422.24 937.16 1432.17 936.097L1466.75 930.476C1475.08 929.143 1485.04 928.394 1490.25 935.015C1492 937.263 1493.08 940.303 1495.7 941.51C1497.81 942.24 1500.1 942.24 1502.2 941.51C1512.82 939.692 1523.11 936.325 1532.74 931.517C1545.24 924.605 1547.4 926.895 1559.36 934.39C1576.65 945.146 1593.34 956.836 1609.35 969.409C1612.33 964.634 1616.51 960.727 1621.48 958.083C1625.18 956.126 1629.27 954.96 1633.02 953.086C1636.92 951.48 1640.11 948.524 1642.01 944.758C1642.87 942.138 1643.42 939.427 1643.64 936.68C1645.64 923.813 1654.72 910.738 1662.18 900.287C1664.73 896.359 1668.14 893.063 1672.15 890.646C1676.16 888.23 1680.67 886.756 1685.34 886.337C1687.36 886.408 1689.38 886.31 1691.38 886.046C1692.39 885.909 1693.35 885.51 1694.16 884.89C1694.97 884.269 1695.61 883.448 1696.01 882.507C1696.28 881.277 1696.4 880.019 1696.38 878.759C1696.63 876.177 1698.09 873.887 1698.46 871.306C1698.84 868.724 1699.71 868.224 1697.34 867.142C1693.17 865.268 1688.34 868.099 1684.84 871.097C1681.34 874.095 1677.72 877.676 1673.13 877.385C1668.55 877.093 1665.01 870.181 1668.97 867.974C1670.29 867.431 1671.71 867.19 1673.13 867.266C1675.23 867.297 1677.3 866.821 1679.17 865.878C1681.04 864.936 1682.66 863.555 1683.88 861.853C1684.43 860.979 1684.77 859.997 1684.9 858.975C1685.02 857.953 1684.92 856.917 1684.6 855.938C1684.29 854.959 1683.76 854.061 1683.06 853.306C1682.36 852.551 1681.5 851.958 1680.55 851.568C1678.06 851.378 1675.57 851.561 1673.13 852.109C1670.63 852.109 1667.59 850.527 1668.09 847.945C1669.09 842.907 1680.38 847.446 1680.59 842.324C1680.54 841.451 1680.34 840.592 1680.01 839.784C1679.8 838.378 1679.99 836.942 1680.56 835.639C1681.13 834.336 1682.05 833.22 1683.22 832.416C1684.39 831.613 1685.77 831.156 1687.19 831.096C1688.61 831.037 1690.02 831.378 1691.26 832.081C1692.96 833.371 1694.09 835.453 1695.96 836.494C1700.13 838.66 1704.75 835.162 1707.5 831.498C1714.37 822.255 1717.45 810.745 1716.13 799.31Z" fill="white" stroke="#436AE5" stroke-linecap="round" stroke-linejoin="round"/>
<path d="M958.958 313.955C961.186 316.183 964.146 317.529 967.29 317.745C976.997 319.452 987.078 319.077 996.66 321.367C1004.99 323.366 1012.78 327.363 1021.03 329.903C1030.93 332.983 1041.36 333.947 1051.65 332.735C1051.42 334.915 1052.03 337.101 1053.35 338.85C1054.67 340.598 1056.61 341.777 1058.77 342.146C1060.3 342.143 1061.81 342.353 1063.27 342.77C1066.52 344.227 1066.48 348.766 1066.65 352.347C1066.87 356.193 1067.9 359.948 1069.69 363.36C1071.48 366.771 1073.98 369.761 1077.02 372.126C1076.77 370.358 1076.77 368.564 1077.02 366.796C1078.11 361.3 1083.19 357.677 1086.77 353.388C1089.17 350.407 1090.92 346.951 1091.89 343.247C1092.85 339.544 1093.03 335.677 1092.39 331.902C1092.14 328.987 1091.77 323.574 1095.98 325.24C1100.18 326.905 1102.06 340.397 1107.18 329.404C1108.06 327.447 1113.64 325.24 1115.52 326.989C1117.39 328.737 1114.43 334.692 1114.31 337.274C1118.77 337.94 1122.64 333.859 1124.47 329.778C1125.86 325.477 1128.23 321.557 1131.39 318.327C1134.97 315.663 1139.72 315.579 1143.68 313.206C1148.22 310.374 1150.26 304.878 1154.51 301.422C1162.34 295.301 1173.71 299.506 1182.55 304.128C1185.3 305.544 1189.46 306.502 1190.88 303.712C1191.63 301.921 1190.42 299.881 1190.59 297.924C1191.09 292.969 1198.5 293.427 1203.08 295.384C1207.67 297.341 1215.21 297.549 1215.58 292.594C1209.17 283.183 1199.5 272.524 1188.59 275.688C1185.17 276.688 1176.76 284.016 1173.38 283.058C1172.75 282.736 1172.23 282.247 1171.86 281.644C1171.49 281.042 1171.3 280.35 1171.3 279.644C1171.31 278.235 1171.12 276.831 1170.71 275.48C1169.38 272.565 1165.17 271.982 1163.8 269.109C1162.42 266.236 1167.13 258.866 1163.05 257.408C1161.78 257.139 1160.45 257.363 1159.34 258.033L1130.18 270.816C1126.21 272.312 1122.5 274.451 1119.22 277.146C1116.43 279.686 1114.43 283.058 1111.52 285.474C1106.43 289.638 1102.89 290.762 1097.14 287.472C1092.16 289.384 1086.75 289.91 1081.49 288.993C1076.23 288.077 1071.32 285.752 1067.27 282.267C1064.27 279.024 1061.07 275.965 1057.69 273.106C1055.42 271.494 1052.79 270.464 1050.03 270.108C1047.27 269.752 1044.46 270.081 1041.86 271.066C1038.44 272.648 1035.53 277.853 1031.03 274.481C1026.53 271.108 1028.82 264.071 1031.24 260.781C1035.36 256.409 1040.03 252.6 1045.15 249.455C1049.86 245.749 1053.98 240.003 1052.57 234.173C1040.44 232.882 1028.99 240.128 1020.24 248.622C1011.49 257.117 1004.12 267.194 994.036 274.064C992.135 275.058 990.494 276.485 989.245 278.228C988.245 280.102 988.245 282.392 986.787 284.058C985.329 285.723 982.204 285.765 979.705 286.265C969.206 288.263 965.54 298.424 956.875 302.921C956.875 304.211 956.875 305.461 956.875 306.752C956.881 309.3 957.603 311.796 958.958 313.955Z" fill="white" stroke="#436AE5" stroke-linecap="round" stroke-linejoin="round"/>
<path d="M1093.02 535.021C1093.02 528.775 1094.81 522.529 1093.02 516.45C1091.95 513.806 1090.64 511.268 1089.1 508.871C1085.85 502.942 1083.9 496.385 1083.39 489.641C1082.88 482.897 1083.82 476.123 1086.14 469.771C1088.35 465.669 1089.44 461.06 1089.31 456.405C1088.93 454.156 1087.77 452.241 1087.43 449.826C1086.35 442.581 1093.52 436.459 1093.81 429.006C1093.66 426.213 1093.34 423.432 1092.85 420.678C1092.97 414.524 1094.39 408.464 1097.02 402.898C1098.68 398.151 1107.39 371.085 1097.93 371.21C1093.77 371.21 1090.64 375.374 1088.81 379.121C1083.89 389.49 1082.89 401.69 1076.31 411.017C1074.06 414.14 1069.56 416.972 1066.65 414.432C1066.02 413.775 1065.54 412.994 1065.24 412.14C1064.94 411.287 1064.82 410.379 1064.9 409.477C1064.9 397.693 1077.39 388.657 1077.39 376.998C1077.38 375.269 1077.24 373.543 1076.98 371.834C1073.94 369.469 1071.44 366.479 1069.65 363.068C1067.86 359.656 1066.82 355.901 1066.6 352.055C1066.6 348.474 1066.6 343.936 1063.23 342.478C1061.77 342.061 1060.25 341.851 1058.73 341.854C1056.57 341.485 1054.63 340.306 1053.3 338.558C1051.98 336.81 1051.37 334.623 1051.61 332.443C1041.31 333.655 1030.88 332.691 1020.99 329.611C1012.65 327.071 1004.99 323.074 996.616 321.075C987.034 318.785 976.952 319.16 967.245 317.453C964.101 317.237 961.141 315.891 958.913 313.663C957.455 311.535 956.632 309.037 956.539 306.46C956.539 305.169 956.539 303.92 956.539 302.629C955.214 303.321 953.817 303.865 952.373 304.253C947.499 305.544 933.751 308.125 931.21 302.545C929.252 298.381 936.792 292.76 933.417 287.555C931.293 284.224 926.169 286.431 922.919 288.679C914.343 294.719 904.808 299.266 894.715 302.129C891.666 303.344 888.267 303.344 885.217 302.129L880.801 305.502C876.635 308.625 872.469 312.289 871.803 317.328C871.787 320.563 872.337 323.776 873.427 326.822C876.094 338.481 870.553 347.642 863.846 356.636C858.888 363.215 847.64 373.084 852.264 382.286C855.222 388.199 863.846 390.364 865.22 396.86C866.845 404.688 856.472 410.101 855.305 418.013C854.014 426.799 864.22 432.67 872.969 434.377C881.718 436.085 892.049 437.167 896.465 444.871C898.173 447.786 898.673 451.283 900.256 454.281C907.255 467.481 930.21 464.525 936.917 477.85C938.586 481.997 939.312 486.463 939.042 490.924C939.467 507.064 941.66 523.107 945.582 538.769C947.54 546.555 951.831 555.758 959.872 555.924C962.454 555.924 965.287 554.967 967.579 556.258C968.727 556.945 969.609 558.002 970.078 559.256C1010.07 548.429 1052.81 548.429 1093.43 540.101C1093.18 538.419 1093.04 536.722 1093.02 535.021Z" fill="white" stroke="#436AE5" stroke-linecap="round" stroke-linejoin="round"/>
<path d="M1133.97 752.465C1131.69 748.891 1130.05 744.945 1129.14 740.806C1128.93 736.017 1132.14 731.77 1133.05 727.065C1133.51 723.737 1133.39 720.355 1132.68 717.071C1125.64 672.267 1120.56 627.212 1117.14 581.991C1116.05 581.663 1115 581.201 1114.01 580.617C1106.39 576.12 1102.64 567.376 1099.35 559.214C1096.64 553.141 1094.65 546.767 1093.43 540.227C1052.61 548.555 1010.11 548.555 970.038 559.298C970.58 560.547 970.955 561.921 971.413 563.212C974.829 572.997 985.077 578.744 990.118 587.821C991.765 591.144 992.714 594.768 992.91 598.471C993.105 602.173 992.542 605.877 991.255 609.355C989.968 612.832 987.984 616.01 985.424 618.695C982.865 621.379 979.784 623.512 976.37 624.964C968.247 627.962 956.082 630.21 957.207 638.788C957.629 640.718 958.346 642.572 959.332 644.285C967.872 663.481 947.958 683.176 945.167 703.996C944.434 709.715 945.014 715.525 946.862 720.987C948.71 726.448 951.777 731.418 955.832 735.518C961.165 740.848 968.038 744.47 973.746 749.467C978.798 753.955 982.848 759.456 985.632 765.611C988.417 771.766 989.875 778.439 989.91 785.194C996.451 781.03 1005.7 777.241 1011.03 782.779C1017.36 789.275 1010.32 799.851 1010.53 808.929C1010.95 827.292 1038.82 831.456 1046.69 848.029C1051.44 858.064 1048.19 871.472 1055.86 879.467C1061.11 884.88 1069.65 885.755 1076.44 888.794C1076.23 886.079 1076.55 883.348 1077.4 880.758C1077.96 878.969 1079.06 877.4 1080.55 876.266C1082.04 875.132 1083.85 874.49 1085.73 874.429C1089.39 874.637 1092.14 877.718 1095.1 879.842C1098.06 881.965 1102.97 882.965 1104.89 879.842C1106.14 877.801 1105.39 875.178 1105.89 872.805C1106.81 868.641 1111.31 866.434 1114.97 864.144C1118.64 861.853 1122.14 857.356 1119.97 853.65C1118.39 850.944 1114.06 848.82 1115.81 846.072C1116.18 845.521 1116.64 845.042 1117.18 844.656C1119.26 842.548 1120.85 840.007 1121.84 837.214C1122.82 834.422 1123.18 831.447 1122.89 828.5C1122.89 822.587 1121.35 816.757 1121.6 810.844C1122.06 800.643 1127.3 791.399 1131.39 782.03C1135.47 772.661 1138.09 761.834 1133.97 752.465Z" fill="white" stroke="#436AE5" stroke-linecap="round" stroke-linejoin="round"/>
<path d="M939.002 491.008C939.272 486.546 938.547 482.08 936.877 477.933C930.17 464.608 907.215 467.564 900.217 454.365C898.633 451.366 898.133 447.869 896.425 444.954C892.01 437.25 881.636 436.168 872.929 434.461C864.222 432.753 853.974 426.882 855.265 418.096C856.432 410.185 866.805 404.771 865.181 396.943C863.806 390.447 855.182 388.282 852.224 382.369C847.6 373.167 858.848 363.298 863.806 356.719C870.513 347.808 876.054 338.564 873.388 326.905C872.297 323.859 871.747 320.646 871.763 317.411C872.346 312.372 876.72 308.708 880.761 305.585L885.177 302.212C884.409 301.763 883.776 301.116 883.344 300.338L920.338 252.786C923.622 248.07 927.58 243.861 932.086 240.294C938.142 236.73 944.449 233.612 950.958 230.966C957.165 227.76 964.456 222.638 965.373 215.601C962.081 207.898 951.208 207.69 943.043 209.605C934.878 211.52 925.129 213.769 918.922 208.231C917.339 206.774 916.047 204.775 913.964 204.067C909.798 202.734 906.549 206.982 904.008 210.355C901.466 213.727 896.217 216.767 893.509 213.519C891.843 211.52 892.343 208.064 890.176 206.607C888.01 205.15 886.01 206.607 883.511 206.607C878.637 206.982 874.846 202.443 870.596 200.153C866.347 197.863 858.765 199.112 859.431 203.984L851.558 184.538C851.016 183.164 850.225 181.54 848.725 181.29C848.159 181.264 847.593 181.355 847.063 181.555C846.533 181.756 846.05 182.062 845.642 182.456C839.351 187.369 833.144 196.405 825.812 192.824C822.688 191.283 820.188 187.411 816.855 188.327C814.355 189.035 813.314 192.116 811.023 193.324C806.19 195.905 802.024 188.868 797.108 186.37C792.193 183.872 786.527 186.12 781.194 187.244C766.03 190.409 761.614 171.338 759.573 159.929C759.031 156.889 758.365 153.308 755.407 151.934C753.814 151.457 752.103 151.559 750.578 152.222C749.053 152.885 747.812 154.066 747.075 155.556C745.708 158.582 744.512 161.683 743.492 164.842C735.16 182.747 702.291 177.875 686.71 177.959C679.003 177.959 671.254 177.959 663.547 177.959C665.595 181.097 667.325 184.43 668.713 187.911C671.171 195.156 667.38 200.403 667.463 207.065C667.463 211.229 670.171 213.269 671.254 217.142C672.92 223.138 669.796 228.551 670.296 234.589C670.796 240.627 674.837 246.748 677.878 252.286C685.677 266.615 689.287 282.849 688.293 299.131C687.552 304.748 687.37 310.425 687.751 316.078C688.896 321.712 690.627 327.211 692.917 332.484C697.987 346.339 699.963 361.133 698.708 375.832C698.041 383.202 696.75 391.28 700.749 397.484C702.582 400.316 705.373 402.481 707.123 405.354C709.149 409.434 710.096 413.964 709.873 418.513L713.372 512.119C713.372 515.742 713.622 519.406 713.664 523.112C789.193 518.657 864.764 513.785 939.752 503.958C939.377 499.669 939.127 495.338 939.002 491.008Z" fill="white" stroke="#436AE5" stroke-linecap="round" stroke-linejoin="round"/>
<path d="M841.562 699.999C857.276 697.016 873.194 695.234 889.179 694.669C896.041 695.029 902.923 694.568 909.676 693.295C916.091 691.463 920.299 688.631 927.548 690.088C934.796 691.546 939.796 697.251 945.67 701.29C949.836 681.469 967.499 662.648 959.334 644.326C958.348 642.614 957.632 640.76 957.209 638.83C956.085 630.252 968.249 628.003 976.373 625.005C979.786 623.553 982.867 621.42 985.427 618.736C987.986 616.052 989.971 612.874 991.258 609.396C992.545 605.918 993.108 602.215 992.912 598.512C992.717 594.809 991.767 591.185 990.121 587.862C985.08 578.785 974.831 573.039 971.415 563.253C970.499 560.672 969.916 557.632 967.541 556.341C965.166 555.05 962.417 556.05 959.834 556.008C951.794 556.008 947.336 546.639 945.545 538.852C942.682 527.395 940.745 515.726 939.754 503.958C864.766 513.785 789.195 518.657 713.666 523.112C714.079 532.821 713.182 542.541 711 552.01C709.864 555.557 709.11 559.214 708.75 562.92C708.814 566.207 709.319 569.47 710.25 572.622C712.48 583.929 716.266 594.873 721.498 605.143C723.206 608.183 725.206 611.056 726.83 614.137C729.867 620.895 732.442 627.851 734.537 634.957C736.995 642.619 739.412 650.281 741.87 657.942C744.023 664.224 745.831 670.618 747.285 677.097C748.702 685.05 748.327 693.253 749.952 701.165C750.229 702.58 750.563 703.968 750.951 705.329C763.241 704.808 775.478 703.417 787.57 701.165C805.817 697.833 823.148 703.538 841.562 699.999Z" fill="white" stroke="#436AE5" stroke-linecap="round" stroke-linejoin="round"/>
<path d="M1026.99 957.167C1026.61 958.629 1026.61 960.161 1026.99 961.623C1028.57 966.12 1035.11 965.079 1039.48 963.621C1044.58 961.958 1049.85 960.869 1055.19 960.374C1056.27 955.752 1057.31 951.13 1058.23 946.466C1058.96 939.953 1061.21 933.705 1064.81 928.228C1068.32 924.015 1073.13 921.086 1078.48 919.9C1077.81 910.489 1077.19 901.12 1076.52 891.709C1076.52 890.752 1076.52 889.794 1076.31 888.795C1069.52 885.755 1060.98 884.88 1055.73 879.467C1048.07 871.472 1051.32 858.064 1046.57 848.029C1038.69 831.373 1010.82 827.209 1010.41 808.929C1010.2 799.852 1017.24 789.275 1010.91 782.779C1005.57 777.241 996.324 781.072 989.784 785.194C989.749 778.439 988.291 771.767 985.506 765.611C982.721 759.456 978.671 753.955 973.62 749.467C967.912 744.471 961.122 740.848 955.706 735.518C951.651 731.418 948.583 726.448 946.736 720.987C944.888 715.526 944.308 709.715 945.041 703.997C945.041 703.08 945.208 702.164 945.541 701.248C939.667 697.084 934.418 691.421 927.419 690.047C920.42 688.673 915.962 691.421 909.547 693.253C902.794 694.527 895.913 694.988 889.05 694.628C873.065 695.193 857.147 696.975 841.433 699.957C823.019 703.497 805.689 697.792 787.275 701.207C775.183 703.459 762.946 704.85 750.656 705.371C751.746 710.669 754.454 715.499 758.405 719.195C760.578 720.985 762.485 723.074 764.071 725.399C771.736 736.268 789.9 740.723 790.983 754.173C791.483 760.294 787.858 766.207 788.4 772.328C789.317 783.279 800.481 785.861 805.772 793.897C813.479 805.515 812.604 822.421 812.188 835.537C810.98 876.511 816.937 917.11 822.478 957.834C891.592 945.925 961.455 939.096 1031.28 932.35C1029.97 940.733 1028.54 949.006 1026.99 957.167Z" fill="white" stroke="#436AE5" stroke-linecap="round" stroke-linejoin="round"/>
<path d="M998.659 1109.99C1001.45 1095.7 1008.78 1082.84 1015.32 1069.93C1033.15 1035.21 1046.6 998.407 1055.36 960.373C1050.02 960.869 1044.75 961.958 1039.65 963.621C1035.11 965.078 1028.57 966.12 1027.15 961.622C1026.78 960.161 1026.78 958.629 1027.15 957.167C1028.71 949.005 1030.24 940.844 1031.74 932.683C961.915 939.428 892.051 946.257 822.938 958.166C826.395 983.483 829.686 1008.88 830.978 1034.37C832.644 1066.64 832.644 1100.57 836.144 1132.68C838.302 1134.56 840.838 1135.97 843.583 1136.79C846.328 1137.62 849.217 1137.85 852.058 1137.47C855.557 1136.97 859.765 1135.76 862.056 1138.47C863.075 1139.97 863.573 1141.77 863.472 1143.59C864.014 1154.21 864.306 1164.91 864.389 1175.57C909.603 1166.63 955.319 1160.44 1001.28 1157.04C997.951 1141.42 995.409 1125.77 998.659 1109.99Z" fill="white" stroke="#436AE5" stroke-linecap="round" stroke-linejoin="round"/>
<path d="M836.183 1132.68C832.684 1100.57 832.684 1066.64 831.017 1034.37C829.184 997.974 823.269 961.789 818.519 925.604L632.467 933.932C592.265 935.764 552.313 933.932 512.111 934.598C495.447 934.889 475.284 938.762 459.037 933.015V933.765C444.622 933.973 429.875 934.681 415.46 933.765C413.669 933.765 412.544 947.256 411.836 965.786C459.698 969.401 507.731 970.208 555.687 968.201C556.215 1007.26 556.729 1046.33 557.229 1085.42C557.229 1086.83 557.229 1088.54 558.729 1089.12C559.6 1089.46 560.565 1089.46 561.436 1089.12C572.643 1086.5 578.517 1095.79 587.807 1096.45C590.932 1096.45 592.473 1093.95 596.139 1095.2C600.68 1096.62 603.638 1102.57 606.762 1105.82C610.045 1109.15 614.133 1111.58 618.629 1112.86C623.126 1114.14 627.878 1114.24 632.425 1113.15C638.341 1111.61 644.548 1108.07 650.13 1110.57C654.838 1112.65 656.796 1118.1 659.67 1122.35C663.836 1128.68 666.753 1126.97 672.668 1125.1C674.918 1124.39 677.584 1121.73 680.25 1122.35C682.917 1122.98 684.208 1127.56 687.291 1129.1C690.374 1130.64 694.081 1128.35 697.414 1127.22C705.746 1124.39 714.953 1129.14 722.993 1133.22C731.034 1137.3 741.074 1140.76 748.573 1135.76C752.364 1133.22 755.071 1128.68 759.571 1127.97C761.737 1127.6 763.945 1128.22 766.028 1127.68C769.569 1126.72 771.569 1122.85 774.902 1121.39C780.776 1118.77 787.15 1124.39 793.565 1124.18C796.632 1123.6 799.736 1123.22 802.855 1123.06C807.979 1123.68 811.187 1128.89 815.353 1131.97C818.33 1133.89 821.726 1135.05 825.252 1135.37C828.777 1135.69 832.327 1135.15 835.6 1133.8L836.641 1133.3L836.183 1132.68Z" fill="white" stroke="#436AE5" stroke-linecap="round" stroke-linejoin="round"/>
<path d="M699.08 368.878C699.306 356.47 697.274 344.124 693.081 332.443C690.791 327.17 689.059 321.671 687.915 316.037C687.534 310.384 687.715 304.707 688.456 299.09C689.45 282.807 685.841 266.574 678.041 252.245C675 246.707 671.001 241.002 670.459 234.548C669.918 228.094 673.084 223.097 671.418 217.101C670.334 213.228 667.71 211.354 667.626 207.024C667.626 200.153 671.334 195.115 668.876 187.869C667.494 184.36 665.763 180.998 663.71 177.834C649.546 177.834 635.34 177.376 621.176 177.418L459.785 178.167C438.955 178.167 418.376 178.375 397.629 178.167C394.852 242.543 392.158 306.932 389.547 371.335C492.655 375.624 596.013 374.749 699.08 368.878Z" fill="white" stroke="#436AE5" stroke-linecap="round" stroke-linejoin="round"/>
<path d="M713.37 512.119L709.871 418.513C710.094 413.964 709.148 409.434 707.121 405.354C705.371 402.481 702.58 400.316 700.747 397.485C696.581 391.28 698.039 383.202 698.706 375.832C698.914 373.5 698.998 371.21 699.081 368.878C596.014 374.749 492.656 375.624 389.548 371.376C386.993 432.06 384.438 492.701 381.883 553.301L609.429 557.465C614.293 557.295 619.154 557.871 623.843 559.172C632.508 562.087 639.591 569.874 648.839 569.957C652.778 569.613 656.672 568.873 660.462 567.75C678.376 564.169 695.123 575.745 712.662 581.741C711.87 578.743 711.121 575.703 710.371 572.705C709.44 569.553 708.935 566.29 708.871 563.003C709.231 559.297 709.985 555.64 711.121 552.094C713.796 538.947 714.554 525.483 713.37 512.119Z" fill="white" stroke="#436AE5" stroke-linecap="round" stroke-linejoin="round"/>
<path d="M764.364 725.566C762.779 723.24 760.871 721.151 758.698 719.361C753.615 715.197 751.283 707.91 749.949 701.29C748.325 693.378 748.7 685.175 747.283 677.222C745.829 670.743 744.021 664.348 741.867 658.067C739.409 650.405 736.993 642.744 734.535 635.082C732.44 627.976 729.865 621.02 726.828 614.262C725.203 611.181 723.204 608.307 721.496 605.268C717.504 597.861 714.493 589.966 712.539 581.783C695 575.787 678.253 564.211 660.339 567.792C656.549 568.915 652.655 569.654 648.716 569.999C639.592 569.999 632.51 562.129 623.72 559.214C619.031 557.913 614.17 557.337 609.306 557.507L381.76 553.343C380.01 595.566 378.246 637.775 376.469 679.97C407.172 679.47 437.167 681.261 467.829 683.093C467.496 703.163 467.037 723.248 466.454 743.346C472.476 743.921 478.53 744.102 484.576 743.887L646.383 740.972C689.168 740.223 731.827 736.808 774.654 735.059C770.718 732.49 767.24 729.281 764.364 725.566Z" fill="white" stroke="#436AE5" stroke-linecap="round" stroke-linejoin="round"/>
<path d="M812.484 835.745C812.901 822.462 813.775 805.556 806.068 794.105C800.777 786.068 789.613 783.487 788.696 772.536C788.155 766.414 791.779 760.502 791.279 754.38C790.571 745.511 782.447 740.556 774.615 735.06C731.789 736.933 689.129 740.223 646.344 740.972L484.537 743.887C478.491 744.102 472.438 743.921 466.415 743.346C464.582 806.639 461.625 869.89 458.625 933.141C474.872 938.72 494.869 935.014 511.7 934.723C551.901 934.015 591.853 935.889 632.055 934.057L818.108 925.729C813.872 895.928 811.991 865.841 812.484 835.745Z" fill="white" stroke="#436AE5" stroke-linecap="round" stroke-linejoin="round"/>
<g filter="url(#filter0_d_5_66162)">
<ellipse cx="1720.87" cy="473.684" rx="20.5472" ry="20.5453" fill="white"/>
<path d="M1738.41 473.684C1738.41 483.374 1730.56 491.229 1720.87 491.229C1711.18 491.229 1703.32 483.374 1703.32 473.684C1703.32 463.994 1711.18 456.139 1720.87 456.139C1730.56 456.139 1738.41 463.994 1738.41 473.684Z" stroke="#FF7D01" stroke-width="6"/>
</g>
</g>
<g filter="url(#filter1_d_5_66162)">
<rect x="1429" y="502.842" width="284" height="104" rx="25" fill="white"/>
</g>
<path d="M1475.06 547.842H1470.3L1465.26 538.545L1464.62 536.758H1464.32L1464.76 538.545V547.842H1461.6V533.838H1466.36L1471.4 543.145L1472.04 544.922H1472.34L1471.9 543.145V533.838H1475.06V547.842ZM1489.04 542.842L1488.98 543.604H1480.68C1480.68 544.202 1480.92 544.717 1481.4 545.146C1481.86 545.583 1482.53 545.801 1483.4 545.801C1483.89 545.801 1484.34 545.716 1484.73 545.547C1485.1 545.378 1485.34 545.208 1485.46 545.039L1485.64 544.805H1488.8C1488.79 544.896 1488.76 545.01 1488.71 545.146C1488.66 545.309 1488.52 545.566 1488.28 545.918C1488.03 546.302 1487.74 546.634 1487.39 546.914C1487.01 547.207 1486.48 547.464 1485.8 547.686C1485.08 547.92 1484.28 548.037 1483.4 548.037C1481.69 548.037 1480.31 547.578 1479.25 546.66C1478.19 545.742 1477.66 544.469 1477.66 542.842C1477.66 541.214 1478.18 539.941 1479.24 539.023C1480.29 538.105 1481.67 537.646 1483.36 537.646C1485.04 537.646 1486.41 538.105 1487.46 539.023C1488.52 539.941 1489.04 541.214 1489.04 542.842ZM1485.3 540.498C1484.84 540.088 1484.19 539.883 1483.36 539.883C1482.53 539.883 1481.88 540.091 1481.43 540.508C1480.96 540.931 1480.72 541.377 1480.72 541.846H1485.98C1485.98 541.364 1485.75 540.915 1485.3 540.498ZM1498.94 540.781H1498.84L1496.88 547.842H1493.02L1490.34 537.842H1493.34L1494.96 545.117H1495.08L1497.1 537.842H1500.68L1502.7 545.117H1502.82L1504.44 537.842H1507.44L1504.76 547.842H1500.9L1498.94 540.781ZM1518.48 540.098H1518.68L1521.96 533.838H1525.42L1520.34 542.979V547.842H1516.82V542.979L1511.74 533.838H1515.21L1518.48 540.098ZM1530.43 548.037C1528.74 548.037 1527.36 547.578 1526.31 546.66C1525.25 545.742 1524.73 544.469 1524.73 542.842C1524.73 541.214 1525.25 539.941 1526.31 539.023C1527.36 538.105 1528.74 537.646 1530.43 537.646C1532.12 537.646 1533.5 538.105 1534.55 539.023C1535.61 539.941 1536.13 541.214 1536.13 542.842C1536.13 544.469 1535.61 545.742 1534.55 546.66C1533.5 547.578 1532.12 548.037 1530.43 548.037ZM1530.43 545.566C1531.28 545.566 1531.95 545.312 1532.44 544.805C1532.93 544.297 1533.17 543.643 1533.17 542.842C1533.17 542.041 1532.93 541.387 1532.44 540.879C1531.95 540.371 1531.28 540.117 1530.43 540.117C1529.57 540.117 1528.9 540.371 1528.43 540.879C1527.94 541.387 1527.7 542.041 1527.7 542.842C1527.7 543.643 1527.94 544.297 1528.43 544.805C1528.9 545.312 1529.57 545.566 1530.43 545.566ZM1545.05 537.646L1546.04 537.744V540.918C1545.62 540.716 1545.04 540.618 1544.31 540.625C1543.38 540.625 1542.66 540.885 1542.16 541.406C1541.66 541.94 1541.41 542.611 1541.41 543.418V547.842H1538.53V537.842H1541.41V539.678H1541.57C1541.68 539.443 1541.82 539.209 1542.01 538.975C1542.2 538.734 1542.41 538.525 1542.65 538.35C1542.91 538.154 1543.26 537.988 1543.69 537.852C1544.12 537.715 1544.57 537.646 1545.05 537.646ZM1555.18 537.842H1558.55L1554.28 542.705L1558.92 547.842H1555.52L1551.04 542.939V547.842H1548.15V533.838H1551.04V542.52L1555.18 537.842Z" fill="#272727"/>
<path d="M1463.42 564.33L1460.72 566.457V564.55L1463.57 562.238H1465.12V574.842H1463.42V564.33ZM1482.77 574.842H1480.71L1478.44 567.679H1478.36L1476.09 574.842H1474.03L1471.42 566.018H1472.98L1475.06 573.146H1475.13L1477.39 566.018H1479.41L1481.67 573.146H1481.75L1483.82 566.018H1485.38L1482.77 574.842ZM1486.75 572.372C1486.75 571.47 1487.13 570.802 1487.9 570.368C1488.66 569.94 1489.64 569.727 1490.83 569.727C1491.44 569.727 1492 569.8 1492.52 569.946C1493.06 570.099 1493.44 570.242 1493.65 570.377L1494 570.597V569.208C1494 568.61 1493.78 568.142 1493.34 567.802C1492.9 567.456 1492.24 567.283 1491.35 567.283C1489.59 567.283 1488.71 567.764 1488.71 568.725H1487.16C1487.16 567.752 1487.56 567.028 1488.34 566.554C1489.12 566.079 1490.13 565.842 1491.35 565.842C1492.58 565.842 1493.59 566.129 1494.37 566.703C1495.14 567.283 1495.54 568.118 1495.54 569.208V572.416C1495.54 572.861 1495.6 573.172 1495.72 573.348C1495.84 573.518 1496.03 573.603 1496.3 573.603C1496.53 573.603 1496.69 573.57 1496.76 573.506L1496.8 573.488V574.877C1496.62 574.971 1496.35 575.018 1496.01 575.018C1495.42 575.018 1494.99 574.892 1494.71 574.64C1494.49 574.452 1494.32 574.256 1494.22 574.051L1494.17 573.945H1494.1C1493.96 574.092 1493.81 574.215 1493.65 574.314C1493.47 574.438 1493.27 574.546 1493.06 574.64C1492.48 574.892 1491.78 575.018 1490.96 575.018C1489.71 575.018 1488.69 574.804 1487.91 574.376C1487.13 573.954 1486.75 573.286 1486.75 572.372ZM1491.18 571.168C1489.28 571.168 1488.33 571.569 1488.33 572.372C1488.33 573.181 1489.28 573.585 1491.18 573.585C1491.75 573.585 1492.26 573.523 1492.72 573.4C1493.18 573.289 1493.49 573.184 1493.66 573.084C1493.82 573.002 1493.93 572.929 1494 572.864V571.854C1493.93 571.789 1493.82 571.716 1493.66 571.634C1493.46 571.54 1493.15 571.44 1492.73 571.335C1492.28 571.224 1491.76 571.168 1491.18 571.168ZM1503.39 565.842C1503.74 565.842 1504.05 565.877 1504.32 565.947L1504.45 565.965V567.661C1504.11 567.544 1503.67 567.482 1503.12 567.477C1502.17 567.477 1501.42 567.778 1500.88 568.382C1500.33 568.985 1500.06 569.741 1500.06 570.649V574.842H1498.51V566.018H1500.06V567.731H1500.15C1500.24 567.544 1500.38 567.324 1500.58 567.072C1500.76 566.85 1500.96 566.656 1501.19 566.492C1501.44 566.316 1501.76 566.164 1502.15 566.035C1502.55 565.906 1502.96 565.842 1503.39 565.842ZM1515.28 570.43L1515.23 571.168H1507.26C1507.26 571.672 1507.56 572.199 1508.16 572.75C1508.75 573.307 1509.54 573.585 1510.54 573.585C1511.27 573.585 1511.87 573.447 1512.34 573.172C1512.73 572.938 1513 572.727 1513.15 572.539L1513.22 572.416H1515.04C1515 572.504 1514.96 572.595 1514.92 572.688C1514.85 572.823 1514.7 573.031 1514.49 573.312C1514.26 573.611 1514 573.878 1513.69 574.112C1513.4 574.341 1512.97 574.549 1512.4 574.736C1511.86 574.924 1511.24 575.018 1510.54 575.018C1509.08 575.018 1507.89 574.602 1506.99 573.77C1506.07 572.938 1505.61 571.824 1505.61 570.43C1505.61 569.047 1506.06 567.937 1506.98 567.099C1507.89 566.261 1509.04 565.842 1510.45 565.842C1511.84 565.842 1513 566.261 1513.92 567.099C1514.83 567.937 1515.28 569.047 1515.28 570.43ZM1512.79 568.118C1512.2 567.562 1511.42 567.283 1510.45 567.283C1509.46 567.283 1508.69 567.562 1508.11 568.118C1507.53 568.675 1507.24 569.223 1507.24 569.762H1513.65C1513.65 569.223 1513.36 568.675 1512.79 568.118ZM1526.49 574.842H1524.94V570.289C1524.94 569.258 1524.68 568.499 1524.16 568.013C1523.64 567.526 1522.94 567.283 1522.06 567.283C1521.13 567.283 1520.42 567.559 1519.93 568.109C1519.43 568.66 1519.19 569.387 1519.19 570.289V574.842H1517.64V562.238H1519.19V567.371H1519.27C1519.4 567.172 1519.54 566.993 1519.7 566.835C1519.9 566.659 1520.1 566.504 1520.31 566.369C1520.55 566.223 1520.87 566.1 1521.27 566C1521.67 565.895 1522.08 565.842 1522.52 565.842C1523.65 565.842 1524.6 566.182 1525.36 566.861C1526.11 567.547 1526.49 568.569 1526.49 569.929V574.842ZM1530.11 573.761C1529.2 572.923 1528.74 571.812 1528.74 570.43C1528.74 569.053 1529.2 567.942 1530.11 567.099C1531.02 566.261 1532.18 565.842 1533.58 565.842C1534.98 565.842 1536.13 566.261 1537.05 567.099C1537.96 567.942 1538.42 569.053 1538.42 570.43C1538.42 571.812 1537.96 572.923 1537.05 573.761C1536.13 574.599 1534.98 575.018 1533.58 575.018C1532.18 575.018 1531.02 574.599 1530.11 573.761ZM1535.95 572.697C1536.54 572.105 1536.83 571.35 1536.83 570.43C1536.83 569.51 1536.54 568.754 1535.95 568.162C1535.35 567.576 1534.57 567.283 1533.58 567.283C1532.59 567.283 1531.8 567.576 1531.22 568.162C1530.62 568.748 1530.32 569.504 1530.32 570.43C1530.32 571.355 1530.62 572.111 1531.22 572.697C1531.81 573.289 1532.6 573.585 1533.58 573.585C1534.55 573.585 1535.34 573.289 1535.95 572.697ZM1540.77 566.018H1542.32V570.579C1542.32 571.61 1542.58 572.369 1543.1 572.855C1543.62 573.342 1544.32 573.585 1545.19 573.585C1546.11 573.585 1546.82 573.307 1547.33 572.75C1547.83 572.199 1548.08 571.476 1548.08 570.579V566.018H1549.62V574.842H1548.08V573.488H1547.99C1547.87 573.676 1547.73 573.854 1547.56 574.024C1547.36 574.206 1547.16 574.361 1546.95 574.49C1546.71 574.643 1546.39 574.769 1545.99 574.868C1545.59 574.968 1545.18 575.018 1544.74 575.018C1543.6 575.018 1542.65 574.675 1541.91 573.989C1541.15 573.315 1540.77 572.299 1540.77 570.939V566.018ZM1558.97 572.231C1558.97 571.886 1558.81 571.619 1558.47 571.432C1558.13 571.238 1557.71 571.13 1557.22 571.106C1556.71 571.077 1556.16 571.024 1555.57 570.948C1554.94 570.872 1554.39 570.781 1553.92 570.676C1553.42 570.57 1553 570.333 1552.66 569.964C1552.32 569.601 1552.15 569.114 1552.15 568.505C1552.15 567.62 1552.53 566.952 1553.29 566.501C1554.04 566.062 1555.02 565.842 1556.22 565.842C1557.44 565.842 1558.43 566.088 1559.18 566.58C1559.92 567.072 1560.29 567.846 1560.29 568.9H1558.71C1558.71 568.35 1558.51 567.942 1558.11 567.679C1557.72 567.415 1557.09 567.283 1556.22 567.283C1554.56 567.283 1553.74 567.69 1553.74 568.505C1553.74 568.839 1553.91 569.094 1554.25 569.27C1554.58 569.451 1555 569.554 1555.5 569.577C1555.96 569.601 1556.52 569.65 1557.15 569.727C1557.76 569.809 1558.31 569.905 1558.8 570.017C1559.3 570.14 1559.72 570.386 1560.06 570.755C1560.4 571.136 1560.56 571.628 1560.56 572.231C1560.56 572.888 1560.36 573.433 1559.94 573.866C1559.53 574.294 1559.01 574.593 1558.39 574.763C1557.79 574.933 1557.08 575.018 1556.26 575.018C1554.54 575.018 1553.32 574.596 1552.58 573.752C1552.17 573.271 1551.96 572.674 1551.96 571.959V571.678H1553.54V571.959C1553.54 573.037 1554.45 573.576 1556.26 573.576C1558.07 573.588 1558.97 573.14 1558.97 572.231ZM1572.22 570.43L1572.17 571.168H1564.19C1564.19 571.672 1564.49 572.199 1565.09 572.75C1565.68 573.307 1566.48 573.585 1567.47 573.585C1568.21 573.585 1568.81 573.447 1569.27 573.172C1569.66 572.938 1569.93 572.727 1570.08 572.539L1570.15 572.416H1571.97C1571.94 572.504 1571.9 572.595 1571.86 572.688C1571.78 572.823 1571.64 573.031 1571.43 573.312C1571.2 573.611 1570.93 573.878 1570.63 574.112C1570.33 574.341 1569.9 574.549 1569.34 574.736C1568.8 574.924 1568.18 575.018 1567.47 575.018C1566.01 575.018 1564.83 574.602 1563.92 573.77C1563 572.938 1562.54 571.824 1562.54 570.43C1562.54 569.047 1563 567.937 1563.91 567.099C1564.82 566.261 1565.98 565.842 1567.38 565.842C1568.78 565.842 1569.94 566.261 1570.86 567.099C1571.76 567.937 1572.22 569.047 1572.22 570.43ZM1569.72 568.118C1569.14 567.562 1568.36 567.283 1567.38 567.283C1566.4 567.283 1565.62 567.562 1565.05 568.118C1564.47 568.675 1564.18 569.223 1564.18 569.762H1570.58C1570.58 569.223 1570.3 568.675 1569.72 568.118ZM1581.11 565.666V566.018H1583.7V567.424H1581.11V574.842H1579.56V567.424H1578.08V566.562L1579.56 566.018V565.464C1579.56 564.333 1579.87 563.483 1580.51 562.915C1581.13 562.347 1581.98 562.062 1583.06 562.062C1583.37 562.062 1583.69 562.104 1584 562.186C1584.32 562.273 1584.56 562.353 1584.71 562.423L1584.93 562.546V563.935C1584.54 563.589 1584 563.416 1583.32 563.416C1582.59 563.416 1582.04 563.592 1581.67 563.943C1581.3 564.289 1581.11 564.863 1581.11 565.666ZM1586.55 573.761C1585.64 572.923 1585.18 571.812 1585.18 570.43C1585.18 569.053 1585.64 567.942 1586.55 567.099C1587.46 566.261 1588.62 565.842 1590.03 565.842C1591.42 565.842 1592.58 566.261 1593.5 567.099C1594.41 567.942 1594.86 569.053 1594.86 570.43C1594.86 571.812 1594.41 572.923 1593.5 573.761C1592.58 574.599 1591.42 575.018 1590.03 575.018C1588.62 575.018 1587.46 574.599 1586.55 573.761ZM1592.39 572.697C1592.98 572.105 1593.28 571.35 1593.28 570.43C1593.28 569.51 1592.98 568.754 1592.39 568.162C1591.8 567.576 1591.01 567.283 1590.03 567.283C1589.04 567.283 1588.25 567.576 1587.66 568.162C1587.06 568.748 1586.76 569.504 1586.76 570.43C1586.76 571.355 1587.06 572.111 1587.66 572.697C1588.25 573.289 1589.04 573.585 1590.03 573.585C1591 573.585 1591.79 573.289 1592.39 572.697ZM1597.21 566.018H1598.76V570.579C1598.76 571.61 1599.02 572.369 1599.54 572.855C1600.07 573.342 1600.76 573.585 1601.64 573.585C1602.56 573.585 1603.27 573.307 1603.77 572.75C1604.27 572.199 1604.52 571.476 1604.52 570.579V566.018H1606.07V574.842H1604.52V573.488H1604.43C1604.31 573.676 1604.17 573.854 1604 574.024C1603.81 574.206 1603.6 574.361 1603.39 574.49C1603.15 574.643 1602.83 574.769 1602.44 574.868C1602.04 574.968 1601.62 575.018 1601.19 575.018C1600.04 575.018 1599.09 574.675 1598.35 573.989C1597.59 573.315 1597.21 572.299 1597.21 570.939V566.018ZM1617.61 574.842H1616.07V570.289C1616.07 569.258 1615.81 568.499 1615.29 568.013C1614.76 567.526 1614.06 567.283 1613.18 567.283C1612.26 567.283 1611.55 567.559 1611.06 568.109C1610.56 568.66 1610.31 569.387 1610.31 570.289V574.842H1608.76V566.018H1610.31V567.371H1610.4C1610.52 567.172 1610.67 566.993 1610.83 566.835C1611.02 566.659 1611.22 566.504 1611.44 566.369C1611.68 566.223 1612 566.1 1612.39 566C1612.79 565.895 1613.21 565.842 1613.64 565.842C1614.78 565.842 1615.73 566.182 1616.49 566.861C1617.24 567.547 1617.61 568.569 1617.61 569.929V574.842ZM1627.99 562.238H1629.54V574.842H1627.99V573.523H1627.92C1627.83 573.676 1627.66 573.852 1627.42 574.051C1627.22 574.215 1627 574.364 1626.76 574.499C1626.51 574.64 1626.18 574.76 1625.77 574.859C1625.37 574.965 1624.96 575.018 1624.54 575.018C1623.21 575.018 1622.1 574.596 1621.21 573.752C1620.31 572.908 1619.86 571.801 1619.86 570.43C1619.86 569.07 1620.31 567.963 1621.21 567.107C1622.1 566.264 1623.21 565.842 1624.54 565.842C1625.25 565.842 1625.89 565.968 1626.45 566.22C1627 566.472 1627.39 566.718 1627.62 566.958L1627.92 567.336H1627.99V562.238ZM1622.34 568.171C1621.75 568.769 1621.45 569.521 1621.45 570.43C1621.45 571.344 1621.75 572.097 1622.34 572.688C1622.93 573.286 1623.73 573.585 1624.72 573.585C1625.72 573.585 1626.51 573.286 1627.11 572.688C1627.7 572.097 1627.99 571.344 1627.99 570.43C1627.99 569.492 1627.69 568.733 1627.09 568.153C1626.49 567.573 1625.7 567.283 1624.72 567.283C1623.73 567.283 1622.93 567.579 1622.34 568.171Z" fill="#436AE5"/>
</g>
<defs>
<filter id="filter0_d_5_66162" x="1680.32" y="443.139" width="81.0938" height="81.0908" filterUnits="userSpaceOnUse" color-interpolation-filters="sRGB">
<feFlood flood-opacity="0" result="BackgroundImageFix"/>
<feColorMatrix in="SourceAlpha" type="matrix" values="0 0 0 0 0 0 0 0 0 0 0 0 0 0 0 0 0 0 127 0" result="hardAlpha"/>
<feOffset dy="10"/>
<feGaussianBlur stdDeviation="10"/>
<feComposite in2="hardAlpha" operator="out"/>
<feColorMatrix type="matrix" values="0 0 0 0 0.246875 0 0 0 0 0.367998 0 0 0 0 0.75 0 0 0 0.7 0"/>
<feBlend mode="normal" in2="BackgroundImageFix" result="effect1_dropShadow_5_66162"/>
<feBlend mode="normal" in="SourceGraphic" in2="effect1_dropShadow_5_66162" result="shape"/>
</filter>
<filter id="filter1_d_5_66162" x="1389" y="476.842" width="364" height="184" filterUnits="userSpaceOnUse" color-interpolation-filters="sRGB">
<feFlood flood-opacity="0" result="BackgroundImageFix"/>
<feColorMatrix in="SourceAlpha" type="matrix" values="0 0 0 0 0 0 0 0 0 0 0 0 0 0 0 0 0 0 127 0" result="hardAlpha"/>
<feOffset dy="14"/>
<feGaussianBlur stdDeviation="20"/>
<feComposite in2="hardAlpha" operator="out"/>
<feColorMatrix type="matrix" values="0 0 0 0 0.0437383 0 0 0 0 0.109346 0 0 0 0 0.316262 0 0 0 0.2 0"/>
<feBlend mode="normal" in2="BackgroundImageFix" result="effect1_dropShadow_5_66162"/>
<feBlend mode="normal" in="SourceGraphic" in2="effect1_dropShadow_5_66162" result="shape"/>
</filter>
<clipPath id="clip0_5_66162">
<rect width="1920" height="1023" fill="white" transform="translate(0 0.841797)"/>
</clipPath>
<clipPath id="clip1_5_66162">
<rect width="2549" height="1687" fill="white" transform="translate(-214 -663.158)"/>
</clipPath>
</defs>
</svg>
