<svg width="65" height="66" viewBox="0 0 65 66" fill="none" xmlns="http://www.w3.org/2000/svg">
<g clip-path="url(#clip0_4612_9002)">
<path d="M32.5 23.6006C29.9141 23.6006 27.4342 24.6278 25.6057 26.4563C23.7772 28.2848 22.75 30.7647 22.75 33.3506C22.75 35.9364 23.7772 38.4164 25.6057 40.2449C27.4342 42.0734 29.9141 43.1006 32.5 43.1006C35.0859 43.1006 37.5658 42.0734 39.3943 40.2449C41.2228 38.4164 42.25 35.9364 42.25 33.3506C42.25 30.7647 41.2228 28.2848 39.3943 26.4563C37.5658 24.6278 35.0859 23.6006 32.5 23.6006ZM32.5 17.1006C36.8098 17.1006 40.943 18.8126 43.9905 21.8601C47.038 24.9076 48.75 29.0408 48.75 33.3506C48.75 37.6604 47.038 41.7936 43.9905 44.8411C40.943 47.8885 36.8098 49.6006 32.5 49.6006C28.1902 49.6006 24.057 47.8885 21.0095 44.8411C17.962 41.7936 16.25 37.6604 16.25 33.3506C16.25 29.0408 17.962 24.9076 21.0095 21.8601C24.057 18.8126 28.1902 17.1006 32.5 17.1006ZM53.625 16.2881C53.625 17.3655 53.197 18.3988 52.4351 19.1607C51.6733 19.9226 50.6399 20.3506 49.5625 20.3506C48.4851 20.3506 47.4517 19.9226 46.6899 19.1607C45.928 18.3988 45.5 17.3655 45.5 16.2881C45.5 15.2106 45.928 14.1773 46.6899 13.4155C47.4517 12.6536 48.4851 12.2256 49.5625 12.2256C50.6399 12.2256 51.6733 12.6536 52.4351 13.4155C53.197 14.1773 53.625 15.2106 53.625 16.2881ZM32.5 7.35059C24.4595 7.35059 23.1465 7.37334 19.4058 7.53909C16.8577 7.65934 15.1482 8.00059 13.5622 8.61809C12.235 9.10538 11.0351 9.88644 10.0522 10.9028C9.03502 11.8856 8.2529 13.0855 7.76425 14.4128C7.14675 16.0053 6.8055 17.7116 6.6885 20.2563C6.5195 23.8443 6.49675 25.0988 6.49675 33.3506C6.49675 41.3943 6.5195 42.7041 6.68525 46.4448C6.8055 48.9896 7.14675 50.7023 7.761 52.2851C8.3135 53.6988 8.9635 54.7161 10.0425 55.7951C11.1378 56.8871 12.155 57.5403 13.5525 58.0798C15.158 58.7006 16.8675 59.0451 19.4025 59.1621C22.9905 59.3311 24.245 59.3506 32.4967 59.3506C40.5405 59.3506 41.8503 59.3278 45.591 59.1621C48.1325 59.0418 49.842 58.7006 51.4313 58.0863C52.7573 57.5966 53.9567 56.8159 54.9413 55.8016C56.0365 54.7096 56.6898 53.6923 57.2293 52.2916C57.8468 50.6926 58.1912 48.9831 58.3083 46.4416C58.4772 42.8568 58.4967 41.5991 58.4967 33.3506C58.4967 25.3101 58.474 23.9971 58.3083 20.2563C58.188 17.7148 57.8435 15.9988 57.2293 14.4128C56.7394 13.0869 55.9587 11.8875 54.9445 10.9028C53.9621 9.88509 52.7622 9.10288 51.4345 8.61484C49.842 7.99734 48.1325 7.65609 45.591 7.53909C42.0062 7.37009 40.755 7.35059 32.5 7.35059ZM32.5 0.850586C41.3302 0.850586 42.432 0.883086 45.8998 1.04559C49.3578 1.20809 51.7173 1.75084 53.7875 2.55684C55.9325 3.38234 57.7395 4.50034 59.5465 6.30409C61.1991 7.92875 62.4779 9.894 63.2938 12.0631C64.0965 14.1333 64.6425 16.4928 64.805 19.9541C64.9577 23.4186 65 24.5203 65 33.3506C65 42.1808 64.9675 43.2826 64.805 46.7471C64.6425 50.2083 64.0965 52.5646 63.2938 54.6381C62.4801 56.8083 61.2011 58.774 59.5465 60.3971C57.9214 62.0491 55.9563 63.3278 53.7875 64.1443C51.7173 64.9471 49.3578 65.4931 45.8998 65.6556C42.432 65.8083 41.3302 65.8506 32.5 65.8506C23.6698 65.8506 22.568 65.8181 19.1003 65.6556C15.6422 65.4931 13.286 64.9471 11.2125 64.1443C9.04256 63.3301 7.07696 62.0512 5.4535 60.3971C3.80065 58.7726 2.52187 56.8073 1.70625 54.6381C0.90025 52.5678 0.357501 50.2083 0.195001 46.7471C0.0390006 43.2826 0 42.1808 0 33.3506C0 24.5203 0.0325006 23.4186 0.195001 19.9541C0.357501 16.4896 0.90025 14.1366 1.70625 12.0631C2.51952 9.89267 3.79861 7.92688 5.4535 6.30409C7.07743 4.65059 9.04289 3.37171 11.2125 2.55684C13.2828 1.75084 15.639 1.20809 19.1003 1.04559C22.568 0.892836 23.6698 0.850586 32.5 0.850586Z" fill="white"/>
</g>
<defs>
<clipPath id="clip0_4612_9002">
<rect width="65" height="65" fill="white" transform="translate(0 0.850586)"/>
</clipPath>
</defs>
</svg>
