<svg width="81" height="80" viewBox="0 0 81 80" fill="none" xmlns="http://www.w3.org/2000/svg">
<path d="M40.0508 80C62.1422 80 80.0508 62.0914 80.0508 40C80.0508 17.9086 62.1422 0 40.0508 0C17.9594 0 0.0507812 17.9086 0.0507812 40C0.0507812 62.0914 17.9594 80 40.0508 80Z" fill="#1A976A"/>
<path fill-rule="evenodd" clip-rule="evenodd" d="M38.4585 38.8221L53.4171 23.8304C54.5282 22.7193 56.3358 22.7193 57.4469 23.8304L61.4768 27.8768C62.5879 28.9879 62.5879 30.8122 61.4768 31.9233L41.5265 51.8901C41.5265 51.8901 41.4104 52.0559 41.3441 52.1057L37.3142 56.1521C36.7504 56.6994 36.0207 56.9979 35.291 56.9979C34.5613 56.9979 33.8316 56.6994 33.2678 56.1521L29.2379 52.1057C29.2379 52.1057 29.1053 51.973 29.0555 51.8901L18.6243 41.4258C17.5132 40.3146 17.5132 38.5236 18.6243 37.4125L22.6542 33.3661C23.7653 32.2549 25.5729 32.2549 26.684 33.3661L34.5945 41.2765L35.3076 41.9896L43.3839 49.9996L38.4751 38.8387L38.4585 38.8221Z" fill="white"/>
</svg>
