<svg width="1920" height="1024" viewBox="0 0 1920 1024" fill="none" xmlns="http://www.w3.org/2000/svg">
<g clip-path="url(#clip0_5_65753)">
<rect width="1920" height="1023" transform="translate(0 0.841797)" fill="#F1F4FF"/>
<g clip-path="url(#clip1_5_65753)">
<path d="M1843.05 86.8925C1847.47 80.0153 1853.21 74.0733 1859.92 69.4037C1872.42 61.0757 1888.75 59.993 1900.17 50.4159C1903.62 46.8795 1907.34 43.6085 1911.29 40.6305C1912.25 40.0476 1913.62 39.5895 1914.37 40.4223C1914.71 40.86 1914.88 41.4101 1914.83 41.963C1914.43 45.0017 1912.95 47.7957 1910.66 49.8329C1897.53 64.6439 1883.29 78.4256 1868.05 91.0565C1862.26 95.5952 1852.92 104.673 1844.88 103.548C1834.59 102.466 1839.3 92.3473 1843.05 86.8925Z" fill="white" stroke="#436AE5" stroke-linecap="round" stroke-linejoin="round"/>
<path d="M1843.05 86.8925C1847.47 80.0153 1853.21 74.0733 1859.92 69.4037C1872.42 61.0757 1888.75 59.993 1900.17 50.4159C1903.62 46.8795 1907.34 43.6085 1911.29 40.6305C1912.25 40.0476 1913.62 39.5895 1914.37 40.4223C1914.71 40.86 1914.88 41.4101 1914.83 41.963C1914.43 45.0017 1912.95 47.7957 1910.66 49.8329C1897.53 64.6439 1883.29 78.4256 1868.05 91.0565C1862.26 95.5952 1852.92 104.673 1844.88 103.548C1834.59 102.466 1839.3 92.3473 1843.05 86.8925Z" fill="white" stroke="#436AE5" stroke-miterlimit="10"/>
<path d="M1982.61 -49.2287C1980.65 -53.3927 1978.73 -57.2235 1976.82 -61.2626C1976.48 -62.259 1975.78 -63.092 1974.86 -63.5944C1974.28 -63.7358 1973.69 -63.7533 1973.1 -63.6456C1972.52 -63.5379 1971.97 -63.3075 1971.48 -62.9699C1968.23 -61.3459 1964.61 -59.2222 1964.07 -55.5996C1962.99 -48.5208 1974.69 -44.1903 1973.28 -37.1531C1972.75 -35.1511 1971.51 -33.4144 1969.78 -32.2812C1965.77 -29.4115 1960.83 -28.168 1955.94 -28.8018C1951.05 -29.4356 1946.59 -31.8994 1943.45 -35.6957C1937.61 -43.2325 1938.07 -54.392 1931.82 -61.5957C1929.16 -64.6771 1925.12 -67.6335 1925.78 -71.6726C1926.45 -75.7117 1930.7 -78.3766 1929.03 -81.5412C1927.82 -83.8314 1924.87 -83.8314 1922.41 -85.0806L1921.87 -85.4971C1917.44 -82.7898 1913.49 -79.3549 1910.2 -75.3369C1908.2 -72.4144 1905.89 -69.7073 1903.33 -67.2588C1900.22 -64.8939 1896.72 -63.0772 1893 -61.8872L1844.96 -43.4407C1838.99 -40.9352 1832.69 -39.3081 1826.26 -38.6105C1827.72 -29.1999 1828.63 -19.8309 1829.26 -10.8367C1829.8 -3.59131 1830.13 3.7373 1830.88 10.941C1834.22 8.54687 1837.84 6.58787 1841.67 5.11144C1849.59 2.03009 1858.04 0.531044 1866.04 -2.38375C1881.92 -8.08842 1895.91 -19.0397 1912.54 -22.1211C1914.81 -22.6417 1917.18 -22.6417 1919.45 -22.1211C1923.3 -20.275 1926.56 -17.3908 1928.87 -13.7931C1931.67 -10.5309 1934.95 -7.7216 1938.61 -5.46513C1943.2 -5.46513 1947.65 -5.46513 1949.7 -9.296C1950.38 -11.2187 1950.95 -13.179 1951.4 -15.1672C1952.11 -17.0827 1954.28 -18.8315 1956.11 -17.8738C1957.94 -16.9161 1957.86 -15.0839 1959.24 -14.1679C1961.24 -12.7937 1963.78 -14.6259 1965.49 -16.2915L1978.27 -28.7835C1981.81 -31.5554 1984.21 -35.5246 1985.02 -39.943C1985.04 -43.1954 1984.21 -46.3955 1982.61 -49.2287Z" fill="white" stroke="#436AE5" stroke-linecap="round" stroke-linejoin="round"/>
<path d="M1906.83 -7.00564C1905.64 -11.2041 1904.73 -15.4739 1904.08 -19.7891C1891.04 -15.3336 1879.09 -7.08892 1866.13 -2.3836C1858.13 0.531189 1849.47 2.03024 1841.76 5.1116C1837.93 6.58802 1834.3 8.54702 1830.97 10.9412C1831.34 14.6888 1831.84 18.3531 1832.55 22.0174C1835.88 38.6734 1849.67 51.6234 1848.34 67.8213C1859.07 55.4991 1871.73 45.007 1885.83 36.7579C1894.17 31.9277 1907.37 28.6798 1916.33 22.1839C1914.98 19.5103 1913.86 16.7237 1913 13.8559C1910.78 6.80491 1908.72 -0.148932 1906.83 -7.00564Z" fill="white" stroke="#436AE5" stroke-linecap="round" stroke-linejoin="round"/>
<path d="M1928.95 -14.0013C1926.65 -17.5989 1923.39 -20.4831 1919.53 -22.3292C1917.26 -22.8499 1914.89 -22.8499 1912.62 -22.3292C1909.72 -21.768 1906.86 -20.9885 1904.08 -19.9974C1904.72 -15.6822 1905.64 -11.4124 1906.83 -7.21399C1908.69 -0.329525 1910.69 6.51334 1912.83 13.3145C1913.69 16.1823 1914.81 18.9689 1916.16 21.6425C1918.69 20.0406 1920.83 17.899 1922.42 15.3719C1924.02 12.8447 1925.04 9.99467 1925.41 7.02686C1925.17 3.56792 1925.89 0.111269 1927.49 -2.9667C1929.99 -6.0897 1934.36 -6.13133 1938.7 -6.21461C1935.08 -8.30624 1931.79 -10.9312 1928.95 -14.0013Z" fill="white" stroke="#436AE5" stroke-linecap="round" stroke-linejoin="round"/>
<path d="M1848.34 67.6549C1849.67 51.6235 1835.84 38.7567 1832.55 21.8509C1830.81 10.9753 1829.74 0.00341797 1829.34 -11.003C1827.47 -37.3195 1823.51 -67.2585 1808.89 -89.9107C1806.01 -94.3661 1802.64 -98.4468 1800.22 -103.152C1795.39 -112.604 1794.89 -123.639 1791.18 -133.591C1788.31 -141.169 1783.6 -148.04 1781.35 -155.827C1779.81 -161.521 1779.22 -167.429 1779.6 -173.315C1767.1 -169.401 1755.27 -164.571 1742.73 -160.823C1736.75 -159.453 1730.95 -157.384 1725.44 -154.661C1716.74 -149.747 1710.95 -141.086 1704.61 -133.383C1699.97 -128.504 1695.95 -123.062 1692.66 -117.185C1688.99 -109.481 1688.49 -100.779 1685.33 -92.9504C1682.16 -85.1221 1675.04 -81.4577 1671.74 -74.3373C1670.97 -72.9208 1670.7 -71.2842 1670.98 -69.6956C1671.26 -68.107 1672.08 -66.6604 1673.29 -65.5929C1676.87 -63.1361 1682.58 -66.0093 1685.78 -63.0945C1690.41 -58.9305 1683.53 -51.2688 1685.78 -45.4392C1686.87 -43.2978 1688.28 -41.3326 1689.95 -39.6096C1701.49 -23.9114 1673.04 -17.4155 1663.75 -10.8781C1653.46 -3.63271 1642.92 5.77792 1629.42 5.31989C1625.59 5.31989 1621.75 4.3205 1617.92 4.44542C1613.47 4.87827 1609.12 6.03151 1605.05 7.85992L1587.92 14.3974C1586.03 14.8411 1584.25 15.6833 1582.71 16.868C1581.16 18.0527 1579.89 19.5526 1578.97 21.2679C1576.76 27.7637 1584.51 32.8438 1588.26 38.5901C1593.42 46.585 1590.47 57.6196 1584.63 65.1564C1578.8 72.6933 1570.59 77.9399 1563.8 84.5606C1555.93 92.0558 1549.72 101.217 1542.39 109.253C1556.35 108.379 1568.18 102.008 1582.55 98.8848C1602.2 94.3148 1621.53 88.4587 1640.42 81.3544C1677.29 67.9463 1713.65 52.2064 1752.31 44.4614C1754.25 43.9418 1756.29 43.9418 1758.23 44.4614C1762.02 45.6273 1763.69 49.8329 1765.56 53.289C1771.38 62.9884 1780.67 70.1065 1791.56 73.1929C1802.42 76.2117 1813.62 77.8487 1824.89 78.0648L1839.88 78.9809C1840.76 77.6484 1841.72 76.3576 1842.67 75.0668C1844.22 72.5684 1846.26 70.0283 1848.34 67.6549Z" fill="white" stroke="#436AE5" stroke-linecap="round" stroke-linejoin="round"/>
<path d="M1816.3 213.769C1816.59 216.642 1817.84 220.973 1820.47 219.848C1821.25 219.443 1821.87 218.782 1822.22 217.975C1835.42 194.198 1830.3 163.843 1841.17 139.109C1843.73 134.679 1845.16 129.689 1845.34 124.576C1844.92 119.496 1839.55 114.541 1834.96 116.79C1833.59 117.497 1832.09 118.747 1830.8 118.08C1830.39 117.811 1830.05 117.455 1829.8 117.037C1829.54 116.619 1829.39 116.151 1829.34 115.665C1826.34 102.882 1831.88 89.8486 1839.46 78.8973L1824.47 77.9812C1813.2 77.7651 1802 76.1282 1791.14 73.1094C1787.67 80.2159 1784.24 87.3225 1780.85 94.429C1779.81 96.1324 1779.29 98.0992 1779.35 100.092C1779.85 103.881 1784.31 106.255 1784.6 110.086C1784.89 113.916 1781.64 116.373 1781.56 119.829C1781.56 124.785 1787.26 127.241 1791.43 129.906C1794.62 131.991 1797.24 134.838 1799.05 138.19C1800.86 141.542 1801.81 145.293 1801.8 149.102C1801.8 162.427 1789.76 173.628 1789.97 186.953C1790.24 192.349 1792.04 197.559 1795.14 201.985C1795.86 201.294 1796.78 200.83 1797.76 200.652C1799.84 200.277 1801.98 200.319 1804.04 200.778C1806.11 201.236 1808.06 202.102 1809.78 203.323C1811.51 204.544 1812.98 206.097 1814.09 207.89C1815.21 209.684 1815.96 211.682 1816.3 213.769Z" fill="white" stroke="#436AE5" stroke-linecap="round" stroke-linejoin="round"/>
<path d="M1563.05 257.2L1770.6 188.494C1777.31 186.287 1783.97 184.038 1790.56 181.54C1792.85 170.422 1801.68 160.72 1801.85 149.019C1801.85 145.21 1800.91 141.459 1799.09 138.107C1797.28 134.755 1794.66 131.908 1791.47 129.823C1787.31 127.158 1781.43 124.701 1781.6 119.746C1781.6 116.29 1784.93 113.417 1784.64 110.003C1784.35 106.588 1779.89 103.798 1779.39 100.009C1779.33 98.0161 1779.86 96.0493 1780.89 94.3459C1784.31 87.2671 1787.74 80.1606 1791.18 73.0263C1780.38 69.9248 1771.17 62.8404 1765.39 53.2057C1763.52 49.7496 1761.85 45.5439 1758.06 44.378C1756.12 43.8584 1754.08 43.8584 1752.15 44.378C1713.49 52.123 1677.16 67.8629 1640.25 81.271C1621.36 88.3753 1602.03 94.2314 1582.38 98.8014C1568.01 101.924 1556.18 108.295 1542.22 109.17C1538.86 112.918 1535.05 116.245 1530.89 119.08C1537.72 148.339 1544.54 177.598 1551.35 206.857C1555.26 223.707 1559.16 240.488 1563.05 257.2Z" fill="white" stroke="#436AE5" stroke-linecap="round" stroke-linejoin="round"/>
<path d="M1820.01 253.577C1820.01 251.287 1820.01 248.955 1820.01 246.623C1819.76 240.461 1823.09 236.463 1817.72 233.424C1811.92 230.544 1806.56 226.856 1801.8 222.472C1799.42 220.232 1797.54 217.519 1796.27 214.507C1795 211.495 1794.37 208.251 1794.43 204.984C1794.42 203.971 1794.72 202.981 1795.3 202.152C1792.2 197.727 1790.41 192.516 1790.14 187.12C1790.11 185.328 1790.29 183.539 1790.68 181.79C1784.14 184.288 1777.51 186.495 1770.89 188.702C1781.44 212.283 1789.59 236.863 1795.22 262.072C1803.74 260.048 1812.04 257.203 1820.01 253.577Z" fill="white" stroke="#436AE5" stroke-linecap="round" stroke-linejoin="round"/>
<path d="M1614.34 266.652C1617.59 265.944 1619.63 262.779 1621.67 260.114C1625.25 255.409 1631.92 253.202 1636.37 248.788C1639.79 245.415 1644.04 241.751 1648.87 242.584C1652.41 243.209 1655.79 246.248 1659.12 244.874C1662.45 243.5 1662.7 239.503 1663.99 236.546C1664.94 234.697 1666.32 233.101 1668.01 231.89C1669.7 230.679 1671.65 229.888 1673.71 229.583C1675.77 229.277 1677.87 229.467 1679.84 230.134C1681.81 230.802 1683.59 231.93 1685.03 233.423C1686.1 235.298 1687.51 236.952 1689.2 238.295C1692.28 239.961 1696.16 238.295 1699.57 238.961C1706.2 240.585 1706.7 250.371 1712.07 254.326C1716.94 257.824 1724.57 256.075 1728.73 260.531C1729.93 262.395 1730.56 264.563 1730.56 266.777C1730.56 268.991 1729.93 271.159 1728.73 273.023C1726.32 276.689 1724.14 280.499 1722.19 284.432C1721.5 285.921 1721.39 287.617 1721.9 289.179C1722.64 290.352 1723.75 291.248 1725.05 291.729C1726.36 292.211 1727.78 292.251 1729.11 291.844C1731.74 291.009 1734.41 290.314 1737.11 289.762C1740.56 289.554 1743.94 291.178 1747.4 290.886C1751.56 290.553 1755.06 287.388 1758.94 285.723C1762.18 284.389 1765.75 284.055 1769.19 284.765C1770.56 282.85 1772.31 281.142 1772.14 278.852C1771.68 273.814 1763.23 274.438 1760.35 270.274C1758.52 267.568 1759.65 263.945 1759.4 260.697C1758.9 254.743 1753.85 250.329 1751.06 245.041C1744.73 232.549 1751.52 218.058 1758.23 205.982C1758.9 204.775 1759.81 203.401 1761.19 203.234C1763.48 203.026 1764.48 206.107 1764.35 208.398C1763.89 215.351 1760.19 221.764 1758.98 228.676C1757.77 235.588 1759.73 244.208 1766.39 246.373C1769.31 247.373 1773.43 247.497 1774.1 250.537C1774.18 252.144 1773.82 253.741 1773.06 255.159C1772.7 256.568 1772.66 258.037 1772.93 259.465C1773.19 260.894 1773.76 262.248 1774.6 263.434C1775.44 264.621 1776.53 265.612 1777.79 266.34C1779.04 267.068 1780.44 267.515 1781.89 267.651C1783.48 267.497 1785.08 267.595 1786.64 267.943C1793.51 270.566 1785.22 283.766 1791.35 287.847C1795.51 290.678 1802.39 285.39 1806.14 288.888C1809.89 292.385 1806.14 297.216 1803.6 300.963C1801.02 305.16 1799.69 310.001 1799.75 314.925C1799.82 319.849 1801.28 324.653 1803.97 328.779C1814.31 305.145 1819.63 279.622 1819.59 253.827C1811.55 257.408 1803.18 260.198 1794.6 262.155C1788.97 236.946 1780.82 212.366 1770.27 188.785L1611.96 241.293C1612.34 254.243 1612.92 266.985 1614.34 266.652Z" fill="white" stroke="#436AE5" stroke-linecap="round" stroke-linejoin="round"/>
<path d="M1352.13 185.871C1370.5 178.091 1389.33 171.417 1408.5 165.883C1408.25 158.971 1417.12 150.352 1418.95 145.063C1421.49 137.568 1419.37 129.407 1418.95 121.495C1418.54 113.584 1421.25 104.215 1428.74 101.633C1430.63 101.243 1432.46 100.628 1434.2 99.8008C1435.51 98.6211 1436.5 97.1376 1437.1 95.4815C1437.69 93.8255 1437.87 92.0481 1437.62 90.3069C1437.41 75.9828 1430.79 62.5331 1424.79 49.4998L1415.83 30.1789C1414.76 27.5092 1413.24 25.044 1411.33 22.8919C1409.98 21.6119 1408.35 20.6575 1406.58 20.1018C1404.8 19.5461 1402.92 19.4037 1401.08 19.6856C1396.98 20.6395 1393.39 23.109 1391.04 26.5979C1388.74 30.0663 1386.84 33.7816 1385.38 37.6741L1379.63 50.5825C1379.08 51.6474 1378.31 52.5827 1377.38 53.3247C1376.44 54.0667 1375.35 54.5979 1374.19 54.8824C1373.03 55.1668 1371.82 55.1978 1370.64 54.9732C1369.47 54.7485 1368.35 54.2735 1367.38 53.5805C1365.53 52.0302 1364.35 49.8195 1364.1 47.4173C1363.85 45.0152 1364.55 42.6107 1366.05 40.7138C1368.71 37.4659 1373.42 36.1751 1375.38 32.3858C1377.34 28.5966 1376 24.849 1376.42 21.0181C1377.28 17.0832 1378.68 13.286 1380.59 9.7337C1382.97 3.5335 1383.61 -3.20024 1382.45 -9.7394C1381.28 -16.2786 1378.34 -22.3743 1373.96 -27.3675C1372.68 -28.5218 1371.67 -29.9434 1371 -31.5315C1370.13 -34.5296 1372.13 -37.486 1373.34 -40.3591C1374.54 -43.2323 1374.42 -47.5212 1371.42 -48.354C1369.21 -48.9786 1366.8 -47.2297 1364.67 -48.1041C1363.3 -48.6871 1362.59 -50.1446 1361.5 -51.1439C1360.59 -51.8955 1359.54 -52.474 1358.42 -52.8511C1352.54 -55.1822 1346.29 -56.4647 1339.97 -56.6403C1336.65 -56.4961 1333.32 -56.8184 1330.09 -57.598C1325.59 -59.0554 1322.22 -62.7614 1317.97 -64.8434C1311.01 -68.2579 1301.72 -62.8863 1297.97 -56.7653C1295.14 -52.1432 1296.31 -44.7314 1301.47 -43.0658C1302.72 -42.6494 1304.22 -42.5661 1305.01 -41.4834C1305.81 -40.4008 1304.6 -37.3194 1302.64 -36.8198C1300.68 -36.3201 1298.47 -36.4033 1296.64 -35.6955C1292.06 -33.9882 1291.1 -27.9088 1291.81 -23.2035C1292.52 -18.4982 1294.18 -13.2515 1292.18 -8.79605C1291.85 -7.96847 1291.34 -7.22153 1290.69 -6.60433C1290.05 -5.98712 1289.28 -5.51361 1288.43 -5.21502C1285.23 -4.29894 1282.06 -7.1721 1280.98 -10.2951C1280.25 -13.5293 1279.78 -16.8148 1279.56 -20.1221C1279.52 -20.676 1279.36 -21.2143 1279.09 -21.6971C1278.81 -22.18 1278.43 -22.5952 1277.98 -22.912C1275.6 -23.9946 1274.19 -20.2887 1273.35 -17.7903C1271.19 -11.0863 1262.9 -8.04659 1259.94 -1.63404C1258.68 1.87125 1258.18 5.60474 1258.48 9.31728C1258.48 21.8092 1256.65 34.676 1256.52 47.3762C1255.85 60.1389 1258.57 72.8522 1264.4 84.2275C1267.98 89.4713 1271.31 94.8912 1274.35 100.467C1278.52 110.211 1277.85 121.287 1276.89 132.072C1276.32 145.274 1274.04 158.347 1270.1 170.963C1267.64 177.961 1263.89 184.442 1259.06 190.076C1290.1 188.504 1320.85 183.391 1350.71 174.836C1350.75 178.557 1351.23 182.261 1352.13 185.871Z" fill="white" stroke="#436AE5" stroke-linecap="round" stroke-linejoin="round"/>
<path d="M1607.09 825.418C1604.9 824.752 1602.6 824.553 1600.34 824.835C1598.22 825.621 1596.41 827.054 1595.15 828.93C1593.89 830.807 1593.26 833.031 1593.34 835.287C1593.13 839.784 1594.3 844.281 1593.92 848.737C1593.96 849.816 1593.71 850.886 1593.19 851.832C1592.67 852.778 1591.9 853.565 1590.97 854.108C1587.67 855.399 1584.97 851.526 1582.13 849.444C1577.97 846.321 1572.22 846.904 1567.09 847.612L1486.73 858.855C1477.03 860.187 1466.9 861.52 1457.57 858.355C1449.78 855.732 1442.99 850.027 1434.82 848.945C1429.92 848.578 1424.98 849.071 1420.24 850.402L1347.88 866.225C1339.98 867.756 1332.2 869.9 1324.63 872.638C1318.01 875.22 1310.72 880.966 1312.72 887.878C1313.68 891.168 1316.64 893.458 1318.43 896.414C1322.18 902.744 1319.97 910.655 1320.05 918.025C1323.01 917.333 1325.81 916.061 1328.28 914.281C1330.74 912.501 1332.83 910.25 1334.42 907.657C1335.38 905.52 1336.8 903.627 1338.59 902.119C1340.04 901.254 1341.66 900.714 1343.34 900.537C1366.33 896.827 1389.88 898.625 1412.04 905.783C1414 906.262 1415.82 907.22 1417.33 908.573C1419.24 910.655 1419.66 913.945 1421.87 915.694C1425.58 918.65 1431.99 915.694 1435.2 919.191C1437.57 921.773 1437.03 926.895 1440.41 927.894C1441.86 928.11 1443.33 927.8 1444.57 927.02L1476.69 911.946C1478.04 911.439 1479.23 910.593 1480.15 909.489C1482.11 906.616 1480.15 902.577 1481.11 899.329C1482.73 894.665 1489.44 894.79 1494.19 895.831C1505.19 898.121 1517.56 901.453 1522.73 911.405C1524.6 914.986 1525.27 919.15 1527.48 922.564C1531.98 929.601 1541.18 931.433 1548.81 935.056C1556.41 938.697 1562.85 944.386 1567.4 951.485C1571.95 958.584 1574.43 966.81 1574.55 975.239C1574.55 986.815 1569.59 998.39 1570.76 1010.26C1571.26 1015.13 1572.22 1021.46 1578.43 1021.33C1582.59 1021.33 1583.55 1016.17 1586.76 1015.88C1591.59 1015.5 1595.09 1021.88 1594.55 1026.04C1593.93 1028.65 1593.08 1031.2 1592.01 1033.66C1588.3 1045.15 1597.05 1056.6 1605.17 1065.51C1606.44 1067.27 1608.3 1068.5 1610.42 1068.97C1613.71 1069.26 1616.59 1065.76 1619.84 1066.39C1624.79 1067.3 1623.79 1075.3 1627.58 1078.59C1630.42 1081.05 1635.46 1080.5 1637.21 1083.75C1638.96 1087 1636.46 1090.25 1637.42 1093.37C1638.92 1098.24 1646.37 1097.87 1649.66 1101.7C1652.29 1104.82 1651.33 1109.57 1652.71 1113.44C1654.06 1116.36 1656.1 1118.91 1658.66 1120.85C1666.44 1127.88 1674.24 1134.9 1682.08 1141.92C1685 1144.85 1688.27 1147.41 1691.82 1149.54C1694.88 1150.37 1697.87 1151.42 1700.78 1152.67C1703.66 1157.12 1696.2 1157.79 1694.57 1161.87C1693.49 1164.58 1696.28 1167.57 1699.2 1167.91C1702.18 1167.91 1705.09 1166.99 1707.53 1165.28L1716.78 1160.08C1720.36 1158.42 1723.46 1155.87 1725.78 1152.67C1727.18 1149.88 1727.98 1146.83 1728.15 1143.71C1731.53 1115.36 1722.57 1089.17 1732.32 1062.35C1736.48 1051.15 1725.19 1040.7 1721.53 1029.37C1720.4 1026 1719.99 1022.42 1719.07 1019C1717.22 1013.25 1714.64 1007.75 1711.4 1002.64L1697.66 978.653C1694.52 972.611 1690.6 967.011 1685.99 961.997C1683.35 959.792 1681.01 957.243 1679.03 954.419C1678.09 952.985 1677.62 951.285 1677.71 949.569C1677.8 947.852 1678.44 946.21 1679.53 944.883L1686.37 951.795C1686.77 952.329 1687.37 952.687 1688.03 952.795C1689.95 952.795 1689.45 949.755 1688.32 948.214C1675.04 930.726 1663.33 912.237 1651.41 893.791C1644.59 884.42 1639.51 873.897 1636.42 862.728C1635.62 859.105 1634.83 838.077 1626.83 842.574C1622.34 845.072 1624.83 857.106 1625.21 861.062C1625.46 863.852 1628.21 880.008 1620.04 875.719C1618.84 875.095 1618.17 868.89 1617.96 867.724C1616.25 859.832 1617 851.604 1620.13 844.156C1622.94 839.543 1625.07 834.551 1626.46 829.332C1626.58 827.947 1626.58 826.554 1626.46 825.168C1620.09 826.578 1613.49 826.663 1607.09 825.418Z" fill="white" stroke="#436AE5" stroke-linecap="round" stroke-linejoin="round"/>
<path d="M1248.94 453.324C1253.68 452.033 1254.73 445.246 1259.18 443.206C1265.6 440.249 1273.26 449.243 1279.47 445.87C1284.1 443.414 1284.18 435.752 1289.05 433.92C1294.64 431.796 1301.84 439.25 1306.18 435.127C1310.51 431.005 1303.93 420.762 1309.47 418.055C1313.3 416.181 1317.13 421.345 1321.42 421.428C1322.91 421.24 1324.34 420.743 1325.63 419.968C1326.91 419.194 1328.02 418.159 1328.88 416.931C1336.38 408.811 1344.13 400.275 1346.42 389.323C1347.59 383.66 1347.5 377.04 1351.84 373.209C1356.17 369.378 1362.38 370.294 1367.92 369.586C1373.46 368.878 1379.91 364.298 1378 359.01C1377.32 357.575 1376.56 356.185 1375.71 354.846C1374.91 352.772 1374.77 350.501 1375.31 348.345C1375.86 346.19 1377.06 344.256 1378.75 342.812L1379.25 342.395C1370.25 290.179 1361.22 237.935 1352.17 185.663C1351.26 182.053 1350.79 178.349 1350.75 174.628C1320.88 183.183 1290.13 188.296 1259.1 189.868C1255.36 194.308 1250.73 197.923 1245.52 200.486C1243.65 201.531 1241.54 202.089 1239.4 202.11C1238.65 202.091 1237.9 201.964 1237.19 201.736C1240.6 246.957 1245.52 292.011 1252.73 336.816C1253.43 340.099 1253.56 343.481 1253.1 346.809C1252.19 351.514 1248.94 355.762 1249.19 360.55C1250.1 364.689 1251.74 368.635 1254.02 372.209C1258.18 381.537 1255.18 392.405 1251.1 401.774C1247.02 411.143 1241.77 420.387 1241.31 430.589C1241.06 436.501 1242.44 442.331 1242.6 448.244C1242.67 449.423 1242.67 450.604 1242.6 451.783C1244.45 453.055 1246.71 453.603 1248.94 453.324Z" fill="white" stroke="#436AE5" stroke-linecap="round" stroke-linejoin="round"/>
<path d="M1517.39 407.645C1514.69 405.854 1511.69 404.188 1509.06 402.44C1501.19 397.026 1496.56 388.199 1492.15 379.704C1488.69 373 1485.32 364.714 1489.07 358.26C1483.09 356.812 1477.66 353.692 1473.4 349.265C1469.57 345.101 1465.07 339.605 1459.82 341.729C1456.49 343.103 1455.15 347.225 1452.07 349.057C1445.74 352.888 1436.2 345.31 1430.7 350.265C1429.66 351.222 1428.87 352.555 1427.58 353.138C1424.03 354.762 1421.29 349.807 1418.04 347.725C1413.12 344.56 1406.75 348.099 1400.91 347.725C1393.54 347.725 1386.33 341.312 1379.5 344.144C1379.5 343.519 1379.5 342.936 1379.17 342.353L1378.67 342.77C1376.98 344.214 1375.78 346.148 1375.23 348.303C1374.69 350.458 1374.83 352.73 1375.63 354.803C1376.48 356.142 1377.24 357.533 1377.92 358.967C1379.83 364.256 1373.42 368.878 1367.84 369.544C1362.25 370.21 1355.96 369.544 1351.76 373.167C1347.55 376.789 1347.59 383.618 1346.34 389.281C1344.05 400.066 1336.3 408.769 1328.8 416.889C1327.94 418.117 1326.83 419.151 1325.55 419.926C1324.26 420.7 1322.83 421.198 1321.34 421.386C1317.18 421.386 1313.22 416.139 1309.39 418.013C1303.85 420.719 1310.55 430.838 1306.1 435.085C1301.64 439.332 1294.56 431.754 1288.97 433.878C1284.1 435.71 1284.02 443.372 1279.39 445.828C1273.18 449.201 1265.52 440.207 1259.1 443.163C1254.65 445.204 1253.6 451.991 1248.86 453.282C1246.57 453.686 1244.22 453.21 1242.27 451.949C1242.11 456.681 1240.11 461.162 1236.69 464.441C1236.15 464.827 1235.69 465.307 1235.32 465.857C1233.77 468.605 1238.11 470.729 1239.48 473.436C1241.65 477.141 1238.15 481.764 1234.48 483.929C1230.82 486.094 1226.15 488.384 1225.4 492.59C1224.9 494.963 1225.65 497.587 1224.4 499.627C1222.48 502.75 1217.61 501.792 1214.61 499.627C1211.61 497.462 1208.9 494.422 1205.24 494.214C1203.36 494.275 1201.55 494.917 1200.06 496.051C1198.57 497.185 1197.47 498.755 1196.91 500.543C1195.86 504.096 1195.61 507.833 1196.16 511.494C1196.82 520.905 1197.45 530.274 1198.11 539.685C1206.28 538.066 1214.58 537.119 1222.9 536.853C1238.65 535.437 1253.69 529.899 1268.73 525.236C1327.8 507.081 1390.04 502.292 1450.74 490.425C1453.82 489.842 1456.86 489.134 1459.95 488.468C1463.65 480.556 1469.12 473.602 1475.94 468.147C1481.32 463.983 1487.65 460.361 1491.02 454.448C1493.19 450.659 1493.98 446.12 1496.23 442.497C1501.86 434.835 1513.06 430.671 1514.35 421.219C1514.98 416.639 1513.15 410.934 1516.77 408.019C1516.97 407.88 1517.18 407.755 1517.39 407.645Z" fill="white" stroke="#436AE5" stroke-linecap="round" stroke-linejoin="round"/>
<path d="M1531.02 119.247L1529.1 120.538C1522.97 124.161 1515.93 126.326 1510.52 130.906C1503.27 137.069 1499.77 146.854 1492.1 152.434C1486.11 156.598 1478.48 157.889 1471.52 160.304C1460.73 164.01 1453.94 179.375 1442.65 180.791C1441.58 181.001 1440.47 180.783 1439.56 180.183C1438.65 179.584 1438.01 178.651 1437.78 177.585C1437.78 176.585 1438.11 175.461 1437.78 174.587C1437.5 174.191 1437.13 173.865 1436.71 173.634C1436.28 173.403 1435.81 173.273 1435.32 173.254C1431.24 173.011 1427.15 173.207 1423.12 173.837C1419.03 174.49 1414.85 173.535 1411.45 171.172C1410.65 170.533 1410 169.731 1409.54 168.818C1409.08 167.906 1408.82 166.905 1408.78 165.884C1389.64 171.428 1370.83 178.088 1352.46 185.829C1361.57 238.573 1370.71 291.414 1379.87 344.352C1386.71 341.521 1393.91 347.767 1401.29 347.934C1407.12 347.934 1413.49 344.561 1418.41 347.934C1421.66 350.016 1424.41 354.971 1427.95 353.347C1429.24 352.764 1430.03 351.431 1431.07 350.474C1436.57 345.518 1446.11 353.097 1452.44 349.266C1455.53 347.434 1456.86 343.311 1460.19 341.937C1465.32 339.814 1469.94 345.435 1473.77 349.474C1478.03 353.901 1483.47 357.021 1489.44 358.468C1489.44 358.468 1489.44 358.177 1489.44 358.052C1492.06 353.888 1497.02 351.931 1499.81 347.934C1502.6 343.936 1501.19 300.797 1510.73 322.033C1517.23 318.119 1517.89 309.083 1517.43 301.547C1516.98 294.01 1516.68 285.224 1522.31 280.185C1522.9 279.567 1523.7 279.182 1524.56 279.103C1527.35 279.103 1527.77 284.1 1530.52 284.433C1536.83 278.456 1540.8 270.424 1541.72 261.781C1544.64 245.874 1543.8 229.51 1545.89 213.478C1546.51 207.925 1547.61 202.436 1549.18 197.072C1543.04 171.033 1536.99 145.092 1531.02 119.247Z" fill="white" stroke="#436AE5" stroke-linecap="round" stroke-linejoin="round"/>
<path d="M1689.32 238.129C1687.63 236.786 1686.22 235.132 1685.16 233.257C1683.71 231.764 1681.93 230.636 1679.96 229.968C1677.99 229.301 1675.89 229.111 1673.83 229.417C1671.78 229.722 1669.82 230.513 1668.13 231.724C1666.44 232.935 1665.07 234.531 1664.12 236.38C1662.83 239.503 1662.37 243.625 1659.24 244.708C1656.12 245.791 1652.54 243.042 1649 242.418C1644.25 241.585 1640 245.249 1636.5 248.622C1632.04 253.036 1625.37 255.243 1621.79 259.948C1619.75 262.613 1617.63 265.778 1614.46 266.486C1612.92 266.819 1612.33 253.994 1612.08 240.836L1563.05 257.034C1559.16 240.378 1555.26 223.652 1551.34 206.857L1548.97 196.697C1547.4 202.061 1546.3 207.55 1545.68 213.103C1543.72 229.135 1544.55 245.499 1541.51 261.406C1540.59 270.049 1536.62 278.081 1530.31 284.058C1527.56 283.725 1527.14 278.728 1524.35 278.728C1523.49 278.808 1522.69 279.192 1522.1 279.811C1516.48 284.849 1516.81 293.593 1517.23 301.172C1517.64 308.75 1517.02 317.828 1510.52 321.659C1500.98 300.422 1502.19 343.811 1499.6 347.559C1497.02 351.306 1491.85 353.597 1489.23 357.677C1485.06 364.173 1488.6 372.668 1492.1 379.538C1496.27 387.866 1501.14 396.86 1509.02 402.274C1511.56 404.022 1514.56 405.688 1517.35 407.479C1518.56 406.902 1519.91 406.656 1521.25 406.766C1522.58 406.876 1523.87 407.337 1524.97 408.103C1527.29 409.922 1529.3 412.101 1530.93 414.557C1533.75 418.172 1537.01 421.417 1540.64 424.218C1543.76 426.675 1548.47 428.715 1551.34 426.05C1554.22 423.385 1552.47 417.014 1555.51 414.016C1557.59 412.101 1560.84 412.475 1563.84 412.142C1573.34 410.935 1579.59 400.608 1588.84 399.109C1593.25 398.443 1598.75 399.4 1601.34 395.778C1602.35 394.133 1602.8 392.205 1602.63 390.281C1602.42 381.953 1598.17 373.958 1599 365.672C1599.93 360.232 1601.94 355.034 1604.92 350.39C1610.04 341.146 1615.13 331.86 1620.25 322.575C1622.42 318.661 1625.17 314.247 1629.58 313.497C1631.48 313.436 1633.37 313.269 1635.25 312.998C1642.08 310.874 1639.75 299.881 1644.5 294.509C1646.22 292.889 1648.13 291.49 1650.2 290.345C1661.16 282.767 1660.87 266.819 1665.49 254.327C1666.99 250.163 1670.37 245.999 1674.53 246.873C1678.7 247.748 1680.99 253.369 1684.91 252.37C1687.28 251.745 1688.32 249.039 1689.07 246.665L1691.45 238.337C1690.73 238.385 1690.01 238.314 1689.32 238.129Z" fill="white" stroke="#436AE5" stroke-linecap="round" stroke-linejoin="round"/>
<path d="M1805.97 362.05C1804.34 360.494 1802.31 359.409 1800.11 358.911C1797.91 358.412 1795.62 358.518 1793.47 359.218C1789.22 360.678 1784.84 361.738 1780.39 362.383C1778.16 362.638 1775.9 362.079 1774.04 360.81C1772.19 359.541 1770.85 357.646 1770.27 355.47C1770.16 354.592 1770.34 353.703 1770.77 352.93C1773.14 349.183 1779.1 354.513 1783.27 352.93C1783.94 352.56 1784.52 352.057 1784.99 351.454C1785.46 350.851 1785.8 350.158 1786 349.419C1786.19 348.68 1786.24 347.909 1786.12 347.153C1786.01 346.396 1785.75 345.671 1785.35 345.019C1783.57 342.472 1781.2 340.4 1778.43 338.981C1775.69 337.191 1772.85 333.36 1775.23 331.111C1776.1 330.32 1777.35 330.112 1778.31 329.404C1781.06 327.28 1779.02 322.575 1775.94 321.076C1772.85 319.577 1769.1 319.743 1765.94 318.411C1762.77 317.078 1760.27 312.706 1762.69 310.083C1766.27 306.335 1772.81 312.998 1777.39 310.624C1781.98 308.251 1779.06 301.63 1775.35 298.465C1771.64 295.301 1766.73 291.47 1768.14 286.806C1768.48 285.888 1768.95 285.03 1769.56 284.266C1766.13 283.556 1762.56 283.89 1759.31 285.224C1755.44 286.89 1752.02 290.054 1747.77 290.387C1744.32 290.679 1740.94 289.055 1737.48 289.263C1734.78 289.815 1732.11 290.51 1729.48 291.345C1728.16 291.752 1726.73 291.712 1725.43 291.23C1724.13 290.749 1723.02 289.853 1722.28 288.68C1721.77 287.118 1721.87 285.422 1722.57 283.933C1724.51 280 1726.7 276.19 1729.11 272.524C1730.3 270.66 1730.94 268.492 1730.94 266.278C1730.94 264.064 1730.3 261.896 1729.11 260.032C1725.19 255.576 1717.49 257.325 1712.45 253.827C1706.9 249.663 1706.4 240.086 1699.95 238.462C1697.17 238.269 1694.39 238.269 1691.62 238.462L1689.24 246.79C1688.53 249.164 1687.49 251.87 1685.08 252.495C1681.16 253.494 1678.62 247.956 1674.7 246.998C1670.79 246.041 1667.16 250.455 1665.66 254.452C1661.04 266.944 1661.5 282.892 1650.37 290.471C1648.3 291.615 1646.39 293.014 1644.67 294.635C1639.92 300.006 1642.25 310.999 1635.42 313.123C1633.54 313.394 1631.65 313.561 1629.75 313.622C1625.33 314.455 1622.59 318.786 1620.42 322.7C1615.29 331.986 1610.21 341.271 1605.09 350.515C1602.11 355.159 1600.09 360.357 1599.17 365.797C1598.34 374.125 1602.59 382.078 1602.8 390.406C1602.97 392.33 1602.52 394.258 1601.51 395.903C1598.92 399.525 1593.42 398.568 1589.01 399.234C1579.55 400.733 1573.3 411.06 1564.01 412.267C1561.22 412.6 1557.97 412.267 1555.68 414.141C1552.51 417.139 1554.6 423.219 1551.51 426.175C1548.43 429.131 1543.93 426.8 1540.81 424.343C1537.18 421.542 1533.92 418.297 1531.1 414.682C1529.47 412.226 1527.46 410.047 1525.14 408.228C1523.95 407.329 1522.51 406.822 1521.02 406.777C1519.52 406.732 1518.05 407.152 1516.81 407.978C1513.19 410.893 1515.02 416.598 1514.39 421.178C1513.14 430.506 1501.9 434.586 1496.86 442.623C1494.61 446.329 1493.81 450.951 1491.65 454.573C1488.27 460.486 1481.94 464.026 1476.57 468.273C1469.74 473.728 1464.27 480.681 1460.57 488.593C1524.85 475.269 1587.34 454.449 1649.62 433.587L1812.6 378.955C1812.87 378.218 1813.11 377.468 1813.3 376.707C1815.01 369.961 1812.8 363.299 1805.97 362.05Z" fill="white" stroke="#436AE5" stroke-linecap="round" stroke-linejoin="round"/>
<path d="M1679.28 554.384C1667.33 546.889 1665.12 544.599 1652.66 551.511C1642.88 556.438 1632.42 559.876 1621.63 561.713C1619.52 562.443 1617.23 562.443 1615.13 561.713C1612.5 560.505 1611.42 557.549 1609.67 555.217C1604.46 548.596 1594.42 549.346 1586.17 550.678L1551.6 556.3C1541.66 557.363 1532 560.183 1523.06 564.628C1517.6 567.709 1512.81 571.956 1507.27 574.954C1503.4 576.91 1499.34 578.459 1495.15 579.576C1493.97 582.452 1493.15 585.458 1492.69 588.529C1492.15 591.503 1492.32 594.561 1493.19 597.455C1494.06 600.349 1495.6 602.998 1497.69 605.185C1501.85 609.349 1508.56 610.223 1513.44 613.721C1523.68 621.133 1522.35 631.668 1535.06 637.123C1544.3 641.287 1556.8 642.203 1564.47 649.198C1570.34 654.57 1571.68 664.314 1578.34 668.811C1581.48 670.321 1584.8 671.427 1588.21 672.1C1591.28 673.24 1593.97 675.219 1595.96 677.81C1597.96 680.402 1599.19 683.502 1599.5 686.757C1599.84 691.171 1598.5 695.835 1600.21 699.916C1602.42 705.246 1608.54 707.369 1613.09 711.075C1617.03 714.955 1620.28 719.492 1622.67 724.483C1625.07 729.49 1628.97 733.624 1633.83 736.309H1634.17C1634.45 734.94 1634.55 733.54 1634.46 732.145C1634.17 730.333 1634.32 728.479 1634.87 726.732C1635.46 725.399 1636.62 724.4 1637.12 723.067C1638.08 720.652 1636.71 717.987 1635.91 715.531C1635.12 713.074 1635.54 709.535 1638.04 708.91C1640.54 708.285 1642.21 710.284 1644.41 709.576C1646.62 708.868 1646.58 704.787 1647.95 702.456C1650.29 698.542 1656.29 699.874 1660.2 697.459C1662.91 695.71 1663.99 692.337 1665.95 689.756C1669.78 684.717 1676.91 682.718 1679.99 677.264C1680.84 675.468 1681.52 673.601 1682.03 671.684C1682.99 668.868 1684.4 666.225 1686.2 663.855C1690.91 657.36 1699.24 652.654 1700.03 644.66C1699.97 642.719 1700.13 640.779 1700.49 638.872C1701.24 637.026 1702.35 635.344 1703.74 633.916C1714.15 620.841 1714.19 600.604 1728.36 591.735C1728.76 590.99 1729.21 590.267 1729.69 589.57C1713.55 576.928 1696.72 565.181 1679.28 554.384Z" fill="white" stroke="#436AE5" stroke-linecap="round" stroke-linejoin="round"/>
<path d="M1261.39 655.528C1261.65 649.688 1260.86 643.85 1259.06 638.289C1257.52 634.769 1255.59 631.431 1253.31 628.337C1243.8 631.377 1234.04 633.592 1224.15 634.958L1154.87 646.325C1149.03 661.094 1142.51 675.557 1135.29 689.714C1128.62 702.622 1121.29 715.489 1118.62 729.772C1113.5 756.088 1123.95 782.03 1126.95 807.93C1130.2 836.62 1116.5 861.645 1111.16 889.378C1109.83 893.495 1110.13 897.966 1112 901.87C1115.29 907.033 1122.95 907.283 1128.66 904.993C1134.37 902.702 1139.24 898.622 1145.08 896.665C1155.62 893.25 1167.32 897.789 1178.15 895.415C1183.07 894.333 1187.61 891.876 1192.57 891.251C1195.02 890.645 1197.6 890.854 1199.92 891.845C1202.25 892.837 1204.18 894.558 1205.44 896.748C1207.19 900.912 1204.86 905.867 1205.44 910.489C1205.94 916.402 1210.77 920.857 1213.77 925.854C1215.86 929.126 1217.27 932.777 1217.94 936.597C1222.61 936.624 1227.23 935.629 1231.48 933.682C1235.68 931.084 1239.7 928.204 1243.52 925.063C1247.69 922.092 1252.86 920.853 1257.93 921.607C1263.91 922.928 1270.17 922.009 1275.51 919.025C1273.91 912.601 1272.66 906.096 1271.76 899.538C1259.31 818.964 1262.31 737.1 1261.39 655.528Z" fill="white" stroke="#436AE5" stroke-linecap="round" stroke-linejoin="round"/>
<path d="M1432.82 796.854C1431.03 788.276 1428.66 778.282 1434.45 771.662C1436.7 769.08 1440.2 766.623 1439.45 763.334C1438.93 761.756 1437.92 760.385 1436.57 759.419C1430.93 754.571 1426.11 748.849 1422.28 742.472C1419.09 736.144 1416.66 729.464 1415.03 722.568C1404.37 684.398 1393.69 646.214 1383 608.017C1365.17 612.347 1347.32 616.511 1329.46 620.509C1317.34 623.257 1304.84 626.005 1292.64 623.84C1285.8 622.591 1278.97 619.884 1272.14 620.967C1267.78 622.059 1263.58 623.711 1259.64 625.88C1257.64 626.796 1255.48 627.587 1253.48 628.337C1255.76 631.431 1257.68 634.769 1259.23 638.289C1261.02 643.85 1261.81 649.688 1261.56 655.528C1262.48 736.975 1259.48 818.84 1271.39 899.413C1272.29 905.971 1273.54 912.476 1275.14 918.9C1279.81 916.402 1284.1 912.863 1289.64 909.823C1299.39 904.451 1302.72 917.484 1312.93 918.484C1315.38 918.708 1317.86 918.511 1320.26 917.901C1320.26 910.531 1322.38 902.619 1318.63 896.29C1316.84 893.333 1313.88 891.043 1312.93 887.754C1310.93 880.925 1318.22 875.262 1324.84 872.513C1332.41 869.775 1340.18 867.631 1348.09 866.101L1420.45 850.278C1424.9 849.077 1429.51 848.571 1434.11 848.779C1436.9 831.54 1436.46 813.933 1432.82 796.854Z" fill="white" stroke="#436AE5" stroke-linecap="round" stroke-linejoin="round"/>
<path d="M1622.66 724.108C1620.27 719.117 1617.03 714.58 1613.08 710.7C1608.67 706.994 1602.42 704.87 1600.21 699.541C1598.5 695.377 1599.83 690.796 1599.5 686.382C1599.18 683.127 1597.96 680.027 1595.96 677.435C1593.96 674.843 1591.28 672.865 1588.21 671.725C1584.79 671.051 1581.48 669.946 1578.34 668.436C1571.67 663.938 1570.34 654.195 1564.47 648.823C1556.8 641.828 1544.3 640.745 1535.05 636.747C1522.35 631.293 1523.68 620.758 1513.43 613.346C1508.56 609.848 1502.06 608.89 1497.68 604.81C1495.6 602.623 1494.06 599.974 1493.19 597.08C1492.32 594.186 1492.15 591.127 1492.69 588.154C1493.15 585.083 1493.97 582.077 1495.14 579.201L1490.98 580.409C1455.15 589.986 1419.23 599.119 1383.2 607.808C1393.87 646.005 1404.55 684.189 1415.24 722.359C1416.87 729.255 1419.3 735.936 1422.49 742.263C1426.31 748.64 1431.14 754.362 1436.78 759.21C1438.13 760.176 1439.14 761.547 1439.65 763.125C1440.4 766.456 1436.9 768.913 1434.65 771.453C1428.95 778.073 1431.24 788.109 1433.03 796.645C1436.63 813.775 1437.01 831.425 1434.15 848.695H1435.07C1443.4 849.777 1450.03 855.482 1457.82 858.105C1467.11 861.27 1477.23 859.937 1486.98 858.605L1567.34 847.362C1572.46 846.654 1578.21 846.071 1582.38 849.194C1585.21 851.276 1587.92 855.149 1591.21 853.858C1592.14 853.315 1592.91 852.528 1593.43 851.582C1593.96 850.636 1594.21 849.566 1594.17 848.486C1594.54 844.031 1593.38 839.534 1593.59 835.037C1593.51 832.781 1594.14 830.556 1595.39 828.68C1596.65 826.804 1598.47 825.371 1600.58 824.585C1602.85 824.303 1605.15 824.502 1607.33 825.168C1613.75 826.432 1620.36 826.361 1626.75 824.96C1626.75 823.045 1626.33 821.129 1626.04 819.255C1623.67 803.23 1623.41 786.964 1625.25 770.87C1625.65 762.884 1627.05 754.981 1629.41 747.343C1631.41 743.663 1633.06 739.801 1634.33 735.809H1634C1629.09 733.184 1625.13 729.093 1622.66 724.108Z" fill="white" stroke="#436AE5" stroke-linecap="round" stroke-linejoin="round"/>
<path d="M1461.65 558.423C1467.07 553.593 1469.52 546.264 1474.15 540.893C1480.06 534.313 1489.23 530.899 1493.77 523.362C1497.56 517.116 1498.73 507.83 1505.77 505.915C1508.44 505.602 1511.12 505.435 1513.81 505.415C1520.64 504.333 1524.56 497.087 1530.47 493.673C1533.18 492.132 1536.35 491.466 1538.8 489.759C1541.11 488.099 1542.98 485.915 1544.27 483.388C1545.56 480.861 1546.23 478.063 1546.22 475.226C1546.3 472.43 1546.05 469.635 1545.47 466.898C1514.22 476.101 1482.69 484.346 1450.74 490.592C1390.04 502.459 1327.8 507.247 1268.72 525.402C1253.56 530.066 1238.52 535.604 1222.9 537.02C1209.19 538.269 1192.99 537.353 1184.45 548.138C1180.85 553.615 1178.59 559.864 1177.86 566.376C1172.4 593.705 1164.54 620.5 1154.37 646.45L1223.65 635.082C1235.8 633.61 1247.7 630.559 1259.06 626.005C1263 623.835 1267.2 622.184 1271.56 621.091C1278.39 620.008 1285.22 622.715 1292.05 623.964C1304.26 626.13 1316.76 623.381 1328.88 620.633C1363.62 612.666 1398.24 604.338 1432.74 595.649C1432.95 587.321 1433.61 577.91 1439.4 571.748C1445.19 565.585 1455.28 563.919 1461.65 558.423Z" fill="white" stroke="#436AE5" stroke-linecap="round" stroke-linejoin="round"/>
<path d="M1836.05 419.221C1835.63 416.098 1833.59 412.184 1830.59 413.058C1828.92 413.517 1828.05 415.265 1827.26 416.806C1825.09 420.97 1821.34 425.342 1816.64 424.884C1813.43 424.593 1810.8 422.178 1807.72 421.262C1797.76 418.222 1797.93 428.673 1791.51 429.798C1785.1 430.922 1782.56 420.137 1783.18 415.349C1785.22 401.608 1791.01 422.511 1797.3 411.185C1799.85 406.729 1803.47 410.602 1806.43 408.978C1809.39 407.354 1809.14 402.69 1812.22 400.9C1813.51 400.15 1815.18 400.358 1816.39 399.734C1819.51 398.235 1818.8 393.446 1816.76 390.656C1814.72 387.866 1811.76 385.243 1811.76 381.787C1811.8 380.794 1811.98 379.811 1812.3 378.872L1649.33 433.504C1614.96 444.996 1580.55 456.489 1545.8 466.816C1546.39 469.552 1546.64 472.348 1546.55 475.144C1546.56 477.98 1545.89 480.778 1544.6 483.305C1543.31 485.832 1541.44 488.016 1539.14 489.676C1536.47 491.383 1533.31 492.049 1530.81 493.59C1524.77 496.921 1520.85 504.25 1514.14 505.333C1511.46 505.353 1508.77 505.519 1506.1 505.832C1499.06 507.748 1497.77 517.033 1494.1 523.279C1489.56 530.816 1480.4 534.231 1474.48 540.81C1469.65 546.181 1467.19 553.302 1461.98 558.34C1455.61 563.962 1446.15 565.336 1440.32 571.54C1434.49 577.744 1433.86 586.905 1433.66 595.441C1452.85 590.583 1472 585.6 1491.11 580.493C1496.86 579.177 1502.45 577.221 1507.77 574.663C1513.31 571.665 1518.1 567.418 1523.56 564.336C1532.5 559.891 1542.16 557.071 1552.1 556.008L1586.67 550.387C1595 549.054 1604.96 548.305 1610.17 554.926C1611.92 557.174 1613 560.214 1615.63 561.422C1617.73 562.151 1620.02 562.151 1622.13 561.422C1632.74 559.603 1643.03 556.236 1652.66 551.428C1665.16 544.516 1667.33 546.806 1679.28 554.301C1696.57 565.057 1713.26 576.748 1729.27 589.32C1732.25 584.545 1736.43 580.638 1741.4 577.994C1745.11 576.037 1749.19 574.871 1752.94 572.997C1756.84 571.391 1760.03 568.435 1761.94 564.669C1762.79 562.05 1763.34 559.338 1763.56 556.591C1765.56 543.725 1774.64 530.65 1782.1 520.198C1784.65 516.27 1788.06 512.974 1792.07 510.557C1796.09 508.141 1800.6 506.667 1805.26 506.249C1807.28 506.319 1809.3 506.221 1811.3 505.957C1812.32 505.82 1813.27 505.421 1814.08 504.801C1814.9 504.18 1815.53 503.359 1815.93 502.418C1816.2 501.188 1816.33 499.93 1816.3 498.67C1816.55 496.088 1818.01 493.798 1818.38 491.217C1818.76 488.635 1819.63 488.135 1817.26 487.053C1813.09 485.179 1808.26 488.01 1804.76 491.008C1801.26 494.006 1797.64 497.588 1793.06 497.296C1788.47 497.005 1784.93 490.092 1788.89 487.885C1790.21 487.342 1791.63 487.101 1793.06 487.178C1795.15 487.208 1797.22 486.732 1799.09 485.789C1800.97 484.847 1802.58 483.466 1803.8 481.764C1804.35 480.89 1804.69 479.908 1804.82 478.886C1804.94 477.865 1804.84 476.828 1804.53 475.849C1804.21 474.87 1803.68 473.972 1802.98 473.217C1802.28 472.462 1801.42 471.869 1800.47 471.479C1797.99 471.289 1795.49 471.472 1793.06 472.021C1790.56 472.021 1787.52 470.438 1788.01 467.857C1789.01 462.818 1800.3 467.357 1800.51 462.235C1800.46 461.362 1800.27 460.503 1799.93 459.695C1799.72 458.289 1799.91 456.853 1800.48 455.55C1801.05 454.248 1801.97 453.131 1803.14 452.328C1804.32 451.524 1805.69 451.067 1807.11 451.007C1808.53 450.948 1809.94 451.289 1811.18 451.992C1812.89 453.283 1814.01 455.365 1815.89 456.406C1820.05 458.571 1824.68 455.073 1827.43 451.409C1834.29 442.166 1837.37 430.656 1836.05 419.221Z" fill="#76B5FF" stroke="#436AE5" stroke-linecap="round" stroke-linejoin="round"/>
<path d="M1212.95 154.932C1212.95 148.686 1214.74 142.44 1212.95 136.361C1211.88 133.717 1210.57 131.179 1209.03 128.782C1205.78 122.853 1203.83 116.296 1203.32 109.552C1202.81 102.809 1203.75 96.0338 1206.07 89.6825C1208.28 85.5801 1209.37 80.9715 1209.24 76.3161C1208.86 74.0675 1207.7 72.1521 1207.36 69.737C1206.28 62.4917 1213.45 56.3706 1213.74 48.9171C1213.59 46.1242 1213.27 43.343 1212.78 40.5891C1212.9 34.4347 1214.32 28.3747 1216.95 22.8088C1218.61 18.0619 1227.32 -9.00408 1217.86 -8.87917C1213.7 -8.87917 1210.57 -4.71519 1208.74 -0.967606C1203.82 9.40074 1202.82 21.6012 1196.24 30.9286C1193.99 34.0516 1189.49 36.8831 1186.58 34.3431C1185.95 33.686 1185.47 32.9052 1185.17 32.0516C1184.87 31.1979 1184.75 30.2903 1184.83 29.3879C1184.83 17.6038 1197.32 8.56796 1197.32 -3.09122C1197.31 -4.82003 1197.17 -6.54553 1196.91 -8.25459C1193.87 -10.6203 1191.37 -13.6094 1189.58 -17.021C1187.79 -20.4327 1186.75 -24.1877 1186.53 -28.0336C1186.53 -31.6146 1186.53 -36.1534 1183.16 -37.6107C1181.7 -38.028 1180.18 -38.2382 1178.66 -38.2353C1176.5 -38.6042 1174.56 -39.7827 1173.23 -41.531C1171.91 -43.2793 1171.3 -45.466 1171.54 -47.6459C1161.24 -46.4334 1150.81 -47.3982 1140.92 -50.4775C1132.58 -53.0175 1124.92 -57.0149 1116.55 -59.0137C1106.96 -61.3039 1096.88 -60.9291 1087.17 -62.6363C1084.03 -62.8515 1081.07 -64.1976 1078.84 -66.4256C1077.38 -68.5535 1076.56 -71.0517 1076.47 -73.6293C1076.47 -74.9201 1076.47 -76.1693 1076.47 -77.4601C1075.14 -76.7683 1073.75 -76.2237 1072.3 -75.8362C1067.43 -74.5453 1053.68 -71.9637 1051.14 -77.5434C1049.18 -81.7074 1056.72 -87.3288 1053.35 -92.5338C1051.22 -95.865 1046.1 -93.6581 1042.85 -91.4095C1034.27 -85.3702 1024.74 -80.8229 1014.65 -77.9598C1011.6 -76.7453 1008.2 -76.7453 1005.15 -77.9598L1000.73 -74.587C996.565 -71.464 992.399 -67.7997 991.732 -62.7612C991.716 -59.5262 992.266 -56.3132 993.357 -53.2673C996.023 -41.6082 990.483 -32.4474 983.775 -23.4531C978.818 -16.874 967.569 -7.00535 972.194 2.19707C975.152 8.10994 983.775 10.2752 985.15 16.771C986.775 24.5993 976.401 30.0125 975.235 37.9241C973.944 46.7101 984.15 52.5814 992.899 54.2886C1001.65 55.9958 1011.98 57.0785 1016.39 64.7819C1018.1 67.6967 1018.6 71.1944 1020.19 74.1925C1027.18 87.3923 1050.14 84.4359 1056.85 97.7607C1058.52 101.908 1059.24 106.374 1058.97 110.836C1059.4 126.975 1061.59 143.018 1065.51 158.68C1067.47 166.467 1071.76 175.669 1079.8 175.836C1082.38 175.836 1085.22 174.878 1087.51 176.169C1088.66 176.856 1089.54 177.913 1090.01 179.167C1130 168.34 1172.74 168.34 1213.36 160.012C1213.11 158.331 1212.97 156.633 1212.95 154.932Z" fill="white" stroke="#436AE5" stroke-linecap="round" stroke-linejoin="round"/>
<path d="M1253.89 372.375C1251.61 368.801 1249.98 364.855 1249.06 360.716C1248.85 355.928 1252.06 351.68 1252.98 346.975C1253.43 343.647 1253.31 340.265 1252.6 336.981C1245.56 292.177 1240.48 247.123 1237.06 201.902C1235.97 201.573 1234.92 201.112 1233.94 200.527C1226.31 196.03 1222.56 187.286 1219.27 179.125C1216.56 173.051 1214.57 166.677 1213.36 160.137C1172.53 168.465 1130.04 168.465 1089.96 179.208C1090.5 180.457 1090.88 181.831 1091.33 183.122C1094.75 192.907 1105 198.654 1110.04 207.731C1111.69 211.054 1112.64 214.678 1112.83 218.381C1113.03 222.083 1112.46 225.787 1111.18 229.265C1109.89 232.742 1107.91 235.921 1105.35 238.605C1102.79 241.289 1099.71 243.422 1096.29 244.874C1088.17 247.872 1076 250.121 1077.13 258.698C1077.55 260.629 1078.27 262.482 1079.25 264.195C1087.79 283.391 1067.88 303.087 1065.09 323.907C1064.36 329.625 1064.94 335.436 1066.78 340.897C1068.63 346.358 1071.7 351.328 1075.75 355.428C1081.09 360.758 1087.96 364.381 1093.67 369.377C1098.72 373.865 1102.77 379.366 1105.55 385.521C1108.34 391.677 1109.8 398.349 1109.83 405.104C1116.37 400.94 1125.62 397.151 1130.95 402.689C1137.29 409.185 1130.25 419.762 1130.45 428.839C1130.87 447.202 1158.74 451.366 1166.61 467.939C1171.36 477.974 1168.11 491.382 1175.78 499.377C1181.03 504.79 1189.57 505.665 1196.36 508.704C1196.15 505.989 1196.48 503.258 1197.32 500.668C1197.88 498.88 1198.98 497.31 1200.47 496.176C1201.97 495.042 1203.78 494.4 1205.65 494.339C1209.32 494.547 1212.07 497.628 1215.02 499.752C1217.98 501.876 1222.9 502.875 1224.81 499.752C1226.06 497.712 1225.31 495.088 1225.81 492.715C1226.73 488.551 1231.23 486.344 1234.89 484.054C1238.56 481.764 1242.06 477.266 1239.89 473.56C1238.31 470.854 1233.98 468.73 1235.73 465.982C1236.1 465.432 1236.56 464.952 1237.1 464.566C1239.18 462.458 1240.77 459.917 1241.76 457.125C1242.75 454.332 1243.1 451.357 1242.81 448.41C1242.81 442.497 1241.27 436.667 1241.52 430.755C1241.98 420.553 1247.23 411.309 1251.31 401.94C1255.39 392.571 1258.02 381.744 1253.89 372.375Z" fill="white" stroke="#436AE5" stroke-linecap="round" stroke-linejoin="round"/>
<path d="M1058.92 110.919C1059.19 106.457 1058.47 101.991 1056.8 97.8439C1050.09 84.5191 1027.14 87.4755 1020.14 74.2757C1018.56 71.2776 1018.06 67.7798 1016.35 64.865C1011.93 57.1616 1001.56 56.079 992.851 54.3718C984.144 52.6646 973.896 46.7933 975.187 38.0073C976.354 30.0957 986.727 24.6825 985.102 16.8542C983.728 10.3583 975.104 8.19305 972.146 2.28018C967.522 -6.92224 978.77 -16.7908 983.728 -23.37C990.435 -32.2809 995.976 -41.525 993.309 -53.1842C992.219 -56.2301 991.669 -59.443 991.685 -62.6781C992.268 -67.7165 996.642 -71.3809 1000.68 -74.5039L1005.1 -77.8767C1004.33 -78.3255 1003.7 -78.9728 1003.27 -79.7505L1040.26 -127.303C1043.54 -132.019 1047.5 -136.228 1052.01 -139.795C1058.06 -143.359 1064.37 -146.476 1070.88 -149.123C1077.09 -152.329 1084.38 -157.451 1085.29 -164.488C1082 -172.191 1071.13 -172.399 1062.96 -170.484C1054.8 -168.568 1045.05 -166.32 1038.84 -171.858C1037.26 -173.315 1035.97 -175.314 1033.89 -176.022C1029.72 -177.354 1026.47 -173.107 1023.93 -169.734C1021.39 -166.362 1016.14 -163.322 1013.43 -166.57C1011.76 -168.568 1012.26 -172.025 1010.1 -173.482C1007.93 -174.939 1005.93 -173.482 1003.43 -173.482C998.559 -173.107 994.768 -177.646 990.518 -179.936C986.269 -182.226 978.687 -180.977 979.353 -176.105L971.48 -195.551C970.938 -196.925 970.147 -198.549 968.647 -198.799C968.081 -198.824 967.515 -198.734 966.985 -198.534C966.455 -198.333 965.971 -198.027 965.564 -197.633C959.273 -192.72 953.066 -183.684 945.734 -187.265C942.609 -188.805 940.11 -192.678 936.777 -191.762C934.277 -191.054 933.236 -187.973 930.945 -186.765C926.112 -184.183 921.946 -191.221 917.03 -193.719C912.114 -196.217 906.449 -193.969 901.116 -192.844C885.952 -189.68 881.536 -208.751 879.495 -220.16C878.953 -223.2 878.287 -226.781 875.329 -228.155C873.736 -228.632 872.025 -228.53 870.5 -227.867C868.975 -227.204 867.734 -226.023 866.997 -224.532C865.63 -221.506 864.434 -218.406 863.414 -215.247C855.082 -197.342 822.212 -202.213 806.632 -202.13C798.925 -202.13 791.176 -202.13 783.469 -202.13C785.517 -198.992 787.247 -195.659 788.635 -192.178C791.092 -184.933 787.301 -179.686 787.385 -173.024C787.385 -168.86 790.093 -166.82 791.176 -162.947C792.842 -156.951 789.718 -151.538 790.218 -145.5C790.718 -139.462 794.759 -133.341 797.8 -127.803C805.599 -113.474 809.208 -97.2403 808.215 -80.958C807.474 -75.3407 807.292 -69.6637 807.673 -64.0106C808.818 -58.3767 810.549 -52.8781 812.839 -47.6044C817.909 -33.7504 819.885 -18.9555 818.63 -4.25725C817.963 3.11302 816.672 11.1911 820.671 17.3955C822.504 20.227 825.295 22.3923 827.045 25.2654C829.071 29.3446 830.018 33.8748 829.794 38.4237L833.294 132.03C833.294 135.653 833.544 139.317 833.586 143.023C909.115 138.568 984.686 133.696 1059.67 123.869C1059.3 119.58 1059.05 115.249 1058.92 110.919Z" fill="white" stroke="#436AE5" stroke-linecap="round" stroke-linejoin="round"/>
<path d="M961.484 319.91C977.197 316.927 993.116 315.145 1009.1 314.58C1015.96 314.94 1022.84 314.479 1029.6 313.206C1036.01 311.374 1040.22 308.542 1047.47 310C1054.72 311.457 1059.72 317.162 1065.59 321.201C1069.76 301.38 1087.42 282.559 1079.26 264.237C1078.27 262.525 1077.55 260.671 1077.13 258.741C1076.01 250.163 1088.17 247.914 1096.29 244.916C1099.71 243.464 1102.79 241.331 1105.35 238.647C1107.91 235.963 1109.89 232.785 1111.18 229.307C1112.47 225.83 1113.03 222.126 1112.83 218.423C1112.64 214.72 1111.69 211.096 1110.04 207.774C1105 198.696 1094.75 192.95 1091.34 183.164C1090.42 180.583 1089.84 177.543 1087.46 176.252C1085.09 174.961 1082.34 175.961 1079.76 175.919C1071.72 175.919 1067.26 166.55 1065.47 158.763C1062.6 147.306 1060.67 135.637 1059.68 123.869C984.688 133.696 909.117 138.568 833.588 143.023C834.001 152.732 833.104 162.452 830.922 171.922C829.786 175.468 829.032 179.125 828.672 182.831C828.736 186.118 829.24 189.381 830.172 192.533C832.402 203.84 836.187 214.784 841.42 225.054C843.128 228.094 845.128 230.967 846.752 234.048C849.789 240.806 852.364 247.762 854.459 254.868C856.917 262.53 859.333 270.192 861.791 277.854C863.945 284.135 865.753 290.529 867.207 297.008C868.624 304.961 868.249 313.164 869.873 321.076C870.151 322.492 870.485 323.88 870.873 325.24C883.163 324.719 895.4 323.328 907.492 321.076C925.739 317.745 943.07 323.449 961.484 319.91Z" fill="white" stroke="#436AE5" stroke-linecap="round" stroke-linejoin="round"/>
<path d="M1146.91 577.077C1146.53 578.539 1146.53 580.071 1146.91 581.533C1148.49 586.03 1155.03 584.989 1159.41 583.532C1164.5 581.869 1169.77 580.779 1175.11 580.284C1176.19 575.662 1177.24 571.04 1178.15 566.376C1178.88 559.864 1181.14 553.615 1184.74 548.138C1188.24 543.925 1193.05 540.996 1198.4 539.81C1197.73 530.399 1197.11 521.03 1196.44 511.62C1196.44 510.662 1196.44 509.704 1196.23 508.705C1189.44 505.665 1180.9 504.791 1175.65 499.377C1167.99 491.382 1171.24 477.974 1166.49 467.939C1158.61 451.283 1130.74 447.119 1130.33 428.839C1130.12 419.762 1137.16 409.185 1130.83 402.689C1125.49 397.151 1116.25 400.982 1109.71 405.105C1109.67 398.349 1108.21 391.677 1105.43 385.521C1102.64 379.366 1098.59 373.866 1093.54 369.378C1087.83 364.381 1081.04 360.758 1075.63 355.428C1071.57 351.328 1068.51 346.359 1066.66 340.897C1064.81 335.436 1064.23 329.625 1064.96 323.907C1064.96 322.991 1065.13 322.075 1065.46 321.158C1059.59 316.994 1054.34 311.331 1047.34 309.957C1040.34 308.583 1035.88 311.331 1029.47 313.164C1022.72 314.437 1015.83 314.898 1008.97 314.538C992.987 315.103 977.069 316.885 961.355 319.868C942.941 323.407 925.611 317.702 907.197 321.117C895.105 323.369 882.868 324.76 870.578 325.281C871.668 330.579 874.376 335.409 878.327 339.105C880.5 340.895 882.407 342.984 883.993 345.31C891.658 356.178 909.822 360.633 910.905 374.083C911.405 380.204 907.78 386.117 908.322 392.238C909.238 403.189 920.403 405.771 925.694 413.807C933.401 425.425 932.526 442.331 932.11 455.447C930.902 496.421 936.859 537.02 942.4 577.744C1011.51 565.835 1081.38 559.006 1151.2 552.26C1149.89 560.644 1148.46 568.916 1146.91 577.077Z" fill="white" stroke="#436AE5" stroke-linecap="round" stroke-linejoin="round"/>
<path d="M1118.58 729.896C1121.37 715.614 1128.7 702.747 1135.24 689.839C1153.07 655.118 1166.52 618.318 1175.28 580.284C1169.94 580.78 1164.67 581.869 1159.57 583.532C1155.03 584.99 1148.49 586.031 1147.08 581.534C1146.7 580.072 1146.7 578.54 1147.08 577.078C1148.63 568.917 1150.16 560.755 1151.66 552.594C1081.84 559.339 1011.97 566.168 942.859 578.077C946.317 603.394 949.608 628.795 950.9 654.278C952.566 686.549 952.566 720.486 956.065 752.59C958.224 754.475 960.76 755.878 963.505 756.704C966.249 757.529 969.139 757.76 971.98 757.379C975.479 756.879 979.687 755.672 981.978 758.378C982.997 759.885 983.494 761.684 983.394 763.5C983.936 774.118 984.228 784.82 984.311 795.479C1029.53 786.539 1075.24 780.352 1121.21 776.95C1117.87 761.335 1115.33 745.678 1118.58 729.896Z" fill="white" stroke="#436AE5" stroke-linecap="round" stroke-linejoin="round"/>
<path d="M1248.6 997.766C1247.85 994.955 1246.32 992.411 1244.19 990.424C1242.07 988.436 1239.42 987.085 1236.56 986.523C1234.05 986.318 1231.55 985.985 1229.07 985.524C1226.9 984.886 1225 983.576 1223.63 981.785C1222.26 979.993 1221.5 977.812 1221.45 975.558C1221.4 973.303 1222.08 971.093 1223.37 969.246C1224.67 967.4 1226.51 966.013 1228.65 965.287C1230.7 964.881 1232.7 964.296 1234.65 963.538C1235.67 962.788 1236.52 961.814 1237.11 960.69C1237.7 959.565 1238.03 958.321 1238.06 957.051C1238.1 955.781 1237.84 954.519 1237.32 953.363C1236.79 952.207 1236.01 951.186 1235.02 950.38C1232.89 948.904 1230.34 948.13 1227.74 948.168C1225.14 948.205 1222.62 949.051 1220.53 950.588C1218.48 952.273 1216.3 953.804 1214.03 955.168C1212.86 955.811 1211.5 956.03 1210.19 955.787C1208.87 955.544 1207.68 954.855 1206.82 953.836C1204.74 950.63 1207.69 945.258 1204.57 943.051C1201.45 940.844 1198.78 943.925 1196.49 946.049C1193.82 948.724 1190.41 950.547 1186.7 951.288C1183 952.029 1179.15 951.655 1175.66 950.213C1168.95 946.715 1166.62 936.014 1172.58 931.35C1178.53 926.687 1186.95 930.268 1194.03 932.766C1200.95 935.234 1208.22 936.543 1215.57 936.639H1217.53C1216.86 932.818 1215.44 929.167 1213.36 925.895C1210.24 920.899 1205.4 916.443 1205.03 910.53C1204.61 905.908 1206.94 901.078 1205.03 896.789C1203.77 894.599 1201.84 892.878 1199.51 891.887C1197.19 890.895 1194.61 890.686 1192.16 891.293C1187.2 892.042 1182.66 894.499 1177.74 895.457C1166.91 897.83 1155.2 893.291 1144.66 896.706C1138.83 898.58 1133.96 902.66 1128.25 905.034C1122.54 907.407 1114.92 907.074 1111.59 901.911C1109.72 898.007 1109.42 893.536 1110.75 889.419C1116.08 861.687 1129.79 836.661 1126.54 807.971C1125.37 797.603 1123 787.151 1120.92 776.866C1074.95 780.268 1029.24 786.456 984.023 795.396C984.023 807.749 983.842 820.102 983.481 832.455C982.68 842.105 982.988 851.815 984.398 861.395C987.489 874.361 993.296 886.524 1001.44 897.081C1007.27 905.409 1013.93 914.653 1012.14 924.605C1010.89 931.6 1005.52 937.388 1004.64 944.425C1004.56 949.296 1005.21 954.153 1006.56 958.833C1008.81 971.325 1006.27 984.524 1005.94 997.225C1014.22 994.383 1023.04 993.486 1031.72 994.601C1037.76 995.517 1043.55 997.558 1049.55 998.765C1057.89 1000.47 1081.42 1004.89 1087.84 997.724C1094.84 989.854 1087.42 980.61 1103.17 985.649C1104.15 985.817 1105.15 985.817 1106.13 985.649C1113.04 985.316 1126.12 1000.26 1130.5 992.103C1132.17 989.021 1130.04 985.232 1127.54 982.817C1125.04 980.402 1121.83 978.362 1120.71 975.031C1120.28 973.684 1120.07 972.279 1120.08 970.867C1119.99 969.922 1120.16 968.97 1120.58 968.118C1121.14 967.446 1121.94 967.018 1122.82 966.925C1123.69 966.832 1124.56 967.081 1125.25 967.619C1131.26 972.038 1135.49 978.464 1137.16 985.732C1138.41 993.56 1136.79 1001.64 1138.29 1009.43C1139.79 1017.21 1146.62 1025.17 1154.25 1023.71C1158.87 1022.87 1162.24 1019.04 1166.12 1016.34C1169.99 1013.63 1175.82 1012.17 1178.95 1015.67C1180.03 1016.84 1180.74 1018.59 1182.32 1019.04C1182.95 1019.16 1183.59 1019.14 1184.21 1018.99C1184.83 1018.84 1185.4 1018.56 1185.91 1018.17C1191.59 1015.22 1195.9 1010.17 1197.9 1004.1C1198.83 1001.05 1198.76 997.791 1197.69 994.793C1196.63 991.795 1194.63 989.217 1191.99 987.439C1188.61 985.482 1183.66 984.316 1183.66 980.444C1183.66 976.571 1190.03 974.656 1193.57 977.238C1197.11 979.819 1198.61 984.275 1201.49 987.564C1209.44 996.767 1225.98 995.601 1232.27 1006.05C1234.44 1009.67 1236.44 1015.09 1240.61 1014.38C1241.74 1014.16 1242.8 1013.62 1243.65 1012.84C1245.75 1011 1247.32 1008.63 1248.19 1005.98C1249.06 1003.33 1249.21 1000.49 1248.6 997.766Z" fill="white" stroke="#436AE5" stroke-linecap="round" stroke-linejoin="round"/>
<path d="M956.113 752.59C952.613 720.486 952.614 686.549 950.947 654.278C949.114 617.885 943.198 581.7 938.449 545.515L752.396 553.843C712.194 555.675 672.243 553.843 632.041 554.509C615.377 554.8 595.214 558.673 578.966 552.927V553.676C564.552 553.884 549.804 554.592 535.39 553.676C533.599 553.676 532.474 567.168 531.766 585.697C579.628 589.312 627.661 590.119 675.617 588.112C676.145 627.171 676.659 666.243 677.159 705.329C677.159 706.744 677.158 708.452 678.658 709.035C679.53 709.368 680.494 709.368 681.366 709.035C692.573 706.411 698.447 715.697 707.737 716.363C710.861 716.363 712.403 713.865 716.069 715.114C720.61 716.53 723.568 722.484 726.692 725.732C729.974 729.062 734.062 731.486 738.559 732.77C743.055 734.054 747.808 734.154 752.355 733.061C758.27 731.52 764.478 727.981 770.06 730.479C774.768 732.561 776.726 738.016 779.6 742.263C783.766 748.593 786.682 746.885 792.598 745.012C794.848 744.304 797.514 741.639 800.18 742.263C802.846 742.888 804.138 747.468 807.221 749.009C810.303 750.55 814.011 748.259 817.344 747.135C825.676 744.304 834.883 749.051 842.923 753.131C850.963 757.212 861.003 760.668 868.502 755.671C872.293 753.131 875.001 748.593 879.5 747.885C881.667 747.51 883.875 748.135 885.958 747.593C889.499 746.635 891.499 742.763 894.831 741.306C900.705 738.682 907.079 744.304 913.495 744.095C916.562 743.507 919.666 743.132 922.785 742.971C927.909 743.596 931.117 748.801 935.283 751.882C938.26 753.796 941.656 754.963 945.181 755.282C948.707 755.601 952.257 755.063 955.53 753.714L956.571 753.215L956.113 752.59Z" fill="white" stroke="#436AE5" stroke-linecap="round" stroke-linejoin="round"/>
<path d="M833.3 132.03L829.8 38.4238C830.024 33.875 829.077 29.3448 827.051 25.2656C825.301 22.3925 822.51 20.2272 820.677 17.3957C816.511 11.1913 817.969 3.11319 818.636 -4.25708C818.844 -6.58891 818.927 -8.8791 819.011 -11.2109C715.944 -5.33971 612.586 -4.46531 509.478 -8.71258C506.923 51.9707 504.368 112.612 501.812 173.212L729.359 177.376C734.222 177.206 739.084 177.782 743.773 179.083C752.438 181.998 759.52 189.785 768.769 189.868C772.707 189.524 776.601 188.784 780.392 187.661C798.306 184.08 815.053 195.656 832.592 201.652C831.8 198.654 831.05 195.615 830.3 192.616C829.369 189.464 828.865 186.201 828.801 182.914C829.16 179.208 829.915 175.551 831.05 172.005C833.726 158.858 834.483 145.394 833.3 132.03Z" fill="white" stroke="#436AE5" stroke-linecap="round" stroke-linejoin="round"/>
<path d="M884.286 345.477C882.7 343.151 880.793 341.062 878.62 339.272C873.537 335.108 871.204 327.821 869.871 321.201C868.247 313.289 868.622 305.086 867.205 297.133C865.751 290.654 863.943 284.26 861.789 277.978C859.331 270.317 856.915 262.655 854.457 254.993C852.362 247.887 849.787 240.931 846.75 234.173C845.125 231.092 843.126 228.219 841.418 225.179C837.426 217.772 834.415 209.877 832.461 201.694C814.922 195.698 798.175 184.122 780.261 187.703C776.47 188.826 772.576 189.565 768.638 189.91C759.514 189.91 752.432 182.04 743.642 179.125C738.953 177.824 734.091 177.248 729.228 177.418L501.682 173.254C499.932 215.477 498.168 257.686 496.391 299.881C527.094 299.381 557.089 301.172 587.751 303.004C587.417 323.074 586.959 343.159 586.376 363.257C592.398 363.832 598.452 364.013 604.498 363.798L766.305 360.883C809.09 360.134 851.749 356.719 894.576 354.971C890.64 352.401 887.162 349.193 884.286 345.477Z" fill="white" stroke="#436AE5" stroke-linecap="round" stroke-linejoin="round"/>
<path d="M932.406 455.656C932.822 442.373 933.697 425.467 925.99 414.016C920.699 405.98 909.535 403.398 908.618 392.447C908.076 386.326 911.701 380.413 911.201 374.292C910.493 365.422 902.369 360.467 894.537 354.971C851.711 356.844 809.051 360.134 766.266 360.884L604.459 363.798C598.413 364.013 592.36 363.832 586.337 363.257C584.504 426.55 581.546 489.801 578.547 553.052C594.794 558.632 614.791 554.926 631.622 554.634C671.823 553.926 711.775 555.8 751.977 553.968L938.03 545.64C933.794 515.839 931.913 485.752 932.406 455.656Z" fill="white" stroke="#436AE5" stroke-linecap="round" stroke-linejoin="round"/>
<path d="M1011 925.24C1012.83 915.246 1006.13 905.961 1000.29 897.674C992.152 887.118 986.345 874.955 983.254 861.989C981.844 852.423 981.536 842.727 982.338 833.091C983.254 810.05 983.129 787.023 981.963 764.01C982.063 762.194 981.565 760.395 980.546 758.888C978.255 756.223 974.006 757.389 970.548 757.889C967.822 758.264 965.049 758.068 962.402 757.316C959.756 756.563 957.295 755.27 955.175 753.517C954.801 753.517 954.467 753.892 954.092 754.017C950.826 755.362 947.283 755.897 943.765 755.578C940.247 755.259 936.858 754.095 933.887 752.184C929.721 749.145 926.638 743.856 921.389 743.315C918.22 743.482 915.071 743.913 911.974 744.606C905.558 744.814 899.185 739.151 893.311 741.774C889.978 743.273 887.978 747.146 884.437 748.062C882.354 748.603 880.271 748.062 877.98 748.353C873.48 749.061 870.731 753.6 866.94 756.14C859.483 761.137 849.401 757.681 841.402 753.6C833.404 749.519 824.363 744.773 815.823 747.646C812.49 748.77 808.866 751.018 805.7 749.478C802.534 747.937 801.909 743.523 798.659 742.774C795.41 742.024 793.327 744.772 791.077 745.48C785.161 747.396 782.412 749.061 778.079 742.732C775.205 738.568 773.247 733.072 768.539 730.948C762.957 728.45 756.749 732.031 750.834 733.53C746.281 734.635 741.519 734.541 737.014 733.256C732.509 731.972 728.414 729.541 725.13 726.201C722.047 722.995 719.089 716.999 714.548 715.583C710.715 714.375 709.174 717.082 706.216 716.832C696.926 716.166 691.052 706.922 679.845 709.545C678.968 709.847 678.015 709.847 677.137 709.545C675.846 708.921 675.638 707.213 675.638 705.839C675.138 666.753 674.624 627.667 674.096 588.581C626.14 590.608 578.106 589.802 530.245 586.166C528.704 624.725 528.995 685.144 528.953 691.432C528.579 750.019 529.62 808.024 525.329 866.319C516.383 866.964 507.396 866.712 498.5 865.57L414.972 860.865L373.312 858.533C361.939 857.908 350.899 855.243 339.609 856.992C341.026 862.863 345.733 865.32 348.983 869.776C349.524 870.567 349.983 871.483 350.483 872.399C351.795 872.535 353.066 872.942 354.213 873.595C355.36 874.247 356.36 875.13 357.148 876.188C360.648 880.352 359.398 888.014 365.772 889.971C367.771 890.595 369.938 890.221 372.021 890.72C378.978 892.386 379.77 901.63 381.686 908.501C382.798 912.425 384.712 916.075 387.308 919.222C389.904 922.368 393.125 924.942 396.767 926.781C403.932 930.32 413.431 931.944 416.139 939.273C416.71 941.797 417.113 944.357 417.347 946.934C419.18 956.553 429.303 962.508 432.553 971.918C434.677 977.998 433.511 984.702 433.927 991.156C434.76 1005.52 445.05 1004.36 452.716 1012.77C457.715 1018.18 455.215 1028.22 461.048 1032.84C463.671 1034.49 466.661 1035.48 469.755 1035.71C482.457 1037.98 494.2 1043.97 503.499 1052.91C505.791 1055.11 508.457 1057.7 511.581 1057.07C514.706 1056.45 516.747 1052.66 518.83 1049.83C520.913 1046.99 525.954 1045.16 527.495 1048.37C534.411 1042.58 530.037 1029.34 537.202 1023.84C541.368 1020.76 547.242 1021.68 551.491 1018.85C554.491 1016.89 556.116 1013.35 559.157 1011.48C562.742 1009.78 566.796 1009.36 570.655 1010.27L588.694 1012.39C594.405 1012.43 599.927 1014.44 604.316 1018.1C607.857 1021.8 608.482 1027.3 611.148 1031.75C616.439 1041.12 628.229 1044.66 635.353 1052.57C644.185 1062.44 644.56 1077.56 652.308 1088.26C655.974 1093.34 661.015 1097.17 664.806 1102.04C672.805 1112.12 675.554 1126.49 686.136 1133.73C690.302 1136.52 695.343 1138.1 698.634 1142.06C704.05 1148.43 702.008 1157.97 702.8 1166.29C703.546 1174.83 707.47 1182.78 713.798 1188.57C717.048 1191.53 721.214 1194.4 721.714 1198.77C721.682 1201.13 721.445 1203.49 721.005 1205.81C720.589 1213.6 727.879 1219.43 734.753 1223.05C748.09 1229.52 762.048 1234.62 776.413 1238.29L811.199 1248.45C818.739 1250.66 830.946 1255.74 833.445 1248.45C833.629 1247.26 833.414 1246.04 832.834 1244.99C832.253 1243.93 831.341 1243.1 830.237 1242.62C828.004 1241.7 825.846 1240.62 823.78 1239.37C819.614 1236.12 821.281 1223.8 819.614 1218.88C816.143 1208.7 812.713 1198.49 809.324 1188.28C808.624 1186.61 808.366 1184.79 808.574 1182.99C809.324 1179.78 812.74 1178.12 814.823 1175.5C815.517 1174.48 815.992 1173.32 816.221 1172.11C816.45 1170.9 816.427 1169.65 816.154 1168.45C815.88 1167.25 815.362 1166.11 814.632 1165.12C813.901 1164.12 812.974 1163.29 811.907 1162.67C808.824 1161.05 803.908 1159.92 804.617 1156.55C804.992 1154.68 807.075 1153.8 808.783 1153.09C812.906 1151.9 816.504 1149.35 818.989 1145.85C819.564 1144.97 819.956 1143.98 820.143 1142.94C820.331 1141.91 820.309 1140.84 820.081 1139.81C819.852 1138.79 819.42 1137.82 818.81 1136.96C818.201 1136.1 817.426 1135.37 816.531 1134.81C815.435 1134.49 814.394 1134 813.449 1133.36C810.741 1130.82 815.073 1126.61 818.823 1126.36C822.572 1126.11 827.363 1126.36 828.904 1123.03C829.247 1121.84 829.282 1120.58 829.005 1119.37C828.728 1118.16 828.149 1117.04 827.321 1116.12C825.623 1114.29 824.456 1112.03 823.947 1109.58C823.739 1107.08 826.321 1104.37 828.529 1105.42C830.737 1106.46 830.487 1109.25 832.279 1110.37C834.07 1111.5 836.445 1110.08 838.403 1108.66L847.776 1101C849.001 1100.16 849.944 1098.97 850.484 1097.59C851.151 1095.01 848.943 1092.72 847.818 1090.34C846.693 1087.97 848.068 1083.85 850.526 1084.8C851.651 1085.22 852.151 1086.51 852.9 1087.39C856.233 1091.34 862.524 1087.8 866.232 1084.18C867.273 1083.22 868.356 1081.93 867.898 1080.6C867.44 1079.27 866.648 1079.18 865.982 1078.52C863.399 1075.93 865.357 1071.1 868.69 1069.61C872.396 1068.46 876.345 1068.36 880.104 1069.31C888.001 1070.8 896.133 1070.49 903.892 1068.4C907.754 1067.34 911.368 1065.53 914.522 1063.06C917.676 1060.59 920.307 1057.52 922.264 1054.03C924.889 1048.87 925.68 1042.75 929.263 1038.17C931.721 1035 935.429 1032.71 937.178 1029.09C939.761 1023.8 937.387 1017.35 938.845 1011.6C940.879 1006.18 944.603 1001.55 949.468 998.401C949.981 997.865 950.684 997.551 951.426 997.527C953.092 997.527 953.342 999.942 952.801 1001.69C952.259 1003.44 951.426 1005.06 952.467 1006.35C953.509 1007.65 957.258 1006.65 958.8 1008.35C960.966 1010.81 957.175 1015.02 959.883 1017.14C962.591 1019.26 967.757 1016.35 970.09 1015.02C981.122 1008.02 992.884 1002.24 1005.17 997.777C1005.54 985.285 1008.08 971.835 1005.79 959.385C1004.45 954.703 1003.82 949.846 1003.92 944.977C1004.38 937.982 1009.71 932.194 1011 925.24Z" fill="white" stroke="#436AE5" stroke-miterlimit="10"/>
<g filter="url(#filter0_d_5_65753)">
<ellipse cx="1633.03" cy="475.966" rx="20.5472" ry="20.5453" fill="white"/>
<path d="M1650.58 475.966C1650.58 485.656 1642.72 493.512 1633.03 493.512C1623.34 493.512 1615.48 485.656 1615.48 475.966C1615.48 466.276 1623.34 458.421 1633.03 458.421C1642.72 458.421 1650.58 466.276 1650.58 475.966Z" stroke="#FF7D01" stroke-width="6"/>
</g>
</g>
<g filter="url(#filter1_d_5_65753)">
<rect x="1237" y="388.842" width="284" height="104" rx="25" fill="white"/>
</g>
<path d="M1283.06 433.842H1278.3L1273.26 424.545L1272.62 422.758H1272.32L1272.76 424.545V433.842H1269.6V419.838H1274.36L1279.4 429.145L1280.04 430.922H1280.34L1279.9 429.145V419.838H1283.06V433.842ZM1291.36 434.037C1289.67 434.037 1288.29 433.578 1287.24 432.66C1286.18 431.742 1285.66 430.469 1285.66 428.842C1285.66 427.214 1286.18 425.941 1287.24 425.023C1288.29 424.105 1289.67 423.646 1291.36 423.646C1293.05 423.646 1294.43 424.105 1295.48 425.023C1296.54 425.941 1297.06 427.214 1297.06 428.842C1297.06 430.469 1296.54 431.742 1295.48 432.66C1294.43 433.578 1293.05 434.037 1291.36 434.037ZM1291.36 431.566C1292.21 431.566 1292.88 431.312 1293.37 430.805C1293.86 430.297 1294.1 429.643 1294.1 428.842C1294.1 428.041 1293.86 427.387 1293.37 426.879C1292.88 426.371 1292.21 426.117 1291.36 426.117C1290.5 426.117 1289.83 426.371 1289.36 426.879C1288.87 427.387 1288.62 428.041 1288.62 428.842C1288.62 429.643 1288.87 430.297 1289.36 430.805C1289.83 431.312 1290.5 431.566 1291.36 431.566ZM1305.98 423.646L1306.97 423.744V426.918C1306.54 426.716 1305.97 426.618 1305.24 426.625C1304.31 426.625 1303.59 426.885 1303.09 427.406C1302.59 427.94 1302.34 428.611 1302.34 429.418V433.842H1299.46V423.842H1302.34V425.678H1302.5C1302.61 425.443 1302.75 425.209 1302.94 424.975C1303.13 424.734 1303.34 424.525 1303.58 424.35C1303.84 424.154 1304.19 423.988 1304.62 423.852C1305.05 423.715 1305.5 423.646 1305.98 423.646ZM1309.65 430.062V426.166H1308.19V424.506L1310.97 421.84H1312.53V423.842H1315.65V426.166H1312.53V429.682C1312.53 430.43 1312.7 430.945 1313.04 431.225C1313.38 431.505 1313.86 431.645 1314.48 431.645C1314.73 431.645 1314.98 431.615 1315.22 431.557C1315.46 431.498 1315.65 431.433 1315.76 431.361L1315.95 431.283V433.686C1315.45 433.926 1314.83 434.044 1314.06 434.037C1312.59 434.037 1311.48 433.715 1310.74 433.07C1310.01 432.426 1309.65 431.423 1309.65 430.062ZM1328.99 433.842H1326.11V428.803C1326.11 427.963 1325.88 427.322 1325.43 426.879C1324.99 426.43 1324.37 426.205 1323.57 426.205C1322.75 426.205 1322.13 426.443 1321.69 426.918C1321.25 427.4 1321.03 428.028 1321.03 428.803V433.842H1318.15V419.838H1321.03V425.502H1321.19C1321.26 425.346 1321.42 425.131 1321.65 424.857C1321.85 424.636 1322.07 424.447 1322.3 424.291C1322.56 424.109 1322.92 423.956 1323.37 423.832C1323.82 423.708 1324.29 423.646 1324.79 423.646C1326.04 423.646 1327.06 424.008 1327.83 424.73C1328.6 425.46 1328.99 426.55 1328.99 428.002V433.842ZM1338.35 432.094C1337.04 430.805 1336.39 429.053 1336.39 426.84C1336.39 424.633 1337.04 422.878 1338.35 421.576C1339.65 420.287 1341.42 419.643 1343.64 419.643C1345.78 419.643 1347.5 420.189 1348.8 421.283C1350.1 422.377 1350.74 423.751 1350.74 425.404H1347.37C1347.36 425.326 1347.34 425.219 1347.31 425.082C1347.27 424.939 1347.18 424.701 1347.03 424.369C1346.86 424.024 1346.66 423.725 1346.43 423.471C1346.19 423.21 1345.83 422.973 1345.34 422.758C1344.85 422.549 1344.28 422.445 1343.64 422.445C1342.39 422.445 1341.41 422.859 1340.72 423.686C1340.03 424.512 1339.69 425.564 1339.69 426.84C1339.69 428.116 1340.04 429.171 1340.73 430.004C1341.42 430.831 1342.39 431.244 1343.64 431.244C1344.26 431.244 1344.81 431.146 1345.3 430.951C1345.8 430.756 1346.18 430.505 1346.44 430.199C1346.96 429.587 1347.25 429.047 1347.31 428.578L1347.37 428.285H1350.74C1350.74 429.945 1350.1 431.316 1348.8 432.396C1347.5 433.49 1345.78 434.037 1343.64 434.037C1341.41 434.037 1339.65 433.389 1338.35 432.094ZM1352.84 431.02C1352.84 429.991 1353.27 429.219 1354.11 428.705C1354.96 428.197 1356.03 427.943 1357.33 427.943C1358 427.943 1358.6 428.012 1359.13 428.148C1359.67 428.298 1360.04 428.435 1360.25 428.559L1360.57 428.783V427.318C1360.57 426.889 1360.41 426.527 1360.08 426.234C1359.75 425.948 1359.21 425.805 1358.45 425.805C1357.9 425.805 1357.41 425.906 1356.98 426.107C1356.54 426.316 1356.31 426.635 1356.31 427.064H1353.35C1353.36 425.925 1353.82 425.069 1354.74 424.496C1355.65 423.93 1356.89 423.646 1358.45 423.646C1360.03 423.646 1361.26 423.952 1362.13 424.564C1363.01 425.176 1363.45 426.094 1363.45 427.318V430.443C1363.45 430.847 1363.5 431.127 1363.6 431.283C1363.69 431.439 1363.86 431.518 1364.1 431.518L1364.52 431.439V433.842C1364.28 433.972 1363.86 434.037 1363.28 434.037C1362.53 434.037 1361.97 433.874 1361.58 433.549C1361.24 433.269 1361.02 433.012 1360.93 432.777L1360.87 432.641H1360.72C1360.72 432.667 1360.69 432.725 1360.63 432.816C1360.56 432.901 1360.43 433.018 1360.25 433.168C1360.06 433.318 1359.85 433.451 1359.59 433.568C1358.93 433.881 1358.06 434.037 1356.98 434.037C1355.8 434.037 1354.81 433.78 1354.03 433.266C1353.24 432.758 1352.84 432.009 1352.84 431.02ZM1358.17 431.859C1358.68 431.859 1359.14 431.794 1359.55 431.664C1359.94 431.54 1360.21 431.413 1360.36 431.283L1360.57 431.098V430.502C1360.52 430.45 1360.45 430.395 1360.36 430.336C1360.25 430.264 1360 430.176 1359.59 430.072C1359.16 429.962 1358.69 429.906 1358.17 429.906C1356.59 429.906 1355.8 430.232 1355.8 430.883C1355.8 431.534 1356.59 431.859 1358.17 431.859ZM1373.05 423.646L1374.04 423.744V426.918C1373.62 426.716 1373.04 426.618 1372.31 426.625C1371.38 426.625 1370.66 426.885 1370.16 427.406C1369.66 427.94 1369.41 428.611 1369.41 429.418V433.842H1366.53V423.842H1369.41V425.678H1369.57C1369.68 425.443 1369.82 425.209 1370.01 424.975C1370.2 424.734 1370.41 424.525 1370.65 424.35C1370.91 424.154 1371.26 423.988 1371.69 423.852C1372.12 423.715 1372.57 423.646 1373.05 423.646ZM1381.05 434.037C1379.35 434.037 1377.98 433.578 1376.93 432.66C1375.87 431.742 1375.34 430.469 1375.34 428.842C1375.34 427.214 1375.87 425.941 1376.93 425.023C1377.98 424.105 1379.35 423.646 1381.05 423.646C1382.74 423.646 1384.11 424.105 1385.17 425.023C1386.22 425.941 1386.75 427.214 1386.75 428.842C1386.75 430.469 1386.22 431.742 1385.17 432.66C1384.11 433.578 1382.74 434.037 1381.05 434.037ZM1381.05 431.566C1381.9 431.566 1382.57 431.312 1383.06 430.805C1383.55 430.297 1383.79 429.643 1383.79 428.842C1383.79 428.041 1383.55 427.387 1383.06 426.879C1382.57 426.371 1381.9 426.117 1381.05 426.117C1380.19 426.117 1379.52 426.371 1379.04 426.879C1378.56 427.387 1378.31 428.041 1378.31 428.842C1378.31 429.643 1378.56 430.297 1379.04 430.805C1379.52 431.312 1380.19 431.566 1381.05 431.566ZM1389.14 419.838H1392.02V433.842H1389.14V419.838ZM1394.83 423.842H1397.71V433.842H1394.83V423.842ZM1395.1 421.918C1394.81 421.684 1394.67 421.365 1394.67 420.961C1394.67 420.57 1394.81 420.251 1395.1 420.004C1395.38 419.763 1395.77 419.643 1396.27 419.643C1396.77 419.643 1397.16 419.763 1397.44 420.004C1397.73 420.251 1397.87 420.57 1397.87 420.961C1397.87 421.365 1397.73 421.684 1397.44 421.918C1397.16 422.159 1396.77 422.279 1396.27 422.279C1395.77 422.279 1395.38 422.159 1395.1 421.918ZM1411.35 433.842H1408.47V428.803C1408.47 427.963 1408.24 427.322 1407.79 426.879C1407.35 426.43 1406.73 426.205 1405.93 426.205C1405.12 426.205 1404.49 426.443 1404.05 426.918C1403.61 427.4 1403.39 428.028 1403.39 428.803V433.842H1400.51V423.842H1403.39V425.502H1403.56C1403.63 425.346 1403.78 425.131 1404.02 424.857C1404.22 424.636 1404.43 424.447 1404.66 424.291C1404.93 424.109 1405.29 423.956 1405.73 423.832C1406.18 423.708 1406.66 423.646 1407.15 423.646C1408.41 423.646 1409.42 424.008 1410.2 424.73C1410.97 425.46 1411.35 426.55 1411.35 428.002V433.842ZM1413.64 431.02C1413.64 429.991 1414.07 429.219 1414.91 428.705C1415.76 428.197 1416.83 427.943 1418.13 427.943C1418.8 427.943 1419.4 428.012 1419.93 428.148C1420.47 428.298 1420.84 428.435 1421.05 428.559L1421.37 428.783V427.318C1421.37 426.889 1421.21 426.527 1420.88 426.234C1420.56 425.948 1420.01 425.805 1419.25 425.805C1418.7 425.805 1418.21 425.906 1417.79 426.107C1417.34 426.316 1417.11 426.635 1417.11 427.064H1414.15C1414.16 425.925 1414.62 425.069 1415.54 424.496C1416.45 423.93 1417.69 423.646 1419.25 423.646C1420.83 423.646 1422.06 423.952 1422.93 424.564C1423.81 425.176 1424.25 426.094 1424.25 427.318V430.443C1424.25 430.847 1424.3 431.127 1424.4 431.283C1424.49 431.439 1424.66 431.518 1424.9 431.518L1425.32 431.439V433.842C1425.08 433.972 1424.66 434.037 1424.08 434.037C1423.34 434.037 1422.77 433.874 1422.38 433.549C1422.04 433.269 1421.82 433.012 1421.73 432.777L1421.67 432.641H1421.53C1421.53 432.667 1421.49 432.725 1421.43 432.816C1421.36 432.901 1421.24 433.018 1421.05 433.168C1420.86 433.318 1420.65 433.451 1420.39 433.568C1419.73 433.881 1418.86 434.037 1417.79 434.037C1416.6 434.037 1415.61 433.78 1414.83 433.266C1414.04 432.758 1413.64 432.009 1413.64 431.02ZM1418.97 431.859C1419.48 431.859 1419.94 431.794 1420.35 431.664C1420.74 431.54 1421.01 431.413 1421.16 431.283L1421.37 431.098V430.502C1421.32 430.45 1421.25 430.395 1421.16 430.336C1421.05 430.264 1420.8 430.176 1420.39 430.072C1419.96 429.962 1419.49 429.906 1418.97 429.906C1417.39 429.906 1416.6 430.232 1416.6 430.883C1416.6 431.534 1417.39 431.859 1418.97 431.859Z" fill="#272727"/>
<path d="M1271.42 450.33L1268.72 452.457V450.55L1271.57 448.238H1273.12V460.842H1271.42V450.33ZM1290.77 460.842H1288.71L1286.44 453.679H1286.36L1284.09 460.842H1282.03L1279.42 452.018H1280.98L1283.06 459.146H1283.13L1285.39 452.018H1287.41L1289.67 459.146H1289.75L1291.82 452.018H1293.38L1290.77 460.842ZM1294.75 458.372C1294.75 457.47 1295.13 456.802 1295.9 456.368C1296.66 455.94 1297.64 455.727 1298.83 455.727C1299.44 455.727 1300 455.8 1300.52 455.946C1301.06 456.099 1301.44 456.242 1301.65 456.377L1302 456.597V455.208C1302 454.61 1301.78 454.142 1301.34 453.802C1300.9 453.456 1300.24 453.283 1299.35 453.283C1297.59 453.283 1296.71 453.764 1296.71 454.725H1295.16C1295.16 453.752 1295.56 453.028 1296.34 452.554C1297.12 452.079 1298.13 451.842 1299.35 451.842C1300.58 451.842 1301.59 452.129 1302.37 452.703C1303.14 453.283 1303.54 454.118 1303.54 455.208V458.416C1303.54 458.861 1303.6 459.172 1303.72 459.348C1303.84 459.518 1304.03 459.603 1304.3 459.603C1304.53 459.603 1304.69 459.57 1304.76 459.506L1304.8 459.488V460.877C1304.62 460.971 1304.35 461.018 1304.01 461.018C1303.42 461.018 1302.99 460.892 1302.71 460.64C1302.49 460.452 1302.32 460.256 1302.22 460.051L1302.17 459.945H1302.1C1301.96 460.092 1301.81 460.215 1301.65 460.314C1301.47 460.438 1301.27 460.546 1301.06 460.64C1300.48 460.892 1299.78 461.018 1298.96 461.018C1297.71 461.018 1296.69 460.804 1295.91 460.376C1295.13 459.954 1294.75 459.286 1294.75 458.372ZM1299.18 457.168C1297.28 457.168 1296.33 457.569 1296.33 458.372C1296.33 459.181 1297.28 459.585 1299.18 459.585C1299.75 459.585 1300.26 459.523 1300.72 459.4C1301.18 459.289 1301.49 459.184 1301.66 459.084C1301.82 459.002 1301.93 458.929 1302 458.864V457.854C1301.93 457.789 1301.82 457.716 1301.66 457.634C1301.46 457.54 1301.15 457.44 1300.73 457.335C1300.28 457.224 1299.76 457.168 1299.18 457.168ZM1311.39 451.842C1311.74 451.842 1312.05 451.877 1312.32 451.947L1312.45 451.965V453.661C1312.11 453.544 1311.67 453.482 1311.12 453.477C1310.17 453.477 1309.42 453.778 1308.88 454.382C1308.33 454.985 1308.06 455.741 1308.06 456.649V460.842H1306.51V452.018H1308.06V453.731H1308.15C1308.24 453.544 1308.38 453.324 1308.58 453.072C1308.76 452.85 1308.96 452.656 1309.19 452.492C1309.44 452.316 1309.76 452.164 1310.15 452.035C1310.55 451.906 1310.96 451.842 1311.39 451.842ZM1323.28 456.43L1323.23 457.168H1315.26C1315.26 457.672 1315.56 458.199 1316.16 458.75C1316.75 459.307 1317.54 459.585 1318.54 459.585C1319.27 459.585 1319.87 459.447 1320.34 459.172C1320.73 458.938 1321 458.727 1321.15 458.539L1321.22 458.416H1323.04C1323 458.504 1322.96 458.595 1322.92 458.688C1322.85 458.823 1322.7 459.031 1322.49 459.312C1322.26 459.611 1322 459.878 1321.69 460.112C1321.4 460.341 1320.97 460.549 1320.4 460.736C1319.86 460.924 1319.24 461.018 1318.54 461.018C1317.08 461.018 1315.89 460.602 1314.99 459.77C1314.07 458.938 1313.61 457.824 1313.61 456.43C1313.61 455.047 1314.06 453.937 1314.98 453.099C1315.89 452.261 1317.04 451.842 1318.45 451.842C1319.84 451.842 1321 452.261 1321.92 453.099C1322.83 453.937 1323.28 455.047 1323.28 456.43ZM1320.79 454.118C1320.2 453.562 1319.42 453.283 1318.45 453.283C1317.46 453.283 1316.69 453.562 1316.11 454.118C1315.53 454.675 1315.24 455.223 1315.24 455.762H1321.65C1321.65 455.223 1321.36 454.675 1320.79 454.118ZM1334.49 460.842H1332.94V456.289C1332.94 455.258 1332.68 454.499 1332.16 454.013C1331.64 453.526 1330.94 453.283 1330.06 453.283C1329.13 453.283 1328.42 453.559 1327.93 454.109C1327.43 454.66 1327.19 455.387 1327.19 456.289V460.842H1325.64V448.238H1327.19V453.371H1327.27C1327.4 453.172 1327.54 452.993 1327.7 452.835C1327.9 452.659 1328.1 452.504 1328.31 452.369C1328.55 452.223 1328.87 452.1 1329.27 452C1329.67 451.895 1330.08 451.842 1330.52 451.842C1331.65 451.842 1332.6 452.182 1333.36 452.861C1334.11 453.547 1334.49 454.569 1334.49 455.929V460.842ZM1338.11 459.761C1337.2 458.923 1336.74 457.812 1336.74 456.43C1336.74 455.053 1337.2 453.942 1338.11 453.099C1339.02 452.261 1340.18 451.842 1341.58 451.842C1342.98 451.842 1344.13 452.261 1345.05 453.099C1345.96 453.942 1346.42 455.053 1346.42 456.43C1346.42 457.812 1345.96 458.923 1345.05 459.761C1344.13 460.599 1342.98 461.018 1341.58 461.018C1340.18 461.018 1339.02 460.599 1338.11 459.761ZM1343.95 458.697C1344.54 458.105 1344.83 457.35 1344.83 456.43C1344.83 455.51 1344.54 454.754 1343.95 454.162C1343.35 453.576 1342.57 453.283 1341.58 453.283C1340.59 453.283 1339.8 453.576 1339.22 454.162C1338.62 454.748 1338.32 455.504 1338.32 456.43C1338.32 457.355 1338.62 458.111 1339.22 458.697C1339.81 459.289 1340.6 459.585 1341.58 459.585C1342.55 459.585 1343.34 459.289 1343.95 458.697ZM1348.77 452.018H1350.32V456.579C1350.32 457.61 1350.58 458.369 1351.1 458.855C1351.62 459.342 1352.32 459.585 1353.19 459.585C1354.11 459.585 1354.82 459.307 1355.33 458.75C1355.83 458.199 1356.08 457.476 1356.08 456.579V452.018H1357.62V460.842H1356.08V459.488H1355.99C1355.87 459.676 1355.73 459.854 1355.56 460.024C1355.36 460.206 1355.16 460.361 1354.95 460.49C1354.71 460.643 1354.39 460.769 1353.99 460.868C1353.59 460.968 1353.18 461.018 1352.74 461.018C1351.6 461.018 1350.65 460.675 1349.91 459.989C1349.15 459.315 1348.77 458.299 1348.77 456.939V452.018ZM1366.97 458.231C1366.97 457.886 1366.81 457.619 1366.47 457.432C1366.13 457.238 1365.71 457.13 1365.22 457.106C1364.71 457.077 1364.16 457.024 1363.57 456.948C1362.94 456.872 1362.39 456.781 1361.92 456.676C1361.42 456.57 1361 456.333 1360.66 455.964C1360.32 455.601 1360.15 455.114 1360.15 454.505C1360.15 453.62 1360.53 452.952 1361.29 452.501C1362.04 452.062 1363.02 451.842 1364.22 451.842C1365.44 451.842 1366.43 452.088 1367.18 452.58C1367.92 453.072 1368.29 453.846 1368.29 454.9H1366.71C1366.71 454.35 1366.51 453.942 1366.11 453.679C1365.72 453.415 1365.09 453.283 1364.22 453.283C1362.56 453.283 1361.74 453.69 1361.74 454.505C1361.74 454.839 1361.91 455.094 1362.25 455.27C1362.58 455.451 1363 455.554 1363.5 455.577C1363.96 455.601 1364.52 455.65 1365.15 455.727C1365.76 455.809 1366.31 455.905 1366.8 456.017C1367.3 456.14 1367.72 456.386 1368.06 456.755C1368.4 457.136 1368.56 457.628 1368.56 458.231C1368.56 458.888 1368.36 459.433 1367.94 459.866C1367.53 460.294 1367.01 460.593 1366.39 460.763C1365.79 460.933 1365.08 461.018 1364.26 461.018C1362.54 461.018 1361.32 460.596 1360.58 459.752C1360.17 459.271 1359.96 458.674 1359.96 457.959V457.678H1361.54V457.959C1361.54 459.037 1362.45 459.576 1364.26 459.576C1366.07 459.588 1366.97 459.14 1366.97 458.231ZM1380.22 456.43L1380.17 457.168H1372.19C1372.19 457.672 1372.49 458.199 1373.09 458.75C1373.68 459.307 1374.48 459.585 1375.47 459.585C1376.21 459.585 1376.81 459.447 1377.27 459.172C1377.66 458.938 1377.93 458.727 1378.08 458.539L1378.15 458.416H1379.97C1379.94 458.504 1379.9 458.595 1379.86 458.688C1379.78 458.823 1379.64 459.031 1379.43 459.312C1379.2 459.611 1378.93 459.878 1378.63 460.112C1378.33 460.341 1377.9 460.549 1377.34 460.736C1376.8 460.924 1376.18 461.018 1375.47 461.018C1374.01 461.018 1372.83 460.602 1371.92 459.77C1371 458.938 1370.54 457.824 1370.54 456.43C1370.54 455.047 1371 453.937 1371.91 453.099C1372.82 452.261 1373.98 451.842 1375.38 451.842C1376.78 451.842 1377.94 452.261 1378.86 453.099C1379.76 453.937 1380.22 455.047 1380.22 456.43ZM1377.72 454.118C1377.14 453.562 1376.36 453.283 1375.38 453.283C1374.4 453.283 1373.62 453.562 1373.05 454.118C1372.47 454.675 1372.18 455.223 1372.18 455.762H1378.58C1378.58 455.223 1378.3 454.675 1377.72 454.118ZM1389.11 451.666V452.018H1391.7V453.424H1389.11V460.842H1387.56V453.424H1386.08V452.562L1387.56 452.018V451.464C1387.56 450.333 1387.87 449.483 1388.51 448.915C1389.13 448.347 1389.98 448.062 1391.06 448.062C1391.37 448.062 1391.69 448.104 1392 448.186C1392.32 448.273 1392.56 448.353 1392.71 448.423L1392.93 448.546V449.935C1392.54 449.589 1392 449.416 1391.32 449.416C1390.59 449.416 1390.04 449.592 1389.67 449.943C1389.3 450.289 1389.11 450.863 1389.11 451.666ZM1394.55 459.761C1393.64 458.923 1393.18 457.812 1393.18 456.43C1393.18 455.053 1393.64 453.942 1394.55 453.099C1395.46 452.261 1396.62 451.842 1398.03 451.842C1399.42 451.842 1400.58 452.261 1401.5 453.099C1402.41 453.942 1402.86 455.053 1402.86 456.43C1402.86 457.812 1402.41 458.923 1401.5 459.761C1400.58 460.599 1399.42 461.018 1398.03 461.018C1396.62 461.018 1395.46 460.599 1394.55 459.761ZM1400.39 458.697C1400.98 458.105 1401.28 457.35 1401.28 456.43C1401.28 455.51 1400.98 454.754 1400.39 454.162C1399.8 453.576 1399.01 453.283 1398.03 453.283C1397.04 453.283 1396.25 453.576 1395.66 454.162C1395.06 454.748 1394.76 455.504 1394.76 456.43C1394.76 457.355 1395.06 458.111 1395.66 458.697C1396.25 459.289 1397.04 459.585 1398.03 459.585C1399 459.585 1399.79 459.289 1400.39 458.697ZM1405.21 452.018H1406.76V456.579C1406.76 457.61 1407.02 458.369 1407.54 458.855C1408.07 459.342 1408.76 459.585 1409.64 459.585C1410.56 459.585 1411.27 459.307 1411.77 458.75C1412.27 458.199 1412.52 457.476 1412.52 456.579V452.018H1414.07V460.842H1412.52V459.488H1412.43C1412.31 459.676 1412.17 459.854 1412 460.024C1411.81 460.206 1411.6 460.361 1411.39 460.49C1411.15 460.643 1410.83 460.769 1410.44 460.868C1410.04 460.968 1409.62 461.018 1409.19 461.018C1408.04 461.018 1407.09 460.675 1406.35 459.989C1405.59 459.315 1405.21 458.299 1405.21 456.939V452.018ZM1425.61 460.842H1424.07V456.289C1424.07 455.258 1423.81 454.499 1423.29 454.013C1422.76 453.526 1422.06 453.283 1421.18 453.283C1420.26 453.283 1419.55 453.559 1419.06 454.109C1418.56 454.66 1418.31 455.387 1418.31 456.289V460.842H1416.76V452.018H1418.31V453.371H1418.4C1418.52 453.172 1418.67 452.993 1418.83 452.835C1419.02 452.659 1419.22 452.504 1419.44 452.369C1419.68 452.223 1420 452.1 1420.39 452C1420.79 451.895 1421.21 451.842 1421.64 451.842C1422.78 451.842 1423.73 452.182 1424.49 452.861C1425.24 453.547 1425.61 454.569 1425.61 455.929V460.842ZM1435.99 448.238H1437.54V460.842H1435.99V459.523H1435.92C1435.83 459.676 1435.66 459.852 1435.42 460.051C1435.22 460.215 1435 460.364 1434.76 460.499C1434.51 460.64 1434.18 460.76 1433.77 460.859C1433.37 460.965 1432.96 461.018 1432.54 461.018C1431.21 461.018 1430.1 460.596 1429.21 459.752C1428.31 458.908 1427.86 457.801 1427.86 456.43C1427.86 455.07 1428.31 453.963 1429.21 453.107C1430.1 452.264 1431.21 451.842 1432.54 451.842C1433.25 451.842 1433.89 451.968 1434.45 452.22C1435 452.472 1435.39 452.718 1435.62 452.958L1435.92 453.336H1435.99V448.238ZM1430.34 454.171C1429.75 454.769 1429.45 455.521 1429.45 456.43C1429.45 457.344 1429.75 458.097 1430.34 458.688C1430.93 459.286 1431.73 459.585 1432.72 459.585C1433.72 459.585 1434.51 459.286 1435.11 458.688C1435.7 458.097 1435.99 457.344 1435.99 456.43C1435.99 455.492 1435.69 454.733 1435.09 454.153C1434.49 453.573 1433.7 453.283 1432.72 453.283C1431.73 453.283 1430.93 453.579 1430.34 454.171Z" fill="#436AE5"/>
</g>
<defs>
<filter id="filter0_d_5_65753" x="1592.48" y="445.421" width="81.0938" height="81.0908" filterUnits="userSpaceOnUse" color-interpolation-filters="sRGB">
<feFlood flood-opacity="0" result="BackgroundImageFix"/>
<feColorMatrix in="SourceAlpha" type="matrix" values="0 0 0 0 0 0 0 0 0 0 0 0 0 0 0 0 0 0 127 0" result="hardAlpha"/>
<feOffset dy="10"/>
<feGaussianBlur stdDeviation="10"/>
<feComposite in2="hardAlpha" operator="out"/>
<feColorMatrix type="matrix" values="0 0 0 0 0.246875 0 0 0 0 0.367998 0 0 0 0 0.75 0 0 0 0.7 0"/>
<feBlend mode="normal" in2="BackgroundImageFix" result="effect1_dropShadow_5_65753"/>
<feBlend mode="normal" in="SourceGraphic" in2="effect1_dropShadow_5_65753" result="shape"/>
</filter>
<filter id="filter1_d_5_65753" x="1197" y="362.842" width="364" height="184" filterUnits="userSpaceOnUse" color-interpolation-filters="sRGB">
<feFlood flood-opacity="0" result="BackgroundImageFix"/>
<feColorMatrix in="SourceAlpha" type="matrix" values="0 0 0 0 0 0 0 0 0 0 0 0 0 0 0 0 0 0 127 0" result="hardAlpha"/>
<feOffset dy="14"/>
<feGaussianBlur stdDeviation="20"/>
<feComposite in2="hardAlpha" operator="out"/>
<feColorMatrix type="matrix" values="0 0 0 0 0.0437383 0 0 0 0 0.109346 0 0 0 0 0.316262 0 0 0 0.2 0"/>
<feBlend mode="normal" in2="BackgroundImageFix" result="effect1_dropShadow_5_65753"/>
<feBlend mode="normal" in="SourceGraphic" in2="effect1_dropShadow_5_65753" result="shape"/>
</filter>
<clipPath id="clip0_5_65753">
<rect width="1920" height="1023" fill="white" transform="translate(0 0.841797)"/>
</clipPath>
<clipPath id="clip1_5_65753">
<rect width="2549" height="1687" fill="white" transform="translate(-158 -663.158)"/>
</clipPath>
</defs>
</svg>
