<svg width="86" height="92" viewBox="0 0 86 92" fill="none" xmlns="http://www.w3.org/2000/svg">
<g clip-path="url(#clip0_1946_9995)">
<path d="M18.9396 74.4191C19.4854 64.3958 22.4668 53.1454 30.8464 46.7696C36.2016 42.6949 44.6299 42.2509 50.1757 46.0975C55.4132 49.7304 59.1874 55.6101 57.0436 62.0193C55.9262 65.3601 53.4842 67.7852 49.7512 67.3063C44.0481 66.5749 40.1075 59.4477 39.0746 54.4273C35.851 38.76 42.0987 19.9242 54.5629 9.78268" stroke="#F58D1D" stroke-width="5.0864" stroke-linecap="round"/>
<path d="M42.8262 12.3314C45.4894 11.4415 51.6313 9.59867 54.8906 9.3457" stroke="#F58D1D" stroke-width="5.0864" stroke-linecap="round"/>
<path d="M54.8913 9.34481C54.4231 12.1136 53.55 18.4661 53.8029 21.7254" stroke="#F58D1D" stroke-width="5.0864" stroke-linecap="round"/>
</g>
<defs>
<clipPath id="clip0_1946_9995">
<rect width="77.8545" height="48.9977" fill="white" transform="translate(85.875 29.4297) rotate(126.811)"/>
</clipPath>
</defs>
</svg>
