<svg width="26" height="30" viewBox="0 0 26 30" fill="none" xmlns="http://www.w3.org/2000/svg">
<path d="M13.9689 25.401L2.94271 20.2957L6.96049 18.2566C6.55654 17.8527 6.08111 17.3156 5.74057 16.9043L0.530995 19.548C-0.12338 19.8803 -0.104337 20.8229 0.559706 21.1295L15.6722 28.1262C15.0701 27.2894 14.4736 26.3483 13.9689 25.401ZM8.78041 0C5.45264 0 2.74525 2.70738 2.74525 6.03516C2.74525 11.4927 7.93789 16.7481 8.15896 16.9691C8.50215 17.3123 9.05867 17.3124 9.40191 16.9691C9.62293 16.7481 14.8156 11.4927 14.8156 6.03516C14.8156 2.70738 12.1082 0 8.78041 0ZM8.75152 8.58398C7.34609 8.58398 6.20269 7.44059 6.20269 6.03516C6.20269 4.62973 7.34609 3.48633 8.75152 3.48633C10.157 3.48633 11.3004 4.62973 11.3004 6.03516C11.3004 7.44059 10.157 8.58398 8.75152 8.58398Z" fill="#436AE5"/>
<path d="M8.75195 5.24219C8.31578 5.24219 7.96094 5.59703 7.96094 6.0332C7.96094 6.46938 8.31578 6.82422 8.75195 6.82422C9.18812 6.82422 9.54297 6.46938 9.54297 6.0332C9.54297 5.59703 9.18812 5.24219 8.75195 5.24219ZM19.9137 12.7715C16.5859 12.7715 13.8785 15.4789 13.8785 18.8066C13.8785 24.2642 19.0711 29.5196 19.2922 29.7406C19.6354 30.0838 20.1919 30.0839 20.5352 29.7406C20.7562 29.5196 25.9489 24.2642 25.9489 18.8066C25.9488 15.4789 23.2414 12.7715 19.9137 12.7715ZM19.8848 21.3848C18.4793 21.3848 17.3359 20.2414 17.3359 18.8359C17.3359 17.4305 18.4793 16.2871 19.8848 16.2871C21.2902 16.2871 22.4336 17.4305 22.4336 18.8359C22.4336 20.2414 21.2902 21.3848 19.8848 21.3848Z" fill="#436AE5"/>
<path d="M19.8848 18.0469C19.4486 18.0469 19.0938 18.4017 19.0938 18.8379C19.0938 19.2741 19.4486 19.6289 19.8848 19.6289C20.3209 19.6289 20.6758 19.2741 20.6758 18.8379C20.6758 18.4017 20.3209 18.0469 19.8848 18.0469Z" fill="#436AE5"/>
</svg>
