<svg width="137" height="55" viewBox="0 0 137 55" fill="none" xmlns="http://www.w3.org/2000/svg">
<path d="M125.229 43.0492C124.704 43.0492 124.202 42.9626 123.724 42.7892C123.254 42.6092 122.885 42.3792 122.619 42.0992L122.855 41.7192C123.107 41.9792 123.445 42.1926 123.868 42.3592C124.298 42.5192 124.748 42.5992 125.219 42.5992C125.901 42.5992 126.416 42.4726 126.764 42.2192C127.112 41.9659 127.286 41.6359 127.286 41.2292C127.286 40.9159 127.194 40.6659 127.01 40.4792C126.826 40.2926 126.597 40.1492 126.324 40.0492C126.051 39.9492 125.683 39.8459 125.219 39.7392C124.693 39.6126 124.27 39.4892 123.95 39.3692C123.636 39.2492 123.366 39.0659 123.141 38.8192C122.923 38.5659 122.814 38.2292 122.814 37.8092C122.814 37.4692 122.906 37.1592 123.09 36.8792C123.274 36.5926 123.554 36.3659 123.929 36.1992C124.311 36.0326 124.786 35.9492 125.352 35.9492C125.748 35.9492 126.136 36.0059 126.519 36.1192C126.901 36.2326 127.232 36.3859 127.511 36.5792L127.317 36.9892C127.03 36.7959 126.713 36.6492 126.365 36.5492C126.024 36.4492 125.686 36.3992 125.352 36.3992C124.69 36.3992 124.188 36.5292 123.847 36.7892C123.506 37.0492 123.336 37.3859 123.336 37.7992C123.336 38.1126 123.428 38.3626 123.612 38.5492C123.796 38.7359 124.025 38.8792 124.298 38.9792C124.571 39.0792 124.942 39.1859 125.413 39.2992C125.939 39.4259 126.358 39.5492 126.672 39.6692C126.986 39.7892 127.252 39.9726 127.47 40.2192C127.696 40.4592 127.808 40.7859 127.808 41.1992C127.808 41.5392 127.713 41.8492 127.522 42.1292C127.337 42.4092 127.051 42.6326 126.662 42.7992C126.273 42.9659 125.795 43.0492 125.229 43.0492Z" fill="white"/>
<path d="M121.137 42.541V43.001H116.193V36.001H120.983V36.461H116.715V39.221H120.533V39.671H116.715V42.541H121.137Z" fill="white"/>
<path d="M113.383 36.001V43.001H112.953L108.071 36.921V43.001H107.549V36.001H107.989L112.861 42.081V36.001H113.383Z" fill="white"/>
<path d="M104.223 36.001H104.745V43.001H104.223V36.001Z" fill="white"/>
<path d="M97.9316 36.001H98.4536V42.541H102.578V43.001H97.9316V36.001Z" fill="white"/>
<path d="M92.1873 36.001V43.001H91.7575L86.8755 36.921V43.001H86.3535V36.001H86.7936L91.6654 42.081V36.001H92.1873Z" fill="white"/>
<path d="M83.26 41.031H79.1047L78.1938 43.001H77.6309L80.9265 36.001H81.4484L84.744 43.001H84.1811L83.26 41.031ZM83.0655 40.601L81.1823 36.561L79.3094 40.601H83.0655Z" fill="white"/>
<path d="M77.5882 36.001L74.3949 43.001H73.8729L70.6797 36.001H71.2528L74.1493 42.341L77.0457 36.001H77.5882Z" fill="white"/>
<path d="M126.175 26.9996L122.572 22.0496C122.167 22.0936 121.747 22.1156 121.311 22.1156H117.078V26.9996H115.412V11.5996H121.311C123.323 11.5996 124.899 12.0689 126.04 13.0076C127.181 13.9463 127.751 15.2369 127.751 16.8796C127.751 18.0823 127.436 19.1016 126.805 19.9376C126.19 20.7589 125.304 21.3529 124.149 21.7196L127.999 26.9996H126.175ZM121.266 20.7296C122.828 20.7296 124.021 20.3923 124.847 19.7176C125.672 19.0429 126.085 18.0969 126.085 16.8796C126.085 15.6329 125.672 14.6796 124.847 14.0196C124.021 13.3449 122.828 13.0076 121.266 13.0076H117.078V20.7296H121.266Z" fill="white"/>
<path d="M108.481 22.8856H99.6994L97.808 26.9996H96.0742L103.279 11.5996H104.923L112.128 26.9996H110.372L108.481 22.8856ZM107.873 21.5656L104.09 13.2936L100.307 21.5656H107.873Z" fill="white"/>
<path d="M88.8476 13.0076H83.3086V11.5996H96.0529V13.0076H90.5139V26.9996H88.8476V13.0076Z" fill="white"/>
<path d="M75.8211 27.1318C74.6502 27.1318 73.5244 26.9484 72.4436 26.5818C71.3778 26.2151 70.5522 25.7311 69.9668 25.1298L70.6198 23.8758C71.1902 24.4331 71.9482 24.8878 72.8939 25.2398C73.8396 25.5771 74.8153 25.7458 75.8211 25.7458C77.2321 25.7458 78.2904 25.4964 78.9959 24.9978C79.7014 24.4844 80.0542 23.8244 80.0542 23.0178C80.0542 22.4018 79.859 21.9104 79.4688 21.5438C79.0935 21.1771 78.6281 20.8984 78.0727 20.7078C77.5173 20.5024 76.7443 20.2824 75.7535 20.0478C74.5677 19.7544 73.622 19.4758 72.9165 19.2118C72.2109 18.9331 71.603 18.5151 71.0926 17.9578C70.5973 17.4004 70.3496 16.6451 70.3496 15.6918C70.3496 14.9144 70.5597 14.2104 70.98 13.5798C71.4003 12.9344 72.0458 12.4211 72.9165 12.0398C73.7871 11.6584 74.8679 11.4678 76.1588 11.4678C77.0595 11.4678 77.9376 11.5924 78.7933 11.8418C79.6639 12.0764 80.4144 12.4064 81.0449 12.8318L80.482 14.1298C79.8215 13.7044 79.116 13.3891 78.3654 13.1838C77.6149 12.9638 76.8794 12.8538 76.1588 12.8538C74.7778 12.8538 73.7346 13.1178 73.029 13.6458C72.3385 14.1591 71.9933 14.8264 71.9933 15.6478C71.9933 16.2638 72.1809 16.7624 72.5562 17.1438C72.9465 17.5104 73.4268 17.7964 73.9972 18.0018C74.5827 18.1924 75.3632 18.4051 76.339 18.6398C77.4948 18.9184 78.4255 19.1971 79.131 19.4758C79.8515 19.7398 80.4595 20.1504 80.9548 20.7078C81.4502 21.2504 81.6979 21.9911 81.6979 22.9298C81.6979 23.7071 81.4802 24.4184 81.0449 25.0638C80.6246 25.6944 79.9716 26.2004 79.086 26.5818C78.2003 26.9484 77.112 27.1318 75.8211 27.1318Z" fill="white"/>
<ellipse cx="27.9825" cy="27.5" rx="27.9825" ry="27.5" fill="#F58D1D"/>
<path d="M17.0069 45.4692L20.5808 31.1277L28.5977 28.3321L29.0748 36.6738L17.0069 45.4692Z" fill="#FFF8F1"/>
<path d="M9.2168 21.64L23.4985 21.64L28.5933 28.338L20.5788 31.1318L9.2168 21.64Z" fill="#FFE8CF"/>
<path d="M28.5911 7.75781L33.69 21.6467L28.5907 28.3449L23.4922 21.6467L28.5911 7.75781Z" fill="#FFD2A3"/>
<g clip-path="url(#clip0_4019_10105)">
<path d="M136.426 9C136.426 6.55469 134.445 4.57422 132 4.57422C129.555 4.57422 127.574 6.55469 127.574 9C127.574 11.4453 129.555 13.4258 132 13.4258C134.445 13.4258 136.426 11.4453 136.426 9Z" stroke="white"/>
<path d="M131.73 8.60156C132.004 8.60156 132.203 8.54687 132.324 8.44141C132.445 8.33984 132.512 8.17187 132.512 7.92969C132.512 7.69531 132.445 7.53125 132.324 7.42578C132.203 7.32422 132.004 7.27344 131.73 7.27344H131.172V8.60156H131.73ZM131.172 9.51562V11.4648H129.84V6.30859H131.871C132.551 6.30859 133.047 6.42578 133.359 6.65625C133.68 6.87891 133.836 7.23828 133.836 7.73437C133.836 8.07422 133.754 8.35547 133.59 8.57422C133.426 8.78906 133.18 8.95312 132.844 9.05469C133.031 9.10156 133.191 9.19531 133.336 9.33984C133.48 9.48437 133.625 9.70312 133.77 10.0039L134.496 11.4648H133.078L132.449 10.1836C132.324 9.92969 132.195 9.75 132.066 9.66016C131.934 9.56641 131.762 9.51562 131.547 9.51562H131.172Z" fill="white"/>
</g>
<defs>
<clipPath id="clip0_4019_10105">
<rect width="10" height="10" fill="white" transform="translate(127 4)"/>
</clipPath>
</defs>
</svg>
