<svg width="268" height="310" viewBox="0 0 268 310" fill="none" xmlns="http://www.w3.org/2000/svg">
<mask id="mask0_88_2448" style="mask-type:luminance" maskUnits="userSpaceOnUse" x="0" y="0" width="308" height="325">
<path d="M283.806 0.391602H24.5511C11.2963 0.391602 0.551147 11.1368 0.551147 24.3916V300.565C0.551147 313.819 11.2963 324.565 24.5511 324.565H283.806C297.061 324.565 307.806 313.819 307.806 300.565V24.3916C307.806 11.1368 297.061 0.391602 283.806 0.391602Z" fill="white"/>
</mask>
<g mask="url(#mask0_88_2448)">
<path d="M279.893 126.691L277.948 123.636L208.449 90.8613L166.793 184.132V191.303L210.246 95.1491L279.893 126.691Z" fill="#515872"/>
<path d="M279.951 126.641L210.303 95.1055L166.855 191.244L236.503 222.78L279.951 126.641Z" fill="#212841"/>
<path d="M272.072 131.134L212.137 103.996L174.746 186.731L234.681 213.869L272.072 131.134Z" fill="#417DC6"/>
<path d="M49.6317 148.031C49.6317 148.031 61.7935 108.135 64.0585 107.864C66.3234 107.593 125.384 96.1588 127.625 98.623C129.865 101.087 144.317 128.194 144.317 130.362C144.317 132.531 138.359 166.537 138.359 166.537L49.6317 148.031Z" fill="#515872"/>
<path d="M138.359 166.463C138.359 166.463 139.147 162.052 140.131 156.311H135.208C73.66 157.518 65.068 124.892 63.9848 107.889C61.3998 109.688 49.7303 147.957 49.7303 147.957L138.359 166.463Z" fill="#212841"/>
<mask id="mask1_88_2448" style="mask-type:luminance" maskUnits="userSpaceOnUse" x="49" y="20" width="184" height="148">
<path d="M232.023 90.1924L86.263 20.8799L49.6316 97.9137L195.392 167.226L232.023 90.1924Z" fill="white"/>
</mask>
<g mask="url(#mask1_88_2448)">
<path d="M223.383 86.0835L94.9031 24.9881C90.1312 22.7191 84.4304 24.7336 82.1698 29.4876L53.7249 89.3055C51.4643 94.0595 53.4998 99.7528 58.2715 102.022L186.752 163.117C191.524 165.386 197.224 163.371 199.485 158.617L227.93 98.7998C230.19 94.0458 228.155 88.3525 223.383 86.0835Z" fill="#BDDAFD"/>
<path d="M140.636 94.4896L140.437 94.3947L85.5239 25.7243C85.4446 25.6238 85.4083 25.4961 85.4229 25.3692C85.4374 25.2423 85.5017 25.1264 85.6016 25.0468C85.6506 25.0059 85.7074 24.9754 85.7687 24.9571C85.83 24.9389 85.8944 24.9333 85.958 24.9407C86.0216 24.9482 86.083 24.9685 86.1385 25.0004C86.1941 25.0323 86.2425 25.0751 86.2809 25.1263L141.07 93.5758L228.75 92.825C228.814 92.8225 228.878 92.833 228.938 92.8559C228.997 92.8789 229.052 92.9137 229.098 92.9583C229.144 93.0029 229.18 93.0564 229.205 93.1154C229.229 93.1745 229.241 93.2379 229.24 93.3017C229.242 93.4295 229.193 93.5525 229.103 93.6438C229.014 93.7352 228.892 93.7876 228.764 93.7896L140.841 94.5383C140.77 94.5377 140.7 94.521 140.636 94.4896Z" fill="white"/>
<path d="M52.7066 95.2513C52.6341 95.2181 52.5715 95.1665 52.5251 95.1017C52.4787 95.0369 52.4501 94.9612 52.4422 94.882C52.4312 94.8205 52.4325 94.7574 52.4462 94.6965C52.4599 94.6356 52.4857 94.5781 52.522 94.5274C52.5582 94.4766 52.6044 94.4335 52.6576 94.4008C52.7108 94.368 52.7701 94.3462 52.8319 94.3366L131.55 82.0662C131.616 82.0469 131.685 82.042 131.754 82.0516C131.822 82.0613 131.888 82.0855 131.946 82.1224C132.004 82.1593 132.054 82.2081 132.092 82.2656C132.13 82.3232 132.155 82.3882 132.166 82.4561C132.177 82.5241 132.173 82.5936 132.155 82.6599C132.137 82.7262 132.105 82.7879 132.061 82.8408C132.017 82.8937 131.962 82.9366 131.9 82.9667C131.838 82.9967 131.77 83.0133 131.701 83.0151L52.9837 95.2856C52.8901 95.3044 52.7929 95.2923 52.7066 95.2513Z" fill="white"/>
<path d="M195.977 163.185C195.885 163.148 195.808 163.082 195.756 162.999L155.59 94.1959C155.559 94.1404 155.538 94.0794 155.53 94.0162C155.523 93.953 155.527 93.8889 155.544 93.8277C155.561 93.7664 155.59 93.7091 155.63 93.6591C155.669 93.6091 155.718 93.5673 155.773 93.5361C155.827 93.5048 155.887 93.4845 155.949 93.4765C156.011 93.4685 156.074 93.4729 156.135 93.4896C156.195 93.5062 156.252 93.5347 156.301 93.5733C156.35 93.6119 156.391 93.66 156.422 93.7146L196.588 162.517C196.621 162.571 196.643 162.63 196.652 162.693C196.662 162.755 196.659 162.818 196.644 162.879C196.629 162.94 196.601 162.997 196.564 163.047C196.526 163.097 196.478 163.139 196.424 163.17C196.357 163.21 196.28 163.232 196.202 163.234C196.124 163.237 196.047 163.22 195.977 163.185Z" fill="white"/>
</g>
<path d="M113.762 112.462L104.932 113.47C94.6381 114.646 87.2452 123.952 88.4198 134.255L92.5932 170.858C93.7671 181.161 103.064 188.561 113.358 187.385L122.189 186.376C132.482 185.201 139.875 175.895 138.7 165.591L134.527 128.989C133.353 118.685 124.056 111.286 113.762 112.462Z" fill="white"/>
<path d="M138.255 162.002L134.907 132.653C134.491 129.124 133.242 125.746 131.263 122.796C130.106 127.601 125.798 132.653 113.291 133.836C98.1751 135.339 96.0582 126.172 96.8952 118.065C93.9792 120.438 91.7092 123.509 90.2934 126.994C88.8777 130.478 88.3623 134.264 88.7953 138L92.1191 167.324C92.6061 171.694 94.3801 175.819 97.2151 179.177L130.918 181.321C133.6 178.926 135.666 175.92 136.943 172.558C138.22 169.195 138.67 165.575 138.255 162.002Z" fill="#F3F6FF"/>
<path d="M113.068 137.78H33.573V324.838H113.068V137.78Z" fill="#F37F01"/>
<path d="M276.243 137.632H113.068V324.838H276.243V137.632Z" fill="#F58D1D"/>
<path d="M113.068 137.632C113.068 140.392 82.6634 225.481 82.6634 225.481H0.361938L33.573 137.829L113.068 137.632Z" fill="#F58D1D"/>
</g>
</svg>
