<svg width="236" height="248" viewBox="0 0 236 248" fill="none" xmlns="http://www.w3.org/2000/svg">
<mask id="mask0_1541_148" style="mask-type:luminance" maskUnits="userSpaceOnUse" x="0" y="0" width="236" height="248">
<path d="M217.144 0.790039H18.8561C8.7183 0.790039 0.5 8.95729 0.5 19.0321V228.947C0.5 239.022 8.7183 247.19 18.8561 247.19H217.144C227.282 247.19 235.5 239.022 235.5 228.947V19.0321C235.5 8.95729 227.282 0.790039 217.144 0.790039Z" fill="white"/>
</mask>
<g mask="url(#mask0_1541_148)">
<path d="M214.152 96.7871L212.664 94.465L159.508 69.5537L127.648 140.447V145.898L160.883 72.8128L214.152 96.7871Z" fill="#515872"/>
<path d="M214.195 96.7497L160.926 72.7803L127.695 145.854L180.965 169.824L214.195 96.7497Z" fill="#212841"/>
<path d="M208.169 100.165L162.328 79.5381L133.73 142.424L179.571 163.051L208.169 100.165Z" fill="#3F5EBF"/>
<path d="M38.0391 113.008C38.0391 113.008 47.3409 82.6833 49.0732 82.4774C50.8055 82.2714 95.9773 73.5807 97.6913 75.4537C99.4045 77.3268 110.458 97.9299 110.458 99.5778C110.458 101.226 105.901 127.074 105.901 127.074L38.0391 113.008Z" fill="#515872"/>
<path d="M105.9 127.018C105.9 127.018 106.503 123.666 107.255 119.302H103.49C56.4156 120.219 49.8441 95.4208 49.0157 82.4971C47.0385 83.8645 38.1133 112.952 38.1133 112.952L105.9 127.018Z" fill="#212841"/>
<mask id="mask1_1541_148" style="mask-type:luminance" maskUnits="userSpaceOnUse" x="38" y="16" width="140" height="112">
<path d="M177.54 69.0448L66.0566 16.3613L38.0396 74.9137L149.522 127.597L177.54 69.0448Z" fill="white"/>
</mask>
<g mask="url(#mask1_1541_148)">
<path d="M170.932 65.9228L72.6652 19.4851C69.0155 17.7604 64.6553 19.2916 62.9263 22.9051L41.1706 68.3719C39.4417 71.9854 40.9985 76.3128 44.648 78.0378L142.915 124.475C146.565 126.2 150.924 124.668 152.653 121.055L174.409 75.5883C176.138 71.9749 174.581 67.6475 170.932 65.9228Z" fill="#5C8FF2"/>
<path d="M107.644 72.3119L107.491 72.2397L65.4918 20.0443C65.4311 19.9679 65.4034 19.8709 65.4145 19.7744C65.4256 19.6779 65.4748 19.5898 65.5512 19.5293C65.5887 19.4983 65.6321 19.4751 65.679 19.4612C65.7259 19.4473 65.7751 19.4431 65.8238 19.4487C65.8724 19.4544 65.9194 19.4698 65.9618 19.4941C66.0044 19.5183 66.0414 19.5509 66.0708 19.5898L107.976 71.6173L175.036 71.0466C175.085 71.0447 175.134 71.0527 175.18 71.0701C175.225 71.0876 175.267 71.1141 175.303 71.148C175.338 71.1819 175.365 71.2225 175.384 71.2674C175.403 71.3123 175.412 71.3605 175.411 71.409C175.413 71.5061 175.375 71.5996 175.306 71.669C175.238 71.7385 175.145 71.7783 175.047 71.7798L107.8 72.3489C107.746 72.3484 107.693 72.3357 107.644 72.3119Z" fill="white"/>
<path d="M40.3915 72.8901C40.336 72.8648 40.2881 72.8256 40.2526 72.7763C40.2171 72.7271 40.1953 72.6696 40.1892 72.6094C40.1808 72.5626 40.1818 72.5146 40.1923 72.4684C40.2028 72.4221 40.2225 72.3784 40.2503 72.3398C40.278 72.3012 40.3133 72.2685 40.354 72.2436C40.3947 72.2187 40.44 72.2021 40.4873 72.1948L100.694 62.8682C100.744 62.8536 100.797 62.8498 100.85 62.8571C100.902 62.8645 100.952 62.8829 100.997 62.911C101.041 62.939 101.079 62.9761 101.108 63.0198C101.137 63.0636 101.157 63.113 101.165 63.1646C101.173 63.2163 101.17 63.2691 101.157 63.3195C101.143 63.3699 101.118 63.4168 101.085 63.457C101.051 63.4972 101.009 63.5298 100.962 63.5527C100.914 63.5755 100.862 63.5881 100.809 63.5895L40.6034 72.9161C40.5318 72.9304 40.4575 72.9212 40.3915 72.8901Z" fill="white"/>
<path d="M149.969 124.525C149.899 124.497 149.84 124.447 149.8 124.384L119.08 72.0878C119.056 72.0457 119.04 71.9993 119.034 71.9513C119.028 71.9032 119.031 71.8545 119.044 71.808C119.057 71.7614 119.08 71.7178 119.11 71.6798C119.14 71.6418 119.178 71.61 119.22 71.5863C119.261 71.5625 119.307 71.5471 119.354 71.541C119.402 71.535 119.45 71.5383 119.496 71.551C119.542 71.5636 119.586 71.5853 119.623 71.6146C119.661 71.6439 119.692 71.6805 119.716 71.722L150.436 124.017C150.462 124.058 150.478 124.103 150.485 124.151C150.493 124.198 150.491 124.246 150.479 124.293C150.468 124.339 150.446 124.382 150.418 124.42C150.389 124.458 150.352 124.49 150.311 124.514C150.26 124.544 150.201 124.561 150.141 124.562C150.082 124.565 150.023 124.552 149.969 124.525Z" fill="white"/>
</g>
<path d="M87.0879 85.9723L80.3344 86.7385C72.4611 87.6323 66.8068 94.7057 67.7051 102.537L70.897 130.358C71.795 138.189 78.9057 143.814 86.7789 142.92L93.5332 142.153C101.406 141.26 107.06 134.187 106.161 126.355L102.97 98.5342C102.072 90.7023 94.9611 85.0784 87.0879 85.9723Z" fill="white"/>
<path d="M105.821 123.628L103.261 101.321C102.943 98.6382 101.987 96.0706 100.474 93.8284C99.5888 97.4806 96.2939 101.321 86.728 102.22C75.1668 103.362 73.5476 96.3944 74.1878 90.2324C71.9575 92.0361 70.2213 94.3703 69.1385 97.0192C68.0557 99.6674 67.6616 102.545 67.9928 105.385L70.5349 127.674C70.9074 130.995 72.2642 134.13 74.4325 136.683L100.21 138.312C102.261 136.492 103.841 134.207 104.818 131.652C105.795 129.096 106.139 126.344 105.821 123.628Z" fill="#F3F6FF"/>
<path d="M86.5567 105.217H25.7559V247.397H86.5567V105.217Z" fill="#F37F01"/>
<path d="M211.359 105.104H86.5566V247.396H211.359V105.104Z" fill="#F58D1D"/>
<path d="M86.5573 105.104C86.5573 107.201 63.3027 171.876 63.3027 171.876H0.355469L25.7566 105.253L86.5573 105.104Z" fill="#F58D1D"/>
<path d="M211.359 105.104L235.368 168.842H211.359V105.104Z" fill="#76B5FF"/>
</g>
</svg>
