<svg width="128" height="55" viewBox="0 0 128 55" fill="none" xmlns="http://www.w3.org/2000/svg">
<path d="M75.5138 27.132C74.3698 27.132 73.2698 26.9487 72.2138 26.582C71.1724 26.2007 70.3658 25.7167 69.7938 25.13L70.4318 23.876C70.9744 24.404 71.7004 24.8513 72.6098 25.218C73.5338 25.57 74.5018 25.746 75.5138 25.746C76.4818 25.746 77.2664 25.6287 77.8678 25.394C78.4838 25.1447 78.9311 24.8147 79.2098 24.404C79.5031 23.9933 79.6498 23.5387 79.6498 23.04C79.6498 22.4387 79.4738 21.9547 79.1218 21.588C78.7844 21.2213 78.3371 20.9353 77.7798 20.73C77.2224 20.51 76.6064 20.3193 75.9318 20.158C75.2571 19.9967 74.5824 19.828 73.9078 19.652C73.2331 19.4613 72.6098 19.212 72.0378 18.904C71.4804 18.596 71.0258 18.1927 70.6738 17.694C70.3364 17.1807 70.1678 16.5133 70.1678 15.692C70.1678 14.9293 70.3658 14.2327 70.7618 13.602C71.1724 12.9567 71.7958 12.4433 72.6318 12.062C73.4678 11.666 74.5384 11.468 75.8438 11.468C76.7091 11.468 77.5671 11.5927 78.4178 11.842C79.2684 12.0767 80.0018 12.4067 80.6178 12.832L80.0678 14.13C79.4078 13.69 78.7038 13.3673 77.9558 13.162C77.2224 12.9567 76.5111 12.854 75.8218 12.854C74.8978 12.854 74.1351 12.9787 73.5338 13.228C72.9324 13.4773 72.4851 13.8147 72.1918 14.24C71.9131 14.6507 71.7738 15.12 71.7738 15.648C71.7738 16.2493 71.9424 16.7333 72.2798 17.1C72.6318 17.4667 73.0864 17.7527 73.6438 17.958C74.2158 18.1633 74.8391 18.3467 75.5138 18.508C76.1884 18.6693 76.8558 18.8453 77.5158 19.036C78.1904 19.2267 78.8064 19.476 79.3638 19.784C79.9358 20.0773 80.3904 20.4733 80.7278 20.972C81.0798 21.4707 81.2558 22.1233 81.2558 22.93C81.2558 23.678 81.0504 24.3747 80.6398 25.02C80.2291 25.6507 79.5984 26.164 78.7478 26.56C77.9118 26.9413 76.8338 27.132 75.5138 27.132ZM88.2401 27V13.008H82.8281V11.6H95.2801V13.008H89.8681V27H88.2401ZM95.3035 27L102.343 11.6H103.949L110.989 27H109.273L102.805 12.546H103.465L96.9975 27H95.3035ZM98.0755 22.886L98.5595 21.566H107.513L107.997 22.886H98.0755ZM114.197 27V11.6H119.961C121.266 11.6 122.388 11.8127 123.327 12.238C124.266 12.6487 124.984 13.25 125.483 14.042C125.996 14.8193 126.253 15.7653 126.253 16.88C126.253 17.9653 125.996 18.904 125.483 19.696C124.984 20.4733 124.266 21.0747 123.327 21.5C122.388 21.9107 121.266 22.116 119.961 22.116H115.099L115.825 21.368V27H114.197ZM124.713 27L120.753 21.412H122.513L126.495 27H124.713ZM115.825 21.5L115.099 20.73H119.917C121.457 20.73 122.623 20.3927 123.415 19.718C124.222 19.0433 124.625 18.0973 124.625 16.88C124.625 15.648 124.222 14.6947 123.415 14.02C122.623 13.3453 121.457 13.008 119.917 13.008H115.099L115.825 12.238V21.5ZM73.6081 43L70.4881 36H71.0481L74.0281 42.69H73.7181L76.7081 36H77.2381L74.1181 43H73.6081ZM77.282 43L80.502 36H81.012L84.232 43H83.682L80.642 36.32H80.862L77.832 43H77.282ZM78.462 41.03L78.632 40.6H82.822L82.992 41.03H78.462ZM85.8028 43V36H86.2328L91.2228 42.37H90.9928V36H91.5028V43H91.0828L86.0828 36.63H86.3128V43H85.8028ZM97.1157 43V36H97.6257V42.54H101.656V43H97.1157ZM103.265 43V36H103.775V43H103.265ZM106.515 43V36H106.945L111.935 42.37H111.705V36H112.215V43H111.795L106.795 36.63H107.025V43H106.515ZM115.409 39.22H119.199V39.67H115.409V39.22ZM115.469 42.54H119.789V43H114.959V36H119.639V36.46H115.469V42.54ZM123.789 43.05C123.269 43.05 122.775 42.9633 122.309 42.79C121.849 42.61 121.492 42.38 121.239 42.1L121.469 41.72C121.709 41.9667 122.035 42.1767 122.449 42.35C122.869 42.5167 123.312 42.6 123.779 42.6C124.245 42.6 124.625 42.54 124.919 42.42C125.219 42.2933 125.439 42.1267 125.579 41.92C125.725 41.7133 125.799 41.4833 125.799 41.23C125.799 40.93 125.719 40.69 125.559 40.51C125.399 40.33 125.189 40.1867 124.929 40.08C124.669 39.9733 124.385 39.8833 124.079 39.81C123.772 39.7367 123.462 39.66 123.149 39.58C122.835 39.4933 122.549 39.3833 122.289 39.25C122.029 39.1167 121.819 38.9367 121.659 38.71C121.505 38.4767 121.429 38.1767 121.429 37.81C121.429 37.4767 121.515 37.17 121.689 36.89C121.862 36.61 122.132 36.3833 122.499 36.21C122.865 36.0367 123.335 35.95 123.909 35.95C124.295 35.95 124.675 36.0067 125.049 36.12C125.429 36.2333 125.752 36.3867 126.019 36.58L125.829 36.99C125.535 36.79 125.219 36.6433 124.879 36.55C124.545 36.45 124.222 36.4 123.909 36.4C123.462 36.4 123.092 36.4633 122.799 36.59C122.505 36.7167 122.289 36.8867 122.149 37.1C122.009 37.3067 121.939 37.54 121.939 37.8C121.939 38.1 122.015 38.34 122.169 38.52C122.329 38.7 122.539 38.8433 122.799 38.95C123.059 39.0567 123.345 39.1467 123.659 39.22C123.972 39.2933 124.282 39.3733 124.589 39.46C124.895 39.54 125.179 39.6467 125.439 39.78C125.699 39.9133 125.909 40.0933 126.069 40.32C126.229 40.5467 126.309 40.84 126.309 41.2C126.309 41.5267 126.219 41.8333 126.039 42.12C125.859 42.4 125.582 42.6267 125.209 42.8C124.842 42.9667 124.369 43.05 123.789 43.05Z" fill="#272727"/>
<circle cx="27.5195" cy="27.5" r="27.5" fill="#F58D1D"/>
<path d="M16.7325 45.4692L20.2448 31.1277L28.1234 28.3321L28.5923 36.6738L16.7325 45.4692Z" fill="#FFF8F1"/>
<path d="M9.07812 21.64L23.1135 21.64L28.1205 28.338L20.2442 31.1318L9.07812 21.64Z" fill="#FFE8CF"/>
<path d="M28.1203 7.75781L33.1313 21.6467L28.12 28.3449L23.1094 21.6467L28.1203 7.75781Z" fill="#FFD2A3"/>
</svg>
