<svg width="34" height="34" viewBox="0 0 34 34" fill="none" xmlns="http://www.w3.org/2000/svg">
<path d="M6.9987 4.16806C6.11465 4.16806 5.2668 4.51925 4.64168 5.14437C4.01656 5.7695 3.66537 6.61734 3.66537 7.5014C3.66537 8.38545 4.01656 9.2333 4.64168 9.85842C5.2668 10.4835 6.11465 10.8347 6.9987 10.8347C7.88276 10.8347 8.7306 10.4835 9.35572 9.85842C9.98084 9.2333 10.332 8.38545 10.332 7.5014C10.332 6.61734 9.98084 5.7695 9.35572 5.14437C8.7306 4.51925 7.88276 4.16806 6.9987 4.16806ZM0.332035 7.5014C0.33043 5.87762 0.921507 4.30908 1.99433 3.09019C3.06714 1.87129 4.54794 1.08584 6.15878 0.881263C7.76961 0.676686 9.39974 1.06705 10.7432 1.97908C12.0866 2.89111 13.051 4.2621 13.4554 5.83473H27.137L27.272 5.85806C28.6743 6.10576 29.9988 6.67951 31.1387 7.53306C32.4787 8.56306 33.6654 10.1914 33.6654 12.5014C33.6654 14.8114 32.482 16.4397 31.137 17.4697C29.9977 18.3231 28.6738 18.8968 27.272 19.1447L27.137 19.1681H6.9987C6.6037 19.1681 5.71203 19.4147 4.91537 20.0514C4.17037 20.6481 3.66537 21.4547 3.66537 22.5014C3.66537 23.5481 4.17037 24.3547 4.91537 24.9514C5.71203 25.5881 6.6037 25.8347 6.9987 25.8347H25.332V21.6681L33.1104 27.5014L25.332 33.3347V29.1681H6.9987C5.72703 29.1681 4.1187 28.5814 2.83203 27.5514C1.4937 26.4831 0.332035 24.7897 0.332035 22.5014C0.332035 20.2147 1.4937 18.5214 2.83203 17.4514C4.1187 16.4214 5.72703 15.8347 6.9987 15.8347H26.8487C27.472 15.7097 28.377 15.3847 29.1104 14.8247C29.8504 14.2581 30.332 13.5247 30.332 12.5014C30.332 11.4781 29.8487 10.7464 29.1104 10.1781C28.4381 9.68224 27.6666 9.3377 26.8487 9.16806H13.4554C13.0458 10.7355 12.0798 12.1004 10.7376 13.0077C9.3954 13.9151 7.76886 14.3029 6.16166 14.0988C4.55447 13.8947 3.07651 13.1126 2.00375 11.8985C0.930984 10.6845 0.336761 9.12149 0.332035 7.5014Z" fill="#616161"/>
</svg>
