<svg width="20" height="21" viewBox="0 0 20 21" fill="none" xmlns="http://www.w3.org/2000/svg">
<g id="svg">
<path id="Vector" d="M17.5002 18.0002L13.881 14.381M13.881 14.381C14.5001 13.7619 14.9912 13.027 15.3262 12.2181C15.6612 11.4093 15.8337 10.5423 15.8337 9.66684C15.8337 8.79134 15.6612 7.92441 15.3262 7.11555C14.9912 6.30669 14.5001 5.57174 13.881 4.95267C13.2619 4.3336 12.527 3.84252 11.7181 3.50748C10.9093 3.17244 10.0423 3 9.16684 3C8.29134 3 7.42441 3.17244 6.61555 3.50748C5.80669 3.84252 5.07174 4.3336 4.45267 4.95267C3.2024 6.20295 2.5 7.89868 2.5 9.66684C2.5 11.435 3.2024 13.1307 4.45267 14.381C5.70295 15.6313 7.39868 16.3337 9.16684 16.3337C10.935 16.3337 12.6307 15.6313 13.881 14.381Z" stroke="#436AE5" stroke-width="1.5" stroke-linecap="round" stroke-linejoin="round"/>
</g>
</svg>
