<svg width="36" height="35" viewBox="0 0 36 35" fill="none" xmlns="http://www.w3.org/2000/svg">
<circle cx="18" cy="17.5" r="17.5" fill="#F58D1D"/>
<path d="M22.7324 14.877C22.7324 15.2285 22.6709 15.5596 22.5479 15.8701C22.4307 16.1807 22.2812 16.4268 22.0996 16.6084C21.7539 16.9541 21.4258 17.1855 21.1152 17.3027L20.9307 17.3555V17.4258C20.9951 17.4316 21.0859 17.4492 21.2031 17.4785C21.3145 17.5078 21.5137 17.5869 21.8008 17.7158C22.0703 17.8389 22.3223 18.0029 22.5566 18.208C22.7676 18.4072 22.9639 18.7002 23.1455 19.0869C23.3271 19.4736 23.418 19.916 23.418 20.4141C23.418 22.8047 21.874 24 18.7861 24H13.1172V11.3965H18.4697C21.3115 11.4082 22.7324 12.5684 22.7324 14.877ZM18.7861 18.3311H14.8135V22.4883H18.7861C19.7588 22.4883 20.4795 22.3213 20.9482 21.9873C21.417 21.6533 21.6514 21.1289 21.6514 20.4141C21.6514 19.0254 20.6963 18.3311 18.7861 18.3311ZM14.8135 12.9082V16.8545H18.4697C19.3076 16.8545 19.9346 16.6904 20.3506 16.3623C20.7666 16.0283 20.9717 15.5332 20.9658 14.877C20.9658 13.5762 20.1338 12.9199 18.4697 12.9082H14.8135Z" fill="white"/>
</svg>
