<svg width="60" height="45" viewBox="0 0 60 45" fill="none" xmlns="http://www.w3.org/2000/svg">
<path id="&#226;&#128;&#156;" d="M49.0988 0.841797V14.9355C49.0988 17.3418 49.6221 19.2324 50.6686 20.6074C51.7151 21.9251 53.0233 22.7559 54.593 23.0996C56.1047 23.4434 57.3837 24.4746 58.4302 26.1934C59.4767 27.9121 60 30.3184 60 33.4121C60 36.9069 58.8663 39.6855 56.5988 41.748C54.3314 43.8105 51.3081 44.8418 47.5291 44.8418C39.2733 44.8418 35.1163 40.0866 35.0581 30.5762C35.0581 21.2949 36.4244 14.0189 39.157 8.74805C41.8895 3.47721 45.2035 0.841797 49.0988 0.841797ZM14.1279 0.841797V14.9355C14.1279 17.3418 14.6512 19.2324 15.6977 20.6074C16.7442 21.9251 18.0523 22.7559 19.6221 23.0996C21.1337 23.4434 22.4128 24.4746 23.4593 26.1934C24.5058 27.9121 25.0291 30.3184 25.0291 33.4121C25.0291 36.9069 23.8953 39.6855 21.6279 41.748C19.3605 43.8105 16.3372 44.8418 12.5581 44.8418C4.36047 44.8418 0.174419 40.0866 0 30.5762C0 21.2949 1.36628 14.0189 4.09884 8.74805C6.8314 3.47721 10.1744 0.841797 14.1279 0.841797Z" fill="#F58D1D"/>
</svg>
