<svg width="1920" height="1024" viewBox="0 0 1920 1024" fill="none" xmlns="http://www.w3.org/2000/svg">
<g clip-path="url(#clip0_5_65370)">
<rect width="1920" height="1023" transform="translate(0 0.841797)" fill="#F1F4FF"/>
<g clip-path="url(#clip1_5_65370)">
<g clip-path="url(#clip2_5_65370)">
<path d="M1646.74 5.72768C1647.02 8.51396 1648.23 12.7136 1650.78 11.6233C1651.54 11.2303 1652.14 10.5886 1652.48 9.80614C1665.28 -13.2515 1660.31 -42.6893 1670.86 -66.6757C1673.34 -70.9711 1674.73 -75.8109 1674.9 -80.7686C1674.49 -85.6951 1669.28 -90.5005 1664.84 -88.32C1663.51 -87.6335 1662.05 -86.422 1660.8 -87.0681C1660.4 -87.3293 1660.07 -87.6749 1659.83 -88.08C1659.58 -88.4851 1659.43 -88.9394 1659.38 -89.4102C1656.48 -101.807 1661.85 -114.446 1669.2 -125.067L1654.66 -125.955C1643.73 -126.165 1632.87 -127.752 1622.34 -130.68C1618.97 -123.788 1615.64 -116.896 1612.36 -110.005C1611.35 -108.353 1610.85 -106.445 1610.9 -104.513C1611.39 -100.838 1615.71 -98.5364 1615.99 -94.8213C1616.28 -91.1062 1613.12 -88.7237 1613.04 -85.3721C1613.04 -80.5667 1618.58 -78.1843 1622.62 -75.5999C1625.71 -73.578 1628.25 -70.8168 1630.01 -67.5663C1631.77 -64.3158 1632.68 -60.6786 1632.68 -56.9842C1632.68 -44.0622 1621 -33.1997 1621.2 -20.2778C1621.47 -15.0444 1623.21 -9.99186 1626.21 -5.70019C1626.92 -6.37047 1627.8 -6.81978 1628.76 -6.99241C1630.78 -7.35669 1632.85 -7.31529 1634.85 -6.87066C1636.85 -6.42603 1638.75 -5.58705 1640.42 -4.40279C1642.09 -3.21852 1643.51 -1.71274 1644.6 0.0266571C1645.68 1.76604 1646.41 3.70416 1646.74 5.72768Z" fill="white" stroke="#436AE5" stroke-linecap="round" stroke-linejoin="round"/>
<path d="M1401.14 47.8448L1602.42 -18.784C1608.93 -20.9242 1615.39 -23.1048 1621.78 -25.5276C1624 -36.3094 1632.56 -45.7182 1632.72 -57.0652C1632.73 -60.7596 1631.81 -64.3968 1630.05 -67.6474C1628.3 -70.8979 1625.76 -73.6591 1622.66 -75.6809C1618.62 -78.2653 1612.93 -80.6478 1613.09 -85.4532C1613.09 -88.8048 1616.32 -91.5911 1616.04 -94.9023C1615.76 -98.2136 1611.43 -100.919 1610.95 -104.594C1610.89 -106.526 1611.4 -108.434 1612.4 -110.086C1615.71 -116.95 1619.04 -123.842 1622.38 -130.761C1611.91 -133.768 1602.97 -140.639 1597.37 -149.982C1595.55 -153.334 1593.94 -157.412 1590.26 -158.543C1588.38 -159.047 1586.4 -159.047 1584.53 -158.543C1547.03 -151.032 1511.8 -135.768 1476.01 -122.765C1457.69 -115.876 1438.95 -110.197 1419.89 -105.765C1405.95 -102.736 1394.48 -96.558 1380.94 -95.71C1377.68 -92.0754 1373.99 -88.8484 1369.95 -86.0993C1376.58 -57.7248 1383.19 -29.3504 1389.79 -0.975906C1393.59 15.365 1397.37 31.6385 1401.14 47.8448Z" fill="white" stroke="#436AE5" stroke-linecap="round" stroke-linejoin="round"/>
<path d="M1650.34 44.3319C1650.34 42.1109 1650.34 39.8496 1650.34 37.5882C1650.09 31.6118 1653.33 27.7353 1648.11 24.7874C1642.49 21.9945 1637.3 18.4188 1632.68 14.1672C1630.37 11.9946 1628.54 9.3635 1627.31 6.44275C1626.08 3.52199 1625.47 0.376167 1625.53 -2.79285C1625.52 -3.7744 1625.81 -4.73496 1626.38 -5.5388C1623.37 -9.83047 1621.63 -14.883 1621.37 -20.1164C1621.34 -21.854 1621.52 -23.589 1621.89 -25.2852C1615.55 -22.8623 1609.13 -20.7221 1602.7 -18.5819C1612.93 4.28603 1620.84 28.1228 1626.3 52.5696C1634.56 50.607 1642.61 47.8482 1650.34 44.3319Z" fill="white" stroke="#436AE5" stroke-linecap="round" stroke-linejoin="round"/>
<path d="M1450.87 57.0117C1454.02 56.3252 1456 53.2562 1457.98 50.6718C1461.46 46.1087 1467.92 43.9686 1472.25 39.6882C1475.56 36.4173 1479.68 32.8638 1484.37 33.6714C1487.8 34.2771 1491.07 37.2249 1494.3 35.8924C1497.54 34.5598 1497.78 30.6832 1499.03 27.8162C1499.95 26.0231 1501.29 24.4751 1502.93 23.3008C1504.56 22.1264 1506.46 21.3593 1508.45 21.0633C1510.45 20.7672 1512.49 20.9506 1514.4 21.5983C1516.3 22.246 1518.03 23.3393 1519.43 24.7876C1520.47 26.6061 1521.84 28.2099 1523.47 29.5122C1526.46 31.1274 1530.22 29.5122 1533.53 30.1583C1539.96 31.7331 1540.44 41.2226 1545.65 45.0588C1550.38 48.4509 1557.78 46.7549 1561.82 51.0756C1562.97 52.8835 1563.59 54.9856 1563.59 57.1328C1563.59 59.28 1562.97 61.3822 1561.82 63.19C1559.48 66.7452 1557.36 70.4403 1555.47 74.2544C1554.8 75.698 1554.7 77.3428 1555.19 78.8579C1555.91 79.995 1556.98 80.8639 1558.25 81.3308C1559.51 81.7978 1560.89 81.837 1562.18 81.4423C1564.73 80.6324 1567.32 79.9585 1569.94 79.4232C1573.29 79.2213 1576.56 80.7961 1579.92 80.5134C1583.96 80.1904 1587.35 77.1215 1591.11 75.5062C1594.25 74.2125 1597.71 73.8891 1601.05 74.5775C1602.38 72.7199 1604.08 71.0643 1603.91 68.8433C1603.47 63.9572 1595.27 64.5629 1592.48 60.5248C1590.7 57.9 1591.79 54.3869 1591.55 51.2371C1591.07 45.4626 1586.18 41.1823 1583.47 36.0539C1577.33 23.9395 1583.91 9.8869 1590.42 -1.82362C1591.07 -2.99467 1591.95 -4.3272 1593.29 -4.48873C1595.51 -4.69063 1596.48 -1.70247 1596.36 0.518488C1595.91 7.26213 1592.32 13.4809 1591.15 20.1841C1589.98 26.8874 1591.87 35.2463 1598.34 37.3461C1601.17 38.3152 1605.17 38.4364 1605.81 41.3842C1605.89 42.942 1605.54 44.4909 1604.8 45.8665C1604.46 47.2329 1604.41 48.6575 1604.67 50.0426C1604.93 51.4277 1605.49 52.7406 1606.3 53.8913C1607.11 55.042 1608.17 56.0031 1609.39 56.709C1610.61 57.4149 1611.96 57.8488 1613.37 57.9808C1614.91 57.8309 1616.46 57.9263 1617.97 58.2635C1624.64 60.8075 1616.6 73.6083 1622.54 77.5656C1626.58 80.3116 1633.25 75.1832 1636.88 78.5752C1640.52 81.9672 1636.88 86.6514 1634.42 90.2857C1631.92 94.3558 1630.63 99.0508 1630.69 103.826C1630.75 108.6 1632.17 113.259 1634.78 117.26C1644.81 94.3409 1649.97 69.5899 1649.93 44.5743C1642.13 48.0476 1634.01 50.7525 1625.69 52.6505C1620.23 28.2037 1612.32 4.36693 1602.1 -18.501L1448.57 32.4196C1448.93 44.9781 1449.5 57.3347 1450.87 57.0117Z" fill="white" stroke="#436AE5" stroke-linecap="round" stroke-linejoin="round"/>
<path d="M1443.84 598.886C1441.72 598.24 1439.49 598.047 1437.3 598.321C1435.24 599.083 1433.48 600.473 1432.26 602.292C1431.05 604.112 1430.43 606.268 1430.51 608.456C1430.31 612.818 1431.44 617.179 1431.07 621.499C1431.11 622.546 1430.87 623.584 1430.36 624.501C1429.86 625.419 1429.11 626.182 1428.21 626.709C1425.01 627.96 1422.39 624.205 1419.64 622.186C1415.6 619.157 1410.03 619.723 1405.06 620.409L1327.12 631.312C1317.71 632.604 1307.89 633.896 1298.84 630.827C1291.29 628.283 1284.7 622.751 1276.78 621.701C1272.02 621.346 1267.24 621.824 1262.64 623.115L1192.46 638.46C1184.8 639.944 1177.26 642.023 1169.92 644.678C1163.5 647.182 1156.43 652.754 1158.37 659.458C1159.29 662.648 1162.16 664.869 1163.9 667.736C1167.54 673.874 1165.4 681.546 1165.48 688.694C1168.35 688.023 1171.06 686.788 1173.45 685.062C1175.85 683.336 1177.87 681.153 1179.41 678.639C1180.34 676.567 1181.72 674.73 1183.45 673.268C1184.86 672.429 1186.43 671.906 1188.06 671.734C1210.36 668.136 1233.19 669.88 1254.68 676.822C1256.59 677.286 1258.35 678.215 1259.81 679.527C1261.67 681.546 1262.08 684.736 1264.22 686.432C1267.81 689.299 1274.03 686.432 1277.15 689.824C1279.45 692.328 1278.92 697.295 1282.2 698.264C1283.6 698.473 1285.03 698.172 1286.24 697.416L1317.39 682.798C1318.69 682.306 1319.85 681.486 1320.74 680.415C1322.64 677.629 1320.74 673.712 1321.67 670.562C1323.24 666.04 1329.75 666.161 1334.35 667.17C1345.02 669.391 1357.02 672.622 1362.03 682.273C1363.85 685.746 1364.49 689.784 1366.63 693.095C1371 699.92 1379.93 701.696 1387.32 705.21C1394.7 708.74 1400.94 714.258 1405.35 721.142C1409.76 728.026 1412.17 736.003 1412.29 744.177C1412.29 755.403 1407.48 766.629 1408.61 778.138C1409.1 782.862 1410.03 789 1416.05 788.879C1420.09 788.879 1421.01 783.872 1424.13 783.589C1428.81 783.226 1432.21 789.404 1431.68 793.442C1431.08 795.973 1430.25 798.446 1429.22 800.832C1425.62 811.977 1434.1 823.082 1441.98 831.723C1443.21 833.43 1445.02 834.623 1447.07 835.075C1450.27 835.358 1453.05 831.966 1456.2 832.572C1461.01 833.46 1460.04 841.213 1463.72 844.403C1466.47 846.786 1471.35 846.261 1473.05 849.41C1474.75 852.56 1472.32 855.71 1473.25 858.738C1474.71 863.463 1481.94 863.1 1485.13 866.815C1487.68 869.843 1486.75 874.447 1488.08 878.202C1489.39 881.034 1491.37 883.502 1493.86 885.39C1501.4 892.201 1508.97 899.012 1516.56 905.823C1519.4 908.665 1522.58 911.146 1526.02 913.213C1528.98 914.017 1531.88 915.029 1534.7 916.241C1537.49 920.562 1530.26 921.208 1528.68 925.165C1527.63 927.79 1530.34 930.698 1533.17 931.021C1536.06 931.02 1538.88 930.132 1541.25 928.477L1550.22 923.429C1553.7 921.819 1556.7 919.344 1558.95 916.241C1560.3 913.536 1561.09 910.581 1561.25 907.559C1564.52 880.06 1555.83 854.66 1565.29 828.655C1569.33 817.792 1558.38 807.656 1554.82 796.673C1553.73 793.402 1553.33 789.929 1552.44 786.618C1550.64 781.035 1548.15 775.702 1545.01 770.748L1531.67 747.489C1528.63 741.63 1524.83 736.198 1520.36 731.336C1517.8 729.197 1515.53 726.726 1513.61 723.987C1512.7 722.596 1512.25 720.948 1512.33 719.283C1512.42 717.619 1513.04 716.026 1514.1 714.739L1520.73 721.443C1521.12 721.961 1521.7 722.307 1522.34 722.412C1524.2 722.412 1523.72 719.464 1522.62 717.97C1509.74 701.01 1498.38 683.081 1486.83 665.192C1480.21 656.104 1475.29 645.9 1472.28 635.068C1471.52 631.554 1470.75 611.162 1462.99 615.523C1458.63 617.946 1461.05 629.616 1461.42 633.452C1461.66 636.158 1464.33 651.826 1456.41 647.666C1455.23 647.061 1454.59 641.044 1454.39 639.913C1452.72 632.26 1453.46 624.28 1456.49 617.058C1459.21 612.584 1461.28 607.743 1462.63 602.682C1462.75 601.338 1462.75 599.987 1462.63 598.644C1456.45 600.01 1450.05 600.093 1443.84 598.886Z" fill="white" stroke="#436AE5" stroke-linecap="round" stroke-linejoin="round"/>
<path d="M1096.52 238.04C1101.12 236.789 1102.13 230.206 1106.46 228.228C1112.68 225.361 1120.11 234.083 1126.13 230.812C1130.62 228.43 1130.7 220.999 1135.42 219.223C1140.84 217.163 1147.83 224.392 1152.03 220.394C1156.23 216.396 1149.85 206.462 1155.22 203.838C1158.94 202.02 1162.66 207.028 1166.82 207.108C1168.26 206.926 1169.65 206.444 1170.89 205.693C1172.14 204.942 1173.21 203.938 1174.05 202.747C1181.32 194.873 1188.84 186.595 1191.06 175.975C1192.19 170.483 1192.11 164.062 1196.31 160.347C1200.51 156.632 1206.53 157.52 1211.9 156.834C1217.28 156.147 1223.54 151.705 1221.68 146.577C1221.03 145.186 1220.28 143.837 1219.46 142.539C1218.68 140.528 1218.55 138.325 1219.08 136.235C1219.61 134.145 1220.77 132.27 1222.41 130.869L1222.89 130.465C1214.17 79.8271 1205.41 29.1623 1196.63 -21.5294C1195.75 -25.0297 1195.29 -28.6218 1195.26 -32.2305C1166.29 -23.934 1136.47 -18.9752 1106.38 -17.451C1102.74 -13.1458 1098.26 -9.63964 1093.21 -7.15377C1091.39 -6.14087 1089.35 -5.59941 1087.27 -5.57891C1086.54 -5.59801 1085.82 -5.72036 1085.12 -5.94233C1088.44 37.9116 1093.21 81.6039 1100.19 125.054C1100.88 128.239 1101 131.518 1100.56 134.745C1099.67 139.309 1096.52 143.427 1096.76 148.071C1097.65 152.085 1099.24 155.912 1101.45 159.378C1105.49 168.423 1102.58 178.963 1098.62 188.048C1094.66 197.134 1089.57 206.099 1089.12 215.992C1088.88 221.726 1090.22 227.38 1090.38 233.114C1090.44 234.257 1090.44 235.403 1090.38 236.546C1092.17 237.779 1094.36 238.311 1096.52 238.04Z" fill="white" stroke="#436AE5" stroke-linecap="round" stroke-linejoin="round"/>
<path d="M1356.86 193.742C1354.24 192.006 1351.33 190.39 1348.78 188.694C1341.15 183.445 1336.66 174.884 1332.38 166.646C1329.03 160.145 1325.75 152.109 1329.39 145.85C1323.6 144.447 1318.33 141.421 1314.2 137.128C1310.48 133.09 1306.12 127.759 1301.03 129.819C1297.8 131.151 1296.5 135.149 1293.51 136.926C1287.37 140.641 1278.12 133.292 1272.79 138.097C1271.78 139.026 1271.01 140.318 1269.76 140.883C1266.32 142.458 1263.66 137.653 1260.5 135.634C1255.74 132.565 1249.56 135.997 1243.9 135.634C1236.75 135.634 1229.76 129.415 1223.13 132.161C1223.13 131.555 1223.13 130.99 1222.81 130.424L1222.33 130.828C1220.69 132.229 1219.52 134.104 1218.99 136.195C1218.47 138.285 1218.6 140.487 1219.38 142.498C1220.2 143.797 1220.94 145.146 1221.6 146.537C1223.46 151.665 1217.23 156.147 1211.82 156.793C1206.41 157.439 1200.31 156.793 1196.23 160.306C1192.15 163.82 1192.19 170.442 1190.97 175.934C1188.75 186.393 1181.24 194.832 1173.96 202.707C1173.13 203.898 1172.06 204.901 1170.81 205.652C1169.57 206.403 1168.18 206.885 1166.73 207.068C1162.69 207.068 1158.85 201.98 1155.14 203.797C1149.76 206.422 1156.27 216.234 1151.95 220.353C1147.62 224.472 1140.75 217.123 1135.34 219.182C1130.61 220.959 1130.53 228.389 1126.05 230.772C1120.03 234.042 1112.6 225.32 1106.37 228.187C1102.05 230.166 1101.04 236.748 1096.43 238C1094.22 238.392 1091.94 237.93 1090.05 236.707C1089.89 241.296 1087.95 245.641 1084.64 248.822C1084.11 249.196 1083.66 249.661 1083.3 250.195C1081.81 252.86 1086.01 254.919 1087.34 257.544C1089.45 261.138 1086.05 265.62 1082.5 267.72C1078.94 269.82 1074.42 272.041 1073.69 276.119C1073.2 278.421 1073.93 280.965 1072.72 282.944C1070.86 285.972 1066.13 285.044 1063.22 282.944C1060.32 280.844 1057.69 277.896 1054.13 277.694C1052.32 277.754 1050.56 278.376 1049.12 279.476C1047.67 280.576 1046.6 282.098 1046.05 283.832C1045.04 287.278 1044.8 290.902 1045.33 294.452C1045.97 303.579 1046.58 312.664 1047.23 321.79C1055.15 320.221 1063.19 319.302 1071.26 319.045C1086.54 317.672 1101.12 312.301 1115.71 307.778C1173 290.172 1233.35 285.528 1292.22 274.02C1295.21 273.454 1298.16 272.768 1301.15 272.122C1304.74 264.449 1310.05 257.706 1316.66 252.416C1321.87 248.378 1328.02 244.864 1331.29 239.13C1333.39 235.456 1334.16 231.054 1336.34 227.541C1341.79 220.111 1352.66 216.073 1353.91 206.906C1354.52 202.464 1352.74 196.932 1356.26 194.105C1356.45 193.971 1356.65 193.849 1356.86 193.742Z" fill="white" stroke="#436AE5" stroke-linecap="round" stroke-linejoin="round"/>
<path d="M1370.07 -85.9375L1368.22 -84.6857C1362.28 -81.1725 1355.45 -79.0728 1350.2 -74.6308C1343.17 -68.6544 1339.77 -59.1649 1332.34 -53.7538C1326.52 -49.7157 1319.13 -48.4638 1312.38 -46.1217C1301.92 -42.5278 1295.33 -27.6272 1284.38 -26.2542C1283.34 -26.0506 1282.27 -26.2622 1281.38 -26.8436C1280.5 -27.425 1279.88 -28.3299 1279.66 -29.3636C1279.66 -30.3327 1279.98 -31.423 1279.66 -32.271C1279.38 -32.6545 1279.03 -32.9703 1278.61 -33.1944C1278.2 -33.4184 1277.74 -33.5447 1277.27 -33.5633C1273.32 -33.7985 1269.35 -33.6089 1265.43 -32.9979C1261.47 -32.3643 1257.42 -33.2907 1254.12 -35.5823C1253.35 -36.2017 1252.72 -36.9802 1252.27 -37.8651C1251.82 -38.75 1251.57 -39.7205 1251.54 -40.7107C1232.97 -35.3338 1214.73 -28.8753 1196.91 -21.3682C1205.75 29.7812 1214.61 81.0249 1223.5 132.363C1230.12 129.617 1237.11 135.674 1244.26 135.836C1249.92 135.836 1256.1 132.565 1260.87 135.836C1264.02 137.855 1266.69 142.66 1270.12 141.085C1271.37 140.52 1272.14 139.228 1273.15 138.299C1278.48 133.493 1287.74 140.843 1293.88 137.128C1296.87 135.351 1298.16 131.353 1301.39 130.021C1306.36 127.961 1310.85 133.413 1314.56 137.33C1318.69 141.623 1323.96 144.648 1329.75 146.052C1329.75 146.052 1329.75 145.769 1329.75 145.648C1332.3 141.61 1337.11 139.712 1339.81 135.836C1342.52 131.959 1341.15 90.1241 1350.4 110.718C1356.7 106.923 1357.35 98.1599 1356.9 90.851C1356.46 83.542 1356.18 75.0215 1361.63 70.1354C1362.21 69.5353 1362.98 69.1627 1363.81 69.0856C1366.52 69.0856 1366.92 73.9313 1369.59 74.2543C1375.71 68.4579 1379.57 60.6688 1380.46 52.287C1383.29 36.8614 1382.48 20.9916 1384.5 5.44489C1385.1 0.0595398 1386.17 -5.26365 1387.69 -10.4653C1381.74 -35.7169 1375.87 -60.8743 1370.07 -85.9375Z" fill="white" stroke="#436AE5" stroke-linecap="round" stroke-linejoin="round"/>
<path d="M1523.6 29.3511C1521.96 28.0488 1520.59 26.445 1519.56 24.6265C1518.15 23.1782 1516.43 22.0849 1514.52 21.4372C1512.61 20.7895 1510.57 20.6061 1508.58 20.9022C1506.58 21.1983 1504.69 21.9653 1503.05 23.1397C1501.41 24.3141 1500.07 25.862 1499.15 27.6551C1497.9 30.6836 1497.46 34.6814 1494.43 35.7313C1491.4 36.7812 1487.92 34.116 1484.49 33.5103C1479.88 32.7027 1475.76 36.2562 1472.37 39.5271C1468.04 43.8075 1461.58 45.9477 1458.1 50.5108C1456.13 53.0952 1454.06 56.1642 1450.99 56.8506C1449.5 57.1737 1448.93 44.7363 1448.69 31.9759L1401.14 47.6841C1397.37 31.5317 1393.58 15.3119 1389.79 -0.975126L1387.48 -10.8281C1385.96 -5.6265 1384.9 -0.303318 1384.29 5.08204C1382.39 20.6288 1383.2 36.4986 1380.25 51.9241C1379.36 60.306 1375.51 68.095 1369.38 73.8914C1366.72 73.5684 1366.31 68.7226 1363.61 68.7226C1362.78 68.7998 1362 69.1725 1361.42 69.7726C1355.97 74.6587 1356.29 83.1387 1356.7 90.488C1357.1 97.8374 1356.5 106.641 1350.19 110.356C1340.94 89.7612 1342.11 131.838 1339.61 135.473C1337.1 139.107 1332.09 141.328 1329.55 145.285C1325.51 151.585 1328.94 159.822 1332.34 166.485C1336.38 174.562 1341.1 183.284 1348.74 188.533C1351.2 190.229 1354.11 191.845 1356.82 193.581C1357.99 193.022 1359.3 192.784 1360.6 192.89C1361.9 192.996 1363.14 193.444 1364.21 194.187C1366.46 195.95 1368.41 198.063 1369.99 200.446C1372.72 203.951 1375.88 207.098 1379.4 209.814C1382.43 212.197 1387 214.175 1389.79 211.591C1392.57 209.007 1390.88 202.828 1393.83 199.921C1395.85 198.063 1399 198.427 1401.91 198.104C1411.12 196.933 1417.18 186.918 1426.15 185.464C1430.43 184.818 1435.76 185.747 1438.27 182.234C1439.25 180.639 1439.69 178.769 1439.52 176.904C1439.32 168.827 1435.2 161.074 1436.01 153.038C1436.9 147.763 1438.85 142.722 1441.74 138.219C1446.71 129.254 1451.64 120.249 1456.61 111.244C1458.71 107.448 1461.38 103.168 1465.66 102.441C1467.5 102.381 1469.33 102.22 1471.15 101.956C1477.78 99.8969 1475.52 89.2363 1480.12 84.0271C1481.79 82.4555 1483.65 81.0989 1485.66 79.989C1496.28 72.6396 1496 57.1736 1500.49 45.0593C1501.94 41.0212 1505.21 36.9831 1509.25 37.8311C1513.29 38.6791 1515.52 44.1305 1519.31 43.1614C1521.62 42.5557 1522.63 39.9309 1523.35 37.6292L1525.66 29.553C1524.96 29.5989 1524.27 29.5307 1523.6 29.3511Z" fill="white" stroke="#436AE5" stroke-linecap="round" stroke-linejoin="round"/>
<path d="M1636.72 149.525C1635.13 148.016 1633.17 146.964 1631.04 146.481C1628.9 145.998 1626.68 146.1 1624.6 146.779C1620.47 148.195 1616.23 149.222 1611.91 149.848C1609.74 150.095 1607.56 149.554 1605.75 148.323C1603.95 147.092 1602.65 145.254 1602.09 143.145C1601.99 142.293 1602.16 141.43 1602.58 140.681C1604.88 137.047 1610.66 142.216 1614.7 140.681C1615.35 140.322 1615.92 139.835 1616.37 139.25C1616.83 138.664 1617.16 137.993 1617.35 137.276C1617.54 136.559 1617.58 135.812 1617.47 135.078C1617.36 134.345 1617.11 133.641 1616.72 133.009C1615 130.539 1612.69 128.529 1610.01 127.154C1607.35 125.417 1604.6 121.702 1606.9 119.522C1607.75 118.754 1608.96 118.552 1609.89 117.866C1612.56 115.807 1610.58 111.243 1607.59 109.79C1604.6 108.336 1600.96 108.498 1597.89 107.205C1594.82 105.913 1592.4 101.673 1594.74 99.1292C1598.22 95.4949 1604.56 101.956 1609 99.6541C1613.45 97.3524 1610.62 90.9318 1607.02 87.8629C1603.43 84.7939 1598.66 81.0788 1600.03 76.5561C1600.35 75.666 1600.82 74.8341 1601.41 74.0929C1598.08 73.4045 1594.61 73.728 1591.47 75.0217C1587.71 76.6369 1584.4 79.7059 1580.28 80.0289C1576.92 80.3116 1573.65 78.7367 1570.3 78.9386C1567.68 79.4739 1565.09 80.1479 1562.54 80.9577C1561.25 81.3524 1559.87 81.3133 1558.61 80.8463C1557.35 80.3794 1556.27 79.5104 1555.55 78.3733C1555.06 76.8582 1555.16 75.2134 1555.83 73.7698C1557.72 69.9557 1559.84 66.2607 1562.18 62.7055C1563.34 60.8976 1563.95 58.7955 1563.95 56.6483C1563.95 54.5011 1563.34 52.3989 1562.18 50.5911C1558.38 46.2703 1550.91 47.9663 1546.02 44.5743C1540.64 40.5362 1540.16 31.2485 1533.9 29.6737C1531.21 29.4864 1528.51 29.4864 1525.82 29.6737L1523.51 37.7499C1522.83 40.0516 1521.82 42.6764 1519.47 43.2822C1515.68 44.2513 1513.21 38.8806 1509.41 37.9518C1505.62 37.0231 1502.1 41.3034 1500.65 45.18C1496.16 57.2943 1496.61 72.7603 1485.82 80.1097C1483.81 81.2196 1481.95 82.5762 1480.28 84.1478C1475.68 89.357 1477.94 100.018 1471.31 102.077C1469.49 102.34 1467.66 102.502 1465.82 102.562C1461.54 103.369 1458.87 107.569 1456.77 111.365C1451.8 120.37 1446.87 129.375 1441.9 138.339C1439.01 142.843 1437.06 147.883 1436.17 153.159C1435.36 161.235 1439.48 168.948 1439.68 177.024C1439.85 178.89 1439.41 180.759 1438.43 182.355C1435.92 185.868 1430.59 184.939 1426.31 185.585C1417.14 187.039 1411.08 197.053 1402.07 198.224C1399.36 198.547 1396.21 198.224 1393.99 200.042C1390.92 202.949 1392.94 208.845 1389.95 211.712C1386.96 214.579 1382.59 212.317 1379.56 209.935C1376.04 207.219 1372.88 204.072 1370.15 200.567C1368.57 198.184 1366.62 196.071 1364.37 194.307C1363.22 193.435 1361.82 192.944 1360.37 192.9C1358.92 192.857 1357.5 193.264 1356.29 194.065C1352.78 196.892 1354.55 202.424 1353.95 206.866C1352.74 215.911 1341.83 219.869 1336.94 227.662C1334.76 231.256 1333.99 235.738 1331.89 239.252C1328.62 244.986 1322.48 248.418 1317.26 252.537C1310.65 257.827 1305.34 264.57 1301.75 272.243C1364.09 259.321 1424.69 239.131 1485.09 218.9L1643.14 165.92C1643.41 165.205 1643.64 164.477 1643.83 163.739C1645.49 157.197 1643.34 150.736 1636.72 149.525Z" fill="white" stroke="#436AE5" stroke-linecap="round" stroke-linejoin="round"/>
<path d="M1513.86 336.045C1502.27 328.777 1500.13 326.556 1488.05 333.259C1478.56 338.037 1468.42 341.371 1457.95 343.152C1455.91 343.86 1453.69 343.86 1451.65 343.152C1449.1 341.981 1448.05 339.114 1446.35 336.853C1441.3 330.432 1431.57 331.159 1423.57 332.451L1390.03 337.903C1380.4 338.934 1371.03 341.668 1362.36 345.979C1357.07 348.967 1352.42 353.086 1347.05 355.993C1343.29 357.89 1339.35 359.392 1335.29 360.476C1334.15 363.265 1333.35 366.179 1332.91 369.158C1332.38 372.042 1332.55 375.007 1333.39 377.814C1334.24 380.621 1335.73 383.189 1337.75 385.31C1341.79 389.348 1348.3 390.196 1353.03 393.588C1362.96 400.776 1361.67 410.993 1373.99 416.282C1382.96 420.321 1395.08 421.209 1402.52 427.993C1408.21 433.202 1409.51 442.651 1415.97 447.013C1419.01 448.477 1422.23 449.549 1425.55 450.203C1428.52 451.308 1431.12 453.227 1433.06 455.74C1435 458.253 1436.19 461.26 1436.49 464.417C1436.82 468.697 1435.53 473.22 1437.18 477.177C1439.32 482.346 1445.26 484.405 1449.67 487.999C1453.49 491.762 1456.64 496.162 1458.96 501.002C1461.29 505.857 1465.07 509.866 1469.79 512.47H1470.11C1470.39 511.143 1470.48 509.785 1470.39 508.432C1470.12 506.675 1470.26 504.878 1470.8 503.183C1471.36 501.89 1472.49 500.921 1472.98 499.629C1473.91 497.287 1472.57 494.703 1471.81 492.32C1471.04 489.938 1471.44 486.505 1473.87 485.9C1476.29 485.294 1477.91 487.232 1480.05 486.546C1482.19 485.859 1482.15 481.902 1483.48 479.64C1485.74 475.845 1491.56 477.137 1495.36 474.795C1497.99 473.099 1499.04 469.828 1500.94 467.324C1504.65 462.438 1511.56 460.5 1514.55 455.21C1515.37 453.469 1516.03 451.658 1516.53 449.799C1517.46 447.068 1518.82 444.505 1520.57 442.207C1525.14 435.908 1533.22 431.345 1533.98 423.592C1533.93 421.71 1534.08 419.828 1534.43 417.979C1535.16 416.189 1536.23 414.557 1537.58 413.173C1547.68 400.493 1547.72 380.868 1561.46 372.267C1561.85 371.544 1562.28 370.843 1562.75 370.167C1547.09 357.907 1530.77 346.516 1513.86 336.045Z" fill="#76B5FF" stroke="#436AE5" stroke-linecap="round" stroke-linejoin="round"/>
<path d="M1108.59 434.131C1108.84 428.468 1108.07 422.806 1106.33 417.413C1104.84 413.999 1102.97 410.762 1100.75 407.762C1091.53 410.709 1082.07 412.858 1072.47 414.182L1005.29 425.206C999.63 439.528 993.3 453.554 986.297 467.283C979.833 479.802 972.723 492.279 970.137 506.13C965.168 531.651 975.308 556.808 978.217 581.925C981.368 609.748 968.076 634.017 962.905 660.911C961.613 664.904 961.903 669.239 963.713 673.025C966.905 678.032 974.339 678.275 979.874 676.054C985.409 673.833 990.135 669.875 995.792 667.978C1006.01 664.666 1017.37 669.068 1027.87 666.766C1032.64 665.716 1037.04 663.334 1041.85 662.728C1044.23 662.14 1046.73 662.342 1048.98 663.304C1051.24 664.266 1053.11 665.935 1054.33 668.058C1056.03 672.096 1053.77 676.902 1054.33 681.384C1054.82 687.118 1059.5 691.439 1062.41 696.285C1064.43 699.458 1065.81 702.998 1066.45 706.703C1070.98 706.729 1075.47 705.764 1079.58 703.876C1083.66 701.356 1087.56 698.564 1091.26 695.517C1095.31 692.636 1100.32 691.435 1105.24 692.166C1111.04 693.447 1117.1 692.556 1122.29 689.662C1120.74 683.432 1119.52 677.124 1118.65 670.764C1106.57 592.626 1109.48 513.237 1108.59 434.131Z" fill="white" stroke="#436AE5" stroke-linecap="round" stroke-linejoin="round"/>
<path d="M1274.85 571.184C1273.11 562.866 1270.81 553.174 1276.43 546.753C1278.61 544.25 1282 541.867 1281.27 538.677C1280.77 537.147 1279.8 535.817 1278.49 534.881C1273.02 530.18 1268.34 524.631 1264.63 518.446C1261.54 512.31 1259.18 505.832 1257.6 499.144C1247.26 462.128 1236.9 425.099 1226.53 388.056C1209.24 392.255 1191.93 396.293 1174.61 400.17C1162.86 402.835 1150.74 405.5 1138.9 403.401C1132.27 402.189 1125.65 399.564 1119.02 400.614C1114.79 401.674 1110.72 403.275 1106.9 405.379C1104.96 406.268 1102.86 407.035 1100.92 407.762C1103.13 410.762 1105 413.999 1106.5 417.413C1108.24 422.806 1109.01 428.468 1108.76 434.131C1109.65 513.116 1106.74 592.505 1118.29 670.643C1119.17 677.003 1120.38 683.311 1121.93 689.541C1126.46 687.118 1130.62 683.686 1135.99 680.738C1145.44 675.529 1148.68 688.168 1158.57 689.137C1160.96 689.354 1163.36 689.163 1165.69 688.572C1165.69 681.424 1167.75 673.752 1164.11 667.614C1162.37 664.747 1159.5 662.526 1158.57 659.336C1156.64 652.713 1163.71 647.222 1170.13 644.556C1177.47 641.901 1185.01 639.822 1192.67 638.338L1262.85 622.993C1267.17 621.828 1271.64 621.338 1276.1 621.539C1278.8 604.821 1278.38 587.747 1274.85 571.184Z" fill="white" stroke="#436AE5" stroke-linecap="round" stroke-linejoin="round"/>
<path d="M1458.95 500.638C1456.63 495.798 1453.49 491.398 1449.66 487.636C1445.38 484.042 1439.32 481.982 1437.18 476.814C1435.52 472.776 1436.81 468.334 1436.49 464.053C1436.18 460.896 1434.99 457.89 1433.06 455.376C1431.12 452.863 1428.52 450.944 1425.54 449.839C1422.23 449.186 1419.01 448.114 1415.97 446.649C1409.5 442.288 1408.21 432.839 1402.51 427.63C1395.08 420.845 1382.96 419.795 1373.99 415.919C1361.67 410.629 1362.96 400.413 1353.02 393.225C1348.29 389.833 1341.99 388.904 1337.75 384.947C1335.73 382.826 1334.23 380.257 1333.39 377.451C1332.55 374.644 1332.38 371.678 1332.9 368.794C1333.35 365.816 1334.15 362.901 1335.29 360.112L1331.24 361.283C1296.5 370.571 1261.66 379.428 1226.73 387.854C1237.07 424.897 1247.43 461.926 1257.8 498.942C1259.37 505.63 1261.73 512.108 1264.83 518.245C1268.53 524.429 1273.21 529.978 1278.68 534.68C1279.99 535.616 1280.97 536.946 1281.47 538.476C1282.2 541.706 1278.8 544.089 1276.62 546.552C1271.09 552.972 1273.31 562.704 1275.05 570.982C1278.54 587.595 1278.91 604.711 1276.14 621.459H1277.03C1285.11 622.509 1291.53 628.041 1299.09 630.585C1308.09 633.654 1317.91 632.362 1327.37 631.069L1405.3 620.167C1410.27 619.48 1415.85 618.915 1419.89 621.943C1422.63 623.962 1425.26 627.718 1428.45 626.466C1429.36 625.939 1430.1 625.176 1430.61 624.259C1431.11 623.341 1431.36 622.303 1431.32 621.257C1431.68 616.936 1430.55 612.575 1430.75 608.214C1430.68 606.026 1431.29 603.869 1432.51 602.049C1433.73 600.23 1435.49 598.84 1437.54 598.078C1439.74 597.805 1441.97 597.997 1444.09 598.643C1450.31 599.869 1456.72 599.8 1462.91 598.442C1462.91 596.584 1462.51 594.726 1462.23 592.909C1459.93 577.368 1459.67 561.594 1461.46 545.987C1461.85 538.243 1463.2 530.578 1465.5 523.171C1467.44 519.602 1469.04 515.857 1470.27 511.986H1469.94C1465.19 509.44 1461.34 505.473 1458.95 500.638Z" fill="white" stroke="#436AE5" stroke-linecap="round" stroke-linejoin="round"/>
<path d="M1302.81 339.962C1308.06 335.277 1310.44 328.17 1314.93 322.961C1320.66 316.581 1329.55 313.27 1333.95 305.961C1337.63 299.904 1338.76 290.899 1345.59 289.041C1348.18 288.738 1350.78 288.576 1353.39 288.557C1360.01 287.507 1363.81 280.48 1369.55 277.169C1372.17 275.675 1375.25 275.029 1377.63 273.373C1379.86 271.764 1381.68 269.646 1382.93 267.195C1384.18 264.745 1384.83 262.031 1384.82 259.28C1384.9 256.569 1384.66 253.858 1384.09 251.204C1353.79 260.128 1323.21 268.124 1292.22 274.181C1233.36 285.69 1173 290.333 1115.71 307.939C1101 312.462 1086.42 317.833 1071.27 319.206C1057.97 320.417 1042.26 319.529 1033.97 329.988C1030.48 335.299 1028.3 341.359 1027.59 347.674C1022.29 374.177 1014.67 400.162 1004.8 425.327L1071.99 414.303C1083.77 412.876 1095.32 409.917 1106.33 405.5C1110.15 403.396 1114.23 401.795 1118.45 400.735C1125.08 399.685 1131.71 402.31 1138.33 403.522C1150.17 405.621 1162.29 402.956 1174.05 400.291C1207.74 392.565 1241.31 384.489 1274.77 376.062C1274.97 367.986 1275.62 358.86 1281.23 352.884C1286.85 346.907 1296.62 345.292 1302.81 339.962Z" fill="white" stroke="#436AE5" stroke-linecap="round" stroke-linejoin="round"/>
<path d="M1665.89 204.968C1665.49 201.94 1663.51 198.144 1660.6 198.992C1658.98 199.436 1658.14 201.132 1657.37 202.626C1655.27 206.664 1651.63 210.904 1647.07 210.46C1643.96 210.177 1641.41 207.835 1638.42 206.947C1628.76 203.999 1628.93 214.135 1622.7 215.225C1616.48 216.315 1614.02 205.857 1614.62 201.213C1616.6 187.887 1622.22 208.158 1628.32 197.175C1630.78 192.854 1634.3 196.609 1637.17 195.034C1640.04 193.46 1639.79 188.937 1642.78 187.201C1644.04 186.474 1645.65 186.676 1646.82 186.07C1649.85 184.616 1649.17 179.972 1647.19 177.267C1645.21 174.561 1642.34 172.017 1642.34 168.666C1642.37 167.702 1642.55 166.75 1642.86 165.839L1484.81 218.819C1451.48 229.964 1418.11 241.109 1384.42 251.124C1384.98 253.777 1385.22 256.489 1385.14 259.2C1385.15 261.951 1384.5 264.664 1383.25 267.115C1382 269.566 1380.18 271.683 1377.95 273.293C1375.37 274.949 1372.3 275.595 1369.87 277.089C1364.01 280.319 1360.22 287.426 1353.71 288.476C1351.11 288.496 1348.5 288.657 1345.91 288.961C1339.09 290.818 1337.83 299.823 1334.28 305.881C1329.87 313.189 1320.99 316.501 1315.25 322.881C1310.56 328.09 1308.18 334.995 1303.13 339.881C1296.95 345.333 1287.78 346.665 1282.12 352.682C1276.46 358.699 1275.86 367.583 1275.66 375.861C1294.27 371.15 1312.84 366.318 1331.37 361.364C1336.95 360.088 1342.37 358.192 1347.53 355.711C1352.9 352.803 1357.55 348.685 1362.84 345.696C1371.52 341.386 1380.89 338.651 1390.52 337.62L1424.05 332.169C1432.13 330.876 1441.79 330.15 1446.84 336.57C1448.53 338.751 1449.58 341.699 1452.13 342.87C1454.17 343.577 1456.39 343.577 1458.43 342.87C1468.73 341.106 1478.7 337.841 1488.05 333.178C1500.17 326.475 1502.27 328.696 1513.86 335.964C1530.63 346.395 1546.81 357.732 1562.34 369.925C1565.23 365.294 1569.28 361.505 1574.1 358.941C1577.7 357.043 1581.66 355.913 1585.29 354.096C1589.08 352.538 1592.17 349.671 1594.02 346.019C1594.85 343.479 1595.38 340.849 1595.59 338.185C1597.53 325.708 1606.34 313.028 1613.57 302.892C1616.05 299.084 1619.36 295.887 1623.25 293.543C1627.14 291.2 1631.51 289.771 1636.04 289.365C1637.99 289.433 1639.95 289.338 1641.9 289.082C1642.88 288.949 1643.81 288.562 1644.59 287.961C1645.38 287.359 1646 286.562 1646.38 285.65C1646.64 284.457 1646.77 283.237 1646.74 282.015C1646.99 279.512 1648.4 277.291 1648.76 274.787C1649.13 272.284 1649.98 271.799 1647.67 270.749C1643.63 268.932 1638.95 271.678 1635.55 274.585C1632.16 277.493 1628.64 280.965 1624.2 280.683C1619.76 280.4 1616.32 273.697 1620.16 271.557C1621.44 271.03 1622.82 270.796 1624.2 270.87C1626.23 270.9 1628.24 270.438 1630.06 269.524C1631.87 268.61 1633.44 267.271 1634.62 265.621C1635.15 264.773 1635.48 263.82 1635.61 262.829C1635.73 261.839 1635.63 260.834 1635.32 259.884C1635.01 258.935 1634.5 258.063 1633.82 257.332C1633.15 256.6 1632.31 256.025 1631.39 255.646C1628.98 255.462 1626.56 255.639 1624.2 256.171C1621.78 256.171 1618.83 254.637 1619.31 252.133C1620.28 247.247 1631.23 251.649 1631.43 246.682C1631.38 245.835 1631.19 245.002 1630.87 244.219C1630.66 242.855 1630.85 241.463 1631.4 240.199C1631.95 238.936 1632.84 237.853 1633.98 237.074C1635.12 236.295 1636.45 235.851 1637.83 235.793C1639.21 235.736 1640.58 236.067 1641.77 236.748C1643.43 238 1644.52 240.019 1646.34 241.028C1650.38 243.128 1654.86 239.736 1657.53 236.183C1664.19 227.219 1667.18 216.057 1665.89 204.968Z" fill="white" stroke="#436AE5" stroke-linecap="round" stroke-linejoin="round"/>
<path d="M1101.32 159.539C1099.11 156.073 1097.52 152.246 1096.63 148.233C1096.43 143.589 1099.54 139.47 1100.43 134.907C1100.88 131.68 1100.75 128.4 1100.07 125.215C1093.24 81.7653 1088.31 38.0729 1085 -5.78097C1083.94 -6.09956 1082.92 -6.5471 1081.97 -7.11355C1074.57 -11.4747 1070.94 -19.9547 1067.75 -27.8694C1065.11 -33.7595 1063.19 -39.9405 1062.01 -46.2832C1022.42 -38.207 981.206 -38.207 942.34 -27.7887C942.865 -26.5772 943.229 -25.2446 943.673 -23.9928C946.986 -14.5033 956.925 -8.93066 961.814 -0.127575C963.41 3.09483 964.331 6.60913 964.521 10.2C964.711 13.7909 964.165 17.3826 962.916 20.7551C961.668 24.1275 959.744 27.2097 957.262 29.8126C954.779 32.4155 951.791 34.4844 948.481 35.8924C940.603 38.7998 928.806 40.9803 929.896 49.2989C930.306 51.1706 931.001 52.9684 931.957 54.6292C940.239 73.2449 920.927 92.3451 918.22 112.536C917.51 118.081 918.072 123.716 919.864 129.012C921.656 134.309 924.631 139.128 928.563 143.104C933.735 148.273 940.401 151.786 945.936 156.632C950.835 160.984 954.763 166.318 957.463 172.288C960.164 178.257 961.577 184.728 961.612 191.279C967.955 187.241 976.924 183.566 982.095 188.937C988.236 195.236 981.408 205.493 981.61 214.296C982.014 232.104 1009.04 236.142 1016.68 252.214C1021.28 261.946 1018.13 274.948 1025.57 282.702C1030.66 287.951 1038.94 288.799 1045.53 291.747C1045.32 289.113 1045.64 286.465 1046.45 283.953C1047 282.219 1048.07 280.697 1049.52 279.597C1050.96 278.497 1052.72 277.875 1054.53 277.816C1058.09 278.017 1060.76 281.006 1063.63 283.065C1066.49 285.124 1071.26 286.094 1073.12 283.065C1074.33 281.086 1073.6 278.542 1074.09 276.241C1074.98 272.202 1079.34 270.062 1082.9 267.841C1086.45 265.62 1089.85 261.259 1087.74 257.665C1086.21 255.04 1082.01 252.981 1083.7 250.316C1084.06 249.782 1084.51 249.317 1085.04 248.943C1087.06 246.898 1088.6 244.434 1089.55 241.726C1090.51 239.018 1090.86 236.133 1090.57 233.275C1090.57 227.541 1089.08 221.888 1089.32 216.154C1089.76 206.26 1094.86 197.296 1098.81 188.21C1102.77 179.124 1105.32 168.625 1101.32 159.539Z" fill="white" stroke="#436AE5" stroke-linecap="round" stroke-linejoin="round"/>
<path d="M817.745 108.659C832.984 105.766 848.422 104.039 863.924 103.49C870.579 103.84 877.252 103.392 883.801 102.158C890.023 100.381 894.104 97.6351 901.133 99.0484C908.163 100.462 913.011 105.994 918.708 109.911C922.748 90.6896 939.878 72.4373 931.96 54.6696C931.004 53.0088 930.309 51.2111 929.899 49.3393C928.808 41.0208 940.606 38.8402 948.484 35.9328C951.794 34.5248 954.782 32.4559 957.264 29.853C959.746 27.2501 961.671 24.1679 962.919 20.7954C964.167 17.423 964.713 13.8312 964.524 10.2404C964.334 6.64953 963.413 3.13522 961.816 -0.0871811C956.928 -8.89026 946.989 -14.4629 943.676 -23.9524C942.787 -26.4561 942.222 -29.4039 939.919 -30.6557C937.616 -31.9075 934.949 -30.9383 932.444 -30.9787C924.647 -30.9787 920.324 -40.0645 918.587 -47.6158C915.81 -58.7268 913.932 -70.0431 912.971 -81.4551C840.248 -71.9251 766.96 -67.2006 693.713 -62.8798C694.113 -53.4647 693.243 -44.0385 691.127 -34.8553C690.026 -31.4162 689.294 -27.8696 688.945 -24.2755C689.008 -21.0884 689.497 -17.924 690.4 -14.8667C692.563 -3.90153 696.234 6.71167 701.308 16.671C702.965 19.6188 704.904 22.4051 706.48 25.3933C709.424 31.9469 711.922 38.6926 713.954 45.5838C716.337 53.014 718.681 60.4441 721.064 67.8742C723.153 73.9655 724.906 80.1666 726.317 86.4495C727.69 94.1623 727.327 102.117 728.902 109.79C729.172 111.163 729.495 112.509 729.872 113.828C741.79 113.323 753.658 111.974 765.385 109.79C783.08 106.559 799.888 112.091 817.745 108.659Z" fill="white" stroke="#436AE5" stroke-linecap="round" stroke-linejoin="round"/>
<path d="M997.568 358.052C997.206 359.47 997.206 360.956 997.568 362.373C999.104 366.734 1005.45 365.725 1009.69 364.311C1014.63 362.699 1019.74 361.642 1024.92 361.162C1025.97 356.679 1026.98 352.197 1027.87 347.674C1028.58 341.359 1030.76 335.299 1034.25 329.988C1037.65 325.903 1042.31 323.062 1047.5 321.911C1046.86 312.785 1046.25 303.699 1045.61 294.573C1045.61 293.645 1045.61 292.716 1045.4 291.747C1038.82 288.799 1030.54 287.951 1025.45 282.701C1018.01 274.948 1021.16 261.945 1016.56 252.214C1008.92 236.061 981.893 232.023 981.489 214.296C981.287 205.493 988.114 195.236 981.973 188.936C976.802 183.566 967.833 187.281 961.49 191.278C961.456 184.727 960.042 178.257 957.342 172.287C954.641 166.318 950.713 160.984 945.814 156.631C940.279 151.786 933.694 148.273 928.442 143.104C924.509 139.127 921.534 134.308 919.742 129.012C917.95 123.716 917.388 118.081 918.099 112.535C918.099 111.647 918.26 110.759 918.584 109.87C912.887 105.832 907.796 100.34 901.009 99.0076C894.222 97.675 889.899 100.34 883.677 102.117C877.128 103.352 870.455 103.799 863.799 103.45C848.297 103.998 832.86 105.726 817.621 108.618C799.763 112.051 782.956 106.519 765.099 109.83C753.372 112.014 741.504 113.363 729.586 113.868C730.643 119.006 733.269 123.69 737.101 127.274C739.208 129.01 741.058 131.036 742.595 133.291C750.029 143.831 767.644 148.151 768.694 161.195C769.179 167.131 765.664 172.865 766.19 178.801C767.078 189.421 777.906 191.925 783.037 199.718C790.511 210.984 789.663 227.379 789.259 240.099C788.087 279.834 793.865 319.206 799.238 358.699C866.264 347.15 934.017 340.527 1001.73 333.985C1000.46 342.115 999.077 350.138 997.568 358.052Z" fill="white" stroke="#436AE5" stroke-linecap="round" stroke-linejoin="round"/>
<path d="M970.101 506.251C972.807 492.401 979.918 479.923 986.261 467.405C1003.55 433.733 1016.59 398.046 1025.09 361.162C1019.91 361.643 1014.8 362.699 1009.86 364.312C1005.45 365.725 999.109 366.735 997.735 362.374C997.373 360.956 997.373 359.47 997.735 358.053C999.243 350.138 1000.72 342.223 1002.18 334.309C934.467 340.85 866.713 347.473 799.688 359.022C803.041 383.574 806.232 408.206 807.485 432.919C809.101 464.215 809.101 497.125 812.495 528.259C814.588 530.087 817.048 531.447 819.709 532.248C822.371 533.049 825.173 533.272 827.928 532.903C831.322 532.418 835.402 531.247 837.624 533.872C838.613 535.333 839.095 537.078 838.998 538.839C839.523 549.136 839.806 559.514 839.887 569.851C883.735 561.182 928.07 555.181 972.646 551.882C969.414 536.739 966.949 521.556 970.101 506.251Z" fill="white" stroke="#436AE5" stroke-linecap="round" stroke-linejoin="round"/>
<path d="M1096.19 766.022C1095.46 763.296 1093.98 760.829 1091.91 758.902C1089.85 756.975 1087.29 755.665 1084.52 755.12C1082.08 754.921 1079.65 754.598 1077.24 754.15C1075.15 753.532 1073.3 752.262 1071.97 750.524C1070.64 748.787 1069.9 746.672 1069.86 744.486C1069.81 742.3 1070.47 740.156 1071.72 738.365C1072.98 736.574 1074.77 735.229 1076.84 734.525C1078.83 734.132 1080.77 733.564 1082.66 732.829C1083.65 732.102 1084.47 731.158 1085.04 730.067C1085.62 728.977 1085.93 727.77 1085.97 726.538C1086 725.307 1085.76 724.083 1085.24 722.962C1084.73 721.841 1083.97 720.851 1083.02 720.069C1080.95 718.637 1078.48 717.887 1075.96 717.924C1073.44 717.96 1070.99 718.78 1068.96 720.271C1066.97 721.905 1064.87 723.389 1062.66 724.713C1061.52 725.336 1060.21 725.548 1058.93 725.312C1057.66 725.077 1056.51 724.409 1055.67 723.42C1053.65 720.311 1056.52 715.102 1053.49 712.962C1050.46 710.821 1047.87 713.81 1045.65 715.869C1043.06 718.463 1039.76 720.231 1036.16 720.95C1032.57 721.669 1028.84 721.306 1025.45 719.907C1018.94 716.515 1016.68 706.137 1022.46 701.615C1028.24 697.092 1036.4 700.565 1043.27 702.988C1049.97 705.381 1057.03 706.65 1064.15 706.743H1066.05C1065.41 703.038 1064.03 699.498 1062.01 696.325C1058.98 691.479 1054.3 687.158 1053.93 681.424C1053.53 676.942 1055.79 672.258 1053.93 668.098C1052.71 665.975 1050.84 664.306 1048.58 663.344C1046.33 662.382 1043.83 662.18 1041.45 662.768C1036.64 663.495 1032.24 665.877 1027.47 666.806C1016.96 669.108 1005.61 664.706 995.391 668.018C989.734 669.835 985.007 673.792 979.472 676.094C973.937 678.396 966.544 678.072 963.312 673.065C961.501 669.279 961.212 664.944 962.504 660.951C967.675 634.057 980.967 609.788 977.816 581.965C976.685 571.91 974.382 561.775 972.362 551.801C927.786 555.1 883.451 561.101 839.603 569.77C839.603 581.75 839.428 593.73 839.078 605.709C838.301 615.068 838.599 624.484 839.966 633.774C842.964 646.348 848.596 658.143 856.491 668.381C862.147 676.457 868.611 685.422 866.874 695.073C865.662 701.857 860.45 707.47 859.601 714.294C859.52 719.018 860.147 723.728 861.46 728.266C863.642 740.38 861.177 753.181 860.854 765.498C868.884 762.742 877.441 761.872 885.862 762.953C891.721 763.842 897.336 765.821 903.154 766.992C911.234 768.647 934.061 772.928 940.283 765.982C947.07 758.35 939.879 749.385 955.151 754.272C956.1 754.434 957.07 754.434 958.019 754.272C964.726 753.949 977.412 768.445 981.654 760.531C983.27 757.542 981.21 753.868 978.786 751.526C976.361 749.184 973.251 747.205 972.16 743.974C971.748 742.668 971.544 741.306 971.554 739.936C971.463 739.02 971.631 738.097 972.039 737.271C972.583 736.619 973.359 736.204 974.203 736.114C975.047 736.024 975.894 736.265 976.564 736.787C982.393 741.073 986.492 747.304 988.118 754.352C989.33 761.944 987.755 769.778 989.209 777.329C990.664 784.88 997.289 792.593 1004.68 791.18C1009.17 790.372 1012.44 786.657 1016.2 784.032C1019.95 781.408 1025.61 779.994 1028.64 783.386C1029.69 784.517 1030.38 786.213 1031.91 786.657C1032.52 786.767 1033.14 786.748 1033.74 786.602C1034.34 786.456 1034.9 786.186 1035.39 785.809C1040.9 782.951 1045.08 778.053 1047.02 772.16C1047.92 769.209 1047.85 766.047 1046.82 763.139C1045.78 760.232 1043.85 757.732 1041.29 756.008C1038.01 754.11 1033.21 752.979 1033.21 749.224C1033.21 745.468 1039.39 743.611 1042.82 746.115C1046.26 748.618 1047.71 752.939 1050.5 756.129C1058.21 765.053 1074.25 763.923 1080.35 774.058C1082.46 777.571 1084.39 782.821 1088.43 782.135C1089.54 781.919 1090.56 781.402 1091.38 780.64C1093.42 778.858 1094.94 776.561 1095.79 773.989C1096.64 771.418 1096.77 768.666 1096.19 766.022Z" fill="white" stroke="#436AE5" stroke-linecap="round" stroke-linejoin="round"/>
<path d="M812.536 528.26C809.143 497.126 809.143 464.215 807.527 432.92C805.749 397.627 800.012 362.536 795.406 327.444L614.974 335.521C575.986 337.297 537.241 335.521 498.254 336.167C482.093 336.449 462.539 340.205 446.783 334.632V335.359C432.804 335.561 418.502 336.248 404.523 335.359C402.785 335.359 401.695 348.443 401.008 366.412C447.424 369.918 494.006 370.7 540.514 368.754C541.026 406.632 541.524 444.523 542.009 482.427C542.009 483.8 542.009 485.456 543.463 486.021C544.309 486.344 545.244 486.344 546.089 486.021C556.957 483.477 562.654 492.482 571.663 493.128C574.693 493.128 576.188 490.705 579.744 491.917C584.147 493.29 587.016 499.064 590.046 502.214C593.229 505.442 597.194 507.794 601.554 509.039C605.915 510.284 610.524 510.381 614.933 509.321C620.67 507.827 626.69 504.394 632.104 506.817C636.669 508.836 638.568 514.126 641.356 518.245C645.396 524.383 648.224 522.727 653.961 520.91C656.143 520.224 658.728 517.639 661.314 518.245C663.9 518.851 665.152 523.293 668.142 524.787C671.132 526.281 674.727 524.06 677.959 522.97C686.04 520.224 694.968 524.827 702.766 528.785C710.563 532.742 720.3 536.093 727.572 531.248C731.249 528.785 733.875 524.383 738.238 523.697C740.339 523.333 742.48 523.939 744.5 523.414C747.935 522.485 749.874 518.73 753.106 517.316C758.803 514.772 764.984 520.224 771.206 520.022C774.18 519.451 777.191 519.087 780.215 518.932C785.185 519.537 788.296 524.585 792.336 527.573C795.223 529.43 798.516 530.561 801.935 530.87C805.354 531.179 808.797 530.658 811.971 529.35L812.981 528.865L812.536 528.26Z" fill="white" stroke="#436AE5" stroke-linecap="round" stroke-linejoin="round"/>
<path d="M742.881 133.453C741.343 131.197 739.493 129.172 737.386 127.436C732.457 123.398 730.195 116.331 728.902 109.911C727.326 102.238 727.69 94.2831 726.316 86.5703C724.906 80.2874 723.152 74.0864 721.064 67.995C718.68 60.5649 716.337 53.1348 713.953 45.7047C711.921 38.8134 709.424 32.0678 706.479 25.5141C704.903 22.5259 702.964 19.7396 701.308 16.7918C697.436 9.60866 694.517 1.95279 692.621 -5.98318C675.612 -11.7981 659.371 -23.024 641.998 -19.5512C638.322 -18.4621 634.546 -17.7451 630.726 -17.411C621.878 -17.411 615.01 -25.043 606.485 -27.8697C601.938 -29.1317 597.223 -29.6901 592.507 -29.5254L371.834 -33.5635C370.137 7.38296 368.427 48.316 366.703 89.2355C396.479 88.7509 425.568 90.4873 455.303 92.2641C454.98 111.728 454.536 131.205 453.97 150.696C459.811 151.254 465.681 151.429 471.545 151.22L628.464 148.394C669.956 147.667 711.327 144.356 752.86 142.66C749.043 140.168 745.67 137.056 742.881 133.453Z" fill="white" stroke="#436AE5" stroke-linecap="round" stroke-linejoin="round"/>
<path d="M789.545 240.302C789.949 227.42 790.797 211.025 783.323 199.921C778.192 192.127 767.364 189.623 766.475 179.003C765.95 173.067 769.465 167.333 768.98 161.397C768.293 152.796 760.415 147.99 752.82 142.66C711.287 144.477 669.916 147.667 628.424 148.394L471.505 151.221C465.641 151.429 459.771 151.254 453.93 150.696C452.152 212.075 449.284 273.414 446.375 334.753C462.132 340.164 481.524 336.57 497.846 336.287C536.834 335.601 575.579 337.418 614.566 335.641L794.999 327.565C790.891 298.666 789.067 269.488 789.545 240.302Z" fill="white" stroke="#436AE5" stroke-linecap="round" stroke-linejoin="round"/>
<path d="M865.765 695.69C867.543 685.998 861.038 676.993 855.382 668.957C847.487 658.72 841.855 646.924 838.858 634.351C837.49 625.074 837.192 615.671 837.969 606.326C838.858 583.982 838.737 561.651 837.605 539.334C837.703 537.573 837.22 535.828 836.232 534.367C834.01 531.783 829.889 532.913 826.536 533.398C823.892 533.761 821.202 533.572 818.636 532.842C816.07 532.112 813.683 530.858 811.627 529.158C811.264 529.158 810.941 529.521 810.577 529.642C807.409 530.947 803.973 531.466 800.561 531.157C797.15 530.848 793.863 529.718 790.982 527.866C786.942 524.918 783.952 519.789 778.862 519.264C775.789 519.426 772.734 519.845 769.731 520.516C763.509 520.718 757.328 515.226 751.631 517.77C748.399 519.224 746.46 522.98 743.026 523.868C741.006 524.393 738.986 523.868 736.764 524.151C732.4 524.837 729.734 529.239 726.057 531.702C718.825 536.548 709.048 533.196 701.291 529.239C693.534 525.281 684.767 520.678 676.485 523.464C673.253 524.554 669.738 526.735 666.667 525.241C663.597 523.747 662.991 519.466 659.839 518.739C656.688 518.013 654.668 520.678 652.486 521.364C646.749 523.222 644.083 524.837 639.881 518.699C637.093 514.661 635.194 509.331 630.629 507.271C625.215 504.848 619.195 508.321 613.458 509.775C609.043 510.847 604.425 510.756 600.056 509.51C595.687 508.264 591.716 505.907 588.531 502.668C585.541 499.559 582.673 493.744 578.269 492.371C574.552 491.2 573.057 493.824 570.189 493.582C561.179 492.936 555.482 483.971 544.614 486.515C543.763 486.808 542.839 486.808 541.988 486.515C540.736 485.91 540.534 484.254 540.534 482.921C540.049 445.017 539.551 407.113 539.039 369.208C492.532 371.174 445.948 370.392 399.533 366.866C398.038 404.259 398.321 462.852 398.281 468.95C397.917 525.766 398.927 582.017 394.766 638.55C386.09 639.175 377.374 638.931 368.747 637.823L287.742 633.26L247.341 630.999C236.311 630.393 225.605 627.809 214.656 629.505C216.03 635.199 220.595 637.581 223.747 641.902C224.272 642.669 224.716 643.557 225.201 644.446C226.474 644.578 227.706 644.973 228.819 645.605C229.931 646.238 230.901 647.094 231.665 648.121C235.059 652.159 233.847 659.589 240.028 661.487C241.968 662.092 244.068 661.729 246.089 662.214C252.836 663.829 253.603 672.793 255.462 679.456C256.54 683.262 258.397 686.802 260.914 689.853C263.432 692.904 266.555 695.401 270.087 697.184C277.036 700.616 286.248 702.191 288.874 709.298C289.428 711.746 289.819 714.228 290.045 716.728C291.823 726.056 301.64 731.831 304.792 740.957C306.852 746.852 305.721 753.354 306.125 759.613C306.933 773.544 316.912 772.414 324.346 780.571C329.194 785.82 326.77 795.552 332.426 800.034C334.97 801.64 337.87 802.596 340.87 802.821C353.189 805.023 364.577 810.826 373.595 819.498C375.817 821.638 378.403 824.142 381.433 823.536C384.463 822.93 386.443 819.256 388.463 816.51C390.483 813.764 395.372 811.987 396.867 815.096C403.573 809.483 399.331 796.642 406.28 791.312C410.32 788.324 416.017 789.212 420.138 786.466C423.047 784.568 424.622 781.136 427.572 779.319C431.048 777.677 434.98 777.264 438.722 778.148L456.216 780.207C461.755 780.242 467.11 782.197 471.367 785.739C474.801 789.333 475.407 794.664 477.993 798.984C483.124 808.07 494.557 811.502 501.466 819.175C510.031 828.745 510.395 843.404 517.909 853.781C521.464 858.708 526.353 862.423 530.03 867.148C537.787 876.92 540.453 890.851 550.715 897.878C554.755 900.583 559.644 902.118 562.836 905.954C568.088 912.132 566.108 921.379 566.876 929.456C567.599 937.738 571.405 945.447 577.542 951.06C580.693 953.927 584.733 956.713 585.218 960.953C585.187 963.243 584.958 965.527 584.531 967.777C584.127 975.329 591.197 980.982 597.864 984.495C610.798 990.77 624.334 995.721 638.265 999.275L672 1009.13C679.313 1011.27 691.15 1016.19 693.574 1009.13C693.752 1007.97 693.544 1006.79 692.981 1005.77C692.419 1004.75 691.533 1003.94 690.464 1003.47C688.298 1002.59 686.204 1001.53 684.201 1000.32C680.161 997.175 681.777 985.222 680.161 980.457C676.794 970.577 673.468 960.684 670.182 950.777C669.503 949.158 669.252 947.392 669.455 945.648C670.182 942.539 673.495 940.924 675.515 938.38C676.187 937.39 676.649 936.273 676.871 935.098C677.093 933.922 677.07 932.713 676.805 931.547C676.54 930.38 676.037 929.281 675.329 928.317C674.621 927.353 673.721 926.544 672.687 925.943C669.697 924.368 664.93 923.277 665.617 920.006C665.98 918.189 668 917.341 669.657 916.655C673.656 915.498 677.145 913.021 679.555 909.629C680.112 908.773 680.493 907.814 680.674 906.81C680.856 905.805 680.835 904.774 680.613 903.777C680.391 902.781 679.973 901.838 679.382 901.006C678.791 900.173 678.039 899.466 677.172 898.928C676.108 898.614 675.099 898.137 674.182 897.514C671.556 895.051 675.757 890.972 679.394 890.73C683.03 890.488 687.676 890.73 689.171 887.5C689.503 886.344 689.537 885.122 689.268 883.95C689 882.778 688.438 881.693 687.635 880.796C685.988 879.02 684.857 876.828 684.363 874.457C684.161 872.034 686.666 869.409 688.807 870.418C690.948 871.428 690.706 874.134 692.443 875.224C694.181 876.314 696.483 874.941 698.382 873.568L707.473 866.138C708.66 865.322 709.575 864.169 710.099 862.827C710.745 860.323 708.604 858.102 707.513 855.801C706.422 853.499 707.755 849.501 710.139 850.43C711.23 850.834 711.715 852.086 712.442 852.934C715.674 856.77 721.775 853.337 725.37 849.824C726.38 848.895 727.431 847.644 726.986 846.351C726.542 845.059 725.774 844.978 725.128 844.332C722.623 841.829 724.522 837.144 727.754 835.691C731.348 834.585 735.178 834.487 738.824 835.408C746.482 836.853 754.369 836.55 761.893 834.52C765.639 833.494 769.143 831.734 772.202 829.342C775.26 826.951 777.813 823.975 779.71 820.588C782.255 815.581 783.023 809.645 786.498 805.203C788.881 802.134 792.477 799.913 794.174 796.4C796.679 791.272 794.376 785.012 795.79 779.44C797.763 774.18 801.374 769.692 806.092 766.639C806.59 766.119 807.271 765.814 807.991 765.791C809.607 765.791 809.85 768.133 809.324 769.829C808.799 771.525 807.991 773.1 809.001 774.352C810.011 775.604 813.647 774.635 815.142 776.29C817.243 778.673 813.567 782.751 816.193 784.811C818.819 786.87 823.829 784.043 826.091 782.751C836.791 775.963 848.197 770.357 860.109 766.033C860.473 753.919 862.937 740.876 860.715 728.802C859.414 724.262 858.802 719.552 858.897 714.83C859.341 708.046 864.513 702.433 865.765 695.69Z" fill="white" stroke="#436AE5" stroke-miterlimit="10"/>
</g>
<g filter="url(#filter0_d_5_65370)">
<ellipse cx="1446.88" cy="396.146" rx="19.9266" ry="19.9242" fill="white"/>
<path d="M1463.81 396.146C1463.81 405.493 1456.23 413.07 1446.88 413.07C1437.53 413.07 1429.95 405.493 1429.95 396.146C1429.95 386.799 1437.53 379.222 1446.88 379.222C1456.23 379.222 1463.81 386.799 1463.81 396.146Z" stroke="#FF7D01" stroke-width="6"/>
</g>
<g filter="url(#filter1_d_5_65370)">
<ellipse cx="1504.44" cy="444.85" rx="19.9266" ry="19.9242" fill="white"/>
<path d="M1521.37 444.85C1521.37 454.197 1513.79 461.774 1504.44 461.774C1495.09 461.774 1487.52 454.197 1487.52 444.85C1487.52 435.503 1495.09 427.926 1504.44 427.926C1513.79 427.926 1521.37 435.503 1521.37 444.85Z" stroke="#FF7D01" stroke-width="6"/>
</g>
</g>
<g filter="url(#filter2_d_5_65370)">
<rect x="1112" y="435.842" width="284" height="104" rx="25" fill="white"/>
</g>
<path d="M1156.16 470.861V471.223H1152.86V470.861C1152.86 470.334 1152.64 469.927 1152.19 469.641C1151.75 469.348 1151.1 469.201 1150.26 469.201C1149.49 469.201 1148.87 469.331 1148.39 469.592C1147.9 469.852 1147.66 470.236 1147.66 470.744C1147.66 471.421 1148.26 471.893 1149.46 472.16C1149.72 472.219 1150.28 472.326 1151.14 472.482C1152.01 472.632 1152.69 472.772 1153.18 472.902C1153.81 473.078 1154.4 473.303 1154.94 473.576C1155.48 473.85 1155.91 474.253 1156.24 474.787C1156.57 475.321 1156.74 475.972 1156.74 476.74C1156.74 478.094 1156.18 479.149 1155.05 479.904C1153.92 480.66 1152.37 481.037 1150.38 481.037C1148.33 481.037 1146.75 480.653 1145.65 479.885C1144.55 479.117 1144 478.003 1144 476.545V476.037H1147.3V476.604C1147.3 477.268 1147.55 477.746 1148.07 478.039C1148.58 478.332 1149.35 478.479 1150.38 478.479C1152.42 478.479 1153.44 477.906 1153.44 476.76C1153.44 476.148 1152.84 475.708 1151.64 475.441C1151.59 475.428 1151.09 475.334 1150.13 475.158C1149.18 474.976 1148.45 474.807 1147.93 474.65C1147.31 474.462 1146.72 474.221 1146.16 473.928C1145.64 473.648 1145.2 473.234 1144.87 472.688C1144.53 472.154 1144.36 471.512 1144.36 470.764C1144.36 469.494 1144.88 468.488 1145.92 467.746C1146.97 467.01 1148.41 466.643 1150.26 466.643C1152.14 466.643 1153.59 467.004 1154.62 467.727C1155.65 468.462 1156.16 469.507 1156.16 470.861ZM1164.45 481.037C1162.75 481.037 1161.38 480.578 1160.32 479.66C1159.27 478.742 1158.74 477.469 1158.74 475.842C1158.74 474.214 1159.27 472.941 1160.32 472.023C1161.38 471.105 1162.75 470.646 1164.45 470.646C1166.14 470.646 1167.51 471.105 1168.57 472.023C1169.62 472.941 1170.15 474.214 1170.15 475.842C1170.15 477.469 1169.62 478.742 1168.57 479.66C1167.51 480.578 1166.14 481.037 1164.45 481.037ZM1164.45 478.566C1165.3 478.566 1165.97 478.312 1166.46 477.805C1166.95 477.297 1167.19 476.643 1167.19 475.842C1167.19 475.041 1166.95 474.387 1166.46 473.879C1165.97 473.371 1165.3 473.117 1164.45 473.117C1163.59 473.117 1162.92 473.371 1162.44 473.879C1161.96 474.387 1161.71 475.041 1161.71 475.842C1161.71 476.643 1161.96 477.297 1162.44 477.805C1162.92 478.312 1163.59 478.566 1164.45 478.566ZM1172.54 470.842H1175.42V475.881C1175.42 476.721 1175.65 477.365 1176.1 477.814C1176.54 478.257 1177.17 478.479 1177.96 478.479C1178.77 478.479 1179.4 478.238 1179.85 477.756C1180.28 477.281 1180.5 476.656 1180.5 475.881V470.842H1183.38V480.842H1180.5V479.182H1180.34C1180.27 479.351 1180.11 479.562 1179.88 479.816C1179.69 480.038 1179.47 480.23 1179.24 480.393C1178.98 480.575 1178.62 480.728 1178.17 480.852C1177.72 480.975 1177.24 481.037 1176.74 481.037C1175.48 481.037 1174.47 480.673 1173.7 479.943C1172.93 479.221 1172.54 478.133 1172.54 476.682V470.842ZM1186.74 477.062V473.166H1185.28V471.506L1188.06 468.84H1189.62V470.842H1192.74V473.166H1189.62V476.682C1189.62 477.43 1189.79 477.945 1190.13 478.225C1190.47 478.505 1190.95 478.645 1191.57 478.645C1191.82 478.645 1192.07 478.615 1192.31 478.557C1192.55 478.498 1192.74 478.433 1192.85 478.361L1193.04 478.283V480.686C1192.54 480.926 1191.92 481.044 1191.15 481.037C1189.68 481.037 1188.57 480.715 1187.83 480.07C1187.1 479.426 1186.74 478.423 1186.74 477.062ZM1206.08 480.842H1203.2V475.803C1203.2 474.963 1202.97 474.322 1202.52 473.879C1202.08 473.43 1201.46 473.205 1200.66 473.205C1199.84 473.205 1199.22 473.443 1198.78 473.918C1198.34 474.4 1198.12 475.028 1198.12 475.803V480.842H1195.24V466.838H1198.12V472.502H1198.28C1198.35 472.346 1198.51 472.131 1198.74 471.857C1198.94 471.636 1199.16 471.447 1199.39 471.291C1199.65 471.109 1200.01 470.956 1200.46 470.832C1200.91 470.708 1201.38 470.646 1201.88 470.646C1203.13 470.646 1204.15 471.008 1204.92 471.73C1205.69 472.46 1206.08 473.55 1206.08 475.002V480.842ZM1215.44 479.094C1214.13 477.805 1213.48 476.053 1213.48 473.84C1213.48 471.633 1214.13 469.878 1215.44 468.576C1216.74 467.287 1218.51 466.643 1220.73 466.643C1222.87 466.643 1224.59 467.189 1225.89 468.283C1227.19 469.377 1227.83 470.751 1227.83 472.404H1224.46C1224.45 472.326 1224.43 472.219 1224.4 472.082C1224.36 471.939 1224.27 471.701 1224.12 471.369C1223.95 471.024 1223.75 470.725 1223.52 470.471C1223.28 470.21 1222.92 469.973 1222.43 469.758C1221.94 469.549 1221.37 469.445 1220.73 469.445C1219.48 469.445 1218.5 469.859 1217.81 470.686C1217.12 471.512 1216.78 472.564 1216.78 473.84C1216.78 475.116 1217.13 476.171 1217.82 477.004C1218.51 477.831 1219.48 478.244 1220.73 478.244C1221.35 478.244 1221.9 478.146 1222.39 477.951C1222.89 477.756 1223.27 477.505 1223.53 477.199C1224.05 476.587 1224.34 476.047 1224.4 475.578L1224.46 475.285H1227.83C1227.83 476.945 1227.19 478.316 1225.89 479.396C1224.59 480.49 1222.87 481.037 1220.73 481.037C1218.5 481.037 1216.74 480.389 1215.44 479.094ZM1229.93 478.02C1229.93 476.991 1230.36 476.219 1231.2 475.705C1232.05 475.197 1233.12 474.943 1234.42 474.943C1235.09 474.943 1235.69 475.012 1236.22 475.148C1236.76 475.298 1237.13 475.435 1237.34 475.559L1237.66 475.783V474.318C1237.66 473.889 1237.5 473.527 1237.17 473.234C1236.84 472.948 1236.3 472.805 1235.54 472.805C1234.99 472.805 1234.5 472.906 1234.07 473.107C1233.62 473.316 1233.4 473.635 1233.4 474.064H1230.44C1230.45 472.925 1230.91 472.069 1231.83 471.496C1232.74 470.93 1233.98 470.646 1235.54 470.646C1237.12 470.646 1238.35 470.952 1239.22 471.564C1240.1 472.176 1240.54 473.094 1240.54 474.318V477.443C1240.54 477.847 1240.59 478.127 1240.69 478.283C1240.78 478.439 1240.95 478.518 1241.19 478.518L1241.61 478.439V480.842C1241.37 480.972 1240.95 481.037 1240.37 481.037C1239.62 481.037 1239.06 480.874 1238.67 480.549C1238.33 480.269 1238.11 480.012 1238.02 479.777L1237.96 479.641H1237.81C1237.81 479.667 1237.78 479.725 1237.72 479.816C1237.65 479.901 1237.52 480.018 1237.34 480.168C1237.15 480.318 1236.94 480.451 1236.68 480.568C1236.02 480.881 1235.15 481.037 1234.07 481.037C1232.89 481.037 1231.9 480.78 1231.12 480.266C1230.33 479.758 1229.93 479.009 1229.93 478.02ZM1235.26 478.859C1235.77 478.859 1236.23 478.794 1236.64 478.664C1237.03 478.54 1237.3 478.413 1237.45 478.283L1237.66 478.098V477.502C1237.61 477.45 1237.54 477.395 1237.45 477.336C1237.34 477.264 1237.09 477.176 1236.68 477.072C1236.25 476.962 1235.78 476.906 1235.26 476.906C1233.68 476.906 1232.89 477.232 1232.89 477.883C1232.89 478.534 1233.68 478.859 1235.26 478.859ZM1250.14 470.646L1251.13 470.744V473.918C1250.71 473.716 1250.13 473.618 1249.4 473.625C1248.47 473.625 1247.75 473.885 1247.25 474.406C1246.75 474.94 1246.5 475.611 1246.5 476.418V480.842H1243.62V470.842H1246.5V472.678H1246.66C1246.77 472.443 1246.91 472.209 1247.1 471.975C1247.29 471.734 1247.5 471.525 1247.74 471.35C1248 471.154 1248.35 470.988 1248.78 470.852C1249.21 470.715 1249.66 470.646 1250.14 470.646ZM1258.14 481.037C1256.44 481.037 1255.07 480.578 1254.02 479.66C1252.96 478.742 1252.43 477.469 1252.43 475.842C1252.43 474.214 1252.96 472.941 1254.02 472.023C1255.07 471.105 1256.44 470.646 1258.14 470.646C1259.83 470.646 1261.2 471.105 1262.26 472.023C1263.31 472.941 1263.84 474.214 1263.84 475.842C1263.84 477.469 1263.31 478.742 1262.26 479.66C1261.2 480.578 1259.83 481.037 1258.14 481.037ZM1258.14 478.566C1258.99 478.566 1259.66 478.312 1260.15 477.805C1260.64 477.297 1260.88 476.643 1260.88 475.842C1260.88 475.041 1260.64 474.387 1260.15 473.879C1259.66 473.371 1258.99 473.117 1258.14 473.117C1257.28 473.117 1256.61 473.371 1256.13 473.879C1255.65 474.387 1255.4 475.041 1255.4 475.842C1255.4 476.643 1255.65 477.297 1256.13 477.805C1256.61 478.312 1257.28 478.566 1258.14 478.566ZM1266.23 466.838H1269.11V480.842H1266.23V466.838ZM1271.92 470.842H1274.8V480.842H1271.92V470.842ZM1272.19 468.918C1271.9 468.684 1271.76 468.365 1271.76 467.961C1271.76 467.57 1271.9 467.251 1272.19 467.004C1272.47 466.763 1272.86 466.643 1273.36 466.643C1273.86 466.643 1274.25 466.763 1274.53 467.004C1274.82 467.251 1274.96 467.57 1274.96 467.961C1274.96 468.365 1274.82 468.684 1274.53 468.918C1274.25 469.159 1273.86 469.279 1273.36 469.279C1272.86 469.279 1272.47 469.159 1272.19 468.918ZM1288.44 480.842H1285.56V475.803C1285.56 474.963 1285.33 474.322 1284.88 473.879C1284.44 473.43 1283.82 473.205 1283.02 473.205C1282.21 473.205 1281.58 473.443 1281.14 473.918C1280.7 474.4 1280.48 475.028 1280.48 475.803V480.842H1277.6V470.842H1280.48V472.502H1280.65C1280.72 472.346 1280.87 472.131 1281.11 471.857C1281.31 471.636 1281.52 471.447 1281.75 471.291C1282.02 471.109 1282.38 470.956 1282.82 470.832C1283.27 470.708 1283.75 470.646 1284.24 470.646C1285.5 470.646 1286.51 471.008 1287.29 471.73C1288.06 472.46 1288.44 473.55 1288.44 475.002V480.842ZM1290.73 478.02C1290.73 476.991 1291.16 476.219 1292 475.705C1292.85 475.197 1293.92 474.943 1295.22 474.943C1295.89 474.943 1296.49 475.012 1297.02 475.148C1297.56 475.298 1297.93 475.435 1298.14 475.559L1298.46 475.783V474.318C1298.46 473.889 1298.3 473.527 1297.97 473.234C1297.65 472.948 1297.1 472.805 1296.34 472.805C1295.79 472.805 1295.3 472.906 1294.88 473.107C1294.43 473.316 1294.2 473.635 1294.2 474.064H1291.24C1291.25 472.925 1291.71 472.069 1292.63 471.496C1293.54 470.93 1294.78 470.646 1296.34 470.646C1297.92 470.646 1299.15 470.952 1300.02 471.564C1300.9 472.176 1301.34 473.094 1301.34 474.318V477.443C1301.34 477.847 1301.39 478.127 1301.49 478.283C1301.58 478.439 1301.75 478.518 1301.99 478.518L1302.41 478.439V480.842C1302.17 480.972 1301.75 481.037 1301.17 481.037C1300.43 481.037 1299.86 480.874 1299.47 480.549C1299.13 480.269 1298.91 480.012 1298.82 479.777L1298.76 479.641H1298.62C1298.62 479.667 1298.58 479.725 1298.52 479.816C1298.45 479.901 1298.33 480.018 1298.14 480.168C1297.95 480.318 1297.74 480.451 1297.48 480.568C1296.82 480.881 1295.95 481.037 1294.88 481.037C1293.69 481.037 1292.7 480.78 1291.92 480.266C1291.13 479.758 1290.73 479.009 1290.73 478.02ZM1296.06 478.859C1296.57 478.859 1297.03 478.794 1297.44 478.664C1297.83 478.54 1298.1 478.413 1298.25 478.283L1298.46 478.098V477.502C1298.41 477.45 1298.34 477.395 1298.25 477.336C1298.14 477.264 1297.89 477.176 1297.48 477.072C1297.05 476.962 1296.58 476.906 1296.06 476.906C1294.48 476.906 1293.69 477.232 1293.69 477.883C1293.69 478.534 1294.48 478.859 1296.06 478.859Z" fill="#272727"/>
<path d="M1154.16 507.842H1143.99V506.506C1143.99 505.938 1144.14 505.413 1144.44 504.933C1144.75 504.446 1145.15 504.036 1145.66 503.702C1146.38 503.233 1147.53 502.659 1149.11 501.979C1149.59 501.774 1150.02 501.575 1150.37 501.382C1150.73 501.188 1151.07 500.966 1151.4 500.714C1151.73 500.456 1151.98 500.175 1152.15 499.87C1152.33 499.56 1152.41 499.229 1152.41 498.877C1152.41 498.127 1152.14 497.562 1151.6 497.181C1151.05 496.8 1150.26 496.609 1149.23 496.609C1147.11 496.609 1146.05 497.456 1146.04 499.149V499.51H1144.35V499.149C1144.35 497.866 1144.79 496.864 1145.67 496.144C1146.54 495.423 1147.73 495.062 1149.23 495.062C1150.71 495.062 1151.9 495.402 1152.79 496.082C1153.67 496.768 1154.11 497.699 1154.11 498.877C1154.11 499.48 1153.96 500.046 1153.66 500.573C1153.36 501.101 1152.96 501.543 1152.45 501.9C1151.64 502.48 1150.51 503.075 1149.06 503.685C1148.55 503.896 1148.13 504.083 1147.79 504.247C1147.46 504.411 1147.12 504.604 1146.78 504.827C1146.44 505.05 1146.18 505.287 1146.01 505.539C1145.85 505.785 1145.77 506.049 1145.77 506.33H1154.16V507.842ZM1171.27 507.842H1169.21L1166.94 500.679H1166.86L1164.59 507.842H1162.53L1159.92 499.018H1161.48L1163.56 506.146H1163.63L1165.9 499.018H1167.91L1170.18 506.146H1170.25L1172.32 499.018H1173.88L1171.27 507.842ZM1175.25 505.372C1175.25 504.47 1175.63 503.802 1176.4 503.368C1177.16 502.94 1178.14 502.727 1179.33 502.727C1179.94 502.727 1180.51 502.8 1181.02 502.946C1181.56 503.099 1181.94 503.242 1182.16 503.377L1182.5 503.597V502.208C1182.5 501.61 1182.28 501.142 1181.84 500.802C1181.4 500.456 1180.74 500.283 1179.85 500.283C1178.09 500.283 1177.21 500.764 1177.21 501.725H1175.66C1175.67 500.752 1176.06 500.028 1176.85 499.554C1177.63 499.079 1178.63 498.842 1179.85 498.842C1181.08 498.842 1182.09 499.129 1182.87 499.703C1183.65 500.283 1184.04 501.118 1184.04 502.208V505.416C1184.04 505.861 1184.1 506.172 1184.22 506.348C1184.34 506.518 1184.53 506.603 1184.8 506.603C1185.04 506.603 1185.19 506.57 1185.27 506.506L1185.3 506.488V507.877C1185.12 507.971 1184.86 508.018 1184.51 508.018C1183.92 508.018 1183.49 507.892 1183.21 507.64C1182.99 507.452 1182.82 507.256 1182.72 507.051L1182.67 506.945H1182.6C1182.46 507.092 1182.31 507.215 1182.16 507.314C1181.97 507.438 1181.77 507.546 1181.56 507.64C1180.98 507.892 1180.28 508.018 1179.46 508.018C1178.21 508.018 1177.2 507.804 1176.42 507.376C1175.64 506.954 1175.25 506.286 1175.25 505.372ZM1179.69 504.168C1177.78 504.168 1176.83 504.569 1176.83 505.372C1176.83 506.181 1177.78 506.585 1179.69 506.585C1180.25 506.585 1180.76 506.523 1181.22 506.4C1181.68 506.289 1181.99 506.184 1182.16 506.084C1182.32 506.002 1182.43 505.929 1182.5 505.864V504.854C1182.43 504.789 1182.32 504.716 1182.16 504.634C1181.96 504.54 1181.65 504.44 1181.23 504.335C1180.78 504.224 1180.27 504.168 1179.69 504.168ZM1191.89 498.842C1192.25 498.842 1192.56 498.877 1192.83 498.947L1192.95 498.965V500.661C1192.61 500.544 1192.17 500.482 1191.62 500.477C1190.67 500.477 1189.92 500.778 1189.38 501.382C1188.83 501.985 1188.56 502.741 1188.56 503.649V507.842H1187.02V499.018H1188.56V500.731H1188.65C1188.74 500.544 1188.88 500.324 1189.08 500.072C1189.26 499.85 1189.46 499.656 1189.69 499.492C1189.94 499.316 1190.26 499.164 1190.65 499.035C1191.05 498.906 1191.47 498.842 1191.89 498.842ZM1203.79 503.43L1203.73 504.168H1195.76C1195.76 504.672 1196.06 505.199 1196.66 505.75C1197.25 506.307 1198.04 506.585 1199.04 506.585C1199.77 506.585 1200.37 506.447 1200.84 506.172C1201.23 505.938 1201.5 505.727 1201.65 505.539L1201.72 505.416H1203.54C1203.5 505.504 1203.47 505.595 1203.42 505.688C1203.35 505.823 1203.21 506.031 1202.99 506.312C1202.77 506.611 1202.5 506.878 1202.19 507.112C1201.9 507.341 1201.47 507.549 1200.9 507.736C1200.36 507.924 1199.74 508.018 1199.04 508.018C1197.58 508.018 1196.4 507.602 1195.49 506.77C1194.57 505.938 1194.11 504.824 1194.11 503.43C1194.11 502.047 1194.57 500.937 1195.48 500.099C1196.39 499.261 1197.54 498.842 1198.95 498.842C1200.35 498.842 1201.5 499.261 1202.42 500.099C1203.33 500.937 1203.79 502.047 1203.79 503.43ZM1201.29 501.118C1200.7 500.562 1199.92 500.283 1198.95 500.283C1197.97 500.283 1197.19 500.562 1196.61 501.118C1196.03 501.675 1195.74 502.223 1195.74 502.762H1202.15C1202.15 502.223 1201.86 501.675 1201.29 501.118ZM1214.99 507.842H1213.44V503.289C1213.44 502.258 1213.18 501.499 1212.66 501.013C1212.14 500.526 1211.44 500.283 1210.56 500.283C1209.64 500.283 1208.93 500.559 1208.43 501.109C1207.94 501.66 1207.69 502.387 1207.69 503.289V507.842H1206.14V495.238H1207.69V500.371H1207.78C1207.9 500.172 1208.04 499.993 1208.21 499.835C1208.4 499.659 1208.6 499.504 1208.81 499.369C1209.05 499.223 1209.37 499.1 1209.77 499C1210.17 498.895 1210.58 498.842 1211.02 498.842C1212.16 498.842 1213.1 499.182 1213.87 499.861C1214.62 500.547 1214.99 501.569 1214.99 502.929V507.842ZM1218.61 506.761C1217.7 505.923 1217.24 504.812 1217.24 503.43C1217.24 502.053 1217.7 500.942 1218.61 500.099C1219.52 499.261 1220.68 498.842 1222.08 498.842C1223.48 498.842 1224.64 499.261 1225.56 500.099C1226.46 500.942 1226.92 502.053 1226.92 503.43C1226.92 504.812 1226.46 505.923 1225.56 506.761C1224.64 507.599 1223.48 508.018 1222.08 508.018C1220.68 508.018 1219.52 507.599 1218.61 506.761ZM1224.45 505.697C1225.04 505.105 1225.34 504.35 1225.34 503.43C1225.34 502.51 1225.04 501.754 1224.45 501.162C1223.86 500.576 1223.07 500.283 1222.08 500.283C1221.09 500.283 1220.31 500.576 1219.72 501.162C1219.12 501.748 1218.82 502.504 1218.82 503.43C1218.82 504.355 1219.12 505.111 1219.72 505.697C1220.31 506.289 1221.1 506.585 1222.08 506.585C1223.06 506.585 1223.84 506.289 1224.45 505.697ZM1229.27 499.018H1230.82V503.579C1230.82 504.61 1231.08 505.369 1231.6 505.855C1232.12 506.342 1232.82 506.585 1233.69 506.585C1234.61 506.585 1235.33 506.307 1235.83 505.75C1236.33 505.199 1236.58 504.476 1236.58 503.579V499.018H1238.12V507.842H1236.58V506.488H1236.49C1236.37 506.676 1236.23 506.854 1236.06 507.024C1235.87 507.206 1235.66 507.361 1235.45 507.49C1235.21 507.643 1234.89 507.769 1234.49 507.868C1234.1 507.968 1233.68 508.018 1233.25 508.018C1232.1 508.018 1231.15 507.675 1230.41 506.989C1229.65 506.315 1229.27 505.299 1229.27 503.939V499.018ZM1247.48 505.231C1247.48 504.886 1247.31 504.619 1246.97 504.432C1246.63 504.238 1246.21 504.13 1245.72 504.106C1245.21 504.077 1244.66 504.024 1244.07 503.948C1243.44 503.872 1242.89 503.781 1242.42 503.676C1241.92 503.57 1241.5 503.333 1241.17 502.964C1240.83 502.601 1240.66 502.114 1240.66 501.505C1240.66 500.62 1241.03 499.952 1241.79 499.501C1242.54 499.062 1243.52 498.842 1244.72 498.842C1245.94 498.842 1246.93 499.088 1247.68 499.58C1248.42 500.072 1248.79 500.846 1248.79 501.9H1247.21C1247.21 501.35 1247.01 500.942 1246.61 500.679C1246.22 500.415 1245.59 500.283 1244.72 500.283C1243.07 500.283 1242.24 500.69 1242.24 501.505C1242.24 501.839 1242.41 502.094 1242.75 502.27C1243.09 502.451 1243.51 502.554 1244 502.577C1244.47 502.601 1245.02 502.65 1245.66 502.727C1246.26 502.809 1246.81 502.905 1247.3 503.017C1247.8 503.14 1248.22 503.386 1248.57 503.755C1248.9 504.136 1249.07 504.628 1249.07 505.231C1249.07 505.888 1248.86 506.433 1248.44 506.866C1248.03 507.294 1247.52 507.593 1246.9 507.763C1246.29 507.933 1245.58 508.018 1244.76 508.018C1243.04 508.018 1241.82 507.596 1241.09 506.752C1240.67 506.271 1240.46 505.674 1240.46 504.959V504.678H1242.04V504.959C1242.04 506.037 1242.95 506.576 1244.76 506.576C1246.57 506.588 1247.48 506.14 1247.48 505.231ZM1260.72 503.43L1260.67 504.168H1252.7C1252.7 504.672 1253 505.199 1253.59 505.75C1254.18 506.307 1254.98 506.585 1255.97 506.585C1256.71 506.585 1257.31 506.447 1257.78 506.172C1258.16 505.938 1258.43 505.727 1258.58 505.539L1258.66 505.416H1260.47C1260.44 505.504 1260.4 505.595 1260.36 505.688C1260.28 505.823 1260.14 506.031 1259.93 506.312C1259.7 506.611 1259.43 506.878 1259.13 507.112C1258.84 507.341 1258.41 507.549 1257.84 507.736C1257.3 507.924 1256.68 508.018 1255.97 508.018C1254.52 508.018 1253.33 507.602 1252.42 506.77C1251.5 505.938 1251.04 504.824 1251.04 503.43C1251.04 502.047 1251.5 500.937 1252.42 500.099C1253.32 499.261 1254.48 498.842 1255.89 498.842C1257.28 498.842 1258.44 499.261 1259.36 500.099C1260.27 500.937 1260.72 502.047 1260.72 503.43ZM1258.22 501.118C1257.64 500.562 1256.86 500.283 1255.89 500.283C1254.9 500.283 1254.12 500.562 1253.55 501.118C1252.97 501.675 1252.68 502.223 1252.68 502.762H1259.09C1259.09 502.223 1258.8 501.675 1258.22 501.118ZM1269.73 505.231C1269.73 504.886 1269.56 504.619 1269.23 504.432C1268.88 504.238 1268.46 504.13 1267.97 504.106C1267.46 504.077 1266.91 504.024 1266.33 503.948C1265.7 503.872 1265.14 503.781 1264.68 503.676C1264.17 503.57 1263.75 503.333 1263.42 502.964C1263.08 502.601 1262.91 502.114 1262.91 501.505C1262.91 500.62 1263.29 499.952 1264.04 499.501C1264.8 499.062 1265.78 498.842 1266.98 498.842C1268.2 498.842 1269.18 499.088 1269.93 499.58C1270.68 500.072 1271.05 500.846 1271.05 501.9H1269.47C1269.47 501.35 1269.27 500.942 1268.87 500.679C1268.48 500.415 1267.85 500.283 1266.98 500.283C1265.32 500.283 1264.49 500.69 1264.49 501.505C1264.49 501.839 1264.66 502.094 1265 502.27C1265.34 502.451 1265.76 502.554 1266.26 502.577C1266.72 502.601 1267.27 502.65 1267.91 502.727C1268.51 502.809 1269.06 502.905 1269.55 503.017C1270.05 503.14 1270.47 503.386 1270.82 503.755C1271.15 504.136 1271.32 504.628 1271.32 505.231C1271.32 505.888 1271.11 506.433 1270.7 506.866C1270.29 507.294 1269.77 507.593 1269.15 507.763C1268.55 507.933 1267.83 508.018 1267.01 508.018C1265.3 508.018 1264.07 507.596 1263.34 506.752C1262.92 506.271 1262.72 505.674 1262.72 504.959V504.678H1264.3V504.959C1264.3 506.037 1265.2 506.576 1267.01 506.576C1268.82 506.588 1269.73 506.14 1269.73 505.231ZM1280.2 498.666V499.018H1282.78V500.424H1280.2V507.842H1278.64V500.424H1277.17V499.562L1278.64 499.018V498.464C1278.64 497.333 1278.96 496.483 1279.59 495.915C1280.21 495.347 1281.06 495.062 1282.14 495.062C1282.46 495.062 1282.77 495.104 1283.09 495.186C1283.41 495.273 1283.64 495.353 1283.79 495.423L1284.01 495.546V496.935C1283.62 496.589 1283.08 496.416 1282.4 496.416C1281.67 496.416 1281.12 496.592 1280.75 496.943C1280.38 497.289 1280.2 497.863 1280.2 498.666ZM1285.64 506.761C1284.72 505.923 1284.27 504.812 1284.27 503.43C1284.27 502.053 1284.72 500.942 1285.64 500.099C1286.55 499.261 1287.7 498.842 1289.11 498.842C1290.5 498.842 1291.66 499.261 1292.58 500.099C1293.49 500.942 1293.94 502.053 1293.94 503.43C1293.94 504.812 1293.49 505.923 1292.58 506.761C1291.66 507.599 1290.5 508.018 1289.11 508.018C1287.7 508.018 1286.55 507.599 1285.64 506.761ZM1291.47 505.697C1292.07 505.105 1292.36 504.35 1292.36 503.43C1292.36 502.51 1292.07 501.754 1291.47 501.162C1290.88 500.576 1290.09 500.283 1289.11 500.283C1288.12 500.283 1287.33 500.576 1286.75 501.162C1286.15 501.748 1285.85 502.504 1285.85 503.43C1285.85 504.355 1286.15 505.111 1286.75 505.697C1287.34 506.289 1288.12 506.585 1289.11 506.585C1290.08 506.585 1290.87 506.289 1291.47 505.697ZM1296.3 499.018H1297.85V503.579C1297.85 504.61 1298.11 505.369 1298.63 505.855C1299.15 506.342 1299.85 506.585 1300.72 506.585C1301.64 506.585 1302.35 506.307 1302.86 505.75C1303.35 505.199 1303.6 504.476 1303.6 503.579V499.018H1305.15V507.842H1303.6V506.488H1303.51C1303.4 506.676 1303.25 506.854 1303.08 507.024C1302.89 507.206 1302.69 507.361 1302.48 507.49C1302.24 507.643 1301.92 507.769 1301.52 507.868C1301.12 507.968 1300.71 508.018 1300.27 508.018C1299.12 508.018 1298.18 507.675 1297.43 506.989C1296.68 506.315 1296.3 505.299 1296.3 503.939V499.018ZM1316.7 507.842H1315.15V503.289C1315.15 502.258 1314.89 501.499 1314.37 501.013C1313.85 500.526 1313.15 500.283 1312.27 500.283C1311.34 500.283 1310.63 500.559 1310.14 501.109C1309.64 501.66 1309.39 502.387 1309.39 503.289V507.842H1307.85V499.018H1309.39V500.371H1309.48C1309.61 500.172 1309.75 499.993 1309.91 499.835C1310.11 499.659 1310.31 499.504 1310.52 499.369C1310.76 499.223 1311.08 499.1 1311.48 499C1311.88 498.895 1312.29 498.842 1312.73 498.842C1313.86 498.842 1314.81 499.182 1315.57 499.861C1316.32 500.547 1316.7 501.569 1316.7 502.929V507.842ZM1327.08 495.238H1328.62V507.842H1327.08V506.523H1327.01C1326.91 506.676 1326.75 506.852 1326.51 507.051C1326.3 507.215 1326.08 507.364 1325.85 507.499C1325.6 507.64 1325.26 507.76 1324.85 507.859C1324.45 507.965 1324.04 508.018 1323.62 508.018C1322.29 508.018 1321.18 507.596 1320.29 506.752C1319.4 505.908 1318.95 504.801 1318.95 503.43C1318.95 502.07 1319.4 500.963 1320.29 500.107C1321.18 499.264 1322.29 498.842 1323.62 498.842C1324.34 498.842 1324.97 498.968 1325.53 499.22C1326.09 499.472 1326.48 499.718 1326.7 499.958L1327.01 500.336H1327.08V495.238ZM1321.43 501.171C1320.83 501.769 1320.53 502.521 1320.53 503.43C1320.53 504.344 1320.83 505.097 1321.43 505.688C1322.02 506.286 1322.81 506.585 1323.81 506.585C1324.8 506.585 1325.6 506.286 1326.19 505.688C1326.78 505.097 1327.08 504.344 1327.08 503.43C1327.08 502.492 1326.78 501.733 1326.17 501.153C1325.57 500.573 1324.78 500.283 1323.81 500.283C1322.81 500.283 1322.02 500.579 1321.43 501.171Z" fill="#436AE5"/>
</g>
<defs>
<filter id="filter0_d_5_65370" x="1406.95" y="366.222" width="79.8516" height="79.8486" filterUnits="userSpaceOnUse" color-interpolation-filters="sRGB">
<feFlood flood-opacity="0" result="BackgroundImageFix"/>
<feColorMatrix in="SourceAlpha" type="matrix" values="0 0 0 0 0 0 0 0 0 0 0 0 0 0 0 0 0 0 127 0" result="hardAlpha"/>
<feOffset dy="10"/>
<feGaussianBlur stdDeviation="10"/>
<feComposite in2="hardAlpha" operator="out"/>
<feColorMatrix type="matrix" values="0 0 0 0 0.246875 0 0 0 0 0.367998 0 0 0 0 0.75 0 0 0 0.7 0"/>
<feBlend mode="normal" in2="BackgroundImageFix" result="effect1_dropShadow_5_65370"/>
<feBlend mode="normal" in="SourceGraphic" in2="effect1_dropShadow_5_65370" result="shape"/>
</filter>
<filter id="filter1_d_5_65370" x="1464.52" y="414.926" width="79.8516" height="79.8486" filterUnits="userSpaceOnUse" color-interpolation-filters="sRGB">
<feFlood flood-opacity="0" result="BackgroundImageFix"/>
<feColorMatrix in="SourceAlpha" type="matrix" values="0 0 0 0 0 0 0 0 0 0 0 0 0 0 0 0 0 0 127 0" result="hardAlpha"/>
<feOffset dy="10"/>
<feGaussianBlur stdDeviation="10"/>
<feComposite in2="hardAlpha" operator="out"/>
<feColorMatrix type="matrix" values="0 0 0 0 0.246875 0 0 0 0 0.367998 0 0 0 0 0.75 0 0 0 0.7 0"/>
<feBlend mode="normal" in2="BackgroundImageFix" result="effect1_dropShadow_5_65370"/>
<feBlend mode="normal" in="SourceGraphic" in2="effect1_dropShadow_5_65370" result="shape"/>
</filter>
<filter id="filter2_d_5_65370" x="1072" y="409.842" width="364" height="184" filterUnits="userSpaceOnUse" color-interpolation-filters="sRGB">
<feFlood flood-opacity="0" result="BackgroundImageFix"/>
<feColorMatrix in="SourceAlpha" type="matrix" values="0 0 0 0 0 0 0 0 0 0 0 0 0 0 0 0 0 0 127 0" result="hardAlpha"/>
<feOffset dy="14"/>
<feGaussianBlur stdDeviation="20"/>
<feComposite in2="hardAlpha" operator="out"/>
<feColorMatrix type="matrix" values="0 0 0 0 0.0437383 0 0 0 0 0.109346 0 0 0 0 0.316262 0 0 0 0.2 0"/>
<feBlend mode="normal" in2="BackgroundImageFix" result="effect1_dropShadow_5_65370"/>
<feBlend mode="normal" in="SourceGraphic" in2="effect1_dropShadow_5_65370" result="shape"/>
</filter>
<clipPath id="clip0_5_65370">
<rect width="1920" height="1023" fill="white" transform="translate(0 0.841797)"/>
</clipPath>
<clipPath id="clip1_5_65370">
<rect width="2472" height="1636" fill="white" transform="translate(-124 -663.158)"/>
</clipPath>
<clipPath id="clip2_5_65370">
<rect width="2472" height="1636" fill="white" transform="translate(22.125 -329.98)"/>
</clipPath>
</defs>
</svg>
