<svg width="1920" height="1024" viewBox="0 0 1920 1024" fill="none" xmlns="http://www.w3.org/2000/svg">
<g clip-path="url(#clip0_5_65566)">
<rect width="1920" height="1023" transform="translate(0 0.841797)" fill="#F1F4FF"/>
<g clip-path="url(#clip1_5_65566)">
<g clip-path="url(#clip2_5_65566)">
<path d="M2049.52 214.812C2049.78 210.485 2049.08 206.154 2047.46 202.132C2040.95 189.21 2018.69 192.077 2011.9 179.276C2010.37 176.369 2009.88 172.977 2008.23 170.15C2003.94 162.68 1993.88 161.63 1985.44 159.974C1977 158.318 1967.06 152.625 1968.31 144.104C1969.44 136.432 1979.5 131.182 1977.93 123.591C1976.59 117.291 1968.23 115.191 1965.36 109.457C1960.88 100.533 1971.78 90.9627 1976.59 84.5825C1983.1 75.941 1988.47 66.9763 1985.88 55.6696C1984.83 52.7158 1984.29 49.6 1984.31 46.4628C1984.87 41.5766 1989.12 38.0231 1993.04 34.9945L1997.32 31.7236C1996.57 31.2883 1995.96 30.6607 1995.54 29.9065L2031.42 -16.2087C2034.6 -20.7819 2038.44 -24.8635 2042.81 -28.3231C2048.68 -31.7792 2054.8 -34.8023 2061.11 -37.3684C2067.13 -40.4778 2074.2 -45.4447 2075.09 -52.2691C2071.9 -59.7396 2061.35 -59.9415 2053.44 -58.084C2045.52 -56.2264 2036.06 -54.0458 2030.04 -59.4165C2028.51 -60.8298 2027.26 -62.7681 2025.24 -63.4546C2021.2 -64.7468 2018.04 -60.628 2015.58 -57.3571C2013.12 -54.0862 2008.02 -51.1384 2005.4 -54.2881C2003.78 -56.2264 2004.27 -59.578 2002.17 -60.9914C2000.07 -62.4047 1998.13 -60.9914 1995.7 -60.9914C1990.98 -60.6279 1987.3 -65.0295 1983.18 -67.2504C1979.06 -69.4714 1971.7 -68.26 1972.35 -63.5354L1964.71 -82.3934C1964.19 -83.7259 1963.42 -85.3008 1961.97 -85.5431C1961.42 -85.5678 1960.87 -85.4803 1960.36 -85.2859C1959.84 -85.0914 1959.37 -84.7942 1958.98 -84.4124C1952.88 -79.6474 1946.86 -70.8848 1939.75 -74.3575C1936.72 -75.8516 1934.29 -79.6071 1931.06 -78.7187C1928.64 -78.0322 1927.63 -75.044 1925.4 -73.8729C1920.72 -71.3693 1916.68 -78.1937 1911.91 -80.6166C1907.14 -83.0394 1901.65 -80.8589 1896.48 -79.7686C1881.77 -76.6996 1877.49 -95.1942 1875.51 -106.259C1874.98 -109.206 1874.34 -112.679 1871.47 -114.012C1869.92 -114.474 1868.26 -114.375 1866.78 -113.732C1865.31 -113.089 1864.1 -111.944 1863.39 -110.499C1862.06 -107.564 1860.9 -104.558 1859.91 -101.494C1851.83 -84.1298 1819.96 -88.8543 1804.85 -88.7736C1797.37 -88.7736 1789.86 -88.7736 1782.38 -88.7736C1784.37 -85.7305 1786.05 -82.4976 1787.39 -79.1225C1789.78 -72.0962 1786.1 -67.0082 1786.18 -60.5472C1786.18 -56.5091 1788.81 -54.5304 1789.86 -50.775C1791.47 -44.9601 1788.44 -39.7105 1788.93 -33.8553C1789.41 -28 1793.33 -22.064 1796.28 -16.6933C1803.84 -2.7973 1807.34 12.9453 1806.38 28.7355C1805.66 34.183 1805.49 39.6883 1805.86 45.1705C1806.97 50.634 1808.65 55.9665 1810.87 61.0807C1815.78 74.5159 1817.7 88.8635 1816.48 103.117C1815.84 110.265 1814.58 118.099 1818.46 124.116C1820.24 126.862 1822.95 128.961 1824.64 131.748C1826.61 135.703 1827.53 140.097 1827.31 144.508L1830.7 235.285C1830.7 238.798 1830.95 242.351 1830.99 245.945C1904.23 241.625 1977.52 236.9 2050.24 227.37C2049.88 223.211 2049.64 219.011 2049.52 214.812Z" fill="white" stroke="#436AE5" stroke-linecap="round" stroke-linejoin="round"/>
<path d="M1955.02 417.484C1970.26 414.592 1985.7 412.864 2001.2 412.316C2007.85 412.665 2014.53 412.218 2021.07 410.983C2027.3 409.206 2031.38 406.46 2038.41 407.874C2045.44 409.287 2050.28 414.819 2055.98 418.736C2060.02 399.515 2077.15 381.262 2069.23 363.495C2068.28 361.834 2067.58 360.036 2067.17 358.165C2066.08 349.846 2077.88 347.665 2085.76 344.758C2089.07 343.35 2092.06 341.281 2094.54 338.678C2097.02 336.075 2098.94 332.993 2100.19 329.621C2101.44 326.248 2101.99 322.656 2101.8 319.066C2101.61 315.475 2100.69 311.96 2099.09 308.738C2094.2 299.935 2084.26 294.362 2080.95 284.873C2080.06 282.369 2079.5 279.421 2077.19 278.169C2074.89 276.918 2072.22 277.887 2069.72 277.846C2061.92 277.846 2057.6 268.761 2055.86 261.209C2053.08 250.098 2051.21 238.782 2050.24 227.37C1977.52 236.9 1904.23 241.625 1830.99 245.945C1831.39 255.361 1830.52 264.787 1828.4 273.97C1827.3 277.409 1826.57 280.956 1826.22 284.55C1826.28 287.737 1826.77 290.901 1827.67 293.959C1829.84 304.924 1833.51 315.537 1838.58 325.496C1840.24 328.444 1842.18 331.23 1843.75 334.218C1846.7 340.772 1849.2 347.518 1851.23 354.409C1853.61 361.839 1855.95 369.269 1858.34 376.699C1860.43 382.791 1862.18 388.992 1863.59 395.275C1864.96 402.987 1864.6 410.943 1866.18 418.615C1866.45 419.988 1866.77 421.334 1867.15 422.653C1879.06 422.148 1890.93 420.799 1902.66 418.615C1920.35 415.384 1937.16 420.917 1955.02 417.484Z" fill="white" stroke="#436AE5" stroke-linecap="round" stroke-linejoin="round"/>
<path d="M2134.85 666.879C2134.49 668.296 2134.49 669.782 2134.85 671.199C2136.38 675.561 2142.73 674.551 2146.97 673.138C2151.91 671.525 2157.02 670.468 2162.2 669.988C2163.25 665.506 2164.26 661.023 2165.15 656.501C2165.86 650.185 2168.04 644.125 2171.53 638.814C2174.93 634.729 2179.6 631.888 2184.79 630.737C2184.14 621.611 2183.53 612.526 2182.89 603.399C2182.89 602.471 2182.89 601.542 2182.68 600.573C2176.1 597.625 2167.82 596.777 2162.73 591.527C2155.29 583.774 2158.44 570.772 2153.84 561.04C2146.2 544.887 2119.17 540.849 2118.77 523.122C2118.57 514.319 2125.4 504.062 2119.25 497.763C2114.08 492.392 2105.11 496.107 2098.77 500.105C2098.74 493.553 2097.32 487.083 2094.62 481.114C2091.92 475.144 2087.99 469.81 2083.1 465.458C2077.56 460.612 2070.98 457.099 2065.72 451.93C2061.79 447.954 2058.82 443.135 2057.02 437.838C2055.23 432.542 2054.67 426.907 2055.38 421.361C2055.38 420.473 2055.54 419.585 2055.86 418.696C2050.17 414.658 2045.08 409.166 2038.29 407.834C2031.5 406.501 2027.18 409.166 2020.96 410.943C2014.41 412.178 2007.74 412.625 2001.08 412.276C1985.58 412.824 1970.14 414.552 1954.9 417.445C1937.04 420.877 1920.24 415.345 1902.38 418.656C1890.65 420.84 1878.79 422.189 1866.87 422.694C1867.92 427.832 1870.55 432.516 1874.38 436.101C1876.49 437.836 1878.34 439.862 1879.88 442.117C1887.31 452.657 1904.93 456.978 1905.98 470.021C1906.46 475.957 1902.95 481.691 1903.47 487.627C1904.36 498.247 1915.19 500.751 1920.32 508.544C1927.79 519.811 1926.94 536.205 1926.54 548.925C1925.37 588.66 1931.15 628.032 1936.52 667.525C2003.55 655.976 2071.3 649.353 2139.01 642.811C2137.75 650.942 2136.36 658.964 2134.85 666.879Z" fill="white" stroke="#436AE5" stroke-linecap="round" stroke-linejoin="round"/>
<path d="M1949.81 837.085C1946.42 805.951 1946.42 773.04 1944.8 741.745C1943.02 706.452 1937.29 671.361 1932.68 636.27L1752.25 644.346C1713.26 646.123 1674.51 644.346 1635.53 644.992C1619.37 645.275 1599.81 649.03 1584.06 643.457V644.184C1570.08 644.386 1555.78 645.073 1541.8 644.184C1540.06 644.184 1538.97 657.268 1538.28 675.237C1584.7 678.743 1631.28 679.525 1677.79 677.579C1678.3 715.457 1678.8 753.348 1679.28 791.252C1679.28 792.625 1679.28 794.281 1680.74 794.846C1681.58 795.169 1682.52 795.169 1683.36 794.846C1694.23 792.302 1699.93 801.307 1708.94 801.953C1711.97 801.953 1713.46 799.53 1717.02 800.742C1721.42 802.115 1724.29 807.889 1727.32 811.039C1730.5 814.268 1734.47 816.619 1738.83 817.864C1743.19 819.11 1747.8 819.207 1752.21 818.146C1757.94 816.652 1763.96 813.22 1769.38 815.642C1773.94 817.661 1775.84 822.951 1778.63 827.07C1782.67 833.208 1785.5 831.553 1791.23 829.735C1793.42 829.049 1796 826.465 1798.59 827.07C1801.17 827.676 1802.43 832.118 1805.42 833.612C1808.4 835.106 1812 832.885 1815.23 831.795C1823.31 829.049 1832.24 833.652 1840.04 837.61C1847.84 841.567 1857.57 844.919 1864.85 840.073C1868.52 837.61 1871.15 833.208 1875.51 832.522C1877.61 832.158 1879.75 832.764 1881.77 832.239C1885.21 831.31 1887.15 827.555 1890.38 826.142C1896.08 823.598 1902.26 829.049 1908.48 828.847C1911.45 828.277 1914.46 827.912 1917.49 827.757C1922.46 828.362 1925.57 833.41 1929.61 836.398C1932.5 838.255 1935.79 839.386 1939.21 839.695C1942.63 840.005 1946.07 839.483 1949.24 838.175L1950.25 837.69L1949.81 837.085Z" fill="white" stroke="#436AE5" stroke-linecap="round" stroke-linejoin="round"/>
<path d="M1816.85 96.3741C1817.07 84.3412 1815.1 72.3686 1811.03 61.0407C1808.81 55.9265 1807.13 50.594 1806.02 45.1305C1805.65 39.6483 1805.83 34.1429 1806.54 28.6954C1807.51 12.9053 1804.01 -2.83732 1796.44 -16.7333C1793.49 -22.104 1789.62 -27.6362 1789.09 -33.8953C1788.57 -40.1544 1791.64 -45.0001 1790.02 -50.815C1788.97 -54.5704 1786.42 -56.3876 1786.34 -60.5872C1786.34 -67.2501 1789.94 -72.1362 1787.56 -79.1625C1786.21 -82.5654 1784.54 -85.8257 1782.55 -88.8944C1768.81 -88.8944 1755.03 -89.3386 1741.3 -89.2982L1584.78 -88.5713C1564.58 -88.5713 1544.62 -88.3694 1524.5 -88.5713C1521.81 -26.1421 1519.2 36.3005 1516.66 98.7566C1616.66 102.916 1716.89 102.068 1816.85 96.3741Z" fill="white" stroke="#436AE5" stroke-linecap="round" stroke-linejoin="round"/>
<path d="M1830.71 235.285L1827.31 144.508C1827.53 140.097 1826.61 135.704 1824.65 131.748C1822.95 128.962 1820.24 126.862 1818.47 124.116C1814.43 118.099 1815.84 110.265 1816.49 103.118C1816.69 100.856 1816.77 98.6354 1816.85 96.374C1716.9 102.068 1616.66 102.916 1516.67 98.7969C1514.19 157.646 1511.71 216.454 1509.23 275.222L1729.91 279.26C1734.62 279.095 1739.34 279.654 1743.89 280.916C1752.29 283.742 1759.16 291.294 1768.13 291.374C1771.95 291.04 1775.72 290.323 1779.4 289.234C1796.77 285.761 1813.01 296.987 1830.02 302.802C1829.25 299.895 1828.53 296.947 1827.8 294.04C1826.9 290.982 1826.41 287.818 1826.34 284.631C1826.69 281.037 1827.43 277.49 1828.53 274.051C1831.12 261.302 1831.86 248.244 1830.71 235.285Z" fill="white" stroke="#436AE5" stroke-linecap="round" stroke-linejoin="round"/>
<path d="M1880.15 442.279C1878.62 440.024 1876.77 437.998 1874.66 436.262C1869.73 432.224 1867.47 425.157 1866.18 418.737C1864.6 411.064 1864.96 403.109 1863.59 395.396C1862.18 389.114 1860.43 382.913 1858.34 376.821C1855.95 369.391 1853.61 361.961 1851.23 354.531C1849.19 347.64 1846.7 340.894 1843.75 334.34C1842.18 331.352 1840.24 328.566 1838.58 325.618C1834.71 318.435 1831.79 310.779 1829.89 302.843C1812.89 297.028 1796.64 285.802 1779.27 289.275C1775.6 290.364 1771.82 291.081 1768 291.415C1759.15 291.415 1752.28 283.783 1743.76 280.956C1739.21 279.694 1734.5 279.136 1729.78 279.301L1509.11 275.263C1507.41 316.209 1505.7 357.142 1503.98 398.062C1533.75 397.577 1562.84 399.313 1592.58 401.09C1592.25 420.554 1591.81 440.031 1591.24 459.522C1597.08 460.08 1602.95 460.255 1608.82 460.047L1765.74 457.22C1807.23 456.493 1848.6 453.182 1890.13 451.486C1886.32 448.994 1882.94 445.882 1880.15 442.279Z" fill="white" stroke="#436AE5" stroke-linecap="round" stroke-linejoin="round"/>
<path d="M1926.82 549.127C1927.22 536.245 1928.07 519.851 1920.6 508.746C1915.47 500.952 1904.64 498.449 1903.75 487.828C1903.22 481.892 1906.74 476.158 1906.25 470.222C1905.57 461.621 1897.69 456.816 1890.09 451.485C1848.56 453.303 1807.19 456.493 1765.7 457.219L1608.78 460.046C1602.91 460.255 1597.04 460.079 1591.2 459.521C1589.43 520.9 1586.56 582.239 1583.65 643.578C1599.4 648.989 1618.8 645.395 1635.12 645.113C1674.11 644.426 1712.85 646.243 1751.84 644.467L1932.27 636.39C1928.16 607.491 1926.34 578.313 1926.82 549.127Z" fill="white" stroke="#436AE5" stroke-linecap="round" stroke-linejoin="round"/>
<path d="M2003.04 1004.51C2004.82 994.823 1998.31 985.818 1992.66 977.782C1984.76 967.545 1979.13 955.75 1976.13 943.176C1974.76 933.899 1974.47 924.496 1975.24 915.151C1976.13 892.807 1976.01 870.476 1974.88 848.159C1974.98 846.398 1974.49 844.653 1973.51 843.192C1971.28 840.608 1967.16 841.738 1963.81 842.223C1961.17 842.586 1958.48 842.397 1955.91 841.667C1953.34 840.937 1950.96 839.683 1948.9 837.983C1948.54 837.983 1948.21 838.346 1947.85 838.468C1944.68 839.772 1941.25 840.292 1937.83 839.982C1934.42 839.673 1931.14 838.544 1928.26 836.691C1924.22 833.743 1921.23 828.615 1916.14 828.09C1913.06 828.251 1910.01 828.67 1907 829.341C1900.78 829.543 1894.6 824.052 1888.9 826.596C1885.67 828.049 1883.73 831.805 1880.3 832.693C1878.28 833.218 1876.26 832.693 1874.04 832.976C1869.67 833.662 1867.01 838.064 1863.33 840.527C1856.1 845.373 1846.32 842.021 1838.56 838.064C1830.81 834.106 1822.04 829.503 1813.76 832.289C1810.53 833.38 1807.01 835.56 1803.94 834.066C1800.87 832.572 1800.26 828.292 1797.11 827.565C1793.96 826.838 1791.94 829.503 1789.76 830.189C1784.02 832.047 1781.36 833.662 1777.15 827.524C1774.37 823.486 1772.47 818.156 1767.9 816.096C1762.49 813.674 1756.47 817.146 1750.73 818.6C1746.32 819.672 1741.7 819.581 1737.33 818.335C1732.96 817.089 1728.99 814.732 1725.8 811.493C1722.81 808.384 1719.95 802.569 1715.54 801.196C1711.83 800.025 1710.33 802.65 1707.46 802.407C1698.45 801.761 1692.76 792.797 1681.89 795.341C1681.04 795.633 1680.11 795.633 1679.26 795.341C1678.01 794.735 1677.81 793.079 1677.81 791.747C1677.32 753.842 1676.82 715.938 1676.31 678.033C1629.8 680 1583.22 679.218 1536.81 675.691C1535.31 713.084 1535.59 771.677 1535.55 777.775C1535.19 834.591 1536.2 890.842 1532.04 947.375C1523.36 948 1514.65 947.757 1506.02 946.648L1425.02 942.086L1384.61 939.824C1373.58 939.219 1362.88 936.634 1351.93 938.33C1353.3 944.024 1357.87 946.406 1361.02 950.727C1361.55 951.494 1361.99 952.383 1362.47 953.271C1363.75 953.403 1364.98 953.798 1366.09 954.431C1367.2 955.063 1368.17 955.92 1368.94 956.946C1372.33 960.984 1371.12 968.414 1377.3 970.312C1379.24 970.918 1381.34 970.554 1383.36 971.039C1390.11 972.654 1390.88 981.619 1392.74 988.282C1393.81 992.087 1395.67 995.627 1398.19 998.678C1400.71 1001.73 1403.83 1004.23 1407.36 1006.01C1414.31 1009.44 1423.52 1011.02 1426.15 1018.12C1426.7 1020.57 1427.09 1023.05 1427.32 1025.55C1429.1 1034.88 1438.91 1040.66 1442.07 1049.78C1444.13 1055.68 1442.99 1062.18 1443.4 1068.44C1444.21 1082.37 1454.19 1081.24 1461.62 1089.4C1466.47 1094.65 1464.04 1104.38 1469.7 1108.86C1472.24 1110.46 1475.14 1111.42 1478.14 1111.65C1490.46 1113.85 1501.85 1119.65 1510.87 1128.32C1513.09 1130.46 1515.68 1132.97 1518.71 1132.36C1521.74 1131.76 1523.72 1128.08 1525.74 1125.33C1527.76 1122.59 1532.65 1120.81 1534.14 1123.92C1540.85 1118.31 1536.6 1105.47 1543.55 1100.14C1547.59 1097.15 1553.29 1098.04 1557.41 1095.29C1560.32 1093.39 1561.9 1089.96 1564.85 1088.14C1568.32 1086.5 1572.25 1086.09 1576 1086.97L1593.49 1089.03C1599.03 1089.07 1604.38 1091.02 1608.64 1094.56C1612.07 1098.16 1612.68 1103.49 1615.27 1107.81C1620.4 1116.9 1631.83 1120.33 1638.74 1128C1647.3 1137.57 1647.67 1152.23 1655.18 1162.61C1658.74 1167.53 1663.63 1171.25 1667.3 1175.97C1675.06 1185.75 1677.73 1199.68 1687.99 1206.7C1692.03 1209.41 1696.92 1210.94 1700.11 1214.78C1705.36 1220.96 1703.38 1230.2 1704.15 1238.28C1704.87 1246.56 1708.68 1254.27 1714.82 1259.88C1717.97 1262.75 1722.01 1265.54 1722.49 1269.78C1722.46 1272.07 1722.23 1274.35 1721.8 1276.6C1721.4 1284.15 1728.47 1289.81 1735.14 1293.32C1748.07 1299.6 1761.61 1304.55 1775.54 1308.1L1809.27 1317.95C1816.59 1320.09 1828.42 1325.02 1830.85 1317.95C1831.03 1316.8 1830.82 1315.62 1830.25 1314.6C1829.69 1313.57 1828.81 1312.77 1827.74 1312.3C1825.57 1311.41 1823.48 1310.36 1821.47 1309.15C1817.43 1306 1819.05 1294.05 1817.43 1289.28C1814.07 1279.4 1810.74 1269.51 1807.46 1259.6C1806.78 1257.98 1806.53 1256.22 1806.73 1254.47C1807.46 1251.36 1810.77 1249.75 1812.79 1247.21C1813.46 1246.22 1813.92 1245.1 1814.14 1243.92C1814.37 1242.75 1814.34 1241.54 1814.08 1240.37C1813.81 1239.21 1813.31 1238.11 1812.6 1237.14C1811.89 1236.18 1810.99 1235.37 1809.96 1234.77C1806.97 1233.19 1802.2 1232.1 1802.89 1228.83C1803.25 1227.01 1805.27 1226.17 1806.93 1225.48C1810.93 1224.32 1814.42 1221.85 1816.83 1218.45C1817.39 1217.6 1817.77 1216.64 1817.95 1215.63C1818.13 1214.63 1818.11 1213.6 1817.89 1212.6C1817.66 1211.61 1817.25 1210.66 1816.66 1209.83C1816.06 1209 1815.31 1208.29 1814.44 1207.75C1813.38 1207.44 1812.37 1206.96 1811.46 1206.34C1808.83 1203.88 1813.03 1199.8 1816.67 1199.56C1820.3 1199.31 1824.95 1199.56 1826.44 1196.32C1826.78 1195.17 1826.81 1193.95 1826.54 1192.78C1826.27 1191.6 1825.71 1190.52 1824.91 1189.62C1823.26 1187.84 1822.13 1185.65 1821.64 1183.28C1821.43 1180.86 1823.94 1178.23 1826.08 1179.24C1828.22 1180.25 1827.98 1182.96 1829.72 1184.05C1831.45 1185.14 1833.76 1183.77 1835.66 1182.39L1844.75 1174.96C1845.93 1174.15 1846.85 1172.99 1847.37 1171.65C1848.02 1169.15 1845.88 1166.93 1844.79 1164.63C1843.7 1162.32 1845.03 1158.33 1847.41 1159.26C1848.5 1159.66 1848.99 1160.91 1849.72 1161.76C1852.95 1165.59 1859.05 1162.16 1862.64 1158.65C1863.65 1157.72 1864.7 1156.47 1864.26 1155.18C1863.82 1153.88 1863.05 1153.8 1862.4 1153.16C1859.9 1150.65 1861.8 1145.97 1865.03 1144.52C1868.62 1143.41 1872.45 1143.31 1876.1 1144.23C1883.76 1145.68 1891.64 1145.37 1899.17 1143.34C1902.91 1142.32 1906.42 1140.56 1909.48 1138.17C1912.53 1135.78 1915.09 1132.8 1916.98 1129.41C1919.53 1124.41 1920.3 1118.47 1923.77 1114.03C1926.15 1110.96 1929.75 1108.74 1931.45 1105.23C1933.95 1100.1 1931.65 1093.84 1933.06 1088.27C1935.04 1083 1938.65 1078.52 1943.37 1075.46C1943.86 1074.94 1944.54 1074.64 1945.26 1074.62C1946.88 1074.62 1947.12 1076.96 1946.6 1078.65C1946.07 1080.35 1945.26 1081.93 1946.27 1083.18C1947.28 1084.43 1950.92 1083.46 1952.42 1085.12C1954.52 1087.5 1950.84 1091.58 1953.47 1093.64C1956.09 1095.7 1961.1 1092.87 1963.36 1091.58C1974.06 1084.79 1985.47 1079.18 1997.38 1074.86C1997.75 1062.74 2000.21 1049.7 1997.99 1037.63C1996.69 1033.09 1996.07 1028.38 1996.17 1023.66C1996.61 1016.87 2001.79 1011.26 2003.04 1004.51Z" fill="white" stroke="#436AE5" stroke-miterlimit="10"/>
<path d="M1060.05 -82.6356C1061.46 -74.9334 1063.99 -67.4786 1067.56 -60.5068C1076.09 -41.6488 1084.98 -22.2659 1099.88 -8.01137C1102.03 -6.45372 1103.6 -4.22174 1104.33 -1.67154C1104.31 1.14043 1103.39 3.87245 1101.7 6.12201C1097.46 13.9662 1096.28 23.1012 1098.39 31.764C1099.35 34.257 1099.63 36.9613 1099.2 39.598C1098.33 41.596 1097.09 43.4165 1095.56 44.9686C1091.28 50.4201 1094.35 53.0449 1093.26 59.1424C1092.51 61.2921 1092.22 63.5765 1092.41 65.8457C1093.74 71.2164 1113.34 62.3729 1118.06 72.8316C1119.8 76.8697 1118.79 81.4328 1120.45 85.3901C1122.51 90.3166 1128.53 93.4664 1128.53 98.8371C1128.53 104.208 1123.4 108.205 1124.49 113.051C1125.5 117.089 1130.39 118.785 1133.46 121.693C1136.52 125.342 1138.46 129.803 1139.03 134.534C1139.61 139.275 1141.74 143.691 1145.09 147.092C1148.61 149.919 1153.58 147.092 1157.74 147.617C1160.32 147.981 1161.46 149.919 1164.28 150.081C1167.72 150.283 1170.83 147.739 1174.42 148.142C1181.17 148.869 1186.55 157.955 1192.73 155.29C1197.37 153.311 1197.62 146.487 1201.7 143.539C1208.16 138.935 1216.2 147.577 1221.09 151.05C1220.36 143.435 1220.36 135.768 1221.09 128.154C1221.22 127.001 1221.75 125.929 1222.58 125.125C1223.22 124.63 1223.97 124.288 1224.76 124.127C1225.55 123.966 1226.37 123.99 1227.15 124.196C1323.02 134.049 1418.93 143.943 1514.28 157.874C1517.76 75.7929 1521.2 -6.31535 1524.62 -88.4505C1501.11 -88.7332 1477.6 -89.46 1454.12 -91.156C1399.62 -95.1942 1345.69 -104.361 1291.87 -113.891C1218.5 -126.853 1145.25 -140.219 1072.69 -156.089C1069.38 -140.609 1066.08 -125.143 1062.8 -109.691C1060.37 -100.89 1059.44 -91.7443 1060.05 -82.6356Z" fill="white" stroke="#436AE5" stroke-linecap="round" stroke-linejoin="round"/>
<path d="M748.633 -72.7419C750.548 -72.0732 752.287 -70.9829 753.724 -69.5518C759.42 -64.6656 765.4 -59.295 767.137 -52.0264C768.309 -47.221 767.42 -42.1734 768.268 -37.2873C769.117 -32.4012 772.753 -27.3131 777.682 -27.6765C780.348 -27.6765 782.732 -29.6149 785.398 -29.6149C790.448 -29.6149 793.479 -23.7596 798.488 -22.5482C803.498 -21.3367 808.872 -25.5364 814.003 -24.4057C819.133 -23.275 822.931 -15.966 828.709 -15.8853C832.062 -15.8853 834.93 -18.2678 838.203 -18.9542C845.96 -20.5291 852.061 -12.4125 859.535 -9.94925C867.898 -7.24371 877.837 -11.726 885.432 -7.36485C889.109 -5.30542 891.896 -1.30771 896.098 -0.823135C899.543 -1.05267 902.901 -2.00186 905.956 -3.60942C912.03 -4.86478 918.34 -4.30298 924.096 -1.9942L960.134 8.58566C972.666 12.5906 985.483 15.6413 998.475 17.7118C1005.83 -43.9502 1019.48 -104.643 1033.83 -165.093C960.18 -181.789 887.564 -202.741 816.346 -227.846C810.488 -218.558 826.608 -207.655 823.456 -197.237C822.285 -193.441 818.73 -190.655 817.962 -186.738C816.386 -178.662 827.456 -172.039 825.638 -164.044C824.466 -158.915 818.649 -156.412 815.821 -151.929C811.78 -145.468 816.386 -138.361 813.922 -132.142C811.78 -126.651 804.145 -122.249 799.296 -119.059C797.878 -118.039 796.272 -117.312 794.569 -116.919C788.832 -116.03 784.59 -122.814 785.035 -128.589C785.024 -129.896 785.467 -131.166 786.287 -132.183C788.065 -134.162 791.176 -133.556 793.802 -133.637C799.094 -133.637 807.175 -138.482 806.205 -144.661C805.437 -149.426 797.882 -150.354 798.125 -155.483C798.125 -159.884 804.468 -160.975 807.013 -164.528C807.909 -166.076 808.29 -167.868 808.101 -169.646C807.913 -171.424 807.164 -173.096 805.963 -174.421C803.515 -177.015 800.539 -179.053 797.236 -180.398L748.35 -204.344C745.911 -205.824 743.123 -206.632 740.27 -206.686C732.19 -205.959 730.291 -194.572 730.816 -186.495L733.725 -141.753C733.721 -139.769 734.163 -137.81 735.018 -136.019C736.351 -133.637 739.058 -131.981 739.381 -129.275C739.583 -125.843 735.341 -123.784 734.291 -120.593C731.745 -113.809 742.856 -105.895 738.088 -100.403C736.432 -98.4646 733.402 -98.182 731.705 -96.3648C729.24 -93.5381 730.897 -89.0962 733.24 -86.1888C736.002 -83.6559 737.991 -80.3941 738.977 -76.78C738.743 -76.9044 738.5 -77.0123 738.25 -77.103C739.776 -75.3891 741.727 -74.1076 743.906 -73.388C745.32 -72.7419 747.017 -73.0245 748.633 -72.7419Z" fill="white" stroke="#436AE5" stroke-linecap="round" stroke-linejoin="round"/>
<path d="M974.76 143.095C976.124 137.587 975.758 131.792 973.71 126.499C972.66 124.359 971.084 122.461 970.034 120.321C965.993 111.679 971.932 101.745 978.558 94.9209C985.184 88.0965 993.264 81.3932 994.719 71.944C994.739 68.4459 995.173 64.9624 996.012 61.566C997.991 56.3972 1003.73 53.4898 1006.76 49.0075C1012.13 40.9313 1007.69 29.7861 1001.51 22.1945C1000.29 20.7004 998.961 19.2063 997.466 17.7122C984.796 15.6282 972.293 12.6322 960.054 8.74754L924.016 -1.83229C918.26 -4.14107 911.95 -4.70286 905.876 -3.44751C902.821 -1.83995 899.463 -0.89077 896.018 -0.661232C891.978 -1.14581 889.029 -5.14352 885.352 -7.20295C877.757 -11.5641 867.818 -7.20298 859.455 -9.78737C851.981 -12.2506 845.88 -20.3672 838.123 -18.7923C834.85 -18.1059 831.982 -15.6426 828.629 -15.7234C822.851 -15.7234 819.579 -23.0323 813.923 -24.2438C808.266 -25.4552 803.539 -21.1344 798.408 -22.3862C793.277 -23.6381 790.328 -29.4933 785.318 -29.4529C782.652 -29.4529 780.268 -27.6762 777.602 -27.5147C772.673 -27.1512 769.037 -32.2796 768.188 -37.1254C767.34 -41.9711 768.188 -47.0591 767.057 -51.8645C765.32 -59.1331 759.34 -64.5037 753.644 -69.3898C752.207 -70.821 750.468 -71.9112 748.553 -72.58C746.937 -73.0241 745.24 -72.8626 743.624 -73.2664C741.445 -73.986 739.494 -75.2675 737.968 -76.9815C735.667 -77.7446 733.185 -77.7652 730.872 -77.0405C728.559 -76.3159 726.533 -74.8825 725.08 -72.9434C722.125 -68.7551 720.163 -63.9495 719.343 -58.8908C709.844 -21.0599 695.519 15.3935 676.719 49.5728C669.811 62.1313 662.296 74.4072 656.519 87.5715C653.489 94.6785 655.266 99.0801 652.196 106.147C648.053 115.97 646.149 126.591 646.62 137.24C647.126 141.708 647.126 146.219 646.62 150.687C645.733 154.129 644.599 157.503 643.227 160.782C743.825 198.072 846.317 230.044 950.277 256.566C951.651 217.679 968.66 181.336 974.76 143.095Z" fill="white" stroke="#436AE5" stroke-linecap="round" stroke-linejoin="round"/>
<path d="M974.883 823.718C974.998 819.952 974.208 816.214 972.58 812.815C970.638 807.276 969.429 801.506 968.984 795.653C968.701 793.976 968.956 792.251 969.711 790.727C970.895 789.356 972.336 788.231 973.954 787.416C980.579 782.731 980.458 772.596 985.71 766.417C989.144 762.379 994.477 760.522 998.841 757.493C1003.2 754.465 1006.92 749.013 1004.86 744.127C1003.37 740.574 999.447 738.878 996.578 736.333C988.862 729.469 989.71 719.535 990.801 709.278C960.133 668.098 931.808 625.226 905.958 580.866C886.404 548.158 864.345 517.064 842.528 485.85C824.064 459.481 805.763 433.354 787.824 406.662C786.836 405.401 786.133 403.941 785.764 402.382C785.563 401.165 785.563 399.924 785.764 398.707C790.854 366.402 796.47 335.309 803.944 303.61C810.409 276.07 816.765 248.516 823.014 220.949C762.439 202.697 702.483 182.587 643.147 160.62C642.155 163.193 641.702 165.942 641.814 168.696C642.218 173.582 645.369 177.984 645.369 182.87C645.369 190.22 638.46 195.631 635.955 202.536C633.249 210.208 635.955 219.294 632.481 226.764C629.006 234.235 619.633 237.223 615.634 244.371C611.634 251.518 613.815 260.523 617.452 267.751C621.088 274.979 626.098 281.844 627.875 289.799C628.946 295.687 628.946 301.72 627.875 307.607C624.683 330.665 617.977 356.065 630.34 375.811C634.38 382.151 643.672 388.289 640.521 395.113C637.835 401.291 637.226 408.172 638.784 414.725C640.343 421.278 643.986 427.148 649.167 431.456C653.57 428.912 662.055 418.211 661.732 430.366L661.368 446.236C661.414 446.847 661.226 447.453 660.843 447.932C660.371 448.257 659.792 448.387 659.227 448.295C652.843 448.295 651.146 448.82 650.621 455.564C650.047 462.173 650.881 468.83 653.068 475.094C655.254 481.358 658.744 487.088 663.307 491.907C668.479 497.318 675.428 503.335 673.731 510.603C672.141 514.005 670.191 517.227 667.913 520.214C664.398 526.756 666.539 534.913 670.014 541.535C673.488 548.158 678.094 554.174 679.993 561.403C680.616 566.599 681.684 571.733 683.185 576.747C684.852 579.904 686.916 582.835 689.326 585.47C696.406 594.273 701.517 604.49 704.315 615.433C705.534 619.736 706.039 624.211 705.809 628.678C705.163 636.754 700.88 644.83 702.214 652.906C704.274 665.424 718.374 671.885 730.778 674.308C736.527 674.92 742.107 676.619 747.221 679.315C751.297 682.285 754.697 686.084 757.2 690.461C763.987 700.798 770.896 712.347 782.532 716.668C788.188 718.808 795.622 719.818 797.521 725.592C798.611 728.823 797.521 732.618 798.773 735.728C800.753 740.25 806.853 740.937 811.378 742.512C824.347 746.954 830.529 761.37 835.215 774.292C838.447 783.055 841.679 792.423 839.821 801.589C838.892 805.951 837.922 812.29 842.245 813.34L846.285 808.737C846.98 815.082 848.182 821.361 849.881 827.514C885.569 830.368 921.243 834.487 956.904 839.871C956.339 839.871 956.177 840.153 956.339 840.799C957.56 839.668 958.917 838.691 960.379 837.892C966.237 834.298 973.873 830.704 974.883 823.718Z" fill="white" stroke="#436AE5" stroke-linecap="round" stroke-linejoin="round"/>
<path d="M1219.39 186.666C1221.08 174.545 1221.38 162.27 1220.28 150.081C1215.35 146.285 1208.16 139.219 1202.1 143.459C1198.06 146.406 1197.78 153.231 1193.13 155.209C1186.87 157.875 1181.58 148.789 1174.83 148.062C1171.24 147.658 1168.12 150.202 1164.69 150C1161.86 150 1160.65 147.9 1158.15 147.537C1154.11 146.972 1149.02 149.839 1145.5 147.012C1142.15 143.61 1140.02 139.194 1139.44 134.454C1138.87 129.723 1136.93 125.261 1133.86 121.612C1130.79 118.705 1125.78 117.09 1124.9 112.971C1123.68 108.125 1128.94 103.764 1128.94 98.7567C1128.94 93.7494 1122.79 90.2363 1120.86 85.3098C1119.2 81.2716 1120.21 76.6278 1118.47 72.7512C1113.74 62.2925 1094.23 71.136 1092.82 65.7653C1092.62 63.4961 1092.91 61.2117 1093.67 59.062C1094.76 53.0452 1091.69 50.3397 1095.97 44.8883C1097.5 43.3362 1098.73 41.5156 1099.6 39.5176C1100.04 36.8809 1099.76 34.1767 1098.8 31.6837C1096.69 23.0209 1097.87 13.8858 1102.11 6.04163C1103.8 3.79207 1104.72 1.06007 1104.74 -1.75189C1104 -4.30209 1102.44 -6.53409 1100.29 -8.09174C1085.22 -22.2655 1076.33 -41.6484 1067.97 -60.5872C1064.4 -67.559 1061.87 -75.0137 1060.46 -82.716C1059.8 -91.8446 1060.69 -101.019 1063.08 -109.852C1066.39 -125.305 1069.69 -140.771 1072.98 -156.25C1060.05 -159.077 1047.14 -161.998 1034.23 -165.013C1019.89 -104.441 1006.24 -43.8694 998.883 17.7925H997.954C999.287 19.2866 1000.62 20.7807 1001.99 22.2748C1008.18 29.8665 1012.62 40.9309 1007.25 49.0879C1004.22 53.7317 998.479 56.4776 996.5 61.6464C995.661 65.0428 995.228 68.5263 995.207 72.0244C993.833 81.4736 985.753 88.1768 979.046 95.0012C972.34 101.826 966.482 111.759 970.522 120.401C971.572 122.541 973.148 124.439 974.198 126.579C976.246 131.872 976.613 137.667 975.249 143.176C969.269 180.448 953.028 215.862 951.008 253.537C955.02 255.008 959.14 256.169 963.33 257.01L1202.39 308.173V308.536C1206.43 292.384 1208.24 275.505 1210.75 258.787C1214.51 234.841 1216.85 210.774 1219.39 186.666Z" fill="white" stroke="#436AE5" stroke-linecap="round" stroke-linejoin="round"/>
<path d="M1227.02 124.035C1226.25 123.87 1225.45 123.882 1224.68 124.071C1223.91 124.26 1223.19 124.621 1222.58 125.126C1221.9 126.018 1221.55 127.114 1221.57 128.235C1220.84 135.85 1220.84 143.516 1221.57 151.131C1221.15 150.862 1220.74 150.565 1220.36 150.243C1221.45 162.432 1221.16 174.706 1219.47 186.828C1216.92 211.057 1214.38 235.003 1210.78 258.949C1208.28 275.666 1206.5 292.384 1202.42 308.698C1200.64 327.973 1198.85 347.262 1197.05 366.564C1292.07 381.862 1387.81 392.28 1483.9 397.779C1490.63 398.383 1497.41 398.194 1504.1 397.214C1507.44 317.42 1510.78 237.641 1514.12 157.875C1418.81 143.782 1322.9 133.888 1227.02 124.035Z" fill="white" stroke="#436AE5" stroke-linecap="round" stroke-linejoin="round"/>
<path d="M987.649 650.726C986.881 645.356 986.113 638.935 990.234 635.381C997.83 628.88 1009.47 640.914 1018.96 637.764C1025.71 635.583 1027.73 627.224 1028.7 620.238C1036.21 565.361 1040.25 509.756 1049.79 455.363L1066.75 358.448C1071.32 332.483 1076.65 307.406 1077.46 281.481L962.842 256.97C958.652 256.129 954.532 254.968 950.52 253.497C950.52 254.466 950.52 255.436 950.52 256.405C907.802 245.637 865.353 233.818 823.174 220.95C816.899 248.544 810.542 276.097 804.105 303.61C796.631 335.309 791.015 366.484 785.924 398.708C785.723 399.924 785.723 401.166 785.924 402.383C786.293 403.942 786.996 405.402 787.985 406.663C805.923 433.395 824.346 459.481 842.688 485.85C864.505 517.065 886.564 548.158 906.118 580.867C930.462 622.435 956.933 662.722 985.426 701.566C989.437 684.921 990.191 667.658 987.649 650.726Z" fill="#76B5FF" stroke="#436AE5" stroke-linecap="round" stroke-linejoin="round"/>
<path d="M1261.37 619.512C1250.59 735.54 1240.6 851.636 1231.39 967.799C1244.56 969.454 1257.73 971.029 1271.02 972.16C1274.06 972.21 1277.04 972.941 1279.75 974.3C1280.94 964.008 1281.35 953.642 1281 943.287L1356.96 952.333C1359.58 952.656 1361.69 952.656 1363.54 952.898C1363.11 952.02 1362.63 951.17 1362.09 950.354C1358.94 945.912 1354.37 943.691 1353 937.957C1363.95 936.302 1374.65 938.886 1385.72 939.492L1426.13 941.753L1507.13 946.276C1515.76 947.403 1524.47 947.647 1533.15 947.003C1537.19 890.469 1536.3 834.178 1536.7 777.402C1536.7 768.881 1536.18 657.995 1540.74 645.436C1532.99 643.272 1524.96 642.199 1516.91 642.246C1431.34 639.097 1346.21 630.778 1261.37 619.512Z" fill="white" stroke="#436AE5" stroke-linecap="round" stroke-linejoin="round"/>
<path d="M1504.1 398.021V397.052C1497.41 398.032 1490.63 398.222 1483.9 397.618C1417.51 393.822 1351.32 387.657 1285.33 379.123C1276.84 459.239 1268.76 539.369 1261.09 619.512C1345.93 630.778 1431.05 639.097 1516.54 642.206C1524.6 642.158 1532.62 643.232 1540.38 645.396C1540.66 644.669 1540.95 644.225 1541.23 644.225C1555.21 645.154 1569.51 644.467 1583.49 644.225C1587.53 563.18 1591.17 482.135 1592.42 401.01C1562.97 399.273 1533.88 397.537 1504.1 398.021Z" fill="white" stroke="#436AE5" stroke-linecap="round" stroke-linejoin="round"/>
<path d="M1033.26 583.572C1031.85 595.687 1030.35 608.043 1028.69 620.238C1027.72 627.224 1025.7 635.583 1018.96 637.764C1009.46 640.913 997.827 628.88 990.232 635.381C986.191 638.935 986.878 645.355 987.646 650.726C990.064 667.668 989.187 684.917 985.06 701.525C986.999 704.11 988.858 706.694 990.797 709.238C989.706 719.495 988.858 729.429 996.575 736.294C999.443 738.838 1003.36 740.332 1004.86 744.087C1006.96 748.973 1003.2 754.465 998.837 757.453C994.474 760.441 989.141 762.339 985.707 766.377C980.454 772.556 980.576 782.53 973.95 787.376C972.332 788.191 970.891 789.316 969.708 790.687C968.952 792.212 968.698 793.936 968.98 795.613C969.425 801.466 970.634 807.236 972.576 812.775C974.204 816.174 974.994 819.912 974.879 823.678C973.869 830.705 966.233 834.299 960.173 837.973C958.711 838.772 957.354 839.749 956.133 840.881C958.574 845.808 961.778 850.318 965.627 854.247C983.727 866.644 1003.32 877.304 1021.87 889.419C1053.3 909.892 1084.12 932.223 1116.53 951.161C1131.76 960.086 1149.13 958.188 1166.26 959.843C1188.04 961.984 1209.57 965.012 1231.19 967.92C1240.24 851.757 1250.23 735.661 1261.16 619.633C1185.09 609.416 1109.05 596.898 1033.26 583.572Z" fill="white" stroke="#436AE5" stroke-linecap="round" stroke-linejoin="round"/>
<path d="M1285.41 379.122C1255.78 375.326 1226.3 371.086 1196.97 366.402C1198.8 346.965 1200.61 327.556 1202.39 308.173L1077.46 281.44C1076.66 307.365 1071.32 332.442 1066.76 358.407L1049.79 455.321C1042.36 497.641 1038.28 540.687 1033.27 583.531C1109.06 596.857 1185.09 609.375 1261.37 619.471C1268.94 539.328 1276.95 459.211 1285.41 379.122Z" fill="white" stroke="#436AE5" stroke-linecap="round" stroke-linejoin="round"/>
</g>
<g filter="url(#filter0_d_5_65566)">
<ellipse cx="962.348" cy="597.602" rx="19.9266" ry="19.9242" fill="white"/>
<path d="M979.275 597.602C979.275 606.949 971.697 614.526 962.348 614.526C953 614.526 945.422 606.949 945.422 597.602C945.422 588.255 953 580.678 962.348 580.678C971.697 580.678 979.275 588.255 979.275 597.602Z" stroke="#FF7D01" stroke-width="6"/>
</g>
</g>
<g filter="url(#filter1_d_5_65566)">
<rect x="1057" y="565.842" width="284" height="104" rx="25" fill="white"/>
</g>
<path d="M1103.06 610.842H1098.3L1093.26 601.545L1092.62 599.758H1092.32L1092.76 601.545V610.842H1089.6V596.838H1094.36L1099.4 606.145L1100.04 607.922H1100.34L1099.9 606.145V596.838H1103.06V610.842ZM1117.04 605.842L1116.98 606.604H1108.68C1108.68 607.202 1108.92 607.717 1109.4 608.146C1109.86 608.583 1110.53 608.801 1111.4 608.801C1111.89 608.801 1112.34 608.716 1112.73 608.547C1113.1 608.378 1113.34 608.208 1113.46 608.039L1113.64 607.805H1116.8C1116.79 607.896 1116.76 608.01 1116.71 608.146C1116.66 608.309 1116.52 608.566 1116.28 608.918C1116.03 609.302 1115.74 609.634 1115.39 609.914C1115.01 610.207 1114.48 610.464 1113.8 610.686C1113.08 610.92 1112.28 611.037 1111.4 611.037C1109.69 611.037 1108.31 610.578 1107.25 609.66C1106.19 608.742 1105.66 607.469 1105.66 605.842C1105.66 604.214 1106.18 602.941 1107.24 602.023C1108.29 601.105 1109.67 600.646 1111.36 600.646C1113.04 600.646 1114.41 601.105 1115.46 602.023C1116.52 602.941 1117.04 604.214 1117.04 605.842ZM1113.3 603.498C1112.84 603.088 1112.19 602.883 1111.36 602.883C1110.53 602.883 1109.88 603.091 1109.43 603.508C1108.96 603.931 1108.72 604.377 1108.72 604.846H1113.98C1113.98 604.364 1113.75 603.915 1113.3 603.498ZM1126.19 600.842H1129.27L1125.61 610.842H1121.39L1117.73 600.842H1120.81L1123.43 608.4H1123.57L1126.19 600.842ZM1129.95 608.02C1129.95 606.991 1130.38 606.219 1131.22 605.705C1132.07 605.197 1133.14 604.943 1134.44 604.943C1135.11 604.943 1135.71 605.012 1136.24 605.148C1136.78 605.298 1137.15 605.435 1137.36 605.559L1137.68 605.783V604.318C1137.68 603.889 1137.51 603.527 1137.19 603.234C1136.86 602.948 1136.32 602.805 1135.56 602.805C1135.01 602.805 1134.52 602.906 1134.09 603.107C1133.64 603.316 1133.42 603.635 1133.42 604.064H1130.46C1130.47 602.925 1130.93 602.069 1131.85 601.496C1132.76 600.93 1134 600.646 1135.56 600.646C1137.14 600.646 1138.37 600.952 1139.24 601.564C1140.12 602.176 1140.56 603.094 1140.56 604.318V607.443C1140.56 607.847 1140.61 608.127 1140.71 608.283C1140.8 608.439 1140.97 608.518 1141.21 608.518L1141.63 608.439V610.842C1141.39 610.972 1140.97 611.037 1140.39 611.037C1139.64 611.037 1139.08 610.874 1138.69 610.549C1138.35 610.269 1138.13 610.012 1138.04 609.777L1137.98 609.641H1137.83C1137.83 609.667 1137.8 609.725 1137.74 609.816C1137.67 609.901 1137.54 610.018 1137.36 610.168C1137.17 610.318 1136.96 610.451 1136.7 610.568C1136.04 610.881 1135.17 611.037 1134.09 611.037C1132.91 611.037 1131.92 610.78 1131.13 610.266C1130.35 609.758 1129.95 609.009 1129.95 608.02ZM1135.28 608.859C1135.79 608.859 1136.25 608.794 1136.66 608.664C1137.05 608.54 1137.32 608.413 1137.47 608.283L1137.68 608.098V607.502C1137.63 607.45 1137.56 607.395 1137.47 607.336C1137.36 607.264 1137.1 607.176 1136.7 607.072C1136.27 606.962 1135.8 606.906 1135.28 606.906C1133.7 606.906 1132.91 607.232 1132.91 607.883C1132.91 608.534 1133.7 608.859 1135.28 608.859ZM1148.08 611.037C1146.71 611.037 1145.56 610.572 1144.63 609.641C1143.7 608.71 1143.23 607.443 1143.23 605.842C1143.23 604.24 1143.7 602.974 1144.63 602.043C1145.56 601.112 1146.71 600.646 1148.08 600.646C1148.82 600.646 1149.49 600.764 1150.09 600.998C1150.7 601.245 1151.11 601.486 1151.32 601.721L1151.64 602.062H1151.76V596.838H1154.64V610.842H1151.76V609.201H1151.62C1151.56 609.331 1151.4 609.543 1151.12 609.836C1150.93 610.044 1150.71 610.233 1150.45 610.402C1150.18 610.578 1149.83 610.728 1149.4 610.852C1148.97 610.975 1148.53 611.037 1148.08 611.037ZM1146.96 603.938C1146.45 604.439 1146.2 605.074 1146.2 605.842C1146.2 606.617 1146.45 607.248 1146.96 607.736C1147.45 608.231 1148.12 608.479 1148.98 608.479C1149.84 608.479 1150.51 608.231 1151.01 607.736C1151.51 607.248 1151.76 606.617 1151.76 605.842C1151.76 605.054 1151.51 604.416 1151 603.928C1150.48 603.446 1149.81 603.205 1148.98 603.205C1148.13 603.205 1147.46 603.449 1146.96 603.938ZM1157.04 608.02C1157.04 606.991 1157.47 606.219 1158.31 605.705C1159.16 605.197 1160.23 604.943 1161.53 604.943C1162.2 604.943 1162.8 605.012 1163.33 605.148C1163.87 605.298 1164.24 605.435 1164.45 605.559L1164.77 605.783V604.318C1164.77 603.889 1164.6 603.527 1164.28 603.234C1163.95 602.948 1163.41 602.805 1162.65 602.805C1162.1 602.805 1161.61 602.906 1161.18 603.107C1160.73 603.316 1160.51 603.635 1160.51 604.064H1157.55C1157.56 602.925 1158.02 602.069 1158.94 601.496C1159.85 600.93 1161.09 600.646 1162.65 600.646C1164.23 600.646 1165.46 600.952 1166.33 601.564C1167.21 602.176 1167.65 603.094 1167.65 604.318V607.443C1167.65 607.847 1167.7 608.127 1167.79 608.283C1167.89 608.439 1168.06 608.518 1168.3 608.518L1168.72 608.439V610.842C1168.48 610.972 1168.06 611.037 1167.48 611.037C1166.73 611.037 1166.17 610.874 1165.78 610.549C1165.44 610.269 1165.22 610.012 1165.13 609.777L1165.07 609.641H1164.92C1164.92 609.667 1164.89 609.725 1164.83 609.816C1164.76 609.901 1164.63 610.018 1164.45 610.168C1164.26 610.318 1164.04 610.451 1163.79 610.568C1163.13 610.881 1162.26 611.037 1161.18 611.037C1160 611.037 1159.01 610.78 1158.22 610.266C1157.44 609.758 1157.04 609.009 1157.04 608.02ZM1162.37 608.859C1162.88 608.859 1163.34 608.794 1163.75 608.664C1164.14 608.54 1164.41 608.413 1164.56 608.283L1164.77 608.098V607.502C1164.72 607.45 1164.65 607.395 1164.56 607.336C1164.45 607.264 1164.19 607.176 1163.79 607.072C1163.36 606.962 1162.89 606.906 1162.37 606.906C1160.79 606.906 1160 607.232 1160 607.883C1160 608.534 1160.79 608.859 1162.37 608.859Z" fill="#272727"/>
<path d="M1091.42 627.33L1088.72 629.457V627.55L1091.57 625.238H1093.12V637.842H1091.42V627.33ZM1110.77 637.842H1108.71L1106.44 630.679H1106.36L1104.09 637.842H1102.03L1099.42 629.018H1100.98L1103.06 636.146H1103.13L1105.39 629.018H1107.41L1109.67 636.146H1109.75L1111.82 629.018H1113.38L1110.77 637.842ZM1114.75 635.372C1114.75 634.47 1115.13 633.802 1115.9 633.368C1116.66 632.94 1117.64 632.727 1118.83 632.727C1119.44 632.727 1120 632.8 1120.52 632.946C1121.06 633.099 1121.44 633.242 1121.65 633.377L1122 633.597V632.208C1122 631.61 1121.78 631.142 1121.34 630.802C1120.9 630.456 1120.24 630.283 1119.35 630.283C1117.59 630.283 1116.71 630.764 1116.71 631.725H1115.16C1115.16 630.752 1115.56 630.028 1116.34 629.554C1117.12 629.079 1118.13 628.842 1119.35 628.842C1120.58 628.842 1121.59 629.129 1122.37 629.703C1123.14 630.283 1123.54 631.118 1123.54 632.208V635.416C1123.54 635.861 1123.6 636.172 1123.72 636.348C1123.84 636.518 1124.03 636.603 1124.3 636.603C1124.53 636.603 1124.69 636.57 1124.76 636.506L1124.8 636.488V637.877C1124.62 637.971 1124.35 638.018 1124.01 638.018C1123.42 638.018 1122.99 637.892 1122.71 637.64C1122.49 637.452 1122.32 637.256 1122.22 637.051L1122.17 636.945H1122.1C1121.96 637.092 1121.81 637.215 1121.65 637.314C1121.47 637.438 1121.27 637.546 1121.06 637.64C1120.48 637.892 1119.78 638.018 1118.96 638.018C1117.71 638.018 1116.69 637.804 1115.91 637.376C1115.13 636.954 1114.75 636.286 1114.75 635.372ZM1119.18 634.168C1117.28 634.168 1116.33 634.569 1116.33 635.372C1116.33 636.181 1117.28 636.585 1119.18 636.585C1119.75 636.585 1120.26 636.523 1120.72 636.4C1121.18 636.289 1121.49 636.184 1121.66 636.084C1121.82 636.002 1121.93 635.929 1122 635.864V634.854C1121.93 634.789 1121.82 634.716 1121.66 634.634C1121.46 634.54 1121.15 634.44 1120.73 634.335C1120.28 634.224 1119.76 634.168 1119.18 634.168ZM1131.39 628.842C1131.74 628.842 1132.05 628.877 1132.32 628.947L1132.45 628.965V630.661C1132.11 630.544 1131.67 630.482 1131.12 630.477C1130.17 630.477 1129.42 630.778 1128.88 631.382C1128.33 631.985 1128.06 632.741 1128.06 633.649V637.842H1126.51V629.018H1128.06V630.731H1128.15C1128.24 630.544 1128.38 630.324 1128.58 630.072C1128.76 629.85 1128.96 629.656 1129.19 629.492C1129.44 629.316 1129.76 629.164 1130.15 629.035C1130.55 628.906 1130.96 628.842 1131.39 628.842ZM1143.28 633.43L1143.23 634.168H1135.26C1135.26 634.672 1135.56 635.199 1136.16 635.75C1136.75 636.307 1137.54 636.585 1138.54 636.585C1139.27 636.585 1139.87 636.447 1140.34 636.172C1140.73 635.938 1141 635.727 1141.15 635.539L1141.22 635.416H1143.04C1143 635.504 1142.96 635.595 1142.92 635.688C1142.85 635.823 1142.7 636.031 1142.49 636.312C1142.26 636.611 1142 636.878 1141.69 637.112C1141.4 637.341 1140.97 637.549 1140.4 637.736C1139.86 637.924 1139.24 638.018 1138.54 638.018C1137.08 638.018 1135.89 637.602 1134.99 636.77C1134.07 635.938 1133.61 634.824 1133.61 633.43C1133.61 632.047 1134.06 630.937 1134.98 630.099C1135.89 629.261 1137.04 628.842 1138.45 628.842C1139.84 628.842 1141 629.261 1141.92 630.099C1142.83 630.937 1143.28 632.047 1143.28 633.43ZM1140.79 631.118C1140.2 630.562 1139.42 630.283 1138.45 630.283C1137.46 630.283 1136.69 630.562 1136.11 631.118C1135.53 631.675 1135.24 632.223 1135.24 632.762H1141.65C1141.65 632.223 1141.36 631.675 1140.79 631.118ZM1154.49 637.842H1152.94V633.289C1152.94 632.258 1152.68 631.499 1152.16 631.013C1151.64 630.526 1150.94 630.283 1150.06 630.283C1149.13 630.283 1148.42 630.559 1147.93 631.109C1147.43 631.66 1147.19 632.387 1147.19 633.289V637.842H1145.64V625.238H1147.19V630.371H1147.27C1147.4 630.172 1147.54 629.993 1147.7 629.835C1147.9 629.659 1148.1 629.504 1148.31 629.369C1148.55 629.223 1148.87 629.1 1149.27 629C1149.67 628.895 1150.08 628.842 1150.52 628.842C1151.65 628.842 1152.6 629.182 1153.36 629.861C1154.11 630.547 1154.49 631.569 1154.49 632.929V637.842ZM1158.11 636.761C1157.2 635.923 1156.74 634.812 1156.74 633.43C1156.74 632.053 1157.2 630.942 1158.11 630.099C1159.02 629.261 1160.18 628.842 1161.58 628.842C1162.98 628.842 1164.13 629.261 1165.05 630.099C1165.96 630.942 1166.42 632.053 1166.42 633.43C1166.42 634.812 1165.96 635.923 1165.05 636.761C1164.13 637.599 1162.98 638.018 1161.58 638.018C1160.18 638.018 1159.02 637.599 1158.11 636.761ZM1163.95 635.697C1164.54 635.105 1164.83 634.35 1164.83 633.43C1164.83 632.51 1164.54 631.754 1163.95 631.162C1163.35 630.576 1162.57 630.283 1161.58 630.283C1160.59 630.283 1159.8 630.576 1159.22 631.162C1158.62 631.748 1158.32 632.504 1158.32 633.43C1158.32 634.355 1158.62 635.111 1159.22 635.697C1159.81 636.289 1160.6 636.585 1161.58 636.585C1162.55 636.585 1163.34 636.289 1163.95 635.697ZM1168.77 629.018H1170.32V633.579C1170.32 634.61 1170.58 635.369 1171.1 635.855C1171.62 636.342 1172.32 636.585 1173.19 636.585C1174.11 636.585 1174.82 636.307 1175.33 635.75C1175.83 635.199 1176.08 634.476 1176.08 633.579V629.018H1177.62V637.842H1176.08V636.488H1175.99C1175.87 636.676 1175.73 636.854 1175.56 637.024C1175.36 637.206 1175.16 637.361 1174.95 637.49C1174.71 637.643 1174.39 637.769 1173.99 637.868C1173.59 637.968 1173.18 638.018 1172.74 638.018C1171.6 638.018 1170.65 637.675 1169.91 636.989C1169.15 636.315 1168.77 635.299 1168.77 633.939V629.018ZM1186.97 635.231C1186.97 634.886 1186.81 634.619 1186.47 634.432C1186.13 634.238 1185.71 634.13 1185.22 634.106C1184.71 634.077 1184.16 634.024 1183.57 633.948C1182.94 633.872 1182.39 633.781 1181.92 633.676C1181.42 633.57 1181 633.333 1180.66 632.964C1180.32 632.601 1180.15 632.114 1180.15 631.505C1180.15 630.62 1180.53 629.952 1181.29 629.501C1182.04 629.062 1183.02 628.842 1184.22 628.842C1185.44 628.842 1186.43 629.088 1187.18 629.58C1187.92 630.072 1188.29 630.846 1188.29 631.9H1186.71C1186.71 631.35 1186.51 630.942 1186.11 630.679C1185.72 630.415 1185.09 630.283 1184.22 630.283C1182.56 630.283 1181.74 630.69 1181.74 631.505C1181.74 631.839 1181.91 632.094 1182.25 632.27C1182.58 632.451 1183 632.554 1183.5 632.577C1183.96 632.601 1184.52 632.65 1185.15 632.727C1185.76 632.809 1186.31 632.905 1186.8 633.017C1187.3 633.14 1187.72 633.386 1188.06 633.755C1188.4 634.136 1188.56 634.628 1188.56 635.231C1188.56 635.888 1188.36 636.433 1187.94 636.866C1187.53 637.294 1187.01 637.593 1186.39 637.763C1185.79 637.933 1185.08 638.018 1184.26 638.018C1182.54 638.018 1181.32 637.596 1180.58 636.752C1180.17 636.271 1179.96 635.674 1179.96 634.959V634.678H1181.54V634.959C1181.54 636.037 1182.45 636.576 1184.26 636.576C1186.07 636.588 1186.97 636.14 1186.97 635.231ZM1200.22 633.43L1200.17 634.168H1192.19C1192.19 634.672 1192.49 635.199 1193.09 635.75C1193.68 636.307 1194.48 636.585 1195.47 636.585C1196.21 636.585 1196.81 636.447 1197.27 636.172C1197.66 635.938 1197.93 635.727 1198.08 635.539L1198.15 635.416H1199.97C1199.94 635.504 1199.9 635.595 1199.86 635.688C1199.78 635.823 1199.64 636.031 1199.43 636.312C1199.2 636.611 1198.93 636.878 1198.63 637.112C1198.33 637.341 1197.9 637.549 1197.34 637.736C1196.8 637.924 1196.18 638.018 1195.47 638.018C1194.01 638.018 1192.83 637.602 1191.92 636.77C1191 635.938 1190.54 634.824 1190.54 633.43C1190.54 632.047 1191 630.937 1191.91 630.099C1192.82 629.261 1193.98 628.842 1195.38 628.842C1196.78 628.842 1197.94 629.261 1198.86 630.099C1199.76 630.937 1200.22 632.047 1200.22 633.43ZM1197.72 631.118C1197.14 630.562 1196.36 630.283 1195.38 630.283C1194.4 630.283 1193.62 630.562 1193.05 631.118C1192.47 631.675 1192.18 632.223 1192.18 632.762H1198.58C1198.58 632.223 1198.3 631.675 1197.72 631.118ZM1209.11 628.666V629.018H1211.7V630.424H1209.11V637.842H1207.56V630.424H1206.08V629.562L1207.56 629.018V628.464C1207.56 627.333 1207.87 626.483 1208.51 625.915C1209.13 625.347 1209.98 625.062 1211.06 625.062C1211.37 625.062 1211.69 625.104 1212 625.186C1212.32 625.273 1212.56 625.353 1212.71 625.423L1212.93 625.546V626.935C1212.54 626.589 1212 626.416 1211.32 626.416C1210.59 626.416 1210.04 626.592 1209.67 626.943C1209.3 627.289 1209.11 627.863 1209.11 628.666ZM1214.55 636.761C1213.64 635.923 1213.18 634.812 1213.18 633.43C1213.18 632.053 1213.64 630.942 1214.55 630.099C1215.46 629.261 1216.62 628.842 1218.03 628.842C1219.42 628.842 1220.58 629.261 1221.5 630.099C1222.41 630.942 1222.86 632.053 1222.86 633.43C1222.86 634.812 1222.41 635.923 1221.5 636.761C1220.58 637.599 1219.42 638.018 1218.03 638.018C1216.62 638.018 1215.46 637.599 1214.55 636.761ZM1220.39 635.697C1220.98 635.105 1221.28 634.35 1221.28 633.43C1221.28 632.51 1220.98 631.754 1220.39 631.162C1219.8 630.576 1219.01 630.283 1218.03 630.283C1217.04 630.283 1216.25 630.576 1215.66 631.162C1215.06 631.748 1214.76 632.504 1214.76 633.43C1214.76 634.355 1215.06 635.111 1215.66 635.697C1216.25 636.289 1217.04 636.585 1218.03 636.585C1219 636.585 1219.79 636.289 1220.39 635.697ZM1225.21 629.018H1226.76V633.579C1226.76 634.61 1227.02 635.369 1227.54 635.855C1228.07 636.342 1228.76 636.585 1229.64 636.585C1230.56 636.585 1231.27 636.307 1231.77 635.75C1232.27 635.199 1232.52 634.476 1232.52 633.579V629.018H1234.07V637.842H1232.52V636.488H1232.43C1232.31 636.676 1232.17 636.854 1232 637.024C1231.81 637.206 1231.6 637.361 1231.39 637.49C1231.15 637.643 1230.83 637.769 1230.44 637.868C1230.04 637.968 1229.62 638.018 1229.19 638.018C1228.04 638.018 1227.09 637.675 1226.35 636.989C1225.59 636.315 1225.21 635.299 1225.21 633.939V629.018ZM1245.61 637.842H1244.07V633.289C1244.07 632.258 1243.81 631.499 1243.29 631.013C1242.76 630.526 1242.06 630.283 1241.18 630.283C1240.26 630.283 1239.55 630.559 1239.06 631.109C1238.56 631.66 1238.31 632.387 1238.31 633.289V637.842H1236.76V629.018H1238.31V630.371H1238.4C1238.52 630.172 1238.67 629.993 1238.83 629.835C1239.02 629.659 1239.22 629.504 1239.44 629.369C1239.68 629.223 1240 629.1 1240.39 629C1240.79 628.895 1241.21 628.842 1241.64 628.842C1242.78 628.842 1243.73 629.182 1244.49 629.861C1245.24 630.547 1245.61 631.569 1245.61 632.929V637.842ZM1255.99 625.238H1257.54V637.842H1255.99V636.523H1255.92C1255.83 636.676 1255.66 636.852 1255.42 637.051C1255.22 637.215 1255 637.364 1254.76 637.499C1254.51 637.64 1254.18 637.76 1253.77 637.859C1253.37 637.965 1252.96 638.018 1252.54 638.018C1251.21 638.018 1250.1 637.596 1249.21 636.752C1248.31 635.908 1247.86 634.801 1247.86 633.43C1247.86 632.07 1248.31 630.963 1249.21 630.107C1250.1 629.264 1251.21 628.842 1252.54 628.842C1253.25 628.842 1253.89 628.968 1254.45 629.22C1255 629.472 1255.39 629.718 1255.62 629.958L1255.92 630.336H1255.99V625.238ZM1250.34 631.171C1249.75 631.769 1249.45 632.521 1249.45 633.43C1249.45 634.344 1249.75 635.097 1250.34 635.688C1250.93 636.286 1251.73 636.585 1252.72 636.585C1253.72 636.585 1254.51 636.286 1255.11 635.688C1255.7 635.097 1255.99 634.344 1255.99 633.43C1255.99 632.492 1255.69 631.733 1255.09 631.153C1254.49 630.573 1253.7 630.283 1252.72 630.283C1251.73 630.283 1250.93 630.579 1250.34 631.171Z" fill="#436AE5"/>
</g>
<defs>
<filter id="filter0_d_5_65566" x="922.422" y="567.678" width="79.8516" height="79.8486" filterUnits="userSpaceOnUse" color-interpolation-filters="sRGB">
<feFlood flood-opacity="0" result="BackgroundImageFix"/>
<feColorMatrix in="SourceAlpha" type="matrix" values="0 0 0 0 0 0 0 0 0 0 0 0 0 0 0 0 0 0 127 0" result="hardAlpha"/>
<feOffset dy="10"/>
<feGaussianBlur stdDeviation="10"/>
<feComposite in2="hardAlpha" operator="out"/>
<feColorMatrix type="matrix" values="0 0 0 0 0.246875 0 0 0 0 0.367998 0 0 0 0 0.75 0 0 0 0.7 0"/>
<feBlend mode="normal" in2="BackgroundImageFix" result="effect1_dropShadow_5_65566"/>
<feBlend mode="normal" in="SourceGraphic" in2="effect1_dropShadow_5_65566" result="shape"/>
</filter>
<filter id="filter1_d_5_65566" x="1017" y="539.842" width="364" height="184" filterUnits="userSpaceOnUse" color-interpolation-filters="sRGB">
<feFlood flood-opacity="0" result="BackgroundImageFix"/>
<feColorMatrix in="SourceAlpha" type="matrix" values="0 0 0 0 0 0 0 0 0 0 0 0 0 0 0 0 0 0 127 0" result="hardAlpha"/>
<feOffset dy="14"/>
<feGaussianBlur stdDeviation="20"/>
<feComposite in2="hardAlpha" operator="out"/>
<feColorMatrix type="matrix" values="0 0 0 0 0.0437383 0 0 0 0 0.109346 0 0 0 0 0.316262 0 0 0 0.2 0"/>
<feBlend mode="normal" in2="BackgroundImageFix" result="effect1_dropShadow_5_65566"/>
<feBlend mode="normal" in="SourceGraphic" in2="effect1_dropShadow_5_65566" result="shape"/>
</filter>
<clipPath id="clip0_5_65566">
<rect width="1920" height="1023" fill="white" transform="translate(0 0.841797)"/>
</clipPath>
<clipPath id="clip1_5_65566">
<rect width="2472" height="1636" fill="white" transform="translate(-179 -663.158)"/>
</clipPath>
<clipPath id="clip2_5_65566">
<rect width="2472" height="1636" fill="white" transform="translate(-32.875 -329.98)"/>
</clipPath>
</defs>
</svg>
