<svg width="569" height="250" viewBox="0 0 569 250" fill="none" xmlns="http://www.w3.org/2000/svg">
<path d="M555.892 195.681C553.559 195.681 551.333 195.287 549.213 194.499C547.123 193.681 545.488 192.635 544.307 191.363L545.352 189.635C546.472 190.817 547.971 191.787 549.849 192.545C551.757 193.272 553.756 193.635 555.846 193.635C558.875 193.635 561.162 193.06 562.706 191.908C564.251 190.757 565.023 189.257 565.023 187.408C565.023 185.984 564.614 184.848 563.797 183.999C562.979 183.151 561.964 182.499 560.753 182.045C559.541 181.59 557.906 181.12 555.846 180.635C553.514 180.06 551.636 179.499 550.213 178.954C548.819 178.408 547.623 177.575 546.624 176.454C545.654 175.302 545.17 173.772 545.17 171.863C545.17 170.317 545.579 168.908 546.396 167.635C547.214 166.332 548.456 165.302 550.122 164.545C551.818 163.787 553.923 163.408 556.437 163.408C558.193 163.408 559.92 163.666 561.616 164.181C563.312 164.696 564.781 165.393 566.023 166.272L565.16 168.135C563.888 167.257 562.479 166.59 560.934 166.135C559.42 165.681 557.921 165.454 556.437 165.454C553.499 165.454 551.273 166.045 549.758 167.226C548.244 168.408 547.487 169.938 547.487 171.817C547.487 173.242 547.896 174.378 548.713 175.226C549.531 176.075 550.546 176.726 551.757 177.181C552.969 177.635 554.62 178.12 556.709 178.635C559.042 179.211 560.904 179.772 562.297 180.317C563.691 180.863 564.872 181.696 565.841 182.817C566.841 183.908 567.34 185.393 567.34 187.272C567.34 188.817 566.916 190.226 566.068 191.499C565.25 192.772 563.978 193.787 562.252 194.545C560.526 195.302 558.405 195.681 555.892 195.681Z" fill="#272727"/>
<path d="M537.721 193.367V195.458H515.777V163.64H537.039V165.731H518.094V178.276H535.04V180.321H518.094V193.367H537.721Z" fill="#272727"/>
<path d="M503.304 163.64V195.458H501.396L479.725 167.821V195.458H477.408V163.64H479.362L500.987 191.276V163.64H503.304Z" fill="#272727"/>
<path d="M462.639 163.64H464.956V195.458H462.639V163.64Z" fill="#272727"/>
<path d="M434.715 163.64H437.032V193.367H455.341V195.458H434.715V163.64Z" fill="#272727"/>
<path d="M409.216 163.64V195.458H407.308L385.637 167.821V195.458H383.32V163.64H385.274L406.899 191.276V163.64H409.216Z" fill="#272727"/>
<path d="M369.591 186.503H351.146L347.102 195.458H344.604L359.232 163.64H361.549L376.178 195.458H373.679L369.591 186.503ZM368.727 184.549L360.368 166.185L352.054 184.549H368.727Z" fill="#272727"/>
<path d="M344.41 163.64L330.236 195.458H327.919L313.744 163.64H316.288L329.145 192.458L342.002 163.64H344.41Z" fill="#272727"/>
<path d="M560.086 122.727L544.094 100.227C542.295 100.427 540.429 100.527 538.497 100.527H519.707V122.727H512.311V52.7266H538.497C547.426 52.7266 554.422 54.8599 559.486 59.1266C564.55 63.3932 567.082 69.2599 567.082 76.7266C567.082 82.1932 565.683 86.8266 562.885 90.6266C560.153 94.3599 556.221 97.0599 551.091 98.7266L568.182 122.727H560.086ZM538.297 94.2266C545.227 94.2266 550.524 92.6932 554.189 89.6266C557.854 86.5599 559.686 82.2599 559.686 76.7266C559.686 71.0599 557.854 66.7266 554.189 63.7266C550.524 60.6599 545.227 59.1266 538.297 59.1266H519.707V94.2266H538.297Z" fill="#272727"/>
<path d="M481.546 104.027H442.566L434.171 122.727H426.475L458.458 52.7266H465.754L497.738 122.727H489.942L481.546 104.027ZM478.848 98.0266L462.056 60.4266L445.265 98.0266H478.848Z" fill="#272727"/>
<path d="M394.39 59.1266H369.803V52.7266H426.374V59.1266H401.786V122.727H394.39V59.1266Z" fill="#272727"/>
<path d="M336.571 123.327C331.373 123.327 326.376 122.494 321.578 120.827C316.847 119.16 313.183 116.96 310.584 114.227L313.482 108.527C316.015 111.06 319.379 113.127 323.577 114.727C327.775 116.26 332.106 117.027 336.571 117.027C342.834 117.027 347.532 115.894 350.663 113.627C353.795 111.294 355.361 108.294 355.361 104.627C355.361 101.827 354.495 99.5936 352.762 97.927C351.096 96.2603 349.031 94.9936 346.565 94.127C344.1 93.1936 340.669 92.1936 336.271 91.127C331.007 89.7936 326.809 88.527 323.677 87.327C320.546 86.0603 317.847 84.1603 315.581 81.627C313.383 79.0936 312.283 75.6603 312.283 71.327C312.283 67.7936 313.216 64.5936 315.082 61.727C316.947 58.7936 319.813 56.4603 323.677 54.727C327.542 52.9936 332.339 52.127 338.07 52.127C342.068 52.127 345.966 52.6936 349.764 53.827C353.629 54.8936 356.96 56.3936 359.759 58.3269L357.26 64.227C354.328 62.2936 351.196 60.8603 347.865 59.927C344.533 58.927 341.268 58.427 338.07 58.427C331.94 58.427 327.309 59.627 324.177 62.0269C321.112 64.3603 319.579 67.3936 319.579 71.1269C319.579 73.9269 320.412 76.1936 322.078 77.927C323.811 79.5936 325.943 80.8936 328.475 81.8269C331.073 82.6936 334.538 83.6603 338.869 84.7269C344 85.9936 348.131 87.2603 351.263 88.527C354.461 89.727 357.16 91.5936 359.359 94.127C361.558 96.5936 362.657 99.9603 362.657 104.227C362.657 107.76 361.691 110.994 359.759 113.927C357.893 116.794 354.994 119.094 351.063 120.827C347.132 122.494 342.301 123.327 336.571 123.327Z" fill="#272727"/>
<ellipse cx="124.212" cy="125" rx="124.212" ry="125" fill="#F58D1D"/>
<path d="M75.4879 206.678L91.3521 141.489L126.938 128.782L129.056 166.699L75.4879 206.678Z" fill="#FFF8F1"/>
<path d="M40.9121 98.363L104.307 98.363L126.922 128.808L91.3472 141.508L40.9121 98.363Z" fill="#FFE8CF"/>
<path d="M126.915 35.2627L149.548 98.3942L126.913 128.84L104.281 98.3942L126.915 35.2627Z" fill="#FFD2A3"/>
</svg>
