<svg width="26" height="25" viewBox="0 0 26 25" fill="none" xmlns="http://www.w3.org/2000/svg">
<circle cx="13" cy="12.5" r="12.5" fill="#F58D1D"/>
<path fill-rule="evenodd" clip-rule="evenodd" d="M11.038 11.1878L10.0221 12.5896C9.51268 13.2905 9.67015 14.5348 10.3649 15.035L12.2484 16.3936C12.5726 16.6283 12.5973 16.8599 12.4429 17.1038L12.7177 17.3076L13.6718 15.986C14.2616 15.1678 14.2091 14.0593 13.3352 13.4202L11.4332 12.0338C11.2078 11.8671 11.1831 11.6355 11.3066 11.3792L11.038 11.1878ZM12.6683 5L11.0874 7.18918C10.3464 8.2143 10.615 9.96503 11.6277 10.7122L14.2276 12.6205C14.7556 13.0064 14.8235 13.9945 14.4406 14.4978L14.6599 14.6645L16.4538 12.1419C17.2597 11.0087 17.2134 9.33205 15.9474 8.415L13.1654 6.39255C12.7764 6.11157 12.5818 5.62989 12.9061 5.16982L12.6683 5Z" fill="white"/>
<path d="M10.5965 18.7279H8.5L8.77481 17.7923H12.6838H16.5928L16.8677 18.7279H14.7711L14.3975 20H10.9702L10.5965 18.7279Z" fill="white"/>
</svg>
