<svg width="19" height="18" viewBox="0 0 19 18" fill="none" xmlns="http://www.w3.org/2000/svg">
<circle cx="9.64844" cy="9.14844" r="8.75" fill="#436AE5"/>
<path fill-rule="evenodd" clip-rule="evenodd" d="M8.27465 8.22987L7.56355 9.21114C7.20692 9.70177 7.31715 10.5728 7.80346 10.923L9.12191 11.874C9.34886 12.0382 9.36615 12.2003 9.25808 12.3711L9.45044 12.5137L10.1183 11.5887C10.5311 11.0159 10.4944 10.24 9.88272 9.79255L8.5513 8.82209C8.39352 8.70537 8.37623 8.54327 8.46269 8.36387L8.27465 8.22987ZM9.41586 3.89844L8.30923 5.43086C7.7905 6.14845 7.97854 7.37396 8.68747 7.89701L10.5074 9.23275C10.877 9.50293 10.9245 10.1946 10.6565 10.5469L10.81 10.6636L12.0657 8.89774C12.6298 8.10451 12.5974 6.93087 11.7112 6.28894L9.76384 4.87323C9.49151 4.67654 9.35534 4.33936 9.58229 4.01731L9.41586 3.89844Z" fill="white"/>
<path d="M7.96563 13.5079H6.49805L6.69041 12.853H9.42673H12.163L12.3554 13.5079H10.8878L10.6263 14.3984H8.22716L7.96563 13.5079Z" fill="white"/>
</svg>
