<svg width="25" height="25" viewBox="0 0 25 25" fill="none" xmlns="http://www.w3.org/2000/svg">
<circle cx="12.5" cy="12.5" r="12.5" fill="#F58D1D"/>
<path d="M6 6H9.76212C11.0573 6 13.1747 6.19337 14.326 8.37845L20 19.4779C19.4449 20 18.4993 20 17.9442 19.4779C17.8825 19.4199 17.8003 19.3425 17.8003 19.2845L12.9486 12.8066C12.2702 11.9171 10.8928 11.6464 9.94714 12.2845L9.74156 12.4779L8.38473 13.6961C7.76799 14.2182 6.88399 14.2182 6.26725 13.6381L6.12335 13.5028L7.4185 11.8978C8.3025 10.7376 8.36417 9.20995 7.56241 8.04973L6 6ZM8.17915 17.6215C7.97357 17.9503 7.91189 18.337 7.97357 18.6464C8.03524 19.3619 9.00147 20 9.00147 20L12.558 14.3536C12.7019 14.1022 12.7019 13.7155 12.558 13.4641C11.7974 12.3039 10.7078 12.6906 10.7078 12.6906L8.17915 17.6215Z" fill="white"/>
</svg>
