<svg width="300" height="75" viewBox="0 0 300 75" fill="none" xmlns="http://www.w3.org/2000/svg">
<path d="M190.346 10.1489C224.423 12.8257 261.97 20.0508 283.7 31.1534C304.393 41.6964 303.812 55.6384 276.517 64.5783C250.092 73.217 210.565 74.1499 178.61 74.0875C144.994 74.0118 110.82 72.3167 79.1087 68.0221C51.4987 64.2902 19.8015 58.3536 6.23379 47.2356C-3.11557 39.5319 1.6558 30.8896 13.6055 23.9446C44.5316 5.9847 108.645 -1.32395 159.121 1.61642C193.614 3.61811 223.538 11.2366 244.307 22.3174C246.276 23.3691 241.932 24.4752 240.079 23.4387C199.446 1.78686 127.548 -1.82293 67.3897 9.29373C44.3636 13.5565 21.514 20.4777 10.7844 30.0491C-0.0807896 39.7448 10.6396 49.0281 29.1548 55.328C56.2399 64.5392 93.8921 68.5553 128.512 70.5253C164.642 72.5988 203.375 73.207 239.276 69.4158C255.427 67.7127 271.284 64.7275 282.452 59.5089C295.845 53.2199 296.669 44.6668 288.03 37.5697C271.259 23.7192 226.522 15.313 190.792 12.2859L189.122 12.1505C185.928 11.9059 187.152 9.8984 190.346 10.1489Z" fill="#F58D1D" stroke="#F58D1D" stroke-width="1.69547"/>
</svg>
