<svg width="126" height="55" viewBox="0 0 126 55" fill="none" xmlns="http://www.w3.org/2000/svg">
<path d="M75.2068 27.126C74.1148 27.126 73.0648 26.951 72.0568 26.601C71.0628 26.237 70.2928 25.775 69.7468 25.215L70.3558 24.018C70.8738 24.522 71.5668 24.949 72.4348 25.299C73.3168 25.635 74.2408 25.803 75.2068 25.803C76.1308 25.803 76.8798 25.691 77.4538 25.467C78.0418 25.229 78.4688 24.914 78.7348 24.522C79.0148 24.13 79.1548 23.696 79.1548 23.22C79.1548 22.646 78.9868 22.184 78.6508 21.834C78.3288 21.484 77.9018 21.211 77.3698 21.015C76.8378 20.805 76.2498 20.623 75.6058 20.469C74.9618 20.315 74.3178 20.154 73.6738 19.986C73.0298 19.804 72.4348 19.566 71.8888 19.272C71.3568 18.978 70.9228 18.593 70.5868 18.117C70.2648 17.627 70.1038 16.99 70.1038 16.206C70.1038 15.478 70.2928 14.813 70.6708 14.211C71.0628 13.595 71.6578 13.105 72.4558 12.741C73.2538 12.363 74.2758 12.174 75.5218 12.174C76.3478 12.174 77.1668 12.293 77.9788 12.531C78.7908 12.755 79.4908 13.07 80.0788 13.476L79.5538 14.715C78.9238 14.295 78.2518 13.987 77.5378 13.791C76.8378 13.595 76.1588 13.497 75.5008 13.497C74.6188 13.497 73.8908 13.616 73.3168 13.854C72.7428 14.092 72.3158 14.414 72.0358 14.82C71.7698 15.212 71.6368 15.66 71.6368 16.164C71.6368 16.738 71.7978 17.2 72.1198 17.55C72.4558 17.9 72.8898 18.173 73.4218 18.369C73.9678 18.565 74.5628 18.74 75.2068 18.894C75.8508 19.048 76.4878 19.216 77.1178 19.398C77.7618 19.58 78.3498 19.818 78.8818 20.112C79.4278 20.392 79.8618 20.77 80.1838 21.246C80.5198 21.722 80.6878 22.345 80.6878 23.115C80.6878 23.829 80.4918 24.494 80.0998 25.11C79.7078 25.712 79.1058 26.202 78.2938 26.58C77.4958 26.944 76.4668 27.126 75.2068 27.126ZM87.3546 27V13.644H82.1886V12.3H94.0746V13.644H88.9086V27H87.3546ZM94.0969 27L100.817 12.3H102.35L109.07 27H107.432L101.258 13.203H101.888L95.7139 27H94.0969ZM96.7429 23.073L97.2049 21.813H105.752L106.214 23.073H96.7429ZM112.132 27V12.3H117.634C118.88 12.3 119.951 12.503 120.847 12.909C121.743 13.301 122.429 13.875 122.905 14.631C123.395 15.373 123.64 16.276 123.64 17.34C123.64 18.376 123.395 19.272 122.905 20.028C122.429 20.77 121.743 21.344 120.847 21.75C119.951 22.142 118.88 22.338 117.634 22.338H112.993L113.686 21.624V27H112.132ZM122.17 27L118.39 21.666H120.07L123.871 27H122.17ZM113.686 21.75L112.993 21.015H117.592C119.062 21.015 120.175 20.693 120.931 20.049C121.701 19.405 122.086 18.502 122.086 17.34C122.086 16.164 121.701 15.254 120.931 14.61C120.175 13.966 119.062 13.644 117.592 13.644H112.993L113.686 12.909V21.75ZM73.6081 43L70.4881 36H71.0481L74.0281 42.69H73.7181L76.7081 36H77.2381L74.1181 43H73.6081ZM77.282 43L80.502 36H81.012L84.232 43H83.682L80.642 36.32H80.862L77.832 43H77.282ZM78.462 41.03L78.632 40.6H82.822L82.992 41.03H78.462ZM85.8028 43V36H86.2328L91.2228 42.37H90.9928V36H91.5028V43H91.0828L86.0828 36.63H86.3128V43H85.8028ZM94.2473 43V36H94.7573V42.54H98.7873V43H94.2473ZM100.397 43V36H100.907V43H100.397ZM103.646 43V36H104.076L109.066 42.37H108.836V36H109.346V43H108.926L103.926 36.63H104.156V43H103.646ZM112.541 39.22H116.331V39.67H112.541V39.22ZM112.601 42.54H116.921V43H112.091V36H116.771V36.46H112.601V42.54ZM120.92 43.05C120.4 43.05 119.907 42.9633 119.44 42.79C118.98 42.61 118.623 42.38 118.37 42.1L118.6 41.72C118.84 41.9667 119.167 42.1767 119.58 42.35C120 42.5167 120.443 42.6 120.91 42.6C121.377 42.6 121.757 42.54 122.05 42.42C122.35 42.2933 122.57 42.1267 122.71 41.92C122.857 41.7133 122.93 41.4833 122.93 41.23C122.93 40.93 122.85 40.69 122.69 40.51C122.53 40.33 122.32 40.1867 122.06 40.08C121.8 39.9733 121.517 39.8833 121.21 39.81C120.903 39.7367 120.593 39.66 120.28 39.58C119.967 39.4933 119.68 39.3833 119.42 39.25C119.16 39.1167 118.95 38.9367 118.79 38.71C118.637 38.4767 118.56 38.1767 118.56 37.81C118.56 37.4767 118.647 37.17 118.82 36.89C118.993 36.61 119.263 36.3833 119.63 36.21C119.997 36.0367 120.467 35.95 121.04 35.95C121.427 35.95 121.807 36.0067 122.18 36.12C122.56 36.2333 122.883 36.3867 123.15 36.58L122.96 36.99C122.667 36.79 122.35 36.6433 122.01 36.55C121.677 36.45 121.353 36.4 121.04 36.4C120.593 36.4 120.223 36.4633 119.93 36.59C119.637 36.7167 119.42 36.8867 119.28 37.1C119.14 37.3067 119.07 37.54 119.07 37.8C119.07 38.1 119.147 38.34 119.3 38.52C119.46 38.7 119.67 38.8433 119.93 38.95C120.19 39.0567 120.477 39.1467 120.79 39.22C121.103 39.2933 121.413 39.3733 121.72 39.46C122.027 39.54 122.31 39.6467 122.57 39.78C122.83 39.9133 123.04 40.0933 123.2 40.32C123.36 40.5467 123.44 40.84 123.44 41.2C123.44 41.5267 123.35 41.8333 123.17 42.12C122.99 42.4 122.713 42.6267 122.34 42.8C121.973 42.9667 121.5 43.05 120.92 43.05Z" fill="#272727"/>
<circle cx="27.5195" cy="27.5" r="27.5" fill="#F58D1D"/>
<path d="M16.7325 45.4692L20.2448 31.1277L28.1234 28.3321L28.5923 36.6738L16.7325 45.4692Z" fill="#FFF8F1"/>
<path d="M9.07812 21.64L23.1135 21.64L28.1205 28.338L20.2442 31.1318L9.07812 21.64Z" fill="#FFE8CF"/>
<path d="M28.1203 7.75781L33.1313 21.6467L28.12 28.3449L23.1094 21.6467L28.1203 7.75781Z" fill="#FFD2A3"/>
</svg>
