<svg width="70" height="70" viewBox="0 0 70 70" fill="none" xmlns="http://www.w3.org/2000/svg">
<circle cx="35" cy="35" r="35" fill="#436AE5"/>
<path d="M20.1423 32.6297C20.1244 32.4226 20.1496 32.2141 20.2165 32.0172C20.2834 31.8204 20.3905 31.6396 20.531 31.4864C20.6715 31.3331 20.8423 31.2108 21.0326 31.127C21.2228 31.0433 21.4285 31 21.6363 31H24.5006C24.8984 31 25.2799 31.158 25.5613 31.4393C25.8426 31.7206 26.0006 32.1022 26.0006 32.5V46.75C26.0006 47.1478 25.8426 47.5294 25.5613 47.8107C25.2799 48.092 24.8984 48.25 24.5006 48.25H22.8761C22.5007 48.2501 22.1388 48.1094 21.8621 47.8557C21.5854 47.602 21.4138 47.2538 21.3813 46.8797L20.1423 32.6297ZM30.5006 32.0312C30.5006 31.4042 30.8906 30.8432 31.4568 30.5762C32.6936 29.9927 34.8003 28.8205 35.7506 27.2357C36.9753 25.1927 37.2063 21.502 37.2438 20.6567C37.2491 20.5382 37.2461 20.4197 37.2618 20.3027C37.4651 18.838 40.2918 20.5487 41.3756 22.3577C41.9643 23.3387 42.0393 24.628 41.9778 25.6352C41.9111 26.7122 41.5953 27.7525 41.2856 28.786L40.6256 30.9887H48.7683C49.0001 30.9887 49.2287 31.0424 49.4362 31.1456C49.6437 31.2488 49.8245 31.3986 49.9644 31.5834C50.1043 31.7682 50.1994 31.9829 50.2424 32.2106C50.2854 32.4383 50.275 32.6729 50.2121 32.896L46.1846 47.158C46.0957 47.4725 45.9065 47.7494 45.6457 47.9466C45.385 48.1437 45.067 48.2502 44.7401 48.25H32.0006C31.6028 48.25 31.2212 48.092 30.9399 47.8107C30.6586 47.5294 30.5006 47.1478 30.5006 46.75V32.0312Z" fill="white" stroke="white" stroke-width="2" stroke-linecap="round" stroke-linejoin="round"/>
</svg>
