<svg width="70" height="70" viewBox="0 0 70 70" fill="none" xmlns="http://www.w3.org/2000/svg">
<circle cx="35" cy="35" r="35" fill="#436AE5"/>
<path d="M31.8104 19.125C31.8104 18.8432 31.9224 18.573 32.1216 18.3737C32.3209 18.1744 32.5911 18.0625 32.8729 18.0625H37.1229C37.4047 18.0625 37.675 18.1744 37.8742 18.3737C38.0735 18.573 38.1854 18.8432 38.1854 19.125C38.1854 19.4068 38.0735 19.677 37.8742 19.8763C37.675 20.0756 37.4047 20.1875 37.1229 20.1875V21.3987C40.0129 21.8152 42.6352 23.0563 44.7389 24.8837C44.7473 24.8744 44.7558 24.8652 44.7644 24.8561L45.5167 24.1039L44.7644 23.3538C44.5649 23.1545 44.4527 22.8842 44.4525 22.6023C44.4523 22.3203 44.5641 22.0498 44.7634 21.8503C44.9626 21.6508 45.2329 21.5386 45.5149 21.5384C45.7968 21.5382 46.0673 21.65 46.2668 21.8493L49.2716 24.8561C49.373 24.9541 49.454 25.0714 49.5097 25.201C49.5653 25.3306 49.5947 25.4701 49.5959 25.6111C49.5971 25.7522 49.5702 25.8921 49.5168 26.0227C49.4634 26.1533 49.3845 26.2719 49.2847 26.3717C49.185 26.4714 49.0663 26.5503 48.9358 26.6037C48.8052 26.6572 48.6653 26.6841 48.5242 26.6828C48.3831 26.6816 48.2437 26.6523 48.1141 26.5966C47.9844 26.5409 47.8672 26.46 47.7692 26.3585L47.0191 25.6063L46.2668 26.3585C46.2577 26.3672 46.2485 26.3757 46.2392 26.384C48.4028 28.8816 49.6732 32.0286 49.8498 35.3283C50.0265 38.6281 49.0994 41.8927 47.2148 44.607C45.3302 47.3214 42.5955 49.331 39.4421 50.3186C36.2887 51.3063 32.8962 51.2158 29.7999 50.0615C26.7036 48.9071 24.0798 46.7547 22.3426 43.9437C20.6054 41.1327 19.8536 37.8233 20.2059 34.5377C20.5582 31.2521 21.9945 28.1773 24.2882 25.7986C26.5818 23.4198 29.6023 21.8725 32.8729 21.4009V20.1875C32.5911 20.1875 32.3209 20.0756 32.1216 19.8763C31.9224 19.677 31.8104 19.4068 31.8104 19.125Z" fill="white"/>
<path d="M36.0605 28.9004C36.0605 28.6186 35.9486 28.3483 35.7493 28.1491C35.5501 27.9498 35.2798 27.8379 34.998 27.8379C34.7163 27.8379 34.446 27.9498 34.2467 28.1491C34.0475 28.3483 33.9355 28.6186 33.9355 28.9004V35.0629H27.5605C27.2788 35.0629 27.0085 35.1748 26.8092 35.3741C26.61 35.5733 26.498 35.8436 26.498 36.1254C26.498 36.4072 26.61 36.6774 26.8092 36.8767C27.0085 37.0759 27.2788 37.1879 27.5605 37.1879H34.998C35.2798 37.1879 35.5501 37.0759 35.7493 36.8767C35.9486 36.6774 36.0605 36.4072 36.0605 36.1254V28.9004Z" fill="#436AE5"/>
</svg>
