<svg width="17" height="17" viewBox="0 0 17 17" fill="none" xmlns="http://www.w3.org/2000/svg">
<rect width="17" height="17" rx="8.5" fill="#436AE5"/>
<path d="M5.88877 5.00044C5.88865 5.26565 5.78903 5.51993 5.61183 5.70737C5.43464 5.8948 5.19438 6.00002 4.94391 5.99989C4.69345 5.99976 4.45329 5.89428 4.27627 5.70666C4.09925 5.51904 3.99987 5.26465 4 4.99944C4.00013 4.73424 4.09974 4.47996 4.27694 4.29252C4.45413 4.10509 4.69439 3.99987 4.94486 4C5.19533 4.00013 5.43548 4.10561 5.6125 4.29323C5.78952 4.48085 5.8889 4.73524 5.88877 5.00044ZM5.9171 6.74035H4.02833V13H5.9171V6.74035ZM8.90136 6.74035H7.02204V13H8.88248V9.71518C8.88248 7.88528 11.1348 7.71529 11.1348 9.71518V13H13V9.03522C13 5.95039 9.66632 6.06539 8.88248 7.5803L8.90136 6.74035Z" fill="white"/>
</svg>
