<svg width="17" height="17" viewBox="0 0 17 17" fill="none" xmlns="http://www.w3.org/2000/svg">
<rect width="17" height="17" rx="8.5" fill="#436AE5"/>
<path d="M8.7189 4C6.84837 4 5 5.23333 5 7.22944C5 8.49883 5.72191 9.22007 6.15942 9.22007C6.33997 9.22007 6.44381 8.72241 6.44381 8.58191C6.44381 8.4143 6.01183 8.05714 6.01183 7.35926C6.01183 5.90956 7.12751 4.88165 8.57132 4.88165C9.8127 4.88165 10.7315 5.57952 10.7315 6.8616C10.7315 7.81913 10.3433 9.61502 9.08525 9.61502C8.6314 9.61502 8.24289 9.29046 8.24289 8.8254C8.24289 8.14368 8.72415 7.48389 8.72415 6.78054C8.72415 5.58702 7.01229 5.8034 7.01229 7.24588C7.01229 7.5488 7.0505 7.88404 7.1873 8.16013C6.93558 9.23132 6.42164 10.827 6.42164 11.9305C6.42164 12.2712 6.47094 12.6067 6.5036 12.9475C6.56544 13.0161 6.53452 13.0089 6.62932 12.9746C7.54811 11.7303 7.51544 11.4871 7.93108 9.8588C8.15538 10.2809 8.73495 10.5079 9.19434 10.5079C11.1302 10.5079 12 8.64163 12 6.9594C12 5.16899 10.4357 4.00058 8.71861 4.00058L8.7189 4Z" fill="white"/>
</svg>
