<svg width="20" height="20" viewBox="0 0 20 20" fill="none" xmlns="http://www.w3.org/2000/svg">
<path d="M18.6784 13.7989L13.6653 13.8928C13.4963 13.8928 13.3273 13.9866 13.2146 14.1369C12.7077 14.9442 11.1306 17.1973 9.72233 18.7745C9.42197 19.0561 8.93378 18.981 8.72725 18.6243C8.68971 18.5492 8.63336 18.4741 8.63336 18.4553C8.33295 17.7606 7.41296 13.7426 6.99985 13.2356C6.49297 12.6348 2.13697 11.5458 1.46104 11.3205C0.972874 11.1515 0.841442 10.5132 1.21696 10.1564C2.32473 9.10497 4.10843 7.6217 5.38516 6.7768C5.55415 6.68291 5.6668 6.49513 5.6668 6.30735L5.59171 1.53836C5.59171 1.16284 5.96723 0.881205 6.32393 1.05019C7.39416 1.50081 9.30928 2.70245 10.5109 3.75389C10.6424 3.90409 10.8489 3.96041 11.0367 3.90409C11.9004 3.66001 14.3224 2.96531 16.6882 2.83388C17.0074 2.81511 17.2702 3.07797 17.2327 3.41593C17.12 4.54248 16.8008 6.96452 16.2751 8.56049C16.2188 8.72947 16.2375 8.89845 16.369 9.04863C16.8759 9.7058 18.0776 11.3581 19.129 13.0103C19.3168 13.3671 19.0914 13.7989 18.6784 13.7989Z" fill="white"/>
<path d="M12.9893 7.92211C12.9893 8.54169 12.4824 9.06743 11.8628 9.06743C11.2432 9.06743 10.7363 8.56049 10.7363 7.92211C10.7363 7.30248 11.2432 6.7768 11.8628 6.7768C12.4824 6.7768 12.9893 7.30248 12.9893 7.92211ZM18.6784 13.7989L13.6653 13.8928C13.4963 13.8928 13.3273 13.9867 13.2146 14.1369C12.7077 14.9442 11.1306 17.1973 9.72233 18.7745C9.42197 19.0561 8.93378 18.981 8.72725 18.6243C8.68971 18.5492 8.63336 18.4741 8.63336 18.4553C8.33295 17.7606 7.41296 13.7426 6.99985 13.2356C6.49296 12.6348 2.13697 11.5458 1.46104 11.3205C0.972874 11.1515 0.841442 10.5132 1.21696 10.1564C2.32473 9.10497 4.10843 7.6217 5.38516 6.7768C5.55415 6.68291 5.6668 6.49513 5.6668 6.30735L5.59171 1.53836C5.59171 1.16284 5.96723 0.881205 6.32393 1.05019C7.39416 1.50081 9.30928 2.70245 10.5109 3.75389C10.6424 3.90409 10.8489 3.96041 11.0367 3.90409C11.9004 3.66001 14.3224 2.96531 16.6882 2.83388C17.0074 2.81511 17.2702 3.07797 17.2327 3.41593C17.12 4.54248 16.8008 6.96452 16.2751 8.56049C16.2188 8.72947 16.2375 8.89845 16.369 9.04863C16.8759 9.7058 18.0776 11.3581 19.129 13.0103C19.3168 13.3671 19.0914 13.7989 18.6784 13.7989ZM15.7306 4.50493C15.7682 4.37349 15.6367 4.24205 15.4865 4.26085C10.4171 4.78657 5.77947 8.4854 4.27739 9.81844C4.03331 10.025 4.10843 10.4193 4.40883 10.532C4.40883 10.532 7.63823 11.0576 8.40809 11.7148C8.97132 12.203 9.51586 15.132 9.51586 15.132C9.6285 15.4136 9.98525 15.4699 10.1918 15.2634C14.5665 10.776 15.5616 5.74413 15.7306 4.50493Z" fill="#F58D1D"/>
<path d="M7.15007 16.7093C7.11253 16.5404 7.05618 16.3714 6.99984 16.1836L5.38506 17.8922C5.27239 18.0237 5.21606 18.1927 5.21606 18.3617C5.21606 18.5494 5.29118 18.7185 5.42262 18.8311C5.53526 18.9437 5.70426 19.0001 5.87325 19.0001C6.061 19.0001 6.23003 18.925 6.36146 18.7935L7.43169 17.6669C7.33785 17.4041 7.24396 17.0848 7.15007 16.7093Z" fill="#F58D1D"/>
<path d="M6.26767 13.8365C6.13623 13.7427 5.87337 13.6488 5.57294 13.5361L1.55495 17.6293C1.42352 17.7607 1.36719 17.9297 1.36719 18.0986C1.36719 18.2676 1.42352 18.4554 1.55495 18.568C1.68638 18.6807 1.85536 18.7558 2.02434 18.7558C2.19332 18.7558 2.3623 18.6995 2.51251 18.568L6.49294 14.5125C6.41785 14.2309 6.34276 13.9868 6.26767 13.8365Z" fill="#F58D1D"/>
<path d="M2.64394 12.6162L1.31081 13.9681C1.19815 14.0995 1.12305 14.2686 1.12305 14.4376C1.12305 14.6065 1.17937 14.7943 1.31081 14.9069C1.44225 15.0196 1.61123 15.0947 1.78022 15.0947C1.94921 15.0947 2.13698 15.0196 2.24963 14.9069L4.1085 13.0293C3.58275 12.8979 3.05703 12.7476 2.64394 12.6162Z" fill="#F58D1D"/>
<path d="M7.15007 16.7093C7.11253 16.5404 7.05618 16.3714 6.99984 16.1836L5.38506 17.8922C5.27239 18.0237 5.21606 18.1927 5.21606 18.3617C5.21606 18.5494 5.29118 18.7185 5.42262 18.8311C5.53526 18.9437 5.70426 19.0001 5.87325 19.0001C6.061 19.0001 6.23003 18.925 6.36146 18.7935L7.43169 17.6669C7.33785 17.4041 7.24396 17.0848 7.15007 16.7093Z" fill="#F58D1D" stroke="url(#paint0_linear_4601_8496)" stroke-width="1.17121"/>
<path d="M2.64394 12.6162L1.31081 13.9681C1.19815 14.0995 1.12305 14.2686 1.12305 14.4376C1.12305 14.6065 1.17937 14.7943 1.31081 14.9069C1.44225 15.0196 1.61123 15.0947 1.78022 15.0947C1.94921 15.0947 2.13698 15.0196 2.24963 14.9069L4.1085 13.0293C3.58275 12.8979 3.05703 12.7476 2.64394 12.6162Z" fill="#F58D1D" stroke="url(#paint1_linear_4601_8496)" stroke-width="1.17121"/>
<path d="M6.26767 13.8365C6.13623 13.7427 5.87337 13.6488 5.57294 13.5361L1.55495 17.6293C1.42352 17.7607 1.36719 17.9297 1.36719 18.0986C1.36719 18.2676 1.42352 18.4554 1.55495 18.568C1.68638 18.6807 1.85536 18.7558 2.02434 18.7558C2.19332 18.7558 2.3623 18.6995 2.51251 18.568L6.49294 14.5125C6.41785 14.2309 6.34276 13.9868 6.26767 13.8365Z" stroke="url(#paint2_linear_4601_8496)" stroke-opacity="0.5" stroke-width="1.17121"/>
<g filter="url(#filter0_ii_4601_8496)">
<path d="M18.6784 13.7989L13.6653 13.8928C13.4963 13.8928 13.3273 13.9867 13.2146 14.1369C12.7077 14.9442 11.1306 17.1973 9.72233 18.7745C9.42197 19.0561 8.93378 18.981 8.72725 18.6243C8.68971 18.5492 8.63336 18.4741 8.63336 18.4553C8.33295 17.7606 7.41296 13.7426 6.99985 13.2356C6.49296 12.6348 2.13697 11.5458 1.46104 11.3205C0.972874 11.1515 0.841442 10.5132 1.21696 10.1564C2.32473 9.10497 4.10843 7.6217 5.38516 6.7768C5.55415 6.68291 5.6668 6.49513 5.6668 6.3074L5.59171 1.53836C5.59171 1.16284 5.96723 0.881205 6.32393 1.05019C7.39416 1.50081 9.30928 2.70245 10.5109 3.75389C10.6424 3.90409 10.8489 3.96041 11.0367 3.90409C11.9004 3.66001 14.3224 2.96531 16.6882 2.83388C17.0074 2.81511 17.2702 3.07797 17.2327 3.41593C17.12 4.54248 16.8008 6.96452 16.2751 8.56049C16.2188 8.72947 16.2375 8.89845 16.369 9.04863C16.8759 9.7058 18.0776 11.3581 19.129 13.0103C19.3168 13.3671 19.0914 13.7989 18.6784 13.7989Z" stroke="#F58D1D"/>
</g>
<defs>
<filter id="filter0_ii_4601_8496" x="0.500244" y="0.496094" width="19.1931" height="19.1844" filterUnits="userSpaceOnUse" color-interpolation-filters="sRGB">
<feFlood flood-opacity="0" result="BackgroundImageFix"/>
<feBlend mode="normal" in="SourceGraphic" in2="BackgroundImageFix" result="shape"/>
<feColorMatrix in="SourceAlpha" type="matrix" values="0 0 0 0 0 0 0 0 0 0 0 0 0 0 0 0 0 0 127 0" result="hardAlpha"/>
<feOffset dy="0.234242"/>
<feGaussianBlur stdDeviation="0.117121"/>
<feComposite in2="hardAlpha" operator="arithmetic" k2="-1" k3="1"/>
<feColorMatrix type="matrix" values="0 0 0 0 1 0 0 0 0 1 0 0 0 0 1 0 0 0 0.8 0"/>
<feBlend mode="normal" in2="shape" result="effect1_innerShadow_4601_8496"/>
<feColorMatrix in="SourceAlpha" type="matrix" values="0 0 0 0 0 0 0 0 0 0 0 0 0 0 0 0 0 0 127 0" result="hardAlpha"/>
<feOffset dy="0.117121"/>
<feGaussianBlur stdDeviation="0.117121"/>
<feComposite in2="hardAlpha" operator="arithmetic" k2="-1" k3="1"/>
<feColorMatrix type="matrix" values="0 0 0 0 0.441667 0 0 0 0 0.441667 0 0 0 0 0.441667 0 0 0 0.4 0"/>
<feBlend mode="normal" in2="effect1_innerShadow_4601_8496" result="effect2_innerShadow_4601_8496"/>
</filter>
<linearGradient id="paint0_linear_4601_8496" x1="5.21606" y1="19.1362" x2="6.86809" y2="17.4227" gradientUnits="userSpaceOnUse">
<stop/>
<stop offset="0.0001" stop-color="#E4FCFF"/>
<stop offset="1" stop-color="#E4FCFF" stop-opacity="0"/>
</linearGradient>
<linearGradient id="paint1_linear_4601_8496" x1="1.12305" y1="15.0269" x2="3.28963" y2="12.8131" gradientUnits="userSpaceOnUse">
<stop stop-color="#FFF5FE"/>
<stop offset="0.769332" stop-color="#FFF5FE" stop-opacity="0"/>
</linearGradient>
<linearGradient id="paint2_linear_4601_8496" x1="1.57619" y1="18.5902" x2="6.23131" y2="13.8289" gradientUnits="userSpaceOnUse">
<stop stop-color="#F6EDFE"/>
<stop offset="0.850896" stop-color="#A851F8" stop-opacity="0"/>
</linearGradient>
</defs>
</svg>
