<svg width="19" height="18" viewBox="0 0 19 18" fill="none" xmlns="http://www.w3.org/2000/svg">
<circle cx="9.5" cy="9.15039" r="8.75" fill="#436AE5"/>
<path d="M4.94922 4.59961H7.5827C8.48931 4.59961 9.97154 4.73497 10.7774 6.26453L14.7492 14.0341C14.3607 14.3996 13.6987 14.3996 13.3102 14.0341C13.267 13.9935 13.2094 13.9394 13.2094 13.8988L9.81324 9.36425C9.33835 8.7416 8.37418 8.5521 7.71221 8.99878L7.56831 9.13414L6.61853 9.9869C6.18681 10.3524 5.56802 10.3524 5.1363 9.94629L5.03556 9.85154L5.94217 8.72806C6.56097 7.91591 6.60414 6.84657 6.0429 6.03442L4.94922 4.59961ZM6.47462 12.7347C6.33072 12.9648 6.28754 13.2355 6.33072 13.4521C6.37389 13.9529 7.05025 14.3996 7.05025 14.3996L9.53982 10.4471C9.64056 10.2712 9.64056 10.0004 9.53982 9.82447C9.00737 9.01232 8.24467 9.28304 8.24467 9.28304L6.47462 12.7347Z" fill="white"/>
</svg>
