<svg width="1920" height="1024" viewBox="0 0 1920 1024" fill="none" xmlns="http://www.w3.org/2000/svg">
<g clip-path="url(#clip0_5_67199)">
<rect width="1920" height="1023" transform="translate(0 0.841797)" fill="#F1F4FF"/>
<g clip-path="url(#clip1_5_67199)">
<g clip-path="url(#clip2_5_67199)">
<path d="M1489.43 1550.57L1411.11 1541.24C1411.48 1551.92 1411.04 1562.61 1409.82 1573.22C1407.03 1571.82 1403.95 1571.06 1400.82 1571.01C1364.62 1567.89 1329.13 1561.81 1293.01 1558.31C1275.34 1556.61 1257.43 1558.56 1241.73 1549.36C1208.4 1529.83 1176.53 1506.8 1144.12 1485.69C1124.99 1473.2 1104.79 1462.21 1086.13 1449.42C1084.46 1448.26 1073.63 1434.18 1076.92 1434.68C1040.2 1429.13 1003.35 1424.64 966.353 1421.19C964.602 1414.85 963.362 1408.37 962.646 1401.83L958.48 1406.58C954.022 1405.49 955.022 1398.96 955.98 1394.46C957.897 1385.01 954.564 1375.35 951.231 1366.31C946.398 1352.99 940.024 1338.12 926.652 1333.54C921.819 1331.92 915.695 1331.21 913.654 1326.55C912.196 1323.34 913.654 1319.43 912.362 1316.09C910.404 1310.14 902.739 1309.1 896.906 1306.89C884.908 1302.44 877.785 1290.53 870.786 1279.87C868.205 1275.35 864.698 1271.44 860.496 1268.37C855.223 1265.59 849.469 1263.84 843.54 1263.21C830.709 1260.71 816.211 1254.05 814.087 1241.14C812.712 1232.81 817.128 1224.49 817.794 1216.16C818.031 1211.55 817.51 1206.94 816.253 1202.5C813.368 1191.22 808.098 1180.68 800.797 1171.6C798.313 1168.89 796.185 1165.86 794.465 1162.61C792.917 1157.44 791.816 1152.14 791.174 1146.79C789.299 1139.33 784.425 1133.09 780.884 1126.3C777.343 1119.51 775.093 1111.06 778.717 1104.31C781.066 1101.23 783.077 1097.91 784.716 1094.4C786.674 1086.91 779.301 1080.7 773.968 1075.12C769.263 1070.16 765.665 1064.25 763.41 1057.79C761.155 1051.33 760.295 1044.46 760.887 1037.65C761.512 1030.69 763.178 1029.99 769.761 1030.15C770.344 1030.25 770.941 1030.11 771.427 1029.78C771.822 1029.28 772.016 1028.66 771.969 1028.03L772.343 1011.66C772.677 999.172 764.012 1010.17 759.387 1012.79C754.045 1008.35 750.289 1002.29 748.682 995.536C747.074 988.779 747.702 981.683 750.472 975.313C753.722 968.276 744.098 961.946 739.974 955.409C727.226 935.047 734.141 908.856 737.433 885.079C738.537 879.008 738.537 872.787 737.433 866.716C735.599 858.388 730.434 851.517 726.684 843.981C722.935 836.444 720.685 827.325 724.81 819.871C728.934 812.417 738.391 809.253 742.182 801.716C745.973 794.179 742.973 784.852 745.765 776.732C748.347 769.612 755.471 764.24 755.471 756.453C755.471 751.415 752.222 746.876 751.805 741.838C751.305 735.425 755.43 729.554 756.679 723.225C757.201 718.617 757.201 713.966 756.679 709.359C756.277 698.434 758.297 687.556 762.595 677.504C765.761 670.217 763.928 665.678 767.053 658.35C772.927 644.775 780.675 632.117 787.883 619.167C807.272 583.928 822.031 546.336 831.792 507.322C832.671 502.108 834.707 497.157 837.749 492.831C839.304 490.691 841.542 489.144 844.095 488.448C846.648 487.751 849.362 487.946 851.789 489C850.772 485.273 848.721 481.91 845.873 479.298C843.457 476.3 841.707 471.72 844.29 468.805C846.04 466.806 849.164 466.515 850.872 464.641C855.788 458.978 844.332 450.816 846.956 443.821C848.206 440.531 852.414 438.408 852.205 434.868C852.205 432.078 849.081 430.371 847.706 427.914C846.824 426.068 846.369 424.047 846.373 422.002L843.249 375.906C842.707 367.578 844.498 355.919 852.997 355.086C855.939 355.142 858.814 355.975 861.329 357.501L911.737 382.194C915.143 383.581 918.212 385.682 920.736 388.356C921.974 389.723 922.747 391.447 922.941 393.281C923.136 395.114 922.743 396.962 921.819 398.558C919.194 402.223 912.696 403.347 912.654 407.886C912.654 413.174 920.361 414.132 920.986 419.045C921.986 425.416 913.654 430.329 908.196 430.413C905.488 430.413 902.281 429.871 900.448 431.912C899.602 432.961 899.145 434.27 899.156 435.618C898.698 441.572 903.072 448.568 908.988 447.652C910.743 447.246 912.4 446.496 913.862 445.445C918.861 442.155 926.735 437.617 928.943 431.953C931.484 425.541 926.652 418.212 930.901 411.55C933.817 406.97 939.816 404.388 941.024 399.058C942.899 390.73 931.484 383.984 933.109 375.656C933.9 371.492 937.566 368.744 938.775 364.83C942.024 354.004 925.402 342.844 931.443 333.267C1090.21 390.147 1255.56 421.169 1421.65 450.525C1477.15 460.352 1532.76 469.887 1588.96 473.968C1633.83 477.216 1678.86 477.008 1723.81 476.8L1885.2 476.05C1907.12 476.05 1929.03 476.758 1950.9 476.591C1966.48 476.591 1999.56 481.38 2007.68 463.475C2008.7 460.315 2009.9 457.215 2011.27 454.189C2012 452.699 2013.24 451.518 2014.77 450.855C2016.29 450.192 2018 450.089 2019.6 450.567C2022.43 451.941 2023.1 455.522 2023.76 458.561C2025.81 469.971 2030.22 489.042 2045.39 485.877C2050.72 484.753 2056.47 482.546 2061.3 485.003C2066.13 487.459 2070.38 494.538 2075.21 491.957C2077.51 490.749 2078.55 487.793 2081.05 486.96C2084.38 486.044 2086.88 489.916 2090 491.457C2097.13 495.038 2103.54 486.002 2109.83 481.089C2110.24 480.695 2110.72 480.388 2111.25 480.188C2111.78 479.987 2112.35 479.897 2112.92 479.923C2114.42 480.173 2115.21 481.796 2115.75 483.171L2123.62 502.616C2122.96 497.745 2130.54 496.329 2134.79 498.786C2139.04 501.242 2142.83 505.614 2147.7 505.24C2149.99 505.032 2152.45 503.866 2154.37 505.24C2156.28 506.614 2156.03 510.153 2157.7 512.152C2160.41 515.4 2165.66 512.152 2168.2 508.987C2170.74 505.823 2174.16 501.367 2178.2 502.7C2180.24 503.366 2181.53 505.365 2183.11 506.864C2189.32 512.568 2199.03 510.153 2207.23 508.238C2215.44 506.322 2226.27 506.531 2229.56 514.234C2228.65 521.188 2221.23 526.393 2215.15 529.599C2208.73 532.392 2202.52 535.649 2196.57 539.343C2192.06 542.91 2188.1 547.119 2184.82 551.835L2147.83 599.471C2149.87 603.094 2155.16 602.719 2159.16 601.553C2169.25 598.69 2178.79 594.143 2187.36 588.103C2190.61 585.855 2195.69 583.648 2197.86 586.979C2201.24 592.184 2193.69 597.68 2195.69 601.969C2198.19 607.549 2211.94 604.967 2216.82 603.677C2228.61 600.512 2231.69 587.562 2243.69 585.272C2246.19 584.772 2249.06 584.939 2250.77 583.065C2252.48 581.191 2252.23 579.109 2253.23 577.235C2254.48 575.492 2256.12 574.065 2258.02 573.071C2268.1 566.201 2275.47 556.124 2284.22 547.629C2292.97 539.135 2304.43 531.889 2316.55 533.18C2317.97 539.01 2313.84 544.756 2309.13 548.462C2304.02 551.607 2299.34 555.416 2295.22 559.788C2292.8 563.078 2291.05 570.531 2295.01 573.488C2298.97 576.444 2302.43 571.655 2305.84 570.073C2308.45 569.088 2311.25 568.759 2314.01 569.115C2316.77 569.471 2319.41 570.501 2321.67 572.113C2325.05 574.972 2328.25 578.031 2331.26 581.274C2335.3 584.759 2340.21 587.083 2345.47 588C2350.73 588.917 2356.14 588.391 2361.13 586.479C2366.87 589.769 2370.42 588.728 2375.5 584.48C2378.41 582.024 2380.41 578.651 2383.21 576.152C2386.49 573.457 2390.19 571.319 2394.16 569.823L2423.32 557.04C2424.44 556.37 2425.76 556.146 2427.03 556.415C2431.2 557.873 2426.32 565.035 2427.78 568.116C2429.24 571.197 2433.36 571.572 2434.7 574.487C2435.1 575.838 2435.3 577.242 2435.28 578.651C2435.28 579.357 2435.47 580.049 2435.84 580.651C2436.21 581.254 2436.73 581.743 2437.36 582.065C2440.74 583.19 2449.15 575.695 2452.57 574.695C2463.48 571.531 2473.15 582.19 2479.56 591.601C2479.31 596.556 2471.82 596.306 2467.07 594.391C2462.32 592.475 2455.07 591.976 2454.57 596.931C2454.57 598.888 2455.61 601.095 2454.86 602.719C2453.61 605.509 2449.44 604.551 2446.53 603.135C2437.7 598.513 2426.32 594.308 2418.49 600.429C2414.33 603.718 2412.2 609.381 2407.66 612.213C2403.91 614.586 2398.95 614.669 2395.37 617.334C2392.21 620.564 2389.84 624.484 2388.45 628.785C2386.45 632.949 2382.75 637.113 2378.29 636.281C2378.29 633.699 2381.66 628.161 2379.5 625.996C2377.33 623.83 2372.08 626.454 2371.17 628.411C2366.04 639.487 2364.42 625.871 2359.96 624.247C2355.5 622.623 2356.13 627.994 2356.38 630.909C2357.02 634.726 2356.85 638.637 2355.85 642.379C2354.86 646.121 2353.08 649.607 2350.63 652.603C2347.04 656.767 2341.96 660.515 2340.88 666.011C2340.69 669.513 2340.82 673.025 2341.25 676.505C2341.25 688.289 2328.76 697.325 2328.76 708.984C2328.68 709.886 2328.8 710.794 2329.1 711.648C2329.4 712.501 2329.88 713.282 2330.51 713.939C2333.42 716.479 2337.92 713.648 2340.17 710.525C2346.92 701.197 2347.92 688.997 2352.67 678.628C2354.5 674.797 2357.54 670.8 2361.79 670.717C2371.25 670.717 2362.54 697.658 2360.88 702.405C2358.25 707.971 2356.83 714.031 2356.71 720.185C2357.2 722.939 2357.52 725.72 2357.67 728.513C2357.38 735.8 2350.21 741.921 2351.29 749.333C2351.63 751.581 2352.79 753.497 2353.17 755.912C2353.3 760.568 2352.21 765.176 2350 769.279C2347.68 775.63 2346.74 782.405 2347.25 789.148C2347.76 795.892 2349.71 802.449 2352.96 808.378C2354.5 810.775 2355.81 813.313 2356.88 815.957C2358.88 821.87 2356.88 828.449 2356.88 834.528C2357.42 842.937 2359.57 851.163 2363.21 858.763C2366.5 867.091 2370.25 875.669 2377.87 880.166C2379.47 881.196 2381.31 881.799 2383.21 881.915C2385.35 881.893 2387.46 881.335 2389.33 880.291C2401.08 873.937 2409.9 863.281 2413.95 850.56C2417.88 837.943 2420.17 824.871 2420.74 811.668C2421.7 801.008 2422.53 789.807 2418.2 780.063C2415.15 774.487 2411.83 769.067 2408.24 763.824C2402.44 752.428 2399.75 739.7 2400.45 726.931C2400.45 714.231 2402.37 701.572 2402.41 688.872C2402.11 685.159 2402.61 681.426 2403.87 677.921C2406.83 671.508 2415.12 668.468 2417.28 661.764C2418.12 659.266 2419.53 655.56 2421.91 656.642C2422.36 656.959 2422.74 657.375 2423.02 657.857C2423.29 658.34 2423.45 658.879 2423.49 659.432C2423.71 662.74 2424.18 666.025 2424.91 669.259C2425.99 672.382 2429.07 675.256 2432.36 674.339C2433.21 674.041 2433.98 673.567 2434.62 672.95C2435.27 672.333 2435.78 671.586 2436.11 670.758C2438.11 666.303 2436.49 661.181 2435.74 656.351C2434.99 651.521 2435.99 645.441 2440.57 643.859C2442.49 643.151 2444.74 643.401 2446.57 642.735C2448.4 642.069 2450.15 639.695 2448.94 638.071C2447.74 636.447 2446.65 636.905 2445.4 636.489C2440.24 634.823 2439.07 627.411 2441.9 622.789C2445.65 616.668 2454.94 611.297 2461.9 614.711C2466.07 616.793 2469.52 620.499 2474.02 621.956C2477.25 622.736 2480.58 623.058 2483.9 622.914C2490.22 623.09 2496.47 624.372 2502.35 626.703C2503.48 627.081 2504.52 627.659 2505.44 628.411C2506.52 629.41 2507.23 630.867 2508.6 631.45C2510.73 632.325 2513.14 630.576 2515.35 631.201C2518.35 632.033 2518.52 636.322 2517.27 639.195C2516.02 642.069 2514.06 645.025 2514.93 648.023C2515.6 649.611 2516.61 651.033 2517.89 652.187C2522.28 657.184 2525.22 663.287 2526.39 669.835C2527.56 676.382 2526.91 683.124 2524.52 689.33C2522.61 692.882 2521.21 696.679 2520.35 700.614C2519.93 704.445 2521.1 708.609 2519.31 711.982C2517.52 715.355 2512.64 717.02 2509.98 720.31C2508.48 722.207 2507.78 724.611 2508.03 727.013C2508.28 729.416 2509.46 731.626 2511.31 733.177C2512.28 733.87 2513.4 734.345 2514.57 734.569C2515.75 734.794 2516.96 734.763 2518.12 734.479C2519.28 734.194 2520.37 733.663 2521.31 732.921C2522.25 732.179 2523.01 731.244 2523.56 730.179L2529.31 717.27C2530.77 713.378 2532.67 709.662 2534.97 706.194C2537.33 702.705 2540.91 700.236 2545.01 699.282C2546.85 699 2548.73 699.142 2550.51 699.698C2552.28 700.254 2553.91 701.208 2555.26 702.488C2557.18 704.646 2558.7 707.128 2559.76 709.817C2562.76 716.229 2565.72 722.642 2568.72 729.096C2574.72 742.129 2581.21 755.579 2581.55 769.903C2581.8 771.644 2581.63 773.422 2581.03 775.078C2580.43 776.734 2579.44 778.217 2578.13 779.397C2576.39 780.224 2574.56 780.839 2572.67 781.229C2565.18 783.811 2562.55 793.18 2562.88 801.091C2563.22 809.003 2565.38 817.164 2562.88 824.66C2560.38 832.155 2546.6 843.731 2555.09 850.893C2558.49 853.256 2562.67 854.211 2566.76 853.558C2570.79 852.928 2574.89 852.732 2578.96 852.975C2579.45 852.994 2579.92 853.124 2580.35 853.355C2580.78 853.586 2581.14 853.912 2581.42 854.307C2581.92 855.182 2581.42 856.306 2581.42 857.305C2581.65 858.371 2582.29 859.304 2583.2 859.904C2584.12 860.503 2585.23 860.722 2586.3 860.512C2597.59 859.096 2604.38 843.856 2615.17 840.025C2622.12 837.61 2629.75 836.485 2635.75 832.155C2643.41 826.575 2646.91 816.79 2654.16 810.627C2659.58 806.047 2666.66 803.881 2672.74 800.259C2687.11 791.722 2695.32 775.899 2707.4 764.365C2714.28 757.744 2722.48 752.498 2728.23 744.961C2733.98 737.424 2737.02 726.389 2731.86 718.395C2728.11 712.648 2720.36 707.568 2722.57 701.072C2723.49 699.357 2724.76 697.857 2726.3 696.672C2727.85 695.488 2729.63 694.645 2731.52 694.202L2748.65 687.664C2752.72 685.836 2757.07 684.683 2761.52 684.25C2765.35 684.25 2769.18 685.041 2773.02 685.124C2786.39 685.457 2797.05 676.172 2807.34 668.926C2816.63 662.389 2845.09 655.893 2833.55 640.195C2831.87 638.472 2830.47 636.507 2829.38 634.365C2827.34 628.536 2834.22 620.791 2829.38 616.71C2826.09 613.795 2820.38 616.71 2816.88 614.211C2815.67 613.144 2814.86 611.697 2814.58 610.109C2814.3 608.52 2814.57 606.884 2815.34 605.467C2818.63 598.347 2825.8 594.266 2828.92 586.854C2832.05 579.442 2832.59 570.198 2836.26 562.62C2839.55 556.742 2843.57 551.3 2848.21 546.422C2854.63 538.718 2860.42 530.057 2869.04 525.144C2874.54 522.42 2880.35 520.351 2886.33 518.981C2901.91 514.401 2916.7 507.988 2932.16 503.866C2950.43 498.592 2968.27 491.938 2985.52 483.962C2998.9 478.049 2992.9 470.221 2998.77 460.518C3001.65 455.855 3007.1 454.522 3011.27 450.941C3018.18 444.445 3013.19 443.779 3013.1 436.784C3013.02 429.788 3017.52 424.542 3019.64 417.879C3021.91 409.957 3022.67 401.681 3021.89 393.478C3021.02 380.986 3018.06 368.494 3017.73 355.669C3017.31 337.806 3022.23 320.317 3027.1 303.12C3027.77 300.746 3028.81 298.039 3031.27 297.415C3037.76 295.666 3038.76 310.865 3045.26 309.324C3045.98 309.101 3046.65 308.735 3047.22 308.248C3047.79 307.761 3048.26 307.164 3048.6 306.492C3051.22 302.328 3053.26 295.375 3058.22 296.291C3059.3 296.291 3060.3 297.123 3061.43 297.207C3066.84 297.706 3066.43 287.921 3071.26 285.423C3072.46 284.894 3073.79 284.693 3075.09 284.84C3088.88 285.423 3099 298.331 3103.59 311.323C3108.17 324.314 3109.38 338.555 3115.71 350.797C3116.72 353.224 3118.22 355.413 3120.12 357.227C3122.02 359.041 3124.28 360.439 3126.75 361.332C3128.53 361.588 3130.28 362.035 3131.96 362.665C3136.83 365.038 3136.46 372.242 3139.75 376.572C3142.81 379.627 3146.64 381.799 3150.83 382.86C3158.2 385.903 3164.56 390.953 3169.2 397.434C3170.77 399.514 3171.95 401.854 3172.7 404.346C3173.66 408.662 3173.1 413.178 3171.12 417.13C3165.66 428.997 3152.54 435.784 3146.5 447.36C3145.57 449.882 3143.97 452.1 3141.87 453.773C3139.54 455.105 3135.67 453.773 3136 451.025C3132.87 451.025 3130.75 454.397 3130.17 457.52C3129.95 460.65 3129.4 463.748 3128.54 466.764C3127.25 469.638 3123.54 471.886 3120.96 470.054C3118.38 468.222 3118.84 465.89 3117.34 463.933C3116.71 463.276 3115.92 462.789 3115.05 462.516C3114.18 462.244 3113.26 462.194 3112.37 462.373C3111.47 462.551 3110.64 462.952 3109.94 463.538C3109.25 464.123 3108.71 464.875 3108.38 465.723C3108.05 468.228 3108.45 470.774 3109.54 473.052C3110.67 477.307 3110.9 481.749 3110.23 486.099C3109.55 490.448 3107.99 494.612 3105.63 498.328C3100.84 505.726 3094.57 512.05 3087.22 516.899C3083.65 518.84 3080.68 521.72 3078.63 525.227C3077.68 529.324 3077.18 533.513 3077.13 537.719C3075.63 545.506 3068.51 551.169 3066.39 558.83C3064.55 565.285 3066.14 572.113 3065.05 578.651C3064.26 583.648 3059.89 591.143 3066.14 594.516C3068.39 595.765 3071.55 595.765 3072.76 598.055C3074.43 601.22 3070.09 604.384 3069.51 607.924C3068.93 611.463 3072.88 614.919 3075.55 618.001C3081.8 625.204 3081.34 636.364 3087.17 643.901C3090.31 647.674 3094.76 650.123 3099.63 650.756C3104.49 651.389 3109.42 650.16 3113.42 647.315C3115.15 646.182 3116.4 644.445 3116.92 642.443C3118.34 635.406 3106.63 631.076 3107.71 623.997C3108.25 620.374 3111.88 618.25 3115.13 616.627C3115.61 616.289 3116.17 616.059 3116.75 615.951C3117.33 615.843 3117.93 615.861 3118.5 616.002C3119.43 616.504 3120.12 617.337 3120.46 618.334C3122.38 622.498 3124.29 626.37 3126.25 630.368C3127.78 633.021 3128.64 636.009 3128.75 639.07C3127.94 643.489 3125.54 647.458 3122 650.23L3109.21 662.722C3107.5 664.388 3105.05 666.22 3102.96 664.846C3101.59 663.929 3101.3 661.931 3099.84 661.14C3098.38 660.348 3095.67 661.931 3095.13 663.846C3094.67 665.834 3094.1 667.795 3093.42 669.717C3089.47 676.838 3076.22 670.425 3071.13 676.796C3069.54 679.874 3068.82 683.331 3069.05 686.79C3067.22 704.778 3042.18 708.443 3029.31 715.938C3012.49 725.796 2997.76 738.837 2985.94 754.33C2977.02 766.031 2969.65 780.688 2973.03 795.012C2973.07 795.497 2973.23 795.966 2973.48 796.384C2973.73 796.801 2974.08 797.158 2974.48 797.427C2975.86 798.093 2977.36 796.844 2978.65 796.136C2983.23 793.888 2988.61 798.843 2989.02 803.923C2988.85 809.035 2987.42 814.026 2984.86 818.455C2973.98 843.439 2979.11 873.545 2965.9 897.321C2965.55 898.128 2964.93 898.79 2964.15 899.195C2961.49 900.319 2960.24 895.989 2959.99 893.116C2959.66 891.026 2958.92 889.022 2957.81 887.222C2956.69 885.422 2955.23 883.862 2953.51 882.633C2951.79 881.404 2949.84 880.53 2947.77 880.064C2945.71 879.597 2943.57 879.547 2941.49 879.916C2940.98 879.952 2940.49 880.09 2940.03 880.32C2939.58 880.55 2939.17 880.868 2938.84 881.256C2938.52 881.643 2938.27 882.093 2938.11 882.578C2937.96 883.062 2937.9 883.573 2937.95 884.08C2938.02 887.44 2938.82 890.744 2940.29 893.769C2941.76 896.794 2943.86 899.468 2946.45 901.61C2951.22 906.074 2956.61 909.832 2962.44 912.77C2967.82 915.809 2964.49 919.807 2964.74 925.97C2965.83 954.136 2960.52 982.184 2949.2 1008C2946.51 1003.87 2945.04 999.07 2944.98 994.147C2944.91 989.223 2946.24 984.382 2948.82 980.185C2951.24 976.396 2954.65 971.191 2951.36 968.109C2948.07 965.028 2940.86 969.9 2936.57 967.068C2930.45 962.904 2938.74 949.788 2931.87 947.164C2930.31 946.817 2928.7 946.718 2927.12 946.873C2925.67 946.737 2924.27 946.289 2923.01 945.561C2921.75 944.833 2920.67 943.842 2919.83 942.656C2918.99 941.469 2918.42 940.115 2918.15 938.687C2917.88 937.259 2917.93 935.79 2918.28 934.381C2919.04 932.962 2919.4 931.365 2919.33 929.759C2918.66 926.719 2914.54 926.594 2911.62 925.595C2904.95 923.43 2902.87 914.768 2904.2 907.898C2905.54 901.027 2909.12 894.573 2909.58 887.619C2909.58 885.329 2908.7 882.248 2906.41 882.456C2905.04 882.456 2904.12 883.997 2903.45 885.204C2896.75 897.28 2889.96 911.979 2896.29 924.262C2899.04 929.551 2904.08 933.964 2904.62 939.919C2904.87 943.167 2903.75 946.79 2905.58 949.496C2908.45 953.66 2916.91 953.036 2917.37 958.074C2917.62 961.322 2913.95 963.445 2912.99 966.402C2911.58 971.066 2916.45 974.73 2920.2 978.061C2923.95 981.392 2926.57 987.971 2922.24 990.22C2917.91 992.469 2911.12 986.056 2907.54 989.679C2905.12 992.135 2907.54 996.508 2910.79 998.007C2914.04 999.506 2917.66 999.173 2920.78 1000.67C2923.91 1002.17 2925.91 1006.88 2923.16 1009C2922.2 1009.71 2920.95 1009.92 2920.08 1010.71C2917.7 1012.96 2920.53 1016.79 2923.28 1018.58C2926.05 1020 2928.42 1022.07 2930.2 1024.61C2930.6 1025.27 2930.86 1025.99 2930.97 1026.75C2931.08 1027.5 2931.04 1028.28 2930.85 1029.01C2930.65 1029.75 2930.31 1030.45 2929.84 1031.05C2929.37 1031.65 2928.78 1032.16 2928.12 1032.53C2923.95 1033.98 2917.95 1028.65 2915.62 1032.53C2915.19 1033.3 2915.01 1034.19 2915.12 1035.07C2915.69 1037.24 2917.03 1039.14 2918.89 1040.41C2920.75 1041.68 2923 1042.23 2925.24 1041.98C2929.69 1041.33 2934.07 1040.27 2938.32 1038.81C2940.47 1038.11 2942.76 1038.01 2944.96 1038.51C2947.16 1039.01 2949.19 1040.09 2950.82 1041.65C2957.74 1042.89 2959.94 1049.56 2958.15 1056.34C2957.51 1058 2957.09 1059.74 2956.9 1061.51C2956.9 1064.96 2959.86 1067.59 2961.9 1070.38C2963.94 1073.17 2964.65 1077.96 2961.53 1079.45C2960.19 1080.08 2958.53 1079.87 2957.36 1080.62C2954.28 1082.41 2954.99 1086.78 2951.57 1088.7C2948.15 1090.61 2944.99 1086.45 2942.45 1090.91C2936.16 1102.11 2930.37 1081.2 2928.32 1095.07C2927.62 1099.86 2930.53 1110.56 2936.66 1109.52C2942.78 1108.48 2942.91 1097.94 2952.86 1100.98C2955.94 1101.9 2958.57 1104.31 2961.78 1104.6C2966.48 1105.06 2970.11 1100.73 2972.4 1096.53C2973.19 1094.99 2974.07 1093.24 2975.73 1092.78C2978.73 1091.9 2980.77 1095.82 2981.19 1098.94C2982.68 1110.44 2979.69 1122.06 2972.86 1131.42C2970.11 1135.09 2965.32 1138.58 2961.32 1136.42C2959.44 1135.38 2958.32 1133.29 2956.61 1132C2955.38 1131.3 2953.97 1130.96 2952.55 1131.02C2951.13 1131.08 2949.75 1131.54 2948.58 1132.34C2947.4 1133.14 2946.48 1134.26 2945.91 1135.56C2945.34 1136.87 2945.15 1138.3 2945.36 1139.71C2945.7 1140.52 2945.9 1141.37 2945.95 1142.25C2945.61 1147.37 2934.32 1142.83 2933.45 1147.87C2932.95 1150.28 2935.99 1152.03 2938.49 1152.03C2940.92 1151.48 2943.42 1151.3 2945.91 1151.49C2946.86 1151.88 2947.71 1152.47 2948.41 1153.23C2949.11 1153.98 2949.64 1154.88 2949.96 1155.86C2950.28 1156.84 2950.38 1157.88 2950.25 1158.9C2950.13 1159.92 2949.78 1160.9 2949.24 1161.78C2948.02 1163.48 2946.4 1164.86 2944.53 1165.8C2942.66 1166.74 2940.59 1167.22 2938.49 1167.19C2937.07 1167.11 2935.64 1167.35 2934.32 1167.9C2930.16 1170.1 2933.74 1177.1 2938.49 1177.31C2943.24 1177.52 2946.82 1173.94 2950.4 1170.94C2953.99 1167.94 2958.74 1165.11 2962.9 1166.98C2965.28 1168.02 2964.4 1168.56 2964.03 1171.15C2963.65 1173.73 2962.19 1176.02 2961.94 1178.6C2961.97 1179.86 2961.84 1181.12 2961.57 1182.35C2961.17 1183.29 2960.54 1184.11 2959.73 1184.73C2958.92 1185.35 2957.96 1185.75 2956.94 1185.89C2954.94 1186.15 2952.92 1186.25 2950.9 1186.18C2946.24 1186.6 2941.73 1188.07 2937.72 1190.49C2933.7 1192.9 2930.29 1196.2 2927.74 1200.13C2920.28 1210.58 2911.08 1223.65 2909.2 1236.52C2908.98 1239.27 2908.43 1241.98 2907.58 1244.6C2905.68 1248.36 2902.48 1251.32 2898.58 1252.93C2894.83 1254.8 2890.75 1255.97 2887.04 1257.92C2881.29 1260.96 2876.6 1265.66 2873.58 1271.41C2859.42 1280.33 2859.38 1300.56 2848.96 1313.6C2847.57 1315.02 2846.47 1316.71 2845.71 1318.55C2845.35 1320.46 2845.2 1322.4 2845.25 1324.34C2844.46 1332.33 2836.13 1336.83 2831.42 1343.53C2829.62 1345.9 2828.22 1348.55 2827.26 1351.36C2826.75 1353.28 2826.06 1355.15 2825.22 1356.94C2822.13 1362.44 2815.01 1364.44 2811.18 1369.43C2809.22 1372.02 2808.14 1375.39 2805.43 1377.14C2801.64 1379.55 2795.51 1378.22 2793.18 1382.13C2791.81 1384.47 2792.22 1388.3 2789.64 1389.26C2787.06 1390.21 2785.47 1388.05 2783.27 1388.59C2781.06 1389.13 2780.39 1392.75 2781.14 1395.21C2781.89 1397.67 2783.31 1400.33 2782.35 1402.75C2781.85 1404.08 2780.68 1405.08 2780.1 1406.41C2779.54 1408.16 2779.4 1410.01 2779.68 1411.82C2780.02 1418.61 2776.72 1421.78 2774.47 1427.4C2772.11 1435.04 2770.71 1442.94 2770.31 1450.92C2768.47 1467.02 2768.73 1483.28 2771.1 1499.31C2771.76 1502.57 2771.97 1505.9 2771.73 1509.22C2770.34 1514.44 2768.2 1519.43 2765.39 1524.04C2762.27 1531.49 2761.51 1539.72 2763.23 1547.61C2763.23 1548.78 2764.1 1554.98 2765.31 1555.61C2773.64 1559.77 2770.73 1543.74 2770.48 1540.95C2770.1 1536.99 2767.6 1524.96 2772.1 1522.46C2780.1 1517.96 2780.89 1539.12 2781.68 1542.62C2784.78 1553.79 2789.86 1564.31 2796.68 1573.68C2808.47 1592.12 2820.3 1610.61 2833.59 1628.1C2834.71 1629.64 2835.22 1632.68 2833.3 1632.68C2832.64 1632.57 2832.04 1632.22 2831.63 1631.68L2824.8 1624.77C2823.71 1626.1 2823.07 1627.74 2822.98 1629.46C2822.89 1631.17 2823.35 1632.87 2824.3 1634.31C2826.27 1637.13 2828.61 1639.68 2831.26 1641.88C2835.86 1646.9 2839.79 1652.5 2842.92 1658.54L2856.79 1682.53C2860.03 1687.63 2862.61 1693.13 2864.46 1698.89C2865.38 1702.3 2865.79 1705.89 2866.92 1709.26C2870.58 1720.58 2881.79 1731.04 2877.71 1742.24C2867.88 1769.05 2876.83 1795.24 2873.54 1823.6C2873.37 1826.72 2872.57 1829.76 2871.17 1832.55C2868.85 1835.75 2865.75 1838.31 2862.17 1839.97L2852.92 1845.17C2850.48 1846.88 2847.57 1847.79 2844.59 1847.79C2841.67 1847.46 2838.88 1844.46 2839.96 1841.76C2841.59 1837.59 2849.05 1837.01 2846.17 1832.55C2843.26 1831.3 2840.27 1830.26 2837.21 1829.43C2833.66 1827.3 2830.39 1824.74 2827.47 1821.81C2819.63 1814.82 2811.83 1807.79 2804.05 1800.74C2801.49 1798.79 2799.45 1796.25 2798.1 1793.33C2796.72 1789.46 2797.68 1784.71 2795.05 1781.59C2791.76 1777.63 2784.31 1778.01 2782.81 1773.26C2781.85 1770.14 2784.14 1766.51 2782.6 1763.64C2781.06 1760.77 2775.81 1760.93 2772.98 1758.48C2769.18 1755.19 2770.18 1747.19 2765.23 1746.28C2761.98 1745.65 2759.1 1749.15 2755.81 1748.86C2753.7 1748.39 2751.83 1747.16 2750.56 1745.4C2742.23 1736.49 2733.69 1725.04 2737.4 1713.55C2738.47 1711.09 2739.32 1708.54 2739.94 1705.93C2740.44 1701.76 2736.98 1695.39 2732.15 1695.77C2728.86 1696.06 2727.98 1701.14 2723.82 1701.22C2717.61 1701.22 2716.65 1695.02 2716.15 1690.15C2714.98 1678.28 2719.98 1666.7 2719.94 1655.13C2719.82 1646.7 2717.34 1638.47 2712.79 1631.37C2708.24 1624.27 2701.8 1618.58 2694.2 1614.94C2686.57 1611.45 2677.53 1609.61 2672.87 1602.45C2670.66 1599.04 2669.99 1594.87 2668.12 1591.29C2662.95 1581.34 2650.58 1578.01 2639.58 1575.72C2634.75 1574.68 2628.17 1574.55 2626.5 1579.22C2625.33 1582.46 2627.5 1586.5 2625.54 1589.38C2624.62 1590.48 2623.43 1591.33 2622.08 1591.83L2589.96 1606.91C2588.72 1607.69 2587.25 1608 2585.8 1607.78C2582.42 1606.78 2582.96 1601.66 2580.59 1599.08C2577.38 1595.62 2570.97 1598.54 2567.26 1595.58C2565.05 1593.83 2564.63 1590.54 2562.72 1588.46C2561.21 1587.11 2559.39 1586.15 2557.43 1585.67C2535.27 1578.51 2511.72 1576.71 2488.73 1580.42C2487.05 1580.6 2485.43 1581.14 2483.98 1582.01C2482.19 1583.51 2480.77 1585.41 2479.81 1587.54C2477.57 1591.21 2474.36 1594.17 2470.52 1596.11C2466.69 1598.04 2462.39 1598.87 2458.11 1598.5C2447.9 1597.5 2444.57 1584.46 2434.82 1589.83C2423.53 1596 2417.49 1604.33 2402.74 1601.49C2397.67 1600.74 2392.51 1601.98 2388.33 1604.95C2384.31 1607.86 2380.09 1610.49 2375.71 1612.82C2370.84 1615.01 2365.54 1616.02 2360.21 1615.78C2352.87 1615.68 2345.59 1614.37 2338.67 1611.9C2331.59 1609.41 2323.13 1605.82 2317.22 1610.49C2311.3 1615.15 2313.59 1625.85 2320.3 1629.35C2323.79 1630.79 2327.64 1631.17 2331.35 1630.43C2335.05 1629.68 2338.46 1627.86 2341.13 1625.19C2343.42 1623.06 2346.67 1620.36 2349.21 1622.19C2351.75 1624.02 2349.21 1629.77 2351.46 1632.97C2352.32 1633.99 2353.51 1634.68 2354.83 1634.92C2356.14 1635.17 2357.5 1634.95 2358.67 1634.31C2360.94 1632.94 2363.12 1631.41 2365.17 1629.73C2367.26 1628.19 2369.78 1627.34 2372.38 1627.31C2374.98 1627.27 2377.53 1628.04 2379.66 1629.52C2380.65 1630.32 2381.43 1631.34 2381.96 1632.5C2382.48 1633.66 2382.74 1634.92 2382.7 1636.19C2382.67 1637.46 2382.34 1638.7 2381.75 1639.83C2381.16 1640.95 2380.32 1641.93 2379.29 1642.68C2377.34 1643.43 2375.34 1644.02 2373.29 1644.42C2371.15 1645.15 2369.31 1646.54 2368.01 1648.38C2366.72 1650.23 2366.04 1652.44 2366.09 1654.7C2366.14 1656.95 2366.9 1659.13 2368.27 1660.92C2369.64 1662.71 2371.54 1664.02 2373.71 1664.66C2376.19 1665.12 2378.69 1665.46 2381.21 1665.66C2384.07 1666.19 2386.73 1667.53 2388.87 1669.51C2391 1671.5 2392.52 1674.06 2393.25 1676.88C2393.97 1679.71 2393.88 1682.68 2392.97 1685.45C2392.06 1688.22 2390.38 1690.67 2388.12 1692.52C2387.27 1693.3 2386.22 1693.84 2385.08 1694.06C2380.91 1694.6 2379 1689.19 2376.75 1685.73C2370.46 1675.28 2353.92 1676.45 2345.96 1667.24C2343.09 1663.95 2341.55 1659.5 2338.05 1656.92C2334.55 1654.34 2327.84 1655.79 2328.13 1660.12C2328.42 1664.45 2333.3 1665.16 2336.46 1667.12C2339.1 1668.9 2341.1 1671.47 2342.17 1674.47C2343.23 1677.47 2343.31 1680.73 2342.38 1683.77C2340.37 1689.85 2336.06 1694.9 2330.38 1697.85C2329.88 1698.24 2329.3 1698.52 2328.68 1698.67C2328.06 1698.82 2327.42 1698.84 2326.8 1698.72C2325.21 1698.27 2324.51 1696.52 2323.42 1695.35C2320.3 1691.81 2314.42 1693.27 2310.59 1696.02C2306.76 1698.76 2303.34 1702.55 2298.72 1703.39C2290.93 1704.84 2284.3 1696.89 2282.76 1689.1C2281.22 1681.32 2282.76 1673.24 2281.64 1665.41C2279.96 1658.14 2275.73 1651.72 2269.72 1647.3C2269.03 1646.76 2268.16 1646.51 2267.29 1646.6C2266.42 1646.7 2265.62 1647.13 2265.06 1647.8C2264.64 1648.65 2264.46 1649.6 2264.56 1650.55C2264.55 1651.96 2264.76 1653.36 2265.18 1654.71C2266.31 1658.04 2269.35 1660.08 2272.02 1662.5C2274.68 1664.91 2276.64 1668.7 2274.97 1671.78C2270.6 1680.11 2257.52 1664.99 2250.6 1665.33C2249.62 1665.5 2248.62 1665.5 2247.64 1665.33C2231.9 1660.29 2239.31 1669.49 2232.31 1677.4C2225.9 1684.57 2202.28 1680.15 2194.03 1678.44C2188.03 1677.15 2182.24 1675.11 2176.2 1674.28C2154.66 1671.07 2134.12 1683.11 2115.29 1694.1C2113 1695.48 2107.79 1698.27 2105.08 1696.27C2102.38 1694.27 2106.17 1689.94 2104 1687.48C2102.5 1685.77 2099.13 1687.23 2097.67 1685.48C2096.21 1683.73 2097.46 1682.32 2098.04 1680.78C2098.63 1679.24 2098.29 1676.9 2096.63 1676.61C2095.89 1676.68 2095.19 1677 2094.67 1677.53C2089.82 1680.69 2086.1 1685.31 2084.05 1690.73C2082.59 1696.43 2084.96 1702.89 2082.38 1708.22C2080.63 1711.84 2076.96 1714.09 2074.46 1717.29C2070.92 1721.83 2070.09 1727.95 2067.47 1733.12C2065.52 1736.62 2062.89 1739.7 2059.74 1742.18C2056.58 1744.65 2052.96 1746.47 2049.09 1747.53C2041.33 1749.6 2033.2 1749.91 2025.31 1748.44C2021.55 1747.5 2017.6 1747.59 2013.89 1748.69C2010.56 1750.23 2008.6 1755.02 2011.18 1757.64C2011.85 1758.31 2012.77 1758.81 2013.1 1759.73C2013.43 1760.64 2012.47 1762.35 2011.47 1763.31C2007.77 1766.89 2001.43 1770.47 1998.1 1766.51C1997.35 1765.6 1996.85 1764.35 1995.73 1763.93C1993.27 1762.97 1991.85 1767.05 1993.02 1769.47C1994.19 1771.88 1996.39 1774.13 1995.69 1776.71C1995.15 1778.09 1994.21 1779.27 1992.98 1780.09L1984.1 1787.46C1982.35 1788.92 1979.94 1790.41 1977.98 1789.21C1976.02 1788 1976.11 1785.04 1974.23 1784.25C1972.36 1783.46 1969.44 1785.83 1969.65 1788.42C1970.17 1790.85 1971.33 1793.09 1973.02 1794.91C1973.85 1795.84 1974.43 1796.97 1974.71 1798.19C1974.98 1799.4 1974.95 1800.67 1974.61 1801.87C1973.06 1805.28 1968.27 1804.91 1964.52 1805.15C1960.77 1805.4 1956.44 1809.61 1959.19 1812.19C1960.12 1812.82 1961.15 1813.3 1962.23 1813.61C1963.12 1814.17 1963.9 1814.91 1964.5 1815.77C1965.11 1816.63 1965.54 1817.6 1965.77 1818.63C1966 1819.66 1966.02 1820.73 1965.83 1821.77C1965.65 1822.81 1965.26 1823.8 1964.69 1824.68C1962.21 1828.19 1958.61 1830.75 1954.48 1831.93C1952.69 1832.6 1950.61 1833.51 1950.32 1835.39C1949.61 1838.76 1954.48 1839.88 1957.61 1841.46C1958.67 1842.09 1959.6 1842.92 1960.33 1843.91C1961.06 1844.91 1961.58 1846.04 1961.85 1847.24C1962.13 1848.45 1962.15 1849.69 1961.92 1850.91C1961.69 1852.12 1961.22 1853.27 1960.52 1854.29C1958.57 1856.95 1955.03 1858.45 1954.28 1861.83C1954.06 1863.63 1954.34 1865.45 1955.07 1867.11L1965.32 1897.68C1966.94 1902.63 1965.32 1914.92 1969.48 1918.17C1971.53 1919.45 1973.69 1920.53 1975.94 1921.41C1978.02 1922.62 1980.1 1924.99 1979.15 1927.28C1976.69 1934.74 1964.48 1929.62 1956.9 1927.28L1921.61 1917.17C1907.25 1913.52 1893.29 1908.42 1879.95 1901.97C1873.08 1898.3 1865.79 1892.47 1866.21 1884.73C1866.65 1882.39 1866.89 1880.03 1866.91 1877.65C1866.41 1873.49 1862.25 1870.45 1859 1867.49C1852.67 1861.7 1848.75 1853.75 1848 1845.21C1847.33 1836.88 1849.42 1827.35 1843.84 1820.98C1840.59 1817.15 1835.5 1815.61 1831.34 1812.65C1820.76 1805.36 1818.01 1791 1810.01 1780.92C1806.17 1776.05 1801.09 1772.22 1797.51 1767.18C1789.76 1756.44 1789.18 1741.36 1780.51 1731.45C1773.39 1723.46 1761.6 1719.92 1756.35 1710.63C1753.81 1706.18 1753.02 1700.68 1749.48 1696.93C1745.08 1693.29 1739.56 1691.29 1733.85 1691.27L1715.86 1689.1C1711.98 1688.23 1707.93 1688.66 1704.32 1690.31C1701.32 1692.19 1699.65 1695.77 1696.65 1697.72C1692.48 1700.56 1686.4 1699.64 1682.36 1702.72C1675.2 1708.22 1679.57 1721.42 1672.65 1727.2C1671.11 1724.04 1666.07 1725.83 1663.99 1728.66C1661.91 1731.49 1660.24 1735.41 1656.74 1735.95C1653.24 1736.49 1650.95 1733.83 1648.66 1731.79C1639.37 1722.84 1627.65 1716.84 1614.96 1714.55C1611.84 1714.34 1608.83 1713.35 1606.21 1711.67C1600.46 1707.05 1602.96 1697.06 1597.88 1691.6C1590.21 1683.27 1579.92 1684.36 1579.04 1670.03C1578.63 1663.58 1579.79 1656.88 1577.67 1650.75C1574.42 1641.55 1564.3 1635.56 1562.46 1625.77C1562.24 1623.21 1561.85 1620.66 1561.3 1618.15C1558.72 1610.57 1549.05 1608.99 1541.88 1605.45C1538.24 1603.61 1535.02 1601.04 1532.43 1597.89C1529.83 1594.74 1527.92 1591.09 1526.8 1587.17C1524.89 1580.26 1524.1 1571.01 1517.14 1569.35C1515.1 1568.89 1512.97 1569.35 1510.89 1568.64C1504.52 1566.68 1505.77 1559.06 1502.27 1554.86C1498.77 1550.65 1495.56 1551.19 1489.43 1550.57Z" fill="white" stroke="#436AE5" stroke-linecap="round" stroke-linejoin="round"/>
<path d="M1963.65 667.927C1963.88 655.519 1961.84 643.173 1957.65 631.492C1955.36 626.218 1953.63 620.72 1952.49 615.086C1952.1 609.433 1952.29 603.756 1953.03 598.138C1954.02 581.856 1950.41 565.623 1942.61 551.294C1939.57 545.755 1935.57 540.051 1935.03 533.597C1934.49 527.142 1937.65 522.146 1935.99 516.149C1934.9 512.277 1932.28 510.403 1932.2 506.073C1932.2 499.202 1935.9 494.164 1933.45 486.918C1932.06 483.409 1930.33 480.047 1928.28 476.883C1914.12 476.883 1899.91 476.425 1885.75 476.467L1724.36 477.216C1703.53 477.216 1682.95 477.424 1662.2 477.216C1659.42 541.591 1656.73 605.981 1654.12 670.384C1757.23 674.673 1860.58 673.798 1963.65 667.927Z" fill="white" stroke="#436AE5" stroke-linecap="round" stroke-linejoin="round"/>
<path d="M1977.94 811.168L1974.44 717.562C1974.66 713.013 1973.72 708.482 1971.69 704.403C1969.94 701.53 1967.15 699.365 1965.32 696.533C1961.15 690.329 1962.61 682.251 1963.28 674.881C1963.48 672.549 1963.57 670.259 1963.65 667.927C1860.58 673.798 1757.23 674.672 1654.12 670.425C1651.56 731.108 1649.01 791.75 1646.45 852.35L1874 856.514C1878.86 856.344 1883.72 856.92 1888.41 858.221C1897.08 861.136 1904.16 868.923 1913.41 869.006C1917.35 868.661 1921.24 867.922 1925.03 866.799C1942.95 863.218 1959.69 874.794 1977.23 880.79C1976.44 877.792 1975.69 874.752 1974.94 871.754C1974.01 868.602 1973.51 865.339 1973.44 862.052C1973.8 858.346 1974.56 854.689 1975.69 851.142C1978.37 837.996 1979.12 824.532 1977.94 811.168Z" fill="white" stroke="#436AE5" stroke-linecap="round" stroke-linejoin="round"/>
<path d="M2028.93 1024.61C2027.35 1022.29 2025.44 1020.2 2023.27 1018.41C2018.19 1014.25 2015.85 1006.96 2014.52 1000.34C2012.89 992.427 2013.27 984.224 2011.85 976.27C2010.4 969.792 2008.59 963.397 2006.44 957.116C2003.98 949.454 2001.56 941.793 1999.11 934.131C1997.01 927.025 1994.44 920.069 1991.4 913.311C1989.77 910.229 1987.77 907.356 1986.07 904.317C1982.07 896.91 1979.06 889.015 1977.11 880.832C1959.57 874.836 1942.82 863.26 1924.91 866.841C1921.12 867.964 1917.22 868.703 1913.29 869.048C1904.16 869.048 1897.08 861.178 1888.29 858.263C1883.6 856.961 1878.74 856.386 1873.88 856.556L1646.33 852.392C1644.58 894.614 1642.82 936.824 1641.04 979.019C1671.74 978.519 1701.74 980.309 1732.4 982.142C1732.07 1002.21 1731.61 1022.3 1731.02 1042.39C1737.05 1042.97 1743.1 1043.15 1749.15 1042.94L1910.95 1040.02C1953.74 1039.27 1996.4 1035.86 2039.22 1034.11C2035.29 1031.54 2031.81 1028.33 2028.93 1024.61Z" fill="white" stroke="#436AE5" stroke-linecap="round" stroke-linejoin="round"/>
<path d="M1183.28 483.337C1184.74 491.279 1187.35 498.966 1191.03 506.155C1199.82 525.601 1208.98 545.588 1224.36 560.287C1226.57 561.894 1228.19 564.195 1228.94 566.825C1228.92 569.724 1227.97 572.542 1226.23 574.861C1221.86 582.95 1220.65 592.37 1222.82 601.303C1223.81 603.873 1224.1 606.662 1223.65 609.381C1222.75 611.441 1221.48 613.318 1219.9 614.919C1215.48 620.54 1218.65 623.247 1217.53 629.535C1216.75 631.751 1216.45 634.107 1216.65 636.447C1218.02 641.985 1238.23 632.866 1243.1 643.65C1244.9 647.814 1243.85 652.52 1245.56 656.601C1247.69 661.681 1253.89 664.928 1253.89 670.467C1253.89 676.005 1248.6 680.127 1249.73 685.124C1250.77 689.288 1255.81 691.037 1258.98 694.035C1262.14 697.797 1264.14 702.398 1264.73 707.276C1265.32 712.165 1267.52 716.719 1270.97 720.226C1274.6 723.141 1279.72 720.226 1284.01 720.768C1286.68 721.142 1287.85 723.141 1290.76 723.308C1294.3 723.516 1297.51 720.893 1301.22 721.309C1308.18 722.058 1313.72 731.427 1320.09 728.679C1324.88 726.639 1325.13 719.602 1329.34 716.562C1336.01 711.815 1344.3 720.726 1349.34 724.307C1348.59 716.455 1348.59 708.549 1349.34 700.697C1349.47 699.508 1350.02 698.403 1350.88 697.574C1351.54 697.063 1352.3 696.711 1353.12 696.545C1353.94 696.379 1354.78 696.403 1355.59 696.616C1454.44 706.777 1553.35 716.978 1651.66 731.344C1655.25 646.704 1658.8 562.036 1662.33 477.341C1638.08 477.049 1613.84 476.3 1589.63 474.551C1533.43 470.387 1477.82 460.934 1422.32 451.107C1346.67 437.741 1271.14 423.958 1196.32 407.594C1192.9 423.556 1189.5 439.504 1186.11 455.438C1183.61 464.513 1182.65 473.944 1183.28 483.337Z" fill="white" stroke="#436AE5" stroke-linecap="round" stroke-linejoin="round"/>
<path d="M862.167 493.539C864.141 494.228 865.935 495.352 867.416 496.828C873.29 501.867 879.456 507.405 881.247 514.9C882.455 519.855 881.539 525.06 882.414 530.098C883.289 535.137 887.038 540.384 892.121 540.009C894.87 540.009 897.328 538.01 900.078 538.01C905.285 538.01 908.41 544.048 913.575 545.297C918.741 546.546 924.282 542.216 929.573 543.382C934.864 544.548 938.78 552.084 944.737 552.168C948.195 552.168 951.153 549.711 954.527 549.003C962.526 547.379 968.816 555.749 976.523 558.289C985.147 561.079 995.395 556.457 1003.23 560.954C1007.02 563.077 1009.89 567.2 1014.23 567.699C1017.78 567.463 1021.24 566.484 1024.39 564.826C1030.65 563.532 1037.16 564.111 1043.1 566.492L1080.26 577.401C1093.18 581.531 1106.39 584.677 1119.79 586.812C1127.37 523.228 1141.45 460.643 1156.24 398.308C1080.3 381.092 1005.43 359.486 931.989 333.6C925.948 343.177 942.571 354.42 939.321 365.163C938.113 369.077 934.447 371.95 933.655 375.989C932.031 384.317 943.446 391.146 941.571 399.391C940.363 404.679 934.364 407.261 931.448 411.883C927.282 418.545 932.031 425.874 929.489 432.286C927.282 437.949 919.408 442.488 914.409 445.778C912.946 446.829 911.289 447.579 909.534 447.984C903.619 448.901 899.244 441.905 899.703 435.951C899.692 434.603 900.148 433.294 900.994 432.245C902.827 430.204 906.035 430.829 908.743 430.746C914.2 430.746 922.532 425.749 921.532 419.378C920.741 414.464 912.951 413.507 913.2 408.218C913.2 403.68 919.741 402.555 922.366 398.891C923.29 397.295 923.683 395.447 923.488 393.614C923.293 391.78 922.521 390.056 921.282 388.689C918.759 386.015 915.69 383.914 912.284 382.527L861.876 357.834C859.36 356.308 856.485 355.475 853.544 355.419C845.212 356.168 843.254 367.911 843.795 376.239L846.795 422.376C846.79 424.422 847.246 426.443 848.128 428.289C849.503 430.746 852.294 432.453 852.627 435.243C852.835 438.782 848.461 440.906 847.378 444.195C844.753 451.191 856.21 459.352 851.294 465.015C849.586 467.014 846.461 467.305 844.712 469.179C842.17 472.094 843.878 476.674 846.295 479.672C849.142 482.284 851.193 485.648 852.21 489.375C851.968 489.246 851.718 489.135 851.461 489.041C853.034 490.809 855.046 492.13 857.293 492.872C858.751 493.539 860.501 493.247 862.167 493.539Z" fill="#74B1F9" stroke="#436AE5" stroke-linecap="round" stroke-linejoin="round"/>
<path d="M1095.34 716.104C1096.74 710.424 1096.37 704.448 1094.25 698.99C1093.17 696.783 1091.55 694.826 1090.46 692.619C1086.3 683.708 1092.42 673.465 1099.25 666.428C1106.09 659.391 1114.42 652.478 1115.92 642.735C1115.94 639.128 1116.39 635.535 1117.25 632.033C1119.29 626.703 1125.21 623.705 1128.33 619.083C1133.87 610.755 1129.29 599.263 1122.92 591.434C1121.67 589.894 1120.29 588.353 1118.75 586.812C1105.69 584.663 1092.79 581.574 1080.17 577.568L1043.01 566.659C1037.08 564.278 1030.57 563.699 1024.31 564.993C1021.16 566.651 1017.69 567.629 1014.14 567.866C1009.98 567.366 1006.94 563.244 1003.14 561.12C995.312 556.623 985.064 561.12 976.44 558.456C968.733 555.915 962.442 547.546 954.444 549.17C951.069 549.878 948.111 552.418 944.654 552.334C938.696 552.334 935.322 544.798 929.49 543.548C923.657 542.299 918.783 546.755 913.492 545.464C908.201 544.173 905.16 538.135 899.994 538.177C897.245 538.177 894.787 540.009 892.037 540.176C886.955 540.55 883.205 535.262 882.331 530.265C881.456 525.269 882.331 520.022 881.164 515.067C879.373 507.572 873.207 502.033 867.333 496.995C865.852 495.519 864.058 494.395 862.084 493.705C860.417 493.247 858.668 493.414 857.001 492.998C854.754 492.256 852.742 490.934 851.169 489.167C848.797 488.38 846.237 488.359 843.852 489.106C841.467 489.853 839.378 491.331 837.879 493.331C834.833 497.65 832.81 502.605 831.964 507.821C822.169 546.832 807.398 584.421 788.013 619.666C780.889 632.616 773.14 645.275 767.183 658.849C764.058 666.178 765.891 670.717 762.725 678.004C758.454 688.133 756.49 699.085 756.976 710.066C757.497 714.674 757.497 719.325 756.976 723.933C756.061 727.482 754.891 730.961 753.477 734.343C857.208 772.795 962.893 805.764 1070.09 833.112C1071.51 793.013 1089.05 755.537 1095.34 716.104Z" fill="white" stroke="#436AE5" stroke-linecap="round" stroke-linejoin="round"/>
<path d="M1095.46 1417.95C1095.58 1414.06 1094.76 1410.21 1093.09 1406.7C1091.08 1400.99 1089.84 1395.04 1089.38 1389.01C1089.09 1387.28 1089.35 1385.5 1090.13 1383.93C1091.35 1382.51 1092.83 1381.35 1094.5 1380.51C1101.33 1375.68 1101.21 1365.23 1106.62 1358.86C1110.17 1354.69 1115.67 1352.78 1120.16 1349.66C1124.66 1346.53 1128.5 1340.91 1126.37 1335.87C1124.83 1332.21 1120.79 1330.46 1117.83 1327.84C1109.87 1320.76 1110.75 1310.51 1111.87 1299.94C1080.25 1257.47 1051.04 1213.27 1024.39 1167.52C1004.22 1133.79 981.479 1101.73 958.982 1069.54C939.944 1042.35 921.072 1015.41 902.575 987.888C901.555 986.588 900.83 985.082 900.45 983.474C900.243 982.22 900.243 980.939 900.45 979.685C905.699 946.373 911.49 914.31 919.197 881.623C925.863 853.224 932.417 824.812 938.861 796.386C876.399 777.565 814.575 756.828 753.391 734.176C752.369 736.829 751.901 739.663 752.016 742.504C752.433 747.542 755.682 752.081 755.682 757.119C755.682 764.698 748.558 770.278 745.975 777.398C743.184 785.31 745.975 794.679 742.393 802.382C738.81 810.085 729.145 813.167 725.021 820.537C720.896 827.907 723.146 837.193 726.895 844.647C730.645 852.1 735.81 859.179 737.643 867.382C738.748 873.453 738.748 879.674 737.643 885.745C734.352 909.522 727.437 935.713 740.185 956.075C744.351 962.612 753.932 968.942 750.683 975.979C747.913 982.349 747.285 989.445 748.893 996.202C750.5 1002.96 754.256 1009.01 759.598 1013.45C764.139 1010.83 772.888 999.797 772.554 1012.33L772.179 1028.7C772.227 1029.33 772.033 1029.95 771.638 1030.44C771.152 1030.78 770.555 1030.91 769.972 1030.82C763.389 1030.82 761.64 1031.36 761.098 1038.31C760.506 1045.13 761.366 1051.99 763.621 1058.45C765.876 1064.91 769.474 1070.82 774.179 1075.79C779.512 1081.37 786.677 1087.57 784.927 1095.07C783.288 1098.58 781.277 1101.9 778.928 1104.98C775.304 1111.73 777.512 1120.14 781.095 1126.97C784.677 1133.79 789.427 1140 791.385 1147.45C792.027 1152.81 793.128 1158.1 794.676 1163.28C796.396 1166.53 798.524 1169.55 801.008 1172.27C808.309 1181.35 813.579 1191.88 816.464 1203.17C817.721 1207.6 818.242 1212.22 818.005 1216.82C817.339 1225.15 812.923 1233.48 814.298 1241.81C816.422 1254.72 830.962 1261.38 843.751 1263.88C849.679 1264.51 855.434 1266.26 860.707 1269.04C864.909 1272.1 868.416 1276.02 870.997 1280.53C877.996 1291.19 885.119 1303.1 897.117 1307.56C902.95 1309.76 910.615 1310.81 912.573 1316.76C913.698 1320.09 912.573 1324.01 913.865 1327.21C915.906 1331.88 922.197 1332.58 926.863 1334.21C940.235 1338.79 946.609 1353.65 951.442 1366.98C954.775 1376.01 958.107 1385.67 956.191 1395.13C955.233 1399.62 954.233 1406.16 958.691 1407.24L962.857 1402.5C963.573 1409.04 964.813 1415.51 966.564 1421.86C1003.36 1424.8 1040.15 1429.05 1076.92 1434.6C1076.34 1434.6 1076.17 1434.89 1076.34 1435.56C1077.6 1434.39 1079 1433.38 1080.5 1432.56C1086.54 1428.85 1094.42 1425.15 1095.46 1417.95Z" fill="white" stroke="#436AE5" stroke-linecap="round" stroke-linejoin="round"/>
<path d="M1347.58 761.034C1349.32 748.534 1349.63 735.877 1348.5 723.308C1343.42 719.394 1336 712.107 1329.75 716.479C1325.59 719.519 1325.29 726.556 1320.5 728.596C1314.05 731.344 1308.59 721.975 1301.63 721.226C1297.92 720.81 1294.72 723.433 1291.17 723.225C1288.26 723.225 1287.01 721.059 1284.43 720.685C1280.26 720.102 1275.01 723.058 1271.39 720.143C1267.93 716.636 1265.73 712.082 1265.14 707.193C1264.55 702.315 1262.55 697.715 1259.39 693.952C1256.22 690.954 1251.06 689.288 1250.14 685.041C1248.89 680.044 1254.31 675.547 1254.31 670.384C1254.31 665.22 1247.97 661.598 1245.97 656.517C1244.27 652.353 1245.31 647.565 1243.52 643.567C1238.64 632.783 1218.52 641.902 1217.06 636.364C1216.86 634.024 1217.16 631.668 1217.94 629.452C1219.06 623.247 1215.9 620.457 1220.31 614.836C1221.89 613.235 1223.16 611.358 1224.06 609.298C1224.51 606.579 1224.22 603.79 1223.23 601.22C1221.06 592.287 1222.27 582.867 1226.64 574.778C1228.38 572.459 1229.33 569.641 1229.35 566.742C1228.6 564.112 1226.98 561.811 1224.77 560.204C1209.23 545.589 1200.06 525.602 1191.44 506.072C1187.76 498.883 1185.15 491.196 1183.69 483.254C1183.01 473.841 1183.93 464.38 1186.4 455.272C1189.82 439.338 1193.22 423.389 1196.61 407.427C1183.28 404.513 1169.96 401.501 1156.66 398.392C1141.87 460.851 1127.78 523.311 1120.2 586.896H1119.24C1120.62 588.436 1121.99 589.977 1123.41 591.518C1129.78 599.346 1134.37 610.755 1128.83 619.166C1125.7 623.955 1119.79 626.787 1117.74 632.116C1116.88 635.619 1116.43 639.211 1116.41 642.818C1115 652.562 1106.66 659.474 1099.75 666.511C1092.83 673.548 1086.79 683.792 1090.96 692.703C1092.04 694.91 1093.67 696.867 1094.75 699.073C1096.86 704.531 1097.24 710.507 1095.83 716.188C1089.67 754.621 1072.92 791.139 1070.84 829.989C1074.97 831.506 1079.22 832.703 1083.54 833.57L1330.04 886.328V886.703C1334.21 870.047 1336.08 852.642 1338.67 835.403C1342.54 810.71 1344.96 785.893 1347.58 761.034Z" fill="white" stroke="#436AE5" stroke-linecap="round" stroke-linejoin="round"/>
<path d="M1355.46 696.45C1354.66 696.28 1353.83 696.292 1353.04 696.487C1352.24 696.682 1351.51 697.053 1350.88 697.574C1350.18 698.495 1349.81 699.625 1349.83 700.781C1349.08 708.633 1349.08 716.538 1349.83 724.39C1349.4 724.113 1348.98 723.806 1348.58 723.474C1349.72 736.044 1349.41 748.701 1347.67 761.2C1345.04 786.184 1342.42 810.877 1338.71 835.569C1336.13 852.808 1334.3 870.047 1330.09 886.869C1328.25 906.746 1326.41 926.636 1324.55 946.539C1422.53 962.314 1521.25 973.057 1620.33 978.727C1627.27 979.35 1634.27 979.155 1641.16 978.144C1644.61 895.864 1648.05 813.597 1651.49 731.344C1553.22 716.812 1454.32 706.61 1355.46 696.45Z" fill="white" stroke="#436AE5" stroke-linecap="round" stroke-linejoin="round"/>
<path d="M1108.62 1239.56C1107.83 1234.02 1107.04 1227.4 1111.29 1223.74C1119.12 1217.03 1131.12 1229.44 1140.91 1226.19C1147.87 1223.94 1149.95 1215.32 1150.95 1208.12C1158.7 1151.53 1162.87 1094.19 1172.7 1038.11L1190.19 938.17C1194.9 911.395 1200.4 885.537 1201.23 858.804L1083.05 833.529C1078.72 832.661 1074.48 831.464 1070.34 829.948C1070.34 830.947 1070.34 831.946 1070.34 832.946C1026.29 821.842 982.52 809.655 939.027 796.386C932.556 824.84 926.001 853.252 919.363 881.623C911.656 914.31 905.866 946.456 900.617 979.685C900.409 980.939 900.409 982.219 900.617 983.474C900.997 985.082 901.722 986.588 902.741 987.888C921.238 1015.45 940.235 1042.35 959.149 1069.54C981.645 1101.73 1004.39 1133.79 1024.55 1167.52C1049.66 1210.39 1076.95 1251.93 1106.33 1291.98C1110.47 1274.82 1111.25 1257.02 1108.62 1239.56Z" fill="white" stroke="#436AE5" stroke-linecap="round" stroke-linejoin="round"/>
<path d="M1641.16 978.978V977.978C1634.27 978.989 1627.27 979.185 1620.33 978.561C1551.87 974.647 1483.62 968.29 1415.57 959.49C1406.83 1042.1 1398.49 1124.73 1390.58 1207.37C1478.06 1218.99 1565.84 1227.57 1653.99 1230.77C1662.3 1230.73 1670.57 1231.83 1678.57 1234.06C1678.86 1233.31 1679.16 1232.86 1679.45 1232.86C1693.86 1233.81 1708.61 1233.11 1723.02 1232.86C1727.19 1149.28 1730.94 1065.71 1732.23 982.059C1701.86 980.269 1671.87 978.478 1641.16 978.978Z" fill="white" stroke="#436AE5" stroke-linecap="round" stroke-linejoin="round"/>
<path d="M1415.66 959.49C1385.1 955.575 1354.71 951.203 1324.46 946.373C1326.35 926.33 1328.21 906.315 1330.04 886.328L1201.23 858.763C1200.4 885.496 1194.9 911.354 1190.19 938.128L1172.7 1038.06C1165.03 1081.7 1160.82 1126.09 1155.66 1170.27C1233.81 1184.01 1312.21 1196.92 1390.87 1207.33C1398.67 1124.69 1406.93 1042.08 1415.66 959.49Z" fill="white" stroke="#436AE5" stroke-linecap="round" stroke-linejoin="round"/>
</g>
<g filter="url(#filter0_d_5_67199)">
<ellipse cx="901.032" cy="467.977" rx="20.5472" ry="20.5453" fill="white"/>
<path d="M918.579 467.977C918.579 477.667 910.723 485.522 901.032 485.522C891.34 485.522 883.484 477.667 883.484 467.977C883.484 458.287 891.34 450.432 901.032 450.432C910.723 450.432 918.579 458.287 918.579 467.977Z" stroke="#FF7D01" stroke-width="6"/>
</g>
<g filter="url(#filter1_d_5_67199)">
<ellipse cx="1113.35" cy="447.431" rx="20.5472" ry="20.5453" fill="white"/>
<path d="M1130.9 447.431C1130.9 457.121 1123.04 464.976 1113.35 464.976C1103.66 464.976 1095.8 457.121 1095.8 447.431C1095.8 437.741 1103.66 429.886 1113.35 429.886C1123.04 429.886 1130.9 437.741 1130.9 447.431Z" stroke="#FF7D01" stroke-width="6"/>
</g>
</g>
<g filter="url(#filter2_d_5_67199)">
<rect x="1156" y="471.842" width="284" height="104" rx="25" fill="white"/>
</g>
<path d="M1200.28 516.842L1197.94 506.285H1197.78L1195.44 516.842H1190.8L1187.5 502.838H1190.78L1193.04 513.424H1193.22L1195.58 502.838H1197.86H1200.14L1202.5 513.424H1202.68L1204.94 502.838H1208.22L1204.92 516.842H1200.28ZM1208.72 514.02C1208.72 512.991 1209.14 512.219 1209.99 511.705C1210.83 511.197 1211.91 510.943 1213.2 510.943C1213.87 510.943 1214.47 511.012 1215.01 511.148C1215.54 511.298 1215.91 511.435 1216.12 511.559L1216.44 511.783V510.318C1216.44 509.889 1216.28 509.527 1215.96 509.234C1215.63 508.948 1215.09 508.805 1214.32 508.805C1213.78 508.805 1213.29 508.906 1212.86 509.107C1212.41 509.316 1212.19 509.635 1212.19 510.064H1209.23C1209.23 508.925 1209.7 508.069 1210.61 507.496C1211.52 506.93 1212.76 506.646 1214.32 506.646C1215.91 506.646 1217.13 506.952 1218.01 507.564C1218.88 508.176 1219.32 509.094 1219.32 510.318V513.443C1219.32 513.847 1219.37 514.127 1219.47 514.283C1219.57 514.439 1219.74 514.518 1219.98 514.518L1220.4 514.439V516.842C1220.15 516.972 1219.74 517.037 1219.16 517.037C1218.41 517.037 1217.84 516.874 1217.46 516.549C1217.11 516.269 1216.9 516.012 1216.8 515.777L1216.75 515.641H1216.6C1216.6 515.667 1216.57 515.725 1216.5 515.816C1216.44 515.901 1216.31 516.018 1216.12 516.168C1215.94 516.318 1215.72 516.451 1215.47 516.568C1214.8 516.881 1213.93 517.037 1212.86 517.037C1211.67 517.037 1210.69 516.78 1209.9 516.266C1209.11 515.758 1208.72 515.009 1208.72 514.02ZM1214.04 514.859C1214.56 514.859 1215.02 514.794 1215.43 514.664C1215.82 514.54 1216.09 514.413 1216.24 514.283L1216.44 514.098V513.502C1216.39 513.45 1216.32 513.395 1216.24 513.336C1216.13 513.264 1215.87 513.176 1215.47 513.072C1215.04 512.962 1214.56 512.906 1214.04 512.906C1212.47 512.906 1211.68 513.232 1211.68 513.883C1211.68 514.534 1212.47 514.859 1214.04 514.859ZM1231.79 509.938H1228.83C1228.83 509.768 1228.81 509.635 1228.78 509.537C1228.74 509.439 1228.67 509.322 1228.56 509.186C1228.33 508.919 1227.76 508.785 1226.82 508.785C1225.59 508.785 1224.97 509.091 1224.97 509.703C1224.97 509.996 1225.22 510.208 1225.72 510.338C1226.2 510.468 1226.81 510.569 1227.54 510.641C1228.31 510.712 1229.02 510.816 1229.68 510.953C1230.38 511.096 1230.98 511.412 1231.49 511.9C1231.99 512.382 1232.24 513.03 1232.24 513.844C1232.24 515.986 1230.5 517.05 1227 517.037C1223.54 517.037 1221.8 515.904 1221.8 513.639V513.326H1224.76V513.639C1224.76 514.088 1224.94 514.41 1225.29 514.605C1225.64 514.801 1226.21 514.898 1227 514.898C1228.51 514.898 1229.27 514.56 1229.29 513.883C1229.29 513.59 1229.11 513.362 1228.75 513.199C1228.4 513.049 1227.94 512.949 1227.39 512.896C1226.82 512.857 1226.24 512.786 1225.64 512.682C1225.01 512.571 1224.43 512.434 1223.89 512.271C1223.37 512.109 1222.92 511.803 1222.55 511.354C1222.18 510.911 1222 510.354 1222 509.684C1222 508.694 1222.44 507.939 1223.31 507.418C1224.17 506.904 1225.37 506.646 1226.88 506.646C1230.15 506.64 1231.79 507.737 1231.79 509.938ZM1245.27 516.842H1242.39V511.803C1242.39 510.963 1242.17 510.322 1241.72 509.879C1241.27 509.43 1240.65 509.205 1239.85 509.205C1239.04 509.205 1238.41 509.443 1237.98 509.918C1237.53 510.4 1237.31 511.028 1237.31 511.803V516.842H1234.43V502.838H1237.31V508.502H1237.48C1237.55 508.346 1237.7 508.131 1237.94 507.857C1238.14 507.636 1238.35 507.447 1238.58 507.291C1238.85 507.109 1239.21 506.956 1239.66 506.832C1240.11 506.708 1240.58 506.646 1241.07 506.646C1242.33 506.646 1243.34 507.008 1244.12 507.73C1244.89 508.46 1245.27 509.55 1245.27 511.002V516.842ZM1247.97 506.842H1250.85V516.842H1247.97V506.842ZM1248.24 504.918C1247.95 504.684 1247.81 504.365 1247.81 503.961C1247.81 503.57 1247.95 503.251 1248.24 503.004C1248.52 502.763 1248.91 502.643 1249.41 502.643C1249.91 502.643 1250.3 502.763 1250.58 503.004C1250.87 503.251 1251.01 503.57 1251.01 503.961C1251.01 504.365 1250.87 504.684 1250.58 504.918C1250.3 505.159 1249.91 505.279 1249.41 505.279C1248.91 505.279 1248.52 505.159 1248.24 504.918ZM1264.49 516.842H1261.61V511.803C1261.61 510.963 1261.38 510.322 1260.94 509.879C1260.49 509.43 1259.87 509.205 1259.07 509.205C1258.26 509.205 1257.63 509.443 1257.2 509.918C1256.75 510.4 1256.53 511.028 1256.53 511.803V516.842H1253.65V506.842H1256.53V508.502H1256.7C1256.77 508.346 1256.92 508.131 1257.16 507.857C1257.36 507.636 1257.57 507.447 1257.8 507.291C1258.07 507.109 1258.43 506.956 1258.88 506.832C1259.32 506.708 1259.8 506.646 1260.29 506.646C1261.55 506.646 1262.56 507.008 1263.34 507.73C1264.11 508.46 1264.49 509.55 1264.49 511.002V516.842ZM1267.19 509.986C1267.19 508.945 1267.62 508.128 1268.48 507.535C1269.34 506.943 1270.49 506.646 1271.95 506.646H1278.15V508.639H1276.31C1276.59 508.893 1276.73 509.374 1276.73 510.084C1276.73 511.126 1276.3 511.926 1275.44 512.486C1274.57 513.046 1273.41 513.326 1271.95 513.326C1270.51 513.326 1269.79 513.564 1269.79 514.039C1269.79 514.521 1270.51 514.762 1271.95 514.762C1273.85 514.762 1275.26 515.025 1276.21 515.553C1277.16 516.08 1277.63 516.871 1277.62 517.926C1277.62 520.003 1275.73 521.041 1271.95 521.041C1268.18 521.041 1266.29 520.003 1266.29 517.926C1266.29 517.568 1266.35 517.229 1266.48 516.91C1266.61 516.591 1266.78 516.334 1266.98 516.139C1267.35 515.787 1267.7 515.543 1268.04 515.406L1268.25 515.318V515.24C1268.05 515.156 1267.87 514.98 1267.7 514.713C1267.56 514.511 1267.49 514.286 1267.49 514.039C1267.49 513.733 1267.59 513.463 1267.78 513.229C1267.96 512.994 1268.16 512.838 1268.37 512.76L1268.67 512.623V512.564C1268.57 512.525 1268.4 512.405 1268.16 512.203C1267.98 512.053 1267.83 511.897 1267.71 511.734C1267.57 511.552 1267.45 511.301 1267.34 510.982C1267.24 510.657 1267.19 510.325 1267.19 509.986ZM1274.65 517.926C1274.65 517.216 1273.75 516.861 1271.95 516.861C1270.15 516.861 1269.25 517.216 1269.25 517.926C1269.25 518.629 1270.15 518.98 1271.95 518.98C1273.75 518.98 1274.65 518.629 1274.65 517.926ZM1273.75 509.996C1273.75 509.091 1273.15 508.639 1271.95 508.639C1270.75 508.639 1270.14 509.091 1270.14 509.996C1270.14 510.908 1270.75 511.363 1271.95 511.363C1273.15 511.363 1273.75 510.908 1273.75 509.996ZM1280.31 513.062V509.166H1278.85V507.506L1281.63 504.84H1283.19V506.842H1286.31V509.166H1283.19V512.682C1283.19 513.43 1283.36 513.945 1283.7 514.225C1284.04 514.505 1284.52 514.645 1285.14 514.645C1285.39 514.645 1285.64 514.615 1285.88 514.557C1286.12 514.498 1286.31 514.433 1286.42 514.361L1286.61 514.283V516.686C1286.11 516.926 1285.49 517.044 1284.72 517.037C1283.25 517.037 1282.14 516.715 1281.4 516.07C1280.68 515.426 1280.31 514.423 1280.31 513.062ZM1293.5 517.037C1291.81 517.037 1290.44 516.578 1289.38 515.66C1288.33 514.742 1287.8 513.469 1287.8 511.842C1287.8 510.214 1288.33 508.941 1289.38 508.023C1290.44 507.105 1291.81 506.646 1293.5 506.646C1295.2 506.646 1296.57 507.105 1297.62 508.023C1298.68 508.941 1299.21 510.214 1299.21 511.842C1299.21 513.469 1298.68 514.742 1297.62 515.66C1296.57 516.578 1295.2 517.037 1293.5 517.037ZM1293.5 514.566C1294.36 514.566 1295.03 514.312 1295.52 513.805C1296 513.297 1296.25 512.643 1296.25 511.842C1296.25 511.041 1296 510.387 1295.52 509.879C1295.03 509.371 1294.36 509.117 1293.5 509.117C1292.64 509.117 1291.98 509.371 1291.5 509.879C1291.01 510.387 1290.77 511.041 1290.77 511.842C1290.77 512.643 1291.01 513.297 1291.5 513.805C1291.98 514.312 1292.64 514.566 1293.5 514.566ZM1312.44 516.842H1309.56V511.803C1309.56 510.963 1309.33 510.322 1308.88 509.879C1308.44 509.43 1307.82 509.205 1307.02 509.205C1306.21 509.205 1305.58 509.443 1305.14 509.918C1304.7 510.4 1304.48 511.028 1304.48 511.803V516.842H1301.6V506.842H1304.48V508.502H1304.65C1304.72 508.346 1304.87 508.131 1305.11 507.857C1305.31 507.636 1305.52 507.447 1305.75 507.291C1306.02 507.109 1306.38 506.956 1306.82 506.832C1307.27 506.708 1307.75 506.646 1308.24 506.646C1309.5 506.646 1310.51 507.008 1311.29 507.73C1312.06 508.46 1312.44 509.55 1312.44 511.002V516.842Z" fill="#272727"/>
<path d="M1198.16 543.842H1187.99V542.506C1187.99 541.938 1188.14 541.413 1188.44 540.933C1188.75 540.446 1189.15 540.036 1189.66 539.702C1190.38 539.233 1191.53 538.659 1193.11 537.979C1193.59 537.774 1194.02 537.575 1194.37 537.382C1194.73 537.188 1195.07 536.966 1195.4 536.714C1195.73 536.456 1195.98 536.175 1196.15 535.87C1196.33 535.56 1196.41 535.229 1196.41 534.877C1196.41 534.127 1196.14 533.562 1195.6 533.181C1195.05 532.8 1194.26 532.609 1193.23 532.609C1191.11 532.609 1190.05 533.456 1190.04 535.149V535.51H1188.35V535.149C1188.35 533.866 1188.79 532.864 1189.67 532.144C1190.54 531.423 1191.73 531.062 1193.23 531.062C1194.71 531.062 1195.9 531.402 1196.79 532.082C1197.67 532.768 1198.11 533.699 1198.11 534.877C1198.11 535.48 1197.96 536.046 1197.66 536.573C1197.36 537.101 1196.96 537.543 1196.45 537.9C1195.64 538.48 1194.51 539.075 1193.06 539.685C1192.55 539.896 1192.13 540.083 1191.79 540.247C1191.46 540.411 1191.12 540.604 1190.78 540.827C1190.44 541.05 1190.18 541.287 1190.01 541.539C1189.85 541.785 1189.77 542.049 1189.77 542.33H1198.16V543.842ZM1215.27 543.842H1213.21L1210.94 536.679H1210.86L1208.59 543.842H1206.53L1203.92 535.018H1205.48L1207.56 542.146H1207.63L1209.9 535.018H1211.91L1214.18 542.146H1214.25L1216.32 535.018H1217.88L1215.27 543.842ZM1219.25 541.372C1219.25 540.47 1219.63 539.802 1220.4 539.368C1221.16 538.94 1222.14 538.727 1223.33 538.727C1223.94 538.727 1224.51 538.8 1225.02 538.946C1225.56 539.099 1225.94 539.242 1226.16 539.377L1226.5 539.597V538.208C1226.5 537.61 1226.28 537.142 1225.84 536.802C1225.4 536.456 1224.74 536.283 1223.85 536.283C1222.09 536.283 1221.21 536.764 1221.21 537.725H1219.66C1219.67 536.752 1220.06 536.028 1220.85 535.554C1221.63 535.079 1222.63 534.842 1223.85 534.842C1225.08 534.842 1226.09 535.129 1226.87 535.703C1227.65 536.283 1228.04 537.118 1228.04 538.208V541.416C1228.04 541.861 1228.1 542.172 1228.22 542.348C1228.34 542.518 1228.53 542.603 1228.8 542.603C1229.04 542.603 1229.19 542.57 1229.27 542.506L1229.3 542.488V543.877C1229.12 543.971 1228.86 544.018 1228.51 544.018C1227.92 544.018 1227.49 543.892 1227.21 543.64C1226.99 543.452 1226.82 543.256 1226.72 543.051L1226.67 542.945H1226.6C1226.46 543.092 1226.31 543.215 1226.16 543.314C1225.97 543.438 1225.77 543.546 1225.56 543.64C1224.98 543.892 1224.28 544.018 1223.46 544.018C1222.21 544.018 1221.2 543.804 1220.42 543.376C1219.64 542.954 1219.25 542.286 1219.25 541.372ZM1223.69 540.168C1221.78 540.168 1220.83 540.569 1220.83 541.372C1220.83 542.181 1221.78 542.585 1223.69 542.585C1224.25 542.585 1224.76 542.523 1225.22 542.4C1225.68 542.289 1225.99 542.184 1226.16 542.084C1226.32 542.002 1226.43 541.929 1226.5 541.864V540.854C1226.43 540.789 1226.32 540.716 1226.16 540.634C1225.96 540.54 1225.65 540.44 1225.23 540.335C1224.78 540.224 1224.27 540.168 1223.69 540.168ZM1235.89 534.842C1236.25 534.842 1236.56 534.877 1236.83 534.947L1236.95 534.965V536.661C1236.61 536.544 1236.17 536.482 1235.62 536.477C1234.67 536.477 1233.92 536.778 1233.38 537.382C1232.83 537.985 1232.56 538.741 1232.56 539.649V543.842H1231.02V535.018H1232.56V536.731H1232.65C1232.74 536.544 1232.88 536.324 1233.08 536.072C1233.26 535.85 1233.46 535.656 1233.69 535.492C1233.94 535.316 1234.26 535.164 1234.65 535.035C1235.05 534.906 1235.47 534.842 1235.89 534.842ZM1247.79 539.43L1247.73 540.168H1239.76C1239.76 540.672 1240.06 541.199 1240.66 541.75C1241.25 542.307 1242.04 542.585 1243.04 542.585C1243.77 542.585 1244.37 542.447 1244.84 542.172C1245.23 541.938 1245.5 541.727 1245.65 541.539L1245.72 541.416H1247.54C1247.5 541.504 1247.47 541.595 1247.42 541.688C1247.35 541.823 1247.21 542.031 1246.99 542.312C1246.77 542.611 1246.5 542.878 1246.19 543.112C1245.9 543.341 1245.47 543.549 1244.9 543.736C1244.36 543.924 1243.74 544.018 1243.04 544.018C1241.58 544.018 1240.4 543.602 1239.49 542.77C1238.57 541.938 1238.11 540.824 1238.11 539.43C1238.11 538.047 1238.57 536.937 1239.48 536.099C1240.39 535.261 1241.54 534.842 1242.95 534.842C1244.35 534.842 1245.5 535.261 1246.42 536.099C1247.33 536.937 1247.79 538.047 1247.79 539.43ZM1245.29 537.118C1244.7 536.562 1243.92 536.283 1242.95 536.283C1241.97 536.283 1241.19 536.562 1240.61 537.118C1240.03 537.675 1239.74 538.223 1239.74 538.762H1246.15C1246.15 538.223 1245.86 537.675 1245.29 537.118ZM1258.99 543.842H1257.44V539.289C1257.44 538.258 1257.18 537.499 1256.66 537.013C1256.14 536.526 1255.44 536.283 1254.56 536.283C1253.64 536.283 1252.93 536.559 1252.43 537.109C1251.94 537.66 1251.69 538.387 1251.69 539.289V543.842H1250.14V531.238H1251.69V536.371H1251.78C1251.9 536.172 1252.04 535.993 1252.21 535.835C1252.4 535.659 1252.6 535.504 1252.81 535.369C1253.05 535.223 1253.37 535.1 1253.77 535C1254.17 534.895 1254.58 534.842 1255.02 534.842C1256.16 534.842 1257.1 535.182 1257.87 535.861C1258.62 536.547 1258.99 537.569 1258.99 538.929V543.842ZM1262.61 542.761C1261.7 541.923 1261.24 540.812 1261.24 539.43C1261.24 538.053 1261.7 536.942 1262.61 536.099C1263.52 535.261 1264.68 534.842 1266.08 534.842C1267.48 534.842 1268.64 535.261 1269.56 536.099C1270.46 536.942 1270.92 538.053 1270.92 539.43C1270.92 540.812 1270.46 541.923 1269.56 542.761C1268.64 543.599 1267.48 544.018 1266.08 544.018C1264.68 544.018 1263.52 543.599 1262.61 542.761ZM1268.45 541.697C1269.04 541.105 1269.34 540.35 1269.34 539.43C1269.34 538.51 1269.04 537.754 1268.45 537.162C1267.86 536.576 1267.07 536.283 1266.08 536.283C1265.09 536.283 1264.31 536.576 1263.72 537.162C1263.12 537.748 1262.82 538.504 1262.82 539.43C1262.82 540.355 1263.12 541.111 1263.72 541.697C1264.31 542.289 1265.1 542.585 1266.08 542.585C1267.06 542.585 1267.84 542.289 1268.45 541.697ZM1273.27 535.018H1274.82V539.579C1274.82 540.61 1275.08 541.369 1275.6 541.855C1276.12 542.342 1276.82 542.585 1277.69 542.585C1278.61 542.585 1279.33 542.307 1279.83 541.75C1280.33 541.199 1280.58 540.476 1280.58 539.579V535.018H1282.12V543.842H1280.58V542.488H1280.49C1280.37 542.676 1280.23 542.854 1280.06 543.024C1279.87 543.206 1279.66 543.361 1279.45 543.49C1279.21 543.643 1278.89 543.769 1278.49 543.868C1278.1 543.968 1277.68 544.018 1277.25 544.018C1276.1 544.018 1275.15 543.675 1274.41 542.989C1273.65 542.315 1273.27 541.299 1273.27 539.939V535.018ZM1291.48 541.231C1291.48 540.886 1291.31 540.619 1290.97 540.432C1290.63 540.238 1290.21 540.13 1289.72 540.106C1289.21 540.077 1288.66 540.024 1288.07 539.948C1287.44 539.872 1286.89 539.781 1286.42 539.676C1285.92 539.57 1285.5 539.333 1285.17 538.964C1284.83 538.601 1284.66 538.114 1284.66 537.505C1284.66 536.62 1285.03 535.952 1285.79 535.501C1286.54 535.062 1287.52 534.842 1288.72 534.842C1289.94 534.842 1290.93 535.088 1291.68 535.58C1292.42 536.072 1292.79 536.846 1292.79 537.9H1291.21C1291.21 537.35 1291.01 536.942 1290.61 536.679C1290.22 536.415 1289.59 536.283 1288.72 536.283C1287.07 536.283 1286.24 536.69 1286.24 537.505C1286.24 537.839 1286.41 538.094 1286.75 538.27C1287.09 538.451 1287.51 538.554 1288 538.577C1288.47 538.601 1289.02 538.65 1289.66 538.727C1290.26 538.809 1290.81 538.905 1291.3 539.017C1291.8 539.14 1292.22 539.386 1292.57 539.755C1292.9 540.136 1293.07 540.628 1293.07 541.231C1293.07 541.888 1292.86 542.433 1292.44 542.866C1292.03 543.294 1291.52 543.593 1290.9 543.763C1290.29 543.933 1289.58 544.018 1288.76 544.018C1287.04 544.018 1285.82 543.596 1285.09 542.752C1284.67 542.271 1284.46 541.674 1284.46 540.959V540.678H1286.04V540.959C1286.04 542.037 1286.95 542.576 1288.76 542.576C1290.57 542.588 1291.48 542.14 1291.48 541.231ZM1304.72 539.43L1304.67 540.168H1296.7C1296.7 540.672 1297 541.199 1297.59 541.75C1298.18 542.307 1298.98 542.585 1299.97 542.585C1300.71 542.585 1301.31 542.447 1301.78 542.172C1302.16 541.938 1302.43 541.727 1302.58 541.539L1302.66 541.416H1304.47C1304.44 541.504 1304.4 541.595 1304.36 541.688C1304.28 541.823 1304.14 542.031 1303.93 542.312C1303.7 542.611 1303.43 542.878 1303.13 543.112C1302.84 543.341 1302.41 543.549 1301.84 543.736C1301.3 543.924 1300.68 544.018 1299.97 544.018C1298.52 544.018 1297.33 543.602 1296.42 542.77C1295.5 541.938 1295.04 540.824 1295.04 539.43C1295.04 538.047 1295.5 536.937 1296.42 536.099C1297.32 535.261 1298.48 534.842 1299.89 534.842C1301.28 534.842 1302.44 535.261 1303.36 536.099C1304.27 536.937 1304.72 538.047 1304.72 539.43ZM1302.22 537.118C1301.64 536.562 1300.86 536.283 1299.89 536.283C1298.9 536.283 1298.12 536.562 1297.55 537.118C1296.97 537.675 1296.68 538.223 1296.68 538.762H1303.09C1303.09 538.223 1302.8 537.675 1302.22 537.118ZM1313.73 541.231C1313.73 540.886 1313.56 540.619 1313.23 540.432C1312.88 540.238 1312.46 540.13 1311.97 540.106C1311.46 540.077 1310.91 540.024 1310.33 539.948C1309.7 539.872 1309.14 539.781 1308.68 539.676C1308.17 539.57 1307.75 539.333 1307.42 538.964C1307.08 538.601 1306.91 538.114 1306.91 537.505C1306.91 536.62 1307.29 535.952 1308.04 535.501C1308.8 535.062 1309.78 534.842 1310.98 534.842C1312.2 534.842 1313.18 535.088 1313.93 535.58C1314.68 536.072 1315.05 536.846 1315.05 537.9H1313.47C1313.47 537.35 1313.27 536.942 1312.87 536.679C1312.48 536.415 1311.85 536.283 1310.98 536.283C1309.32 536.283 1308.49 536.69 1308.49 537.505C1308.49 537.839 1308.66 538.094 1309 538.27C1309.34 538.451 1309.76 538.554 1310.26 538.577C1310.72 538.601 1311.27 538.65 1311.91 538.727C1312.51 538.809 1313.06 538.905 1313.55 539.017C1314.05 539.14 1314.47 539.386 1314.82 539.755C1315.15 540.136 1315.32 540.628 1315.32 541.231C1315.32 541.888 1315.11 542.433 1314.7 542.866C1314.29 543.294 1313.77 543.593 1313.15 543.763C1312.55 543.933 1311.83 544.018 1311.01 544.018C1309.3 544.018 1308.07 543.596 1307.34 542.752C1306.92 542.271 1306.72 541.674 1306.72 540.959V540.678H1308.3V540.959C1308.3 542.037 1309.2 542.576 1311.01 542.576C1312.82 542.588 1313.73 542.14 1313.73 541.231ZM1324.2 534.666V535.018H1326.78V536.424H1324.2V543.842H1322.64V536.424H1321.17V535.562L1322.64 535.018V534.464C1322.64 533.333 1322.96 532.483 1323.59 531.915C1324.21 531.347 1325.06 531.062 1326.14 531.062C1326.46 531.062 1326.77 531.104 1327.09 531.186C1327.41 531.273 1327.64 531.353 1327.79 531.423L1328.01 531.546V532.935C1327.62 532.589 1327.08 532.416 1326.4 532.416C1325.67 532.416 1325.12 532.592 1324.75 532.943C1324.38 533.289 1324.2 533.863 1324.2 534.666ZM1329.64 542.761C1328.72 541.923 1328.27 540.812 1328.27 539.43C1328.27 538.053 1328.72 536.942 1329.64 536.099C1330.55 535.261 1331.7 534.842 1333.11 534.842C1334.5 534.842 1335.66 535.261 1336.58 536.099C1337.49 536.942 1337.94 538.053 1337.94 539.43C1337.94 540.812 1337.49 541.923 1336.58 542.761C1335.66 543.599 1334.5 544.018 1333.11 544.018C1331.7 544.018 1330.55 543.599 1329.64 542.761ZM1335.47 541.697C1336.07 541.105 1336.36 540.35 1336.36 539.43C1336.36 538.51 1336.07 537.754 1335.47 537.162C1334.88 536.576 1334.09 536.283 1333.11 536.283C1332.12 536.283 1331.33 536.576 1330.75 537.162C1330.15 537.748 1329.85 538.504 1329.85 539.43C1329.85 540.355 1330.15 541.111 1330.75 541.697C1331.34 542.289 1332.12 542.585 1333.11 542.585C1334.08 542.585 1334.87 542.289 1335.47 541.697ZM1340.3 535.018H1341.85V539.579C1341.85 540.61 1342.11 541.369 1342.63 541.855C1343.15 542.342 1343.85 542.585 1344.72 542.585C1345.64 542.585 1346.35 542.307 1346.86 541.75C1347.35 541.199 1347.6 540.476 1347.6 539.579V535.018H1349.15V543.842H1347.6V542.488H1347.51C1347.4 542.676 1347.25 542.854 1347.08 543.024C1346.89 543.206 1346.69 543.361 1346.48 543.49C1346.24 543.643 1345.92 543.769 1345.52 543.868C1345.12 543.968 1344.71 544.018 1344.27 544.018C1343.12 544.018 1342.18 543.675 1341.43 542.989C1340.68 542.315 1340.3 541.299 1340.3 539.939V535.018ZM1360.7 543.842H1359.15V539.289C1359.15 538.258 1358.89 537.499 1358.37 537.013C1357.85 536.526 1357.15 536.283 1356.27 536.283C1355.34 536.283 1354.63 536.559 1354.14 537.109C1353.64 537.66 1353.39 538.387 1353.39 539.289V543.842H1351.85V535.018H1353.39V536.371H1353.48C1353.61 536.172 1353.75 535.993 1353.91 535.835C1354.11 535.659 1354.31 535.504 1354.52 535.369C1354.76 535.223 1355.08 535.1 1355.48 535C1355.88 534.895 1356.29 534.842 1356.73 534.842C1357.86 534.842 1358.81 535.182 1359.57 535.861C1360.32 536.547 1360.7 537.569 1360.7 538.929V543.842ZM1371.08 531.238H1372.62V543.842H1371.08V542.523H1371.01C1370.91 542.676 1370.75 542.852 1370.51 543.051C1370.3 543.215 1370.08 543.364 1369.85 543.499C1369.6 543.64 1369.26 543.76 1368.85 543.859C1368.45 543.965 1368.04 544.018 1367.62 544.018C1366.29 544.018 1365.18 543.596 1364.29 542.752C1363.4 541.908 1362.95 540.801 1362.95 539.43C1362.95 538.07 1363.4 536.963 1364.29 536.107C1365.18 535.264 1366.29 534.842 1367.62 534.842C1368.34 534.842 1368.97 534.968 1369.53 535.22C1370.09 535.472 1370.48 535.718 1370.7 535.958L1371.01 536.336H1371.08V531.238ZM1365.43 537.171C1364.83 537.769 1364.53 538.521 1364.53 539.43C1364.53 540.344 1364.83 541.097 1365.43 541.688C1366.02 542.286 1366.81 542.585 1367.81 542.585C1368.8 542.585 1369.6 542.286 1370.19 541.688C1370.78 541.097 1371.08 540.344 1371.08 539.43C1371.08 538.492 1370.78 537.733 1370.17 537.153C1369.57 536.573 1368.78 536.283 1367.81 536.283C1366.81 536.283 1366.02 536.579 1365.43 537.171Z" fill="#436AE5"/>
</g>
<defs>
<filter id="filter0_d_5_67199" x="860.484" y="437.432" width="81.0938" height="81.0908" filterUnits="userSpaceOnUse" color-interpolation-filters="sRGB">
<feFlood flood-opacity="0" result="BackgroundImageFix"/>
<feColorMatrix in="SourceAlpha" type="matrix" values="0 0 0 0 0 0 0 0 0 0 0 0 0 0 0 0 0 0 127 0" result="hardAlpha"/>
<feOffset dy="10"/>
<feGaussianBlur stdDeviation="10"/>
<feComposite in2="hardAlpha" operator="out"/>
<feColorMatrix type="matrix" values="0 0 0 0 0.246875 0 0 0 0 0.367998 0 0 0 0 0.75 0 0 0 0.7 0"/>
<feBlend mode="normal" in2="BackgroundImageFix" result="effect1_dropShadow_5_67199"/>
<feBlend mode="normal" in="SourceGraphic" in2="effect1_dropShadow_5_67199" result="shape"/>
</filter>
<filter id="filter1_d_5_67199" x="1072.8" y="416.886" width="81.0938" height="81.0908" filterUnits="userSpaceOnUse" color-interpolation-filters="sRGB">
<feFlood flood-opacity="0" result="BackgroundImageFix"/>
<feColorMatrix in="SourceAlpha" type="matrix" values="0 0 0 0 0 0 0 0 0 0 0 0 0 0 0 0 0 0 127 0" result="hardAlpha"/>
<feOffset dy="10"/>
<feGaussianBlur stdDeviation="10"/>
<feComposite in2="hardAlpha" operator="out"/>
<feColorMatrix type="matrix" values="0 0 0 0 0.246875 0 0 0 0 0.367998 0 0 0 0 0.75 0 0 0 0.7 0"/>
<feBlend mode="normal" in2="BackgroundImageFix" result="effect1_dropShadow_5_67199"/>
<feBlend mode="normal" in="SourceGraphic" in2="effect1_dropShadow_5_67199" result="shape"/>
</filter>
<filter id="filter2_d_5_67199" x="1116" y="445.842" width="364" height="184" filterUnits="userSpaceOnUse" color-interpolation-filters="sRGB">
<feFlood flood-opacity="0" result="BackgroundImageFix"/>
<feColorMatrix in="SourceAlpha" type="matrix" values="0 0 0 0 0 0 0 0 0 0 0 0 0 0 0 0 0 0 127 0" result="hardAlpha"/>
<feOffset dy="14"/>
<feGaussianBlur stdDeviation="20"/>
<feComposite in2="hardAlpha" operator="out"/>
<feColorMatrix type="matrix" values="0 0 0 0 0.0437383 0 0 0 0 0.109346 0 0 0 0 0.316262 0 0 0 0.2 0"/>
<feBlend mode="normal" in2="BackgroundImageFix" result="effect1_dropShadow_5_67199"/>
<feBlend mode="normal" in="SourceGraphic" in2="effect1_dropShadow_5_67199" result="shape"/>
</filter>
<clipPath id="clip0_5_67199">
<rect width="1920" height="1023" fill="white" transform="translate(0 0.841797)"/>
</clipPath>
<clipPath id="clip1_5_67199">
<rect width="2549" height="1687" fill="white" transform="translate(-43 -663.158)"/>
</clipPath>
<clipPath id="clip2_5_67199">
<rect width="2549" height="1687" fill="white" transform="translate(107.68 -319.595)"/>
</clipPath>
</defs>
</svg>
