<svg width="25" height="25" viewBox="0 0 25 25" fill="none" xmlns="http://www.w3.org/2000/svg">
<rect width="25" height="25" rx="5" fill="#E2E8FF"/>
<path fill-rule="evenodd" clip-rule="evenodd" d="M12.5 6.5C11.9477 6.5 11.5 6.94772 11.5 7.5V11.5H7.5C6.94772 11.5 6.5 11.9477 6.5 12.5C6.5 13.0523 6.94771 13.5 7.5 13.5H11.5V17.5C11.5 18.0523 11.9477 18.5 12.5 18.5C13.0523 18.5 13.5 18.0523 13.5 17.5V13.5H17.5C18.0523 13.5 18.5 13.0523 18.5 12.5C18.5 11.9477 18.0523 11.5 17.5 11.5H13.5V7.5C13.5 6.94772 13.0523 6.5 12.5 6.5Z" fill="#436AE5"/>
</svg>
