<svg width="1920" height="1024" viewBox="0 0 1920 1024" fill="none" xmlns="http://www.w3.org/2000/svg">
<g clip-path="url(#clip0_5_66953)">
<rect width="1920" height="1023" transform="translate(0 0.841797)" fill="#F1F4FF"/>
<g clip-path="url(#clip1_5_66953)">
<g clip-path="url(#clip2_5_66953)">
<path d="M1527.18 1450.12L1448.86 1440.8C1449.22 1451.47 1448.79 1462.16 1447.56 1472.78C1444.77 1471.37 1441.69 1470.62 1438.57 1470.57C1402.36 1467.45 1366.87 1461.37 1330.75 1457.87C1313.09 1456.16 1295.17 1458.12 1279.47 1448.92C1246.14 1429.39 1214.27 1406.36 1181.86 1385.25C1162.74 1372.76 1142.53 1361.76 1123.87 1348.98C1122.2 1347.81 1111.37 1333.74 1114.66 1334.24C1077.94 1328.69 1041.09 1324.19 1004.1 1320.75C1002.34 1314.4 1001.1 1307.93 1000.39 1301.39L996.222 1306.13C991.764 1305.05 992.764 1298.51 993.722 1294.02C995.639 1284.56 992.306 1274.9 988.973 1265.87C984.141 1252.54 977.767 1237.68 964.394 1233.1C959.561 1231.47 953.437 1230.76 951.396 1226.1C949.938 1222.9 951.396 1218.98 950.104 1215.65C948.146 1209.7 940.481 1208.65 934.649 1206.45C922.651 1201.99 915.527 1190.08 908.528 1179.42C905.947 1174.91 902.441 1170.99 898.238 1167.93C892.965 1165.15 887.211 1163.4 881.282 1162.77C868.451 1160.27 853.954 1153.61 851.829 1140.7C850.454 1132.37 854.87 1124.04 855.537 1115.71C855.773 1111.11 855.253 1106.49 853.995 1102.06C851.11 1090.77 845.84 1080.24 838.539 1071.16C836.055 1068.44 833.927 1065.42 832.207 1062.16C830.66 1056.99 829.558 1051.7 828.916 1046.34C827.041 1038.89 822.167 1032.64 818.626 1025.85C815.085 1019.07 812.835 1010.61 816.46 1003.87C818.808 1000.79 820.819 997.467 822.459 993.959C824.417 986.464 817.043 980.259 811.71 974.679C807.005 969.711 803.407 963.802 801.152 957.343C798.897 950.883 798.038 944.019 798.629 937.203C799.254 930.25 800.921 929.542 807.503 929.708C808.086 929.803 808.683 929.668 809.169 929.334C809.565 928.84 809.758 928.215 809.711 927.585L810.086 911.22C810.419 898.728 801.754 909.721 797.129 912.344C791.788 907.902 788.031 901.849 786.424 895.091C784.816 888.334 785.445 881.238 788.214 874.869C791.464 867.831 781.84 861.502 777.716 854.965C764.968 834.603 771.884 808.411 775.175 784.635C776.279 778.563 776.279 772.343 775.175 766.272C773.342 757.944 768.176 751.073 764.426 743.536C760.677 735.999 758.427 726.88 762.552 719.427C766.676 711.973 776.133 708.808 779.924 701.272C783.715 693.735 780.715 684.407 783.507 676.288C786.09 669.167 793.213 663.796 793.213 656.009C793.213 650.971 789.964 646.432 789.547 641.393C789.047 634.981 793.172 629.11 794.422 622.78C794.943 618.173 794.943 613.522 794.422 608.914C794.019 597.99 796.039 587.112 800.337 577.06C803.503 569.773 801.67 565.234 804.795 557.905C810.669 544.331 818.418 531.672 825.625 518.722C845.015 483.484 859.773 445.892 869.534 406.877C870.414 401.663 872.449 396.712 875.492 392.387C877.046 390.246 879.285 388.7 881.837 388.003C884.39 387.307 887.104 387.502 889.531 388.556C888.514 384.829 886.463 381.466 883.615 378.854C881.199 375.856 879.449 371.275 882.032 368.36C883.782 366.362 886.906 366.07 888.615 364.196C893.53 358.533 882.074 350.372 884.699 343.376C885.948 340.087 890.156 337.963 889.948 334.424C889.948 331.634 886.823 329.927 885.448 327.47C884.567 325.624 884.111 323.603 884.115 321.557L880.991 275.462C880.449 267.134 882.241 255.475 890.739 254.642C893.681 254.697 896.556 255.531 899.071 257.057L949.48 281.749C952.886 283.137 955.954 285.238 958.478 287.912C959.717 289.279 960.489 291.003 960.684 292.837C960.878 294.67 960.485 296.518 959.561 298.114C956.937 301.778 950.438 302.903 950.396 307.441C950.396 312.73 958.103 313.687 958.728 318.601C959.728 324.972 951.396 329.885 945.939 329.968C943.231 329.968 940.023 329.427 938.19 331.467C937.344 332.516 936.887 333.826 936.898 335.173C936.44 341.128 940.814 348.123 946.73 347.207C948.485 346.802 950.142 346.052 951.604 345C956.603 341.711 964.477 337.172 966.685 331.509C969.226 325.097 964.394 317.768 968.643 311.106C971.559 306.525 977.558 303.943 978.766 298.614C980.641 290.286 969.226 283.54 970.851 275.212C971.643 271.048 975.309 268.3 976.517 264.386C979.766 253.559 963.144 242.4 969.185 232.823C1127.95 289.703 1293.3 320.724 1459.4 350.081C1514.89 359.908 1570.5 369.443 1626.7 373.524C1671.57 376.772 1716.6 376.564 1761.56 376.355L1922.95 375.606C1944.86 375.606 1966.77 376.314 1988.64 376.147C2004.22 376.147 2037.3 380.936 2045.43 363.031C2046.45 359.871 2047.64 356.771 2049.01 353.745C2049.75 352.255 2050.99 351.073 2052.51 350.41C2054.04 349.747 2055.75 349.645 2057.34 350.122C2060.17 351.496 2060.84 355.077 2061.51 358.117C2063.55 369.526 2067.96 388.597 2083.13 385.433C2088.46 384.309 2094.21 382.102 2099.04 384.558C2103.87 387.015 2108.12 394.094 2112.96 391.512C2115.25 390.305 2116.29 387.348 2118.79 386.515C2122.12 385.599 2124.62 389.472 2127.75 391.013C2134.87 394.594 2141.28 385.558 2147.58 380.644C2147.98 380.251 2148.47 379.944 2149 379.744C2149.53 379.543 2150.09 379.453 2150.66 379.478C2152.16 379.728 2152.95 381.352 2153.49 382.726L2161.36 402.172C2160.7 397.3 2168.28 395.884 2172.53 398.341C2176.78 400.798 2180.57 405.17 2185.44 404.795C2187.74 404.587 2190.19 403.421 2192.11 404.795C2194.03 406.17 2193.78 409.709 2195.44 411.708C2198.15 414.956 2203.4 411.708 2205.94 408.543C2208.48 405.378 2211.9 400.923 2215.94 402.255C2217.98 402.922 2219.27 404.92 2220.86 406.419C2227.06 412.124 2236.77 409.709 2244.98 407.793C2253.18 405.878 2264.01 406.086 2267.31 413.79C2266.39 420.743 2258.97 425.949 2252.89 429.155C2246.47 431.948 2240.26 435.205 2234.31 438.898C2229.81 442.466 2225.85 446.675 2222.56 451.39L2185.57 499.027C2187.61 502.649 2192.9 502.274 2196.9 501.109C2206.99 498.245 2216.53 493.698 2225.1 487.659C2228.35 485.41 2233.44 483.203 2235.6 486.535C2238.98 491.74 2231.44 497.236 2233.44 501.525C2235.94 507.105 2249.68 504.523 2254.56 503.232C2266.35 500.068 2269.43 487.118 2281.43 484.827C2283.93 484.328 2286.8 484.494 2288.51 482.62C2290.22 480.747 2289.97 478.665 2290.97 476.791C2292.22 475.047 2293.86 473.621 2295.76 472.627C2305.84 465.756 2313.22 455.679 2321.96 447.185C2330.71 438.69 2342.17 431.445 2354.29 432.736C2355.71 438.565 2351.58 444.312 2346.88 448.018C2341.76 451.163 2337.08 454.972 2332.96 459.344C2330.55 462.633 2328.8 470.087 2332.75 473.043C2336.71 476 2340.17 471.211 2343.59 469.629C2346.19 468.644 2348.99 468.315 2351.76 468.671C2354.52 469.026 2357.15 470.056 2359.42 471.669C2362.79 474.528 2365.99 477.587 2369 480.83C2373.04 484.315 2377.95 486.639 2383.21 487.556C2388.47 488.472 2393.88 487.947 2398.87 486.035C2404.62 489.324 2408.16 488.283 2413.24 484.036C2416.16 481.579 2418.16 478.207 2420.95 475.708C2424.23 473.013 2427.93 470.875 2431.9 469.379L2461.07 456.595C2462.18 455.925 2463.5 455.702 2464.77 455.971C2468.94 457.428 2464.07 464.59 2465.52 467.672C2466.98 470.753 2471.11 471.128 2472.44 474.043C2472.84 475.394 2473.04 476.797 2473.02 478.207C2473.02 478.912 2473.22 479.605 2473.58 480.207C2473.95 480.81 2474.48 481.299 2475.11 481.621C2478.48 482.745 2486.9 475.25 2490.31 474.251C2501.23 471.086 2510.89 481.746 2517.31 491.157C2517.06 496.112 2509.56 495.862 2504.81 493.946C2500.06 492.031 2492.81 491.531 2492.31 496.487C2492.31 498.444 2493.35 500.651 2492.6 502.274C2491.35 505.064 2487.19 504.107 2484.27 502.691C2475.44 498.069 2464.07 493.863 2456.23 499.984C2452.07 503.274 2449.94 508.937 2445.4 511.768C2441.65 514.142 2436.69 514.225 2433.11 516.89C2429.95 520.12 2427.58 524.04 2426.2 528.341C2424.2 532.505 2420.49 536.669 2416.03 535.836C2416.03 533.255 2419.41 527.716 2417.24 525.551C2415.07 523.386 2409.82 526.009 2408.91 527.966C2403.78 539.043 2402.16 525.426 2397.7 523.802C2393.24 522.178 2393.87 527.55 2394.12 530.465C2394.77 534.281 2394.59 538.192 2393.6 541.935C2392.6 545.677 2390.82 549.163 2388.37 552.159C2384.79 556.323 2379.7 560.071 2378.62 565.567C2378.43 569.069 2378.56 572.581 2379 576.06C2379 587.845 2366.5 596.88 2366.5 608.54C2366.43 609.442 2366.54 610.349 2366.85 611.203C2367.15 612.057 2367.62 612.838 2368.25 613.495C2371.16 616.035 2375.66 613.203 2377.91 610.08C2384.66 600.753 2385.66 588.552 2390.41 578.184C2392.24 574.353 2395.29 570.356 2399.53 570.272C2408.99 570.272 2400.28 597.214 2398.62 601.96C2395.99 607.526 2394.57 613.586 2394.45 619.741C2394.94 622.495 2395.26 625.276 2395.41 628.069C2395.12 635.356 2387.95 641.477 2389.04 648.889C2389.37 651.137 2390.54 653.053 2390.91 655.468C2391.04 660.123 2389.95 664.732 2387.74 668.834C2385.42 675.185 2384.48 681.96 2384.99 688.704C2385.5 695.448 2387.45 702.004 2390.7 707.934C2392.24 710.331 2393.56 712.868 2394.62 715.512C2396.62 721.425 2394.62 728.005 2394.62 734.084C2395.16 742.492 2397.31 750.719 2400.95 758.318C2404.24 766.646 2407.99 775.224 2415.62 779.721C2417.21 780.752 2419.05 781.354 2420.95 781.47C2423.09 781.449 2425.2 780.891 2427.07 779.846C2438.82 773.493 2447.64 762.836 2451.69 750.115C2455.63 737.499 2457.91 724.426 2458.48 711.224C2459.44 700.564 2460.27 689.363 2455.94 679.619C2452.9 674.043 2449.57 668.623 2445.99 663.379C2440.18 651.984 2437.49 639.256 2438.19 626.486C2438.19 613.786 2440.11 601.128 2440.15 588.427C2439.85 584.715 2440.35 580.981 2441.61 577.476C2444.57 571.064 2452.86 568.024 2455.03 561.32C2455.86 558.821 2457.27 555.116 2459.65 556.198C2460.11 556.515 2460.48 556.93 2460.76 557.413C2461.03 557.896 2461.19 558.434 2461.23 558.988C2461.45 562.295 2461.92 565.581 2462.65 568.815C2463.73 571.938 2466.82 574.811 2470.11 573.895C2470.95 573.597 2471.72 573.123 2472.36 572.506C2473.01 571.889 2473.52 571.142 2473.86 570.314C2475.86 565.859 2474.23 560.737 2473.48 555.907C2472.73 551.076 2473.73 544.997 2478.31 543.415C2480.23 542.707 2482.48 542.957 2484.31 542.29C2486.15 541.624 2487.89 539.251 2486.69 537.627C2485.48 536.003 2484.4 536.461 2483.15 536.044C2477.98 534.379 2476.81 526.967 2479.65 522.345C2483.4 516.224 2492.69 510.852 2499.64 514.267C2503.81 516.349 2507.27 520.055 2511.77 521.512C2515 522.292 2518.32 522.614 2521.64 522.47C2527.97 522.645 2534.21 523.928 2540.09 526.259C2541.22 526.636 2542.26 527.215 2543.18 527.966C2544.26 528.966 2544.97 530.423 2546.34 531.006C2548.47 531.88 2550.88 530.132 2553.09 530.756C2556.09 531.589 2556.26 535.878 2555.01 538.751C2553.76 541.624 2551.8 544.581 2552.68 547.579C2553.34 549.167 2554.35 550.588 2555.63 551.743C2560.02 556.74 2562.96 562.843 2564.13 569.39C2565.3 575.938 2564.65 582.68 2562.26 588.886C2560.36 592.438 2558.96 596.235 2558.09 600.17C2557.68 604.001 2558.84 608.165 2557.05 611.538C2555.26 614.91 2550.38 616.576 2547.72 619.866C2546.22 621.763 2545.53 624.167 2545.77 626.569C2546.02 628.971 2547.2 631.182 2549.05 632.732C2550.03 633.425 2551.14 633.9 2552.31 634.125C2553.49 634.35 2554.7 634.319 2555.86 634.034C2557.02 633.75 2558.11 633.218 2559.05 632.476C2559.99 631.734 2560.76 630.799 2561.3 629.734L2567.05 616.826C2568.52 612.933 2570.42 609.218 2572.71 605.75C2575.07 602.261 2578.65 599.791 2582.75 598.837C2584.59 598.556 2586.47 598.698 2588.25 599.254C2590.03 599.809 2591.65 600.764 2593 602.044C2594.92 604.202 2596.45 606.683 2597.5 609.372C2600.5 615.785 2603.46 622.197 2606.46 628.652C2612.46 641.685 2618.96 655.135 2619.29 669.459C2619.55 671.2 2619.37 672.977 2618.77 674.633C2618.18 676.289 2617.18 677.773 2615.87 678.953C2614.14 679.78 2612.3 680.395 2610.42 680.785C2602.92 683.366 2600.29 692.735 2600.63 700.647C2600.96 708.559 2603.13 716.72 2600.63 724.215C2598.13 731.711 2584.34 743.286 2592.84 750.448C2596.23 752.812 2600.41 753.767 2604.5 753.113C2608.54 752.483 2612.63 752.288 2616.71 752.53C2617.19 752.55 2617.67 752.68 2618.09 752.911C2618.52 753.142 2618.88 753.468 2619.17 753.863C2619.67 754.737 2619.17 755.862 2619.17 756.861C2619.4 757.927 2620.04 758.86 2620.95 759.46C2621.86 760.059 2622.97 760.277 2624.04 760.067C2635.33 758.652 2642.12 743.411 2652.91 739.58C2659.87 737.165 2667.49 736.041 2673.49 731.711C2681.16 726.131 2684.65 716.345 2691.9 710.183C2697.32 705.602 2704.4 703.437 2710.48 699.814C2724.86 691.278 2733.06 675.455 2745.14 663.921C2752.02 657.3 2760.23 652.053 2765.97 644.516C2771.72 636.98 2774.76 625.945 2769.6 617.95C2765.85 612.204 2758.1 607.124 2760.31 600.628C2761.23 598.913 2762.5 597.413 2764.05 596.228C2765.59 595.043 2767.37 594.201 2769.27 593.757L2786.39 587.22C2790.47 585.391 2794.81 584.238 2799.26 583.805C2803.09 583.805 2806.93 584.597 2810.76 584.68C2824.13 585.013 2834.8 575.727 2845.09 568.482C2854.38 561.944 2882.83 555.449 2871.29 539.75C2869.62 538.027 2868.21 536.062 2867.12 533.921C2865.08 528.091 2871.96 520.346 2867.12 516.265C2863.83 513.351 2858.13 516.265 2854.63 513.767C2853.42 512.7 2852.61 511.253 2852.33 509.664C2852.05 508.076 2852.31 506.439 2853.09 505.023C2856.38 497.902 2863.54 493.822 2866.67 486.41C2869.79 478.998 2870.33 469.754 2874 462.175C2877.29 456.298 2881.31 450.856 2885.95 445.977C2892.37 438.274 2898.16 429.613 2906.78 424.699C2912.29 421.976 2918.09 419.907 2924.07 418.537C2939.65 413.956 2954.44 407.544 2969.9 403.421C2988.17 398.148 3006.01 391.494 3023.27 383.517C3036.64 377.605 3030.64 369.776 3036.51 360.074C3039.39 355.41 3044.85 354.078 3049.01 350.497C3055.93 344.001 3050.93 343.335 3050.84 336.339C3050.76 329.344 3055.26 324.097 3057.39 317.435C3059.65 309.513 3060.41 301.237 3059.63 293.034C3058.76 280.542 3055.8 268.05 3055.47 255.225C3055.05 237.361 3059.97 219.873 3064.84 202.675C3065.51 200.302 3066.55 197.595 3069.01 196.971C3075.51 195.222 3076.51 210.42 3083.01 208.88C3083.72 208.656 3084.39 208.29 3084.96 207.804C3085.53 207.317 3086 206.72 3086.34 206.048C3088.96 201.884 3091 194.93 3095.96 195.846C3097.05 195.846 3098.05 196.679 3099.17 196.762C3104.59 197.262 3104.17 187.477 3109 184.978C3110.21 184.45 3111.53 184.248 3112.83 184.395C3126.62 184.978 3136.75 197.887 3141.33 210.878C3145.91 223.87 3147.12 238.111 3153.45 250.353C3154.46 252.779 3155.96 254.969 3157.86 256.783C3159.76 258.597 3162.02 259.995 3164.49 260.888C3166.27 261.144 3168.02 261.59 3169.7 262.22C3174.57 264.594 3174.2 271.798 3177.49 276.128C3180.55 279.182 3184.38 281.354 3188.57 282.416C3195.94 285.459 3202.31 290.508 3206.94 296.99C3208.51 299.07 3209.69 301.41 3210.44 303.902C3211.4 308.218 3210.85 312.734 3208.86 316.685C3203.4 328.553 3190.28 335.34 3184.24 346.916C3183.32 349.437 3181.72 351.656 3179.61 353.328C3177.28 354.661 3173.41 353.328 3173.74 350.58C3170.62 350.58 3168.49 353.953 3167.91 357.076C3167.69 360.205 3167.15 363.303 3166.28 366.32C3164.99 369.193 3161.28 371.442 3158.7 369.61C3156.12 367.778 3156.58 365.446 3155.08 363.489C3154.45 362.832 3153.66 362.345 3152.79 362.072C3151.92 361.799 3151 361.75 3150.11 361.929C3149.22 362.107 3148.38 362.508 3147.68 363.093C3146.99 363.679 3146.45 364.431 3146.12 365.279C3145.79 367.783 3146.2 370.329 3147.29 372.608C3148.41 376.863 3148.64 381.305 3147.97 385.654C3147.3 390.004 3145.73 394.167 3143.37 397.883C3138.59 405.282 3132.32 411.606 3124.96 416.455C3121.39 418.395 3118.42 421.276 3116.38 424.783C3115.42 428.88 3114.92 433.068 3114.88 437.275C3113.38 445.061 3106.25 450.724 3104.13 458.386C3102.29 464.84 3103.88 471.669 3102.79 478.207C3102 483.203 3097.63 490.699 3103.88 494.071C3106.13 495.321 3109.29 495.321 3110.5 497.611C3112.17 500.775 3107.84 503.94 3107.25 507.479C3106.67 511.019 3110.63 514.475 3113.29 517.556C3119.54 524.76 3119.08 535.92 3124.92 543.456C3128.05 547.23 3132.5 549.679 3137.37 550.312C3142.24 550.945 3147.16 549.716 3151.16 546.871C3152.89 545.738 3154.14 544.001 3154.66 541.999C3156.08 534.962 3144.37 530.631 3145.45 523.552C3146 519.93 3149.62 517.806 3152.87 516.182C3153.36 515.845 3153.91 515.614 3154.49 515.506C3155.07 515.399 3155.67 515.416 3156.24 515.558C3157.17 516.06 3157.87 516.893 3158.2 517.889C3160.12 522.053 3162.03 525.926 3163.99 529.923C3165.52 532.576 3166.38 535.565 3166.49 538.626C3165.68 543.045 3163.28 547.014 3159.74 549.786L3146.95 562.278C3145.25 563.943 3142.79 565.775 3140.7 564.401C3139.33 563.485 3139.04 561.486 3137.58 560.695C3136.12 559.904 3133.41 561.486 3132.87 563.402C3132.42 565.39 3131.85 567.35 3131.16 569.273C3127.21 576.394 3113.96 569.981 3108.88 576.352C3107.28 579.43 3106.56 582.887 3106.79 586.345C3104.96 604.334 3079.92 607.998 3067.05 615.493C3050.24 625.352 3035.5 638.393 3023.68 653.885C3014.77 665.586 3007.39 680.243 3010.77 694.568C3010.82 695.053 3010.97 695.522 3011.22 695.939C3011.48 696.357 3011.82 696.713 3012.23 696.983C3013.6 697.649 3015.1 696.4 3016.39 695.692C3020.97 693.443 3026.35 698.398 3026.76 703.479C3026.59 708.591 3025.16 713.582 3022.6 718.011C3011.73 742.995 3016.85 773.101 3003.64 796.877C3003.29 797.684 3002.68 798.345 3001.89 798.751C2999.23 799.875 2997.98 795.544 2997.73 792.671C2997.4 790.581 2996.66 788.578 2995.55 786.778C2994.44 784.978 2992.98 783.418 2991.25 782.189C2989.53 780.96 2987.58 780.086 2985.52 779.62C2983.45 779.153 2981.32 779.103 2979.23 779.471C2978.72 779.508 2978.23 779.646 2977.77 779.876C2977.32 780.106 2976.92 780.424 2976.59 780.811C2976.26 781.199 2976.01 781.648 2975.85 782.133C2975.7 782.618 2975.64 783.129 2975.69 783.635C2975.77 786.996 2976.57 790.3 2978.03 793.325C2979.5 796.349 2981.6 799.024 2984.19 801.166C2988.96 805.63 2994.35 809.388 3000.19 812.325C3005.56 815.365 3002.23 819.363 3002.48 825.525C3003.57 853.692 2998.26 881.739 2986.94 907.556C2984.25 903.43 2982.79 898.626 2982.72 893.702C2982.65 888.779 2983.99 883.937 2986.56 879.74C2988.98 875.951 2992.4 870.746 2989.1 867.665C2985.81 864.583 2978.61 869.455 2974.32 866.624C2968.19 862.46 2976.48 849.343 2969.61 846.72C2968.05 846.372 2966.45 846.274 2964.86 846.428C2963.41 846.292 2962.01 845.845 2960.75 845.117C2959.49 844.389 2958.41 843.398 2957.57 842.211C2956.73 841.025 2956.16 839.671 2955.89 838.243C2955.63 836.814 2955.67 835.345 2956.03 833.936C2956.78 832.518 2957.14 830.921 2957.07 829.314C2956.4 826.275 2952.28 826.15 2949.36 825.15C2942.7 822.985 2940.61 814.324 2941.95 807.453C2943.28 800.583 2946.86 794.129 2947.32 787.175C2947.32 784.885 2946.45 781.803 2944.15 782.011C2942.78 782.011 2941.86 783.552 2941.2 784.76C2934.49 796.835 2927.7 811.534 2934.03 823.818C2936.78 829.106 2941.82 833.52 2942.36 839.475C2942.61 842.722 2941.49 846.345 2943.32 849.052C2946.2 853.216 2954.65 852.591 2955.11 857.63C2955.36 860.878 2951.69 863.001 2950.74 865.958C2949.32 870.621 2954.19 874.286 2957.94 877.617C2961.69 880.948 2964.32 887.527 2959.98 889.776C2955.65 892.024 2948.86 885.612 2945.28 889.234C2942.86 891.691 2945.28 896.063 2948.53 897.562C2951.78 899.061 2955.4 898.728 2958.53 900.227C2961.65 901.726 2963.65 906.432 2960.9 908.555C2959.94 909.263 2958.69 909.471 2957.82 910.262C2955.44 912.511 2958.28 916.342 2961.03 918.132C2963.79 919.551 2966.16 921.624 2967.94 924.17C2968.34 924.822 2968.6 925.548 2968.72 926.304C2968.83 927.06 2968.78 927.831 2968.59 928.571C2968.4 929.31 2968.05 930.002 2967.58 930.605C2967.11 931.209 2966.53 931.711 2965.86 932.082C2961.69 933.539 2955.69 928.209 2953.36 932.082C2952.93 932.854 2952.75 933.744 2952.86 934.622C2953.44 936.797 2954.78 938.692 2956.63 939.962C2958.49 941.231 2960.75 941.789 2962.98 941.534C2967.43 940.889 2971.81 939.83 2976.06 938.369C2978.21 937.67 2980.5 937.564 2982.7 938.062C2984.91 938.561 2986.93 939.645 2988.56 941.201C2995.48 942.45 2997.69 949.113 2995.9 955.9C2995.25 957.559 2994.83 959.295 2994.65 961.063C2994.65 964.519 2997.6 967.143 2999.64 969.932C3001.69 972.722 3002.39 977.511 2999.27 979.01C2997.94 979.635 2996.27 979.426 2995.1 980.176C2992.02 981.966 2992.73 986.339 2989.31 988.254C2985.9 990.169 2982.73 986.005 2980.19 990.461C2973.9 1001.66 2968.11 980.759 2966.07 994.625C2965.36 999.414 2968.27 1010.11 2974.4 1009.07C2980.52 1008.03 2980.65 997.498 2990.6 1000.54C2993.69 1001.45 2996.31 1003.87 2999.52 1004.16C3004.23 1004.62 3007.85 1000.29 3010.14 996.082C3010.93 994.542 3011.81 992.793 3013.48 992.335C3016.48 991.46 3018.52 995.374 3018.93 998.497C3020.42 1009.99 3017.44 1021.62 3010.6 1030.98C3007.85 1034.64 3003.06 1038.14 2999.06 1035.97C2997.19 1034.93 2996.06 1032.85 2994.35 1031.56C2993.12 1030.86 2991.71 1030.52 2990.29 1030.58C2988.87 1030.63 2987.49 1031.09 2986.32 1031.9C2985.15 1032.7 2984.22 1033.82 2983.65 1035.12C2983.09 1036.42 2982.9 1037.86 2983.11 1039.26C2983.44 1040.07 2983.64 1040.93 2983.69 1041.8C2983.36 1046.92 2972.07 1042.39 2971.19 1047.42C2970.69 1049.84 2973.73 1051.59 2976.23 1051.59C2978.66 1051.04 2981.16 1050.86 2983.65 1051.05C2984.6 1051.44 2985.46 1052.03 2986.16 1052.78C2986.86 1053.54 2987.38 1054.44 2987.7 1055.42C2988.02 1056.4 2988.12 1057.43 2987.99 1058.45C2987.87 1059.48 2987.52 1060.46 2986.98 1061.33C2985.76 1063.03 2984.14 1064.41 2982.27 1065.36C2980.4 1066.3 2978.33 1066.78 2976.23 1066.75C2974.81 1066.67 2973.38 1066.91 2972.07 1067.45C2967.9 1069.66 2971.48 1076.66 2976.23 1076.86C2980.98 1077.07 2984.56 1073.49 2988.15 1070.49C2991.73 1067.49 2996.48 1064.66 3000.64 1066.54C3003.02 1067.58 3002.14 1068.12 3001.77 1070.7C3001.39 1073.28 2999.94 1075.57 2999.69 1078.15C2999.71 1079.41 2999.58 1080.67 2999.31 1081.9C2998.91 1082.84 2998.28 1083.66 2997.47 1084.29C2996.66 1084.91 2995.7 1085.3 2994.69 1085.44C2992.69 1085.71 2990.66 1085.8 2988.65 1085.73C2983.98 1086.15 2979.47 1087.63 2975.46 1090.04C2971.45 1092.46 2968.03 1095.76 2965.48 1099.68C2958.03 1110.13 2948.82 1123.21 2946.94 1136.08C2946.72 1138.82 2946.18 1141.53 2945.32 1144.15C2943.42 1147.92 2940.22 1150.88 2936.32 1152.48C2932.57 1154.36 2928.49 1155.52 2924.78 1157.48C2919.03 1160.51 2914.34 1165.22 2911.33 1170.97C2897.16 1179.88 2897.12 1200.12 2886.7 1213.15C2885.31 1214.58 2884.21 1216.26 2883.46 1218.11C2883.09 1220.01 2882.94 1221.95 2883 1223.89C2882.21 1231.89 2873.87 1236.39 2869.17 1243.09C2867.37 1245.46 2865.96 1248.1 2865 1250.92C2864.49 1252.84 2863.8 1254.7 2862.96 1256.5C2859.88 1261.99 2852.75 1263.99 2848.92 1268.99C2846.96 1271.57 2845.88 1274.94 2843.17 1276.69C2839.38 1279.11 2833.26 1277.78 2830.92 1281.69C2829.55 1284.02 2829.96 1287.85 2827.38 1288.81C2824.8 1289.77 2823.22 1287.6 2821.01 1288.14C2818.8 1288.69 2818.13 1292.31 2818.88 1294.77C2819.63 1297.22 2821.05 1299.89 2820.09 1302.3C2819.59 1303.63 2818.42 1304.63 2817.84 1305.97C2817.28 1307.71 2817.14 1309.57 2817.42 1311.38C2817.76 1318.17 2814.47 1321.33 2812.22 1326.95C2809.85 1334.59 2808.45 1342.49 2808.05 1350.48C2806.21 1366.57 2806.48 1382.84 2808.84 1398.87C2809.51 1402.12 2809.72 1405.46 2809.47 1408.78C2808.08 1413.99 2805.94 1418.99 2803.14 1423.6C2800.01 1431.05 2799.25 1439.28 2800.97 1447.17C2800.97 1448.33 2801.84 1454.54 2803.05 1455.16C2811.38 1459.33 2808.47 1443.3 2808.22 1440.51C2807.84 1436.55 2805.34 1424.52 2809.84 1422.02C2817.84 1417.52 2818.63 1438.67 2819.42 1442.17C2822.52 1453.34 2827.6 1463.86 2834.42 1473.23C2846.21 1491.68 2858.04 1510.17 2871.33 1527.66C2872.46 1529.2 2872.96 1532.24 2871.04 1532.24C2870.38 1532.13 2869.78 1531.77 2869.37 1531.24L2862.54 1524.33C2861.45 1525.65 2860.81 1527.3 2860.72 1529.01C2860.63 1530.73 2861.09 1532.43 2862.04 1533.86C2864.01 1536.69 2866.35 1539.23 2869 1541.44C2873.61 1546.45 2877.53 1552.05 2880.66 1558.1L2894.54 1582.08C2897.77 1587.19 2900.35 1592.69 2902.2 1598.45C2903.12 1601.86 2903.54 1605.44 2904.66 1608.81C2908.33 1620.14 2919.53 1630.59 2915.45 1641.79C2905.62 1668.61 2914.58 1694.8 2911.28 1723.16C2911.12 1726.27 2910.31 1729.32 2908.91 1732.11C2906.59 1735.31 2903.5 1737.86 2899.91 1739.52L2890.66 1744.73C2888.22 1746.43 2885.31 1747.35 2882.33 1747.35C2879.41 1747.02 2876.62 1744.02 2877.71 1741.31C2879.33 1737.15 2886.79 1736.57 2883.91 1732.11C2881 1730.86 2878.01 1729.82 2874.96 1728.99C2871.41 1726.86 2868.13 1724.3 2865.21 1721.37C2857.38 1714.37 2849.57 1707.35 2841.8 1700.3C2839.23 1698.35 2837.19 1695.8 2835.84 1692.88C2834.46 1689.01 2835.42 1684.27 2832.8 1681.14C2829.51 1677.19 2822.05 1677.56 2820.55 1672.81C2819.59 1669.69 2821.88 1666.07 2820.34 1663.2C2818.8 1660.32 2813.55 1660.49 2810.72 1658.03C2806.93 1654.74 2807.93 1646.75 2802.97 1645.83C2799.72 1645.21 2796.84 1648.7 2793.55 1648.41C2791.44 1647.95 2789.57 1646.72 2788.3 1644.96C2779.97 1636.05 2771.43 1624.6 2775.14 1613.1C2776.21 1610.64 2777.06 1608.09 2777.68 1605.48C2778.18 1601.32 2774.72 1594.95 2769.89 1595.32C2766.6 1595.61 2765.72 1600.69 2761.56 1600.78C2755.35 1600.78 2754.39 1594.57 2753.89 1589.7C2752.73 1577.83 2757.73 1566.26 2757.68 1554.68C2757.56 1546.25 2755.08 1538.03 2750.53 1530.93C2745.98 1523.83 2739.55 1518.14 2731.94 1514.5C2724.31 1511 2715.27 1509.17 2710.61 1502.01C2708.4 1498.59 2707.73 1494.43 2705.86 1490.85C2700.69 1480.9 2688.32 1477.56 2677.32 1475.27C2672.49 1474.23 2665.91 1474.11 2664.24 1478.77C2663.07 1482.02 2665.24 1486.06 2663.28 1488.93C2662.36 1490.04 2661.17 1490.88 2659.83 1491.39L2627.71 1506.46C2626.47 1507.24 2624.99 1507.55 2623.54 1507.34C2620.17 1506.34 2620.71 1501.22 2618.33 1498.63C2615.12 1495.18 2608.71 1498.09 2605 1495.14C2602.79 1493.39 2602.38 1490.1 2600.46 1488.02C2598.95 1486.66 2597.14 1485.71 2595.17 1485.23C2573.01 1478.07 2549.46 1476.27 2526.47 1479.98C2524.79 1480.16 2523.17 1480.7 2521.72 1481.56C2519.93 1483.07 2518.51 1484.96 2517.56 1487.1C2515.32 1490.76 2512.1 1493.73 2508.26 1495.66C2504.43 1497.6 2500.13 1498.43 2495.85 1498.05C2485.65 1497.05 2482.31 1484.02 2472.56 1489.39C2461.27 1495.55 2455.23 1503.88 2440.49 1501.05C2435.41 1500.3 2430.25 1501.53 2426.07 1504.51C2422.05 1507.41 2417.83 1510.04 2413.45 1512.38C2408.59 1514.56 2403.28 1515.58 2397.95 1515.33C2390.61 1515.24 2383.33 1513.93 2376.41 1511.46C2369.33 1508.96 2360.87 1505.38 2354.96 1510.04C2349.04 1514.71 2351.33 1525.41 2358.04 1528.91C2361.54 1530.35 2365.38 1530.72 2369.09 1529.98C2372.8 1529.24 2376.2 1527.42 2378.87 1524.74C2381.16 1522.62 2384.41 1519.91 2386.95 1521.74C2389.49 1523.58 2386.95 1529.32 2389.2 1532.53C2390.07 1533.55 2391.26 1534.24 2392.57 1534.48C2393.88 1534.72 2395.24 1534.5 2396.41 1533.86C2398.69 1532.5 2400.86 1530.97 2402.91 1529.28C2405 1527.74 2407.53 1526.9 2410.12 1526.86C2412.72 1526.82 2415.27 1527.6 2417.41 1529.07C2418.39 1529.88 2419.17 1530.9 2419.7 1532.06C2420.23 1533.21 2420.48 1534.47 2420.44 1535.74C2420.41 1537.01 2420.08 1538.26 2419.49 1539.38C2418.9 1540.51 2418.06 1541.48 2417.03 1542.23C2415.09 1542.99 2413.08 1543.57 2411.03 1543.98C2408.9 1544.71 2407.05 1546.09 2405.75 1547.94C2404.46 1549.79 2403.79 1552 2403.83 1554.25C2403.88 1556.51 2404.64 1558.69 2406.01 1560.48C2407.38 1562.27 2409.29 1563.58 2411.45 1564.22C2413.93 1564.68 2416.43 1565.01 2418.95 1565.22C2421.82 1565.74 2424.47 1567.08 2426.61 1569.07C2428.74 1571.06 2430.26 1573.61 2430.99 1576.44C2431.72 1579.26 2431.62 1582.23 2430.71 1585C2429.8 1587.78 2428.12 1590.23 2425.86 1592.07C2425.01 1592.86 2423.96 1593.39 2422.82 1593.62C2418.66 1594.16 2416.74 1588.74 2414.49 1585.29C2408.2 1574.84 2391.66 1576 2383.7 1566.8C2380.83 1563.51 2379.29 1559.05 2375.79 1556.47C2372.29 1553.89 2365.58 1555.35 2365.87 1559.68C2366.16 1564.01 2371.04 1564.72 2374.21 1566.67C2376.84 1568.45 2378.84 1571.03 2379.91 1574.03C2380.97 1577.03 2381.05 1580.29 2380.12 1583.33C2378.11 1589.41 2373.81 1594.46 2368.12 1597.4C2367.62 1597.79 2367.04 1598.07 2366.42 1598.22C2365.81 1598.37 2365.17 1598.39 2364.54 1598.28C2362.96 1597.82 2362.25 1596.07 2361.17 1594.91C2358.04 1591.37 2352.17 1592.82 2348.33 1595.57C2344.5 1598.32 2341.09 1602.11 2336.46 1602.94C2328.67 1604.4 2322.05 1596.45 2320.51 1588.66C2318.96 1580.87 2320.51 1572.8 2319.38 1564.97C2317.7 1557.7 2313.48 1551.27 2307.47 1546.85C2306.78 1546.32 2305.9 1546.07 2305.03 1546.16C2304.16 1546.25 2303.36 1546.68 2302.8 1547.35C2302.38 1548.2 2302.21 1549.16 2302.3 1550.1C2302.29 1551.51 2302.5 1552.92 2302.93 1554.27C2304.05 1557.6 2307.09 1559.64 2309.76 1562.05C2312.42 1564.47 2314.38 1568.26 2312.72 1571.34C2308.34 1579.67 2295.26 1564.55 2288.34 1564.88C2287.37 1565.05 2286.37 1565.05 2285.39 1564.88C2269.64 1559.85 2277.05 1569.05 2270.06 1576.96C2263.64 1584.12 2240.02 1579.71 2231.77 1578C2225.77 1576.71 2219.98 1574.67 2213.94 1573.84C2192.4 1570.63 2171.86 1582.66 2153.03 1593.66C2150.74 1595.03 2145.53 1597.82 2142.83 1595.82C2140.12 1593.82 2143.91 1589.49 2141.74 1587.04C2140.24 1585.33 2136.87 1586.79 2135.41 1585.04C2133.95 1583.29 2135.2 1581.87 2135.79 1580.33C2136.37 1578.79 2136.04 1576.46 2134.37 1576.17C2133.63 1576.23 2132.94 1576.56 2132.41 1577.08C2127.56 1580.25 2123.84 1584.87 2121.79 1590.28C2120.33 1595.99 2122.7 1602.44 2120.12 1607.77C2118.37 1611.4 2114.71 1613.64 2112.21 1616.85C2108.67 1621.39 2107.83 1627.51 2105.21 1632.67C2103.26 1636.18 2100.63 1639.26 2097.48 1641.73C2094.32 1644.21 2090.71 1646.03 2086.84 1647.08C2079.07 1649.15 2070.95 1649.47 2063.05 1648C2059.29 1647.06 2055.35 1647.14 2051.63 1648.25C2048.3 1649.79 2046.34 1654.58 2048.93 1657.2C2049.59 1657.87 2050.51 1658.37 2050.84 1659.28C2051.17 1660.2 2050.22 1661.9 2049.22 1662.86C2045.51 1666.44 2039.18 1670.02 2035.84 1666.07C2035.09 1665.15 2034.59 1663.9 2033.47 1663.49C2031.01 1662.53 2029.59 1666.61 2030.76 1669.03C2031.93 1671.44 2034.14 1673.69 2033.43 1676.27C2032.9 1677.65 2031.95 1678.83 2030.72 1679.64L2021.85 1687.01C2020.1 1688.47 2017.68 1689.97 2015.72 1688.76C2013.76 1687.55 2013.85 1684.6 2011.97 1683.81C2010.1 1683.02 2007.18 1685.39 2007.39 1687.97C2007.91 1690.4 2009.07 1692.65 2010.76 1694.47C2011.59 1695.4 2012.17 1696.53 2012.45 1697.74C2012.72 1698.96 2012.69 1700.22 2012.35 1701.42C2010.81 1704.84 2006.02 1704.46 2002.27 1704.71C1998.52 1704.96 1994.18 1709.17 1996.93 1711.75C1997.87 1712.38 1998.89 1712.85 1999.97 1713.16C2000.87 1713.73 2001.64 1714.46 2002.24 1715.32C2002.85 1716.19 2003.28 1717.16 2003.51 1718.19C2003.74 1719.22 2003.76 1720.28 2003.58 1721.32C2003.39 1722.36 2003 1723.35 2002.43 1724.24C1999.96 1727.75 1996.36 1730.3 1992.23 1731.48C1990.43 1732.15 1988.35 1733.07 1988.06 1734.94C1987.35 1738.31 1992.23 1739.44 1995.35 1741.02C1996.42 1741.64 1997.34 1742.47 1998.07 1743.47C1998.81 1744.46 1999.32 1745.6 1999.6 1746.8C1999.87 1748 1999.89 1749.25 1999.66 1750.46C1999.44 1751.67 1998.96 1752.83 1998.27 1753.85C1996.31 1756.51 1992.77 1758.01 1992.02 1761.38C1991.8 1763.18 1992.08 1765.01 1992.81 1766.67L2003.06 1797.23C2004.68 1802.19 2003.06 1814.47 2007.22 1817.72C2009.27 1819 2011.43 1820.09 2013.68 1820.97C2015.76 1822.18 2017.85 1824.55 2016.89 1826.84C2014.43 1834.29 2002.22 1829.17 1994.64 1826.84L1959.36 1816.72C1944.99 1813.07 1931.04 1807.98 1917.7 1801.52C1910.82 1797.86 1903.53 1792.03 1903.95 1784.28C1904.39 1781.95 1904.63 1779.58 1904.66 1777.21C1904.16 1773.04 1899.99 1770 1896.74 1767.05C1890.41 1761.26 1886.49 1753.31 1885.74 1744.77C1885.08 1736.44 1887.16 1726.9 1881.58 1720.53C1878.33 1716.7 1873.25 1715.16 1869.08 1712.21C1858.5 1704.92 1855.75 1690.55 1847.75 1680.48C1843.92 1675.6 1838.83 1671.77 1835.25 1666.73C1827.5 1655.99 1826.92 1640.92 1818.25 1631.01C1811.13 1623.01 1799.34 1619.47 1794.09 1610.19C1791.55 1605.73 1790.76 1600.24 1787.22 1596.49C1782.82 1592.85 1777.3 1590.85 1771.6 1590.83L1753.6 1588.66C1749.72 1587.79 1745.67 1588.21 1742.06 1589.87C1739.06 1591.74 1737.39 1595.32 1734.39 1597.28C1730.23 1600.11 1724.14 1599.2 1720.1 1602.28C1712.94 1607.77 1717.31 1620.97 1710.4 1626.76C1708.86 1623.6 1703.81 1625.39 1701.73 1628.22C1699.65 1631.05 1697.98 1634.96 1694.48 1635.5C1690.98 1636.05 1688.69 1633.38 1686.4 1631.34C1677.11 1622.4 1665.39 1616.4 1652.7 1614.1C1649.59 1613.9 1646.58 1612.91 1643.95 1611.23C1638.2 1606.61 1640.7 1596.61 1635.62 1591.16C1627.95 1582.83 1617.66 1583.91 1616.79 1569.59C1616.37 1563.13 1617.54 1556.43 1615.41 1550.31C1612.16 1541.11 1602.04 1535.11 1600.21 1525.33C1599.98 1522.76 1599.59 1520.22 1599.04 1517.71C1596.46 1510.13 1586.79 1508.54 1579.63 1505.01C1575.98 1503.17 1572.76 1500.59 1570.17 1497.45C1567.57 1494.3 1565.66 1490.65 1564.55 1486.73C1562.63 1479.81 1561.84 1470.57 1554.88 1468.9C1552.84 1468.45 1550.71 1468.9 1548.63 1468.2C1542.26 1466.24 1543.51 1458.62 1540.01 1454.41C1536.51 1450.21 1533.3 1450.75 1527.18 1450.12Z" fill="white" stroke="#436AE5" stroke-linecap="round" stroke-linejoin="round"/>
<path d="M2001.39 567.483C2001.62 555.075 1999.59 542.729 1995.39 531.048C1993.1 525.774 1991.37 520.275 1990.23 514.642C1989.85 508.988 1990.03 503.311 1990.77 497.694C1991.76 481.412 1988.15 465.178 1980.35 450.849C1977.31 445.311 1973.31 439.606 1972.77 433.152C1972.23 426.698 1975.4 421.701 1973.73 415.705C1972.65 411.833 1970.02 409.959 1969.94 405.628C1969.94 398.758 1973.65 393.719 1971.19 386.474C1969.81 382.965 1968.08 379.603 1966.02 376.439C1951.86 376.439 1937.65 375.981 1923.49 376.022L1762.1 376.772C1741.27 376.772 1720.69 376.98 1699.94 376.772C1697.16 441.147 1694.47 505.536 1691.86 569.939C1794.97 574.228 1898.33 573.354 2001.39 567.483Z" fill="white" stroke="#436AE5" stroke-linecap="round" stroke-linejoin="round"/>
<path d="M2015.68 710.724L2012.18 617.117C2012.41 612.568 2011.46 608.038 2009.43 603.959C2007.68 601.086 2004.89 598.921 2003.06 596.089C1998.89 589.885 2000.35 581.807 2001.02 574.436C2001.23 572.104 2001.31 569.814 2001.39 567.482C1898.33 573.354 1794.97 574.228 1691.86 569.981C1689.31 630.664 1686.75 691.306 1684.2 751.906L1911.74 756.07C1916.61 755.9 1921.47 756.476 1926.16 757.777C1934.82 760.692 1941.9 768.478 1951.15 768.562C1955.09 768.217 1958.98 767.478 1962.77 766.355C1980.69 762.774 1997.44 774.35 2014.97 780.346C2014.18 777.348 2013.43 774.308 2012.68 771.31C2011.75 768.157 2011.25 764.894 2011.18 761.608C2011.54 757.902 2012.3 754.244 2013.43 750.698C2016.11 737.552 2016.87 724.087 2015.68 710.724Z" fill="white" stroke="#436AE5" stroke-linecap="round" stroke-linejoin="round"/>
<path d="M2066.68 924.17C2065.09 921.844 2063.18 919.755 2061.01 917.966C2055.93 913.802 2053.6 906.515 2052.26 899.894C2050.64 891.982 2051.01 883.779 2049.6 875.826C2048.14 869.347 2046.33 862.953 2044.18 856.672C2041.72 849.01 2039.31 841.348 2036.85 833.686C2034.75 826.58 2032.18 819.624 2029.14 812.867C2027.52 809.785 2025.52 806.912 2023.81 803.872C2019.82 796.465 2016.81 788.571 2014.85 780.387C1997.31 774.391 1980.57 762.815 1962.65 766.396C1958.86 767.519 1954.97 768.259 1951.03 768.603C1941.9 768.603 1934.82 760.733 1926.03 757.819C1921.34 756.517 1916.48 755.941 1911.62 756.111L1684.07 751.947C1682.32 794.17 1680.56 836.379 1678.78 878.574C1709.48 878.075 1739.48 879.865 1770.14 881.697C1769.81 901.768 1769.35 921.852 1768.77 941.95C1774.79 942.526 1780.84 942.707 1786.89 942.492L1948.7 939.577C1991.48 938.827 2034.14 935.413 2076.97 933.664C2073.03 931.095 2069.55 927.886 2066.68 924.17Z" fill="white" stroke="#436AE5" stroke-linecap="round" stroke-linejoin="round"/>
<path d="M2114.79 1034.35C2115.21 1021.07 2116.08 1004.16 2108.37 992.709C2103.08 984.673 2091.92 982.091 2091 971.14C2090.46 965.019 2094.08 959.106 2093.58 952.985C2092.88 944.116 2084.75 939.161 2076.92 933.664C2034.09 935.538 1991.43 938.827 1948.65 939.577L1786.84 942.492C1780.8 942.707 1774.74 942.526 1768.72 941.95C1766.89 1005.24 1763.93 1068.49 1760.93 1131.75C1777.18 1137.32 1797.17 1133.62 1814 1133.33C1854.21 1132.62 1894.16 1134.49 1934.36 1132.66L2120.41 1124.33C2116.18 1094.53 2114.3 1064.45 2114.79 1034.35Z" fill="white" stroke="#436AE5" stroke-linecap="round" stroke-linejoin="round"/>
<path d="M1221.02 382.892C1222.48 390.835 1225.09 398.522 1228.77 405.711C1237.56 425.157 1246.73 445.144 1262.1 459.843C1264.31 461.449 1265.93 463.751 1266.68 466.38C1266.66 469.28 1265.71 472.097 1263.97 474.417C1259.6 482.506 1258.39 491.926 1260.56 500.858C1261.55 503.429 1261.84 506.218 1261.39 508.937C1260.49 510.997 1259.22 512.874 1257.64 514.475C1253.23 520.096 1256.39 522.803 1255.27 529.09C1254.49 531.307 1254.19 533.663 1254.39 536.002C1255.77 541.541 1275.97 532.421 1280.85 543.206C1282.64 547.37 1281.6 552.075 1283.3 556.156C1285.43 561.236 1291.64 564.484 1291.64 570.022C1291.64 575.56 1286.35 579.683 1287.47 584.679C1288.51 588.843 1293.55 590.592 1296.72 593.59C1299.88 597.353 1301.88 601.954 1302.47 606.832C1303.06 611.72 1305.26 616.274 1308.72 619.782C1312.34 622.697 1317.47 619.782 1321.76 620.323C1324.42 620.698 1325.59 622.697 1328.51 622.863C1332.05 623.071 1335.25 620.448 1338.96 620.865C1345.92 621.614 1351.46 630.983 1357.83 628.235C1362.62 626.195 1362.87 619.157 1367.08 616.118C1373.75 611.371 1382.04 620.282 1387.08 623.863C1386.33 616.011 1386.33 608.105 1387.08 600.253C1387.21 599.064 1387.76 597.959 1388.62 597.13C1389.28 596.619 1390.05 596.267 1390.86 596.101C1391.68 595.935 1392.52 595.959 1393.33 596.172C1492.19 606.332 1591.09 616.534 1689.4 630.9C1692.99 546.26 1696.54 461.592 1700.07 376.896C1675.82 376.605 1651.58 375.855 1627.37 374.106C1571.17 369.942 1515.56 360.49 1460.07 350.663C1384.41 337.297 1308.88 323.514 1234.06 307.149C1230.65 323.111 1227.24 339.059 1223.86 354.994C1221.35 364.069 1220.39 373.5 1221.02 382.892Z" fill="white" stroke="#436AE5" stroke-linecap="round" stroke-linejoin="round"/>
<path d="M899.909 393.094C901.884 393.784 903.677 394.908 905.158 396.384C911.032 401.422 917.198 406.96 918.99 414.456C920.198 419.411 919.281 424.616 920.156 429.654C921.031 434.693 924.78 439.939 929.863 439.564C932.612 439.564 935.07 437.566 937.82 437.566C943.027 437.566 946.152 443.603 951.318 444.853C956.483 446.102 962.024 441.771 967.315 442.937C972.606 444.103 976.522 451.64 982.479 451.723C985.937 451.723 988.895 449.267 992.269 448.559C1000.27 446.935 1006.56 455.304 1014.27 457.844C1022.89 460.634 1033.14 456.012 1040.97 460.509C1044.76 462.633 1047.64 466.755 1051.97 467.255C1055.52 467.018 1058.98 466.039 1062.13 464.382C1068.4 463.087 1074.9 463.667 1080.84 466.047L1118 476.957C1130.92 481.087 1144.14 484.233 1157.53 486.368C1165.12 422.783 1179.2 360.199 1193.99 297.864C1118.05 280.648 1043.17 259.042 969.731 233.155C963.691 242.732 980.313 253.975 977.063 264.718C975.855 268.632 972.189 271.506 971.398 275.545C969.773 283.873 981.188 290.702 979.313 298.946C978.105 304.235 972.106 306.816 969.19 311.438C965.024 318.101 969.773 325.429 967.232 331.842C965.024 337.505 957.15 342.044 952.151 345.333C950.689 346.385 949.032 347.135 947.277 347.54C941.361 348.456 936.987 341.461 937.445 335.506C937.434 334.159 937.89 332.849 938.736 331.8C940.569 329.76 943.777 330.385 946.485 330.301C951.942 330.301 960.274 325.304 959.275 318.934C958.483 314.02 950.693 313.062 950.943 307.774C950.943 303.235 957.483 302.111 960.108 298.447C961.032 296.851 961.425 295.003 961.23 293.169C961.035 291.336 960.263 289.611 959.025 288.245C956.501 285.571 953.432 283.469 950.026 282.082L899.618 257.39C897.102 255.864 894.228 255.03 891.286 254.975C882.954 255.724 880.996 267.467 881.537 275.795L884.537 321.932C884.533 323.978 884.988 325.998 885.87 327.844C887.245 330.301 890.036 332.008 890.369 334.798C890.578 338.338 886.203 340.461 885.12 343.751C882.495 350.746 893.952 358.908 889.036 364.571C887.328 366.57 884.204 366.861 882.454 368.735C879.913 371.65 881.621 376.23 884.037 379.228C886.885 381.84 888.935 385.203 889.953 388.93C889.711 388.802 889.46 388.691 889.203 388.597C890.776 390.365 892.788 391.686 895.035 392.428C896.493 393.094 898.243 392.803 899.909 393.094Z" fill="white" stroke="#436AE5" stroke-linecap="round" stroke-linejoin="round"/>
<path d="M1133.08 615.66C1134.49 609.979 1134.11 604.004 1132 598.546C1130.91 596.339 1129.29 594.382 1128.21 592.175C1124.04 583.264 1130.16 573.021 1137 565.984C1143.83 558.946 1152.16 552.034 1153.66 542.29C1153.68 538.683 1154.13 535.091 1154.99 531.589C1157.03 526.259 1162.95 523.261 1166.07 518.639C1171.61 510.311 1167.03 498.818 1160.66 490.99C1159.41 489.449 1158.03 487.909 1156.49 486.368C1143.43 484.219 1130.53 481.13 1117.92 477.124L1080.75 466.214C1074.82 463.834 1068.31 463.254 1062.05 464.549C1058.9 466.206 1055.44 467.185 1051.88 467.422C1047.72 466.922 1044.68 462.8 1040.89 460.676C1033.05 456.179 1022.81 460.676 1014.18 458.011C1006.48 455.471 1000.18 447.102 992.186 448.726C988.811 449.433 985.854 451.973 982.396 451.89C976.439 451.89 973.064 444.353 967.232 443.104C961.399 441.855 956.525 446.31 951.234 445.02C945.943 443.729 942.902 437.691 937.737 437.733C934.987 437.733 932.529 439.565 929.779 439.731C924.697 440.106 920.948 434.818 920.073 429.821C919.198 424.824 920.073 419.578 918.906 414.622C917.115 407.127 910.949 401.589 905.075 396.551C903.594 395.075 901.8 393.951 899.826 393.261C898.16 392.803 896.41 392.97 894.743 392.553C892.496 391.811 890.484 390.49 888.911 388.722C886.539 387.935 883.979 387.914 881.594 388.661C879.209 389.409 877.12 390.887 875.622 392.886C872.575 397.205 870.552 402.161 869.706 407.377C859.912 446.387 845.14 483.977 825.755 519.222C818.631 532.172 810.882 544.83 804.925 558.405C801.8 565.734 803.633 570.272 800.467 577.559C796.196 587.689 794.232 598.641 794.718 609.622C795.239 614.229 795.239 618.881 794.718 623.488C793.803 627.038 792.634 630.517 791.219 633.898C894.95 672.35 1000.63 705.319 1107.83 732.668C1109.25 692.569 1126.79 655.093 1133.08 615.66Z" fill="#74B1F9" stroke="#436AE5" stroke-linecap="round" stroke-linejoin="round"/>
<path d="M1133.2 1317.5C1133.32 1313.62 1132.51 1309.76 1130.83 1306.26C1128.83 1300.55 1127.58 1294.6 1127.12 1288.56C1126.83 1286.83 1127.09 1285.05 1127.87 1283.48C1129.09 1282.07 1130.58 1280.91 1132.24 1280.07C1139.08 1275.24 1138.95 1264.78 1144.37 1258.41C1147.91 1254.25 1153.41 1252.33 1157.91 1249.21C1162.41 1246.09 1166.24 1240.47 1164.11 1235.43C1162.57 1231.76 1158.53 1230.02 1155.57 1227.39C1147.62 1220.31 1148.49 1210.07 1149.62 1199.49C1117.99 1157.03 1088.79 1112.82 1062.13 1067.08C1041.97 1033.35 1019.22 1001.29 996.724 969.099C977.686 941.909 958.814 914.968 940.317 887.444C939.298 886.143 938.573 884.637 938.192 883.03C937.985 881.775 937.985 880.495 938.192 879.24C943.442 845.929 949.232 813.866 956.939 781.178C963.605 752.78 970.159 724.368 976.603 695.942C914.141 677.12 852.318 656.384 791.133 633.731C790.111 636.385 789.643 639.219 789.758 642.059C790.175 647.098 793.424 651.637 793.424 656.675C793.424 664.254 786.301 669.833 783.718 676.954C780.926 684.865 783.718 694.234 780.135 701.938C776.552 709.641 766.887 712.722 762.763 720.093C758.638 727.463 760.888 736.749 764.637 744.202C768.387 751.656 773.553 758.735 775.386 766.938C776.49 773.009 776.49 779.229 775.386 785.301C772.095 809.077 765.179 835.269 777.927 855.631C782.093 862.168 791.675 868.497 788.425 875.535C785.656 881.904 785.027 889 786.635 895.757C788.242 902.515 791.999 908.568 797.34 913.01C801.881 910.387 810.63 899.353 810.297 911.886L809.922 928.251C809.969 928.881 809.776 929.506 809.38 930C808.894 930.335 808.297 930.469 807.714 930.374C801.131 930.374 799.382 930.916 798.84 937.87C798.248 944.685 799.108 951.549 801.363 958.009C803.618 964.468 807.216 970.377 811.921 975.345C817.254 980.925 824.419 987.13 822.67 994.625C821.03 998.133 819.019 1001.46 816.671 1004.54C813.046 1011.28 815.254 1019.69 818.837 1026.52C822.42 1033.35 827.169 1039.55 829.127 1047.01C829.769 1052.37 830.87 1057.66 832.418 1062.83C834.138 1066.09 836.266 1069.11 838.75 1071.83C846.051 1080.9 851.321 1091.44 854.206 1102.72C855.464 1107.16 855.984 1111.77 855.748 1116.38C855.081 1124.71 850.665 1133.04 852.04 1141.36C854.164 1154.27 868.704 1160.93 881.493 1163.43C887.422 1164.06 893.176 1165.82 898.449 1168.6C902.651 1171.66 906.158 1175.58 908.739 1180.09C915.738 1190.75 922.862 1202.66 934.86 1207.11C940.692 1209.32 948.357 1210.36 950.315 1216.32C951.44 1219.65 950.315 1223.56 951.607 1226.77C953.648 1231.43 959.939 1232.14 964.605 1233.76C977.978 1238.34 984.352 1253.21 989.184 1266.53C992.517 1275.57 995.85 1285.23 993.933 1294.68C992.975 1299.18 991.975 1305.72 996.433 1306.8L1000.6 1302.05C1001.32 1308.6 1002.55 1315.07 1004.31 1321.41C1041.11 1324.36 1077.89 1328.6 1114.66 1334.16C1114.08 1334.16 1113.91 1334.45 1114.08 1335.11C1115.34 1333.95 1116.74 1332.94 1118.25 1332.12C1124.29 1328.41 1132.16 1324.7 1133.2 1317.5Z" fill="white" stroke="#436AE5" stroke-linecap="round" stroke-linejoin="round"/>
<path d="M1385.32 660.589C1387.06 648.09 1387.37 635.433 1386.24 622.864C1381.16 618.949 1373.74 611.662 1367.49 616.035C1363.33 619.074 1363.04 626.111 1358.25 628.152C1351.79 630.9 1346.33 621.531 1339.37 620.782C1335.67 620.365 1332.46 622.989 1328.92 622.78C1326 622.78 1324.75 620.615 1322.17 620.24C1318 619.657 1312.75 622.614 1309.13 619.699C1305.67 616.191 1303.47 611.637 1302.88 606.749C1302.29 601.871 1300.29 597.27 1297.13 593.507C1293.96 590.509 1288.8 588.844 1287.88 584.597C1286.63 579.6 1292.05 575.103 1292.05 569.939C1292.05 564.776 1285.72 561.153 1283.72 556.073C1282.01 551.909 1283.05 547.121 1281.26 543.123C1276.38 532.338 1256.26 541.458 1254.8 535.919C1254.61 533.579 1254.9 531.224 1255.68 529.007C1256.8 522.803 1253.64 520.013 1258.05 514.392C1259.63 512.791 1260.9 510.914 1261.8 508.853C1262.25 506.135 1261.96 503.346 1260.97 500.775C1258.8 491.842 1260.02 482.423 1264.39 474.334C1266.13 472.014 1267.08 469.197 1267.09 466.297C1266.34 463.668 1264.73 461.366 1262.51 459.76C1246.97 445.144 1237.81 425.157 1229.18 405.628C1225.5 398.439 1222.89 390.752 1221.43 382.809C1220.76 373.396 1221.67 363.936 1224.14 354.827C1227.56 338.893 1230.96 322.945 1234.35 306.983C1221.02 304.068 1207.7 301.056 1194.4 297.947C1179.61 360.407 1165.53 422.867 1157.95 486.451H1156.99C1158.36 487.992 1159.74 489.533 1161.15 491.073C1167.53 498.902 1172.11 510.311 1166.57 518.722C1163.44 523.511 1157.53 526.342 1155.49 531.672C1154.62 535.174 1154.18 538.766 1154.15 542.374C1152.74 552.117 1144.41 559.03 1137.49 566.067C1130.57 573.104 1124.53 583.347 1128.7 592.258C1129.78 594.465 1131.41 596.422 1132.49 598.629C1134.6 604.087 1134.98 610.063 1133.57 615.743C1127.41 654.177 1110.66 690.695 1108.58 729.545C1112.72 731.062 1116.96 732.259 1121.28 733.126L1367.79 785.884V786.259C1371.95 769.603 1373.83 752.197 1376.41 734.958C1380.28 710.266 1382.7 685.448 1385.32 660.589Z" fill="white" stroke="#436AE5" stroke-linecap="round" stroke-linejoin="round"/>
<path d="M1393.2 596.006C1392.4 595.835 1391.57 595.848 1390.78 596.043C1389.99 596.237 1389.25 596.609 1388.62 597.13C1387.92 598.051 1387.55 599.181 1387.58 600.336C1386.83 608.188 1386.83 616.094 1387.58 623.946C1387.14 623.668 1386.72 623.362 1386.33 623.03C1387.46 635.599 1387.15 648.256 1385.41 660.756C1382.79 685.74 1380.16 710.432 1376.45 735.125C1373.87 752.364 1372.04 769.603 1367.83 786.425C1366 806.301 1364.15 826.191 1362.29 846.095C1460.27 861.87 1558.99 872.613 1658.07 878.283C1665.02 878.906 1672.01 878.71 1678.9 877.7C1682.35 795.419 1685.79 713.153 1689.24 630.9C1590.96 616.368 1492.06 606.166 1393.2 596.006Z" fill="white" stroke="#436AE5" stroke-linecap="round" stroke-linejoin="round"/>
<path d="M1146.37 1139.12C1145.57 1133.58 1144.78 1126.96 1149.03 1123.29C1156.86 1116.59 1168.86 1129 1178.65 1125.75C1185.61 1123.5 1187.69 1114.88 1188.69 1107.68C1196.44 1051.09 1200.61 993.75 1210.44 937.661L1227.94 837.725C1232.64 810.951 1238.14 785.093 1238.98 758.36L1120.79 733.084C1116.47 732.217 1112.22 731.02 1108.08 729.503C1108.08 730.503 1108.08 731.502 1108.08 732.501C1064.03 721.397 1020.26 709.211 976.769 695.941C970.298 724.395 963.743 752.808 957.106 781.178C949.399 813.866 943.608 846.012 938.359 879.24C938.151 880.495 938.151 881.775 938.359 883.03C938.739 884.637 939.464 886.143 940.483 887.443C958.98 915.009 977.977 941.908 996.891 969.099C1019.39 1001.29 1042.13 1033.35 1062.3 1067.08C1087.4 1109.94 1114.69 1151.48 1144.08 1191.54C1148.21 1174.38 1148.99 1156.57 1146.37 1139.12Z" fill="white" stroke="#436AE5" stroke-linecap="round" stroke-linejoin="round"/>
<path d="M1678.9 878.532V877.533C1672.01 878.544 1665.02 878.739 1658.07 878.116C1589.61 874.202 1521.36 867.845 1453.32 859.045C1444.57 941.659 1436.24 1024.29 1428.32 1106.93C1515.81 1118.54 1603.58 1127.12 1691.74 1130.33C1700.04 1130.28 1708.31 1131.39 1716.31 1133.62C1716.61 1132.87 1716.9 1132.41 1717.19 1132.41C1731.6 1133.37 1746.35 1132.66 1760.77 1132.41C1764.93 1048.84 1768.68 965.268 1769.97 881.614C1739.6 879.823 1709.61 878.033 1678.9 878.532Z" fill="white" stroke="#436AE5" stroke-linecap="round" stroke-linejoin="round"/>
<path d="M1453.4 859.045C1422.85 855.131 1392.45 850.759 1362.2 845.929C1364.09 825.886 1365.95 805.871 1367.79 785.884L1238.97 758.318C1238.14 785.051 1232.64 810.91 1227.93 837.684L1210.44 937.62C1202.77 981.258 1198.56 1025.65 1193.4 1069.83C1271.55 1083.57 1349.96 1096.48 1428.61 1106.89C1436.41 1024.24 1444.68 941.631 1453.4 859.045Z" fill="white" stroke="#436AE5" stroke-linecap="round" stroke-linejoin="round"/>
</g>
<g filter="url(#filter0_d_5_66953)">
<ellipse cx="918.227" cy="448.573" rx="20.5472" ry="20.5453" fill="white"/>
<path d="M935.774 448.573C935.774 458.262 927.918 466.118 918.227 466.118C908.536 466.118 900.68 458.262 900.68 448.573C900.68 438.883 908.536 431.027 918.227 431.027C927.918 431.027 935.774 438.883 935.774 448.573Z" stroke="#FF7D01" stroke-width="6"/>
</g>
</g>
<g filter="url(#filter1_d_5_66953)">
<rect x="939" y="306.842" width="284" height="104" rx="25" fill="white"/>
</g>
<path d="M983.76 339.576C985.068 340.878 985.723 342.633 985.723 344.84C985.723 347.053 985.068 348.805 983.76 350.094C982.458 351.389 980.69 352.037 978.457 352.037C976.224 352.037 974.46 351.389 973.164 350.094C971.855 348.805 971.201 347.053 971.201 344.84C971.201 342.633 971.855 340.878 973.164 339.576C974.466 338.287 976.23 337.643 978.457 337.643C980.684 337.643 982.451 338.287 983.76 339.576ZM978.467 349.244C979.723 349.244 980.697 348.831 981.387 348.004C982.077 347.177 982.422 346.122 982.422 344.84C982.422 343.564 982.077 342.512 981.387 341.686C980.697 340.859 979.723 340.445 978.467 340.445C977.21 340.445 976.237 340.859 975.547 341.686C974.85 342.519 974.502 343.57 974.502 344.84C974.502 346.116 974.85 347.171 975.547 348.004C976.237 348.831 977.21 349.244 978.467 349.244ZM994.834 341.646L995.83 341.744V344.918C995.4 344.716 994.821 344.618 994.092 344.625C993.161 344.625 992.445 344.885 991.943 345.406C991.442 345.94 991.191 346.611 991.191 347.418V351.842H988.311V341.842H991.191V343.678H991.357C991.462 343.443 991.608 343.209 991.797 342.975C991.986 342.734 992.197 342.525 992.432 342.35C992.699 342.154 993.047 341.988 993.477 341.852C993.906 341.715 994.359 341.646 994.834 341.646ZM1008.52 346.842L1008.46 347.604H1000.16C1000.16 348.202 1000.39 348.717 1000.87 349.146C1001.33 349.583 1002 349.801 1002.87 349.801C1003.37 349.801 1003.81 349.716 1004.2 349.547C1004.57 349.378 1004.81 349.208 1004.93 349.039L1005.12 348.805H1008.27C1008.26 348.896 1008.23 349.01 1008.18 349.146C1008.13 349.309 1007.99 349.566 1007.75 349.918C1007.51 350.302 1007.21 350.634 1006.87 350.914C1006.49 351.207 1005.96 351.464 1005.27 351.686C1004.56 351.92 1003.76 352.037 1002.87 352.037C1001.17 352.037 999.782 351.578 998.721 350.66C997.66 349.742 997.129 348.469 997.129 346.842C997.129 345.214 997.656 343.941 998.711 343.023C999.766 342.105 1001.14 341.646 1002.83 341.646C1004.51 341.646 1005.88 342.105 1006.93 343.023C1007.99 343.941 1008.52 345.214 1008.52 346.842ZM1004.78 344.498C1004.31 344.088 1003.67 343.883 1002.83 343.883C1002 343.883 1001.35 344.091 1000.9 344.508C1000.43 344.931 1000.2 345.377 1000.2 345.846H1005.45C1005.45 345.364 1005.22 344.915 1004.78 344.498ZM1010.91 344.986C1010.91 343.945 1011.34 343.128 1012.21 342.535C1013.06 341.943 1014.22 341.646 1015.67 341.646H1021.88V343.639H1020.03C1020.31 343.893 1020.45 344.374 1020.45 345.084C1020.45 346.126 1020.02 346.926 1019.16 347.486C1018.29 348.046 1017.13 348.326 1015.67 348.326C1014.24 348.326 1013.52 348.564 1013.52 349.039C1013.52 349.521 1014.24 349.762 1015.67 349.762C1017.57 349.762 1018.99 350.025 1019.93 350.553C1020.88 351.08 1021.35 351.871 1021.35 352.926C1021.35 355.003 1019.46 356.041 1015.67 356.041C1011.9 356.041 1010.01 355.003 1010.01 352.926C1010.01 352.568 1010.07 352.229 1010.21 351.91C1010.34 351.591 1010.5 351.334 1010.7 351.139C1011.07 350.787 1011.42 350.543 1011.77 350.406L1011.97 350.318V350.24C1011.78 350.156 1011.6 349.98 1011.43 349.713C1011.28 349.511 1011.21 349.286 1011.21 349.039C1011.21 348.733 1011.31 348.463 1011.5 348.229C1011.69 347.994 1011.88 347.838 1012.09 347.76L1012.39 347.623V347.564C1012.29 347.525 1012.13 347.405 1011.88 347.203C1011.7 347.053 1011.55 346.897 1011.44 346.734C1011.29 346.552 1011.17 346.301 1011.06 345.982C1010.96 345.657 1010.91 345.325 1010.91 344.986ZM1018.37 352.926C1018.37 352.216 1017.47 351.861 1015.67 351.861C1013.87 351.861 1012.97 352.216 1012.97 352.926C1012.97 353.629 1013.87 353.98 1015.67 353.98C1017.47 353.98 1018.37 353.629 1018.37 352.926ZM1017.47 344.996C1017.47 344.091 1016.87 343.639 1015.67 343.639C1014.47 343.639 1013.87 344.091 1013.87 344.996C1013.87 345.908 1014.47 346.363 1015.67 346.363C1016.87 346.363 1017.47 345.908 1017.47 344.996ZM1028.77 352.037C1027.08 352.037 1025.7 351.578 1024.65 350.66C1023.59 349.742 1023.07 348.469 1023.07 346.842C1023.07 345.214 1023.59 343.941 1024.65 343.023C1025.7 342.105 1027.08 341.646 1028.77 341.646C1030.46 341.646 1031.84 342.105 1032.89 343.023C1033.95 343.941 1034.47 345.214 1034.47 346.842C1034.47 348.469 1033.95 349.742 1032.89 350.66C1031.84 351.578 1030.46 352.037 1028.77 352.037ZM1028.77 349.566C1029.62 349.566 1030.29 349.312 1030.78 348.805C1031.27 348.297 1031.51 347.643 1031.51 346.842C1031.51 346.041 1031.27 345.387 1030.78 344.879C1030.29 344.371 1029.62 344.117 1028.77 344.117C1027.91 344.117 1027.24 344.371 1026.77 344.879C1026.28 345.387 1026.04 346.041 1026.04 346.842C1026.04 347.643 1026.28 348.297 1026.77 348.805C1027.24 349.312 1027.91 349.566 1028.77 349.566ZM1047.71 351.842H1044.82V346.803C1044.82 345.963 1044.6 345.322 1044.15 344.879C1043.71 344.43 1043.09 344.205 1042.29 344.205C1041.47 344.205 1040.85 344.443 1040.41 344.918C1039.97 345.4 1039.75 346.028 1039.75 346.803V351.842H1036.87V341.842H1039.75V343.502H1039.91C1039.98 343.346 1040.14 343.131 1040.37 342.857C1040.57 342.636 1040.79 342.447 1041.02 342.291C1041.28 342.109 1041.64 341.956 1042.09 341.832C1042.54 341.708 1043.01 341.646 1043.51 341.646C1044.76 341.646 1045.78 342.008 1046.55 342.73C1047.32 343.46 1047.71 344.55 1047.71 346.002V351.842Z" fill="#272727"/>
<path d="M973.419 368.33L970.721 370.457V368.55L973.568 366.238H975.115V378.842H973.419V368.33ZM992.772 378.842H990.707L988.439 371.679H988.36L986.093 378.842H984.027L981.417 370.018H982.981L985.056 377.146H985.126L987.394 370.018H989.406L991.674 377.146H991.753L993.818 370.018H995.383L992.772 378.842ZM996.745 376.372C996.745 375.47 997.129 374.802 997.896 374.368C998.658 373.94 999.637 373.727 1000.83 373.727C1001.44 373.727 1002 373.8 1002.52 373.946C1003.06 374.099 1003.44 374.242 1003.65 374.377L1004 374.597V373.208C1004 372.61 1003.78 372.142 1003.34 371.802C1002.9 371.456 1002.24 371.283 1001.35 371.283C999.587 371.283 998.705 371.764 998.705 372.725H997.158C997.164 371.752 997.56 371.028 998.345 370.554C999.124 370.079 1000.13 369.842 1001.35 369.842C1002.58 369.842 1003.59 370.129 1004.37 370.703C1005.14 371.283 1005.54 372.118 1005.54 373.208V376.416C1005.54 376.861 1005.6 377.172 1005.72 377.348C1005.84 377.518 1006.03 377.603 1006.3 377.603C1006.53 377.603 1006.69 377.57 1006.76 377.506L1006.8 377.488V378.877C1006.62 378.971 1006.35 379.018 1006.01 379.018C1005.42 379.018 1004.99 378.892 1004.71 378.64C1004.49 378.452 1004.32 378.256 1004.22 378.051L1004.17 377.945H1004.1C1003.96 378.092 1003.81 378.215 1003.65 378.314C1003.47 378.438 1003.27 378.546 1003.06 378.64C1002.48 378.892 1001.78 379.018 1000.96 379.018C999.707 379.018 998.693 378.804 997.914 378.376C997.135 377.954 996.745 377.286 996.745 376.372ZM1001.18 375.168C999.279 375.168 998.327 375.569 998.327 376.372C998.327 377.181 999.279 377.585 1001.18 377.585C1001.75 377.585 1002.26 377.523 1002.72 377.4C1003.18 377.289 1003.49 377.184 1003.66 377.084C1003.82 377.002 1003.93 376.929 1004 376.864V375.854C1003.93 375.789 1003.82 375.716 1003.66 375.634C1003.46 375.54 1003.15 375.44 1002.73 375.335C1002.28 375.224 1001.76 375.168 1001.18 375.168ZM1013.39 369.842C1013.74 369.842 1014.05 369.877 1014.32 369.947L1014.45 369.965V371.661C1014.11 371.544 1013.67 371.482 1013.12 371.477C1012.17 371.477 1011.42 371.778 1010.88 372.382C1010.33 372.985 1010.06 373.741 1010.06 374.649V378.842H1008.51V370.018H1010.06V371.731H1010.15C1010.24 371.544 1010.38 371.324 1010.58 371.072C1010.76 370.85 1010.96 370.656 1011.19 370.492C1011.44 370.316 1011.76 370.164 1012.15 370.035C1012.55 369.906 1012.96 369.842 1013.39 369.842ZM1025.28 374.43L1025.23 375.168H1017.26C1017.26 375.672 1017.56 376.199 1018.16 376.75C1018.75 377.307 1019.54 377.585 1020.54 377.585C1021.27 377.585 1021.87 377.447 1022.34 377.172C1022.73 376.938 1023 376.727 1023.15 376.539L1023.22 376.416H1025.04C1025 376.504 1024.96 376.595 1024.92 376.688C1024.85 376.823 1024.7 377.031 1024.49 377.312C1024.26 377.611 1024 377.878 1023.69 378.112C1023.4 378.341 1022.97 378.549 1022.4 378.736C1021.86 378.924 1021.24 379.018 1020.54 379.018C1019.08 379.018 1017.89 378.602 1016.99 377.77C1016.07 376.938 1015.61 375.824 1015.61 374.43C1015.61 373.047 1016.06 371.937 1016.98 371.099C1017.89 370.261 1019.04 369.842 1020.45 369.842C1021.84 369.842 1023 370.261 1023.92 371.099C1024.83 371.937 1025.28 373.047 1025.28 374.43ZM1022.79 372.118C1022.2 371.562 1021.42 371.283 1020.45 371.283C1019.46 371.283 1018.69 371.562 1018.11 372.118C1017.53 372.675 1017.24 373.223 1017.24 373.762H1023.65C1023.65 373.223 1023.36 372.675 1022.79 372.118ZM1036.49 378.842H1034.94V374.289C1034.94 373.258 1034.68 372.499 1034.16 372.013C1033.64 371.526 1032.94 371.283 1032.06 371.283C1031.13 371.283 1030.42 371.559 1029.93 372.109C1029.43 372.66 1029.19 373.387 1029.19 374.289V378.842H1027.64V366.238H1029.19V371.371H1029.27C1029.4 371.172 1029.54 370.993 1029.7 370.835C1029.9 370.659 1030.1 370.504 1030.31 370.369C1030.55 370.223 1030.87 370.1 1031.27 370C1031.67 369.895 1032.08 369.842 1032.52 369.842C1033.65 369.842 1034.6 370.182 1035.36 370.861C1036.11 371.547 1036.49 372.569 1036.49 373.929V378.842ZM1040.11 377.761C1039.2 376.923 1038.74 375.812 1038.74 374.43C1038.74 373.053 1039.2 371.942 1040.11 371.099C1041.02 370.261 1042.18 369.842 1043.58 369.842C1044.98 369.842 1046.13 370.261 1047.05 371.099C1047.96 371.942 1048.42 373.053 1048.42 374.43C1048.42 375.812 1047.96 376.923 1047.05 377.761C1046.13 378.599 1044.98 379.018 1043.58 379.018C1042.18 379.018 1041.02 378.599 1040.11 377.761ZM1045.95 376.697C1046.54 376.105 1046.83 375.35 1046.83 374.43C1046.83 373.51 1046.54 372.754 1045.95 372.162C1045.35 371.576 1044.57 371.283 1043.58 371.283C1042.59 371.283 1041.8 371.576 1041.22 372.162C1040.62 372.748 1040.32 373.504 1040.32 374.43C1040.32 375.355 1040.62 376.111 1041.22 376.697C1041.81 377.289 1042.6 377.585 1043.58 377.585C1044.55 377.585 1045.34 377.289 1045.95 376.697ZM1050.77 370.018H1052.32V374.579C1052.32 375.61 1052.58 376.369 1053.1 376.855C1053.62 377.342 1054.32 377.585 1055.19 377.585C1056.11 377.585 1056.82 377.307 1057.33 376.75C1057.83 376.199 1058.08 375.476 1058.08 374.579V370.018H1059.62V378.842H1058.08V377.488H1057.99C1057.87 377.676 1057.73 377.854 1057.56 378.024C1057.36 378.206 1057.16 378.361 1056.95 378.49C1056.71 378.643 1056.39 378.769 1055.99 378.868C1055.59 378.968 1055.18 379.018 1054.74 379.018C1053.6 379.018 1052.65 378.675 1051.91 377.989C1051.15 377.315 1050.77 376.299 1050.77 374.939V370.018ZM1068.97 376.231C1068.97 375.886 1068.81 375.619 1068.47 375.432C1068.13 375.238 1067.71 375.13 1067.22 375.106C1066.71 375.077 1066.16 375.024 1065.57 374.948C1064.94 374.872 1064.39 374.781 1063.92 374.676C1063.42 374.57 1063 374.333 1062.66 373.964C1062.32 373.601 1062.15 373.114 1062.15 372.505C1062.15 371.62 1062.53 370.952 1063.29 370.501C1064.04 370.062 1065.02 369.842 1066.22 369.842C1067.44 369.842 1068.43 370.088 1069.18 370.58C1069.92 371.072 1070.29 371.846 1070.29 372.9H1068.71C1068.71 372.35 1068.51 371.942 1068.11 371.679C1067.72 371.415 1067.09 371.283 1066.22 371.283C1064.56 371.283 1063.74 371.69 1063.74 372.505C1063.74 372.839 1063.91 373.094 1064.25 373.27C1064.58 373.451 1065 373.554 1065.5 373.577C1065.96 373.601 1066.52 373.65 1067.15 373.727C1067.76 373.809 1068.31 373.905 1068.8 374.017C1069.3 374.14 1069.72 374.386 1070.06 374.755C1070.4 375.136 1070.56 375.628 1070.56 376.231C1070.56 376.888 1070.36 377.433 1069.94 377.866C1069.53 378.294 1069.01 378.593 1068.39 378.763C1067.79 378.933 1067.08 379.018 1066.26 379.018C1064.54 379.018 1063.32 378.596 1062.58 377.752C1062.17 377.271 1061.96 376.674 1061.96 375.959V375.678H1063.54V375.959C1063.54 377.037 1064.45 377.576 1066.26 377.576C1068.07 377.588 1068.97 377.14 1068.97 376.231ZM1082.22 374.43L1082.17 375.168H1074.19C1074.19 375.672 1074.49 376.199 1075.09 376.75C1075.68 377.307 1076.48 377.585 1077.47 377.585C1078.21 377.585 1078.81 377.447 1079.27 377.172C1079.66 376.938 1079.93 376.727 1080.08 376.539L1080.15 376.416H1081.97C1081.94 376.504 1081.9 376.595 1081.86 376.688C1081.78 376.823 1081.64 377.031 1081.43 377.312C1081.2 377.611 1080.93 377.878 1080.63 378.112C1080.33 378.341 1079.9 378.549 1079.34 378.736C1078.8 378.924 1078.18 379.018 1077.47 379.018C1076.01 379.018 1074.83 378.602 1073.92 377.77C1073 376.938 1072.54 375.824 1072.54 374.43C1072.54 373.047 1073 371.937 1073.91 371.099C1074.82 370.261 1075.98 369.842 1077.38 369.842C1078.78 369.842 1079.94 370.261 1080.86 371.099C1081.76 371.937 1082.22 373.047 1082.22 374.43ZM1079.72 372.118C1079.14 371.562 1078.36 371.283 1077.38 371.283C1076.4 371.283 1075.62 371.562 1075.05 372.118C1074.47 372.675 1074.18 373.223 1074.18 373.762H1080.58C1080.58 373.223 1080.3 372.675 1079.72 372.118ZM1091.11 369.666V370.018H1093.7V371.424H1091.11V378.842H1089.56V371.424H1088.08V370.562L1089.56 370.018V369.464C1089.56 368.333 1089.87 367.483 1090.51 366.915C1091.13 366.347 1091.98 366.062 1093.06 366.062C1093.37 366.062 1093.69 366.104 1094 366.186C1094.32 366.273 1094.56 366.353 1094.71 366.423L1094.93 366.546V367.935C1094.54 367.589 1094 367.416 1093.32 367.416C1092.59 367.416 1092.04 367.592 1091.67 367.943C1091.3 368.289 1091.11 368.863 1091.11 369.666ZM1096.55 377.761C1095.64 376.923 1095.18 375.812 1095.18 374.43C1095.18 373.053 1095.64 371.942 1096.55 371.099C1097.46 370.261 1098.62 369.842 1100.03 369.842C1101.42 369.842 1102.58 370.261 1103.5 371.099C1104.41 371.942 1104.86 373.053 1104.86 374.43C1104.86 375.812 1104.41 376.923 1103.5 377.761C1102.58 378.599 1101.42 379.018 1100.03 379.018C1098.62 379.018 1097.46 378.599 1096.55 377.761ZM1102.39 376.697C1102.98 376.105 1103.28 375.35 1103.28 374.43C1103.28 373.51 1102.98 372.754 1102.39 372.162C1101.8 371.576 1101.01 371.283 1100.03 371.283C1099.04 371.283 1098.25 371.576 1097.66 372.162C1097.06 372.748 1096.76 373.504 1096.76 374.43C1096.76 375.355 1097.06 376.111 1097.66 376.697C1098.25 377.289 1099.04 377.585 1100.03 377.585C1101 377.585 1101.79 377.289 1102.39 376.697ZM1107.21 370.018H1108.76V374.579C1108.76 375.61 1109.02 376.369 1109.54 376.855C1110.07 377.342 1110.76 377.585 1111.64 377.585C1112.56 377.585 1113.27 377.307 1113.77 376.75C1114.27 376.199 1114.52 375.476 1114.52 374.579V370.018H1116.07V378.842H1114.52V377.488H1114.43C1114.31 377.676 1114.17 377.854 1114 378.024C1113.81 378.206 1113.6 378.361 1113.39 378.49C1113.15 378.643 1112.83 378.769 1112.44 378.868C1112.04 378.968 1111.62 379.018 1111.19 379.018C1110.04 379.018 1109.09 378.675 1108.35 377.989C1107.59 377.315 1107.21 376.299 1107.21 374.939V370.018ZM1127.61 378.842H1126.07V374.289C1126.07 373.258 1125.81 372.499 1125.29 372.013C1124.76 371.526 1124.06 371.283 1123.18 371.283C1122.26 371.283 1121.55 371.559 1121.06 372.109C1120.56 372.66 1120.31 373.387 1120.31 374.289V378.842H1118.76V370.018H1120.31V371.371H1120.4C1120.52 371.172 1120.67 370.993 1120.83 370.835C1121.02 370.659 1121.22 370.504 1121.44 370.369C1121.68 370.223 1122 370.1 1122.39 370C1122.79 369.895 1123.21 369.842 1123.64 369.842C1124.78 369.842 1125.73 370.182 1126.49 370.861C1127.24 371.547 1127.61 372.569 1127.61 373.929V378.842ZM1137.99 366.238H1139.54V378.842H1137.99V377.523H1137.92C1137.83 377.676 1137.66 377.852 1137.42 378.051C1137.22 378.215 1137 378.364 1136.76 378.499C1136.51 378.64 1136.18 378.76 1135.77 378.859C1135.37 378.965 1134.96 379.018 1134.54 379.018C1133.21 379.018 1132.1 378.596 1131.21 377.752C1130.31 376.908 1129.86 375.801 1129.86 374.43C1129.86 373.07 1130.31 371.963 1131.21 371.107C1132.1 370.264 1133.21 369.842 1134.54 369.842C1135.25 369.842 1135.89 369.968 1136.45 370.22C1137 370.472 1137.39 370.718 1137.62 370.958L1137.92 371.336H1137.99V366.238ZM1132.34 372.171C1131.75 372.769 1131.45 373.521 1131.45 374.43C1131.45 375.344 1131.75 376.097 1132.34 376.688C1132.93 377.286 1133.73 377.585 1134.72 377.585C1135.72 377.585 1136.51 377.286 1137.11 376.688C1137.7 376.097 1137.99 375.344 1137.99 374.43C1137.99 373.492 1137.69 372.733 1137.09 372.153C1136.49 371.573 1135.7 371.283 1134.72 371.283C1133.73 371.283 1132.93 371.579 1132.34 372.171Z" fill="#436AE5"/>
</g>
<defs>
<filter id="filter0_d_5_66953" x="877.68" y="418.027" width="81.0938" height="81.0908" filterUnits="userSpaceOnUse" color-interpolation-filters="sRGB">
<feFlood flood-opacity="0" result="BackgroundImageFix"/>
<feColorMatrix in="SourceAlpha" type="matrix" values="0 0 0 0 0 0 0 0 0 0 0 0 0 0 0 0 0 0 127 0" result="hardAlpha"/>
<feOffset dy="10"/>
<feGaussianBlur stdDeviation="10"/>
<feComposite in2="hardAlpha" operator="out"/>
<feColorMatrix type="matrix" values="0 0 0 0 0.246875 0 0 0 0 0.367998 0 0 0 0 0.75 0 0 0 0.7 0"/>
<feBlend mode="normal" in2="BackgroundImageFix" result="effect1_dropShadow_5_66953"/>
<feBlend mode="normal" in="SourceGraphic" in2="effect1_dropShadow_5_66953" result="shape"/>
</filter>
<filter id="filter1_d_5_66953" x="899" y="280.842" width="364" height="184" filterUnits="userSpaceOnUse" color-interpolation-filters="sRGB">
<feFlood flood-opacity="0" result="BackgroundImageFix"/>
<feColorMatrix in="SourceAlpha" type="matrix" values="0 0 0 0 0 0 0 0 0 0 0 0 0 0 0 0 0 0 127 0" result="hardAlpha"/>
<feOffset dy="14"/>
<feGaussianBlur stdDeviation="20"/>
<feComposite in2="hardAlpha" operator="out"/>
<feColorMatrix type="matrix" values="0 0 0 0 0.0437383 0 0 0 0 0.109346 0 0 0 0 0.316262 0 0 0 0.2 0"/>
<feBlend mode="normal" in2="BackgroundImageFix" result="effect1_dropShadow_5_66953"/>
<feBlend mode="normal" in="SourceGraphic" in2="effect1_dropShadow_5_66953" result="shape"/>
</filter>
<clipPath id="clip0_5_66953">
<rect width="1920" height="1023" fill="white" transform="translate(0 0.841797)"/>
</clipPath>
<clipPath id="clip1_5_66953">
<rect width="2549" height="1687" fill="white" transform="translate(-100 -663.158)"/>
</clipPath>
<clipPath id="clip2_5_66953">
<rect width="2549" height="1687" fill="white" transform="translate(50.6797 -319.595)"/>
</clipPath>
</defs>
</svg>
