<svg width="1920" height="1024" viewBox="0 0 1920 1024" fill="none" xmlns="http://www.w3.org/2000/svg">
<g clip-path="url(#clip0_5_66366)">
<rect width="1920" height="1023" transform="translate(0 0.841797)" fill="#F1F4FF"/>
<g clip-path="url(#clip1_5_66366)">
<g clip-path="url(#clip2_5_66366)">
<path d="M1361.71 69.7438C1359.71 72.8306 1346.48 78.0866 1350.49 83.1757C1355.08 88.7654 1363.43 78.7123 1365.85 75.9175C1369.23 71.7461 1375.36 68.5758 1376.99 63.4033C1377.83 60.7753 1378.04 57.2296 1374.49 56.6456C1370.94 56.0616 1365.8 63.3198 1364.09 65.9061C1363.34 67.0741 1362.59 68.4507 1361.71 69.7438Z" fill="white" stroke="#436AE5" stroke-linecap="round" stroke-linejoin="round"/>
<path d="M1361.71 69.7438C1359.71 72.8306 1346.48 78.0866 1350.49 83.1757C1355.08 88.7654 1363.43 78.7123 1365.85 75.9175C1369.23 71.7461 1375.36 68.5758 1376.99 63.4033C1377.83 60.7753 1378.04 57.2296 1374.49 56.6456C1370.94 56.0616 1365.8 63.3198 1364.09 65.9061C1363.34 67.0741 1362.59 68.4507 1361.71 69.7438Z" fill="white" stroke="#436AE5" stroke-miterlimit="10"/>
<path d="M2097.07 307.221C2098.41 291.161 2084.55 278.272 2081.25 261.336C2079.51 250.441 2078.44 239.449 2078.04 228.423C2076.16 202.06 2072.2 172.068 2057.54 149.375C2054.66 144.912 2051.28 140.824 2048.86 136.11C2044.02 126.641 2043.52 115.587 2039.8 105.617C2036.92 98.0255 2032.21 91.1427 2029.95 83.3422C2028.41 77.6381 2027.82 71.7188 2028.2 65.8223C2015.68 69.7434 2003.82 74.5822 1991.26 78.3365C1985.26 79.7095 1979.45 81.7816 1973.94 84.5101C1965.21 89.4324 1959.41 98.1089 1953.07 105.826C1948.41 110.713 1944.38 116.165 1941.09 122.053C1937.41 129.77 1936.91 138.488 1933.74 146.33C1930.57 154.172 1923.43 157.843 1920.13 164.976C1919.36 166.395 1919.09 168.035 1919.37 169.626C1919.65 171.218 1920.46 172.667 1921.68 173.736C1925.27 176.197 1930.98 173.319 1934.2 176.239C1938.83 180.411 1931.94 188.086 1934.2 193.926C1935.29 196.071 1936.7 198.04 1938.37 199.766C1949.93 215.492 1921.43 221.999 1912.12 228.549C1901.81 235.807 1891.25 245.234 1877.72 244.775C1873.88 244.775 1870.04 243.774 1866.2 243.899C1861.74 244.333 1857.39 245.488 1853.3 247.32L1836.15 253.869C1834.25 254.313 1832.47 255.157 1830.92 256.344C1829.37 257.531 1828.09 259.033 1827.17 260.752C1824.96 267.259 1832.72 272.348 1836.48 278.105C1841.66 286.114 1838.69 297.168 1832.85 304.718C1827.01 312.268 1818.78 317.524 1811.98 324.157C1804.09 331.665 1797.87 340.842 1790.52 348.893C1804.51 348.017 1816.36 341.635 1830.76 338.507C1850.45 333.928 1869.82 328.062 1888.74 320.945C1925.68 307.513 1962.12 291.745 2000.86 283.986C2002.8 283.466 2004.85 283.466 2006.79 283.986C2010.58 285.154 2012.25 289.367 2014.13 292.83C2019.96 302.546 2029.27 309.677 2040.18 312.769C2051.06 315.793 2062.28 317.433 2073.57 317.65L2088.6 318.567C2089.48 317.232 2090.44 315.939 2091.4 314.646C2092.94 312.143 2094.99 309.599 2097.07 307.221Z" fill="white" stroke="#436AE5" stroke-linecap="round" stroke-linejoin="round"/>
<path d="M1811.22 497.103L2019.18 428.275C2025.9 426.064 2032.58 423.812 2039.18 421.309C2041.47 410.171 2050.32 400.452 2050.49 388.73C2050.49 384.914 2049.54 381.157 2047.73 377.799C2045.91 374.441 2043.29 371.589 2040.09 369.5C2035.92 366.83 2030.03 364.369 2030.2 359.405C2030.2 355.943 2033.54 353.065 2033.25 349.644C2032.96 346.224 2028.49 343.429 2027.99 339.633C2027.93 337.637 2028.45 335.666 2029.49 333.96C2032.91 326.868 2036.35 319.749 2039.8 312.602C2028.98 309.495 2019.75 302.398 2013.96 292.746C2012.09 289.284 2010.42 285.071 2006.62 283.903C2004.68 283.383 2002.63 283.383 2000.69 283.903C1961.95 291.662 1925.55 307.43 1888.57 320.862C1869.65 327.979 1850.28 333.845 1830.59 338.423C1816.19 341.552 1804.34 347.934 1790.35 348.81C1786.98 352.565 1783.17 355.898 1779 358.738C1785.85 388.049 1792.68 417.36 1799.5 446.671C1803.42 463.551 1807.33 480.362 1811.22 497.103Z" fill="white" stroke="#436AE5" stroke-linecap="round" stroke-linejoin="round"/>
<path d="M1862.61 506.572C1865.86 505.863 1867.91 502.693 1869.95 500.023C1873.54 495.31 1880.22 493.099 1884.69 488.677C1888.11 485.298 1892.37 481.628 1897.21 482.462C1900.76 483.088 1904.14 486.133 1907.48 484.756C1910.82 483.38 1911.07 479.375 1912.36 476.413C1913.31 474.561 1914.69 472.962 1916.39 471.749C1918.08 470.536 1920.04 469.743 1922.1 469.438C1924.16 469.132 1926.26 469.321 1928.23 469.99C1930.21 470.659 1931.99 471.789 1933.44 473.285C1934.51 475.163 1935.92 476.82 1937.62 478.165C1940.7 479.834 1944.59 478.165 1948.01 478.833C1954.65 480.46 1955.15 490.262 1960.53 494.225C1965.42 497.729 1973.05 495.977 1977.23 500.441C1978.43 502.308 1979.06 504.48 1979.06 506.698C1979.06 508.916 1978.43 511.087 1977.23 512.955C1974.81 516.627 1972.62 520.444 1970.67 524.384C1969.98 525.876 1969.88 527.575 1970.38 529.14C1971.13 530.314 1972.24 531.212 1973.54 531.694C1974.85 532.177 1976.27 532.217 1977.6 531.809C1980.24 530.973 1982.91 530.277 1985.62 529.724C1989.08 529.515 1992.46 531.142 1995.93 530.85C2000.1 530.516 2003.61 527.346 2007.49 525.678C2010.74 524.341 2014.32 524.007 2017.76 524.718C2019.14 522.799 2020.89 521.089 2020.72 518.795C2020.26 513.747 2011.79 514.373 2008.91 510.202C2007.07 507.49 2008.2 503.861 2007.95 500.607C2007.45 494.642 2002.4 490.221 1999.6 484.923C1993.26 472.409 2000.06 457.892 2006.78 445.795C2007.45 444.586 2008.37 443.209 2009.74 443.042C2012.04 442.834 2013.04 445.92 2012.92 448.215C2012.46 455.181 2008.74 461.605 2007.53 468.529C2006.32 475.454 2008.28 484.089 2014.96 486.258C2017.88 487.259 2022.02 487.384 2022.68 490.429C2022.76 492.038 2022.4 493.638 2021.64 495.059C2021.29 496.471 2021.24 497.943 2021.51 499.373C2021.77 500.804 2022.35 502.16 2023.19 503.349C2024.03 504.538 2025.12 505.531 2026.38 506.26C2027.64 506.989 2029.04 507.437 2030.49 507.574C2032.08 507.419 2033.69 507.517 2035.25 507.866C2042.14 510.494 2033.83 523.717 2039.97 527.805C2044.14 530.641 2051.03 525.344 2054.78 528.848C2058.54 532.352 2054.78 537.191 2052.24 540.945C2049.66 545.149 2048.32 549.999 2048.39 554.932C2048.45 559.864 2049.92 564.676 2052.61 568.81C2062.98 545.134 2068.31 519.566 2068.27 493.725C2060.21 497.313 2051.82 500.107 2043.22 502.067C2037.58 476.814 2029.41 452.19 2018.84 428.567L1860.23 481.169C1860.6 494.142 1861.19 506.906 1862.61 506.572Z" fill="white" stroke="#436AE5" stroke-linecap="round" stroke-linejoin="round"/>
<path d="M1599.89 425.647C1618.3 417.854 1637.16 411.168 1656.37 405.625C1656.12 398.7 1665.01 390.065 1666.84 384.768C1669.39 377.259 1667.26 369.083 1666.84 361.158C1666.43 353.232 1669.14 343.846 1676.65 341.26C1678.54 340.869 1680.38 340.253 1682.12 339.425C1683.43 338.243 1684.43 336.757 1685.02 335.098C1685.62 333.439 1685.8 331.658 1685.54 329.914C1685.33 315.564 1678.7 302.091 1672.69 289.034L1663.71 269.679C1662.64 267.004 1661.12 264.535 1659.2 262.379C1657.85 261.097 1656.22 260.141 1654.44 259.584C1652.66 259.027 1650.78 258.885 1648.94 259.167C1644.83 260.122 1641.23 262.596 1638.88 266.091C1636.57 269.566 1634.67 273.288 1633.2 277.187L1627.44 290.119C1626.89 291.186 1626.12 292.123 1625.18 292.866C1624.24 293.609 1623.15 294.141 1621.99 294.426C1620.83 294.711 1619.61 294.742 1618.44 294.517C1617.26 294.292 1616.14 293.816 1615.17 293.122C1613.31 291.569 1612.13 289.354 1611.88 286.948C1611.63 284.542 1612.33 282.133 1613.83 280.233C1616.5 276.979 1621.22 275.686 1623.18 271.89C1625.14 268.094 1623.81 264.339 1624.22 260.502C1625.09 256.56 1626.49 252.756 1628.4 249.197C1630.79 242.986 1631.43 236.24 1630.26 229.69C1629.09 223.139 1626.15 217.032 1621.76 212.03C1620.48 210.874 1619.47 209.45 1618.8 207.859C1617.92 204.855 1619.93 201.894 1621.14 199.015C1622.35 196.137 1622.22 191.841 1619.22 191.006C1617 190.381 1614.58 192.133 1612.45 191.257C1611.08 190.673 1610.37 189.213 1609.28 188.211C1608.36 187.459 1607.32 186.879 1606.19 186.501C1600.3 184.166 1594.04 182.881 1587.7 182.705C1584.37 182.85 1581.04 182.527 1577.81 181.746C1573.3 180.286 1569.92 176.573 1565.66 174.488C1558.69 171.067 1549.38 176.448 1545.63 182.58C1542.79 187.21 1543.96 194.635 1549.13 196.304C1550.38 196.721 1551.89 196.805 1552.68 197.889C1553.47 198.974 1552.26 202.06 1550.3 202.561C1548.34 203.062 1546.13 202.978 1544.29 203.687C1539.7 205.398 1538.74 211.488 1539.45 216.202C1540.16 220.915 1541.83 226.171 1539.82 230.635C1539.49 231.464 1538.98 232.212 1538.33 232.83C1537.68 233.449 1536.91 233.923 1536.07 234.222C1532.85 235.14 1529.68 232.261 1528.59 229.133C1527.87 225.893 1527.39 222.602 1527.18 219.288C1527.14 218.734 1526.98 218.194 1526.7 217.711C1526.43 217.227 1526.05 216.811 1525.59 216.494C1523.21 215.409 1521.79 219.122 1520.96 221.624C1518.79 228.34 1510.48 231.385 1507.52 237.809C1506.25 241.321 1505.76 245.061 1506.05 248.78C1506.05 261.294 1504.22 274.184 1504.09 286.907C1503.42 299.692 1506.14 312.428 1511.98 323.824C1515.58 329.077 1518.91 334.506 1521.96 340.092C1526.13 349.853 1525.46 360.949 1524.5 371.753C1523.93 384.979 1521.64 398.075 1517.7 410.714C1515.23 417.724 1511.48 424.216 1506.64 429.861C1537.73 428.286 1568.54 423.164 1598.47 414.593C1598.5 418.321 1598.98 422.032 1599.89 425.647Z" fill="white" stroke="#436AE5" stroke-linecap="round" stroke-linejoin="round"/>
<path d="M1496.5 693.575C1501.26 692.282 1502.3 685.483 1506.77 683.439C1513.19 680.477 1520.87 689.487 1527.09 686.109C1531.73 683.648 1531.81 675.972 1536.69 674.137C1542.29 672.009 1549.51 679.476 1553.85 675.346C1558.19 671.217 1551.6 660.955 1557.15 658.244C1560.99 656.367 1564.83 661.539 1569.13 661.623C1570.62 661.434 1572.05 660.936 1573.34 660.16C1574.63 659.384 1575.74 658.348 1576.6 657.117C1584.11 648.983 1591.88 640.432 1594.17 629.461C1595.34 623.788 1595.26 617.155 1599.6 613.318C1603.94 609.48 1610.16 610.398 1615.71 609.689C1621.26 608.98 1627.73 604.391 1625.81 599.093C1625.14 597.656 1624.37 596.263 1623.52 594.922C1622.71 592.844 1622.58 590.569 1623.12 588.41C1623.67 586.251 1624.87 584.314 1626.56 582.867L1627.07 582.449C1618.05 530.14 1609.01 477.803 1599.93 425.438C1599.03 421.822 1598.55 418.112 1598.51 414.384C1568.59 422.954 1537.78 428.077 1506.68 429.651C1502.93 434.098 1498.3 437.72 1493.07 440.288C1491.2 441.335 1489.09 441.894 1486.94 441.915C1486.19 441.895 1485.44 441.769 1484.73 441.54C1488.15 486.841 1493.07 531.976 1500.3 576.86C1501 580.15 1501.13 583.538 1500.67 586.871C1499.75 591.585 1496.5 595.84 1496.75 600.637C1497.67 604.783 1499.31 608.736 1501.59 612.317C1505.76 621.661 1502.76 632.548 1498.67 641.934C1494.58 651.319 1489.32 660.58 1488.86 670.8C1488.61 676.723 1489.99 682.563 1490.15 688.486C1490.22 689.667 1490.22 690.851 1490.15 692.032C1492.01 693.306 1494.27 693.855 1496.5 693.575Z" fill="white" stroke="#436AE5" stroke-linecap="round" stroke-linejoin="round"/>
<path d="M1765.48 647.815C1762.77 646.022 1759.76 644.353 1757.13 642.601C1749.24 637.178 1744.61 628.335 1740.18 619.825C1736.72 613.109 1733.34 604.808 1737.09 598.343C1731.11 596.893 1725.67 593.767 1721.4 589.332C1717.56 585.161 1713.05 579.655 1707.79 581.782C1704.45 583.159 1703.12 587.288 1700.03 589.124C1693.68 592.961 1684.12 585.37 1678.61 590.333C1677.57 591.293 1676.78 592.628 1675.48 593.212C1671.94 594.839 1669.18 589.875 1665.92 587.789C1661 584.619 1654.61 588.164 1648.77 587.789C1641.38 587.789 1634.16 581.365 1627.31 584.202C1627.31 583.576 1627.31 582.992 1626.98 582.408L1626.48 582.825C1624.79 584.272 1623.58 586.209 1623.04 588.368C1622.49 590.528 1622.63 592.803 1623.43 594.88C1624.28 596.222 1625.05 597.615 1625.73 599.052C1627.65 604.349 1621.22 608.98 1615.63 609.647C1610.03 610.314 1603.73 609.647 1599.51 613.276C1595.3 616.905 1595.34 623.746 1594.09 629.419C1591.79 640.223 1584.03 648.942 1576.51 657.076C1575.65 658.306 1574.54 659.343 1573.26 660.119C1571.97 660.894 1570.53 661.393 1569.04 661.581C1564.87 661.581 1560.9 656.325 1557.06 658.202C1551.51 660.914 1558.23 671.05 1553.77 675.305C1549.3 679.56 1542.2 671.968 1536.61 674.095C1531.73 675.93 1531.64 683.606 1527.01 686.067C1520.79 689.446 1513.11 680.436 1506.68 683.397C1502.21 685.441 1501.17 692.241 1496.41 693.534C1494.12 693.939 1491.77 693.462 1489.82 692.199C1489.65 696.939 1487.65 701.428 1484.22 704.713C1483.68 705.1 1483.22 705.58 1482.85 706.131C1481.3 708.885 1485.64 711.012 1487.02 713.723C1489.19 717.436 1485.68 722.066 1482.01 724.235C1478.34 726.404 1473.66 728.699 1472.91 732.912C1472.41 735.289 1473.16 737.917 1471.91 739.961C1469.99 743.09 1465.11 742.131 1462.1 739.961C1459.1 737.792 1456.38 734.747 1452.71 734.539C1450.83 734.6 1449.02 735.243 1447.52 736.379C1446.03 737.515 1444.92 739.088 1444.36 740.879C1443.32 744.438 1443.06 748.182 1443.61 751.85C1444.28 761.277 1444.9 770.663 1445.57 780.09C1453.76 778.469 1462.07 777.52 1470.41 777.254C1486.19 775.835 1501.25 770.287 1516.32 765.616C1575.51 747.428 1637.87 742.631 1698.69 730.743C1701.78 730.159 1704.83 729.45 1707.92 728.782C1711.62 720.856 1717.11 713.89 1723.95 708.426C1729.33 704.254 1735.68 700.625 1739.06 694.702C1741.23 690.906 1742.02 686.359 1744.27 682.73C1749.91 675.055 1761.14 670.883 1762.43 661.414C1763.06 656.826 1761.22 651.111 1764.85 648.191C1765.05 648.052 1765.26 647.926 1765.48 647.815Z" fill="white" stroke="#436AE5" stroke-linecap="round" stroke-linejoin="round"/>
<path d="M1779.12 358.904L1777.2 360.197C1771.07 363.827 1764.01 365.996 1758.59 370.584C1751.32 376.758 1747.82 386.561 1740.14 392.15C1734.13 396.322 1726.49 397.615 1719.52 400.034C1708.7 403.747 1701.9 419.139 1690.59 420.558C1689.52 420.768 1688.4 420.549 1687.49 419.949C1686.58 419.348 1685.94 418.413 1685.71 417.346C1685.71 416.344 1686.04 415.218 1685.71 414.342C1685.42 413.946 1685.06 413.62 1684.63 413.388C1684.2 413.157 1683.73 413.026 1683.24 413.007C1679.16 412.764 1675.06 412.96 1671.01 413.591C1666.92 414.246 1662.73 413.289 1659.32 410.922C1658.53 410.282 1657.87 409.478 1657.41 408.563C1656.95 407.649 1656.69 406.647 1656.65 405.624C1637.47 411.178 1618.62 417.85 1600.22 425.605C1609.35 478.443 1618.5 531.378 1627.68 584.41C1634.53 581.573 1641.75 587.831 1649.14 587.997C1654.98 587.997 1661.37 584.619 1666.3 587.997C1669.55 590.083 1672.31 595.047 1675.85 593.42C1677.15 592.836 1677.94 591.501 1678.99 590.542C1684.49 585.578 1694.05 593.17 1700.4 589.332C1703.49 587.497 1704.82 583.367 1708.16 581.991C1713.3 579.863 1717.93 585.495 1721.77 589.541C1726.04 593.975 1731.48 597.101 1737.47 598.551C1737.47 598.551 1737.47 598.259 1737.47 598.134C1740.09 593.962 1745.06 592.002 1747.86 587.997C1750.66 583.993 1749.24 540.777 1758.79 562.051C1765.31 558.13 1765.97 549.078 1765.52 541.528C1765.06 533.978 1764.76 525.176 1770.4 520.129C1771 519.509 1771.8 519.124 1772.65 519.044C1775.45 519.044 1775.87 524.05 1778.62 524.384C1784.95 518.396 1788.93 510.35 1789.85 501.691C1792.77 485.756 1791.94 469.363 1794.02 453.303C1794.65 447.74 1795.75 442.241 1797.32 436.868C1791.17 410.783 1785.11 384.795 1779.12 358.904Z" fill="white" stroke="#436AE5" stroke-linecap="round" stroke-linejoin="round"/>
<path d="M1937.74 477.998C1936.05 476.652 1934.63 474.996 1933.57 473.117C1932.12 471.621 1930.33 470.492 1928.36 469.823C1926.39 469.153 1924.28 468.964 1922.22 469.27C1920.16 469.576 1918.2 470.368 1916.51 471.581C1914.82 472.794 1913.44 474.393 1912.49 476.246C1911.19 479.374 1910.73 483.504 1907.6 484.588C1904.47 485.673 1900.88 482.92 1897.34 482.294C1892.58 481.46 1888.32 485.131 1884.81 488.51C1880.35 492.931 1873.67 495.142 1870.08 499.856C1868.03 502.525 1865.9 505.696 1862.73 506.405C1861.19 506.739 1860.6 493.891 1860.35 480.709L1811.22 496.936C1807.33 480.25 1803.42 463.495 1799.49 446.67L1797.11 436.492C1795.54 441.866 1794.44 447.364 1793.82 452.928C1791.85 468.987 1792.69 485.381 1789.64 501.316C1788.72 509.974 1784.74 518.02 1778.41 524.008C1775.66 523.674 1775.24 518.669 1772.45 518.669C1771.59 518.748 1770.79 519.133 1770.19 519.753C1764.56 524.801 1764.89 533.561 1765.31 541.153C1765.72 548.744 1765.1 557.838 1758.59 561.676C1749.03 540.402 1750.24 583.868 1747.65 587.622C1745.06 591.376 1739.89 593.67 1737.26 597.758C1733.08 604.266 1736.63 612.775 1740.14 619.658C1744.31 628.001 1749.19 637.011 1757.08 642.434C1759.63 644.186 1762.64 645.855 1765.43 647.648C1766.65 647.071 1767.99 646.825 1769.34 646.935C1770.68 647.044 1771.97 647.507 1773.07 648.274C1775.39 650.096 1777.41 652.279 1779.04 654.74C1781.86 658.36 1785.13 661.612 1788.77 664.417C1791.9 666.878 1796.61 668.922 1799.49 666.253C1802.37 663.583 1800.62 657.201 1803.67 654.197C1805.75 652.279 1809.01 652.654 1812.02 652.32C1821.53 651.111 1827.79 640.766 1837.06 639.264C1841.49 638.596 1847 639.556 1849.58 635.927C1850.6 634.279 1851.05 632.347 1850.88 630.42C1850.67 622.078 1846.41 614.069 1847.25 605.768C1848.17 600.318 1850.19 595.111 1853.17 590.458C1858.31 581.198 1863.4 571.896 1868.53 562.594C1870.7 558.672 1873.46 554.251 1877.88 553.5C1879.78 553.438 1881.68 553.271 1883.56 552.999C1890.41 550.872 1888.07 539.859 1892.83 534.478C1894.55 532.855 1896.47 531.453 1898.55 530.307C1909.52 522.715 1909.23 506.739 1913.87 494.224C1915.37 490.053 1918.75 485.882 1922.92 486.758C1927.1 487.634 1929.39 493.265 1933.32 492.264C1935.7 491.638 1936.74 488.927 1937.49 486.549L1939.87 478.206C1939.15 478.254 1938.43 478.183 1937.74 477.998Z" fill="white" stroke="#436AE5" stroke-linecap="round" stroke-linejoin="round"/>
<path d="M2054.62 602.139C2052.98 600.58 2050.95 599.494 2048.75 598.994C2046.54 598.495 2044.25 598.601 2042.1 599.302C2037.84 600.765 2033.45 601.826 2028.99 602.472C2026.75 602.728 2024.49 602.169 2022.63 600.897C2020.77 599.626 2019.42 597.727 2018.85 595.548C2018.74 594.668 2018.91 593.777 2019.35 593.003C2021.73 589.249 2027.69 594.589 2031.87 593.003C2032.54 592.632 2033.13 592.129 2033.6 591.524C2034.07 590.92 2034.41 590.226 2034.61 589.486C2034.8 588.745 2034.84 587.973 2034.73 587.215C2034.62 586.458 2034.36 585.731 2033.96 585.078C2032.17 582.527 2029.8 580.45 2027.03 579.029C2024.27 577.235 2021.43 573.398 2023.81 571.145C2024.69 570.353 2025.94 570.144 2026.9 569.435C2029.66 567.308 2027.61 562.594 2024.52 561.092C2021.43 559.59 2017.68 559.757 2014.5 558.422C2011.33 557.088 2008.83 552.708 2011.25 550.08C2014.84 546.325 2021.39 553 2025.98 550.622C2030.58 548.244 2027.65 541.612 2023.94 538.441C2020.22 535.271 2015.3 531.434 2016.72 526.762C2017.05 525.842 2017.53 524.983 2018.14 524.217C2014.69 523.506 2011.12 523.84 2007.87 525.176C2003.99 526.845 2000.56 530.015 1996.31 530.349C1992.84 530.641 1989.46 529.014 1986 529.223C1983.29 529.776 1980.61 530.472 1977.98 531.308C1976.65 531.716 1975.22 531.676 1973.92 531.193C1972.61 530.711 1971.5 529.813 1970.76 528.639C1970.25 527.074 1970.36 525.375 1971.05 523.883C1973 519.943 1975.19 516.126 1977.61 512.454C1978.8 510.586 1979.44 508.415 1979.44 506.197C1979.44 503.979 1978.8 501.807 1977.61 499.94C1973.68 495.476 1965.96 497.228 1960.91 493.724C1955.36 489.553 1954.86 479.958 1948.39 478.332C1945.61 478.138 1942.82 478.138 1940.04 478.332L1937.66 486.674C1936.95 489.052 1935.91 491.764 1933.48 492.389C1929.56 493.39 1927.01 487.842 1923.09 486.883C1919.17 485.924 1915.54 490.345 1914.03 494.35C1909.4 506.864 1909.86 522.84 1898.71 530.432C1896.64 531.579 1894.72 532.98 1893 534.604C1888.24 539.985 1890.57 550.997 1883.73 553.125C1881.85 553.397 1879.95 553.564 1878.05 553.625C1873.63 554.46 1870.87 558.798 1868.7 562.719C1863.57 572.021 1858.47 581.323 1853.34 590.584C1850.35 595.236 1848.34 600.443 1847.41 605.893C1846.58 614.236 1850.84 622.203 1851.04 630.546C1851.22 632.473 1850.76 634.404 1849.75 636.052C1847.16 639.681 1841.65 638.722 1837.23 639.389C1827.75 640.891 1821.49 651.236 1812.18 652.446C1809.39 652.78 1806.13 652.446 1803.83 654.323C1800.66 657.326 1802.75 663.417 1799.66 666.378C1796.57 669.34 1792.06 667.004 1788.93 664.543C1785.3 661.737 1782.03 658.486 1779.21 654.865C1777.58 652.404 1775.56 650.221 1773.24 648.4C1772.04 647.499 1770.6 646.991 1769.1 646.946C1767.61 646.901 1766.14 647.322 1764.89 648.149C1761.26 651.069 1763.1 656.784 1762.47 661.373C1761.22 670.717 1749.95 674.804 1744.9 682.855C1742.64 686.568 1741.85 691.198 1739.68 694.827C1736.3 700.751 1729.95 704.296 1724.57 708.551C1717.73 714.016 1712.25 720.982 1708.54 728.908C1772.95 715.559 1835.56 694.702 1897.96 673.803L2061.26 619.075C2061.53 618.336 2061.77 617.584 2061.96 616.822C2063.68 610.064 2061.46 603.39 2054.62 602.139Z" fill="white" stroke="#436AE5" stroke-linecap="round" stroke-linejoin="round"/>
<path d="M1927.69 794.816C1915.71 787.307 1913.5 785.013 1901.02 791.937C1891.22 796.873 1880.74 800.317 1869.92 802.157C1867.81 802.888 1865.52 802.888 1863.41 802.157C1860.78 800.948 1859.69 797.986 1857.94 795.65C1852.72 789.017 1842.66 789.768 1834.4 791.103L1799.75 796.734C1789.8 797.799 1780.12 800.624 1771.16 805.077C1765.69 808.164 1760.89 812.419 1755.34 815.422C1751.46 817.381 1747.39 818.933 1743.19 820.053C1742.02 822.934 1741.19 825.944 1740.73 829.021C1740.19 832 1740.36 835.064 1741.23 837.963C1742.1 840.863 1743.65 843.516 1745.74 845.707C1749.91 849.878 1756.63 850.754 1761.52 854.258C1771.78 861.683 1770.45 872.237 1783.18 877.701C1792.45 881.873 1804.97 882.79 1812.65 889.798C1818.53 895.179 1819.87 904.94 1826.55 909.446C1829.69 910.959 1833.02 912.066 1836.44 912.741C1839.51 913.883 1842.2 915.865 1844.2 918.461C1846.21 921.057 1847.43 924.163 1847.75 927.424C1848.09 931.846 1846.75 936.518 1848.46 940.606C1850.68 945.945 1856.81 948.073 1861.36 951.785C1865.32 955.672 1868.57 960.217 1870.96 965.217C1873.37 970.233 1877.28 974.374 1882.15 977.064H1882.48C1882.77 975.693 1882.87 974.29 1882.77 972.892C1882.49 971.077 1882.63 969.22 1883.19 967.47C1883.78 966.135 1884.95 965.134 1885.45 963.799C1886.41 961.379 1885.03 958.71 1884.24 956.249C1883.44 953.788 1883.86 950.242 1886.36 949.616C1888.87 948.99 1890.54 950.993 1892.75 950.284C1894.96 949.574 1894.92 945.486 1896.3 943.15C1898.64 939.229 1904.65 940.564 1908.57 938.145C1911.28 936.393 1912.37 933.014 1914.33 930.428C1918.17 925.38 1925.31 923.378 1928.4 917.913C1929.25 916.115 1929.93 914.244 1930.44 912.324C1931.4 909.503 1932.81 906.855 1934.62 904.482C1939.33 897.974 1947.68 893.261 1948.48 885.251C1948.42 883.308 1948.57 881.364 1948.93 879.453C1949.69 877.605 1950.8 875.919 1952.19 874.489C1962.63 861.391 1962.67 841.118 1976.86 832.233C1977.27 831.486 1977.71 830.762 1978.2 830.064C1962.02 817.399 1945.16 805.632 1927.69 794.816Z" fill="white" stroke="#436AE5" stroke-linecap="round" stroke-linejoin="round"/>
<path d="M1508.97 896.139C1509.23 890.289 1508.44 884.44 1506.64 878.869C1505.09 875.343 1503.16 871.999 1500.88 868.899C1491.35 871.944 1481.57 874.163 1471.66 875.532L1402.24 886.92C1396.4 901.714 1389.86 916.203 1382.62 930.386C1375.94 943.317 1368.6 956.207 1365.93 970.515C1360.79 996.878 1371.27 1022.87 1374.27 1048.81C1377.53 1077.55 1363.8 1102.62 1358.45 1130.4C1357.12 1134.53 1357.42 1139.01 1359.29 1142.92C1362.59 1148.09 1370.27 1148.34 1375.99 1146.05C1381.7 1143.75 1386.59 1139.66 1392.43 1137.7C1402.99 1134.28 1414.72 1138.83 1425.58 1136.45C1430.5 1135.37 1435.05 1132.91 1440.02 1132.28C1442.47 1131.67 1445.06 1131.88 1447.39 1132.88C1449.72 1133.87 1451.66 1135.59 1452.92 1137.79C1454.67 1141.96 1452.33 1146.92 1452.92 1151.55C1453.42 1157.48 1458.26 1161.94 1461.26 1166.95C1463.35 1170.22 1464.77 1173.88 1465.44 1177.71C1470.12 1177.73 1474.75 1176.74 1479 1174.79C1483.22 1172.18 1487.25 1169.3 1491.07 1166.15C1495.25 1163.18 1500.43 1161.94 1505.51 1162.69C1511.5 1164.01 1517.77 1163.09 1523.13 1160.1C1521.52 1153.67 1520.27 1147.15 1519.37 1140.58C1506.89 1059.87 1509.89 977.856 1508.97 896.139Z" fill="white" stroke="#436AE5" stroke-linecap="round" stroke-linejoin="round"/>
<path d="M1680.74 1037.72C1678.95 1029.12 1676.57 1019.11 1682.37 1012.48C1684.63 1009.89 1688.13 1007.43 1687.38 1004.14C1686.86 1002.56 1685.85 1001.18 1684.5 1000.22C1678.85 995.358 1674.02 989.626 1670.18 983.237C1666.99 976.899 1664.55 970.206 1662.92 963.298C1652.23 925.06 1641.53 886.809 1630.82 848.543C1612.96 852.881 1595.08 857.053 1577.18 861.057C1565.04 863.81 1552.51 866.563 1540.28 864.394C1533.44 863.143 1526.59 860.432 1519.75 861.516C1515.38 862.611 1511.17 864.265 1507.22 866.438C1505.22 867.356 1503.05 868.149 1501.05 868.899C1503.33 871.999 1505.26 875.343 1506.81 878.869C1508.61 884.44 1509.4 890.289 1509.14 896.139C1510.06 977.731 1507.06 1059.74 1519 1140.46C1519.9 1147.03 1521.15 1153.54 1522.75 1159.98C1527.43 1157.48 1531.73 1153.93 1537.28 1150.89C1547.05 1145.5 1550.39 1158.56 1560.61 1159.56C1563.08 1159.79 1565.56 1159.59 1567.96 1158.98C1567.96 1151.6 1570.09 1143.67 1566.33 1137.33C1564.54 1134.37 1561.57 1132.07 1560.61 1128.78C1558.61 1121.94 1565.91 1116.26 1572.55 1113.51C1580.14 1110.77 1587.92 1108.62 1595.84 1107.09L1668.35 1091.23C1672.81 1090.03 1677.42 1089.53 1682.04 1089.73C1684.83 1072.46 1684.39 1054.83 1680.74 1037.72Z" fill="white" stroke="#436AE5" stroke-linecap="round" stroke-linejoin="round"/>
<path d="M1870.95 964.842C1868.56 959.842 1865.31 955.297 1861.35 951.41C1856.93 947.698 1850.67 945.57 1848.46 940.231C1846.74 936.06 1848.08 931.471 1847.75 927.049C1847.43 923.788 1846.2 920.683 1844.2 918.086C1842.2 915.49 1839.51 913.508 1836.43 912.366C1833.01 911.691 1829.69 910.584 1826.54 909.071C1819.86 904.566 1818.53 894.805 1812.64 889.424C1804.96 882.416 1792.44 881.331 1783.17 877.326C1770.44 871.862 1771.78 861.308 1761.51 853.883C1756.62 850.379 1750.11 849.42 1745.73 845.332C1743.64 843.141 1742.1 840.488 1741.23 837.588C1740.36 834.689 1740.18 831.625 1740.72 828.646C1741.18 825.57 1742.01 822.559 1743.18 819.678L1739.01 820.887C1703.11 830.482 1667.12 839.631 1631.02 848.335C1641.71 886.601 1652.41 924.852 1663.12 963.09C1664.75 969.998 1667.19 976.691 1670.39 983.03C1674.22 989.418 1679.05 995.15 1684.7 1000.01C1686.06 1000.97 1687.07 1002.35 1687.58 1003.93C1688.33 1007.27 1684.83 1009.73 1682.57 1012.27C1676.86 1018.9 1679.15 1028.96 1680.95 1037.51C1684.55 1054.67 1684.94 1072.35 1682.07 1089.65H1682.99C1691.34 1090.74 1697.98 1096.45 1705.78 1099.08C1715.09 1102.25 1725.23 1100.91 1735 1099.58L1815.52 1088.32C1820.66 1087.61 1826.42 1087.02 1830.59 1090.15C1833.43 1092.24 1836.14 1096.12 1839.44 1094.82C1840.37 1094.28 1841.15 1093.49 1841.67 1092.54C1842.19 1091.6 1842.44 1090.52 1842.4 1089.44C1842.78 1084.98 1841.61 1080.47 1841.82 1075.97C1841.74 1073.71 1842.37 1071.48 1843.63 1069.6C1844.89 1067.72 1846.71 1066.29 1848.83 1065.5C1851.1 1065.22 1853.41 1065.41 1855.59 1066.08C1862.02 1067.35 1868.64 1067.28 1875.04 1065.87C1875.04 1063.95 1874.63 1062.04 1874.33 1060.16C1871.96 1044.1 1871.7 1027.81 1873.54 1011.69C1873.94 1003.69 1875.35 995.77 1877.72 988.119C1879.72 984.432 1881.37 980.563 1882.64 976.564H1882.31C1877.39 973.934 1873.42 969.836 1870.95 964.842Z" fill="white" stroke="#436AE5" stroke-linecap="round" stroke-linejoin="round"/>
<path d="M1709.63 798.862C1715.05 794.023 1717.52 786.682 1722.15 781.3C1728.08 774.71 1737.26 771.289 1741.81 763.739C1745.61 757.482 1746.78 748.18 1753.83 746.261C1756.51 745.947 1759.2 745.78 1761.89 745.76C1768.73 744.676 1772.66 737.417 1778.59 733.997C1781.3 732.453 1784.47 731.786 1786.93 730.076C1789.24 728.413 1791.12 726.225 1792.41 723.694C1793.7 721.162 1794.37 718.359 1794.36 715.518C1794.45 712.717 1794.19 709.916 1793.61 707.175C1762.31 716.394 1730.71 724.653 1698.69 730.91C1637.87 742.799 1575.51 747.596 1516.32 765.783C1501.13 770.455 1486.06 776.003 1470.41 777.421C1456.67 778.673 1440.44 777.755 1431.88 788.559C1428.27 794.045 1426.01 800.305 1425.28 806.829C1419.81 834.207 1411.93 861.05 1401.74 887.045L1471.16 875.657C1483.33 874.183 1495.26 871.126 1506.64 866.564C1510.58 864.391 1514.79 862.736 1519.16 861.642C1526.01 860.557 1532.85 863.268 1539.7 864.52C1551.93 866.689 1564.45 863.936 1576.6 861.183C1611.41 853.201 1646.1 844.859 1680.66 836.154C1680.87 827.812 1681.54 818.384 1687.34 812.211C1693.14 806.037 1703.24 804.368 1709.63 798.862Z" fill="white" stroke="#436AE5" stroke-linecap="round" stroke-linejoin="round"/>
<path d="M2084.76 659.412C2084.34 656.284 2082.3 652.362 2079.29 653.238C2077.62 653.697 2076.75 655.449 2075.95 656.993C2073.78 661.164 2070.03 665.544 2065.31 665.085C2062.09 664.793 2059.46 662.374 2056.38 661.456C2046.4 658.411 2046.57 668.881 2040.14 670.007C2033.71 671.134 2031.16 660.33 2031.79 655.533C2033.84 641.767 2039.64 662.708 2045.94 651.361C2048.49 646.898 2052.12 650.777 2055.08 649.15C2058.05 647.524 2057.79 642.852 2060.88 641.058C2062.18 640.307 2063.85 640.516 2065.06 639.89C2068.19 638.388 2067.48 633.591 2065.43 630.796C2063.39 628.001 2060.42 625.373 2060.42 621.911C2060.46 620.916 2060.64 619.932 2060.97 618.991L1897.67 673.72C1863.24 685.233 1828.76 696.746 1793.95 707.091C1794.53 709.832 1794.78 712.633 1794.7 715.434C1794.7 718.276 1794.03 721.078 1792.74 723.61C1791.45 726.142 1789.57 728.329 1787.27 729.992C1784.6 731.702 1781.42 732.37 1778.92 733.913C1772.87 737.25 1768.94 744.592 1762.22 745.677C1759.53 745.697 1756.84 745.864 1754.17 746.177C1747.11 748.096 1745.82 757.398 1742.15 763.655C1737.6 771.205 1728.41 774.626 1722.48 781.217C1717.64 786.598 1715.18 793.731 1709.96 798.778C1703.58 804.41 1694.1 805.786 1688.26 812.002C1682.41 818.217 1681.79 827.394 1681.58 835.946C1700.81 831.079 1719.99 826.087 1739.14 820.97C1744.91 819.652 1750.51 817.693 1755.84 815.13C1761.39 812.127 1766.19 807.872 1771.66 804.785C1780.62 800.332 1790.3 797.507 1800.25 796.443L1834.89 790.811C1843.24 789.476 1853.22 788.725 1858.44 795.358C1860.19 797.61 1861.28 800.656 1863.91 801.865C1866.01 802.596 1868.31 802.596 1870.42 801.865C1881.05 800.044 1891.36 796.67 1901.01 791.854C1913.54 784.929 1915.71 787.224 1927.69 794.732C1945.01 805.507 1961.73 817.219 1977.78 829.814C1980.76 825.03 1984.95 821.116 1989.92 818.467C1993.64 816.507 1997.73 815.339 2001.49 813.462C2005.4 811.852 2008.6 808.891 2010.5 805.119C2011.36 802.494 2011.91 799.778 2012.13 797.026C2014.13 784.137 2023.23 771.039 2030.7 760.568C2033.26 756.634 2036.68 753.332 2040.7 750.911C2044.72 748.49 2049.24 747.014 2053.91 746.594C2055.94 746.665 2057.96 746.567 2059.97 746.302C2060.98 746.165 2061.94 745.766 2062.75 745.144C2063.57 744.522 2064.2 743.699 2064.6 742.757C2064.87 741.524 2065 740.264 2064.97 739.002C2065.22 736.416 2066.69 734.122 2067.06 731.536C2067.44 728.949 2068.31 728.449 2065.93 727.364C2061.76 725.487 2056.92 728.324 2053.41 731.327C2049.91 734.33 2046.27 737.918 2041.68 737.626C2037.09 737.334 2033.54 730.409 2037.51 728.198C2038.83 727.655 2040.26 727.412 2041.68 727.489C2043.78 727.52 2045.86 727.043 2047.73 726.099C2049.61 725.154 2051.23 723.771 2052.45 722.066C2053 721.191 2053.34 720.207 2053.47 719.183C2053.59 718.16 2053.49 717.121 2053.17 716.141C2052.86 715.16 2052.33 714.26 2051.63 713.504C2050.93 712.748 2050.07 712.154 2049.11 711.763C2046.62 711.573 2044.12 711.755 2041.68 712.305C2039.18 712.305 2036.13 710.72 2036.63 708.134C2037.63 703.087 2048.95 707.633 2049.15 702.503C2049.1 701.628 2048.91 700.767 2048.57 699.958C2048.36 698.55 2048.55 697.111 2049.12 695.806C2049.69 694.501 2050.61 693.382 2051.79 692.577C2052.97 691.773 2054.34 691.314 2055.77 691.255C2057.19 691.195 2058.6 691.537 2059.84 692.241C2061.55 693.534 2062.68 695.62 2064.56 696.663C2068.73 698.832 2073.36 695.328 2076.12 691.657C2083 682.398 2086.09 670.867 2084.76 659.412Z" fill="white" stroke="#436AE5" stroke-linecap="round" stroke-linejoin="round"/>
<path d="M1326.1 173.194C1328.34 175.426 1331.3 176.775 1334.45 176.99C1344.18 178.7 1354.28 178.325 1363.88 180.619C1372.23 182.621 1380.03 186.626 1388.3 189.171C1398.21 192.255 1408.67 193.222 1418.98 192.007C1418.74 194.191 1419.35 196.381 1420.68 198.133C1422.01 199.884 1423.95 201.065 1426.12 201.434C1427.64 201.432 1429.16 201.642 1430.62 202.06C1433.88 203.52 1433.84 208.067 1434 211.654C1434.22 215.507 1435.26 219.269 1437.05 222.686C1438.85 226.104 1441.35 229.099 1444.4 231.469C1444.15 229.698 1444.15 227.9 1444.4 226.129C1445.48 220.623 1450.58 216.994 1454.17 212.697C1456.57 209.71 1458.32 206.248 1459.29 202.538C1460.26 198.828 1460.44 194.955 1459.8 191.173C1459.55 188.253 1459.17 182.83 1463.39 184.499C1467.61 186.167 1469.48 199.682 1474.62 188.67C1475.5 186.709 1481.09 184.499 1482.97 186.251C1484.85 188.003 1481.88 193.968 1481.76 196.554C1486.22 197.221 1490.11 193.133 1491.94 189.045C1493.33 184.737 1495.7 180.809 1498.87 177.574C1502.46 174.904 1507.22 174.821 1511.18 172.443C1515.73 169.607 1517.78 164.1 1522.04 160.638C1529.89 154.506 1541.28 158.719 1550.13 163.35C1552.88 164.768 1557.06 165.727 1558.48 162.932C1559.23 161.139 1558.02 159.095 1558.19 157.134C1558.69 152.17 1566.12 152.629 1570.71 154.59C1575.3 156.55 1582.86 156.759 1583.23 151.795C1576.8 142.367 1567.12 131.689 1556.18 134.859C1552.76 135.86 1544.33 143.202 1540.95 142.242C1540.32 141.92 1539.79 141.429 1539.42 140.826C1539.05 140.222 1538.86 139.529 1538.86 138.822C1538.87 137.41 1538.68 136.004 1538.28 134.65C1536.94 131.73 1532.72 131.146 1531.35 128.268C1529.97 125.39 1534.69 118.006 1530.59 116.547C1529.32 116.277 1527.99 116.501 1526.88 117.172L1497.66 129.978C1493.68 131.477 1489.97 133.619 1486.68 136.319C1483.89 138.864 1481.88 142.242 1478.96 144.662C1473.87 148.833 1470.32 149.959 1464.56 146.664C1459.57 148.579 1454.14 149.106 1448.87 148.187C1443.6 147.269 1438.68 144.941 1434.63 141.45C1431.62 138.201 1428.41 135.136 1425.03 132.273C1422.76 130.657 1420.12 129.625 1417.36 129.269C1414.59 128.912 1411.78 129.242 1409.17 130.229C1405.75 131.814 1402.82 137.028 1398.32 133.649C1393.81 130.27 1396.1 123.221 1398.52 119.925C1402.65 115.545 1407.34 111.73 1412.47 108.579C1417.18 104.867 1421.32 99.1101 1419.9 93.2701C1407.75 91.977 1396.27 99.2352 1387.5 107.745C1378.74 116.255 1371.35 126.349 1361.25 133.232C1359.34 134.228 1357.7 135.657 1356.45 137.403C1355.45 139.281 1355.45 141.575 1353.99 143.243C1352.53 144.912 1349.39 144.954 1346.89 145.454C1336.37 147.457 1332.7 157.635 1324.02 162.14C1324.02 163.433 1324.02 164.684 1324.02 165.978C1324.02 168.531 1324.74 171.031 1326.1 173.194Z" fill="white" stroke="#436AE5" stroke-linecap="round" stroke-linejoin="round"/>
<path d="M1460.43 394.654C1460.43 388.397 1462.22 382.14 1460.43 376.049C1459.36 373.4 1458.05 370.858 1456.5 368.457C1453.24 362.517 1451.29 355.949 1450.78 349.193C1450.27 342.437 1451.21 335.651 1453.54 329.288C1455.75 325.178 1456.84 320.561 1456.71 315.898C1456.34 313.645 1455.17 311.726 1454.83 309.307C1453.75 302.049 1460.93 295.917 1461.22 288.45C1461.07 285.652 1460.75 282.866 1460.26 280.107C1460.38 273.942 1461.8 267.871 1464.44 262.295C1466.11 257.54 1474.83 230.426 1465.35 230.551C1461.18 230.551 1458.05 234.722 1456.21 238.477C1451.29 248.863 1450.29 261.086 1443.69 270.429C1441.44 273.558 1436.93 276.395 1434.01 273.85C1433.38 273.192 1432.9 272.41 1432.6 271.554C1432.3 270.699 1432.18 269.79 1432.25 268.886C1432.25 257.081 1444.78 248.029 1444.78 236.349C1444.76 234.617 1444.62 232.889 1444.36 231.177C1441.31 228.807 1438.81 225.812 1437.01 222.395C1435.22 218.977 1434.18 215.215 1433.96 211.362C1433.96 207.775 1433.96 203.228 1430.58 201.768C1429.12 201.35 1427.6 201.14 1426.08 201.143C1423.91 200.773 1421.96 199.592 1420.64 197.841C1419.31 196.09 1418.7 193.899 1418.94 191.715C1408.62 192.93 1398.17 191.963 1388.26 188.879C1379.91 186.334 1372.23 182.33 1363.84 180.327C1354.24 178.033 1344.14 178.408 1334.41 176.698C1331.26 176.483 1328.29 175.134 1326.06 172.902C1324.6 170.77 1323.78 168.268 1323.68 165.686C1323.68 164.393 1323.68 163.141 1323.68 161.848C1322.36 162.541 1320.96 163.087 1319.51 163.475C1314.63 164.768 1300.85 167.354 1298.3 161.765C1296.34 157.593 1303.9 151.962 1300.52 146.748C1298.39 143.41 1293.25 145.621 1290 147.874C1281.4 153.924 1271.85 158.479 1261.74 161.347C1258.68 162.564 1255.28 162.564 1252.22 161.347L1247.8 164.726C1243.62 167.855 1239.45 171.526 1238.78 176.573C1238.76 179.814 1239.32 183.033 1240.41 186.084C1243.08 197.764 1237.53 206.941 1230.81 215.951C1225.84 222.542 1214.57 232.428 1219.2 241.647C1222.17 247.57 1230.81 249.739 1232.19 256.247C1233.81 264.089 1223.42 269.512 1222.25 277.437C1220.96 286.239 1231.18 292.121 1239.95 293.831C1248.71 295.541 1259.07 296.626 1263.49 304.343C1265.2 307.263 1265.7 310.767 1267.29 313.77C1274.3 326.994 1297.3 324.032 1304.02 337.38C1305.7 341.535 1306.42 346.009 1306.15 350.479C1306.58 366.646 1308.78 382.719 1312.7 398.408C1314.67 406.208 1318.97 415.427 1327.02 415.594C1329.61 415.594 1332.45 414.635 1334.74 415.928C1335.9 416.617 1336.78 417.676 1337.25 418.931C1377.32 408.086 1420.15 408.086 1460.85 399.743C1460.59 398.058 1460.45 396.358 1460.43 394.654Z" fill="white" stroke="#436AE5" stroke-linecap="round" stroke-linejoin="round"/>
<path d="M1501.46 612.484C1499.17 608.904 1497.53 604.951 1496.62 600.804C1496.41 596.007 1499.62 591.752 1500.54 587.039C1501 583.705 1500.87 580.317 1500.16 577.027C1493.11 532.143 1488.02 487.009 1484.59 441.707C1483.5 441.378 1482.45 440.916 1481.46 440.331C1473.82 435.826 1470.07 427.066 1466.77 418.89C1464.05 412.805 1462.06 406.42 1460.84 399.868C1419.94 408.211 1377.36 408.211 1337.2 418.973C1337.75 420.225 1338.12 421.601 1338.58 422.894C1342.01 432.697 1352.27 438.454 1357.32 447.547C1358.97 450.876 1359.93 454.506 1360.12 458.216C1360.32 461.925 1359.75 465.635 1358.46 469.119C1357.17 472.603 1355.19 475.787 1352.62 478.476C1350.06 481.165 1346.97 483.302 1343.55 484.756C1335.41 487.76 1323.22 490.012 1324.35 498.605C1324.77 500.539 1325.49 502.396 1326.48 504.111C1335.03 523.342 1315.08 543.072 1312.29 563.929C1311.55 569.658 1312.13 575.479 1313.98 580.95C1315.83 586.421 1318.91 591.399 1322.97 595.507C1328.31 600.846 1335.2 604.475 1340.92 609.481C1345.98 613.977 1350.04 619.487 1352.83 625.654C1355.62 631.82 1357.08 638.504 1357.12 645.271C1363.67 641.1 1372.94 637.304 1378.28 642.852C1384.62 649.359 1377.57 659.955 1377.78 669.048C1378.2 687.444 1406.12 691.616 1414.01 708.218C1418.77 718.271 1415.51 731.703 1423.19 739.712C1428.45 745.135 1437.01 746.011 1443.81 749.056C1443.6 746.335 1443.93 743.6 1444.77 741.005C1445.33 739.213 1446.44 737.641 1447.94 736.505C1449.43 735.369 1451.24 734.726 1453.12 734.665C1456.79 734.873 1459.55 737.96 1462.51 740.087C1465.48 742.215 1470.4 743.216 1472.32 740.087C1473.57 738.043 1472.82 735.415 1473.32 733.038C1474.24 728.866 1478.75 726.655 1482.42 724.361C1486.1 722.067 1489.6 717.562 1487.43 713.849C1485.85 711.138 1481.51 709.01 1483.26 706.257C1483.63 705.706 1484.1 705.226 1484.64 704.839C1486.72 702.727 1488.31 700.181 1489.3 697.384C1490.29 694.587 1490.65 691.606 1490.35 688.654C1490.35 682.731 1488.81 676.891 1489.06 670.967C1489.52 660.747 1494.78 651.487 1498.87 642.101C1502.96 632.716 1505.59 621.87 1501.46 612.484Z" fill="#74B1FA" stroke="#436AE5" stroke-linecap="round" stroke-linejoin="round"/>
<path d="M1306.11 350.561C1306.38 346.092 1305.66 341.618 1303.98 337.463C1297.26 324.115 1274.26 327.076 1267.25 313.853C1265.66 310.85 1265.16 307.346 1263.45 304.426C1259.03 296.709 1248.63 295.624 1239.91 293.914C1231.19 292.204 1220.92 286.322 1222.21 277.52C1223.38 269.595 1233.77 264.172 1232.15 256.329C1230.77 249.822 1222.13 247.653 1219.16 241.73C1214.53 232.511 1225.8 222.625 1230.77 216.034C1237.49 207.107 1243.04 197.846 1240.37 186.167C1239.28 183.115 1238.73 179.897 1238.74 176.656C1239.33 171.608 1243.71 167.938 1247.76 164.809L1252.18 161.43C1251.41 160.98 1250.78 160.332 1250.35 159.553L1287.41 111.916C1290.7 107.192 1294.67 102.975 1299.18 99.4015C1305.25 95.8313 1311.57 92.7084 1318.09 90.0576C1324.31 86.8456 1331.62 81.7148 1332.53 74.6651C1329.24 66.948 1318.34 66.7394 1310.16 68.6583C1301.98 70.5771 1292.21 72.8297 1285.99 67.2817C1284.41 65.8217 1283.11 63.8195 1281.03 63.1103C1276.85 61.7755 1273.6 66.0303 1271.05 69.4091C1268.5 72.788 1263.24 75.8331 1260.53 72.5794C1258.86 70.5771 1259.36 67.1149 1257.19 65.6549C1255.02 64.1949 1253.02 65.6549 1250.51 65.6549C1245.63 66.0303 1241.83 61.4835 1237.57 59.1892C1233.32 56.8949 1225.72 58.1464 1226.39 63.0269L1218.5 43.5465C1217.95 42.1699 1217.16 40.5431 1215.66 40.2928C1215.09 40.2673 1214.52 40.3577 1213.99 40.5585C1213.46 40.7593 1212.98 41.0664 1212.57 41.4608C1206.27 46.383 1200.05 55.4349 1192.7 51.8475C1189.57 50.3041 1187.07 46.4247 1183.73 47.3424C1181.22 48.0516 1180.18 51.1384 1177.88 52.3481C1173.04 54.9344 1168.87 47.8847 1163.94 45.3819C1159.02 42.8791 1153.34 45.1316 1148 46.2579C1132.8 49.4282 1128.38 30.3231 1126.33 18.8935C1125.79 15.8484 1125.12 12.261 1122.16 10.8844C1120.56 10.4065 1118.85 10.5088 1117.32 11.173C1115.79 11.8373 1114.55 13.0207 1113.81 14.5136C1112.44 17.545 1111.24 20.6506 1110.22 23.8157C1101.87 41.7528 1068.94 36.8722 1053.33 36.9557C1045.6 36.9557 1037.84 36.9557 1030.12 36.9557C1032.17 40.0992 1033.9 43.4388 1035.29 46.9253C1037.76 54.1835 1033.96 59.4395 1034.04 66.1137C1034.04 70.2851 1036.75 72.3291 1037.84 76.2085C1039.51 82.2153 1036.38 87.6381 1036.88 93.6867C1037.38 99.7352 1041.43 105.867 1044.48 111.415C1052.29 125.77 1055.91 142.032 1054.91 158.343C1054.17 163.971 1053.99 169.658 1054.37 175.321C1055.52 180.965 1057.25 186.473 1059.54 191.756C1064.62 205.635 1066.61 220.456 1065.35 235.18C1064.68 242.564 1063.39 250.656 1067.39 256.872C1069.23 259.708 1072.03 261.877 1073.78 264.756C1075.81 268.842 1076.76 273.38 1076.53 277.937L1080.04 371.71C1080.04 375.339 1080.29 379.01 1080.33 382.723C1156.01 378.259 1231.73 373.379 1306.86 363.534C1306.49 359.238 1306.24 354.9 1306.11 350.561Z" fill="white" stroke="#436AE5" stroke-linecap="round" stroke-linejoin="round"/>
<path d="M1208.48 559.924C1224.22 556.936 1240.17 555.151 1256.19 554.585C1263.07 554.946 1269.96 554.484 1276.73 553.209C1283.15 551.373 1287.37 548.537 1294.63 549.997C1301.9 551.457 1306.9 557.171 1312.79 561.218C1316.96 541.362 1334.66 522.507 1326.48 504.153C1325.49 502.437 1324.78 500.58 1324.35 498.647C1323.23 490.054 1335.41 487.801 1343.55 484.798C1346.97 483.343 1350.06 481.206 1352.63 478.517C1355.19 475.828 1357.18 472.644 1358.47 469.161C1359.76 465.677 1360.32 461.967 1360.13 458.257C1359.93 454.548 1358.98 450.918 1357.33 447.589C1352.28 438.495 1342.01 432.739 1338.59 422.936C1337.67 420.35 1337.08 417.304 1334.7 416.011C1332.33 414.718 1329.57 415.719 1326.98 415.678C1318.93 415.678 1314.46 406.292 1312.67 398.491C1309.8 387.014 1307.86 375.324 1306.86 363.535C1231.73 373.38 1156.01 378.26 1080.33 382.724C1080.75 392.449 1079.85 402.187 1077.66 411.673C1076.52 415.226 1075.77 418.889 1075.41 422.602C1075.47 425.894 1075.98 429.163 1076.91 432.321C1079.14 443.649 1082.94 454.612 1088.18 464.9C1089.89 467.945 1091.89 470.823 1093.52 473.91C1096.56 480.68 1099.14 487.649 1101.24 494.767C1103.71 502.443 1106.13 510.118 1108.59 517.793C1110.75 524.086 1112.56 530.491 1114.02 536.982C1115.44 544.949 1115.06 553.167 1116.69 561.092C1116.97 562.511 1117.3 563.901 1117.69 565.264C1130 564.742 1142.27 563.349 1154.38 561.092C1172.66 557.755 1190.03 563.47 1208.48 559.924Z" fill="white" stroke="#436AE5" stroke-linecap="round" stroke-linejoin="round"/>
<path d="M1394.27 817.55C1393.9 819.014 1393.9 820.549 1394.27 822.014C1395.86 826.519 1402.41 825.476 1406.79 824.016C1411.9 822.35 1417.18 821.259 1422.53 820.762C1423.61 816.132 1424.66 811.502 1425.58 806.83C1426.31 800.306 1428.57 794.046 1432.17 788.559C1435.68 784.339 1440.5 781.405 1445.86 780.216C1445.2 770.789 1444.57 761.403 1443.9 751.976C1443.9 751.016 1443.9 750.057 1443.69 749.056C1436.89 746.011 1428.33 745.135 1423.07 739.712C1415.39 731.703 1418.65 718.271 1413.89 708.218C1406 691.532 1378.07 687.361 1377.66 669.048C1377.45 659.955 1384.5 649.359 1378.16 642.852C1372.82 637.304 1363.55 641.142 1357 645.272C1356.96 638.504 1355.5 631.82 1352.71 625.654C1349.92 619.487 1345.86 613.977 1340.8 609.481C1335.08 604.475 1328.28 600.846 1322.85 595.507C1318.79 591.399 1315.71 586.421 1313.86 580.95C1312.01 575.479 1311.43 569.658 1312.16 563.929C1312.16 563.012 1312.33 562.094 1312.67 561.176C1306.78 557.005 1301.52 551.332 1294.51 549.955C1287.5 548.578 1283.03 551.332 1276.6 553.167C1269.83 554.442 1262.94 554.905 1256.06 554.544C1240.05 555.11 1224.1 556.895 1208.35 559.883C1189.9 563.429 1172.54 557.714 1154.09 561.134C1141.97 563.39 1129.71 564.784 1117.4 565.306C1118.49 570.614 1121.2 575.452 1125.16 579.155C1127.34 580.948 1129.25 583.04 1130.84 585.37C1138.52 596.258 1156.72 600.721 1157.8 614.195C1158.31 620.327 1154.67 626.25 1155.22 632.382C1156.13 643.353 1167.32 645.939 1172.62 653.99C1180.34 665.628 1179.47 682.564 1179.05 695.704C1177.84 736.75 1183.81 777.421 1189.36 818.218C1258.61 806.287 1328.61 799.446 1398.57 792.689C1397.26 801.087 1395.83 809.374 1394.27 817.55Z" fill="white" stroke="#436AE5" stroke-linecap="round" stroke-linejoin="round"/>
<path d="M1365.89 970.64C1368.68 956.332 1376.03 943.442 1382.58 930.511C1400.45 895.728 1413.92 858.863 1422.7 820.761C1417.35 821.258 1412.07 822.349 1406.96 824.015C1402.41 825.475 1395.86 826.518 1394.44 822.013C1394.06 820.548 1394.06 819.014 1394.44 817.549C1396 809.373 1397.53 801.197 1399.03 793.021C1329.07 799.779 1259.07 806.62 1189.82 818.55C1193.28 843.913 1196.58 869.358 1197.88 894.887C1199.55 927.215 1199.55 961.212 1203.05 993.374C1205.21 995.262 1207.76 996.667 1210.51 997.494C1213.26 998.322 1216.15 998.552 1219 998.171C1222.5 997.67 1226.72 996.461 1229.02 999.172C1230.04 1000.68 1230.54 1002.48 1230.43 1004.3C1230.98 1014.94 1231.27 1025.66 1231.35 1036.34C1276.66 1027.38 1322.46 1021.18 1368.52 1017.78C1365.18 1002.13 1362.63 986.449 1365.89 970.64Z" fill="white" stroke="#436AE5" stroke-linecap="round" stroke-linejoin="round"/>
<path d="M1496.16 1238.99C1495.4 1236.17 1493.87 1233.62 1491.74 1231.63C1489.6 1229.64 1486.96 1228.29 1484.09 1227.72C1481.57 1227.52 1479.07 1227.18 1476.58 1226.72C1474.41 1226.08 1472.5 1224.77 1471.13 1222.98C1469.76 1221.18 1469 1219 1468.95 1216.74C1468.9 1214.48 1469.58 1212.27 1470.87 1210.42C1472.17 1208.57 1474.02 1207.18 1476.16 1206.45C1478.21 1206.04 1480.22 1205.46 1482.17 1204.7C1483.2 1203.95 1484.04 1202.97 1484.64 1201.84C1485.23 1200.72 1485.56 1199.47 1485.59 1198.2C1485.63 1196.93 1485.37 1195.66 1484.85 1194.5C1484.32 1193.35 1483.53 1192.32 1482.55 1191.52C1480.41 1190.04 1477.86 1189.26 1475.25 1189.3C1472.65 1189.34 1470.12 1190.18 1468.02 1191.72C1465.97 1193.41 1463.79 1194.95 1461.51 1196.31C1460.34 1196.96 1458.98 1197.18 1457.66 1196.93C1456.35 1196.69 1455.15 1196 1454.29 1194.98C1452.2 1191.77 1455.17 1186.38 1452.04 1184.17C1448.91 1181.96 1446.23 1185.05 1443.94 1187.18C1441.26 1189.86 1437.85 1191.68 1434.14 1192.43C1430.42 1193.17 1426.57 1192.79 1423.07 1191.35C1416.35 1187.84 1414.01 1177.12 1419.98 1172.45C1425.95 1167.78 1434.38 1171.37 1441.48 1173.87C1448.41 1176.34 1455.7 1177.65 1463.06 1177.75H1465.02C1464.35 1173.92 1462.93 1170.27 1460.84 1166.99C1457.71 1161.98 1452.87 1157.52 1452.5 1151.6C1452.08 1146.96 1454.42 1142.13 1452.5 1137.83C1451.24 1135.64 1449.3 1133.91 1446.97 1132.92C1444.64 1131.92 1442.05 1131.72 1439.6 1132.32C1434.63 1133.07 1430.08 1135.54 1425.15 1136.49C1414.3 1138.87 1402.57 1134.33 1392.01 1137.75C1386.17 1139.62 1381.28 1143.71 1375.57 1146.09C1369.85 1148.47 1362.21 1148.13 1358.87 1142.96C1357 1139.05 1356.7 1134.57 1358.03 1130.45C1363.38 1102.66 1377.11 1077.59 1373.85 1048.85C1372.69 1038.47 1370.31 1028 1368.22 1017.69C1322.16 1021.1 1276.36 1027.3 1231.06 1036.26C1231.06 1048.63 1230.88 1061.01 1230.51 1073.38C1229.71 1083.05 1230.02 1092.78 1231.43 1102.37C1234.53 1115.36 1240.35 1127.55 1248.5 1138.12C1254.35 1146.46 1261.03 1155.72 1259.23 1165.69C1257.98 1172.7 1252.59 1178.5 1251.72 1185.55C1251.63 1190.43 1252.28 1195.29 1253.64 1199.98C1255.89 1212.5 1253.35 1225.72 1253.01 1238.44C1261.31 1235.6 1270.15 1234.7 1278.85 1235.82C1284.9 1236.73 1290.7 1238.78 1296.72 1239.99C1305.06 1241.7 1328.65 1246.12 1335.08 1238.94C1342.09 1231.06 1334.66 1221.8 1350.44 1226.85C1351.42 1227.02 1352.42 1227.02 1353.4 1226.85C1360.33 1226.51 1373.44 1241.49 1377.82 1233.31C1379.49 1230.23 1377.36 1226.43 1374.86 1224.01C1372.35 1221.59 1369.14 1219.55 1368.01 1216.21C1367.58 1214.86 1367.37 1213.45 1367.38 1212.04C1367.29 1211.09 1367.46 1210.14 1367.88 1209.29C1368.45 1208.61 1369.25 1208.18 1370.12 1208.09C1370.99 1208 1371.87 1208.25 1372.56 1208.79C1378.58 1213.21 1382.82 1219.65 1384.5 1226.93C1385.75 1234.77 1384.12 1242.87 1385.63 1250.67C1387.13 1258.47 1393.97 1266.43 1401.61 1264.97C1406.25 1264.14 1409.63 1260.3 1413.51 1257.59C1417.39 1254.88 1423.23 1253.42 1426.36 1256.92C1427.45 1258.09 1428.16 1259.84 1429.75 1260.3C1430.37 1260.41 1431.02 1260.4 1431.63 1260.24C1432.25 1260.09 1432.83 1259.81 1433.34 1259.43C1439.03 1256.47 1443.34 1251.41 1445.36 1245.33C1446.29 1242.28 1446.21 1239.01 1445.14 1236.01C1444.08 1233 1442.07 1230.42 1439.43 1228.64C1436.05 1226.68 1431.08 1225.51 1431.08 1221.63C1431.08 1217.75 1437.47 1215.83 1441.02 1218.42C1444.56 1221.01 1446.07 1225.47 1448.95 1228.77C1456.92 1237.98 1473.49 1236.82 1479.79 1247.29C1481.96 1250.92 1483.97 1256.34 1488.14 1255.63C1489.28 1255.41 1490.34 1254.87 1491.19 1254.09C1493.3 1252.25 1494.87 1249.87 1495.74 1247.22C1496.62 1244.56 1496.76 1241.72 1496.16 1238.99Z" fill="white" stroke="#436AE5" stroke-linecap="round" stroke-linejoin="round"/>
<path d="M1203.09 993.374C1199.59 961.213 1199.59 927.216 1197.92 894.888C1196.08 858.43 1190.15 822.18 1185.4 785.931L998.977 794.273C958.697 796.109 918.667 794.273 878.386 794.941C861.689 795.233 841.486 799.112 825.207 793.356V794.107C810.765 794.315 795.988 795.024 781.546 794.107C779.751 794.107 778.624 807.622 777.914 826.185C825.87 829.806 873.997 830.614 922.048 828.604C922.576 867.732 923.091 906.873 923.592 946.029C923.592 947.447 923.592 949.158 925.095 949.742C925.968 950.075 926.934 950.075 927.808 949.742C939.036 947.114 944.922 956.416 954.23 957.083C957.361 957.083 958.906 954.58 962.579 955.832C967.129 957.25 970.092 963.215 973.223 966.469C976.512 969.804 980.608 972.233 985.113 973.519C989.618 974.806 994.38 974.906 998.936 973.81C1004.86 972.267 1011.08 968.721 1016.68 971.224C1021.39 973.31 1023.35 978.774 1026.23 983.029C1030.41 989.37 1033.33 987.659 1039.26 985.782C1041.51 985.073 1044.18 982.403 1046.86 983.029C1049.53 983.655 1050.82 988.244 1053.91 989.787C1057 991.33 1060.71 989.036 1064.05 987.91C1072.4 985.073 1081.63 989.829 1089.68 993.917C1097.74 998.005 1107.8 1001.47 1115.31 996.461C1119.11 993.917 1121.82 989.37 1126.33 988.661C1128.5 988.285 1130.71 988.911 1132.8 988.369C1136.35 987.409 1138.35 983.53 1141.69 982.07C1147.58 979.442 1153.96 985.073 1160.39 984.865C1163.47 984.275 1166.58 983.899 1169.7 983.738C1174.83 984.364 1178.05 989.578 1182.22 992.665C1185.21 994.583 1188.61 995.751 1192.14 996.071C1195.67 996.39 1199.23 995.852 1202.51 994.501L1203.55 994L1203.09 993.374Z" fill="white" stroke="#436AE5" stroke-linecap="round" stroke-linejoin="round"/>
<path d="M1065.72 228.215C1065.95 215.785 1063.91 203.417 1059.71 191.715C1057.41 186.432 1055.68 180.924 1054.53 175.28C1054.15 169.616 1054.33 163.929 1055.07 158.302C1056.07 141.991 1052.45 125.729 1044.64 111.374C1041.59 105.826 1037.58 100.111 1037.04 93.6454C1036.5 87.1797 1039.67 82.174 1038 76.1672C1036.92 72.2878 1034.29 70.4107 1034.2 66.0725C1034.2 59.1896 1037.92 54.1423 1035.46 46.884C1034.07 43.3688 1032.34 40.001 1030.28 36.8309C1016.09 36.8309 1001.85 36.3721 987.661 36.4138L825.954 37.1647C805.084 37.1647 784.463 37.3732 763.676 37.1647C760.893 101.654 758.194 166.158 755.578 230.676C858.889 234.972 962.449 234.096 1065.72 228.215Z" fill="white" stroke="#436AE5" stroke-linecap="round" stroke-linejoin="round"/>
<path d="M1080.04 371.711L1076.53 277.938C1076.75 273.381 1075.81 268.843 1073.77 264.756C1072.02 261.878 1069.22 259.709 1067.39 256.872C1063.21 250.657 1064.68 242.564 1065.34 235.181C1065.55 232.845 1065.64 230.551 1065.72 228.215C962.45 234.097 858.889 234.972 755.579 230.718C753.019 291.509 750.459 352.258 747.898 412.966L975.891 417.137C980.764 416.967 985.635 417.544 990.333 418.848C999.016 421.768 1006.11 429.568 1015.38 429.652C1019.32 429.307 1023.23 428.566 1027.02 427.441C1044.97 423.853 1061.75 435.45 1079.33 441.457C1078.53 438.453 1077.78 435.408 1077.03 432.405C1076.1 429.247 1075.59 425.978 1075.53 422.685C1075.89 418.973 1076.64 415.309 1077.78 411.756C1080.46 398.586 1081.22 385.098 1080.04 371.711Z" fill="white" stroke="#436AE5" stroke-linecap="round" stroke-linejoin="round"/>
<path d="M1131.13 585.537C1129.54 583.207 1127.63 581.114 1125.46 579.321C1120.36 575.15 1118.03 567.85 1116.69 561.218C1115.06 553.292 1115.44 545.074 1114.02 537.107C1112.56 530.617 1110.75 524.211 1108.59 517.919C1106.13 510.243 1103.71 502.568 1101.25 494.892C1099.15 487.774 1096.57 480.805 1093.52 474.035C1091.9 470.949 1089.89 468.07 1088.18 465.025C1084.18 457.605 1081.16 449.696 1079.21 441.498C1061.63 435.492 1044.85 423.895 1026.9 427.483C1023.11 428.608 1019.2 429.348 1015.26 429.693C1006.12 429.693 999.02 421.809 990.213 418.889C985.514 417.586 980.644 417.009 975.77 417.179L747.778 413.008C746.025 455.306 744.258 497.59 742.477 539.86C773.24 539.359 803.294 541.153 834.016 542.989C833.682 563.095 833.223 583.215 832.638 603.349C838.673 603.925 844.738 604.106 850.796 603.891L1012.92 600.971C1055.79 600.22 1098.53 596.8 1141.44 595.048C1137.5 592.474 1134.01 589.259 1131.13 585.537Z" fill="white" stroke="#436AE5" stroke-linecap="round" stroke-linejoin="round"/>
<path d="M1179.34 695.912C1179.76 682.605 1180.64 665.67 1172.91 654.198C1167.61 646.147 1156.43 643.561 1155.51 632.59C1154.97 626.458 1158.6 620.535 1158.1 614.403C1157.39 605.518 1149.25 600.554 1141.4 595.048C1098.49 596.925 1055.75 600.22 1012.88 600.971L850.752 603.891C844.694 604.107 838.629 603.925 832.595 603.349C830.758 666.754 827.794 730.118 824.789 793.481C841.068 799.071 861.104 795.358 877.968 795.066C918.248 794.357 958.279 796.234 998.559 794.399L1184.98 786.056C1180.73 756.203 1178.85 726.061 1179.34 695.912Z" fill="white" stroke="#436AE5" stroke-linecap="round" stroke-linejoin="round"/>
<path d="M1258.09 1166.33C1259.93 1156.32 1253.21 1147.02 1247.36 1138.72C1239.21 1128.14 1233.39 1115.96 1230.29 1102.97C1228.88 1093.38 1228.57 1083.67 1229.37 1074.02C1230.29 1050.94 1230.16 1027.87 1229 1004.81C1229.1 1003 1228.6 1001.19 1227.58 999.684C1225.28 997.014 1221.02 998.182 1217.56 998.683C1214.83 999.058 1212.05 998.862 1209.4 998.108C1206.75 997.354 1204.28 996.059 1202.16 994.303C1201.78 994.303 1201.45 994.678 1201.07 994.803C1197.8 996.151 1194.25 996.688 1190.72 996.368C1187.2 996.048 1183.8 994.882 1180.83 992.968C1176.65 989.923 1173.56 984.625 1168.3 984.083C1165.13 984.25 1161.97 984.682 1158.87 985.376C1152.44 985.585 1146.06 979.911 1140.17 982.539C1136.83 984.041 1134.83 987.921 1131.28 988.838C1129.19 989.381 1127.11 988.838 1124.81 989.13C1120.3 989.839 1117.55 994.386 1113.75 996.931C1106.28 1001.94 1096.17 998.474 1088.16 994.386C1080.15 990.298 1071.09 985.543 1062.53 988.421C1059.19 989.547 1055.56 991.8 1052.39 990.257C1049.22 988.713 1048.59 984.291 1045.33 983.54C1042.08 982.79 1039.99 985.543 1037.74 986.252C1031.81 988.171 1029.05 989.839 1024.71 983.499C1021.83 979.327 1019.87 973.821 1015.15 971.694C1009.56 969.191 1003.34 972.778 997.414 974.28C992.852 975.387 988.081 975.293 983.567 974.006C979.053 972.719 974.95 970.284 971.659 966.938C968.571 963.726 965.607 957.72 961.057 956.301C957.217 955.092 955.672 957.803 952.709 957.553C943.4 956.885 937.515 947.625 926.286 950.253C925.407 950.555 924.452 950.555 923.573 950.253C922.279 949.627 922.07 947.917 922.07 946.54C921.569 907.385 921.055 868.229 920.526 829.074C872.476 831.105 824.347 830.297 776.392 826.654C774.848 865.281 775.14 925.808 775.098 932.107C774.723 990.799 775.766 1048.91 771.467 1107.31C762.504 1107.95 753.498 1107.7 744.585 1106.55L660.893 1101.84L619.152 1099.51C607.756 1098.88 596.695 1096.21 585.383 1097.96C586.802 1103.84 591.519 1106.3 594.775 1110.77C595.317 1111.56 595.776 1112.48 596.277 1113.4C597.593 1113.53 598.866 1113.94 600.015 1114.59C601.165 1115.25 602.166 1116.13 602.956 1117.19C606.462 1121.36 605.21 1129.04 611.597 1131C613.6 1131.63 615.771 1131.25 617.858 1131.75C624.829 1133.42 625.622 1142.68 627.542 1149.56C628.656 1153.49 630.574 1157.15 633.175 1160.3C635.776 1163.45 639.003 1166.03 642.652 1167.87C649.832 1171.42 659.349 1173.05 662.062 1180.39C662.634 1182.92 663.039 1185.48 663.273 1188.06C665.109 1197.7 675.252 1203.67 678.508 1213.09C680.637 1219.18 679.468 1225.9 679.886 1232.36C680.721 1246.76 691.031 1245.59 698.711 1254.01C703.72 1259.44 701.216 1269.49 707.059 1274.12C709.688 1275.78 712.684 1276.77 715.783 1277C728.511 1279.27 740.277 1285.27 749.594 1294.23C751.89 1296.44 754.561 1299.02 757.692 1298.4C760.823 1297.77 762.868 1293.98 764.955 1291.14C767.042 1288.3 772.093 1286.47 773.637 1289.68C780.566 1283.88 776.184 1270.62 783.363 1265.11C787.537 1262.02 793.423 1262.94 797.68 1260.1C800.686 1258.14 802.314 1254.6 805.361 1252.72C808.953 1251.02 813.015 1250.6 816.882 1251.51L834.956 1253.64C840.678 1253.67 846.211 1255.69 850.609 1259.35C854.157 1263.07 854.783 1268.57 857.454 1273.04C862.756 1282.42 874.568 1285.97 881.706 1293.89C890.555 1303.78 890.931 1318.92 898.695 1329.64C902.368 1334.73 907.419 1338.57 911.218 1343.45C919.232 1353.54 921.987 1367.93 932.589 1375.19C936.763 1377.99 941.814 1379.57 945.112 1383.54C950.538 1389.92 948.493 1399.47 949.286 1407.81C950.033 1416.37 953.965 1424.33 960.306 1430.13C963.562 1433.09 967.736 1435.97 968.237 1440.35C968.205 1442.72 967.968 1445.08 967.527 1447.4C967.109 1455.2 974.414 1461.04 981.302 1464.67C994.665 1471.15 1008.65 1476.27 1023.04 1479.94L1057.9 1490.12C1065.45 1492.33 1077.68 1497.41 1080.19 1490.12C1080.37 1488.92 1080.16 1487.7 1079.57 1486.65C1078.99 1485.59 1078.08 1484.76 1076.97 1484.28C1074.74 1483.36 1072.57 1482.27 1070.5 1481.02C1066.33 1477.77 1068 1465.42 1066.33 1460.5C1062.85 1450.29 1059.41 1440.07 1056.02 1429.84C1055.32 1428.17 1055.06 1426.34 1055.27 1424.54C1056.02 1421.33 1059.44 1419.66 1061.53 1417.03C1062.22 1416.01 1062.7 1414.86 1062.93 1413.64C1063.16 1412.43 1063.14 1411.18 1062.86 1409.97C1062.59 1408.77 1062.07 1407.63 1061.34 1406.64C1060.6 1405.64 1059.68 1404.81 1058.61 1404.18C1055.52 1402.56 1050.59 1401.43 1051.3 1398.05C1051.68 1396.18 1053.77 1395.3 1055.48 1394.59C1059.61 1393.39 1063.21 1390.84 1065.7 1387.33C1066.28 1386.45 1066.67 1385.46 1066.86 1384.42C1067.05 1383.38 1067.03 1382.32 1066.8 1381.29C1066.57 1380.26 1066.13 1379.28 1065.52 1378.42C1064.91 1377.56 1064.14 1376.83 1063.24 1376.28C1062.14 1375.95 1061.1 1375.46 1060.15 1374.82C1057.44 1372.27 1061.78 1368.06 1065.54 1367.81C1069.29 1367.56 1074.09 1367.81 1075.64 1364.47C1075.98 1363.28 1076.02 1362.02 1075.74 1360.81C1075.46 1359.59 1074.88 1358.47 1074.05 1357.55C1072.35 1355.71 1071.18 1353.45 1070.67 1351C1070.46 1348.5 1073.05 1345.78 1075.26 1346.83C1077.47 1347.87 1077.22 1350.67 1079.02 1351.79C1080.81 1352.92 1083.19 1351.5 1085.15 1350.08L1094.55 1342.41C1095.77 1341.56 1096.72 1340.37 1097.26 1338.99C1097.93 1336.4 1095.72 1334.1 1094.59 1331.73C1093.46 1329.35 1094.84 1325.22 1097.3 1326.18C1098.43 1326.6 1098.93 1327.89 1099.68 1328.77C1103.02 1332.73 1109.32 1329.18 1113.04 1325.55C1114.08 1324.59 1115.17 1323.3 1114.71 1321.97C1114.25 1320.63 1113.46 1320.55 1112.79 1319.88C1110.2 1317.29 1112.16 1312.46 1115.5 1310.95C1119.21 1309.81 1123.17 1309.71 1126.94 1310.66C1134.85 1312.15 1143 1311.84 1150.77 1309.74C1154.64 1308.68 1158.26 1306.87 1161.42 1304.4C1164.58 1301.93 1167.22 1298.85 1169.18 1295.35C1171.81 1290.18 1172.6 1284.05 1176.19 1279.46C1178.66 1276.29 1182.37 1273.99 1184.12 1270.37C1186.71 1265.07 1184.33 1258.6 1185.79 1252.85C1187.83 1247.41 1191.56 1242.78 1196.44 1239.62C1196.95 1239.09 1197.66 1238.77 1198.4 1238.75C1200.07 1238.75 1200.32 1241.17 1199.78 1242.92C1199.23 1244.67 1198.4 1246.3 1199.44 1247.59C1200.49 1248.88 1204.24 1247.88 1205.79 1249.59C1207.96 1252.05 1204.16 1256.27 1206.87 1258.39C1209.59 1260.52 1214.76 1257.6 1217.1 1256.27C1228.15 1249.25 1239.94 1243.46 1252.25 1239C1252.62 1226.48 1255.17 1213.01 1252.87 1200.54C1251.53 1195.85 1250.9 1190.98 1250.99 1186.1C1251.45 1179.1 1256.8 1173.3 1258.09 1166.33Z" fill="white" stroke="#436AE5" stroke-miterlimit="10"/>
<path d="M491.816 768.619C480.685 888.477 470.361 1008.4 460.844 1128.4C474.452 1130.11 488.059 1131.74 501.792 1132.91C504.926 1132.96 508.007 1133.71 510.808 1135.12C512.032 1124.49 512.464 1113.78 512.102 1103.08L590.577 1112.43C593.29 1112.76 595.46 1112.76 597.381 1113.01C596.936 1112.1 596.434 1111.22 595.878 1110.38C592.622 1105.79 587.905 1103.5 586.486 1097.58C597.798 1095.87 608.859 1098.54 620.297 1099.16L662.038 1101.5L745.73 1106.17C754.642 1107.33 763.649 1107.59 772.612 1106.92C776.786 1048.52 775.867 990.371 776.285 931.721C776.285 922.919 775.742 808.373 780.459 795.4C772.443 793.164 764.154 792.055 755.832 792.104C667.423 788.85 579.473 780.257 491.816 768.619Z" fill="white" stroke="#436AE5" stroke-linecap="round" stroke-linejoin="round"/>
<path d="M742.599 539.818V538.817C735.689 539.829 728.684 540.025 721.728 539.401C653.133 535.48 584.746 529.111 516.568 520.296C507.803 603.056 499.454 685.831 491.523 768.619C579.181 780.257 667.13 788.85 755.455 792.062C763.778 792.013 772.067 793.122 780.083 795.358C780.375 794.607 780.667 794.148 780.96 794.148C795.402 795.108 810.179 794.398 824.621 794.148C828.795 710.428 832.552 626.708 833.846 542.905C803.417 541.111 773.363 539.318 742.599 539.818Z" fill="white" stroke="#436AE5" stroke-linecap="round" stroke-linejoin="round"/>
</g>
<g filter="url(#filter0_d_5_66366)">
<ellipse cx="1449" cy="436.115" rx="20.5876" ry="20.5819" fill="white"/>
<path d="M1466.59 436.115C1466.59 445.824 1458.72 453.697 1449 453.697C1439.29 453.697 1431.41 445.824 1431.41 436.115C1431.41 426.406 1439.29 418.533 1449 418.533C1458.72 418.533 1466.59 426.406 1466.59 436.115Z" stroke="#FF7D01" stroke-width="6"/>
</g>
</g>
<g filter="url(#filter1_d_5_66366)">
<rect x="1504" y="382.842" width="284" height="104" rx="25" fill="white"/>
</g>
<path d="M1536.2 413.838H1546.24V416.504H1542.8V425.186H1546.24V427.842H1536.2V425.186H1539.64V416.504H1536.2V413.838ZM1548.84 413.838H1551.72V427.842H1548.84V413.838ZM1554.52 413.838H1557.4V427.842H1554.52V413.838ZM1560.21 417.842H1563.09V427.842H1560.21V417.842ZM1560.48 415.918C1560.19 415.684 1560.05 415.365 1560.05 414.961C1560.05 414.57 1560.19 414.251 1560.48 414.004C1560.76 413.763 1561.15 413.643 1561.65 413.643C1562.15 413.643 1562.54 413.763 1562.82 414.004C1563.11 414.251 1563.25 414.57 1563.25 414.961C1563.25 415.365 1563.11 415.684 1562.82 415.918C1562.54 416.159 1562.15 416.279 1561.65 416.279C1561.15 416.279 1560.76 416.159 1560.48 415.918ZM1576.73 427.842H1573.85V422.803C1573.85 421.963 1573.62 421.322 1573.17 420.879C1572.73 420.43 1572.11 420.205 1571.31 420.205C1570.49 420.205 1569.87 420.443 1569.43 420.918C1568.99 421.4 1568.77 422.028 1568.77 422.803V427.842H1565.89V417.842H1568.77V419.502H1568.94C1569.01 419.346 1569.16 419.131 1569.39 418.857C1569.6 418.636 1569.81 418.447 1570.04 418.291C1570.31 418.109 1570.66 417.956 1571.11 417.832C1571.56 417.708 1572.03 417.646 1572.53 417.646C1573.79 417.646 1574.8 418.008 1575.58 418.73C1576.34 419.46 1576.73 420.55 1576.73 422.002V427.842ZM1584.73 428.037C1583.03 428.037 1581.66 427.578 1580.61 426.66C1579.55 425.742 1579.02 424.469 1579.02 422.842C1579.02 421.214 1579.55 419.941 1580.61 419.023C1581.66 418.105 1583.03 417.646 1584.73 417.646C1586.42 417.646 1587.79 418.105 1588.85 419.023C1589.9 419.941 1590.43 421.214 1590.43 422.842C1590.43 424.469 1589.9 425.742 1588.85 426.66C1587.79 427.578 1586.42 428.037 1584.73 428.037ZM1584.73 425.566C1585.58 425.566 1586.25 425.312 1586.74 424.805C1587.23 424.297 1587.47 423.643 1587.47 422.842C1587.47 422.041 1587.23 421.387 1586.74 420.879C1586.25 420.371 1585.58 420.117 1584.73 420.117C1583.87 420.117 1583.2 420.371 1582.72 420.879C1582.24 421.387 1581.99 422.041 1581.99 422.842C1581.99 423.643 1582.24 424.297 1582.72 424.805C1583.2 425.312 1583.87 425.566 1584.73 425.566ZM1592.82 417.842H1595.7V427.842H1592.82V417.842ZM1593.1 415.918C1592.81 415.684 1592.67 415.365 1592.67 414.961C1592.67 414.57 1592.81 414.251 1593.1 414.004C1593.38 413.763 1593.77 413.643 1594.27 413.643C1594.77 413.643 1595.16 413.763 1595.44 414.004C1595.73 414.251 1595.87 414.57 1595.87 414.961C1595.87 415.365 1595.73 415.684 1595.44 415.918C1595.16 416.159 1594.77 416.279 1594.27 416.279C1593.77 416.279 1593.38 416.159 1593.1 415.918ZM1607.89 420.938H1604.93C1604.93 420.768 1604.92 420.635 1604.88 420.537C1604.85 420.439 1604.78 420.322 1604.67 420.186C1604.44 419.919 1603.86 419.785 1602.93 419.785C1601.69 419.785 1601.07 420.091 1601.07 420.703C1601.07 420.996 1601.32 421.208 1601.83 421.338C1602.31 421.468 1602.91 421.569 1603.64 421.641C1604.42 421.712 1605.13 421.816 1605.78 421.953C1606.48 422.096 1607.09 422.412 1607.6 422.9C1608.1 423.382 1608.35 424.03 1608.35 424.844C1608.35 426.986 1606.6 428.05 1603.11 428.037C1599.64 428.037 1597.91 426.904 1597.91 424.639V424.326H1600.87V424.639C1600.87 425.088 1601.04 425.41 1601.4 425.605C1601.75 425.801 1602.32 425.898 1603.11 425.898C1604.62 425.898 1605.38 425.56 1605.39 424.883C1605.39 424.59 1605.21 424.362 1604.85 424.199C1604.5 424.049 1604.05 423.949 1603.5 423.896C1602.92 423.857 1602.34 423.786 1601.75 423.682C1601.12 423.571 1600.53 423.434 1600 423.271C1599.47 423.109 1599.02 422.803 1598.65 422.354C1598.29 421.911 1598.11 421.354 1598.11 420.684C1598.11 419.694 1598.54 418.939 1599.41 418.418C1600.28 417.904 1601.47 417.646 1602.99 417.646C1606.26 417.64 1607.89 418.737 1607.89 420.938Z" fill="#272727"/>
<path d="M1538.42 444.33L1535.72 446.457V444.55L1538.57 442.238H1540.12V454.842H1538.42V444.33ZM1557.77 454.842H1555.71L1553.44 447.679H1553.36L1551.09 454.842H1549.03L1546.42 446.018H1547.98L1550.06 453.146H1550.13L1552.39 446.018H1554.41L1556.67 453.146H1556.75L1558.82 446.018H1560.38L1557.77 454.842ZM1561.75 452.372C1561.75 451.47 1562.13 450.802 1562.9 450.368C1563.66 449.94 1564.64 449.727 1565.83 449.727C1566.44 449.727 1567 449.8 1567.52 449.946C1568.06 450.099 1568.44 450.242 1568.65 450.377L1569 450.597V449.208C1569 448.61 1568.78 448.142 1568.34 447.802C1567.9 447.456 1567.24 447.283 1566.35 447.283C1564.59 447.283 1563.71 447.764 1563.71 448.725H1562.16C1562.16 447.752 1562.56 447.028 1563.34 446.554C1564.12 446.079 1565.13 445.842 1566.35 445.842C1567.58 445.842 1568.59 446.129 1569.37 446.703C1570.14 447.283 1570.54 448.118 1570.54 449.208V452.416C1570.54 452.861 1570.6 453.172 1570.72 453.348C1570.84 453.518 1571.03 453.603 1571.3 453.603C1571.53 453.603 1571.69 453.57 1571.76 453.506L1571.8 453.488V454.877C1571.62 454.971 1571.35 455.018 1571.01 455.018C1570.42 455.018 1569.99 454.892 1569.71 454.64C1569.49 454.452 1569.32 454.256 1569.22 454.051L1569.17 453.945H1569.1C1568.96 454.092 1568.81 454.215 1568.65 454.314C1568.47 454.438 1568.27 454.546 1568.06 454.64C1567.48 454.892 1566.78 455.018 1565.96 455.018C1564.71 455.018 1563.69 454.804 1562.91 454.376C1562.13 453.954 1561.75 453.286 1561.75 452.372ZM1566.18 451.168C1564.28 451.168 1563.33 451.569 1563.33 452.372C1563.33 453.181 1564.28 453.585 1566.18 453.585C1566.75 453.585 1567.26 453.523 1567.72 453.4C1568.18 453.289 1568.49 453.184 1568.66 453.084C1568.82 453.002 1568.93 452.929 1569 452.864V451.854C1568.93 451.789 1568.82 451.716 1568.66 451.634C1568.46 451.54 1568.15 451.44 1567.73 451.335C1567.28 451.224 1566.76 451.168 1566.18 451.168ZM1578.39 445.842C1578.74 445.842 1579.05 445.877 1579.32 445.947L1579.45 445.965V447.661C1579.11 447.544 1578.67 447.482 1578.12 447.477C1577.17 447.477 1576.42 447.778 1575.88 448.382C1575.33 448.985 1575.06 449.741 1575.06 450.649V454.842H1573.51V446.018H1575.06V447.731H1575.15C1575.24 447.544 1575.38 447.324 1575.58 447.072C1575.76 446.85 1575.96 446.656 1576.19 446.492C1576.44 446.316 1576.76 446.164 1577.15 446.035C1577.55 445.906 1577.96 445.842 1578.39 445.842ZM1590.28 450.43L1590.23 451.168H1582.26C1582.26 451.672 1582.56 452.199 1583.16 452.75C1583.75 453.307 1584.54 453.585 1585.54 453.585C1586.27 453.585 1586.87 453.447 1587.34 453.172C1587.73 452.938 1588 452.727 1588.15 452.539L1588.22 452.416H1590.04C1590 452.504 1589.96 452.595 1589.92 452.688C1589.85 452.823 1589.7 453.031 1589.49 453.312C1589.26 453.611 1589 453.878 1588.69 454.112C1588.4 454.341 1587.97 454.549 1587.4 454.736C1586.86 454.924 1586.24 455.018 1585.54 455.018C1584.08 455.018 1582.89 454.602 1581.99 453.77C1581.07 452.938 1580.61 451.824 1580.61 450.43C1580.61 449.047 1581.06 447.937 1581.98 447.099C1582.89 446.261 1584.04 445.842 1585.45 445.842C1586.84 445.842 1588 446.261 1588.92 447.099C1589.83 447.937 1590.28 449.047 1590.28 450.43ZM1587.79 448.118C1587.2 447.562 1586.42 447.283 1585.45 447.283C1584.46 447.283 1583.69 447.562 1583.11 448.118C1582.53 448.675 1582.24 449.223 1582.24 449.762H1588.65C1588.65 449.223 1588.36 448.675 1587.79 448.118ZM1601.49 454.842H1599.94V450.289C1599.94 449.258 1599.68 448.499 1599.16 448.013C1598.64 447.526 1597.94 447.283 1597.06 447.283C1596.13 447.283 1595.42 447.559 1594.93 448.109C1594.43 448.66 1594.19 449.387 1594.19 450.289V454.842H1592.64V442.238H1594.19V447.371H1594.27C1594.4 447.172 1594.54 446.993 1594.7 446.835C1594.9 446.659 1595.1 446.504 1595.31 446.369C1595.55 446.223 1595.87 446.1 1596.27 446C1596.67 445.895 1597.08 445.842 1597.52 445.842C1598.65 445.842 1599.6 446.182 1600.36 446.861C1601.11 447.547 1601.49 448.569 1601.49 449.929V454.842ZM1605.11 453.761C1604.2 452.923 1603.74 451.812 1603.74 450.43C1603.74 449.053 1604.2 447.942 1605.11 447.099C1606.02 446.261 1607.18 445.842 1608.58 445.842C1609.98 445.842 1611.13 446.261 1612.05 447.099C1612.96 447.942 1613.42 449.053 1613.42 450.43C1613.42 451.812 1612.96 452.923 1612.05 453.761C1611.13 454.599 1609.98 455.018 1608.58 455.018C1607.18 455.018 1606.02 454.599 1605.11 453.761ZM1610.95 452.697C1611.54 452.105 1611.83 451.35 1611.83 450.43C1611.83 449.51 1611.54 448.754 1610.95 448.162C1610.35 447.576 1609.57 447.283 1608.58 447.283C1607.59 447.283 1606.8 447.576 1606.22 448.162C1605.62 448.748 1605.32 449.504 1605.32 450.43C1605.32 451.355 1605.62 452.111 1606.22 452.697C1606.81 453.289 1607.6 453.585 1608.58 453.585C1609.55 453.585 1610.34 453.289 1610.95 452.697ZM1615.77 446.018H1617.32V450.579C1617.32 451.61 1617.58 452.369 1618.1 452.855C1618.62 453.342 1619.32 453.585 1620.19 453.585C1621.11 453.585 1621.82 453.307 1622.33 452.75C1622.83 452.199 1623.08 451.476 1623.08 450.579V446.018H1624.62V454.842H1623.08V453.488H1622.99C1622.87 453.676 1622.73 453.854 1622.56 454.024C1622.36 454.206 1622.16 454.361 1621.95 454.49C1621.71 454.643 1621.39 454.769 1620.99 454.868C1620.59 454.968 1620.18 455.018 1619.74 455.018C1618.6 455.018 1617.65 454.675 1616.91 453.989C1616.15 453.315 1615.77 452.299 1615.77 450.939V446.018ZM1633.97 452.231C1633.97 451.886 1633.81 451.619 1633.47 451.432C1633.13 451.238 1632.71 451.13 1632.22 451.106C1631.71 451.077 1631.16 451.024 1630.57 450.948C1629.94 450.872 1629.39 450.781 1628.92 450.676C1628.42 450.57 1628 450.333 1627.66 449.964C1627.32 449.601 1627.15 449.114 1627.15 448.505C1627.15 447.62 1627.53 446.952 1628.29 446.501C1629.04 446.062 1630.02 445.842 1631.22 445.842C1632.44 445.842 1633.43 446.088 1634.18 446.58C1634.92 447.072 1635.29 447.846 1635.29 448.9H1633.71C1633.71 448.35 1633.51 447.942 1633.11 447.679C1632.72 447.415 1632.09 447.283 1631.22 447.283C1629.56 447.283 1628.74 447.69 1628.74 448.505C1628.74 448.839 1628.91 449.094 1629.25 449.27C1629.58 449.451 1630 449.554 1630.5 449.577C1630.96 449.601 1631.52 449.65 1632.15 449.727C1632.76 449.809 1633.31 449.905 1633.8 450.017C1634.3 450.14 1634.72 450.386 1635.06 450.755C1635.4 451.136 1635.56 451.628 1635.56 452.231C1635.56 452.888 1635.36 453.433 1634.94 453.866C1634.53 454.294 1634.01 454.593 1633.39 454.763C1632.79 454.933 1632.08 455.018 1631.26 455.018C1629.54 455.018 1628.32 454.596 1627.58 453.752C1627.17 453.271 1626.96 452.674 1626.96 451.959V451.678H1628.54V451.959C1628.54 453.037 1629.45 453.576 1631.26 453.576C1633.07 453.588 1633.97 453.14 1633.97 452.231ZM1647.22 450.43L1647.17 451.168H1639.19C1639.19 451.672 1639.49 452.199 1640.09 452.75C1640.68 453.307 1641.48 453.585 1642.47 453.585C1643.21 453.585 1643.81 453.447 1644.27 453.172C1644.66 452.938 1644.93 452.727 1645.08 452.539L1645.15 452.416H1646.97C1646.94 452.504 1646.9 452.595 1646.86 452.688C1646.78 452.823 1646.64 453.031 1646.43 453.312C1646.2 453.611 1645.93 453.878 1645.63 454.112C1645.33 454.341 1644.9 454.549 1644.34 454.736C1643.8 454.924 1643.18 455.018 1642.47 455.018C1641.01 455.018 1639.83 454.602 1638.92 453.77C1638 452.938 1637.54 451.824 1637.54 450.43C1637.54 449.047 1638 447.937 1638.91 447.099C1639.82 446.261 1640.98 445.842 1642.38 445.842C1643.78 445.842 1644.94 446.261 1645.86 447.099C1646.76 447.937 1647.22 449.047 1647.22 450.43ZM1644.72 448.118C1644.14 447.562 1643.36 447.283 1642.38 447.283C1641.4 447.283 1640.62 447.562 1640.05 448.118C1639.47 448.675 1639.18 449.223 1639.18 449.762H1645.58C1645.58 449.223 1645.3 448.675 1644.72 448.118ZM1656.11 445.666V446.018H1658.7V447.424H1656.11V454.842H1654.56V447.424H1653.08V446.562L1654.56 446.018V445.464C1654.56 444.333 1654.87 443.483 1655.51 442.915C1656.13 442.347 1656.98 442.062 1658.06 442.062C1658.37 442.062 1658.69 442.104 1659 442.186C1659.32 442.273 1659.56 442.353 1659.71 442.423L1659.93 442.546V443.935C1659.54 443.589 1659 443.416 1658.32 443.416C1657.59 443.416 1657.04 443.592 1656.67 443.943C1656.3 444.289 1656.11 444.863 1656.11 445.666ZM1661.55 453.761C1660.64 452.923 1660.18 451.812 1660.18 450.43C1660.18 449.053 1660.64 447.942 1661.55 447.099C1662.46 446.261 1663.62 445.842 1665.03 445.842C1666.42 445.842 1667.58 446.261 1668.5 447.099C1669.41 447.942 1669.86 449.053 1669.86 450.43C1669.86 451.812 1669.41 452.923 1668.5 453.761C1667.58 454.599 1666.42 455.018 1665.03 455.018C1663.62 455.018 1662.46 454.599 1661.55 453.761ZM1667.39 452.697C1667.98 452.105 1668.28 451.35 1668.28 450.43C1668.28 449.51 1667.98 448.754 1667.39 448.162C1666.8 447.576 1666.01 447.283 1665.03 447.283C1664.04 447.283 1663.25 447.576 1662.66 448.162C1662.06 448.748 1661.76 449.504 1661.76 450.43C1661.76 451.355 1662.06 452.111 1662.66 452.697C1663.25 453.289 1664.04 453.585 1665.03 453.585C1666 453.585 1666.79 453.289 1667.39 452.697ZM1672.21 446.018H1673.76V450.579C1673.76 451.61 1674.02 452.369 1674.54 452.855C1675.07 453.342 1675.76 453.585 1676.64 453.585C1677.56 453.585 1678.27 453.307 1678.77 452.75C1679.27 452.199 1679.52 451.476 1679.52 450.579V446.018H1681.07V454.842H1679.52V453.488H1679.43C1679.31 453.676 1679.17 453.854 1679 454.024C1678.81 454.206 1678.6 454.361 1678.39 454.49C1678.15 454.643 1677.83 454.769 1677.44 454.868C1677.04 454.968 1676.62 455.018 1676.19 455.018C1675.04 455.018 1674.09 454.675 1673.35 453.989C1672.59 453.315 1672.21 452.299 1672.21 450.939V446.018ZM1692.61 454.842H1691.07V450.289C1691.07 449.258 1690.81 448.499 1690.29 448.013C1689.76 447.526 1689.06 447.283 1688.18 447.283C1687.26 447.283 1686.55 447.559 1686.06 448.109C1685.56 448.66 1685.31 449.387 1685.31 450.289V454.842H1683.76V446.018H1685.31V447.371H1685.4C1685.52 447.172 1685.67 446.993 1685.83 446.835C1686.02 446.659 1686.22 446.504 1686.44 446.369C1686.68 446.223 1687 446.1 1687.39 446C1687.79 445.895 1688.21 445.842 1688.64 445.842C1689.78 445.842 1690.73 446.182 1691.49 446.861C1692.24 447.547 1692.61 448.569 1692.61 449.929V454.842ZM1702.99 442.238H1704.54V454.842H1702.99V453.523H1702.92C1702.83 453.676 1702.66 453.852 1702.42 454.051C1702.22 454.215 1702 454.364 1701.76 454.499C1701.51 454.64 1701.18 454.76 1700.77 454.859C1700.37 454.965 1699.96 455.018 1699.54 455.018C1698.21 455.018 1697.1 454.596 1696.21 453.752C1695.31 452.908 1694.86 451.801 1694.86 450.43C1694.86 449.07 1695.31 447.963 1696.21 447.107C1697.1 446.264 1698.21 445.842 1699.54 445.842C1700.25 445.842 1700.89 445.968 1701.45 446.22C1702 446.472 1702.39 446.718 1702.62 446.958L1702.92 447.336H1702.99V442.238ZM1697.34 448.171C1696.75 448.769 1696.45 449.521 1696.45 450.43C1696.45 451.344 1696.75 452.097 1697.34 452.688C1697.93 453.286 1698.73 453.585 1699.72 453.585C1700.72 453.585 1701.51 453.286 1702.11 452.688C1702.7 452.097 1702.99 451.344 1702.99 450.43C1702.99 449.492 1702.69 448.733 1702.09 448.153C1701.49 447.573 1700.7 447.283 1699.72 447.283C1698.73 447.283 1697.93 447.579 1697.34 448.171Z" fill="#436AE5"/>
</g>
<defs>
<filter id="filter0_d_5_66366" x="1408.41" y="405.533" width="81.1719" height="81.1641" filterUnits="userSpaceOnUse" color-interpolation-filters="sRGB">
<feFlood flood-opacity="0" result="BackgroundImageFix"/>
<feColorMatrix in="SourceAlpha" type="matrix" values="0 0 0 0 0 0 0 0 0 0 0 0 0 0 0 0 0 0 127 0" result="hardAlpha"/>
<feOffset dy="10"/>
<feGaussianBlur stdDeviation="10"/>
<feComposite in2="hardAlpha" operator="out"/>
<feColorMatrix type="matrix" values="0 0 0 0 0.246875 0 0 0 0 0.367998 0 0 0 0 0.75 0 0 0 0.7 0"/>
<feBlend mode="normal" in2="BackgroundImageFix" result="effect1_dropShadow_5_66366"/>
<feBlend mode="normal" in="SourceGraphic" in2="effect1_dropShadow_5_66366" result="shape"/>
</filter>
<filter id="filter1_d_5_66366" x="1464" y="356.842" width="364" height="184" filterUnits="userSpaceOnUse" color-interpolation-filters="sRGB">
<feFlood flood-opacity="0" result="BackgroundImageFix"/>
<feColorMatrix in="SourceAlpha" type="matrix" values="0 0 0 0 0 0 0 0 0 0 0 0 0 0 0 0 0 0 127 0" result="hardAlpha"/>
<feOffset dy="14"/>
<feGaussianBlur stdDeviation="20"/>
<feComposite in2="hardAlpha" operator="out"/>
<feColorMatrix type="matrix" values="0 0 0 0 0.0437383 0 0 0 0 0.109346 0 0 0 0 0.316262 0 0 0 0.2 0"/>
<feBlend mode="normal" in2="BackgroundImageFix" result="effect1_dropShadow_5_66366"/>
<feBlend mode="normal" in="SourceGraphic" in2="effect1_dropShadow_5_66366" result="shape"/>
</filter>
<clipPath id="clip0_5_66366">
<rect width="1920" height="1023" fill="white" transform="translate(0 0.841797)"/>
</clipPath>
<clipPath id="clip1_5_66366">
<rect width="2554" height="1690" fill="white" transform="translate(-15 -666.158)"/>
</clipPath>
<clipPath id="clip2_5_66366">
<rect width="2554" height="1690" fill="white" transform="translate(135.977 -321.983)"/>
</clipPath>
</defs>
</svg>
