<svg width="1920" height="1024" viewBox="0 0 1920 1024" fill="none" xmlns="http://www.w3.org/2000/svg">
<g clip-path="url(#clip0_5_65958)">
<rect width="1920" height="1023" transform="translate(0 0.841797)" fill="#F1F4FF"/>
<g clip-path="url(#clip1_5_65958)">
<path d="M1707.12 466.981C1711.54 460.104 1717.28 454.162 1723.99 449.493C1736.49 441.165 1752.82 440.082 1764.24 430.505C1767.69 426.968 1771.41 423.697 1775.36 420.719C1776.32 420.136 1777.69 419.678 1778.44 420.511C1778.78 420.949 1778.95 421.499 1778.9 422.052C1778.5 425.091 1777.02 427.885 1774.73 429.922C1761.6 444.733 1747.36 458.514 1732.12 471.145C1726.33 475.684 1716.99 484.762 1708.95 483.637C1698.66 482.555 1703.37 472.436 1707.12 466.981Z" fill="white" stroke="#436AE5" stroke-linecap="round" stroke-linejoin="round"/>
<path d="M978.495 210.688C976.496 213.77 963.29 219.016 967.289 224.096C971.871 229.676 980.203 219.641 982.62 216.851C985.994 212.687 992.118 209.522 993.743 204.359C994.576 201.736 994.784 198.196 991.243 197.613C987.702 197.03 982.578 204.276 980.87 206.857C980.12 208.023 979.37 209.397 978.495 210.688Z" fill="white" stroke="#436AE5" stroke-linecap="round" stroke-linejoin="round"/>
<path d="M1707.12 466.981C1711.54 460.104 1717.28 454.162 1723.99 449.493C1736.49 441.165 1752.82 440.082 1764.24 430.505C1767.69 426.968 1771.41 423.697 1775.36 420.719C1776.32 420.136 1777.69 419.678 1778.44 420.511C1778.78 420.949 1778.95 421.499 1778.9 422.052C1778.5 425.091 1777.02 427.885 1774.73 429.922C1761.6 444.733 1747.36 458.514 1732.12 471.145C1726.33 475.684 1716.99 484.762 1708.95 483.637C1698.66 482.555 1703.37 472.436 1707.12 466.981Z" fill="white" stroke="#436AE5" stroke-miterlimit="10"/>
<path d="M978.495 210.688C976.496 213.77 963.29 219.016 967.289 224.096C971.871 229.676 980.203 219.641 982.62 216.851C985.994 212.687 992.118 209.522 993.743 204.359C994.576 201.736 994.784 198.196 991.243 197.613C987.702 197.03 982.578 204.276 980.87 206.857C980.12 208.023 979.37 209.397 978.495 210.688Z" fill="white" stroke="#436AE5" stroke-miterlimit="10"/>
<path d="M1893.14 104.714C1892.39 102.222 1891.2 99.8824 1889.64 97.8021C1885 91.3207 1878.63 86.2711 1871.27 83.2282C1867.07 82.1669 1863.24 79.9947 1860.18 76.9405C1856.89 72.7765 1857.27 65.4063 1852.39 63.0328C1850.71 62.4028 1848.96 61.9561 1847.19 61.7003C1844.71 60.8073 1842.46 59.4093 1840.56 57.5954C1838.65 55.7816 1837.15 53.5917 1836.15 51.1654C1829.81 38.9233 1828.61 24.7241 1824.02 11.6908C1819.44 -1.34253 1809.32 -14.2092 1795.53 -14.7922C1794.22 -14.939 1792.9 -14.7379 1791.7 -14.2093C1786.86 -11.7109 1787.28 -1.92548 1781.86 -2.42516C1780.74 -2.42516 1779.74 -3.17467 1778.66 -3.34123C1773.7 -4.25731 1771.66 2.52999 1769.03 6.86054C1768.7 7.53246 1768.23 8.1296 1767.65 8.61616C1767.08 9.10271 1766.42 9.46867 1765.7 9.69207C1759.2 11.2327 1758.2 -3.96584 1751.7 -2.21697C1749.33 -1.59237 1748.29 1.11424 1747.54 3.48771C1742.66 20.685 1737.75 38.1738 1738.16 56.0373C1738.41 68.5293 1741.37 81.0213 1742.33 93.8464C1743.11 102.049 1742.34 110.325 1740.08 118.247C1737.95 124.91 1733.45 129.99 1733.54 137.152C1733.62 144.314 1738.62 144.814 1731.7 151.309C1730.32 152.541 1728.8 153.603 1727.16 154.474L1768.28 271.066C1768.94 273.544 1770.25 275.801 1772.07 277.603C1773.93 278.883 1776.08 279.684 1778.32 279.935L1785.07 281.309C1785.07 280.601 1785.4 279.977 1785.49 279.352C1786.57 272.815 1784.99 265.986 1786.82 259.532C1788.95 251.87 1796.07 246.207 1797.57 238.42C1797.61 234.214 1798.12 230.025 1799.07 225.928C1801.12 222.421 1804.08 219.541 1807.65 217.6C1815.01 212.752 1821.28 206.427 1826.06 199.029C1828.42 195.313 1829.99 191.15 1830.66 186.8C1831.34 182.45 1831.11 178.009 1829.98 173.753C1828.89 171.475 1828.48 168.929 1828.81 166.425C1829.14 165.576 1829.68 164.824 1830.38 164.239C1831.07 163.653 1831.91 163.253 1832.8 163.074C1833.69 162.896 1834.62 162.945 1835.49 163.218C1836.35 163.49 1837.14 163.978 1837.77 164.634C1839.27 166.508 1839.44 169.381 1841.4 170.755C1843.35 172.129 1847.69 170.339 1848.98 167.466C1849.84 164.449 1850.38 161.351 1850.6 158.222C1851.19 155.099 1853.31 151.809 1856.43 151.726C1856.1 154.391 1859.98 155.89 1862.31 154.474C1864.41 152.802 1866.01 150.583 1866.93 148.062C1872.97 136.486 1886.1 129.698 1891.55 117.831C1893.62 113.784 1894.18 109.136 1893.14 104.714Z" fill="white" stroke="#436AE5" stroke-linecap="round" stroke-linejoin="round"/>
<path d="M1785.07 281.101L1778.32 279.727C1776.08 279.475 1773.93 278.674 1772.07 277.395C1770.25 275.593 1768.94 273.335 1768.28 270.857L1727.16 154.474C1724.07 155.935 1721.38 158.137 1719.33 160.886C1715.17 167.882 1717.04 173.919 1713.37 178.958C1714.77 184.119 1716.71 189.117 1719.17 193.865C1720.44 195.537 1721.62 197.275 1722.71 199.07C1726.25 206.399 1720.67 214.56 1717.25 221.93C1713.53 231.226 1711.41 241.079 1710.96 251.078C1710.13 259.795 1709.26 268.511 1708.38 277.228C1708 279.083 1708 280.995 1708.38 282.85C1709.38 285.889 1712.21 287.805 1714.33 290.178C1723.79 300.713 1718.5 318.452 1721.96 331.568L1756.95 318.119C1760.68 316.928 1764.17 315.112 1767.28 312.747C1769.85 310.298 1772.15 307.591 1774.16 304.669C1777.45 300.651 1781.39 297.216 1785.82 294.509C1781.41 291.386 1783.86 285.681 1785.07 281.101Z" fill="white" stroke="#436AE5" stroke-linecap="round" stroke-linejoin="round"/>
<path d="M1708.58 282.934C1708.21 281.079 1708.21 279.167 1708.58 277.312C1709.44 268.568 1710.31 259.851 1711.17 251.162C1711.62 241.163 1713.74 231.31 1717.46 222.014C1720.87 214.644 1726.46 206.483 1722.92 199.154C1721.83 197.359 1720.64 195.621 1719.37 193.949C1716.92 189.201 1714.98 184.203 1713.58 179.042C1711.7 181.471 1709.17 183.33 1706.29 184.414C1689.03 192.39 1671.19 199.044 1652.93 204.317C1649.89 205.109 1646.89 206.066 1643.89 207.024C1643.5 212.91 1644.1 218.819 1645.64 224.513C1647.89 232.299 1652.59 239.17 1655.47 246.749C1659.18 256.7 1659.63 267.568 1664.51 277.187C1666.72 281.934 1670.05 286.098 1672.96 290.262C1682.25 305.923 1688.19 323.331 1690.42 341.396C1696.86 340.698 1703.16 339.071 1709.13 336.566L1722.17 331.569C1718.58 318.452 1724 300.714 1714.54 290.179C1712.42 287.889 1709.58 286.098 1708.58 282.934Z" fill="white" stroke="#436AE5" stroke-linecap="round" stroke-linejoin="round"/>
<path d="M1846.69 330.861C1844.73 326.697 1842.81 322.866 1840.89 318.827C1840.56 317.831 1839.86 316.998 1838.94 316.495C1838.36 316.354 1837.76 316.337 1837.18 316.444C1836.6 316.552 1836.05 316.782 1835.56 317.12C1832.31 318.744 1828.69 320.868 1828.15 324.49C1827.06 331.569 1838.77 335.9 1837.35 342.937C1836.83 344.939 1835.59 346.675 1833.85 347.809C1829.85 350.678 1824.9 351.922 1820.02 351.288C1815.13 350.654 1810.67 348.19 1807.53 344.394C1801.69 336.857 1802.15 325.698 1795.9 318.494C1793.24 315.413 1789.19 312.456 1789.86 308.417C1790.53 304.378 1794.78 301.713 1793.11 298.549C1791.9 296.258 1788.94 296.258 1786.49 295.009L1785.95 294.593C1781.51 297.3 1777.57 300.735 1774.28 304.753C1772.27 307.675 1769.97 310.383 1767.41 312.831C1764.29 315.196 1760.8 317.013 1757.08 318.203L1709.04 336.649C1703.07 339.155 1696.77 340.782 1690.34 341.479C1691.79 350.89 1692.71 360.259 1693.34 369.253C1693.88 376.499 1694.21 383.827 1694.96 391.031C1698.29 388.637 1701.92 386.678 1705.75 385.201C1713.67 382.12 1722.12 380.621 1730.12 377.706C1745.99 372.001 1759.99 361.05 1776.61 357.969C1778.89 357.448 1781.25 357.448 1783.53 357.969C1787.38 359.815 1790.64 362.699 1792.94 366.297C1795.74 369.559 1799.03 372.368 1802.69 374.625C1807.28 374.625 1811.73 374.625 1813.77 370.794C1814.46 368.871 1815.03 366.911 1815.48 364.923C1816.19 363.007 1818.36 361.258 1820.19 362.216C1822.02 363.174 1821.94 365.006 1823.31 365.922C1825.31 367.296 1827.86 365.464 1829.56 363.798L1842.35 351.306C1845.89 348.534 1848.29 344.565 1849.1 340.147C1849.12 336.894 1848.28 333.694 1846.69 330.861Z" fill="white" stroke="#436AE5" stroke-linecap="round" stroke-linejoin="round"/>
<path d="M1770.9 373.084C1769.71 368.886 1768.8 364.616 1768.15 360.301C1755.11 364.756 1743.16 373.001 1730.2 377.706C1722.2 380.621 1713.54 382.12 1705.83 385.201C1702 386.678 1698.37 388.637 1695.04 391.031C1695.41 394.779 1695.91 398.443 1696.62 402.107C1699.95 418.763 1713.74 431.713 1712.41 447.911C1723.14 435.589 1735.8 425.097 1749.91 416.848C1758.24 412.018 1771.44 408.77 1780.4 402.274C1779.05 399.6 1777.93 396.814 1777.07 393.946C1774.85 386.895 1772.79 379.941 1770.9 373.084Z" fill="white" stroke="#436AE5" stroke-linecap="round" stroke-linejoin="round"/>
<path d="M1793.03 366.089C1790.73 362.491 1787.46 359.607 1783.61 357.761C1781.34 357.24 1778.97 357.24 1776.7 357.761C1773.8 358.322 1770.94 359.101 1768.16 360.092C1768.8 364.408 1769.72 368.677 1770.91 372.876C1772.77 379.76 1774.77 386.603 1776.9 393.404C1777.77 396.272 1778.89 399.059 1780.24 401.732C1782.76 400.13 1784.9 397.989 1786.5 395.462C1788.1 392.935 1789.12 390.085 1789.49 387.117C1789.25 383.658 1789.97 380.201 1791.57 377.123C1794.07 374 1798.44 373.959 1802.78 373.875C1799.15 371.784 1795.87 369.159 1793.03 366.089Z" fill="white" stroke="#436AE5" stroke-linecap="round" stroke-linejoin="round"/>
<path d="M1712.41 447.744C1713.74 431.712 1699.91 418.846 1696.62 401.94C1694.88 391.064 1693.81 380.092 1693.41 369.086C1691.54 342.769 1687.58 312.83 1672.96 290.178C1670.08 285.723 1666.71 281.642 1664.29 276.937C1659.46 267.484 1658.96 256.45 1655.25 246.498C1652.38 238.919 1647.67 232.049 1645.42 224.262C1643.88 218.568 1643.29 212.66 1643.67 206.773C1631.17 210.688 1619.34 215.518 1606.8 219.265C1600.82 220.636 1595.02 222.704 1589.51 225.428C1580.81 230.342 1575.02 239.003 1568.68 246.706C1564.04 251.585 1560.02 257.026 1556.73 262.904C1553.06 270.607 1552.56 279.31 1549.4 287.139C1546.23 294.967 1539.11 298.631 1535.81 305.752C1535.04 307.168 1534.77 308.805 1535.05 310.393C1535.34 311.982 1536.15 313.428 1537.36 314.496C1540.94 316.953 1546.65 314.08 1549.85 316.994C1554.48 321.158 1547.6 328.82 1549.85 334.65C1550.94 336.791 1552.35 338.756 1554.02 340.479C1565.56 356.177 1537.11 362.673 1527.82 369.211C1517.53 376.456 1506.99 385.867 1493.49 385.409C1489.66 385.409 1485.82 384.409 1481.99 384.534C1477.54 384.967 1473.19 386.12 1469.12 387.949L1452 394.486C1450.1 394.93 1448.32 395.772 1446.78 396.957C1445.23 398.142 1443.96 399.641 1443.04 401.357C1440.83 407.853 1448.58 412.933 1452.33 418.679C1457.49 426.674 1454.54 437.708 1448.7 445.245C1442.87 452.782 1434.66 458.029 1427.87 464.65C1420 472.145 1413.79 481.305 1406.46 489.342C1420.42 488.468 1432.25 482.097 1446.62 478.974C1466.27 474.404 1485.6 468.548 1504.49 461.443C1541.36 448.035 1577.72 432.295 1616.39 424.55C1618.32 424.031 1620.36 424.031 1622.3 424.55C1626.09 425.716 1627.76 429.922 1629.63 433.378C1635.45 443.077 1644.74 450.195 1655.63 453.282C1666.49 456.301 1677.69 457.938 1688.96 458.154L1703.95 459.07C1704.83 457.737 1705.79 456.446 1706.75 455.156C1708.29 452.657 1710.33 450.117 1712.41 447.744Z" fill="white" stroke="#436AE5" stroke-linecap="round" stroke-linejoin="round"/>
<path d="M1680.38 593.859C1680.67 596.732 1681.92 601.063 1684.54 599.938C1685.33 599.533 1685.94 598.871 1686.29 598.064C1699.5 574.288 1694.38 543.933 1705.25 519.198C1707.81 514.769 1709.24 509.778 1709.42 504.666C1709 499.586 1703.62 494.631 1699.04 496.879C1697.67 497.587 1696.17 498.837 1694.88 498.17C1694.47 497.901 1694.13 497.545 1693.87 497.127C1693.62 496.709 1693.47 496.241 1693.42 495.755C1690.42 482.972 1695.96 469.938 1703.54 458.987L1688.54 458.071C1677.27 457.855 1666.08 456.218 1655.22 453.199C1651.74 460.306 1648.31 467.412 1644.93 474.519C1643.89 476.222 1643.37 478.189 1643.43 480.182C1643.93 483.971 1648.38 486.345 1648.68 490.175C1648.97 494.006 1645.72 496.463 1645.63 499.919C1645.63 504.874 1651.34 507.331 1655.51 509.996C1658.7 512.081 1661.32 514.928 1663.13 518.28C1664.94 521.632 1665.89 525.383 1665.88 529.192C1665.88 542.517 1653.84 553.718 1654.05 567.043C1654.32 572.439 1656.11 577.649 1659.22 582.075C1659.94 581.384 1660.85 580.92 1661.84 580.742C1663.92 580.367 1666.06 580.409 1668.12 580.868C1670.18 581.326 1672.14 582.191 1673.86 583.413C1675.59 584.634 1677.05 586.187 1678.17 587.98C1679.29 589.774 1680.04 591.772 1680.38 593.859Z" fill="#76B5FF" stroke="#436AE5" stroke-linecap="round" stroke-linejoin="round"/>
<path d="M1427.13 637.289L1634.68 568.584C1641.39 566.377 1648.05 564.128 1654.63 561.63C1656.93 550.512 1665.76 540.81 1665.92 529.109C1665.93 525.299 1664.98 521.549 1663.17 518.197C1661.36 514.845 1658.74 511.998 1655.55 509.913C1651.39 507.248 1645.51 504.791 1645.68 499.836C1645.68 496.38 1649.01 493.507 1648.72 490.092C1648.43 486.678 1643.97 483.888 1643.47 480.099C1643.41 478.106 1643.93 476.139 1644.97 474.436C1648.39 467.357 1651.82 460.25 1655.26 453.116C1644.46 450.015 1635.24 442.93 1629.47 433.296C1627.6 429.839 1625.93 425.634 1622.14 424.468C1620.2 423.948 1618.16 423.948 1616.22 424.468C1577.56 432.213 1541.24 447.953 1504.33 461.361C1485.44 468.465 1466.11 474.321 1446.46 478.891C1432.09 482.014 1420.26 488.385 1406.3 489.26C1402.94 493.007 1399.13 496.335 1394.97 499.17C1401.8 528.429 1408.62 557.688 1415.42 586.947C1419.34 603.797 1423.24 620.578 1427.13 637.289Z" fill="white" stroke="#436AE5" stroke-linecap="round" stroke-linejoin="round"/>
<path d="M1684.09 633.666C1684.09 631.376 1684.09 629.044 1684.09 626.712C1683.84 620.55 1687.17 616.552 1681.79 613.512C1676 610.632 1670.64 606.945 1665.88 602.561C1663.5 600.321 1661.61 597.608 1660.34 594.596C1659.07 591.584 1658.45 588.34 1658.51 585.072C1658.49 584.06 1658.8 583.07 1659.38 582.241C1656.28 577.815 1654.49 572.605 1654.22 567.209C1654.18 565.417 1654.37 563.628 1654.76 561.879C1648.22 564.377 1641.59 566.584 1634.97 568.791C1645.52 592.372 1653.67 616.952 1659.3 642.161C1667.82 640.137 1676.12 637.292 1684.09 633.666Z" fill="white" stroke="#436AE5" stroke-linecap="round" stroke-linejoin="round"/>
<path d="M1478.41 646.742C1481.66 646.034 1483.7 642.869 1485.75 640.204C1489.33 635.499 1495.99 633.292 1500.45 628.878C1503.87 625.505 1508.12 621.841 1512.95 622.674C1516.49 623.298 1519.87 626.338 1523.2 624.964C1526.53 623.59 1526.78 619.592 1528.07 616.636C1529.02 614.787 1530.4 613.191 1532.09 611.98C1533.78 610.769 1535.73 609.978 1537.79 609.673C1539.85 609.367 1541.95 609.556 1543.91 610.224C1545.88 610.892 1547.66 612.02 1549.11 613.513C1550.17 615.388 1551.59 617.042 1553.28 618.385C1556.36 620.05 1560.23 618.385 1563.65 619.051C1570.27 620.675 1570.77 630.46 1576.15 634.416C1581.02 637.914 1588.65 636.165 1592.81 640.621C1594.01 642.485 1594.64 644.652 1594.64 646.867C1594.64 649.081 1594.01 651.248 1592.81 653.113C1590.4 656.779 1588.22 660.589 1586.27 664.522C1585.58 666.01 1585.47 667.707 1585.98 669.269C1586.72 670.441 1587.83 671.337 1589.13 671.819C1590.43 672.3 1591.86 672.341 1593.19 671.934C1595.81 671.099 1598.48 670.404 1601.19 669.852C1604.64 669.644 1608.02 671.268 1611.48 670.976C1615.64 670.643 1619.14 667.478 1623.02 665.813C1626.26 664.479 1629.83 664.145 1633.26 664.855C1634.64 662.94 1636.39 661.232 1636.22 658.942C1635.76 653.904 1627.31 654.528 1624.43 650.364C1622.6 647.658 1623.72 644.035 1623.47 640.787C1622.97 634.833 1617.93 630.419 1615.14 625.131C1608.81 612.639 1615.6 598.148 1622.31 586.072C1622.97 584.865 1623.89 583.491 1625.26 583.324C1627.56 583.116 1628.56 586.197 1628.43 588.487C1627.97 595.441 1624.26 601.854 1623.06 608.766C1621.85 615.678 1623.81 624.298 1630.47 626.463C1633.39 627.462 1637.51 627.587 1638.18 630.627C1638.26 632.233 1637.9 633.831 1637.14 635.249C1636.78 636.658 1636.74 638.127 1637 639.555C1637.27 640.984 1637.84 642.337 1638.68 643.524C1639.52 644.711 1640.61 645.702 1641.86 646.43C1643.12 647.157 1644.52 647.605 1645.97 647.741C1647.56 647.586 1649.16 647.685 1650.72 648.032C1657.59 650.656 1649.3 663.856 1655.43 667.936C1659.59 670.768 1666.47 665.48 1670.22 668.977C1673.96 672.475 1670.22 677.305 1667.67 681.053C1665.1 685.25 1663.77 690.091 1663.83 695.015C1663.9 699.939 1665.36 704.742 1668.05 708.868C1678.39 685.235 1683.71 659.712 1683.67 633.917C1675.63 637.498 1667.26 640.287 1658.68 642.245C1653.04 617.036 1644.89 592.456 1634.35 568.875L1476.04 621.383C1476.41 634.333 1477 647.075 1478.41 646.742Z" fill="white" stroke="#436AE5" stroke-linecap="round" stroke-linejoin="round"/>
<path d="M1216.2 565.959C1234.57 558.18 1253.4 551.506 1272.57 545.972C1272.32 539.06 1281.19 530.441 1283.02 525.152C1285.57 517.657 1283.44 509.496 1283.02 501.584C1282.61 493.673 1285.32 484.304 1292.81 481.722C1294.7 481.332 1296.53 480.717 1298.27 479.89C1299.58 478.71 1300.57 477.226 1301.17 475.57C1301.77 473.914 1301.94 472.137 1301.69 470.396C1301.48 456.072 1294.86 442.622 1288.86 429.589L1279.9 410.268C1278.83 407.598 1277.31 405.133 1275.4 402.981C1274.05 401.701 1272.42 400.746 1270.65 400.191C1268.87 399.635 1266.99 399.493 1265.15 399.775C1261.05 400.728 1257.47 403.198 1255.11 406.687C1252.81 410.155 1250.91 413.87 1249.45 417.763L1243.7 430.671C1243.15 431.736 1242.39 432.672 1241.45 433.414C1240.51 434.156 1239.42 434.687 1238.26 434.971C1237.1 435.256 1235.89 435.287 1234.71 435.062C1233.54 434.837 1232.42 434.362 1231.45 433.669C1229.6 432.119 1228.42 429.908 1228.17 427.506C1227.92 425.104 1228.62 422.7 1230.12 420.803C1232.78 417.555 1237.49 416.264 1239.45 412.475C1241.41 408.685 1240.07 404.938 1240.49 401.107C1241.35 397.172 1242.75 393.375 1244.66 389.823C1247.04 383.622 1247.68 376.889 1246.52 370.349C1245.35 363.81 1242.41 357.715 1238.03 352.721C1236.75 351.567 1235.74 350.145 1235.07 348.557C1234.2 345.559 1236.2 342.603 1237.41 339.73C1238.61 336.857 1238.49 332.568 1235.49 331.735C1233.28 331.11 1230.87 332.859 1228.74 331.985C1227.37 331.402 1226.66 329.944 1225.58 328.945C1224.66 328.193 1223.62 327.615 1222.49 327.238C1216.61 324.907 1210.36 323.624 1204.04 323.449C1200.72 323.593 1197.39 323.27 1194.16 322.491C1189.66 321.033 1186.29 317.327 1182.04 315.245C1175.08 311.831 1165.79 317.203 1162.04 323.324C1159.21 327.946 1160.38 335.358 1165.54 337.023C1166.79 337.44 1168.29 337.523 1169.08 338.605C1169.88 339.688 1168.67 342.769 1166.71 343.269C1164.75 343.769 1162.54 343.686 1160.71 344.393C1156.13 346.101 1155.17 352.18 1155.88 356.885C1156.59 361.591 1158.25 366.837 1156.25 371.293C1155.92 372.12 1155.41 372.867 1154.76 373.485C1154.12 374.102 1153.35 374.575 1152.5 374.874C1149.3 375.79 1146.13 372.917 1145.05 369.794C1144.32 366.56 1143.85 363.274 1143.63 359.967C1143.59 359.413 1143.43 358.875 1143.16 358.392C1142.88 357.909 1142.5 357.494 1142.05 357.177C1139.67 356.094 1138.26 359.8 1137.42 362.299C1135.26 369.003 1126.97 372.042 1124.01 378.455C1122.75 381.96 1122.25 385.694 1122.55 389.406C1122.55 401.898 1120.72 414.765 1120.59 427.465C1119.92 440.228 1122.64 452.941 1128.47 464.316C1132.05 469.56 1135.38 474.98 1138.42 480.556C1142.59 490.3 1141.92 501.376 1140.96 512.161C1140.39 525.363 1138.11 538.436 1134.17 551.052C1131.71 558.05 1127.96 564.531 1123.13 570.165C1154.17 568.593 1184.92 563.48 1214.79 554.925C1214.82 558.646 1215.3 562.35 1216.2 565.959Z" fill="white" stroke="#436AE5" stroke-linecap="round" stroke-linejoin="round"/>
<path d="M1113.01 833.413C1117.76 832.122 1118.8 825.335 1123.26 823.294C1129.68 820.338 1137.34 829.332 1143.55 825.959C1148.17 823.503 1148.26 815.841 1153.13 814.009C1158.71 811.885 1165.92 819.339 1170.25 815.216C1174.59 811.094 1168 800.85 1173.55 798.144C1177.38 796.27 1181.21 801.433 1185.5 801.517C1186.99 801.329 1188.42 800.831 1189.71 800.057C1190.99 799.282 1192.1 798.248 1192.96 797.02C1200.46 788.9 1208.21 780.364 1210.5 769.412C1211.66 763.749 1211.58 757.128 1215.91 753.298C1220.25 749.467 1226.45 750.383 1231.99 749.675C1237.53 748.967 1243.99 744.387 1242.08 739.098C1241.4 737.664 1240.63 736.273 1239.78 734.934C1238.98 732.861 1238.85 730.589 1239.39 728.434C1239.94 726.279 1241.14 724.345 1242.83 722.9L1243.33 722.484C1234.33 670.268 1225.3 618.023 1216.25 565.751C1215.34 562.142 1214.87 558.438 1214.83 554.717C1184.96 563.272 1154.21 568.385 1123.18 569.957C1119.43 574.396 1114.81 578.012 1109.6 580.575C1107.72 581.62 1105.62 582.178 1103.47 582.199C1102.72 582.179 1101.98 582.053 1101.27 581.824C1104.68 627.045 1109.6 672.1 1116.8 716.904C1117.51 720.188 1117.64 723.57 1117.18 726.898C1116.26 731.603 1113.01 735.851 1113.26 740.639C1114.18 744.778 1115.82 748.724 1118.1 752.298C1122.26 761.626 1119.26 772.494 1115.18 781.863C1111.1 791.232 1105.85 800.476 1105.39 810.678C1105.14 816.59 1106.51 822.42 1106.68 828.333C1106.74 829.512 1106.74 830.693 1106.68 831.872C1108.53 833.144 1110.79 833.692 1113.01 833.413Z" fill="white" stroke="#436AE5" stroke-linecap="round" stroke-linejoin="round"/>
<path d="M1381.47 787.734C1378.76 785.944 1375.76 784.278 1373.13 782.529C1365.26 777.116 1360.64 768.288 1356.22 759.794C1352.76 753.09 1349.39 744.804 1353.14 738.349C1347.17 736.902 1341.73 733.782 1337.47 729.355C1333.64 725.191 1329.14 719.695 1323.89 721.818C1320.56 723.192 1319.23 727.315 1316.14 729.147C1309.81 732.978 1300.27 725.399 1294.77 730.355C1293.73 731.312 1292.94 732.645 1291.65 733.228C1288.11 734.852 1285.36 729.897 1282.11 727.815C1277.19 724.65 1270.82 728.189 1264.98 727.815C1257.61 727.815 1250.4 721.402 1243.57 724.233C1243.57 723.609 1243.57 723.026 1243.24 722.443L1242.74 722.859C1241.05 724.304 1239.85 726.238 1239.3 728.393C1238.76 730.548 1238.9 732.819 1239.7 734.893C1240.55 736.232 1241.31 737.623 1241.99 739.057C1243.9 744.346 1237.49 748.968 1231.91 749.634C1226.32 750.3 1220.03 749.634 1215.83 753.257C1211.62 756.879 1211.66 763.708 1210.41 769.371C1208.12 780.156 1200.37 788.859 1192.87 796.978C1192.01 798.207 1190.9 799.241 1189.62 800.016C1188.33 800.79 1186.9 801.288 1185.41 801.476C1181.25 801.476 1177.29 796.229 1173.46 798.103C1167.92 800.809 1174.62 810.928 1170.17 815.175C1165.71 819.422 1158.63 811.844 1153.04 813.967C1148.17 815.8 1148.09 823.461 1143.46 825.918C1137.26 829.291 1129.59 820.297 1123.17 823.253C1118.72 825.294 1117.67 832.081 1112.93 833.372C1110.64 833.776 1108.29 833.3 1106.34 832.039C1106.18 836.77 1104.18 841.252 1100.76 844.531C1100.22 844.917 1099.76 845.397 1099.39 845.947C1097.84 848.695 1102.18 850.819 1103.55 853.525C1105.72 857.231 1102.22 861.853 1098.55 864.019C1094.89 866.184 1090.22 868.474 1089.47 872.68C1088.97 875.053 1089.72 877.677 1088.47 879.717C1086.55 882.84 1081.68 881.882 1078.68 879.717C1075.68 877.552 1072.97 874.512 1069.31 874.304C1067.43 874.365 1065.63 875.007 1064.13 876.141C1062.64 877.275 1061.54 878.845 1060.98 880.633C1059.93 884.186 1059.68 887.923 1060.23 891.584C1060.89 900.995 1061.52 910.364 1062.18 919.775C1070.36 918.156 1078.65 917.209 1086.97 916.943C1102.72 915.527 1117.76 909.989 1132.8 905.325C1191.87 887.17 1254.11 882.382 1314.81 870.515C1317.89 869.932 1320.93 869.224 1324.02 868.557C1327.72 860.646 1333.19 853.692 1340.01 848.237C1345.39 844.073 1351.72 840.45 1355.09 834.538C1357.26 830.748 1358.05 826.21 1360.3 822.587C1365.93 814.925 1377.13 810.761 1378.42 801.309C1379.05 796.729 1377.22 791.024 1380.84 788.109C1381.04 787.97 1381.25 787.845 1381.47 787.734Z" fill="white" stroke="#436AE5" stroke-linecap="round" stroke-linejoin="round"/>
<path d="M1395.09 499.336L1393.18 500.627C1387.05 504.249 1380.01 506.415 1374.6 510.995C1367.35 517.158 1363.85 526.943 1356.18 532.523C1350.18 536.687 1342.56 537.978 1335.6 540.393C1324.81 544.099 1318.02 559.464 1306.73 560.88C1305.66 561.09 1304.55 560.872 1303.64 560.272C1302.73 559.672 1302.09 558.739 1301.86 557.673C1301.86 556.674 1302.19 555.55 1301.86 554.675C1301.58 554.28 1301.21 553.954 1300.78 553.723C1300.36 553.492 1299.88 553.362 1299.4 553.343C1295.32 553.1 1291.23 553.296 1287.19 553.926C1283.11 554.579 1278.93 553.624 1275.53 551.261C1274.73 550.622 1274.08 549.819 1273.62 548.907C1273.16 547.994 1272.9 546.994 1272.86 545.973C1253.72 551.517 1234.91 558.177 1216.54 565.918C1225.65 618.662 1234.79 671.503 1243.95 724.441C1250.78 721.61 1257.99 727.856 1265.36 728.022C1271.2 728.022 1277.57 724.65 1282.49 728.022C1285.74 730.104 1288.49 735.059 1292.03 733.436C1293.32 732.853 1294.11 731.52 1295.15 730.562C1300.65 725.607 1310.19 733.186 1316.52 729.355C1319.61 727.523 1320.94 723.4 1324.27 722.026C1329.4 719.903 1334.02 725.524 1337.85 729.563C1342.11 733.99 1347.55 737.11 1353.52 738.557C1353.52 738.557 1353.52 738.266 1353.52 738.141C1356.14 733.977 1361.1 732.02 1363.89 728.022C1366.68 724.025 1365.26 680.886 1374.8 702.122C1381.3 698.208 1381.97 689.172 1381.51 681.636C1381.05 674.099 1380.76 665.313 1386.39 660.274C1386.98 659.655 1387.78 659.271 1388.64 659.192C1391.43 659.192 1391.84 664.188 1394.59 664.522C1400.91 658.544 1404.88 650.512 1405.8 641.869C1408.72 625.963 1407.88 609.598 1409.97 593.567C1410.59 588.014 1411.69 582.525 1413.26 577.161C1407.12 551.122 1401.06 525.18 1395.09 499.336Z" fill="white" stroke="#436AE5" stroke-linecap="round" stroke-linejoin="round"/>
<path d="M1553.4 618.218C1551.71 616.875 1550.3 615.221 1549.23 613.346C1547.79 611.853 1546.01 610.725 1544.04 610.057C1542.07 609.389 1539.97 609.2 1537.91 609.506C1535.86 609.811 1533.9 610.602 1532.21 611.813C1530.52 613.024 1529.15 614.62 1528.2 616.469C1526.9 619.592 1526.45 623.714 1523.32 624.797C1520.2 625.88 1516.61 623.131 1513.07 622.507C1508.32 621.674 1504.07 625.338 1500.58 628.711C1496.12 633.125 1489.45 635.332 1485.87 640.037C1483.83 642.702 1481.7 645.867 1478.54 646.575C1477 646.908 1476.41 634.083 1476.16 620.924L1427.13 637.122C1423.24 620.466 1419.34 603.741 1415.42 586.946L1413.05 576.786C1411.48 582.15 1410.38 587.639 1409.76 593.192C1407.8 609.224 1408.63 625.588 1405.59 641.495C1404.67 650.138 1400.7 658.17 1394.38 664.147C1391.63 663.814 1391.22 658.817 1388.43 658.817C1387.57 658.896 1386.77 659.281 1386.18 659.899C1380.55 664.938 1380.89 673.682 1381.3 681.261C1381.72 688.839 1381.09 697.917 1374.6 701.748C1365.06 680.511 1366.26 723.9 1363.68 727.648C1361.1 731.395 1355.93 733.685 1353.31 737.766C1349.14 744.262 1352.68 752.756 1356.18 759.627C1360.35 767.955 1365.22 776.949 1373.1 782.362C1375.64 784.111 1378.64 785.777 1381.43 787.567C1382.64 786.991 1383.99 786.745 1385.32 786.855C1386.66 786.965 1387.95 787.426 1389.05 788.192C1391.37 790.01 1393.38 792.19 1395.01 794.646C1397.83 798.261 1401.09 801.506 1404.72 804.307C1407.84 806.763 1412.55 808.804 1415.42 806.139C1418.3 803.474 1416.55 797.103 1419.59 794.105C1421.67 792.189 1424.92 792.564 1427.92 792.231C1437.42 791.024 1443.67 780.697 1452.92 779.198C1457.33 778.532 1462.83 779.489 1465.41 775.867C1466.43 774.222 1466.88 772.294 1466.71 770.37C1466.5 762.042 1462.25 754.047 1463.08 745.761C1464 740.321 1466.02 735.123 1469 730.479C1474.12 721.235 1479.2 711.949 1484.33 702.664C1486.49 698.749 1489.24 694.336 1493.66 693.586C1495.56 693.525 1497.45 693.358 1499.33 693.086C1506.16 690.963 1503.82 679.97 1508.57 674.598C1510.3 672.978 1512.21 671.579 1514.28 670.434C1525.24 662.856 1524.95 646.908 1529.57 634.416C1531.07 630.252 1534.44 626.088 1538.61 626.962C1542.78 627.837 1545.07 633.458 1548.98 632.459C1551.36 631.834 1552.4 629.128 1553.15 626.754L1555.52 618.426C1554.81 618.473 1554.09 618.403 1553.4 618.218Z" fill="white" stroke="#436AE5" stroke-linecap="round" stroke-linejoin="round"/>
<path d="M1670.05 742.138C1668.42 740.583 1666.39 739.498 1664.19 739C1661.99 738.501 1659.7 738.607 1657.55 739.307C1653.3 740.767 1648.92 741.827 1644.47 742.472C1642.23 742.726 1639.98 742.168 1638.12 740.899C1636.26 739.63 1634.92 737.734 1634.35 735.559C1634.24 734.681 1634.42 733.791 1634.85 733.019C1637.22 729.272 1643.18 734.602 1647.35 733.019C1648.01 732.649 1648.6 732.146 1649.07 731.543C1649.54 730.939 1649.88 730.247 1650.08 729.508C1650.27 728.769 1650.31 727.998 1650.2 727.242C1650.09 726.485 1649.83 725.759 1649.43 725.108C1647.65 722.561 1645.28 720.488 1642.51 719.07C1639.76 717.279 1636.93 713.449 1639.31 711.2C1640.18 710.409 1641.43 710.201 1642.39 709.493C1645.14 707.369 1643.1 702.664 1640.01 701.165C1636.93 699.666 1633.18 699.832 1630.02 698.5C1626.85 697.167 1624.35 692.795 1626.77 690.172C1630.35 686.424 1636.89 693.087 1641.47 690.713C1646.05 688.34 1643.14 681.719 1639.43 678.554C1635.72 675.39 1630.81 671.559 1632.22 666.895C1632.55 665.977 1633.03 665.119 1633.64 664.355C1630.2 663.645 1626.64 663.979 1623.39 665.313C1619.52 666.978 1616.1 670.143 1611.85 670.476C1608.39 670.768 1605.02 669.144 1601.56 669.352C1598.86 669.904 1596.19 670.599 1593.56 671.434C1592.24 671.841 1590.81 671.801 1589.51 671.319C1588.21 670.837 1587.1 669.941 1586.36 668.769C1585.85 667.207 1585.95 665.51 1586.65 664.022C1588.59 660.089 1590.78 656.279 1593.19 652.613C1594.38 650.748 1595.02 648.581 1595.02 646.367C1595.02 644.152 1594.38 641.985 1593.19 640.121C1589.27 635.665 1581.56 637.414 1576.52 633.916C1570.98 629.752 1570.48 620.175 1564.03 618.551C1561.25 618.358 1558.47 618.358 1555.69 618.551L1553.32 626.879C1552.61 629.253 1551.57 631.959 1549.15 632.584C1545.24 633.583 1542.7 628.045 1538.78 627.087C1534.86 626.13 1531.24 630.543 1529.74 634.541C1525.12 647.033 1525.57 662.981 1514.45 670.559C1512.38 671.704 1510.46 673.103 1508.74 674.723C1503.99 680.095 1506.33 691.088 1499.49 693.212C1497.62 693.483 1495.73 693.65 1493.83 693.711C1489.41 694.544 1486.66 698.875 1484.5 702.789C1479.37 712.074 1474.29 721.36 1469.17 730.604C1466.19 735.248 1464.17 740.446 1463.25 745.886C1462.42 754.214 1466.67 762.167 1466.87 770.495C1467.05 772.419 1466.6 774.347 1465.58 775.992C1463 779.614 1457.5 778.657 1453.09 779.323C1443.63 780.822 1437.38 791.149 1428.09 792.356C1425.3 792.689 1422.05 792.356 1419.76 794.23C1416.59 797.228 1418.67 803.307 1415.59 806.264C1412.51 809.22 1408.01 806.889 1404.89 804.432C1401.26 801.631 1398 798.386 1395.18 794.771C1393.55 792.315 1391.54 790.135 1389.22 788.317C1388.03 787.418 1386.59 786.911 1385.09 786.866C1383.6 786.821 1382.13 787.241 1380.89 788.067C1377.26 790.982 1379.1 796.687 1378.47 801.267C1377.22 810.594 1365.97 814.675 1360.93 822.712C1358.68 826.418 1357.89 831.04 1355.73 834.662C1352.35 840.575 1346.02 844.115 1340.65 848.362C1333.82 853.817 1328.35 860.77 1324.65 868.682C1388.93 855.357 1451.42 834.537 1513.7 813.676L1676.67 759.044C1676.95 758.307 1677.18 757.557 1677.38 756.796C1679.09 750.05 1676.88 743.388 1670.05 742.138Z" fill="white" stroke="#436AE5" stroke-linecap="round" stroke-linejoin="round"/>
<path d="M1543.36 934.473C1531.4 926.978 1529.2 924.688 1516.74 931.6C1506.96 936.526 1496.5 939.965 1485.7 941.802C1483.6 942.531 1481.31 942.531 1479.2 941.802C1476.58 940.594 1475.5 937.638 1473.75 935.306C1468.54 928.685 1458.5 929.435 1450.25 930.767L1415.67 936.388C1405.74 937.452 1396.08 940.271 1387.14 944.716C1381.68 947.798 1376.89 952.045 1371.35 955.043C1367.48 956.999 1363.41 958.548 1359.22 959.665C1358.05 962.541 1357.23 965.547 1356.77 968.618C1356.23 971.591 1356.4 974.65 1357.27 977.544C1358.14 980.438 1359.68 983.087 1361.77 985.274C1365.93 989.438 1372.64 990.312 1377.51 993.81C1387.76 1001.22 1386.43 1011.76 1399.13 1017.21C1408.38 1021.38 1420.88 1022.29 1428.55 1029.29C1434.42 1034.66 1435.75 1044.4 1442.42 1048.9C1445.56 1050.41 1448.88 1051.52 1452.29 1052.19C1455.36 1053.33 1458.04 1055.31 1460.04 1057.9C1462.04 1060.49 1463.26 1063.59 1463.58 1066.85C1463.92 1071.26 1462.58 1075.92 1464.29 1080C1466.5 1085.33 1472.62 1087.46 1477.16 1091.16C1481.11 1095.04 1484.35 1099.58 1486.75 1104.57C1489.15 1109.58 1493.05 1113.71 1497.91 1116.4H1498.24C1498.53 1115.03 1498.63 1113.63 1498.54 1112.23C1498.25 1110.42 1498.39 1108.57 1498.95 1106.82C1499.53 1105.49 1500.7 1104.49 1501.2 1103.16C1502.16 1100.74 1500.78 1098.08 1499.99 1095.62C1499.2 1093.16 1499.62 1089.62 1502.12 1089C1504.62 1088.37 1506.28 1090.37 1508.49 1089.67C1510.7 1088.96 1510.66 1084.88 1512.03 1082.54C1514.37 1078.63 1520.36 1079.96 1524.28 1077.55C1526.99 1075.8 1528.07 1072.43 1530.03 1069.84C1533.86 1064.81 1540.99 1062.81 1544.07 1057.35C1544.91 1055.56 1545.6 1053.69 1546.11 1051.77C1547.07 1048.96 1548.48 1046.31 1550.28 1043.94C1554.98 1037.45 1563.32 1032.74 1564.11 1024.75C1564.05 1022.81 1564.2 1020.87 1564.57 1018.96C1565.32 1017.12 1566.42 1015.43 1567.82 1014.01C1578.23 1000.93 1578.27 980.693 1592.44 971.824C1592.84 971.078 1593.29 970.356 1593.77 969.659C1577.62 957.017 1560.8 945.27 1543.36 934.473Z" fill="white" stroke="#436AE5" stroke-linecap="round" stroke-linejoin="round"/>
<path d="M1125.47 1035.62C1125.72 1029.78 1124.93 1023.94 1123.13 1018.38C1121.59 1014.86 1119.67 1011.52 1117.39 1008.43C1107.87 1011.47 1098.12 1013.68 1088.22 1015.05L1018.94 1026.41C1013.11 1041.18 1006.58 1055.65 999.363 1069.8C992.698 1082.71 985.366 1095.58 982.699 1109.86C977.575 1136.18 988.032 1162.12 991.031 1188.02C994.281 1216.71 980.575 1241.73 975.242 1269.47C973.91 1273.58 974.209 1278.05 976.076 1281.96C979.367 1287.12 987.032 1287.37 992.739 1285.08C998.447 1282.79 1003.32 1278.71 1009.15 1276.75C1019.69 1273.34 1031.4 1277.88 1042.23 1275.5C1047.15 1274.42 1051.69 1271.96 1056.65 1271.34C1059.1 1270.73 1061.68 1270.94 1064 1271.93C1066.33 1272.93 1068.26 1274.65 1069.52 1276.84C1071.27 1281 1068.94 1285.96 1069.52 1290.58C1070.02 1296.49 1074.85 1300.95 1077.85 1305.94C1079.93 1309.21 1081.35 1312.87 1082.02 1316.69C1086.69 1316.71 1091.31 1315.72 1095.56 1313.77C1099.76 1311.17 1103.78 1308.29 1107.6 1305.15C1111.77 1302.18 1116.94 1300.94 1122.01 1301.7C1127.99 1303.02 1134.24 1302.1 1139.59 1299.11C1137.99 1292.69 1136.74 1286.18 1135.84 1279.63C1123.38 1199.05 1126.38 1117.19 1125.47 1035.62Z" fill="white" stroke="#436AE5" stroke-linecap="round" stroke-linejoin="round"/>
<path d="M1296.9 1176.94C1295.11 1168.36 1292.73 1158.37 1298.53 1151.75C1300.77 1149.17 1304.27 1146.71 1303.52 1143.42C1303.01 1141.84 1302 1140.47 1300.65 1139.51C1295.01 1134.66 1290.19 1128.94 1286.36 1122.56C1283.17 1116.23 1280.74 1109.55 1279.11 1102.66C1268.45 1064.49 1257.77 1026.3 1247.08 988.105C1229.24 992.436 1211.4 996.6 1193.54 1000.6C1181.42 1003.35 1168.92 1006.09 1156.71 1003.93C1149.88 1002.68 1143.05 999.973 1136.22 1001.06C1131.86 1002.15 1127.66 1003.8 1123.72 1005.97C1121.72 1006.89 1119.55 1007.68 1117.55 1008.43C1119.83 1011.52 1121.76 1014.86 1123.3 1018.38C1125.1 1023.94 1125.89 1029.78 1125.64 1035.62C1126.55 1117.06 1123.55 1198.93 1135.47 1279.5C1136.37 1286.06 1137.62 1292.57 1139.22 1298.99C1143.88 1296.49 1148.17 1292.95 1153.72 1289.91C1163.46 1284.54 1166.8 1297.57 1177 1298.57C1179.46 1298.8 1181.94 1298.6 1184.34 1297.99C1184.34 1290.62 1186.46 1282.71 1182.71 1276.38C1180.92 1273.42 1177.96 1271.13 1177 1267.84C1175 1261.01 1182.29 1255.35 1188.92 1252.6C1196.49 1249.86 1204.26 1247.72 1212.16 1246.19L1284.53 1230.37C1288.98 1229.17 1293.59 1228.66 1298.19 1228.87C1300.98 1211.63 1300.54 1194.02 1296.9 1176.94Z" fill="white" stroke="#436AE5" stroke-linecap="round" stroke-linejoin="round"/>
<path d="M1486.74 1104.2C1484.35 1099.21 1481.11 1094.67 1477.16 1090.79C1472.74 1087.08 1466.5 1084.96 1464.29 1079.63C1462.58 1075.47 1463.91 1070.89 1463.58 1066.47C1463.26 1063.22 1462.03 1060.12 1460.04 1057.52C1458.04 1054.93 1455.36 1052.95 1452.29 1051.81C1448.87 1051.14 1445.55 1050.04 1442.42 1048.53C1435.75 1044.03 1434.42 1034.28 1428.54 1028.91C1420.88 1021.92 1408.38 1020.83 1399.13 1016.84C1386.42 1011.38 1387.76 1000.85 1377.51 993.436C1372.64 989.938 1366.14 988.98 1361.76 984.9C1359.68 982.712 1358.14 980.064 1357.27 977.17C1356.4 974.276 1356.23 971.217 1356.76 968.244C1357.22 965.172 1358.05 962.167 1359.22 959.291L1355.06 960.498C1319.23 970.076 1283.3 979.209 1247.28 987.898C1257.95 1026.1 1268.62 1064.28 1279.32 1102.45C1280.94 1109.34 1283.38 1116.03 1286.57 1122.35C1290.39 1128.73 1295.22 1134.45 1300.86 1139.3C1302.21 1140.27 1303.21 1141.64 1303.73 1143.21C1304.48 1146.55 1300.98 1149 1298.73 1151.54C1293.02 1158.16 1295.31 1168.2 1297.11 1176.73C1300.71 1193.86 1301.09 1211.52 1298.23 1228.78H1299.15C1307.48 1229.87 1314.1 1235.57 1321.89 1238.2C1331.18 1241.36 1341.31 1240.03 1351.06 1238.69L1431.42 1227.45C1436.54 1226.74 1442.29 1226.16 1446.46 1229.28C1449.29 1231.37 1452 1235.24 1455.29 1233.95C1456.22 1233.4 1456.99 1232.62 1457.51 1231.67C1458.03 1230.73 1458.29 1229.66 1458.25 1228.58C1458.62 1224.12 1457.46 1219.62 1457.66 1215.13C1457.58 1212.87 1458.22 1210.65 1459.47 1208.77C1460.73 1206.89 1462.54 1205.46 1464.66 1204.68C1466.93 1204.39 1469.23 1204.59 1471.41 1205.26C1477.83 1206.52 1484.44 1206.45 1490.82 1205.05C1490.82 1203.13 1490.41 1201.22 1490.12 1199.35C1487.75 1183.32 1487.48 1167.05 1489.32 1150.96C1489.73 1142.97 1491.13 1135.07 1493.49 1127.43C1495.49 1123.75 1497.14 1119.89 1498.41 1115.9H1498.07C1493.17 1113.27 1489.21 1109.18 1486.74 1104.2Z" fill="white" stroke="#436AE5" stroke-linecap="round" stroke-linejoin="round"/>
<path d="M1325.73 938.512C1331.14 933.682 1333.6 926.353 1338.23 920.981C1344.14 914.402 1353.31 910.988 1357.85 903.451C1361.64 897.205 1362.81 887.919 1369.85 886.004C1372.52 885.691 1375.2 885.524 1377.89 885.504C1384.72 884.422 1388.63 877.176 1394.55 873.762C1397.26 872.221 1400.42 871.555 1402.88 869.848C1405.18 868.188 1407.06 866.004 1408.35 863.477C1409.64 860.95 1410.31 858.152 1410.3 855.315C1410.38 852.519 1410.13 849.723 1409.55 846.987C1378.3 856.19 1346.77 864.434 1314.81 870.68C1254.12 882.548 1191.88 887.336 1132.8 905.491C1117.64 910.155 1102.6 915.693 1086.98 917.109C1073.27 918.358 1057.06 917.442 1048.52 928.227C1044.92 933.704 1042.67 939.953 1041.94 946.465C1036.48 973.794 1028.62 1000.59 1018.45 1026.54L1087.73 1015.17C1099.87 1013.7 1111.78 1010.65 1123.14 1006.09C1127.07 1003.92 1131.27 1002.27 1135.63 1001.18C1142.47 1000.1 1149.3 1002.8 1156.13 1004.05C1168.34 1006.22 1180.84 1003.47 1192.96 1000.72C1227.7 992.755 1262.32 984.427 1296.82 975.738C1297.02 967.41 1297.69 957.999 1303.48 951.837C1309.27 945.674 1319.35 944.008 1325.73 938.512Z" fill="white" stroke="#436AE5" stroke-linecap="round" stroke-linejoin="round"/>
<path d="M1700.13 799.31C1699.71 796.187 1697.67 792.273 1694.67 793.147C1693 793.605 1692.13 795.354 1691.34 796.895C1689.17 801.059 1685.42 805.431 1680.71 804.973C1677.51 804.682 1674.88 802.266 1671.8 801.35C1661.84 798.311 1662.01 808.762 1655.59 809.887C1649.18 811.011 1646.64 800.226 1647.26 795.438C1649.3 781.696 1655.09 802.6 1661.38 791.274C1663.92 786.818 1667.55 790.691 1670.51 789.067C1673.46 787.443 1673.21 782.779 1676.3 780.988C1677.59 780.239 1679.26 780.447 1680.46 779.823C1683.59 778.324 1682.88 773.535 1680.84 770.745C1678.8 767.955 1675.84 765.332 1675.84 761.876C1675.87 760.883 1676.06 759.9 1676.38 758.961L1513.41 813.593C1479.04 825.085 1444.63 836.578 1409.88 846.904C1410.46 849.641 1410.72 852.436 1410.63 855.232C1410.64 858.069 1409.97 860.867 1408.68 863.394C1407.39 865.921 1405.52 868.105 1403.22 869.765C1400.55 871.472 1397.38 872.138 1394.89 873.679C1388.84 877.01 1384.93 884.339 1378.22 885.421C1375.53 885.441 1372.85 885.608 1370.18 885.921C1363.14 887.836 1361.85 897.122 1358.18 903.368C1353.64 910.905 1344.48 914.32 1338.56 920.899C1333.73 926.27 1331.27 933.391 1326.06 938.429C1319.69 944.05 1310.23 945.424 1304.4 951.629C1298.57 957.833 1297.94 966.994 1297.73 975.53C1316.93 970.672 1336.08 965.689 1355.18 960.582C1360.94 959.266 1366.53 957.31 1371.85 954.752C1377.39 951.754 1382.18 947.507 1387.64 944.425C1396.58 939.98 1406.24 937.16 1416.17 936.097L1450.75 930.476C1459.08 929.143 1469.04 928.394 1474.25 935.015C1476 937.263 1477.08 940.303 1479.7 941.51C1481.81 942.24 1484.1 942.24 1486.2 941.51C1496.82 939.692 1507.11 936.325 1516.74 931.517C1529.24 924.605 1531.4 926.895 1543.36 934.39C1560.65 945.146 1577.34 956.836 1593.35 969.409C1596.33 964.634 1600.51 960.727 1605.48 958.083C1609.18 956.126 1613.27 954.96 1617.02 953.086C1620.92 951.48 1624.11 948.524 1626.01 944.758C1626.87 942.138 1627.42 939.427 1627.64 936.68C1629.64 923.813 1638.72 910.738 1646.18 900.287C1648.73 896.359 1652.14 893.063 1656.15 890.646C1660.16 888.23 1664.67 886.756 1669.34 886.337C1671.36 886.408 1673.38 886.31 1675.38 886.046C1676.39 885.909 1677.35 885.51 1678.16 884.89C1678.97 884.269 1679.61 883.448 1680.01 882.507C1680.28 881.277 1680.4 880.019 1680.38 878.759C1680.63 876.177 1682.09 873.887 1682.46 871.306C1682.84 868.724 1683.71 868.224 1681.34 867.142C1677.17 865.268 1672.34 868.099 1668.84 871.097C1665.34 874.095 1661.72 877.676 1657.13 877.385C1652.55 877.093 1649.01 870.181 1652.97 867.974C1654.29 867.431 1655.71 867.19 1657.13 867.266C1659.23 867.297 1661.3 866.821 1663.17 865.878C1665.04 864.936 1666.66 863.555 1667.88 861.853C1668.43 860.979 1668.77 859.997 1668.9 858.975C1669.02 857.953 1668.92 856.917 1668.6 855.938C1668.29 854.959 1667.76 854.061 1667.06 853.306C1666.36 852.551 1665.5 851.958 1664.55 851.568C1662.06 851.378 1659.57 851.561 1657.13 852.109C1654.63 852.109 1651.59 850.527 1652.09 847.945C1653.09 842.907 1664.38 847.446 1664.59 842.324C1664.54 841.451 1664.34 840.592 1664.01 839.784C1663.8 838.378 1663.99 836.942 1664.56 835.639C1665.13 834.336 1666.05 833.22 1667.22 832.416C1668.39 831.613 1669.77 831.156 1671.19 831.096C1672.61 831.037 1674.02 831.378 1675.26 832.081C1676.96 833.371 1678.09 835.453 1679.96 836.494C1684.13 838.66 1688.75 835.162 1691.5 831.498C1698.37 822.255 1701.45 810.745 1700.13 799.31Z" fill="white" stroke="#436AE5" stroke-linecap="round" stroke-linejoin="round"/>
<path d="M942.958 313.955C945.186 316.183 948.146 317.529 951.29 317.745C960.997 319.452 971.078 319.077 980.66 321.367C988.992 323.366 996.783 327.363 1005.03 329.903C1014.93 332.983 1025.36 333.947 1035.65 332.735C1035.42 334.915 1036.03 337.101 1037.35 338.85C1038.67 340.598 1040.61 341.777 1042.77 342.146C1044.3 342.143 1045.81 342.353 1047.27 342.77C1050.52 344.227 1050.48 348.766 1050.65 352.347C1050.87 356.193 1051.9 359.948 1053.69 363.36C1055.48 366.771 1057.98 369.761 1061.02 372.126C1060.77 370.358 1060.77 368.564 1061.02 366.796C1062.11 361.3 1067.19 357.677 1070.77 353.388C1073.17 350.407 1074.92 346.951 1075.89 343.247C1076.85 339.544 1077.03 335.677 1076.39 331.902C1076.14 328.987 1075.77 323.574 1079.98 325.24C1084.18 326.905 1086.06 340.397 1091.18 329.404C1092.06 327.447 1097.64 325.24 1099.52 326.989C1101.39 328.737 1098.43 334.692 1098.31 337.274C1102.77 337.94 1106.64 333.859 1108.47 329.778C1109.86 325.477 1112.23 321.557 1115.39 318.327C1118.97 315.663 1123.72 315.579 1127.68 313.206C1132.22 310.374 1134.26 304.878 1138.51 301.422C1146.34 295.301 1157.71 299.506 1166.55 304.128C1169.3 305.544 1173.46 306.502 1174.88 303.712C1175.63 301.921 1174.42 299.881 1174.59 297.924C1175.09 292.969 1182.5 293.427 1187.08 295.384C1191.67 297.341 1199.21 297.549 1199.58 292.594C1193.17 283.183 1183.5 272.524 1172.59 275.688C1169.17 276.688 1160.76 284.016 1157.38 283.058C1156.75 282.736 1156.23 282.247 1155.86 281.644C1155.49 281.042 1155.3 280.35 1155.3 279.644C1155.31 278.235 1155.12 276.831 1154.71 275.48C1153.38 272.565 1149.17 271.982 1147.8 269.109C1146.42 266.236 1151.13 258.866 1147.05 257.408C1145.78 257.139 1144.45 257.363 1143.34 258.033L1114.18 270.816C1110.21 272.312 1106.5 274.451 1103.22 277.146C1100.43 279.686 1098.43 283.058 1095.52 285.474C1090.43 289.638 1086.89 290.762 1081.14 287.472C1076.16 289.384 1070.75 289.91 1065.49 288.993C1060.23 288.077 1055.32 285.752 1051.27 282.267C1048.27 279.024 1045.07 275.965 1041.69 273.106C1039.42 271.494 1036.79 270.464 1034.03 270.108C1031.27 269.752 1028.46 270.081 1025.86 271.066C1022.44 272.648 1019.53 277.853 1015.03 274.481C1010.53 271.108 1012.82 264.071 1015.24 260.781C1019.36 256.409 1024.03 252.6 1029.15 249.455C1033.86 245.749 1037.98 240.003 1036.57 234.173C1024.44 232.882 1012.99 240.128 1004.24 248.622C995.491 257.117 988.117 267.194 978.036 274.064C976.135 275.058 974.494 276.485 973.245 278.228C972.245 280.102 972.245 282.392 970.787 284.058C969.329 285.723 966.204 285.765 963.705 286.265C953.206 288.263 949.54 298.424 940.875 302.921C940.875 304.211 940.875 305.461 940.875 306.752C940.881 309.3 941.603 311.796 942.958 313.955Z" fill="white" stroke="#436AE5" stroke-linecap="round" stroke-linejoin="round"/>
<path d="M1077.02 535.021C1077.02 528.775 1078.81 522.529 1077.02 516.45C1075.95 513.806 1074.64 511.268 1073.1 508.871C1069.85 502.942 1067.9 496.385 1067.39 489.641C1066.88 482.897 1067.82 476.123 1070.14 469.771C1072.35 465.669 1073.44 461.06 1073.31 456.405C1072.93 454.156 1071.77 452.241 1071.43 449.826C1070.35 442.581 1077.52 436.459 1077.81 429.006C1077.66 426.213 1077.34 423.432 1076.85 420.678C1076.97 414.524 1078.39 408.464 1081.02 402.898C1082.68 398.151 1091.39 371.085 1081.93 371.21C1077.77 371.21 1074.64 375.374 1072.81 379.121C1067.89 389.49 1066.89 401.69 1060.31 411.017C1058.06 414.14 1053.56 416.972 1050.65 414.432C1050.02 413.775 1049.54 412.994 1049.24 412.14C1048.94 411.287 1048.82 410.379 1048.9 409.477C1048.9 397.693 1061.39 388.657 1061.39 376.998C1061.38 375.269 1061.24 373.543 1060.98 371.834C1057.94 369.469 1055.44 366.479 1053.65 363.068C1051.86 359.656 1050.82 355.901 1050.6 352.055C1050.6 348.474 1050.6 343.936 1047.23 342.478C1045.77 342.061 1044.25 341.851 1042.73 341.854C1040.57 341.485 1038.63 340.306 1037.3 338.558C1035.98 336.81 1035.37 334.623 1035.61 332.443C1025.31 333.655 1014.88 332.691 1004.99 329.611C996.654 327.071 988.989 323.074 980.616 321.075C971.034 318.785 960.952 319.16 951.245 317.453C948.101 317.237 945.141 315.891 942.913 313.663C941.455 311.535 940.632 309.037 940.539 306.46C940.539 305.169 940.539 303.92 940.539 302.629C939.214 303.321 937.817 303.865 936.373 304.253C931.499 305.544 917.751 308.125 915.21 302.545C913.252 298.381 920.792 292.76 917.417 287.555C915.293 284.224 910.169 286.431 906.919 288.679C898.343 294.719 888.808 299.266 878.715 302.129C875.666 303.344 872.267 303.344 869.217 302.129L864.801 305.502C860.635 308.625 856.469 312.289 855.803 317.328C855.787 320.563 856.337 323.776 857.427 326.822C860.094 338.481 854.553 347.642 847.846 356.636C842.888 363.215 831.64 373.084 836.264 382.286C839.222 388.199 847.846 390.364 849.22 396.86C850.845 404.688 840.472 410.101 839.305 418.013C838.014 426.799 848.22 432.67 856.969 434.377C865.718 436.085 876.049 437.167 880.465 444.871C882.173 447.786 882.673 451.283 884.256 454.281C891.255 467.481 914.21 464.525 920.917 477.85C922.586 481.997 923.312 486.463 923.042 490.924C923.467 507.064 925.66 523.107 929.582 538.769C931.54 546.555 935.831 555.758 943.872 555.924C946.454 555.924 949.287 554.967 951.579 556.258C952.727 556.945 953.609 558.002 954.078 559.256C994.072 548.429 1036.81 548.429 1077.43 540.101C1077.18 538.419 1077.04 536.722 1077.02 535.021Z" fill="white" stroke="#436AE5" stroke-linecap="round" stroke-linejoin="round"/>
<path d="M1117.97 752.465C1115.69 748.891 1114.05 744.945 1113.14 740.806C1112.93 736.017 1116.14 731.77 1117.05 727.065C1117.51 723.737 1117.39 720.355 1116.68 717.071C1109.64 672.267 1104.56 627.212 1101.14 581.991C1100.05 581.663 1099 581.201 1098.01 580.617C1090.39 576.12 1086.64 567.376 1083.35 559.214C1080.64 553.141 1078.65 546.767 1077.43 540.227C1036.61 548.555 994.115 548.555 954.038 559.298C954.58 560.547 954.955 561.921 955.413 563.212C958.829 572.997 969.077 578.744 974.118 587.821C975.765 591.144 976.714 594.768 976.91 598.471C977.105 602.173 976.542 605.877 975.255 609.355C973.968 612.832 971.984 616.01 969.424 618.695C966.865 621.379 963.784 623.512 960.37 624.964C952.247 627.962 940.082 630.21 941.207 638.788C941.629 640.718 942.346 642.572 943.332 644.285C951.872 663.481 931.958 683.176 929.167 703.996C928.434 709.715 929.014 715.525 930.862 720.987C932.71 726.448 935.777 731.418 939.832 735.518C945.165 740.848 952.038 744.47 957.746 749.467C962.798 753.955 966.848 759.456 969.632 765.611C972.417 771.766 973.875 778.439 973.91 785.194C980.451 781.03 989.699 777.241 995.031 782.779C1001.36 789.275 994.323 799.851 994.532 808.929C994.948 827.292 1022.82 831.456 1030.69 848.029C1035.44 858.064 1032.19 871.472 1039.86 879.467C1045.11 884.88 1053.65 885.755 1060.44 888.794C1060.23 886.079 1060.55 883.348 1061.4 880.758C1061.96 878.969 1063.06 877.4 1064.55 876.266C1066.04 875.132 1067.85 874.49 1069.73 874.429C1073.39 874.637 1076.14 877.718 1079.1 879.842C1082.06 881.965 1086.97 882.965 1088.89 879.842C1090.14 877.801 1089.39 875.178 1089.89 872.805C1090.81 868.641 1095.31 866.434 1098.97 864.144C1102.64 861.853 1106.14 857.356 1103.97 853.65C1102.39 850.944 1098.06 848.82 1099.81 846.072C1100.18 845.521 1100.64 845.042 1101.18 844.656C1103.26 842.548 1104.85 840.007 1105.84 837.214C1106.82 834.422 1107.18 831.447 1106.89 828.5C1106.89 822.587 1105.35 816.757 1105.6 810.844C1106.06 800.643 1111.3 791.399 1115.39 782.03C1119.47 772.661 1122.09 761.834 1117.97 752.465Z" fill="white" stroke="#436AE5" stroke-linecap="round" stroke-linejoin="round"/>
<path d="M923.002 491.008C923.272 486.546 922.547 482.08 920.877 477.933C914.17 464.608 891.215 467.564 884.217 454.365C882.633 451.366 882.133 447.869 880.425 444.954C876.01 437.25 865.636 436.168 856.929 434.461C848.222 432.753 837.974 426.882 839.265 418.096C840.432 410.185 850.805 404.771 849.181 396.943C847.806 390.447 839.182 388.282 836.224 382.369C831.6 373.167 842.848 363.298 847.806 356.719C854.513 347.808 860.054 338.564 857.388 326.905C856.297 323.859 855.747 320.646 855.763 317.411C856.346 312.372 860.72 308.708 864.761 305.585L869.177 302.212C868.409 301.763 867.776 301.116 867.344 300.338L904.338 252.786C907.622 248.07 911.58 243.861 916.086 240.294C922.142 236.73 928.449 233.612 934.958 230.966C941.165 227.76 948.456 222.638 949.373 215.601C946.081 207.898 935.208 207.69 927.043 209.605C918.878 211.52 909.129 213.769 902.922 208.231C901.339 206.774 900.047 204.775 897.964 204.067C893.798 202.734 890.549 206.982 888.008 210.355C885.466 213.727 880.217 216.767 877.509 213.519C875.843 211.52 876.343 208.064 874.176 206.607C872.01 205.15 870.01 206.607 867.511 206.607C862.637 206.982 858.846 202.443 854.596 200.153C850.347 197.863 842.765 199.112 843.431 203.984L835.558 184.538C835.016 183.164 834.225 181.54 832.725 181.29C832.159 181.264 831.593 181.355 831.063 181.555C830.533 181.756 830.05 182.062 829.642 182.456C823.351 187.369 817.144 196.405 809.812 192.824C806.688 191.283 804.188 187.411 800.855 188.327C798.355 189.035 797.314 192.116 795.023 193.324C790.19 195.905 786.024 188.868 781.108 186.37C776.193 183.872 770.527 186.12 765.194 187.244C750.03 190.409 745.614 171.338 743.573 159.929C743.031 156.889 742.365 153.308 739.407 151.934C737.814 151.457 736.103 151.559 734.578 152.222C733.053 152.885 731.812 154.066 731.075 155.556C729.708 158.582 728.512 161.683 727.492 164.842C719.16 182.747 686.291 177.875 670.71 177.959C663.003 177.959 655.254 177.959 647.547 177.959C649.595 181.097 651.325 184.43 652.713 187.911C655.171 195.156 651.38 200.403 651.463 207.065C651.463 211.229 654.171 213.269 655.254 217.142C656.92 223.138 653.796 228.551 654.296 234.589C654.796 240.627 658.837 246.748 661.878 252.286C669.677 266.615 673.287 282.849 672.293 299.131C671.552 304.748 671.37 310.425 671.751 316.078C672.896 321.712 674.627 327.211 676.917 332.484C681.987 346.339 683.963 361.133 682.708 375.832C682.041 383.202 680.75 391.28 684.749 397.484C686.582 400.316 689.373 402.481 691.123 405.354C693.149 409.434 694.096 413.964 693.873 418.513L697.372 512.119C697.372 515.742 697.622 519.406 697.664 523.112C773.193 518.657 848.764 513.785 923.752 503.958C923.377 499.669 923.127 495.338 923.002 491.008Z" fill="white" stroke="#436AE5" stroke-linecap="round" stroke-linejoin="round"/>
<path d="M825.562 699.999C841.276 697.016 857.194 695.234 873.179 694.669C880.041 695.029 886.923 694.568 893.676 693.295C900.091 691.463 904.299 688.631 911.548 690.088C918.796 691.546 923.796 697.251 929.67 701.29C933.836 681.469 951.499 662.648 943.334 644.326C942.348 642.614 941.632 640.76 941.209 638.83C940.085 630.252 952.249 628.003 960.373 625.005C963.786 623.553 966.867 621.42 969.427 618.736C971.986 616.052 973.971 612.874 975.258 609.396C976.545 605.918 977.108 602.215 976.912 598.512C976.717 594.809 975.767 591.185 974.121 587.862C969.08 578.785 958.831 573.039 955.415 563.253C954.499 560.672 953.916 557.632 951.541 556.341C949.166 555.05 946.417 556.05 943.834 556.008C935.794 556.008 931.336 546.639 929.545 538.852C926.682 527.395 924.745 515.726 923.754 503.958C848.766 513.785 773.195 518.657 697.666 523.112C698.079 532.821 697.182 542.541 695 552.01C693.864 555.557 693.11 559.214 692.75 562.92C692.814 566.207 693.319 569.47 694.25 572.622C696.48 583.929 700.266 594.873 705.498 605.143C707.206 608.183 709.206 611.056 710.83 614.137C713.867 620.895 716.442 627.851 718.537 634.957C720.995 642.619 723.412 650.281 725.87 657.942C728.023 664.224 729.831 670.618 731.285 677.097C732.702 685.05 732.327 693.253 733.952 701.165C734.229 702.58 734.563 703.968 734.951 705.329C747.241 704.808 759.478 703.417 771.57 701.165C789.817 697.833 807.148 703.538 825.562 699.999Z" fill="white" stroke="#436AE5" stroke-linecap="round" stroke-linejoin="round"/>
<path d="M1010.99 957.167C1010.61 958.629 1010.61 960.161 1010.99 961.623C1012.57 966.12 1019.11 965.079 1023.48 963.621C1028.58 961.958 1033.85 960.869 1039.19 960.374C1040.27 955.752 1041.31 951.13 1042.23 946.466C1042.96 939.953 1045.21 933.705 1048.81 928.228C1052.32 924.015 1057.13 921.086 1062.48 919.9C1061.81 910.489 1061.19 901.12 1060.52 891.709C1060.52 890.752 1060.52 889.794 1060.31 888.795C1053.52 885.755 1044.98 884.88 1039.73 879.467C1032.07 871.472 1035.32 858.064 1030.57 848.029C1022.69 831.373 994.822 827.209 994.405 808.929C994.197 799.852 1001.24 789.275 994.905 782.779C989.573 777.241 980.324 781.072 973.784 785.194C973.749 778.439 972.291 771.767 969.506 765.611C966.721 759.456 962.671 753.955 957.62 749.467C951.912 744.471 945.122 740.848 939.706 735.518C935.651 731.418 932.583 726.448 930.736 720.987C928.888 715.526 928.308 709.715 929.041 703.997C929.041 703.08 929.208 702.164 929.541 701.248C923.667 697.084 918.418 691.421 911.419 690.047C904.42 688.673 899.962 691.421 893.547 693.253C886.794 694.527 879.913 694.988 873.05 694.628C857.065 695.193 841.147 696.975 825.433 699.957C807.019 703.497 789.689 697.792 771.275 701.207C759.183 703.459 746.946 704.85 734.656 705.371C735.746 710.669 738.454 715.499 742.405 719.195C744.578 720.985 746.485 723.074 748.071 725.399C755.736 736.268 773.9 740.723 774.983 754.173C775.483 760.294 771.858 766.207 772.4 772.328C773.317 783.279 784.481 785.861 789.772 793.897C797.479 805.515 796.604 822.421 796.188 835.537C794.98 876.511 800.937 917.11 806.478 957.834C875.592 945.925 945.455 939.096 1015.28 932.35C1013.97 940.733 1012.54 949.006 1010.99 957.167Z" fill="white" stroke="#436AE5" stroke-linecap="round" stroke-linejoin="round"/>
<path d="M982.659 1109.99C985.45 1095.7 992.782 1082.84 999.323 1069.93C1017.15 1035.21 1030.6 998.407 1039.36 960.373C1034.02 960.869 1028.75 961.958 1023.65 963.621C1019.11 965.078 1012.57 966.12 1011.15 961.622C1010.78 960.161 1010.78 958.629 1011.15 957.167C1012.71 949.005 1014.24 940.844 1015.74 932.683C945.915 939.428 876.051 946.257 806.938 958.166C810.395 983.483 813.686 1008.88 814.978 1034.37C816.644 1066.64 816.644 1100.57 820.144 1132.68C822.302 1134.56 824.838 1135.97 827.583 1136.79C830.328 1137.62 833.217 1137.85 836.058 1137.47C839.557 1136.97 843.765 1135.76 846.056 1138.47C847.075 1139.97 847.573 1141.77 847.472 1143.59C848.014 1154.21 848.306 1164.91 848.389 1175.57C893.603 1166.63 939.319 1160.44 985.283 1157.04C981.951 1141.42 979.409 1125.77 982.659 1109.99Z" fill="white" stroke="#436AE5" stroke-linecap="round" stroke-linejoin="round"/>
<path d="M820.183 1132.68C816.684 1100.57 816.684 1066.64 815.017 1034.37C813.184 997.974 807.269 961.789 802.519 925.604L616.467 933.932C576.265 935.764 536.313 933.932 496.111 934.598C479.447 934.889 459.284 938.762 443.037 933.015V933.765C428.622 933.973 413.875 934.681 399.46 933.765C397.669 933.765 396.544 947.256 395.836 965.786C443.698 969.401 491.731 970.208 539.687 968.201C540.215 1007.26 540.729 1046.33 541.229 1085.42C541.229 1086.83 541.229 1088.54 542.729 1089.12C543.6 1089.46 544.565 1089.46 545.436 1089.12C556.643 1086.5 562.517 1095.79 571.807 1096.45C574.932 1096.45 576.473 1093.95 580.139 1095.2C584.68 1096.62 587.638 1102.57 590.762 1105.82C594.045 1109.15 598.133 1111.58 602.629 1112.86C607.126 1114.14 611.878 1114.24 616.425 1113.15C622.341 1111.61 628.548 1108.07 634.13 1110.57C638.838 1112.65 640.796 1118.1 643.67 1122.35C647.836 1128.68 650.753 1126.97 656.668 1125.1C658.918 1124.39 661.584 1121.73 664.25 1122.35C666.917 1122.98 668.208 1127.56 671.291 1129.1C674.374 1130.64 678.081 1128.35 681.414 1127.22C689.746 1124.39 698.953 1129.14 706.993 1133.22C715.034 1137.3 725.074 1140.76 732.573 1135.76C736.364 1133.22 739.071 1128.68 743.571 1127.97C745.737 1127.6 747.945 1128.22 750.028 1127.68C753.569 1126.72 755.569 1122.85 758.902 1121.39C764.776 1118.77 771.15 1124.39 777.565 1124.18C780.632 1123.6 783.736 1123.22 786.855 1123.06C791.979 1123.68 795.187 1128.89 799.353 1131.97C802.33 1133.89 805.726 1135.05 809.252 1135.37C812.777 1135.69 816.327 1135.15 819.6 1133.8L820.641 1133.3L820.183 1132.68Z" fill="white" stroke="#436AE5" stroke-linecap="round" stroke-linejoin="round"/>
<path d="M683.08 368.878C683.306 356.47 681.274 344.124 677.081 332.443C674.791 327.17 673.059 321.671 671.915 316.037C671.534 310.384 671.715 304.707 672.456 299.09C673.45 282.807 669.841 266.574 662.041 252.245C659 246.707 655.001 241.002 654.459 234.548C653.918 228.094 657.084 223.097 655.418 217.101C654.334 213.228 651.71 211.354 651.626 207.024C651.626 200.153 655.334 195.115 652.876 187.869C651.494 184.36 649.763 180.998 647.71 177.834C633.546 177.834 619.34 177.376 605.176 177.418L443.785 178.167C422.955 178.167 402.376 178.375 381.629 178.167C378.852 242.543 376.158 306.932 373.547 371.335C476.655 375.624 580.013 374.749 683.08 368.878Z" fill="white" stroke="#436AE5" stroke-linecap="round" stroke-linejoin="round"/>
<path d="M697.37 512.119L693.871 418.513C694.094 413.964 693.148 409.434 691.121 405.354C689.371 402.481 686.58 400.316 684.747 397.485C680.581 391.28 682.039 383.202 682.706 375.832C682.914 373.5 682.998 371.21 683.081 368.878C580.014 374.749 476.656 375.624 373.548 371.376C370.993 432.06 368.438 492.701 365.883 553.301L593.429 557.465C598.293 557.295 603.154 557.871 607.843 559.172C616.508 562.087 623.591 569.874 632.839 569.957C636.778 569.613 640.672 568.873 644.462 567.75C662.376 564.169 679.123 575.745 696.662 581.741C695.87 578.743 695.121 575.703 694.371 572.705C693.44 569.553 692.935 566.29 692.871 563.003C693.231 559.297 693.985 555.64 695.121 552.094C697.796 538.947 698.554 525.483 697.37 512.119Z" fill="white" stroke="#436AE5" stroke-linecap="round" stroke-linejoin="round"/>
<path d="M748.364 725.566C746.779 723.24 744.871 721.151 742.698 719.361C737.615 715.197 735.283 707.91 733.949 701.29C732.325 693.378 732.7 685.175 731.283 677.222C729.829 670.743 728.021 664.348 725.867 658.067C723.409 650.405 720.993 642.744 718.535 635.082C716.44 627.976 713.865 621.02 710.828 614.262C709.203 611.181 707.204 608.307 705.496 605.268C701.504 597.861 698.493 589.966 696.539 581.783C679 575.787 662.253 564.211 644.339 567.792C640.549 568.915 636.655 569.654 632.716 569.999C623.592 569.999 616.51 562.129 607.72 559.214C603.031 557.913 598.17 557.337 593.306 557.507L365.76 553.343C364.01 595.566 362.246 637.775 360.469 679.97C391.172 679.47 421.167 681.261 451.829 683.093C451.496 703.163 451.037 723.248 450.454 743.346C456.476 743.921 462.53 744.102 468.576 743.887L630.383 740.972C673.168 740.223 715.827 736.808 758.654 735.059C754.718 732.49 751.24 729.281 748.364 725.566Z" fill="white" stroke="#436AE5" stroke-linecap="round" stroke-linejoin="round"/>
<path d="M796.484 835.745C796.901 822.462 797.775 805.556 790.068 794.105C784.777 786.068 773.613 783.487 772.696 772.536C772.155 766.414 775.779 760.502 775.279 754.38C774.571 745.511 766.447 740.556 758.615 735.06C715.789 736.933 673.129 740.223 630.344 740.972L468.537 743.887C462.491 744.102 456.438 743.921 450.415 743.346C448.582 806.639 445.625 869.89 442.625 933.141C458.872 938.72 478.869 935.014 495.7 934.723C535.901 934.015 575.853 935.889 616.055 934.057L802.108 925.729C797.872 895.928 795.991 865.841 796.484 835.745Z" fill="white" stroke="#436AE5" stroke-linecap="round" stroke-linejoin="round"/>
<g filter="url(#filter0_d_5_65958)">
<ellipse cx="1692.31" cy="555.865" rx="20.5472" ry="20.5453" fill="white"/>
<path d="M1709.86 555.865C1709.86 565.554 1702 573.41 1692.31 573.41C1682.62 573.41 1674.77 565.554 1674.77 555.865C1674.77 546.175 1682.62 538.319 1692.31 538.319C1702 538.319 1709.86 546.175 1709.86 555.865Z" stroke="#FF7D01" stroke-width="6"/>
</g>
</g>
<g filter="url(#filter1_d_5_65958)">
<rect x="1342" y="514.842" width="284" height="104" rx="25" fill="white"/>
</g>
<path d="M1388.06 559.842H1383.3L1378.26 550.545L1377.62 548.758H1377.32L1377.76 550.545V559.842H1374.6V545.838H1379.36L1384.4 555.145L1385.04 556.922H1385.34L1384.9 555.145V545.838H1388.06V559.842ZM1402.04 554.842L1401.98 555.604H1393.68C1393.68 556.202 1393.92 556.717 1394.4 557.146C1394.86 557.583 1395.53 557.801 1396.4 557.801C1396.89 557.801 1397.34 557.716 1397.73 557.547C1398.1 557.378 1398.34 557.208 1398.46 557.039L1398.64 556.805H1401.8C1401.79 556.896 1401.76 557.01 1401.71 557.146C1401.66 557.309 1401.52 557.566 1401.28 557.918C1401.03 558.302 1400.74 558.634 1400.39 558.914C1400.01 559.207 1399.48 559.464 1398.8 559.686C1398.08 559.92 1397.28 560.037 1396.4 560.037C1394.69 560.037 1393.31 559.578 1392.25 558.66C1391.19 557.742 1390.66 556.469 1390.66 554.842C1390.66 553.214 1391.18 551.941 1392.24 551.023C1393.29 550.105 1394.67 549.646 1396.36 549.646C1398.04 549.646 1399.41 550.105 1400.46 551.023C1401.52 551.941 1402.04 553.214 1402.04 554.842ZM1398.3 552.498C1397.84 552.088 1397.19 551.883 1396.36 551.883C1395.53 551.883 1394.88 552.091 1394.43 552.508C1393.96 552.931 1393.72 553.377 1393.72 553.846H1398.98C1398.98 553.364 1398.75 552.915 1398.3 552.498ZM1411.94 552.781H1411.84L1409.88 559.842H1406.02L1403.34 549.842H1406.34L1407.96 557.117H1408.08L1410.1 549.842H1413.68L1415.7 557.117H1415.82L1417.44 549.842H1420.44L1417.76 559.842H1413.9L1411.94 552.781ZM1429.6 554.139V554.9C1429.6 556.463 1430.38 557.244 1431.93 557.244C1433.47 557.244 1434.24 556.463 1434.24 554.9V548.602H1428.9V545.838H1437.39V554.9C1437.39 556.58 1436.93 557.856 1436.01 558.729C1435.08 559.601 1433.72 560.037 1431.93 560.037C1430.13 560.037 1428.76 559.601 1427.83 558.729C1426.9 557.856 1426.44 556.58 1426.44 554.9V554.139H1429.6ZM1451.28 554.842L1451.22 555.604H1442.92C1442.92 556.202 1443.16 556.717 1443.63 557.146C1444.1 557.583 1444.76 557.801 1445.64 557.801C1446.13 557.801 1446.57 557.716 1446.96 557.547C1447.34 557.378 1447.58 557.208 1447.7 557.039L1447.88 556.805H1451.04C1451.02 556.896 1450.99 557.01 1450.95 557.146C1450.9 557.309 1450.75 557.566 1450.52 557.918C1450.27 558.302 1449.98 558.634 1449.63 558.914C1449.25 559.207 1448.72 559.464 1448.04 559.686C1447.32 559.92 1446.52 560.037 1445.64 560.037C1443.93 560.037 1442.55 559.578 1441.49 558.66C1440.43 557.742 1439.89 556.469 1439.89 554.842C1439.89 553.214 1440.42 551.941 1441.48 551.023C1442.53 550.105 1443.9 549.646 1445.6 549.646C1447.28 549.646 1448.64 550.105 1449.7 551.023C1450.75 551.941 1451.28 553.214 1451.28 554.842ZM1447.54 552.498C1447.08 552.088 1446.43 551.883 1445.6 551.883C1444.76 551.883 1444.12 552.091 1443.66 552.508C1443.2 552.931 1442.96 553.377 1442.96 553.846H1448.21C1448.21 553.364 1447.99 552.915 1447.54 552.498ZM1460.2 549.646L1461.19 549.744V552.918C1460.76 552.716 1460.18 552.618 1459.46 552.625C1458.52 552.625 1457.81 552.885 1457.31 553.406C1456.81 553.94 1456.55 554.611 1456.55 555.418V559.842H1453.67V549.842H1456.55V551.678H1456.72C1456.82 551.443 1456.97 551.209 1457.16 550.975C1457.35 550.734 1457.56 550.525 1457.79 550.35C1458.06 550.154 1458.41 549.988 1458.84 549.852C1459.27 549.715 1459.72 549.646 1460.2 549.646ZM1472.28 552.938H1469.32C1469.32 552.768 1469.3 552.635 1469.27 552.537C1469.24 552.439 1469.17 552.322 1469.05 552.186C1468.83 551.919 1468.25 551.785 1467.32 551.785C1466.08 551.785 1465.46 552.091 1465.46 552.703C1465.46 552.996 1465.71 553.208 1466.21 553.338C1466.69 553.468 1467.3 553.569 1468.03 553.641C1468.8 553.712 1469.52 553.816 1470.17 553.953C1470.87 554.096 1471.48 554.412 1471.98 554.9C1472.49 555.382 1472.74 556.03 1472.74 556.844C1472.74 558.986 1470.99 560.05 1467.49 560.037C1464.03 560.037 1462.3 558.904 1462.3 556.639V556.326H1465.26V556.639C1465.26 557.088 1465.43 557.41 1465.78 557.605C1466.13 557.801 1466.7 557.898 1467.49 557.898C1469 557.898 1469.76 557.56 1469.78 556.883C1469.78 556.59 1469.6 556.362 1469.24 556.199C1468.89 556.049 1468.44 555.949 1467.88 555.896C1467.31 555.857 1466.73 555.786 1466.13 555.682C1465.5 555.571 1464.92 555.434 1464.39 555.271C1463.86 555.109 1463.41 554.803 1463.04 554.354C1462.67 553.911 1462.49 553.354 1462.49 552.684C1462.49 551.694 1462.93 550.939 1463.8 550.418C1464.67 549.904 1465.86 549.646 1467.38 549.646C1470.64 549.64 1472.28 550.737 1472.28 552.938ZM1485.91 554.842L1485.85 555.604H1477.55C1477.55 556.202 1477.79 556.717 1478.26 557.146C1478.73 557.583 1479.39 557.801 1480.27 557.801C1480.76 557.801 1481.2 557.716 1481.59 557.547C1481.96 557.378 1482.21 557.208 1482.33 557.039L1482.51 556.805H1485.67C1485.65 556.896 1485.62 557.01 1485.58 557.146C1485.53 557.309 1485.38 557.566 1485.15 557.918C1484.9 558.302 1484.6 558.634 1484.26 558.914C1483.88 559.207 1483.35 559.464 1482.67 559.686C1481.95 559.92 1481.15 560.037 1480.27 560.037C1478.56 560.037 1477.18 559.578 1476.12 558.66C1475.05 557.742 1474.52 556.469 1474.52 554.842C1474.52 553.214 1475.05 551.941 1476.11 551.023C1477.16 550.105 1478.53 549.646 1480.23 549.646C1481.91 549.646 1483.27 550.105 1484.33 551.023C1485.38 551.941 1485.91 553.214 1485.91 554.842ZM1482.17 552.498C1481.71 552.088 1481.06 551.883 1480.23 551.883C1479.39 551.883 1478.75 552.091 1478.29 552.508C1477.82 552.931 1477.59 553.377 1477.59 553.846H1482.84C1482.84 553.364 1482.62 552.915 1482.17 552.498ZM1486.4 549.842H1489.4L1492.58 556.844H1492.74L1495.35 549.842H1498.31L1494.13 560.037C1493.53 561.482 1492.91 562.511 1492.26 563.123C1491.61 563.735 1490.75 564.041 1489.7 564.041C1489.5 564.041 1489.24 564.025 1488.93 563.992C1488.67 563.966 1488.44 563.93 1488.25 563.885L1488 563.846V561.326C1488.37 561.495 1488.86 561.574 1489.46 561.561C1489.92 561.561 1490.28 561.456 1490.53 561.248C1490.78 561.027 1491.02 560.623 1491.25 560.037L1486.4 549.842Z" fill="#272727"/>
<path d="M1376.42 576.33L1373.72 578.457V576.55L1376.57 574.238H1378.12V586.842H1376.42V576.33ZM1395.77 586.842H1393.71L1391.44 579.679H1391.36L1389.09 586.842H1387.03L1384.42 578.018H1385.98L1388.06 585.146H1388.13L1390.39 578.018H1392.41L1394.67 585.146H1394.75L1396.82 578.018H1398.38L1395.77 586.842ZM1399.75 584.372C1399.75 583.47 1400.13 582.802 1400.9 582.368C1401.66 581.94 1402.64 581.727 1403.83 581.727C1404.44 581.727 1405 581.8 1405.52 581.946C1406.06 582.099 1406.44 582.242 1406.65 582.377L1407 582.597V581.208C1407 580.61 1406.78 580.142 1406.34 579.802C1405.9 579.456 1405.24 579.283 1404.35 579.283C1402.59 579.283 1401.71 579.764 1401.71 580.725H1400.16C1400.16 579.752 1400.56 579.028 1401.34 578.554C1402.12 578.079 1403.13 577.842 1404.35 577.842C1405.58 577.842 1406.59 578.129 1407.37 578.703C1408.14 579.283 1408.54 580.118 1408.54 581.208V584.416C1408.54 584.861 1408.6 585.172 1408.72 585.348C1408.84 585.518 1409.03 585.603 1409.3 585.603C1409.53 585.603 1409.69 585.57 1409.76 585.506L1409.8 585.488V586.877C1409.62 586.971 1409.35 587.018 1409.01 587.018C1408.42 587.018 1407.99 586.892 1407.71 586.64C1407.49 586.452 1407.32 586.256 1407.22 586.051L1407.17 585.945H1407.1C1406.96 586.092 1406.81 586.215 1406.65 586.314C1406.47 586.438 1406.27 586.546 1406.06 586.64C1405.48 586.892 1404.78 587.018 1403.96 587.018C1402.71 587.018 1401.69 586.804 1400.91 586.376C1400.13 585.954 1399.75 585.286 1399.75 584.372ZM1404.18 583.168C1402.28 583.168 1401.33 583.569 1401.33 584.372C1401.33 585.181 1402.28 585.585 1404.18 585.585C1404.75 585.585 1405.26 585.523 1405.72 585.4C1406.18 585.289 1406.49 585.184 1406.66 585.084C1406.82 585.002 1406.93 584.929 1407 584.864V583.854C1406.93 583.789 1406.82 583.716 1406.66 583.634C1406.46 583.54 1406.15 583.44 1405.73 583.335C1405.28 583.224 1404.76 583.168 1404.18 583.168ZM1416.39 577.842C1416.74 577.842 1417.05 577.877 1417.32 577.947L1417.45 577.965V579.661C1417.11 579.544 1416.67 579.482 1416.12 579.477C1415.17 579.477 1414.42 579.778 1413.88 580.382C1413.33 580.985 1413.06 581.741 1413.06 582.649V586.842H1411.51V578.018H1413.06V579.731H1413.15C1413.24 579.544 1413.38 579.324 1413.58 579.072C1413.76 578.85 1413.96 578.656 1414.19 578.492C1414.44 578.316 1414.76 578.164 1415.15 578.035C1415.55 577.906 1415.96 577.842 1416.39 577.842ZM1428.28 582.43L1428.23 583.168H1420.26C1420.26 583.672 1420.56 584.199 1421.16 584.75C1421.75 585.307 1422.54 585.585 1423.54 585.585C1424.27 585.585 1424.87 585.447 1425.34 585.172C1425.73 584.938 1426 584.727 1426.15 584.539L1426.22 584.416H1428.04C1428 584.504 1427.96 584.595 1427.92 584.688C1427.85 584.823 1427.7 585.031 1427.49 585.312C1427.26 585.611 1427 585.878 1426.69 586.112C1426.4 586.341 1425.97 586.549 1425.4 586.736C1424.86 586.924 1424.24 587.018 1423.54 587.018C1422.08 587.018 1420.89 586.602 1419.99 585.77C1419.07 584.938 1418.61 583.824 1418.61 582.43C1418.61 581.047 1419.06 579.937 1419.98 579.099C1420.89 578.261 1422.04 577.842 1423.45 577.842C1424.84 577.842 1426 578.261 1426.92 579.099C1427.83 579.937 1428.28 581.047 1428.28 582.43ZM1425.79 580.118C1425.2 579.562 1424.42 579.283 1423.45 579.283C1422.46 579.283 1421.69 579.562 1421.11 580.118C1420.53 580.675 1420.24 581.223 1420.24 581.762H1426.65C1426.65 581.223 1426.36 580.675 1425.79 580.118ZM1439.49 586.842H1437.94V582.289C1437.94 581.258 1437.68 580.499 1437.16 580.013C1436.64 579.526 1435.94 579.283 1435.06 579.283C1434.13 579.283 1433.42 579.559 1432.93 580.109C1432.43 580.66 1432.19 581.387 1432.19 582.289V586.842H1430.64V574.238H1432.19V579.371H1432.27C1432.4 579.172 1432.54 578.993 1432.7 578.835C1432.9 578.659 1433.1 578.504 1433.31 578.369C1433.55 578.223 1433.87 578.1 1434.27 578C1434.67 577.895 1435.08 577.842 1435.52 577.842C1436.65 577.842 1437.6 578.182 1438.36 578.861C1439.11 579.547 1439.49 580.569 1439.49 581.929V586.842ZM1443.11 585.761C1442.2 584.923 1441.74 583.812 1441.74 582.43C1441.74 581.053 1442.2 579.942 1443.11 579.099C1444.02 578.261 1445.18 577.842 1446.58 577.842C1447.98 577.842 1449.13 578.261 1450.05 579.099C1450.96 579.942 1451.42 581.053 1451.42 582.43C1451.42 583.812 1450.96 584.923 1450.05 585.761C1449.13 586.599 1447.98 587.018 1446.58 587.018C1445.18 587.018 1444.02 586.599 1443.11 585.761ZM1448.95 584.697C1449.54 584.105 1449.83 583.35 1449.83 582.43C1449.83 581.51 1449.54 580.754 1448.95 580.162C1448.35 579.576 1447.57 579.283 1446.58 579.283C1445.59 579.283 1444.8 579.576 1444.22 580.162C1443.62 580.748 1443.32 581.504 1443.32 582.43C1443.32 583.355 1443.62 584.111 1444.22 584.697C1444.81 585.289 1445.6 585.585 1446.58 585.585C1447.55 585.585 1448.34 585.289 1448.95 584.697ZM1453.77 578.018H1455.32V582.579C1455.32 583.61 1455.58 584.369 1456.1 584.855C1456.62 585.342 1457.32 585.585 1458.19 585.585C1459.11 585.585 1459.82 585.307 1460.33 584.75C1460.83 584.199 1461.08 583.476 1461.08 582.579V578.018H1462.62V586.842H1461.08V585.488H1460.99C1460.87 585.676 1460.73 585.854 1460.56 586.024C1460.36 586.206 1460.16 586.361 1459.95 586.49C1459.71 586.643 1459.39 586.769 1458.99 586.868C1458.59 586.968 1458.18 587.018 1457.74 587.018C1456.6 587.018 1455.65 586.675 1454.91 585.989C1454.15 585.315 1453.77 584.299 1453.77 582.939V578.018ZM1471.97 584.231C1471.97 583.886 1471.81 583.619 1471.47 583.432C1471.13 583.238 1470.71 583.13 1470.22 583.106C1469.71 583.077 1469.16 583.024 1468.57 582.948C1467.94 582.872 1467.39 582.781 1466.92 582.676C1466.42 582.57 1466 582.333 1465.66 581.964C1465.32 581.601 1465.15 581.114 1465.15 580.505C1465.15 579.62 1465.53 578.952 1466.29 578.501C1467.04 578.062 1468.02 577.842 1469.22 577.842C1470.44 577.842 1471.43 578.088 1472.18 578.58C1472.92 579.072 1473.29 579.846 1473.29 580.9H1471.71C1471.71 580.35 1471.51 579.942 1471.11 579.679C1470.72 579.415 1470.09 579.283 1469.22 579.283C1467.56 579.283 1466.74 579.69 1466.74 580.505C1466.74 580.839 1466.91 581.094 1467.25 581.27C1467.58 581.451 1468 581.554 1468.5 581.577C1468.96 581.601 1469.52 581.65 1470.15 581.727C1470.76 581.809 1471.31 581.905 1471.8 582.017C1472.3 582.14 1472.72 582.386 1473.06 582.755C1473.4 583.136 1473.56 583.628 1473.56 584.231C1473.56 584.888 1473.36 585.433 1472.94 585.866C1472.53 586.294 1472.01 586.593 1471.39 586.763C1470.79 586.933 1470.08 587.018 1469.26 587.018C1467.54 587.018 1466.32 586.596 1465.58 585.752C1465.17 585.271 1464.96 584.674 1464.96 583.959V583.678H1466.54V583.959C1466.54 585.037 1467.45 585.576 1469.26 585.576C1471.07 585.588 1471.97 585.14 1471.97 584.231ZM1485.22 582.43L1485.17 583.168H1477.19C1477.19 583.672 1477.49 584.199 1478.09 584.75C1478.68 585.307 1479.48 585.585 1480.47 585.585C1481.21 585.585 1481.81 585.447 1482.27 585.172C1482.66 584.938 1482.93 584.727 1483.08 584.539L1483.15 584.416H1484.97C1484.94 584.504 1484.9 584.595 1484.86 584.688C1484.78 584.823 1484.64 585.031 1484.43 585.312C1484.2 585.611 1483.93 585.878 1483.63 586.112C1483.33 586.341 1482.9 586.549 1482.34 586.736C1481.8 586.924 1481.18 587.018 1480.47 587.018C1479.01 587.018 1477.83 586.602 1476.92 585.77C1476 584.938 1475.54 583.824 1475.54 582.43C1475.54 581.047 1476 579.937 1476.91 579.099C1477.82 578.261 1478.98 577.842 1480.38 577.842C1481.78 577.842 1482.94 578.261 1483.86 579.099C1484.76 579.937 1485.22 581.047 1485.22 582.43ZM1482.72 580.118C1482.14 579.562 1481.36 579.283 1480.38 579.283C1479.4 579.283 1478.62 579.562 1478.05 580.118C1477.47 580.675 1477.18 581.223 1477.18 581.762H1483.58C1483.58 581.223 1483.3 580.675 1482.72 580.118ZM1494.11 577.666V578.018H1496.7V579.424H1494.11V586.842H1492.56V579.424H1491.08V578.562L1492.56 578.018V577.464C1492.56 576.333 1492.87 575.483 1493.51 574.915C1494.13 574.347 1494.98 574.062 1496.06 574.062C1496.37 574.062 1496.69 574.104 1497 574.186C1497.32 574.273 1497.56 574.353 1497.71 574.423L1497.93 574.546V575.935C1497.54 575.589 1497 575.416 1496.32 575.416C1495.59 575.416 1495.04 575.592 1494.67 575.943C1494.3 576.289 1494.11 576.863 1494.11 577.666ZM1499.55 585.761C1498.64 584.923 1498.18 583.812 1498.18 582.43C1498.18 581.053 1498.64 579.942 1499.55 579.099C1500.46 578.261 1501.62 577.842 1503.03 577.842C1504.42 577.842 1505.58 578.261 1506.5 579.099C1507.41 579.942 1507.86 581.053 1507.86 582.43C1507.86 583.812 1507.41 584.923 1506.5 585.761C1505.58 586.599 1504.42 587.018 1503.03 587.018C1501.62 587.018 1500.46 586.599 1499.55 585.761ZM1505.39 584.697C1505.98 584.105 1506.28 583.35 1506.28 582.43C1506.28 581.51 1505.98 580.754 1505.39 580.162C1504.8 579.576 1504.01 579.283 1503.03 579.283C1502.04 579.283 1501.25 579.576 1500.66 580.162C1500.06 580.748 1499.76 581.504 1499.76 582.43C1499.76 583.355 1500.06 584.111 1500.66 584.697C1501.25 585.289 1502.04 585.585 1503.03 585.585C1504 585.585 1504.79 585.289 1505.39 584.697ZM1510.21 578.018H1511.76V582.579C1511.76 583.61 1512.02 584.369 1512.54 584.855C1513.07 585.342 1513.76 585.585 1514.64 585.585C1515.56 585.585 1516.27 585.307 1516.77 584.75C1517.27 584.199 1517.52 583.476 1517.52 582.579V578.018H1519.07V586.842H1517.52V585.488H1517.43C1517.31 585.676 1517.17 585.854 1517 586.024C1516.81 586.206 1516.6 586.361 1516.39 586.49C1516.15 586.643 1515.83 586.769 1515.44 586.868C1515.04 586.968 1514.62 587.018 1514.19 587.018C1513.04 587.018 1512.09 586.675 1511.35 585.989C1510.59 585.315 1510.21 584.299 1510.21 582.939V578.018ZM1530.61 586.842H1529.07V582.289C1529.07 581.258 1528.81 580.499 1528.29 580.013C1527.76 579.526 1527.06 579.283 1526.18 579.283C1525.26 579.283 1524.55 579.559 1524.06 580.109C1523.56 580.66 1523.31 581.387 1523.31 582.289V586.842H1521.76V578.018H1523.31V579.371H1523.4C1523.52 579.172 1523.67 578.993 1523.83 578.835C1524.02 578.659 1524.22 578.504 1524.44 578.369C1524.68 578.223 1525 578.1 1525.39 578C1525.79 577.895 1526.21 577.842 1526.64 577.842C1527.78 577.842 1528.73 578.182 1529.49 578.861C1530.24 579.547 1530.61 580.569 1530.61 581.929V586.842ZM1540.99 574.238H1542.54V586.842H1540.99V585.523H1540.92C1540.83 585.676 1540.66 585.852 1540.42 586.051C1540.22 586.215 1540 586.364 1539.76 586.499C1539.51 586.64 1539.18 586.76 1538.77 586.859C1538.37 586.965 1537.96 587.018 1537.54 587.018C1536.21 587.018 1535.1 586.596 1534.21 585.752C1533.31 584.908 1532.86 583.801 1532.86 582.43C1532.86 581.07 1533.31 579.963 1534.21 579.107C1535.1 578.264 1536.21 577.842 1537.54 577.842C1538.25 577.842 1538.89 577.968 1539.45 578.22C1540 578.472 1540.39 578.718 1540.62 578.958L1540.92 579.336H1540.99V574.238ZM1535.34 580.171C1534.75 580.769 1534.45 581.521 1534.45 582.43C1534.45 583.344 1534.75 584.097 1535.34 584.688C1535.93 585.286 1536.73 585.585 1537.72 585.585C1538.72 585.585 1539.51 585.286 1540.11 584.688C1540.7 584.097 1540.99 583.344 1540.99 582.43C1540.99 581.492 1540.69 580.733 1540.09 580.153C1539.49 579.573 1538.7 579.283 1537.72 579.283C1536.73 579.283 1535.93 579.579 1535.34 580.171Z" fill="#436AE5"/>
</g>
<defs>
<filter id="filter0_d_5_65958" x="1651.77" y="525.319" width="81.0938" height="81.0908" filterUnits="userSpaceOnUse" color-interpolation-filters="sRGB">
<feFlood flood-opacity="0" result="BackgroundImageFix"/>
<feColorMatrix in="SourceAlpha" type="matrix" values="0 0 0 0 0 0 0 0 0 0 0 0 0 0 0 0 0 0 127 0" result="hardAlpha"/>
<feOffset dy="10"/>
<feGaussianBlur stdDeviation="10"/>
<feComposite in2="hardAlpha" operator="out"/>
<feColorMatrix type="matrix" values="0 0 0 0 0.246875 0 0 0 0 0.367998 0 0 0 0 0.75 0 0 0 0.7 0"/>
<feBlend mode="normal" in2="BackgroundImageFix" result="effect1_dropShadow_5_65958"/>
<feBlend mode="normal" in="SourceGraphic" in2="effect1_dropShadow_5_65958" result="shape"/>
</filter>
<filter id="filter1_d_5_65958" x="1302" y="488.842" width="364" height="184" filterUnits="userSpaceOnUse" color-interpolation-filters="sRGB">
<feFlood flood-opacity="0" result="BackgroundImageFix"/>
<feColorMatrix in="SourceAlpha" type="matrix" values="0 0 0 0 0 0 0 0 0 0 0 0 0 0 0 0 0 0 127 0" result="hardAlpha"/>
<feOffset dy="14"/>
<feGaussianBlur stdDeviation="20"/>
<feComposite in2="hardAlpha" operator="out"/>
<feColorMatrix type="matrix" values="0 0 0 0 0.0437383 0 0 0 0 0.109346 0 0 0 0 0.316262 0 0 0 0.2 0"/>
<feBlend mode="normal" in2="BackgroundImageFix" result="effect1_dropShadow_5_65958"/>
<feBlend mode="normal" in="SourceGraphic" in2="effect1_dropShadow_5_65958" result="shape"/>
</filter>
<clipPath id="clip0_5_65958">
<rect width="1920" height="1023" fill="white" transform="translate(0 0.841797)"/>
</clipPath>
<clipPath id="clip1_5_65958">
<rect width="2549" height="1687" fill="white" transform="translate(-230 -663.158)"/>
</clipPath>
</defs>
</svg>
