<svg width="1920" height="1024" viewBox="0 0 1920 1024" fill="none" xmlns="http://www.w3.org/2000/svg">
<g clip-path="url(#clip0_5_67696)">
<rect width="1920" height="1023" transform="translate(0 0.841797)" fill="#F1F4FF"/>
<g clip-path="url(#clip1_5_67696)">
<g clip-path="url(#clip2_5_67696)">
<path d="M1191.63 1484.37L1113.31 1475.04C1113.67 1485.72 1113.24 1496.41 1112.02 1507.02C1109.22 1505.62 1106.15 1504.86 1103.02 1504.81C1066.82 1501.69 1031.32 1495.61 995.204 1492.11C977.54 1490.4 959.626 1492.36 943.92 1483.16C910.593 1463.63 878.723 1440.6 846.311 1419.49C827.19 1407 806.984 1396.01 788.321 1383.22C786.654 1382.06 775.823 1367.98 779.114 1368.48C742.398 1362.93 705.543 1358.43 668.549 1354.99C666.797 1348.65 665.557 1342.17 664.841 1335.63L660.675 1340.38C656.217 1339.29 657.217 1332.76 658.175 1328.26C660.092 1318.81 656.759 1309.15 653.426 1300.11C648.594 1286.78 642.22 1271.92 628.847 1267.34C624.014 1265.72 617.89 1265.01 615.849 1260.34C614.391 1257.14 615.849 1253.22 614.558 1249.89C612.6 1243.94 604.934 1242.9 599.102 1240.69C587.104 1236.23 579.98 1224.32 572.981 1213.67C570.4 1209.15 566.894 1205.23 562.691 1202.17C557.418 1199.39 551.664 1197.64 545.736 1197.01C532.904 1194.51 518.407 1187.85 516.282 1174.94C514.907 1166.61 519.323 1158.28 519.99 1149.96C520.226 1145.35 519.706 1140.74 518.448 1136.3C515.563 1125.01 510.293 1114.48 502.992 1105.4C500.508 1102.68 498.38 1099.66 496.66 1096.41C495.113 1091.24 494.012 1085.94 493.369 1080.58C491.494 1073.13 486.62 1066.88 483.079 1060.1C479.538 1053.31 477.288 1044.86 480.913 1038.11C483.261 1035.03 485.272 1031.71 486.912 1028.2C488.87 1020.71 481.496 1014.5 476.164 1008.92C471.458 1003.95 467.86 998.044 465.605 991.585C463.351 985.125 462.491 978.261 463.082 971.446C463.707 964.492 465.374 963.784 471.956 963.951C472.539 964.045 473.136 963.911 473.622 963.576C474.018 963.082 474.211 962.457 474.164 961.827L474.539 945.462C474.872 932.97 466.207 943.963 461.583 946.587C456.241 942.145 452.484 936.091 450.877 929.334C449.269 922.577 449.898 915.481 452.667 909.111C455.917 902.074 446.293 895.744 442.169 889.207C429.421 868.845 436.337 842.653 439.628 818.877C440.732 812.806 440.732 806.585 439.628 800.514C437.795 792.186 432.629 785.315 428.88 777.778C425.13 770.242 422.881 761.122 427.005 753.669C431.129 746.215 440.586 743.051 444.377 735.514C448.168 727.977 445.169 718.65 447.96 710.53C450.543 703.409 457.667 698.038 457.667 690.251C457.667 685.213 454.417 680.674 454 675.636C453.501 669.223 457.625 663.352 458.875 657.023C459.396 652.415 459.396 647.764 458.875 643.156C458.472 632.232 460.492 621.354 464.79 611.302C467.957 604.015 466.124 599.476 469.248 592.148C475.122 578.573 482.871 565.914 490.078 552.964C509.468 517.726 524.226 480.134 533.987 441.12C534.867 435.906 536.902 430.954 539.945 426.629C541.499 424.488 543.738 422.942 546.29 422.245C548.843 421.549 551.557 421.744 553.984 422.798C552.967 419.071 550.916 415.708 548.068 413.096C545.652 410.098 543.902 405.517 546.485 402.603C548.235 400.604 551.36 400.312 553.068 398.439C557.984 392.776 546.527 384.614 549.152 377.619C550.401 374.329 554.609 372.206 554.401 368.666C554.401 365.876 551.276 364.169 549.902 361.712C549.02 359.866 548.564 357.845 548.568 355.799L545.444 309.704C544.902 301.376 546.694 289.717 555.192 288.884C558.134 288.94 561.009 289.773 563.524 291.299L613.933 315.992C617.339 317.379 620.407 319.48 622.931 322.154C624.17 323.521 624.942 325.245 625.137 327.079C625.331 328.912 624.938 330.76 624.014 332.356C621.39 336.02 614.891 337.145 614.849 341.683C614.849 346.972 622.556 347.929 623.181 352.843C624.181 359.214 615.849 364.127 610.392 364.211C607.684 364.211 604.476 363.669 602.643 365.71C601.797 366.759 601.34 368.068 601.351 369.416C600.893 375.37 605.267 382.366 611.183 381.45C612.938 381.044 614.595 380.294 616.057 379.243C621.057 375.953 628.93 371.414 631.138 365.751C633.679 359.339 628.847 352.01 633.096 345.348C636.012 340.767 642.011 338.186 643.22 332.856C645.094 324.528 633.679 317.782 635.304 309.454C636.096 305.29 639.762 302.542 640.97 298.628C644.219 287.801 627.597 276.642 633.638 267.065C792.404 323.945 957.752 354.967 1123.85 384.323C1179.34 394.15 1234.96 403.685 1291.16 407.766C1336.02 411.014 1381.06 410.806 1426.01 410.598L1587.4 409.848C1609.31 409.848 1631.22 410.556 1653.1 410.389C1668.68 410.389 1701.76 415.178 1709.88 397.273C1710.9 394.113 1712.1 391.013 1713.46 387.987C1714.2 386.497 1715.44 385.316 1716.96 384.652C1718.49 383.989 1720.2 383.887 1721.79 384.364C1724.63 385.738 1725.29 389.32 1725.96 392.359C1728 403.769 1732.42 422.84 1747.58 419.675C1752.91 418.551 1758.66 416.344 1763.49 418.801C1768.33 421.257 1772.58 428.336 1777.41 425.754C1779.7 424.547 1780.74 421.59 1783.24 420.758C1786.57 419.842 1789.07 423.714 1792.2 425.255C1799.32 428.836 1805.74 419.8 1812.03 414.886C1812.44 414.493 1812.92 414.186 1813.45 413.986C1813.98 413.785 1814.55 413.695 1815.11 413.721C1816.61 413.97 1817.4 415.594 1817.94 416.968L1825.82 436.414C1825.15 431.542 1832.73 430.127 1836.98 432.583C1841.23 435.04 1845.02 439.412 1849.9 439.038C1852.19 438.829 1854.65 437.663 1856.56 439.038C1858.48 440.412 1858.23 443.951 1859.9 445.95C1862.6 449.198 1867.85 445.95 1870.39 442.785C1872.94 439.621 1876.35 435.165 1880.39 436.498C1882.43 437.164 1883.73 439.162 1885.31 440.662C1891.52 446.366 1901.22 443.951 1909.43 442.036C1917.64 440.12 1928.47 440.328 1931.76 448.032C1930.84 454.986 1923.43 460.191 1917.34 463.397C1910.92 466.19 1904.71 469.447 1898.76 473.141C1894.26 476.708 1890.3 480.917 1887.02 485.633L1850.02 533.269C1852.06 536.891 1857.35 536.517 1861.35 535.351C1871.45 532.488 1880.98 527.94 1889.56 521.901C1892.81 519.652 1897.89 517.446 1900.06 520.777C1903.43 525.982 1895.89 531.478 1897.89 535.767C1900.39 541.347 1914.14 538.765 1919.01 537.474C1930.8 534.31 1933.88 521.36 1945.88 519.07C1948.38 518.57 1951.26 518.736 1952.96 516.863C1954.67 514.989 1954.42 512.907 1955.42 511.033C1956.67 509.289 1958.31 507.863 1960.21 506.869C1970.29 499.998 1977.67 489.922 1986.42 481.427C1995.17 472.932 2006.62 465.687 2018.74 466.978C2020.16 472.808 2016.04 478.554 2011.33 482.26C2006.21 485.405 2001.53 489.214 1997.42 493.586C1995 496.875 1993.25 504.329 1997.21 507.285C2001.16 510.242 2004.62 505.453 2008.04 503.871C2010.64 502.886 2013.45 502.557 2016.21 502.913C2018.97 503.269 2021.6 504.298 2023.87 505.911C2027.24 508.77 2030.44 511.829 2033.45 515.072C2037.49 518.557 2042.41 520.881 2047.67 521.798C2052.93 522.714 2058.34 522.189 2063.32 520.277C2069.07 523.567 2072.61 522.526 2077.69 518.278C2080.61 515.822 2082.61 512.449 2085.4 509.95C2088.68 507.255 2092.38 505.117 2096.36 503.621L2125.52 490.838C2126.63 490.167 2127.96 489.944 2129.23 490.213C2133.39 491.67 2128.52 498.833 2129.98 501.914C2131.43 504.995 2135.56 505.37 2136.89 508.285C2137.29 509.636 2137.49 511.039 2137.48 512.449C2137.47 513.154 2137.67 513.847 2138.04 514.449C2138.4 515.052 2138.93 515.541 2139.56 515.863C2142.93 516.987 2151.35 509.492 2154.76 508.493C2165.68 505.328 2175.34 515.988 2181.76 525.399C2181.51 530.354 2174.01 530.104 2169.26 528.189C2164.51 526.273 2157.26 525.774 2156.76 530.729C2156.76 532.686 2157.81 534.893 2157.06 536.517C2155.81 539.307 2151.64 538.349 2148.72 536.933C2139.89 532.311 2128.52 528.105 2120.69 534.226C2116.52 537.516 2114.4 543.179 2109.86 546.011C2106.11 548.384 2101.15 548.467 2097.57 551.132C2094.4 554.362 2092.04 558.282 2090.65 562.583C2088.65 566.747 2084.94 570.911 2080.48 570.078C2080.48 567.497 2083.86 561.959 2081.69 559.793C2079.53 557.628 2074.28 560.251 2073.36 562.208C2068.24 573.285 2066.61 559.668 2062.15 558.044C2057.7 556.421 2058.32 561.792 2058.57 564.707C2059.22 568.524 2059.04 572.435 2058.05 576.177C2057.06 579.919 2055.28 583.405 2052.82 586.401C2049.24 590.565 2044.16 594.313 2043.07 599.809C2042.89 603.311 2043.01 606.823 2043.45 610.303C2043.45 622.087 2030.95 631.123 2030.95 642.782C2030.88 643.684 2031 644.592 2031.3 645.445C2031.6 646.299 2032.08 647.08 2032.7 647.737C2035.62 650.277 2040.12 647.445 2042.37 644.322C2049.11 634.995 2050.11 622.795 2054.86 612.426C2056.7 608.595 2059.74 604.598 2063.99 604.515C2073.44 604.515 2064.74 631.456 2063.07 636.203C2060.44 641.769 2059.02 647.828 2058.91 653.983C2059.39 656.737 2059.71 659.518 2059.86 662.311C2059.57 669.598 2052.41 675.719 2053.49 683.131C2053.82 685.379 2054.99 687.295 2055.36 689.71C2055.5 694.365 2054.4 698.974 2052.2 703.076C2049.87 709.428 2048.93 716.202 2049.44 722.946C2049.95 729.69 2051.9 736.246 2055.16 742.176C2056.7 744.573 2058.01 747.11 2059.07 749.755C2061.07 755.668 2059.07 762.247 2059.07 768.326C2059.61 776.734 2061.76 784.961 2065.4 792.561C2068.7 800.889 2072.44 809.466 2080.07 813.964C2081.67 814.994 2083.5 815.596 2085.4 815.712C2087.55 815.691 2089.65 815.133 2091.52 814.088C2103.27 807.735 2112.1 797.078 2116.15 784.358C2120.08 771.741 2122.36 758.668 2122.94 745.466C2123.89 734.806 2124.73 723.605 2120.4 713.861C2117.35 708.285 2114.03 702.865 2110.44 697.622C2104.63 686.226 2101.94 673.498 2102.65 660.729C2102.65 648.028 2104.56 635.37 2104.61 622.67C2104.31 618.957 2104.8 615.224 2106.06 611.718C2109.02 605.306 2117.31 602.266 2119.48 595.562C2120.31 593.064 2121.73 589.358 2124.1 590.44C2124.56 590.757 2124.94 591.172 2125.21 591.655C2125.49 592.138 2125.65 592.676 2125.69 593.23C2125.9 596.538 2126.38 599.823 2127.1 603.057C2128.19 606.18 2131.27 609.053 2134.56 608.137C2135.4 607.839 2136.17 607.365 2136.82 606.748C2137.46 606.131 2137.97 605.384 2138.31 604.556C2140.31 600.101 2138.68 594.979 2137.93 590.149C2137.18 585.319 2138.18 579.239 2142.77 577.657C2144.68 576.949 2146.93 577.199 2148.77 576.533C2150.6 575.866 2152.35 573.493 2151.14 571.869C2149.93 570.245 2148.85 570.703 2147.6 570.287C2142.43 568.621 2141.27 561.209 2144.1 556.587C2147.85 550.466 2157.14 545.095 2164.1 548.509C2168.26 550.591 2171.72 554.297 2176.22 555.754C2179.45 556.534 2182.77 556.856 2186.09 556.712C2192.42 556.888 2198.66 558.17 2204.55 560.501C2205.67 560.878 2206.72 561.457 2207.63 562.208C2208.71 563.208 2209.42 564.665 2210.8 565.248C2212.92 566.123 2215.34 564.374 2217.55 564.998C2220.55 565.831 2220.71 570.12 2219.46 572.993C2218.21 575.866 2216.25 578.823 2217.13 581.821C2217.8 583.409 2218.81 584.831 2220.09 585.985C2224.48 590.982 2227.42 597.085 2228.58 603.633C2229.75 610.18 2229.1 616.922 2226.71 623.128C2224.81 626.68 2223.41 630.477 2222.54 634.412C2222.13 638.243 2223.29 642.407 2221.5 645.78C2219.71 649.153 2214.84 650.818 2212.17 654.108C2210.68 656.005 2209.98 658.409 2210.23 660.811C2210.48 663.213 2211.65 665.424 2213.5 666.975C2214.48 667.668 2215.59 668.143 2216.77 668.367C2217.94 668.592 2219.15 668.561 2220.32 668.276C2221.48 667.992 2222.56 667.461 2223.5 666.719C2224.44 665.977 2225.21 665.041 2225.75 663.976L2231.5 651.068C2232.97 647.176 2234.87 643.46 2237.17 639.992C2239.52 636.503 2243.11 634.033 2247.21 633.08C2249.05 632.798 2250.93 632.94 2252.7 633.496C2254.48 634.052 2256.11 635.006 2257.46 636.286C2259.38 638.444 2260.9 640.926 2261.96 643.615C2264.95 650.027 2267.91 656.44 2270.91 662.894C2276.91 675.927 2283.41 689.377 2283.74 703.701C2284 705.442 2283.82 707.22 2283.22 708.876C2282.63 710.532 2281.63 712.015 2280.33 713.195C2278.59 714.022 2276.76 714.637 2274.87 715.027C2267.37 717.609 2264.75 726.978 2265.08 734.889C2265.41 742.801 2267.58 750.962 2265.08 758.458C2262.58 765.953 2248.79 777.529 2257.29 784.691C2260.69 787.054 2264.87 788.009 2268.95 787.356C2272.99 786.726 2277.08 786.53 2281.16 786.773C2281.64 786.792 2282.12 786.922 2282.54 787.153C2282.97 787.384 2283.34 787.71 2283.62 788.105C2284.12 788.98 2283.62 790.104 2283.62 791.103C2283.85 792.169 2284.49 793.102 2285.4 793.702C2286.31 794.301 2287.42 794.519 2288.49 794.309C2299.78 792.894 2306.57 777.654 2317.36 773.823C2324.32 771.408 2331.94 770.283 2337.94 765.953C2345.61 760.373 2349.11 750.587 2356.36 744.425C2361.77 739.844 2368.85 737.679 2374.94 734.056C2389.31 725.52 2397.52 709.697 2409.6 698.163C2416.47 691.542 2424.68 686.295 2430.43 678.759C2436.18 671.222 2439.22 660.187 2434.05 652.192C2430.3 646.446 2422.55 641.366 2424.76 634.87C2425.68 633.155 2426.96 631.655 2428.5 630.47C2430.04 629.286 2431.82 628.443 2433.72 628L2450.84 621.462C2454.92 619.634 2459.27 618.48 2463.71 618.048C2467.55 618.048 2471.38 618.839 2475.21 618.922C2488.58 619.255 2499.25 609.969 2509.54 602.724C2518.83 596.187 2547.28 589.691 2535.74 573.993C2534.07 572.27 2532.67 570.304 2531.58 568.163C2529.54 562.333 2536.41 554.588 2531.58 550.508C2528.29 547.593 2522.58 550.508 2519.08 548.009C2517.87 546.942 2517.06 545.495 2516.78 543.907C2516.5 542.318 2516.77 540.681 2517.54 539.265C2520.83 532.144 2527.99 528.064 2531.12 520.652C2534.24 513.24 2534.79 503.996 2538.45 496.417C2541.74 490.54 2545.76 485.098 2550.41 480.219C2556.82 472.516 2562.61 463.855 2571.24 458.941C2576.74 456.218 2582.54 454.149 2588.53 452.779C2604.11 448.198 2618.9 441.786 2634.35 437.663C2652.62 432.39 2670.46 425.736 2687.72 417.76C2701.09 411.847 2695.09 404.018 2700.97 394.316C2703.84 389.653 2709.3 388.32 2713.46 384.739C2720.38 378.243 2715.38 377.577 2715.3 370.582C2715.21 363.586 2719.71 358.339 2721.84 351.677C2724.1 343.755 2724.87 335.479 2724.09 327.276C2723.21 314.784 2720.26 302.292 2719.92 289.467C2719.51 271.603 2724.42 254.115 2729.3 236.917C2729.96 234.544 2731 231.837 2733.46 231.213C2739.96 229.464 2740.96 244.662 2747.46 243.122C2748.18 242.898 2748.84 242.532 2749.41 242.046C2749.99 241.559 2750.46 240.962 2750.79 240.29C2753.42 236.126 2755.46 229.172 2760.42 230.088C2761.5 230.088 2762.5 230.921 2763.62 231.005C2769.04 231.504 2768.62 221.719 2773.45 219.22C2774.66 218.692 2775.98 218.491 2777.29 218.637C2791.08 219.22 2801.2 232.129 2805.78 245.12C2810.37 258.112 2811.57 272.353 2817.91 284.595C2818.91 287.021 2820.41 289.211 2822.32 291.025C2824.22 292.839 2826.47 294.237 2828.95 295.13C2830.72 295.386 2832.47 295.833 2834.15 296.462C2839.03 298.836 2838.65 306.04 2841.94 310.37C2845 313.424 2848.83 315.597 2853.03 316.658C2860.39 319.701 2866.76 324.75 2871.4 331.232C2872.96 333.312 2874.15 335.652 2874.9 338.144C2875.86 342.46 2875.3 346.976 2873.31 350.928C2867.86 362.795 2854.73 369.582 2848.69 381.158C2847.77 383.68 2846.17 385.898 2844.07 387.571C2841.74 388.903 2837.86 387.571 2838.19 384.822C2835.07 384.822 2832.95 388.195 2832.36 391.318C2832.14 394.448 2831.6 397.546 2830.74 400.562C2829.45 403.435 2825.74 405.684 2823.16 403.852C2820.57 402.02 2821.03 399.688 2819.53 397.731C2818.9 397.074 2818.11 396.587 2817.25 396.314C2816.38 396.042 2815.45 395.992 2814.56 396.171C2813.67 396.349 2812.83 396.75 2812.14 397.335C2811.44 397.921 2810.9 398.673 2810.57 399.521C2810.24 402.026 2810.65 404.572 2811.74 406.85C2812.87 411.105 2813.1 415.547 2812.42 419.897C2811.75 424.246 2810.18 428.409 2807.82 432.125C2803.04 439.524 2796.77 445.848 2789.41 450.697C2785.84 452.638 2782.88 455.518 2780.83 459.025C2779.88 463.122 2779.37 467.311 2779.33 471.517C2777.83 479.303 2770.71 484.966 2768.58 492.628C2766.75 499.082 2768.33 505.911 2767.25 512.449C2766.46 517.446 2762.08 524.941 2768.33 528.314C2770.58 529.563 2773.75 529.563 2774.95 531.853C2776.62 535.018 2772.29 538.182 2771.71 541.722C2771.12 545.261 2775.08 548.717 2777.75 551.798C2783.99 559.002 2783.54 570.162 2789.37 577.699C2792.51 581.472 2796.95 583.921 2801.82 584.554C2806.69 585.187 2811.62 583.958 2815.61 581.113C2817.35 579.98 2818.59 578.243 2819.11 576.241C2820.53 569.204 2808.82 564.873 2809.91 557.795C2810.45 554.172 2814.07 552.048 2817.32 550.424C2817.81 550.087 2818.36 549.856 2818.94 549.749C2819.52 549.641 2820.12 549.658 2820.7 549.8C2821.62 550.302 2822.32 551.135 2822.66 552.132C2824.57 556.296 2826.49 560.168 2828.45 564.166C2829.98 566.819 2830.84 569.807 2830.95 572.868C2830.13 577.287 2827.73 581.256 2824.2 584.028L2811.41 596.52C2809.7 598.185 2807.24 600.018 2805.16 598.643C2803.78 597.727 2803.49 595.729 2802.03 594.937C2800.58 594.146 2797.87 595.729 2797.33 597.644C2796.87 599.632 2796.3 601.593 2795.62 603.515C2791.66 610.636 2778.41 604.223 2773.33 610.594C2771.73 613.672 2771.01 617.129 2771.25 620.588C2769.41 638.576 2744.38 642.24 2731.5 649.736C2714.69 659.594 2699.96 672.635 2688.14 688.128C2679.22 699.828 2671.85 714.486 2675.22 728.81C2675.27 729.295 2675.43 729.764 2675.68 730.181C2675.93 730.599 2676.27 730.956 2676.68 731.225C2678.05 731.891 2679.55 730.642 2680.84 729.934C2685.43 727.686 2690.8 732.641 2691.22 737.721C2691.04 742.833 2689.61 747.824 2687.05 752.253C2676.18 777.237 2681.3 807.343 2668.1 831.119C2667.75 831.926 2667.13 832.588 2666.35 832.993C2663.68 834.117 2662.43 829.787 2662.18 826.914C2661.85 824.824 2661.11 822.82 2660 821.02C2658.89 819.22 2657.43 817.66 2655.71 816.431C2653.98 815.202 2652.03 814.328 2649.97 813.862C2647.91 813.395 2645.77 813.345 2643.68 813.714C2643.18 813.75 2642.68 813.888 2642.23 814.118C2641.77 814.348 2641.37 814.666 2641.04 815.054C2640.71 815.441 2640.46 815.891 2640.31 816.375C2640.15 816.86 2640.1 817.371 2640.14 817.878C2640.22 821.238 2641.02 824.542 2642.48 827.567C2643.95 830.592 2646.05 833.266 2648.64 835.408C2653.41 839.872 2658.8 843.63 2664.64 846.568C2670.01 849.607 2666.68 853.605 2666.93 859.767C2668.03 887.934 2662.71 915.982 2651.39 941.798C2648.7 937.672 2647.24 932.868 2647.17 927.945C2647.11 923.021 2648.44 918.18 2651.02 913.983C2653.43 910.193 2656.85 904.988 2653.56 901.907C2650.27 898.826 2643.06 903.698 2638.77 900.866C2632.64 896.702 2640.93 883.585 2634.06 880.962C2632.5 880.614 2630.9 880.516 2629.31 880.671C2627.86 880.534 2626.46 880.087 2625.21 879.359C2623.95 878.631 2622.86 877.64 2622.02 876.454C2621.18 875.267 2620.61 873.913 2620.35 872.485C2620.08 871.057 2620.12 869.588 2620.48 868.179C2621.24 866.76 2621.6 865.163 2621.52 863.557C2620.85 860.517 2616.73 860.392 2613.81 859.393C2607.15 857.227 2605.07 848.566 2606.4 841.696C2607.73 834.825 2611.31 828.371 2611.77 821.417C2611.77 819.127 2610.9 816.045 2608.61 816.254C2607.23 816.254 2606.32 817.794 2605.65 819.002C2598.94 831.078 2592.15 845.776 2598.48 858.06C2601.23 863.348 2606.27 867.762 2606.82 873.717C2607.07 876.965 2605.94 880.587 2607.77 883.294C2610.65 887.458 2619.11 886.833 2619.56 891.872C2619.81 895.12 2616.15 897.243 2615.19 900.2C2613.77 904.863 2618.65 908.528 2622.4 911.859C2626.15 915.19 2628.77 921.769 2624.44 924.018C2620.1 926.266 2613.31 919.854 2609.73 923.476C2607.32 925.933 2609.73 930.305 2612.98 931.804C2616.23 933.303 2619.85 932.97 2622.98 934.469C2626.1 935.968 2628.1 940.674 2625.35 942.797C2624.4 943.505 2623.15 943.714 2622.27 944.505C2619.9 946.753 2622.73 950.584 2625.48 952.375C2628.24 953.793 2630.62 955.866 2632.39 958.412C2632.79 959.064 2633.06 959.79 2633.17 960.546C2633.28 961.302 2633.24 962.073 2633.04 962.813C2632.85 963.552 2632.51 964.244 2632.04 964.848C2631.57 965.451 2630.98 965.953 2630.31 966.324C2626.15 967.781 2620.15 962.451 2617.81 966.324C2617.38 967.096 2617.21 967.986 2617.31 968.864C2617.89 971.039 2619.23 972.935 2621.09 974.204C2622.95 975.473 2625.2 976.031 2627.44 975.776C2631.89 975.131 2636.27 974.072 2640.52 972.612C2642.66 971.912 2644.96 971.806 2647.16 972.304C2649.36 972.803 2651.38 973.888 2653.02 975.443C2659.93 976.692 2662.14 983.355 2660.35 990.142C2659.71 991.801 2659.29 993.537 2659.1 995.305C2659.1 998.761 2662.06 1001.38 2664.1 1004.17C2666.14 1006.96 2666.85 1011.75 2663.72 1013.25C2662.39 1013.88 2660.72 1013.67 2659.56 1014.42C2656.47 1016.21 2657.18 1020.58 2653.77 1022.5C2650.35 1024.41 2647.18 1020.25 2644.64 1024.7C2638.35 1035.9 2632.56 1015 2630.52 1028.87C2629.81 1033.66 2632.73 1044.36 2638.85 1043.32C2644.98 1042.28 2645.1 1031.74 2655.06 1034.78C2658.14 1035.7 2660.76 1038.11 2663.97 1038.4C2668.68 1038.86 2672.3 1034.53 2674.6 1030.32C2675.39 1028.78 2676.26 1027.03 2677.93 1026.58C2680.93 1025.7 2682.97 1029.62 2683.39 1032.74C2684.87 1044.23 2681.89 1055.86 2675.05 1065.22C2672.3 1068.88 2667.51 1072.38 2663.51 1070.22C2661.64 1069.17 2660.51 1067.09 2658.81 1065.8C2657.57 1065.1 2656.16 1064.76 2654.74 1064.82C2653.32 1064.88 2651.95 1065.33 2650.77 1066.14C2649.6 1066.94 2648.68 1068.06 2648.11 1069.36C2647.54 1070.66 2647.35 1072.1 2647.56 1073.51C2647.89 1074.31 2648.09 1075.17 2648.14 1076.05C2647.81 1081.17 2636.52 1076.63 2635.64 1081.67C2635.14 1084.08 2638.19 1085.83 2640.69 1085.83C2643.12 1085.28 2645.62 1085.1 2648.1 1085.29C2649.05 1085.68 2649.91 1086.27 2650.61 1087.03C2651.31 1087.78 2651.84 1088.68 2652.15 1089.66C2652.47 1090.64 2652.57 1091.67 2652.45 1092.7C2652.32 1093.72 2651.98 1094.7 2651.43 1095.57C2650.21 1097.28 2648.6 1098.66 2646.72 1099.6C2644.85 1100.54 2642.78 1101.02 2640.69 1100.99C2639.26 1100.91 2637.84 1101.15 2636.52 1101.7C2632.35 1103.9 2635.94 1110.9 2640.69 1111.11C2645.43 1111.31 2649.02 1107.73 2652.6 1104.74C2656.18 1101.74 2660.93 1098.91 2665.1 1100.78C2667.47 1101.82 2666.6 1102.36 2666.22 1104.94C2665.85 1107.53 2664.39 1109.82 2664.14 1112.4C2664.16 1113.66 2664.04 1114.91 2663.76 1116.14C2663.37 1117.09 2662.73 1117.91 2661.92 1118.53C2661.11 1119.15 2660.15 1119.55 2659.14 1119.68C2657.14 1119.95 2655.12 1120.05 2653.1 1119.98C2648.43 1120.39 2643.92 1121.87 2639.91 1124.28C2635.9 1126.7 2632.49 1130 2629.94 1133.92C2622.48 1144.38 2613.27 1157.45 2611.4 1170.32C2611.17 1173.06 2610.63 1175.78 2609.77 1178.4C2607.87 1182.16 2604.68 1185.12 2600.77 1186.72C2597.03 1188.6 2592.94 1189.76 2589.23 1191.72C2583.49 1194.75 2578.8 1199.46 2575.78 1205.21C2561.61 1214.12 2561.57 1234.36 2551.16 1247.39C2549.77 1248.82 2548.66 1250.5 2547.91 1252.35C2547.55 1254.26 2547.39 1256.2 2547.45 1258.14C2546.66 1266.13 2538.33 1270.63 2533.62 1277.33C2531.82 1279.7 2530.41 1282.34 2529.45 1285.16C2528.94 1287.08 2528.26 1288.95 2527.41 1290.74C2524.33 1296.24 2517.21 1298.24 2513.37 1303.23C2511.41 1305.81 2510.33 1309.19 2507.62 1310.94C2503.83 1313.35 2497.71 1312.02 2495.38 1315.93C2494 1318.26 2494.42 1322.1 2491.83 1323.05C2489.25 1324.01 2487.67 1321.85 2485.46 1322.39C2483.25 1322.93 2482.59 1326.55 2483.34 1329.01C2484.09 1331.46 2485.5 1334.13 2484.54 1336.54C2484.04 1337.88 2482.88 1338.88 2482.29 1340.21C2481.74 1341.96 2481.59 1343.81 2481.88 1345.62C2482.21 1352.41 2478.92 1355.57 2476.67 1361.2C2474.3 1368.83 2472.9 1376.74 2472.5 1384.72C2470.66 1400.82 2470.93 1417.08 2473.3 1433.11C2473.96 1436.37 2474.17 1439.7 2473.92 1443.02C2472.53 1448.24 2470.4 1453.23 2467.59 1457.84C2464.46 1465.29 2463.71 1473.52 2465.42 1481.41C2465.42 1482.58 2466.3 1488.78 2467.51 1489.4C2475.84 1493.57 2472.92 1477.54 2472.67 1474.75C2472.3 1470.79 2469.8 1458.76 2474.3 1456.26C2482.29 1451.76 2483.09 1472.92 2483.88 1476.41C2486.97 1487.58 2492.05 1498.1 2498.87 1507.48C2510.66 1525.92 2522.5 1544.41 2535.79 1561.9C2536.91 1563.44 2537.41 1566.48 2535.49 1566.48C2534.83 1566.37 2534.23 1566.01 2533.83 1565.48L2527 1558.57C2525.9 1559.9 2525.26 1561.54 2525.17 1563.25C2525.08 1564.97 2525.55 1566.67 2526.5 1568.1C2528.47 1570.93 2530.81 1573.48 2533.45 1575.68C2538.06 1580.7 2541.98 1586.3 2545.12 1592.34L2558.99 1616.32C2562.23 1621.43 2564.8 1626.93 2566.66 1632.69C2567.57 1636.1 2567.99 1639.68 2569.11 1643.06C2572.78 1654.38 2583.99 1664.83 2579.9 1676.03C2570.07 1702.85 2579.03 1729.04 2575.74 1757.4C2575.57 1760.51 2574.76 1763.56 2573.36 1766.35C2571.05 1769.55 2567.95 1772.1 2564.36 1773.76L2555.12 1778.97C2552.67 1780.68 2549.76 1781.59 2546.78 1781.59C2543.87 1781.26 2541.08 1778.26 2542.16 1775.55C2543.78 1771.39 2551.24 1770.81 2548.37 1766.35C2545.46 1765.1 2542.47 1764.06 2539.41 1763.23C2535.86 1761.1 2532.59 1758.54 2529.66 1755.61C2521.83 1748.61 2514.03 1741.59 2506.25 1734.54C2503.69 1732.59 2501.64 1730.05 2500.29 1727.13C2498.92 1723.25 2499.87 1718.51 2497.25 1715.38C2493.96 1711.43 2486.5 1711.8 2485 1707.06C2484.04 1703.93 2486.34 1700.31 2484.79 1697.44C2483.25 1694.56 2478 1694.73 2475.17 1692.27C2471.38 1688.98 2472.38 1680.99 2467.42 1680.07C2464.17 1679.45 2461.3 1682.95 2458.01 1682.66C2455.89 1682.19 2454.02 1680.96 2452.76 1679.2C2444.43 1670.29 2435.89 1658.84 2439.59 1647.34C2440.66 1644.88 2441.51 1642.33 2442.13 1639.72C2442.63 1635.56 2439.18 1629.19 2434.34 1629.56C2431.05 1629.86 2430.18 1634.94 2426.01 1635.02C2419.8 1635.02 2418.85 1628.82 2418.35 1623.94C2417.18 1612.08 2422.18 1600.5 2422.14 1588.92C2422.01 1580.5 2419.53 1572.27 2414.99 1565.17C2410.44 1558.07 2404 1552.38 2396.39 1548.74C2388.77 1545.24 2379.73 1543.41 2375.06 1536.25C2372.85 1532.84 2372.19 1528.67 2370.31 1525.09C2365.15 1515.14 2352.77 1511.81 2341.78 1509.52C2336.94 1508.48 2330.36 1508.35 2328.69 1513.01C2327.53 1516.26 2329.69 1520.3 2327.74 1523.17C2326.81 1524.28 2325.62 1525.12 2324.28 1525.63L2292.16 1540.71C2290.92 1541.49 2289.44 1541.8 2287.99 1541.58C2284.62 1540.58 2285.16 1535.46 2282.79 1532.88C2279.58 1529.42 2273.16 1532.34 2269.45 1529.38C2267.25 1527.63 2266.83 1524.34 2264.91 1522.26C2263.41 1520.91 2261.59 1519.95 2259.62 1519.47C2237.46 1512.31 2213.92 1510.51 2190.93 1514.22C2189.25 1514.4 2187.63 1514.94 2186.18 1515.8C2184.39 1517.31 2182.96 1519.21 2182.01 1521.34C2179.77 1525.01 2176.55 1527.97 2172.72 1529.91C2168.88 1531.84 2164.58 1532.67 2160.31 1532.29C2150.1 1531.29 2146.77 1518.26 2137.02 1523.63C2125.73 1529.8 2119.69 1538.12 2104.94 1535.29C2099.87 1534.54 2094.7 1535.78 2090.52 1538.75C2086.5 1541.65 2082.28 1544.28 2077.9 1546.62C2073.04 1548.8 2067.73 1549.82 2062.4 1549.57C2055.06 1549.48 2047.78 1548.17 2040.87 1545.7C2033.78 1543.2 2025.33 1539.62 2019.41 1544.29C2013.5 1548.95 2015.79 1559.65 2022.49 1563.15C2025.99 1564.59 2029.83 1564.97 2033.54 1564.22C2037.25 1563.48 2040.65 1561.66 2043.32 1558.98C2045.62 1556.86 2048.87 1554.15 2051.41 1555.99C2053.95 1557.82 2051.41 1563.57 2053.66 1566.77C2054.52 1567.79 2055.71 1568.48 2057.02 1568.72C2058.34 1568.97 2059.69 1568.75 2060.86 1568.1C2063.14 1566.74 2065.31 1565.21 2067.36 1563.52C2069.46 1561.99 2071.98 1561.14 2074.58 1561.1C2077.18 1561.07 2079.72 1561.84 2081.86 1563.32C2082.84 1564.12 2083.63 1565.14 2084.15 1566.3C2084.68 1567.46 2084.93 1568.72 2084.9 1569.99C2084.86 1571.26 2084.54 1572.5 2083.94 1573.63C2083.35 1574.75 2082.51 1575.72 2081.48 1576.47C2079.54 1577.23 2077.53 1577.82 2075.49 1578.22C2073.35 1578.95 2071.5 1580.34 2070.21 1582.18C2068.91 1584.03 2068.24 1586.24 2068.29 1588.49C2068.33 1590.75 2069.1 1592.93 2070.46 1594.72C2071.83 1596.51 2073.74 1597.82 2075.9 1598.46C2078.38 1598.92 2080.89 1599.25 2083.4 1599.46C2086.27 1599.99 2088.93 1601.32 2091.06 1603.31C2093.2 1605.3 2094.72 1607.86 2095.44 1610.68C2096.17 1613.5 2096.07 1616.48 2095.16 1619.25C2094.26 1622.02 2092.57 1624.47 2090.32 1626.32C2089.47 1627.1 2088.41 1627.64 2087.28 1627.86C2083.11 1628.4 2081.19 1622.99 2078.94 1619.53C2072.65 1609.08 2056.11 1610.24 2048.16 1601.04C2045.28 1597.75 2043.74 1593.3 2040.24 1590.71C2036.74 1588.13 2030.03 1589.59 2030.33 1593.92C2030.62 1598.25 2035.49 1598.96 2038.66 1600.92C2041.3 1602.69 2043.3 1605.27 2044.36 1608.27C2045.43 1611.27 2045.5 1614.53 2044.57 1617.57C2042.56 1623.65 2038.26 1628.7 2032.58 1631.65C2032.07 1632.03 2031.49 1632.31 2030.88 1632.46C2030.26 1632.61 2029.62 1632.63 2028.99 1632.52C2027.41 1632.06 2026.7 1630.31 2025.62 1629.15C2022.49 1625.61 2016.62 1627.07 2012.79 1629.81C2008.95 1632.56 2005.54 1636.35 2000.91 1637.18C1993.12 1638.64 1986.5 1630.69 1984.96 1622.9C1983.42 1615.12 1984.96 1607.04 1983.83 1599.21C1982.16 1591.94 1977.93 1585.52 1971.92 1581.1C1971.23 1580.56 1970.36 1580.31 1969.49 1580.4C1968.61 1580.5 1967.81 1580.92 1967.25 1581.6C1966.83 1582.45 1966.66 1583.4 1966.75 1584.34C1966.74 1585.76 1966.95 1587.16 1967.38 1588.51C1968.5 1591.84 1971.54 1593.88 1974.21 1596.29C1976.88 1598.71 1978.83 1602.5 1977.17 1605.58C1972.79 1613.91 1959.71 1598.79 1952.8 1599.13C1951.82 1599.29 1950.82 1599.29 1949.84 1599.13C1934.09 1594.09 1941.51 1603.29 1934.51 1611.2C1928.09 1618.36 1904.47 1613.95 1896.22 1612.24C1890.22 1610.95 1884.43 1608.91 1878.39 1608.08C1856.85 1604.87 1836.32 1616.91 1817.49 1627.9C1815.19 1629.27 1809.99 1632.06 1807.28 1630.06C1804.57 1628.07 1808.36 1623.74 1806.2 1621.28C1804.7 1619.57 1801.32 1621.03 1799.86 1619.28C1798.41 1617.53 1799.66 1616.11 1800.24 1614.57C1800.82 1613.03 1800.49 1610.7 1798.82 1610.41C1798.08 1610.48 1797.39 1610.8 1796.86 1611.33C1792.01 1614.49 1788.29 1619.11 1786.24 1624.53C1784.78 1630.23 1787.16 1636.69 1784.57 1642.01C1782.83 1645.64 1779.16 1647.89 1776.66 1651.09C1773.12 1655.63 1772.29 1661.75 1769.66 1666.92C1767.72 1670.42 1765.09 1673.5 1761.93 1675.98C1758.78 1678.45 1755.16 1680.27 1751.29 1681.32C1743.53 1683.4 1735.4 1683.71 1727.5 1682.24C1723.74 1681.3 1719.8 1681.38 1716.09 1682.49C1712.75 1684.03 1710.8 1688.82 1713.38 1691.44C1714.04 1692.11 1714.96 1692.61 1715.29 1693.52C1715.63 1694.44 1714.67 1696.15 1713.67 1697.1C1709.96 1700.69 1703.63 1704.27 1700.3 1700.31C1699.55 1699.39 1699.05 1698.15 1697.92 1697.73C1695.46 1696.77 1694.05 1700.85 1695.21 1703.27C1696.38 1705.68 1698.59 1707.93 1697.88 1710.51C1697.35 1711.89 1696.4 1713.07 1695.17 1713.89L1686.3 1721.26C1684.55 1722.71 1682.13 1724.21 1680.18 1723C1678.22 1721.8 1678.3 1718.84 1676.43 1718.05C1674.55 1717.26 1671.64 1719.63 1671.84 1722.21C1672.36 1724.64 1673.53 1726.89 1675.22 1728.71C1676.05 1729.64 1676.62 1730.77 1676.9 1731.98C1677.18 1733.2 1677.14 1734.46 1676.8 1735.66C1675.26 1739.08 1670.47 1738.7 1666.72 1738.95C1662.97 1739.2 1658.64 1743.41 1661.39 1745.99C1662.32 1746.62 1663.35 1747.1 1664.43 1747.41C1665.32 1747.97 1666.09 1748.7 1666.7 1749.57C1667.3 1750.43 1667.73 1751.4 1667.96 1752.43C1668.19 1753.46 1668.21 1754.53 1668.03 1755.56C1667.84 1756.6 1667.46 1757.59 1666.89 1758.48C1664.41 1761.99 1660.81 1764.55 1656.68 1765.73C1654.89 1766.39 1652.8 1767.31 1652.51 1769.18C1651.8 1772.56 1656.68 1773.68 1659.8 1775.26C1660.87 1775.88 1661.8 1776.72 1662.53 1777.71C1663.26 1778.71 1663.78 1779.84 1664.05 1781.04C1664.32 1782.24 1664.35 1783.49 1664.12 1784.7C1663.89 1785.92 1663.41 1787.07 1662.72 1788.09C1660.76 1790.75 1657.22 1792.25 1656.47 1795.62C1656.26 1797.43 1656.53 1799.25 1657.26 1800.91L1667.51 1831.48C1669.14 1836.43 1667.51 1848.72 1671.68 1851.96C1673.72 1853.24 1675.89 1854.33 1678.13 1855.21C1680.22 1856.42 1682.3 1858.79 1681.34 1861.08C1678.88 1868.54 1666.68 1863.41 1659.1 1861.08L1623.81 1850.96C1609.45 1847.31 1595.49 1842.22 1582.15 1835.77C1575.28 1832.1 1567.99 1826.27 1568.4 1818.53C1568.84 1816.19 1569.08 1813.82 1569.11 1811.45C1568.61 1807.28 1564.44 1804.24 1561.19 1801.29C1554.87 1795.5 1550.94 1787.55 1550.2 1779.01C1549.53 1770.68 1551.61 1761.15 1546.03 1754.78C1542.78 1750.95 1537.7 1749.4 1533.53 1746.45C1522.95 1739.16 1520.2 1724.8 1512.2 1714.72C1508.37 1709.85 1503.29 1706.02 1499.7 1700.98C1491.96 1690.23 1491.37 1675.16 1482.71 1665.25C1475.58 1657.26 1463.79 1653.72 1458.54 1644.43C1456 1639.97 1455.21 1634.48 1451.67 1630.73C1447.28 1627.09 1441.76 1625.09 1436.05 1625.07L1418.05 1622.9C1414.18 1622.03 1410.12 1622.45 1406.51 1624.11C1403.51 1625.98 1401.85 1629.56 1398.85 1631.52C1394.68 1634.35 1388.6 1633.44 1384.56 1636.52C1377.39 1642.02 1381.77 1655.21 1374.85 1661C1373.31 1657.84 1368.27 1659.63 1366.18 1662.46C1364.1 1665.29 1362.44 1669.21 1358.94 1669.75C1355.44 1670.29 1353.15 1667.62 1350.85 1665.58C1341.57 1656.64 1329.84 1650.64 1317.15 1648.34C1314.04 1648.14 1311.03 1647.15 1308.4 1645.47C1302.65 1640.85 1305.15 1630.86 1300.07 1625.4C1292.41 1617.07 1282.12 1618.16 1281.24 1603.83C1280.82 1597.38 1281.99 1590.67 1279.87 1584.55C1276.62 1575.35 1266.49 1569.35 1264.66 1559.57C1264.44 1557.01 1264.05 1554.46 1263.49 1551.95C1260.91 1544.37 1251.25 1542.79 1244.08 1539.25C1240.44 1537.41 1237.22 1534.84 1234.62 1531.69C1232.03 1528.54 1230.11 1524.89 1229 1520.97C1227.08 1514.06 1226.29 1504.81 1219.33 1503.15C1217.29 1502.69 1215.17 1503.15 1213.08 1502.44C1206.71 1500.48 1207.96 1492.86 1204.46 1488.66C1200.96 1484.45 1197.75 1484.99 1191.63 1484.37Z" fill="white" stroke="#436AE5" stroke-linecap="round" stroke-linejoin="round"/>
<path d="M2059.78 767.868C2059.78 761.622 2061.57 755.376 2059.78 749.296C2058.72 746.652 2057.41 744.115 2055.87 741.718C2052.61 735.788 2050.67 729.232 2050.16 722.488C2049.65 715.744 2050.58 708.969 2052.91 702.618C2055.11 698.516 2056.21 693.907 2056.07 689.252C2055.7 687.003 2054.53 685.088 2054.2 682.673C2053.12 675.427 2060.28 669.306 2060.57 661.853C2060.42 659.06 2060.1 656.279 2059.62 653.525C2059.73 647.37 2061.15 641.31 2063.78 635.744C2065.45 630.997 2074.15 603.931 2064.7 604.056C2060.53 604.056 2057.41 608.22 2055.57 611.968C2050.66 622.336 2049.66 634.537 2043.08 643.864C2040.83 646.987 2036.33 649.819 2033.41 647.279C2032.79 646.622 2032.31 645.841 2032.01 644.987C2031.71 644.133 2031.59 643.226 2031.66 642.323C2031.66 630.539 2044.16 621.504 2044.16 609.844C2044.14 608.116 2044 606.39 2043.74 604.681C2040.7 602.315 2038.2 599.326 2036.41 595.915C2034.62 592.503 2033.59 588.748 2033.37 584.902C2033.37 581.321 2033.37 576.782 2030 575.325C2028.53 574.908 2027.02 574.697 2025.5 574.7C2023.33 574.331 2021.39 573.153 2020.07 571.405C2018.75 569.656 2018.14 567.47 2018.37 565.29C2008.08 566.502 1997.65 565.537 1987.75 562.458C1979.42 559.918 1971.75 555.921 1963.38 553.922C1953.8 551.632 1943.72 552.006 1934.01 550.299C1930.87 550.084 1927.91 548.738 1925.68 546.51C1924.22 544.382 1923.4 541.884 1923.3 539.306C1923.3 538.015 1923.3 536.766 1923.3 535.475C1921.98 536.167 1920.58 536.712 1919.14 537.099C1914.26 538.39 1900.52 540.972 1897.98 535.392C1896.02 531.228 1903.56 525.607 1900.18 520.402C1898.06 517.071 1892.93 519.277 1889.68 521.526C1881.11 527.565 1871.57 532.113 1861.48 534.976C1858.43 536.19 1855.03 536.19 1851.98 534.976L1847.57 538.349C1843.4 541.472 1839.23 545.136 1838.57 550.174C1838.55 553.409 1839.1 556.622 1840.19 559.668C1842.86 571.327 1837.32 580.488 1830.61 589.482C1825.65 596.062 1814.41 605.93 1819.03 615.133C1821.99 621.045 1830.61 623.211 1831.99 629.707C1833.61 637.535 1823.24 642.948 1822.07 650.86C1820.78 659.646 1830.99 665.517 1839.73 667.224C1848.48 668.931 1858.81 670.014 1863.23 677.717C1864.94 680.632 1865.44 684.13 1867.02 687.128C1874.02 700.328 1896.98 697.371 1903.68 710.696C1905.35 714.843 1906.08 719.309 1905.81 723.771C1906.23 739.91 1908.43 755.954 1912.35 771.615C1914.31 779.402 1918.6 788.605 1926.64 788.771C1929.22 788.771 1932.05 787.813 1934.34 789.104C1935.49 789.792 1936.37 790.849 1936.84 792.102C1976.84 781.276 2019.58 781.276 2060.2 772.948C2059.94 771.266 2059.8 769.569 2059.78 767.868Z" fill="white" stroke="#436AE5" stroke-linecap="round" stroke-linejoin="round"/>
<path d="M2100.74 985.312C2098.46 981.738 2096.82 977.792 2095.9 973.653C2095.69 968.864 2098.9 964.617 2099.82 959.912C2100.28 956.584 2100.15 953.202 2099.44 949.918C2092.4 905.113 2087.32 860.059 2083.9 814.838C2082.81 814.51 2081.76 814.048 2080.78 813.464C2073.16 808.967 2069.41 800.222 2066.12 792.061C2063.4 785.987 2061.42 779.614 2060.2 773.073C2019.37 781.401 1976.88 781.401 1936.8 792.144C1937.35 793.394 1937.72 794.768 1938.18 796.058C1941.59 805.844 1951.84 811.59 1956.88 820.668C1958.53 823.991 1959.48 827.614 1959.68 831.317C1959.87 835.02 1959.31 838.724 1958.02 842.201C1956.73 845.679 1954.75 848.857 1952.19 851.541C1949.63 854.225 1946.55 856.359 1943.14 857.811C1935.01 860.809 1922.85 863.057 1923.97 871.635C1924.39 873.565 1925.11 875.419 1926.1 877.131C1934.64 896.327 1914.72 916.023 1911.93 936.843C1911.2 942.562 1911.78 948.372 1913.63 953.833C1915.48 959.295 1918.54 964.264 1922.6 968.364C1927.93 973.694 1934.8 977.317 1940.51 982.314C1945.56 986.802 1949.61 992.302 1952.4 998.458C1955.18 1004.61 1956.64 1011.29 1956.68 1018.04C1963.22 1013.88 1972.46 1010.09 1977.8 1015.63C1984.13 1022.12 1977.09 1032.7 1977.3 1041.78C1977.71 1060.14 2005.58 1064.3 2013.46 1080.88C2018.21 1090.91 2014.96 1104.32 2022.62 1112.31C2027.87 1117.73 2036.41 1118.6 2043.2 1121.64C2042.99 1118.93 2043.32 1116.19 2044.16 1113.6C2044.72 1111.82 2045.82 1110.25 2047.32 1109.11C2048.81 1107.98 2050.62 1107.34 2052.49 1107.28C2056.16 1107.48 2058.91 1110.56 2061.87 1112.69C2064.82 1114.81 2069.74 1115.81 2071.66 1112.69C2072.91 1110.65 2072.16 1108.02 2072.66 1105.65C2073.57 1101.49 2078.07 1099.28 2081.74 1096.99C2085.4 1094.7 2088.9 1090.2 2086.74 1086.5C2085.15 1083.79 2080.82 1081.67 2082.57 1078.92C2082.94 1078.37 2083.41 1077.89 2083.95 1077.5C2086.03 1075.39 2087.62 1072.85 2088.6 1070.06C2089.59 1067.27 2089.95 1064.29 2089.65 1061.35C2089.65 1055.43 2088.11 1049.6 2088.36 1043.69C2088.82 1033.49 2094.07 1024.25 2098.15 1014.88C2102.24 1005.51 2104.86 994.681 2100.74 985.312Z" fill="white" stroke="#436AE5" stroke-linecap="round" stroke-linejoin="round"/>
<path d="M1905.77 723.854C1906.04 719.393 1905.31 714.926 1903.64 710.779C1896.94 697.455 1873.98 700.411 1866.98 687.211C1865.4 684.213 1864.9 680.715 1863.19 677.801C1858.78 670.097 1848.4 669.015 1839.69 667.307C1830.99 665.6 1820.74 659.729 1822.03 650.943C1823.2 643.031 1833.57 637.618 1831.95 629.79C1830.57 623.294 1821.95 621.129 1818.99 615.216C1814.37 606.013 1825.61 596.145 1830.57 589.566C1837.28 580.655 1842.82 571.411 1840.15 559.751C1839.06 556.705 1838.51 553.493 1838.53 550.257C1839.11 545.219 1843.49 541.555 1847.53 538.432L1851.94 535.059C1851.17 534.61 1850.54 533.963 1850.11 533.185L1887.1 485.632C1890.39 480.917 1894.35 476.708 1898.85 473.14C1904.91 469.576 1911.21 466.459 1917.72 463.813C1923.93 460.607 1931.22 455.485 1932.14 448.448C1928.85 440.744 1917.97 440.536 1909.81 442.452C1901.64 444.367 1891.89 446.616 1885.69 441.078C1884.1 439.62 1882.81 437.621 1880.73 436.914C1876.56 435.581 1873.31 439.828 1870.77 443.201C1868.23 446.574 1862.98 449.614 1860.27 446.366C1858.61 444.367 1859.11 440.911 1856.94 439.454C1854.78 437.996 1852.78 439.454 1850.28 439.454C1845.4 439.828 1841.61 435.29 1837.36 432.999C1833.11 430.709 1825.53 431.958 1826.2 436.83L1818.32 417.384C1817.78 416.01 1816.99 414.386 1815.49 414.137C1814.92 414.111 1814.36 414.201 1813.83 414.402C1813.3 414.602 1812.82 414.909 1812.41 415.302C1806.12 420.216 1799.91 429.252 1792.58 425.671C1789.45 424.13 1786.95 420.258 1783.62 421.174C1781.12 421.882 1780.08 424.963 1777.79 426.17C1772.96 428.752 1768.79 421.715 1763.87 419.217C1758.96 416.718 1753.29 418.967 1747.96 420.091C1732.8 423.256 1728.38 404.185 1726.34 392.775C1725.8 389.736 1725.13 386.154 1722.17 384.78C1720.58 384.303 1718.87 384.405 1717.34 385.068C1715.82 385.732 1714.58 386.913 1713.84 388.403C1712.47 391.429 1711.28 394.529 1710.26 397.689C1701.93 415.594 1669.06 410.722 1653.48 410.805C1645.77 410.805 1638.02 410.805 1630.31 410.805C1632.36 413.943 1634.09 417.277 1635.48 420.757C1637.94 428.003 1634.15 433.249 1634.23 439.912C1634.23 444.076 1636.94 446.116 1638.02 449.989C1639.69 455.985 1636.56 461.398 1637.06 467.436C1637.56 473.473 1641.6 479.594 1644.64 485.133C1652.44 499.462 1656.05 515.695 1655.06 531.978C1654.32 537.595 1654.14 543.272 1654.52 548.925C1655.66 554.559 1657.39 560.057 1659.68 565.331C1664.75 579.185 1666.73 593.98 1665.47 608.678C1664.81 616.049 1663.52 624.127 1667.51 630.331C1669.35 633.163 1672.14 635.328 1673.89 638.201C1675.92 642.28 1676.86 646.81 1676.64 651.359L1680.14 744.966C1680.14 748.588 1680.39 752.253 1680.43 755.959C1755.96 751.503 1831.53 746.631 1906.52 736.804C1906.14 732.515 1905.89 728.185 1905.77 723.854Z" fill="white" stroke="#436AE5" stroke-linecap="round" stroke-linejoin="round"/>
<path d="M1808.32 932.845C1824.03 929.863 1839.95 928.081 1855.94 927.515C1862.8 927.876 1869.68 927.414 1876.43 926.141C1882.85 924.309 1887.06 921.478 1894.31 922.935C1901.55 924.393 1906.55 930.097 1912.43 934.136C1916.59 914.316 1934.26 895.494 1926.09 877.173C1925.11 875.46 1924.39 873.607 1923.97 871.676C1922.84 863.099 1935.01 860.85 1943.13 857.852C1946.54 856.4 1949.63 854.267 1952.18 851.583C1954.74 848.899 1956.73 845.72 1958.02 842.243C1959.3 838.765 1959.87 835.061 1959.67 831.359C1959.47 827.656 1958.52 824.032 1956.88 820.709C1951.84 811.632 1941.59 805.885 1938.17 796.1C1937.26 793.518 1936.67 790.478 1934.3 789.188C1931.92 787.897 1929.17 788.896 1926.59 788.855C1918.55 788.855 1914.09 779.486 1912.3 771.699C1909.44 760.241 1907.5 748.572 1906.51 736.805C1831.52 746.632 1755.95 751.504 1680.42 755.959C1680.84 765.668 1679.94 775.388 1677.76 784.857C1676.62 788.403 1675.87 792.061 1675.51 795.767C1675.57 799.053 1676.08 802.316 1677.01 805.469C1679.24 816.776 1683.02 827.72 1688.26 837.99C1689.96 841.029 1691.96 843.903 1693.59 846.984C1696.62 853.742 1699.2 860.698 1701.3 867.804C1703.75 875.466 1706.17 883.127 1708.63 890.789C1710.78 897.07 1712.59 903.465 1714.04 909.943C1715.46 917.897 1715.08 926.1 1716.71 934.011C1716.99 935.427 1717.32 936.815 1717.71 938.175C1730 937.655 1742.24 936.263 1754.33 934.011C1772.58 930.68 1789.91 936.385 1808.32 932.845Z" fill="white" stroke="#436AE5" stroke-linecap="round" stroke-linejoin="round"/>
<path d="M1993.75 1190.01C1993.38 1191.48 1993.38 1193.01 1993.75 1194.47C1995.33 1198.97 2001.88 1197.93 2006.25 1196.47C2011.35 1194.81 2016.62 1193.72 2021.96 1193.22C2023.04 1188.6 2024.08 1183.98 2025 1179.31C2025.72 1172.8 2027.98 1166.55 2031.58 1161.07C2035.09 1156.86 2039.89 1153.93 2045.24 1152.75C2044.58 1143.34 2043.95 1133.97 2043.29 1124.56C2043.29 1123.6 2043.29 1122.64 2043.08 1121.64C2036.29 1118.6 2027.75 1117.73 2022.5 1112.31C2014.83 1104.32 2018.08 1090.91 2013.33 1080.88C2005.46 1064.22 1977.59 1060.06 1977.17 1041.78C1976.96 1032.7 1984 1022.12 1977.67 1015.63C1972.34 1010.09 1963.09 1013.92 1956.55 1018.04C1956.51 1011.29 1955.06 1004.61 1952.27 998.458C1949.49 992.303 1945.44 986.802 1940.39 982.314C1934.68 977.317 1927.89 973.695 1922.47 968.365C1918.42 964.264 1915.35 959.295 1913.5 953.834C1911.65 948.372 1911.07 942.562 1911.81 936.843C1911.81 935.927 1911.97 935.011 1912.31 934.095C1906.43 929.931 1901.18 924.268 1894.18 922.894C1887.19 921.52 1882.73 924.268 1876.31 926.1C1869.56 927.373 1862.68 927.835 1855.82 927.474C1839.83 928.04 1823.91 929.821 1808.2 932.804C1789.79 936.344 1772.45 930.639 1754.04 934.053C1741.95 936.305 1729.71 937.697 1717.42 938.217C1718.51 943.516 1721.22 948.346 1725.17 952.042C1727.34 953.831 1729.25 955.92 1730.84 958.246C1738.5 969.114 1756.67 973.57 1757.75 987.019C1758.25 993.14 1754.62 999.053 1755.17 1005.17C1756.08 1016.13 1767.25 1018.71 1772.54 1026.74C1780.24 1038.36 1779.37 1055.27 1778.95 1068.38C1777.75 1109.36 1783.7 1149.96 1789.24 1190.68C1858.36 1178.77 1928.22 1171.94 1998.04 1165.2C1996.74 1173.58 1995.31 1181.85 1993.75 1190.01Z" fill="white" stroke="#436AE5" stroke-linecap="round" stroke-linejoin="round"/>
<path d="M1665.85 601.725C1666.07 589.317 1664.04 576.971 1659.85 565.29C1657.56 560.016 1655.83 554.518 1654.68 548.884C1654.3 543.231 1654.48 537.554 1655.22 531.936C1656.22 515.654 1652.61 499.421 1644.81 485.091C1641.77 479.553 1637.77 473.849 1637.22 467.394C1636.68 460.94 1639.85 455.943 1638.18 449.947C1637.1 446.075 1634.48 444.201 1634.39 439.87C1634.39 433 1638.1 427.961 1635.64 420.716C1634.26 417.207 1632.53 413.845 1630.48 410.681C1616.31 410.681 1602.11 410.223 1587.94 410.264L1426.55 411.014C1405.72 411.014 1385.14 411.222 1364.39 411.014C1361.62 475.389 1358.92 539.778 1356.31 604.182C1459.42 608.47 1562.78 607.596 1665.85 601.725Z" fill="white" stroke="#436AE5" stroke-linecap="round" stroke-linejoin="round"/>
<path d="M1680.14 744.966L1676.64 651.359C1676.86 646.811 1675.91 642.28 1673.89 638.201C1672.14 635.328 1669.35 633.163 1667.51 630.331C1663.35 624.127 1664.8 616.049 1665.47 608.678C1665.68 606.347 1665.76 604.056 1665.85 601.725C1562.78 607.596 1459.42 608.47 1356.31 604.223C1353.76 664.906 1351.2 725.548 1348.65 786.148L1576.19 790.312C1581.06 790.142 1585.92 790.718 1590.61 792.019C1599.27 794.934 1606.36 802.72 1615.6 802.804C1619.54 802.459 1623.44 801.72 1627.23 800.597C1645.14 797.016 1661.89 808.592 1679.43 814.588C1678.64 811.59 1677.89 808.55 1677.14 805.552C1676.21 802.399 1675.7 799.136 1675.64 795.85C1676 792.144 1676.75 788.487 1677.89 784.94C1680.56 771.794 1681.32 758.329 1680.14 744.966Z" fill="white" stroke="#436AE5" stroke-linecap="round" stroke-linejoin="round"/>
<path d="M1731.13 958.412C1729.54 956.086 1727.64 953.998 1725.46 952.208C1720.38 948.044 1718.05 940.757 1716.71 934.136C1715.09 926.225 1715.47 918.021 1714.05 910.068C1712.59 903.589 1710.79 897.195 1708.63 890.914C1706.18 883.252 1703.76 875.59 1701.3 867.929C1699.21 860.823 1696.63 853.867 1693.59 847.109C1691.97 844.027 1689.97 841.154 1688.26 838.114C1684.27 830.707 1681.26 822.813 1679.3 814.63C1661.77 808.633 1645.02 797.057 1627.1 800.639C1623.31 801.762 1619.42 802.501 1615.48 802.845C1606.36 802.845 1599.28 794.975 1590.49 792.061C1585.8 790.759 1580.94 790.184 1576.07 790.353L1348.53 786.189C1346.78 828.412 1345.01 870.621 1343.23 912.816C1373.94 912.317 1403.93 914.107 1434.59 915.939C1434.26 936.01 1433.8 956.094 1433.22 976.192C1439.24 976.768 1445.3 976.949 1451.34 976.734L1613.15 973.819C1655.93 973.07 1698.59 969.655 1741.42 967.906C1737.48 965.337 1734.01 962.128 1731.13 958.412Z" fill="white" stroke="#436AE5" stroke-linecap="round" stroke-linejoin="round"/>
<path d="M1779.24 1068.59C1779.66 1055.31 1780.53 1038.4 1772.83 1026.95C1767.54 1018.92 1756.37 1016.33 1755.45 1005.38C1754.91 999.261 1758.54 993.348 1758.04 987.227C1757.33 978.358 1749.2 973.403 1741.37 967.906C1698.55 969.78 1655.89 973.07 1613.1 973.819L1451.3 976.734C1445.25 976.949 1439.2 976.768 1433.17 976.193C1431.34 1039.49 1428.38 1102.74 1425.38 1165.99C1441.63 1171.57 1461.63 1167.86 1478.46 1167.57C1518.66 1166.86 1558.61 1168.74 1598.81 1166.9L1784.87 1158.58C1780.63 1128.77 1778.75 1098.69 1779.24 1068.59Z" fill="white" stroke="#436AE5" stroke-linecap="round" stroke-linejoin="round"/>
<path d="M885.476 417.135C886.935 425.077 889.545 432.764 893.225 439.953C902.015 459.399 911.18 479.386 926.553 494.085C928.768 495.691 930.381 497.993 931.135 500.623C931.117 503.522 930.168 506.339 928.427 508.659C924.058 516.748 922.841 526.168 925.011 535.101C926.003 537.671 926.29 540.46 925.844 543.179C924.945 545.239 923.674 547.116 922.095 548.717C917.679 554.338 920.845 557.045 919.72 563.332C918.945 565.549 918.646 567.905 918.846 570.245C920.22 575.783 940.425 566.664 945.3 577.448C947.091 581.612 946.049 586.318 947.757 590.398C949.882 595.478 956.089 598.726 956.089 604.264C956.089 609.803 950.799 613.925 951.923 618.922C952.965 623.086 958.006 624.835 961.172 627.833C964.333 631.595 966.331 636.196 966.921 641.074C967.515 645.962 969.712 650.516 973.17 654.024C976.794 656.939 981.919 654.024 986.21 654.565C988.876 654.94 990.042 656.939 992.958 657.105C996.5 657.314 999.707 654.69 1003.42 655.107C1010.37 655.856 1015.91 665.225 1022.29 662.477C1027.08 660.437 1027.33 653.4 1031.54 650.36C1038.2 645.613 1046.49 654.524 1051.53 658.105C1050.78 650.253 1050.78 642.347 1051.53 634.495C1051.67 633.306 1052.21 632.201 1053.07 631.372C1053.73 630.861 1054.5 630.509 1055.32 630.343C1056.13 630.177 1056.98 630.201 1057.78 630.414C1156.64 640.574 1255.54 650.776 1353.86 665.142C1357.44 580.502 1361 495.834 1364.52 411.138C1340.28 410.847 1316.03 410.097 1291.83 408.349C1235.63 404.185 1180.01 394.732 1124.52 384.905C1048.87 371.539 973.337 357.756 898.515 341.392C895.099 357.354 891.697 373.302 888.309 389.236C885.805 398.311 884.848 407.742 885.476 417.135Z" fill="#74B1F9" stroke="#436AE5" stroke-linecap="round" stroke-linejoin="round"/>
<path d="M564.362 427.336C566.337 428.026 568.131 429.15 569.612 430.626C575.486 435.664 581.651 441.203 583.443 448.698C584.651 453.653 583.734 458.858 584.609 463.896C585.484 468.935 589.233 474.181 594.316 473.807C597.065 473.807 599.523 471.808 602.273 471.808C607.48 471.808 610.605 477.846 615.771 479.095C620.937 480.344 626.477 476.014 631.768 477.179C637.059 478.345 640.975 485.882 646.932 485.965C650.39 485.965 653.348 483.509 656.722 482.801C664.721 481.177 671.012 489.547 678.719 492.087C687.342 494.876 697.591 490.254 705.423 494.751C709.214 496.875 712.088 500.997 716.421 501.497C719.973 501.26 723.436 500.282 726.586 498.624C732.849 497.33 739.355 497.909 745.291 500.29L782.452 511.199C795.374 515.329 808.59 518.475 821.987 520.61C829.569 457.026 843.65 394.441 858.439 332.106C782.498 314.89 707.621 293.284 634.184 267.397C628.144 276.975 644.766 288.217 641.517 298.961C640.308 302.875 636.642 305.748 635.851 309.787C634.226 318.115 645.641 324.944 643.766 333.189C642.558 338.477 636.559 341.059 633.643 345.681C629.477 352.343 634.226 359.672 631.685 366.084C629.477 371.747 621.603 376.286 616.604 379.575C615.142 380.627 613.485 381.377 611.73 381.782C605.814 382.698 601.44 375.703 601.898 369.748C601.887 368.401 602.343 367.091 603.189 366.042C605.022 364.002 608.23 364.627 610.938 364.543C616.396 364.543 624.728 359.547 623.728 353.176C622.936 348.262 615.146 347.305 615.396 342.016C615.396 337.477 621.936 336.353 624.561 332.689C625.485 331.093 625.878 329.245 625.683 327.412C625.489 325.578 624.716 323.854 623.478 322.487C620.954 319.813 617.885 317.711 614.479 316.324L564.071 291.632C561.556 290.106 558.681 289.272 555.739 289.217C547.407 289.966 545.449 301.709 545.99 310.037L548.99 356.174C548.986 358.22 549.441 360.24 550.323 362.087C551.698 364.543 554.489 366.251 554.822 369.041C555.031 372.58 550.656 374.704 549.573 377.993C546.949 384.989 558.405 393.15 553.489 398.813C551.781 400.812 548.657 401.103 546.907 402.977C544.366 405.892 546.074 410.472 548.49 413.47C551.338 416.082 553.388 419.446 554.406 423.172C554.164 423.044 553.913 422.933 553.656 422.839C555.229 424.607 557.241 425.928 559.488 426.67C560.946 427.336 562.696 427.045 564.362 427.336Z" fill="white" stroke="#436AE5" stroke-linecap="round" stroke-linejoin="round"/>
<path d="M797.533 649.902C798.939 644.222 798.561 638.246 796.45 632.788C795.366 630.581 793.742 628.624 792.659 626.417C788.493 617.506 794.617 607.263 801.449 600.226C808.281 593.189 816.613 586.276 818.113 576.533C818.134 572.925 818.581 569.333 819.446 565.831C821.487 560.501 827.403 557.503 830.527 552.881C836.068 544.553 831.485 533.06 825.112 525.232C823.862 523.691 822.487 522.151 820.946 520.61C807.881 518.461 794.988 515.372 782.369 511.366L745.208 500.456C739.272 498.076 732.766 497.496 726.503 498.791C723.353 500.449 719.89 501.427 716.338 501.664C712.172 501.164 709.13 497.042 705.339 494.918C697.507 490.421 687.259 494.918 678.635 492.253C670.928 489.713 664.638 481.344 656.639 482.968C653.265 483.676 650.307 486.216 646.849 486.132C640.892 486.132 637.517 478.596 631.685 477.346C625.852 476.097 620.978 480.553 615.687 479.262C610.397 477.971 607.355 471.933 602.19 471.975C599.44 471.975 596.982 473.807 594.233 473.973C589.15 474.348 585.401 469.06 584.526 464.063C583.651 459.066 584.526 453.82 583.359 448.865C581.568 441.369 575.402 435.831 569.528 430.793C568.047 429.317 566.253 428.193 564.279 427.503C562.613 427.045 560.863 427.212 559.197 426.795C556.949 426.053 554.937 424.732 553.364 422.965C550.992 422.178 548.432 422.156 546.047 422.904C543.662 423.651 541.573 425.129 540.075 427.129C537.028 431.447 535.005 436.403 534.159 441.619C524.365 480.629 509.593 518.219 490.208 553.464C483.084 566.414 475.335 579.073 469.378 592.647C466.253 599.976 468.087 604.515 464.92 611.802C460.649 621.931 458.685 632.883 459.171 643.864C459.692 648.472 459.692 653.123 459.171 657.73C458.256 661.28 457.087 664.759 455.672 668.14C559.404 706.593 665.088 739.561 772.287 766.91C773.703 726.811 791.242 689.335 797.533 649.902Z" fill="white" stroke="#436AE5" stroke-linecap="round" stroke-linejoin="round"/>
<path d="M797.655 1351.74C797.774 1347.86 796.959 1344 795.281 1340.5C793.278 1334.79 792.032 1328.84 791.573 1322.8C791.281 1321.07 791.544 1319.3 792.323 1317.72C793.543 1316.31 795.029 1315.15 796.697 1314.31C803.529 1309.48 803.404 1299.03 808.82 1292.66C812.361 1288.49 817.86 1286.58 822.36 1283.45C826.859 1280.33 830.692 1274.71 828.567 1269.67C827.026 1266.01 822.985 1264.26 820.027 1261.63C812.07 1254.56 812.945 1244.31 814.069 1233.74C782.446 1191.27 753.238 1147.06 726.584 1101.32C706.42 1067.59 683.674 1035.53 661.178 1003.34C642.139 976.151 623.267 949.21 604.77 921.686C603.751 920.386 603.026 918.88 602.646 917.272C602.438 916.017 602.438 914.737 602.646 913.483C607.895 880.171 613.685 848.108 621.392 815.421C628.058 787.022 634.613 758.61 641.056 730.184C578.594 711.362 516.771 690.626 455.586 667.974C454.564 670.627 454.096 673.461 454.211 676.302C454.628 681.34 457.877 685.879 457.877 690.917C457.877 698.496 450.754 704.075 448.171 711.196C445.38 719.107 448.171 728.476 444.588 736.18C441.005 743.883 431.34 746.965 427.216 754.335C423.092 761.705 425.341 770.991 429.091 778.444C432.84 785.898 438.006 792.977 439.839 801.18C440.943 807.251 440.943 813.472 439.839 819.543C436.548 843.319 429.632 869.511 442.38 889.873C446.546 896.41 456.128 902.74 452.878 909.777C450.109 916.147 449.48 923.243 451.088 930C452.695 936.757 456.452 942.811 461.794 947.253C466.334 944.629 475.083 933.595 474.75 946.128L474.375 962.493C474.422 963.123 474.229 963.748 473.833 964.242C473.347 964.577 472.75 964.711 472.167 964.617C465.585 964.617 463.835 965.158 463.293 972.112C462.702 978.927 463.561 985.791 465.816 992.251C468.071 998.71 471.669 1004.62 476.374 1009.59C481.707 1015.17 488.872 1021.37 487.123 1028.87C485.483 1032.38 483.472 1035.7 481.124 1038.78C477.499 1045.52 479.707 1053.93 483.29 1060.76C486.873 1067.59 491.622 1073.8 493.58 1081.25C494.222 1086.61 495.324 1091.9 496.871 1097.07C498.591 1100.33 500.719 1103.35 503.203 1106.07C510.504 1115.14 515.774 1125.68 518.659 1136.96C519.917 1141.4 520.437 1146.02 520.201 1150.62C519.534 1158.95 515.118 1167.28 516.493 1175.61C518.618 1188.51 533.157 1195.18 545.946 1197.68C551.875 1198.31 557.629 1200.06 562.902 1202.84C567.105 1205.9 570.611 1209.82 573.192 1214.33C580.191 1224.99 587.315 1236.9 599.313 1241.36C605.145 1243.56 612.811 1244.6 614.769 1250.56C615.893 1253.89 614.769 1257.8 616.06 1261.01C618.101 1265.67 624.392 1266.38 629.058 1268.01C642.431 1272.59 648.805 1287.45 653.637 1300.78C656.97 1309.81 660.303 1319.47 658.386 1328.92C657.428 1333.42 656.428 1339.96 660.886 1341.04L665.052 1336.29C665.768 1342.84 667.008 1349.31 668.76 1355.66C705.559 1358.6 742.345 1362.85 779.117 1368.4C778.533 1368.4 778.367 1368.69 778.533 1369.36C779.793 1368.19 781.192 1367.18 782.699 1366.36C788.74 1362.65 796.614 1358.95 797.655 1351.74Z" fill="white" stroke="#436AE5" stroke-linecap="round" stroke-linejoin="round"/>
<path d="M1049.78 694.832C1051.52 682.332 1051.82 669.675 1050.69 657.106C1045.61 653.192 1038.2 645.905 1031.95 650.277C1027.78 653.317 1027.49 660.354 1022.7 662.394C1016.24 665.142 1010.78 655.773 1003.83 655.024C1000.12 654.607 996.911 657.231 993.37 657.023C990.454 657.023 989.204 654.857 986.621 654.482C982.455 653.9 977.206 656.856 973.582 653.941C970.124 650.433 967.927 645.879 967.333 640.991C966.743 636.113 964.745 631.512 961.584 627.75C958.418 624.752 953.252 623.086 952.335 618.839C951.086 613.842 956.501 609.345 956.501 604.181C956.501 599.018 950.169 595.395 948.169 590.315C946.461 586.151 947.503 581.363 945.711 577.365C940.837 566.581 920.715 575.7 919.257 570.162C919.058 567.822 919.356 565.466 920.132 563.249C921.257 557.045 918.091 554.255 922.507 548.634C924.086 547.033 925.357 545.156 926.256 543.096C926.702 540.377 926.415 537.588 925.423 535.018C923.253 526.085 924.47 516.665 928.839 508.576C930.58 506.256 931.529 503.439 931.547 500.54C930.793 497.91 929.18 495.608 926.964 494.002C911.425 479.387 902.26 459.399 893.637 439.87C889.957 432.681 887.347 424.994 885.888 417.052C885.21 407.638 886.125 398.178 888.596 389.07C892.012 373.135 895.414 357.187 898.802 341.225C885.471 338.311 872.154 335.299 858.851 332.189C844.061 394.649 829.98 457.109 822.398 520.693H821.44C822.815 522.234 824.19 523.775 825.606 525.315C831.98 533.144 836.563 544.553 831.022 552.964C827.897 557.753 821.982 560.584 819.94 565.914C819.076 569.417 818.628 573.009 818.607 576.616C817.191 586.36 808.859 593.272 801.943 600.309C795.028 607.346 788.987 617.59 793.153 626.5C794.236 628.707 795.861 630.664 796.944 632.871C799.055 638.329 799.434 644.305 798.027 649.985C791.862 688.419 775.114 724.937 773.031 763.787C777.169 765.304 781.417 766.501 785.738 767.368L1032.24 820.126V820.501C1036.4 803.845 1038.28 786.439 1040.86 769.2C1044.74 744.508 1047.15 719.691 1049.78 694.832Z" fill="white" stroke="#436AE5" stroke-linecap="round" stroke-linejoin="round"/>
<path d="M1057.65 630.248C1056.85 630.078 1056.03 630.09 1055.23 630.285C1054.44 630.48 1053.7 630.851 1053.07 631.372C1052.37 632.293 1052 633.423 1052.03 634.578C1051.28 642.431 1051.28 650.336 1052.03 658.188C1051.59 657.91 1051.18 657.604 1050.78 657.272C1051.91 669.841 1051.6 682.498 1049.86 694.998C1047.24 719.982 1044.61 744.674 1040.91 769.367C1038.32 786.606 1036.49 803.845 1032.28 820.667C1030.45 840.543 1028.6 860.433 1026.74 880.337C1124.72 896.112 1223.45 906.855 1322.53 912.525C1329.47 913.148 1336.46 912.953 1343.36 911.942C1346.8 829.662 1350.24 747.395 1353.69 665.142C1255.41 650.61 1156.51 640.408 1057.65 630.248Z" fill="white" stroke="#436AE5" stroke-linecap="round" stroke-linejoin="round"/>
<path d="M810.82 1173.36C810.028 1167.82 809.236 1161.2 813.486 1157.53C821.318 1150.83 833.316 1163.24 843.106 1159.99C850.063 1157.74 852.146 1149.12 853.146 1141.92C860.895 1085.33 865.061 1027.99 874.892 971.903L892.389 871.968C897.097 845.193 902.596 819.335 903.429 792.602L785.24 767.326C780.92 766.459 776.672 765.262 772.534 763.745C772.534 764.745 772.534 765.744 772.534 766.743C728.486 755.639 684.715 743.453 641.222 730.184C634.751 758.638 628.197 787.05 621.559 815.421C613.852 848.108 608.061 880.254 602.812 913.483C602.604 914.737 602.604 916.017 602.812 917.272C603.192 918.879 603.917 920.385 604.936 921.686C623.433 949.251 642.43 976.151 661.344 1003.34C683.84 1035.53 706.587 1067.59 726.75 1101.32C751.852 1144.18 779.148 1185.73 808.528 1225.78C812.663 1208.62 813.442 1190.82 810.82 1173.36Z" fill="white" stroke="#436AE5" stroke-linecap="round" stroke-linejoin="round"/>
<path d="M1343.36 912.775V911.775C1336.46 912.786 1329.47 912.981 1322.53 912.358C1254.07 908.444 1185.81 902.087 1117.77 893.287C1109.02 975.901 1100.69 1058.53 1092.77 1141.17C1180.26 1152.79 1268.04 1161.36 1356.19 1164.57C1364.49 1164.52 1372.77 1165.63 1380.77 1167.86C1381.06 1167.11 1381.35 1166.65 1381.64 1166.65C1396.06 1167.61 1410.8 1166.9 1425.22 1166.65C1429.39 1083.08 1433.13 999.511 1434.43 915.856C1404.06 914.065 1374.06 912.275 1343.36 912.775Z" fill="white" stroke="#436AE5" stroke-linecap="round" stroke-linejoin="round"/>
<path d="M1117.85 893.287C1087.3 889.373 1056.9 885.001 1026.66 880.171C1028.55 860.128 1030.41 840.113 1032.24 820.126L903.427 792.561C902.594 819.293 897.095 845.152 892.388 871.926L874.89 971.862C867.225 1015.5 863.017 1059.89 857.852 1104.07C936.005 1117.81 1014.41 1130.72 1093.06 1141.13C1100.87 1058.49 1109.13 975.873 1117.85 893.287Z" fill="white" stroke="#436AE5" stroke-linecap="round" stroke-linejoin="round"/>
</g>
<g filter="url(#filter0_d_5_67696)">
<ellipse cx="1031.3" cy="529.613" rx="20.5472" ry="20.5453" fill="white"/>
<path d="M1048.84 529.613C1048.84 539.302 1040.99 547.158 1031.3 547.158C1021.61 547.158 1013.75 539.302 1013.75 529.613C1013.75 519.923 1021.61 512.067 1031.3 512.067C1040.99 512.067 1048.84 519.923 1048.84 529.613Z" stroke="#FF7D01" stroke-width="6"/>
</g>
</g>
<g filter="url(#filter1_d_5_67696)">
<rect x="1062" y="677.842" width="284" height="104" rx="25" fill="white"/>
</g>
<path d="M1102.28 715.322L1102.44 717.002H1102.68L1102.84 715.322L1105.46 708.838H1110.52V722.842H1107.36V713.545L1107.72 711.758H1107.38L1106.9 713.545L1104.34 719.482H1100.78L1098.22 713.545L1097.74 711.758H1097.4L1097.76 713.545V722.842H1094.6V708.838H1099.66L1102.28 715.322ZM1118.82 723.037C1117.13 723.037 1115.75 722.578 1114.7 721.66C1113.64 720.742 1113.12 719.469 1113.12 717.842C1113.12 716.214 1113.64 714.941 1114.7 714.023C1115.75 713.105 1117.13 712.646 1118.82 712.646C1120.51 712.646 1121.89 713.105 1122.94 714.023C1124 714.941 1124.52 716.214 1124.52 717.842C1124.52 719.469 1124 720.742 1122.94 721.66C1121.89 722.578 1120.51 723.037 1118.82 723.037ZM1118.82 720.566C1119.67 720.566 1120.34 720.312 1120.83 719.805C1121.32 719.297 1121.56 718.643 1121.56 717.842C1121.56 717.041 1121.32 716.387 1120.83 715.879C1120.34 715.371 1119.67 715.117 1118.82 715.117C1117.96 715.117 1117.29 715.371 1116.82 715.879C1116.33 716.387 1116.09 717.041 1116.09 717.842C1116.09 718.643 1116.33 719.297 1116.82 719.805C1117.29 720.312 1117.96 720.566 1118.82 720.566ZM1137.76 722.842H1134.88V717.803C1134.88 716.963 1134.65 716.322 1134.2 715.879C1133.76 715.43 1133.14 715.205 1132.34 715.205C1131.52 715.205 1130.9 715.443 1130.46 715.918C1130.02 716.4 1129.8 717.028 1129.8 717.803V722.842H1126.92V712.842H1129.8V714.502H1129.96C1130.03 714.346 1130.19 714.131 1130.42 713.857C1130.62 713.636 1130.84 713.447 1131.07 713.291C1131.33 713.109 1131.69 712.956 1132.14 712.832C1132.59 712.708 1133.06 712.646 1133.56 712.646C1134.81 712.646 1135.83 713.008 1136.6 713.73C1137.37 714.46 1137.76 715.55 1137.76 717.002V722.842ZM1141.02 719.062V715.166H1139.55V713.506L1142.34 710.84H1143.9V712.842H1147.01V715.166H1143.9V718.682C1143.9 719.43 1144.07 719.945 1144.41 720.225C1144.74 720.505 1145.23 720.645 1145.85 720.645C1146.1 720.645 1146.34 720.615 1146.58 720.557C1146.83 720.498 1147.01 720.433 1147.13 720.361L1147.32 720.283V722.686C1146.82 722.926 1146.19 723.044 1145.43 723.037C1143.95 723.037 1142.85 722.715 1142.11 722.07C1141.38 721.426 1141.02 720.423 1141.02 719.062ZM1148.7 720.02C1148.7 718.991 1149.13 718.219 1149.97 717.705C1150.82 717.197 1151.89 716.943 1153.19 716.943C1153.86 716.943 1154.46 717.012 1154.99 717.148C1155.53 717.298 1155.9 717.435 1156.11 717.559L1156.43 717.783V716.318C1156.43 715.889 1156.26 715.527 1155.94 715.234C1155.61 714.948 1155.07 714.805 1154.31 714.805C1153.76 714.805 1153.27 714.906 1152.84 715.107C1152.39 715.316 1152.17 715.635 1152.17 716.064H1149.21C1149.22 714.925 1149.68 714.069 1150.6 713.496C1151.51 712.93 1152.75 712.646 1154.31 712.646C1155.89 712.646 1157.12 712.952 1157.99 713.564C1158.87 714.176 1159.31 715.094 1159.31 716.318V719.443C1159.31 719.847 1159.36 720.127 1159.46 720.283C1159.55 720.439 1159.72 720.518 1159.96 720.518L1160.38 720.439V722.842C1160.14 722.972 1159.72 723.037 1159.14 723.037C1158.39 723.037 1157.83 722.874 1157.44 722.549C1157.1 722.269 1156.88 722.012 1156.79 721.777L1156.73 721.641H1156.58C1156.58 721.667 1156.55 721.725 1156.49 721.816C1156.42 721.901 1156.29 722.018 1156.11 722.168C1155.92 722.318 1155.71 722.451 1155.45 722.568C1154.79 722.881 1153.92 723.037 1152.84 723.037C1151.66 723.037 1150.67 722.78 1149.88 722.266C1149.1 721.758 1148.7 721.009 1148.7 720.02ZM1154.03 720.859C1154.54 720.859 1155 720.794 1155.41 720.664C1155.8 720.54 1156.07 720.413 1156.22 720.283L1156.43 720.098V719.502C1156.38 719.45 1156.31 719.395 1156.22 719.336C1156.11 719.264 1155.85 719.176 1155.45 719.072C1155.02 718.962 1154.55 718.906 1154.03 718.906C1152.45 718.906 1151.66 719.232 1151.66 719.883C1151.66 720.534 1152.45 720.859 1154.03 720.859ZM1173.22 722.842H1170.34V717.803C1170.34 716.963 1170.12 716.322 1169.67 715.879C1169.23 715.43 1168.61 715.205 1167.8 715.205C1166.99 715.205 1166.37 715.443 1165.93 715.918C1165.49 716.4 1165.27 717.028 1165.27 717.803V722.842H1162.38V712.842H1165.27V714.502H1165.43C1165.5 714.346 1165.66 714.131 1165.89 713.857C1166.09 713.636 1166.31 713.447 1166.54 713.291C1166.8 713.109 1167.16 712.956 1167.61 712.832C1168.06 712.708 1168.53 712.646 1169.03 712.646C1170.28 712.646 1171.3 713.008 1172.07 713.73C1172.84 714.46 1173.22 715.55 1173.22 717.002V722.842ZM1175.52 720.02C1175.52 718.991 1175.94 718.219 1176.79 717.705C1177.64 717.197 1178.71 716.943 1180 716.943C1180.67 716.943 1181.27 717.012 1181.81 717.148C1182.34 717.298 1182.71 717.435 1182.92 717.559L1183.24 717.783V716.318C1183.24 715.889 1183.08 715.527 1182.76 715.234C1182.43 714.948 1181.89 714.805 1181.12 714.805C1180.58 714.805 1180.09 714.906 1179.66 715.107C1179.21 715.316 1178.99 715.635 1178.99 716.064H1176.03C1176.03 714.925 1176.5 714.069 1177.41 713.496C1178.33 712.93 1179.56 712.646 1181.12 712.646C1182.71 712.646 1183.93 712.952 1184.81 713.564C1185.69 714.176 1186.12 715.094 1186.12 716.318V719.443C1186.12 719.847 1186.17 720.127 1186.27 720.283C1186.37 720.439 1186.54 720.518 1186.78 720.518L1187.2 720.439V722.842C1186.95 722.972 1186.54 723.037 1185.96 723.037C1185.21 723.037 1184.64 722.874 1184.26 722.549C1183.91 722.269 1183.7 722.012 1183.61 721.777L1183.55 721.641H1183.4C1183.4 721.667 1183.37 721.725 1183.3 721.816C1183.24 721.901 1183.11 722.018 1182.92 722.168C1182.74 722.318 1182.52 722.451 1182.27 722.568C1181.6 722.881 1180.73 723.037 1179.66 723.037C1178.48 723.037 1177.49 722.78 1176.7 722.266C1175.91 721.758 1175.52 721.009 1175.52 720.02ZM1180.84 720.859C1181.36 720.859 1181.82 720.794 1182.23 720.664C1182.62 720.54 1182.89 720.413 1183.04 720.283L1183.24 720.098V719.502C1183.19 719.45 1183.12 719.395 1183.04 719.336C1182.93 719.264 1182.67 719.176 1182.27 719.072C1181.84 718.962 1181.36 718.906 1180.84 718.906C1179.27 718.906 1178.48 719.232 1178.48 719.883C1178.48 720.534 1179.27 720.859 1180.84 720.859Z" fill="#272727"/>
<path d="M1096.42 739.33L1093.72 741.457V739.55L1096.57 737.238H1098.12V749.842H1096.42V739.33ZM1115.77 749.842H1113.71L1111.44 742.679H1111.36L1109.09 749.842H1107.03L1104.42 741.018H1105.98L1108.06 748.146H1108.13L1110.39 741.018H1112.41L1114.67 748.146H1114.75L1116.82 741.018H1118.38L1115.77 749.842ZM1119.75 747.372C1119.75 746.47 1120.13 745.802 1120.9 745.368C1121.66 744.94 1122.64 744.727 1123.83 744.727C1124.44 744.727 1125 744.8 1125.52 744.946C1126.06 745.099 1126.44 745.242 1126.65 745.377L1127 745.597V744.208C1127 743.61 1126.78 743.142 1126.34 742.802C1125.9 742.456 1125.24 742.283 1124.35 742.283C1122.59 742.283 1121.71 742.764 1121.71 743.725H1120.16C1120.16 742.752 1120.56 742.028 1121.34 741.554C1122.12 741.079 1123.13 740.842 1124.35 740.842C1125.58 740.842 1126.59 741.129 1127.37 741.703C1128.14 742.283 1128.54 743.118 1128.54 744.208V747.416C1128.54 747.861 1128.6 748.172 1128.72 748.348C1128.84 748.518 1129.03 748.603 1129.3 748.603C1129.53 748.603 1129.69 748.57 1129.76 748.506L1129.8 748.488V749.877C1129.62 749.971 1129.35 750.018 1129.01 750.018C1128.42 750.018 1127.99 749.892 1127.71 749.64C1127.49 749.452 1127.32 749.256 1127.22 749.051L1127.17 748.945H1127.1C1126.96 749.092 1126.81 749.215 1126.65 749.314C1126.47 749.438 1126.27 749.546 1126.06 749.64C1125.48 749.892 1124.78 750.018 1123.96 750.018C1122.71 750.018 1121.69 749.804 1120.91 749.376C1120.13 748.954 1119.75 748.286 1119.75 747.372ZM1124.18 746.168C1122.28 746.168 1121.33 746.569 1121.33 747.372C1121.33 748.181 1122.28 748.585 1124.18 748.585C1124.75 748.585 1125.26 748.523 1125.72 748.4C1126.18 748.289 1126.49 748.184 1126.66 748.084C1126.82 748.002 1126.93 747.929 1127 747.864V746.854C1126.93 746.789 1126.82 746.716 1126.66 746.634C1126.46 746.54 1126.15 746.44 1125.73 746.335C1125.28 746.224 1124.76 746.168 1124.18 746.168ZM1136.39 740.842C1136.74 740.842 1137.05 740.877 1137.32 740.947L1137.45 740.965V742.661C1137.11 742.544 1136.67 742.482 1136.12 742.477C1135.17 742.477 1134.42 742.778 1133.88 743.382C1133.33 743.985 1133.06 744.741 1133.06 745.649V749.842H1131.51V741.018H1133.06V742.731H1133.15C1133.24 742.544 1133.38 742.324 1133.58 742.072C1133.76 741.85 1133.96 741.656 1134.19 741.492C1134.44 741.316 1134.76 741.164 1135.15 741.035C1135.55 740.906 1135.96 740.842 1136.39 740.842ZM1148.28 745.43L1148.23 746.168H1140.26C1140.26 746.672 1140.56 747.199 1141.16 747.75C1141.75 748.307 1142.54 748.585 1143.54 748.585C1144.27 748.585 1144.87 748.447 1145.34 748.172C1145.73 747.938 1146 747.727 1146.15 747.539L1146.22 747.416H1148.04C1148 747.504 1147.96 747.595 1147.92 747.688C1147.85 747.823 1147.7 748.031 1147.49 748.312C1147.26 748.611 1147 748.878 1146.69 749.112C1146.4 749.341 1145.97 749.549 1145.4 749.736C1144.86 749.924 1144.24 750.018 1143.54 750.018C1142.08 750.018 1140.89 749.602 1139.99 748.77C1139.07 747.938 1138.61 746.824 1138.61 745.43C1138.61 744.047 1139.06 742.937 1139.98 742.099C1140.89 741.261 1142.04 740.842 1143.45 740.842C1144.84 740.842 1146 741.261 1146.92 742.099C1147.83 742.937 1148.28 744.047 1148.28 745.43ZM1145.79 743.118C1145.2 742.562 1144.42 742.283 1143.45 742.283C1142.46 742.283 1141.69 742.562 1141.11 743.118C1140.53 743.675 1140.24 744.223 1140.24 744.762H1146.65C1146.65 744.223 1146.36 743.675 1145.79 743.118ZM1159.49 749.842H1157.94V745.289C1157.94 744.258 1157.68 743.499 1157.16 743.013C1156.64 742.526 1155.94 742.283 1155.06 742.283C1154.13 742.283 1153.42 742.559 1152.93 743.109C1152.43 743.66 1152.19 744.387 1152.19 745.289V749.842H1150.64V737.238H1152.19V742.371H1152.27C1152.4 742.172 1152.54 741.993 1152.7 741.835C1152.9 741.659 1153.1 741.504 1153.31 741.369C1153.55 741.223 1153.87 741.1 1154.27 741C1154.67 740.895 1155.08 740.842 1155.52 740.842C1156.65 740.842 1157.6 741.182 1158.36 741.861C1159.11 742.547 1159.49 743.569 1159.49 744.929V749.842ZM1163.11 748.761C1162.2 747.923 1161.74 746.812 1161.74 745.43C1161.74 744.053 1162.2 742.942 1163.11 742.099C1164.02 741.261 1165.18 740.842 1166.58 740.842C1167.98 740.842 1169.13 741.261 1170.05 742.099C1170.96 742.942 1171.42 744.053 1171.42 745.43C1171.42 746.812 1170.96 747.923 1170.05 748.761C1169.13 749.599 1167.98 750.018 1166.58 750.018C1165.18 750.018 1164.02 749.599 1163.11 748.761ZM1168.95 747.697C1169.54 747.105 1169.83 746.35 1169.83 745.43C1169.83 744.51 1169.54 743.754 1168.95 743.162C1168.35 742.576 1167.57 742.283 1166.58 742.283C1165.59 742.283 1164.8 742.576 1164.22 743.162C1163.62 743.748 1163.32 744.504 1163.32 745.43C1163.32 746.355 1163.62 747.111 1164.22 747.697C1164.81 748.289 1165.6 748.585 1166.58 748.585C1167.55 748.585 1168.34 748.289 1168.95 747.697ZM1173.77 741.018H1175.32V745.579C1175.32 746.61 1175.58 747.369 1176.1 747.855C1176.62 748.342 1177.32 748.585 1178.19 748.585C1179.11 748.585 1179.82 748.307 1180.33 747.75C1180.83 747.199 1181.08 746.476 1181.08 745.579V741.018H1182.62V749.842H1181.08V748.488H1180.99C1180.87 748.676 1180.73 748.854 1180.56 749.024C1180.36 749.206 1180.16 749.361 1179.95 749.49C1179.71 749.643 1179.39 749.769 1178.99 749.868C1178.59 749.968 1178.18 750.018 1177.74 750.018C1176.6 750.018 1175.65 749.675 1174.91 748.989C1174.15 748.315 1173.77 747.299 1173.77 745.939V741.018ZM1191.97 747.231C1191.97 746.886 1191.81 746.619 1191.47 746.432C1191.13 746.238 1190.71 746.13 1190.22 746.106C1189.71 746.077 1189.16 746.024 1188.57 745.948C1187.94 745.872 1187.39 745.781 1186.92 745.676C1186.42 745.57 1186 745.333 1185.66 744.964C1185.32 744.601 1185.15 744.114 1185.15 743.505C1185.15 742.62 1185.53 741.952 1186.29 741.501C1187.04 741.062 1188.02 740.842 1189.22 740.842C1190.44 740.842 1191.43 741.088 1192.18 741.58C1192.92 742.072 1193.29 742.846 1193.29 743.9H1191.71C1191.71 743.35 1191.51 742.942 1191.11 742.679C1190.72 742.415 1190.09 742.283 1189.22 742.283C1187.56 742.283 1186.74 742.69 1186.74 743.505C1186.74 743.839 1186.91 744.094 1187.25 744.27C1187.58 744.451 1188 744.554 1188.5 744.577C1188.96 744.601 1189.52 744.65 1190.15 744.727C1190.76 744.809 1191.31 744.905 1191.8 745.017C1192.3 745.14 1192.72 745.386 1193.06 745.755C1193.4 746.136 1193.56 746.628 1193.56 747.231C1193.56 747.888 1193.36 748.433 1192.94 748.866C1192.53 749.294 1192.01 749.593 1191.39 749.763C1190.79 749.933 1190.08 750.018 1189.26 750.018C1187.54 750.018 1186.32 749.596 1185.58 748.752C1185.17 748.271 1184.96 747.674 1184.96 746.959V746.678H1186.54V746.959C1186.54 748.037 1187.45 748.576 1189.26 748.576C1191.07 748.588 1191.97 748.14 1191.97 747.231ZM1205.22 745.43L1205.17 746.168H1197.19C1197.19 746.672 1197.49 747.199 1198.09 747.75C1198.68 748.307 1199.48 748.585 1200.47 748.585C1201.21 748.585 1201.81 748.447 1202.27 748.172C1202.66 747.938 1202.93 747.727 1203.08 747.539L1203.15 747.416H1204.97C1204.94 747.504 1204.9 747.595 1204.86 747.688C1204.78 747.823 1204.64 748.031 1204.43 748.312C1204.2 748.611 1203.93 748.878 1203.63 749.112C1203.33 749.341 1202.9 749.549 1202.34 749.736C1201.8 749.924 1201.18 750.018 1200.47 750.018C1199.01 750.018 1197.83 749.602 1196.92 748.77C1196 747.938 1195.54 746.824 1195.54 745.43C1195.54 744.047 1196 742.937 1196.91 742.099C1197.82 741.261 1198.98 740.842 1200.38 740.842C1201.78 740.842 1202.94 741.261 1203.86 742.099C1204.76 742.937 1205.22 744.047 1205.22 745.43ZM1202.72 743.118C1202.14 742.562 1201.36 742.283 1200.38 742.283C1199.4 742.283 1198.62 742.562 1198.05 743.118C1197.47 743.675 1197.18 744.223 1197.18 744.762H1203.58C1203.58 744.223 1203.3 743.675 1202.72 743.118ZM1214.11 740.666V741.018H1216.7V742.424H1214.11V749.842H1212.56V742.424H1211.08V741.562L1212.56 741.018V740.464C1212.56 739.333 1212.87 738.483 1213.51 737.915C1214.13 737.347 1214.98 737.062 1216.06 737.062C1216.37 737.062 1216.69 737.104 1217 737.186C1217.32 737.273 1217.56 737.353 1217.71 737.423L1217.93 737.546V738.935C1217.54 738.589 1217 738.416 1216.32 738.416C1215.59 738.416 1215.04 738.592 1214.67 738.943C1214.3 739.289 1214.11 739.863 1214.11 740.666ZM1219.55 748.761C1218.64 747.923 1218.18 746.812 1218.18 745.43C1218.18 744.053 1218.64 742.942 1219.55 742.099C1220.46 741.261 1221.62 740.842 1223.03 740.842C1224.42 740.842 1225.58 741.261 1226.5 742.099C1227.41 742.942 1227.86 744.053 1227.86 745.43C1227.86 746.812 1227.41 747.923 1226.5 748.761C1225.58 749.599 1224.42 750.018 1223.03 750.018C1221.62 750.018 1220.46 749.599 1219.55 748.761ZM1225.39 747.697C1225.98 747.105 1226.28 746.35 1226.28 745.43C1226.28 744.51 1225.98 743.754 1225.39 743.162C1224.8 742.576 1224.01 742.283 1223.03 742.283C1222.04 742.283 1221.25 742.576 1220.66 743.162C1220.06 743.748 1219.76 744.504 1219.76 745.43C1219.76 746.355 1220.06 747.111 1220.66 747.697C1221.25 748.289 1222.04 748.585 1223.03 748.585C1224 748.585 1224.79 748.289 1225.39 747.697ZM1230.21 741.018H1231.76V745.579C1231.76 746.61 1232.02 747.369 1232.54 747.855C1233.07 748.342 1233.76 748.585 1234.64 748.585C1235.56 748.585 1236.27 748.307 1236.77 747.75C1237.27 747.199 1237.52 746.476 1237.52 745.579V741.018H1239.07V749.842H1237.52V748.488H1237.43C1237.31 748.676 1237.17 748.854 1237 749.024C1236.81 749.206 1236.6 749.361 1236.39 749.49C1236.15 749.643 1235.83 749.769 1235.44 749.868C1235.04 749.968 1234.62 750.018 1234.19 750.018C1233.04 750.018 1232.09 749.675 1231.35 748.989C1230.59 748.315 1230.21 747.299 1230.21 745.939V741.018ZM1250.61 749.842H1249.07V745.289C1249.07 744.258 1248.81 743.499 1248.29 743.013C1247.76 742.526 1247.06 742.283 1246.18 742.283C1245.26 742.283 1244.55 742.559 1244.06 743.109C1243.56 743.66 1243.31 744.387 1243.31 745.289V749.842H1241.76V741.018H1243.31V742.371H1243.4C1243.52 742.172 1243.67 741.993 1243.83 741.835C1244.02 741.659 1244.22 741.504 1244.44 741.369C1244.68 741.223 1245 741.1 1245.39 741C1245.79 740.895 1246.21 740.842 1246.64 740.842C1247.78 740.842 1248.73 741.182 1249.49 741.861C1250.24 742.547 1250.61 743.569 1250.61 744.929V749.842ZM1260.99 737.238H1262.54V749.842H1260.99V748.523H1260.92C1260.83 748.676 1260.66 748.852 1260.42 749.051C1260.22 749.215 1260 749.364 1259.76 749.499C1259.51 749.64 1259.18 749.76 1258.77 749.859C1258.37 749.965 1257.96 750.018 1257.54 750.018C1256.21 750.018 1255.1 749.596 1254.21 748.752C1253.31 747.908 1252.86 746.801 1252.86 745.43C1252.86 744.07 1253.31 742.963 1254.21 742.107C1255.1 741.264 1256.21 740.842 1257.54 740.842C1258.25 740.842 1258.89 740.968 1259.45 741.22C1260 741.472 1260.39 741.718 1260.62 741.958L1260.92 742.336H1260.99V737.238ZM1255.34 743.171C1254.75 743.769 1254.45 744.521 1254.45 745.43C1254.45 746.344 1254.75 747.097 1255.34 747.688C1255.93 748.286 1256.73 748.585 1257.72 748.585C1258.72 748.585 1259.51 748.286 1260.11 747.688C1260.7 747.097 1260.99 746.344 1260.99 745.43C1260.99 744.492 1260.69 743.733 1260.09 743.153C1259.49 742.573 1258.7 742.283 1257.72 742.283C1256.73 742.283 1255.93 742.579 1255.34 743.171Z" fill="#436AE5"/>
</g>
<defs>
<filter id="filter0_d_5_67696" x="990.75" y="499.067" width="81.0938" height="81.0908" filterUnits="userSpaceOnUse" color-interpolation-filters="sRGB">
<feFlood flood-opacity="0" result="BackgroundImageFix"/>
<feColorMatrix in="SourceAlpha" type="matrix" values="0 0 0 0 0 0 0 0 0 0 0 0 0 0 0 0 0 0 127 0" result="hardAlpha"/>
<feOffset dy="10"/>
<feGaussianBlur stdDeviation="10"/>
<feComposite in2="hardAlpha" operator="out"/>
<feColorMatrix type="matrix" values="0 0 0 0 0.246875 0 0 0 0 0.367998 0 0 0 0 0.75 0 0 0 0.7 0"/>
<feBlend mode="normal" in2="BackgroundImageFix" result="effect1_dropShadow_5_67696"/>
<feBlend mode="normal" in="SourceGraphic" in2="effect1_dropShadow_5_67696" result="shape"/>
</filter>
<filter id="filter1_d_5_67696" x="1022" y="651.842" width="364" height="184" filterUnits="userSpaceOnUse" color-interpolation-filters="sRGB">
<feFlood flood-opacity="0" result="BackgroundImageFix"/>
<feColorMatrix in="SourceAlpha" type="matrix" values="0 0 0 0 0 0 0 0 0 0 0 0 0 0 0 0 0 0 127 0" result="hardAlpha"/>
<feOffset dy="14"/>
<feGaussianBlur stdDeviation="20"/>
<feComposite in2="hardAlpha" operator="out"/>
<feColorMatrix type="matrix" values="0 0 0 0 0.0437383 0 0 0 0 0.109346 0 0 0 0 0.316262 0 0 0 0.2 0"/>
<feBlend mode="normal" in2="BackgroundImageFix" result="effect1_dropShadow_5_67696"/>
<feBlend mode="normal" in="SourceGraphic" in2="effect1_dropShadow_5_67696" result="shape"/>
</filter>
<clipPath id="clip0_5_67696">
<rect width="1920" height="1023" fill="white" transform="translate(0 0.841797)"/>
</clipPath>
<clipPath id="clip1_5_67696">
<rect width="2549" height="1687" fill="white" transform="translate(-173 -663.158)"/>
</clipPath>
<clipPath id="clip2_5_67696">
<rect width="2549" height="1687" fill="white" transform="translate(-22.3203 -319.595)"/>
</clipPath>
</defs>
</svg>
