<svg width="1920" height="1024" viewBox="0 0 1920 1024" fill="none" xmlns="http://www.w3.org/2000/svg">
<g clip-path="url(#clip0_5_66574)">
<rect width="1920" height="1023" transform="translate(0 0.841797)" fill="#F1F4FF"/>
<g clip-path="url(#clip1_5_66574)">
<g clip-path="url(#clip2_5_66574)">
<path d="M2129.47 939.881C2125.97 907.814 2125.97 873.918 2124.31 841.685C2122.47 805.335 2116.57 769.193 2111.82 733.051L1925.99 741.369C1885.83 743.199 1845.93 741.369 1805.77 742.034C1789.13 742.325 1768.99 746.193 1752.76 740.454V741.203C1738.36 741.411 1723.63 742.118 1709.24 741.203C1707.45 741.203 1706.32 754.678 1705.62 773.186C1753.42 776.796 1801.4 777.602 1849.3 775.598C1849.83 814.61 1850.34 853.636 1850.84 892.675C1850.84 894.089 1850.84 895.795 1852.34 896.377C1853.21 896.71 1854.17 896.71 1855.04 896.377C1866.23 893.757 1872.1 903.031 1881.38 903.697C1884.5 903.697 1886.04 901.201 1889.7 902.449C1894.24 903.863 1897.19 909.811 1900.31 913.055C1903.59 916.38 1907.68 918.802 1912.17 920.084C1916.66 921.367 1921.41 921.467 1925.95 920.375C1931.86 918.836 1938.06 915.301 1943.63 917.796C1948.33 919.876 1950.29 925.324 1953.16 929.566C1957.32 935.888 1960.23 934.183 1966.14 932.311C1968.39 931.604 1971.05 928.942 1973.72 929.566C1976.38 930.19 1977.67 934.765 1980.75 936.304C1983.83 937.843 1987.53 935.555 1990.86 934.432C1999.18 931.604 2008.38 936.345 2016.41 940.421C2024.44 944.497 2034.47 947.949 2041.96 942.958C2045.74 940.421 2048.45 935.888 2052.94 935.181C2055.11 934.807 2057.31 935.43 2059.39 934.89C2062.93 933.933 2064.93 930.065 2068.26 928.61C2074.12 925.989 2080.49 931.604 2086.9 931.396C2089.96 930.809 2093.06 930.433 2096.18 930.273C2101.29 930.897 2104.5 936.096 2108.66 939.174C2111.63 941.086 2115.03 942.251 2118.55 942.569C2122.07 942.888 2125.61 942.351 2128.88 941.004L2129.92 940.505L2129.47 939.881Z" fill="white" stroke="#436AE5" stroke-linecap="round" stroke-linejoin="round"/>
<path d="M1992.53 176.985C1992.75 164.592 1990.72 152.261 1986.54 140.593C1984.25 135.326 1982.52 129.834 1981.38 124.207C1981 118.56 1981.18 112.89 1981.92 107.279C1982.91 91.0162 1979.3 74.8022 1971.51 60.4899C1968.48 54.9584 1964.48 49.2605 1963.94 42.814C1963.4 36.3674 1966.56 31.3765 1964.9 25.3875C1963.82 21.5196 1961.19 19.648 1961.11 15.3226C1961.11 8.46015 1964.81 3.42769 1962.36 -3.80906C1960.98 -7.3139 1959.25 -10.6718 1957.2 -13.8324C1943.05 -13.8324 1928.86 -14.2899 1914.72 -14.2483L1753.52 -13.4997C1732.71 -13.4997 1712.15 -13.2917 1691.43 -13.4997C1688.66 50.7993 1685.97 115.112 1683.36 179.439C1786.35 183.723 1889.58 182.849 1992.53 176.985Z" fill="white" stroke="#436AE5" stroke-linecap="round" stroke-linejoin="round"/>
<path d="M2006.8 320.057L2003.31 226.561C2003.53 222.018 2002.58 217.493 2000.56 213.419C1998.81 210.549 1996.02 208.386 1994.19 205.558C1990.03 199.361 1991.49 191.292 1992.15 183.931C1992.36 181.602 1992.44 179.314 1992.53 176.985C1889.58 182.85 1786.35 183.723 1683.36 179.481C1680.81 240.092 1678.26 300.662 1675.7 361.19L1902.98 365.349C1907.84 365.179 1912.69 365.754 1917.38 367.054C1926.03 369.966 1933.11 377.743 1942.35 377.826C1946.28 377.482 1950.17 376.744 1953.95 375.622C1971.85 372.045 1988.57 383.607 2006.09 389.596C2005.3 386.602 2004.55 383.566 2003.8 380.571C2002.87 377.422 2002.37 374.163 2002.31 370.881C2002.67 367.179 2003.42 363.526 2004.55 359.984C2007.23 346.853 2007.98 333.404 2006.8 320.057Z" fill="white" stroke="#436AE5" stroke-linecap="round" stroke-linejoin="round"/>
<path d="M2057.73 533.25C2056.14 530.927 2054.24 528.841 2052.07 527.053C2046.99 522.894 2044.66 515.616 2043.33 509.003C2041.71 501.101 2042.08 492.907 2040.67 484.963C2039.21 478.492 2037.41 472.106 2035.26 465.832C2032.8 458.179 2030.39 450.526 2027.93 442.874C2025.84 435.776 2023.27 428.828 2020.24 422.078C2018.61 419.001 2016.62 416.131 2014.91 413.095C2010.92 405.697 2007.92 397.811 2005.96 389.638C1988.45 383.649 1971.72 372.087 1953.83 375.663C1950.04 376.785 1946.15 377.524 1942.22 377.868C1933.1 377.868 1926.03 370.007 1917.25 367.096C1912.57 365.796 1907.71 365.221 1902.85 365.391L1675.57 361.231C1673.83 403.404 1672.06 445.563 1670.29 487.708C1700.96 487.209 1730.92 488.998 1761.54 490.828C1761.21 510.874 1760.75 530.935 1760.17 551.009C1766.18 551.584 1772.23 551.765 1778.27 551.55L1939.89 548.639C1982.62 547.89 2025.23 544.48 2068.01 542.733C2064.07 540.167 2060.6 536.961 2057.73 533.25Z" fill="white" stroke="#436AE5" stroke-linecap="round" stroke-linejoin="round"/>
<path d="M2105.79 643.298C2106.21 630.031 2107.08 613.145 2099.39 601.708C2094.1 593.681 2082.95 591.102 2082.03 580.164C2081.49 574.05 2085.11 568.144 2084.61 562.03C2083.91 553.172 2075.79 548.222 2067.97 542.732C2025.19 544.604 1982.58 547.89 1939.85 548.638L1778.23 551.55C1772.19 551.764 1766.15 551.584 1760.13 551.009C1758.3 614.227 1755.35 677.403 1752.35 740.579C1768.58 746.152 1788.55 742.45 1805.36 742.159C1845.52 741.452 1885.42 743.324 1925.58 741.494L2111.41 733.175C2107.18 703.41 2105.3 673.358 2105.79 643.298Z" fill="white" stroke="#436AE5" stroke-linecap="round" stroke-linejoin="round"/>
<path d="M2184.3 1112.33C2186.13 1102.34 2179.43 1093.07 2173.6 1084.79C2165.47 1074.25 2159.67 1062.1 2156.58 1049.15C2155.17 1039.6 2154.87 1029.91 2155.67 1020.29C2156.58 997.273 2156.46 974.273 2155.29 951.288C2155.39 949.474 2154.9 947.677 2153.88 946.172C2151.59 943.51 2147.35 944.675 2143.89 945.174C2141.17 945.548 2138.4 945.353 2135.76 944.601C2133.11 943.849 2130.65 942.557 2128.54 940.807C2128.16 940.807 2127.83 941.181 2127.46 941.306C2124.19 942.649 2120.65 943.185 2117.14 942.866C2113.63 942.547 2110.24 941.384 2107.27 939.476C2103.11 936.44 2100.03 931.158 2094.79 930.617C2091.63 930.783 2088.48 931.215 2085.39 931.906C2078.98 932.114 2072.61 926.458 2066.74 929.078C2063.42 930.575 2061.42 934.443 2057.88 935.358C2055.8 935.899 2053.72 935.358 2051.43 935.649C2046.94 936.357 2044.19 940.89 2040.41 943.427C2032.96 948.418 2022.89 944.966 2014.9 940.89C2006.91 936.814 1997.88 932.073 1989.35 934.942C1986.02 936.065 1982.4 938.311 1979.24 936.772C1976.07 935.234 1975.45 930.825 1972.21 930.076C1968.96 929.328 1966.88 932.073 1964.63 932.78C1958.72 934.693 1955.98 936.356 1951.65 930.035C1948.78 925.876 1946.82 920.386 1942.12 918.265C1936.54 915.769 1930.34 919.346 1924.44 920.843C1919.89 921.947 1915.13 921.853 1910.63 920.57C1906.13 919.287 1902.04 916.859 1898.76 913.523C1895.68 910.321 1892.73 904.332 1888.19 902.918C1884.36 901.712 1882.82 904.415 1879.87 904.165C1870.59 903.5 1864.72 894.267 1853.53 896.887C1852.65 897.188 1851.7 897.188 1850.83 896.887C1849.54 896.263 1849.33 894.558 1849.33 893.186C1848.83 854.146 1848.32 815.106 1847.79 776.066C1799.89 778.091 1751.91 777.286 1704.11 773.654C1702.57 812.167 1702.86 872.515 1702.82 878.795C1702.44 937.313 1703.48 995.249 1699.2 1053.48C1690.26 1054.12 1681.28 1053.87 1672.4 1052.73L1588.97 1048.03L1547.36 1045.7C1536 1045.07 1524.97 1042.41 1513.7 1044.16C1515.11 1050.02 1519.81 1052.48 1523.06 1056.93C1523.6 1057.72 1524.06 1058.63 1524.56 1059.55C1525.87 1059.68 1527.14 1060.09 1528.28 1060.74C1529.43 1061.39 1530.43 1062.28 1531.21 1063.33C1534.71 1067.49 1533.46 1075.14 1539.83 1077.1C1541.82 1077.72 1543.99 1077.35 1546.07 1077.85C1553.02 1079.51 1553.81 1088.74 1555.72 1095.61C1556.83 1099.53 1558.75 1103.17 1561.34 1106.31C1563.93 1109.46 1567.15 1112.03 1570.79 1113.87C1577.94 1117.4 1587.43 1119.02 1590.13 1126.34C1590.7 1128.86 1591.11 1131.42 1591.34 1133.99C1593.17 1143.6 1603.28 1149.55 1606.53 1158.95C1608.65 1165.02 1607.49 1171.72 1607.9 1178.16C1608.73 1192.51 1619.01 1191.35 1626.67 1199.75C1631.66 1205.16 1629.17 1215.18 1634.99 1219.8C1637.61 1221.45 1640.6 1222.44 1643.69 1222.67C1656.37 1224.93 1668.1 1230.91 1677.39 1239.84C1679.68 1242.05 1682.34 1244.63 1685.46 1244C1688.59 1243.38 1690.62 1239.59 1692.71 1236.77C1694.79 1233.94 1699.82 1232.11 1701.36 1235.31C1708.27 1229.53 1703.9 1216.3 1711.06 1210.81C1715.22 1207.73 1721.08 1208.65 1725.33 1205.82C1728.32 1203.87 1729.95 1200.33 1732.98 1198.46C1736.57 1196.77 1740.61 1196.34 1744.47 1197.25L1762.49 1199.38C1768.19 1199.41 1773.71 1201.43 1778.09 1205.07C1781.63 1208.77 1782.25 1214.26 1784.91 1218.71C1790.2 1228.07 1801.98 1231.61 1809.09 1239.51C1817.91 1249.37 1818.29 1264.46 1826.03 1275.15C1829.69 1280.23 1834.72 1284.05 1838.51 1288.92C1846.5 1298.98 1849.24 1313.33 1859.81 1320.57C1863.98 1323.36 1869.01 1324.94 1872.3 1328.89C1877.71 1335.25 1875.67 1344.78 1876.46 1353.09C1877.2 1361.62 1881.12 1369.56 1887.44 1375.34C1890.69 1378.3 1894.85 1381.17 1895.35 1385.53C1895.32 1387.89 1895.08 1390.25 1894.64 1392.56C1894.23 1400.34 1901.51 1406.16 1908.37 1409.78C1921.7 1416.24 1935.64 1421.34 1949.98 1425L1984.73 1435.15C1992.26 1437.36 2004.45 1442.43 2006.95 1435.15C2007.13 1433.96 2006.92 1432.75 2006.34 1431.7C2005.76 1430.64 2004.85 1429.81 2003.75 1429.33C2001.52 1428.42 1999.36 1427.33 1997.3 1426.09C1993.14 1422.84 1994.8 1410.53 1993.14 1405.62C1989.67 1395.45 1986.24 1385.26 1982.86 1375.05C1982.16 1373.39 1981.9 1371.57 1982.11 1369.77C1982.86 1366.57 1986.27 1364.91 1988.35 1362.29C1989.04 1361.27 1989.52 1360.12 1989.75 1358.9C1989.97 1357.69 1989.95 1356.45 1989.68 1355.25C1989.41 1354.05 1988.89 1352.91 1988.16 1351.92C1987.43 1350.93 1986.5 1350.1 1985.44 1349.48C1982.36 1347.85 1977.45 1346.73 1978.16 1343.36C1978.53 1341.49 1980.61 1340.62 1982.32 1339.91C1986.44 1338.72 1990.03 1336.17 1992.51 1332.67C1993.08 1331.79 1993.48 1330.8 1993.66 1329.77C1993.85 1328.73 1993.83 1327.67 1993.6 1326.65C1993.37 1325.62 1992.94 1324.65 1992.33 1323.79C1991.72 1322.93 1990.95 1322.21 1990.06 1321.65C1988.96 1321.33 1987.92 1320.84 1986.98 1320.2C1984.27 1317.66 1988.6 1313.46 1992.34 1313.21C1996.09 1312.96 2000.87 1313.21 2002.41 1309.88C2002.76 1308.69 2002.79 1307.43 2002.51 1306.23C2002.24 1305.02 2001.66 1303.9 2000.83 1302.98C1999.14 1301.15 1997.97 1298.89 1997.46 1296.45C1997.25 1293.95 1999.83 1291.25 2002.04 1292.29C2004.25 1293.33 2004 1296.11 2005.79 1297.24C2007.57 1298.36 2009.95 1296.95 2011.9 1295.53L2021.26 1287.88C2022.49 1287.04 2023.43 1285.85 2023.97 1284.47C2024.63 1281.89 2022.43 1279.6 2021.31 1277.23C2020.18 1274.86 2021.56 1270.74 2024.01 1271.7C2025.13 1272.12 2025.63 1273.41 2026.38 1274.28C2029.71 1278.23 2035.99 1274.7 2039.7 1271.08C2040.74 1270.12 2041.82 1268.83 2041.36 1267.5C2040.9 1266.17 2040.11 1266.09 2039.45 1265.42C2036.87 1262.84 2038.82 1258.02 2042.15 1256.52C2045.85 1255.38 2049.8 1255.28 2053.55 1256.23C2061.44 1257.72 2069.56 1257.41 2077.31 1255.31C2081.17 1254.26 2084.78 1252.45 2087.93 1249.98C2091.08 1247.52 2093.71 1244.45 2095.66 1240.97C2098.29 1235.81 2099.08 1229.69 2102.66 1225.12C2105.11 1221.96 2108.81 1219.67 2110.56 1216.05C2113.14 1210.77 2110.77 1204.32 2112.23 1198.58C2114.26 1193.17 2117.98 1188.55 2122.84 1185.4C2123.35 1184.86 2124.05 1184.55 2124.79 1184.53C2126.46 1184.53 2126.71 1186.94 2126.17 1188.69C2125.62 1190.43 2124.79 1192.06 2125.83 1193.34C2126.87 1194.63 2130.62 1193.64 2132.16 1195.34C2134.32 1197.79 2130.53 1202 2133.24 1204.12C2135.94 1206.24 2141.1 1203.33 2143.43 1202C2154.45 1195 2166.2 1189.23 2178.47 1184.78C2178.84 1172.3 2181.38 1158.87 2179.09 1146.43C2177.75 1141.75 2177.12 1136.9 2177.22 1132.04C2177.68 1125.05 2183.01 1119.27 2184.3 1112.33Z" fill="white" stroke="#436AE5" stroke-miterlimit="10"/>
<path d="M1213.07 -7.38582C1214.53 0.54715 1217.13 8.22518 1220.81 15.4058C1229.59 34.8286 1238.74 54.7921 1254.1 69.4735C1256.31 71.0778 1257.92 73.3766 1258.67 76.0032C1258.66 78.8994 1257.71 81.7133 1255.97 84.0302C1251.61 92.1094 1250.39 101.518 1252.56 110.44C1253.55 113.008 1253.84 115.793 1253.39 118.509C1252.49 120.567 1251.22 122.442 1249.65 124.04C1245.23 129.655 1248.4 132.358 1247.27 138.639C1246.5 140.853 1246.2 143.206 1246.4 145.543C1247.77 151.074 1267.95 141.966 1272.82 152.738C1274.61 156.897 1273.57 161.597 1275.28 165.673C1277.4 170.747 1283.6 173.991 1283.6 179.522C1283.6 185.054 1278.32 189.171 1279.44 194.162C1280.48 198.321 1285.51 200.068 1288.68 203.062C1291.83 206.821 1293.83 211.416 1294.42 216.288C1295.01 221.171 1297.21 225.719 1300.66 229.223C1304.28 232.134 1309.4 229.223 1313.68 229.764C1316.35 230.138 1317.51 232.134 1320.43 232.301C1323.96 232.508 1327.17 229.888 1330.87 230.304C1337.82 231.053 1343.35 240.411 1349.72 237.666C1354.5 235.628 1354.75 228.599 1358.96 225.563C1365.61 220.822 1373.9 229.722 1378.93 233.299C1378.18 225.456 1378.18 217.56 1378.93 209.717C1379.06 208.529 1379.61 207.426 1380.47 206.598C1381.13 206.087 1381.89 205.736 1382.71 205.57C1383.52 205.404 1384.37 205.428 1385.17 205.641C1483.91 215.789 1582.7 225.979 1680.9 240.328C1684.48 155.788 1688.03 71.2203 1691.55 -13.3749C1667.33 -13.666 1643.12 -14.4146 1618.94 -16.1614C1562.81 -20.3205 1507.26 -29.7616 1451.83 -39.5769C1376.27 -52.9275 1300.83 -66.694 1226.09 -83.0391C1222.68 -67.096 1219.28 -51.1668 1215.9 -35.2515C1213.4 -26.1874 1212.44 -16.7673 1213.07 -7.38582Z" fill="white" stroke="#436AE5" stroke-linecap="round" stroke-linejoin="round"/>
<path d="M892.34 2.80405C894.312 3.49281 896.104 4.61569 897.583 6.08971C903.45 11.1222 909.609 16.6537 911.398 24.14C912.605 29.0893 911.689 34.2881 912.563 39.3206C913.437 44.353 917.182 49.5934 922.259 49.2191C925.005 49.2191 927.46 47.2228 930.206 47.2228C935.408 47.2228 938.528 53.2534 943.688 54.5011C948.848 55.7488 954.382 51.4234 959.667 52.588C964.951 53.7525 968.863 61.2804 974.813 61.3636C978.267 61.3636 981.221 58.9097 984.592 58.2027C992.581 56.5806 998.864 64.9404 1006.56 67.4774C1015.18 70.264 1025.41 65.6474 1033.23 70.1392C1037.02 72.2603 1039.89 76.3777 1044.22 76.8768C1047.77 76.6404 1051.23 75.6628 1054.37 74.0071C1060.63 72.7142 1067.13 73.2928 1073.06 75.6707L1110.17 86.5674C1123.08 90.6923 1136.28 93.8344 1149.66 95.9669C1157.23 32.4581 1171.3 -30.0525 1186.07 -92.3136C1110.22 -109.509 1035.43 -131.089 962.08 -156.945C956.047 -147.379 972.649 -136.15 969.404 -125.42C968.197 -121.51 964.535 -118.64 963.745 -114.606C962.122 -106.288 973.523 -99.4671 971.651 -91.2322C970.444 -85.9502 964.452 -83.3716 961.539 -78.755C957.378 -72.1006 962.122 -64.7806 959.584 -58.3757C957.378 -52.7193 949.514 -48.186 944.52 -44.9003C943.06 -43.8501 941.405 -43.1008 939.652 -42.696C933.743 -41.781 929.374 -48.7683 929.832 -54.7157C929.821 -56.0615 930.277 -57.3695 931.122 -58.4173C932.953 -60.4552 936.157 -59.8313 938.861 -59.9145C944.312 -59.9145 952.635 -64.9054 951.636 -71.2687C950.845 -76.1764 943.064 -77.133 943.314 -82.415C943.314 -86.9484 949.847 -88.0713 952.468 -91.7313C953.391 -93.3253 953.783 -95.171 953.589 -97.0024C953.395 -98.8338 952.623 -100.556 951.386 -101.921C948.865 -104.592 945.8 -106.691 942.398 -108.076L892.049 -132.74C889.537 -134.264 886.665 -135.096 883.727 -135.152C875.405 -134.403 873.449 -122.675 873.99 -114.357L876.986 -68.2742C876.982 -66.2308 877.437 -64.2124 878.318 -62.3684C879.691 -59.9145 882.479 -58.2093 882.812 -55.4227C883.02 -51.8875 878.65 -49.7664 877.569 -46.4808C874.947 -39.4935 886.39 -31.3418 881.48 -25.6855C879.774 -23.6891 876.653 -23.398 874.905 -21.5264C872.367 -18.6151 874.073 -14.0401 876.487 -11.0456C879.331 -8.43683 881.379 -5.07741 882.395 -1.35501C882.154 -1.48311 881.904 -1.5943 881.646 -1.68774C883.218 0.0775909 885.227 1.39742 887.472 2.13858C888.928 2.80403 890.676 2.51292 892.34 2.80405Z" fill="white" stroke="#436AE5" stroke-linecap="round" stroke-linejoin="round"/>
<path d="M1125.23 225.106C1126.64 219.432 1126.26 213.464 1124.15 208.012C1123.07 205.808 1121.45 203.853 1120.36 201.649C1116.2 192.749 1122.32 182.517 1129.14 175.488C1135.97 168.46 1144.29 161.556 1145.79 151.823C1145.81 148.221 1146.26 144.633 1147.12 141.135C1149.16 135.811 1155.07 132.817 1158.19 128.2C1163.72 119.882 1159.14 108.403 1152.78 100.584C1151.53 99.045 1150.16 97.5061 1148.62 95.9673C1135.57 93.8209 1122.69 90.7352 1110.09 86.7342L1072.97 75.8375C1067.04 73.4595 1060.54 72.8809 1054.29 74.1739C1051.14 75.8296 1047.68 76.8072 1044.13 77.0436C1039.97 76.5445 1036.93 72.4271 1033.15 70.306C1025.32 65.8142 1015.09 70.3059 1006.47 67.6441C998.777 65.1071 992.493 56.7474 984.504 58.3695C981.134 59.0765 978.179 61.6135 974.726 61.5304C968.775 61.5304 965.405 54.0025 959.579 52.7547C953.754 51.507 948.885 55.9572 943.601 54.6679C938.316 53.3786 935.279 47.348 930.119 47.3896C927.372 47.3896 924.917 49.2195 922.171 49.3859C917.095 49.7602 913.35 44.4782 912.476 39.4874C911.602 34.4965 912.476 29.2561 911.311 24.3068C909.521 16.8205 903.363 11.289 897.496 6.25651C896.017 4.78249 894.225 3.65961 892.253 2.97085C890.588 2.51335 888.841 2.67972 887.176 2.26382C884.932 1.52265 882.922 0.20279 881.351 -1.56254C878.981 -2.34847 876.425 -2.36973 874.043 -1.62333C871.66 -0.876941 869.573 0.599299 868.077 2.59652C865.034 6.91021 863.013 11.8598 862.168 17.07C852.385 56.034 837.631 93.5792 818.269 128.782C811.153 141.717 803.414 154.36 797.463 167.919C794.343 175.239 796.173 179.772 793.011 187.051C788.745 197.168 786.783 208.107 787.269 219.075C787.789 223.677 787.789 228.323 787.269 232.925C786.355 236.47 785.187 239.945 783.773 243.323C887.383 281.729 992.943 314.659 1100.02 341.975C1101.43 301.924 1118.95 264.492 1125.23 225.106Z" fill="white" stroke="#436AE5" stroke-linecap="round" stroke-linejoin="round"/>
<path d="M1125.36 926.115C1125.48 922.236 1124.66 918.385 1122.99 914.885C1120.99 909.18 1119.74 903.238 1119.28 897.209C1118.99 895.481 1119.25 893.706 1120.03 892.135C1121.25 890.723 1122.73 889.565 1124.4 888.725C1131.22 883.901 1131.1 873.461 1136.51 867.098C1140.05 862.939 1145.54 861.026 1150.03 857.906C1154.53 854.787 1158.35 849.172 1156.23 844.14C1154.69 840.48 1150.66 838.733 1147.7 836.113C1139.75 829.042 1140.63 818.811 1141.75 808.247C1110.17 765.834 1080.99 721.678 1054.37 675.989C1034.23 642.301 1011.51 610.276 989.04 578.127C970.024 550.968 951.174 524.059 932.699 496.568C931.681 495.269 930.957 493.765 930.577 492.159C930.37 490.906 930.37 489.627 930.577 488.374C935.82 455.102 941.604 423.077 949.302 390.428C955.96 362.064 962.507 333.685 968.942 305.293C906.554 286.494 844.803 265.782 783.691 243.156C782.67 245.806 782.202 248.637 782.318 251.474C782.734 256.507 785.979 261.04 785.979 266.073C785.979 273.642 778.864 279.215 776.284 286.327C773.496 294.229 776.284 303.587 772.706 311.282C769.127 318.976 759.473 322.054 755.354 329.415C751.234 336.777 753.481 346.051 757.226 353.496C760.971 360.941 766.131 368.011 767.962 376.204C769.065 382.269 769.065 388.482 767.962 394.546C764.675 418.294 757.767 444.455 770.5 464.792C774.661 471.322 784.232 477.644 780.986 484.673C778.22 491.035 777.592 498.123 779.198 504.872C780.803 511.621 784.555 517.667 789.891 522.104C794.426 519.484 803.165 508.462 802.832 520.981L802.457 537.326C802.505 537.956 802.311 538.58 801.916 539.073C801.431 539.408 800.834 539.542 800.252 539.447C793.677 539.447 791.93 539.988 791.389 546.934C790.798 553.741 791.657 560.597 793.909 567.049C796.161 573.501 799.755 579.402 804.455 584.365C809.781 589.938 816.938 596.135 815.19 603.622C813.553 607.126 811.544 610.444 809.198 613.52C805.578 620.258 807.784 628.659 811.362 635.48C814.941 642.301 819.684 648.498 821.64 655.943C822.282 661.295 823.381 666.582 824.927 671.747C826.645 674.998 828.77 678.017 831.252 680.731C838.544 689.797 843.808 700.32 846.69 711.591C847.946 716.023 848.466 720.632 848.229 725.233C847.563 733.551 843.153 741.869 844.526 750.187C846.648 763.08 861.17 769.734 873.945 772.23C879.866 772.86 885.614 774.61 890.88 777.387C895.078 780.446 898.581 784.358 901.158 788.866C908.149 799.513 915.264 811.408 927.248 815.858C933.074 818.063 940.73 819.102 942.686 825.05C943.809 828.377 942.686 832.287 943.976 835.489C946.015 840.147 952.298 840.854 956.958 842.476C970.315 847.051 976.682 861.899 981.509 875.208C984.838 884.233 988.166 893.882 986.252 903.323C985.295 907.815 984.297 914.345 988.749 915.426L992.91 910.685C993.625 917.22 994.864 923.687 996.613 930.024C1033.37 932.964 1070.11 937.206 1106.84 942.751C1106.26 942.751 1106.09 943.042 1106.26 943.708C1107.52 942.542 1108.91 941.536 1110.42 940.713C1116.45 937.012 1124.32 933.31 1125.36 926.115Z" fill="#74B1FA" stroke="#436AE5" stroke-linecap="round" stroke-linejoin="round"/>
<path d="M1377.19 269.982C1378.92 257.497 1379.23 244.855 1378.1 232.301C1373.03 228.391 1365.62 221.113 1359.38 225.48C1355.22 228.516 1354.92 235.545 1350.14 237.583C1343.69 240.328 1338.24 230.97 1331.29 230.221C1327.59 229.805 1324.38 232.425 1320.85 232.217C1317.93 232.217 1316.68 230.055 1314.1 229.68C1309.94 229.098 1304.7 232.051 1301.08 229.14C1297.63 225.636 1295.43 221.088 1294.84 216.205C1294.25 211.333 1292.25 206.738 1289.1 202.979C1285.93 199.985 1280.77 198.321 1279.86 194.079C1278.61 189.088 1284.02 184.596 1284.02 179.439C1284.02 174.282 1277.69 170.663 1275.7 165.589C1273.99 161.43 1275.03 156.647 1273.24 152.655C1268.37 141.883 1248.28 150.991 1246.82 145.46C1246.62 143.122 1246.92 140.77 1247.69 138.556C1248.82 132.359 1245.65 129.572 1250.07 123.957C1251.64 122.359 1252.91 120.484 1253.81 118.426C1254.26 115.71 1253.97 112.925 1252.98 110.357C1250.81 101.435 1252.03 92.0263 1256.39 83.9471C1258.13 81.6302 1259.08 78.8164 1259.09 75.9202C1258.34 73.2936 1256.73 70.9948 1254.52 69.3905C1239 54.7922 1229.84 34.8287 1221.23 15.3227C1217.55 8.14212 1214.95 0.46405 1213.49 -7.46892C1212.81 -16.8709 1213.73 -26.3198 1216.19 -35.4178C1219.61 -51.3331 1223 -67.2623 1226.39 -83.2053C1213.07 -86.1167 1199.77 -89.125 1186.48 -92.2305C1171.71 -29.8446 1157.65 32.5412 1150.07 96.05H1149.12C1150.49 97.5888 1151.86 99.1277 1153.28 100.667C1159.64 108.486 1164.22 119.881 1158.69 128.283C1155.57 133.066 1149.66 135.894 1147.62 141.217C1146.76 144.715 1146.31 148.303 1146.29 151.906C1144.87 161.638 1136.55 168.542 1129.64 175.571C1122.74 182.6 1116.7 192.831 1120.86 201.732C1121.95 203.936 1123.57 205.891 1124.65 208.095C1126.76 213.547 1127.14 219.515 1125.73 225.189C1119.57 263.577 1102.85 300.052 1100.77 338.856C1104.9 340.371 1109.14 341.566 1113.46 342.432L1359.67 395.128V395.502C1363.83 378.866 1365.7 361.481 1368.28 344.263C1372.15 319.599 1374.56 294.811 1377.19 269.982Z" fill="white" stroke="#436AE5" stroke-linecap="round" stroke-linejoin="round"/>
<path d="M1385.05 205.475C1384.25 205.305 1383.42 205.318 1382.63 205.512C1381.84 205.707 1381.1 206.078 1380.47 206.598C1379.77 207.518 1379.4 208.646 1379.43 209.801C1378.68 217.644 1378.68 225.54 1379.43 233.383C1378.99 233.105 1378.58 232.799 1378.18 232.468C1379.31 245.022 1379 257.664 1377.27 270.149C1374.64 295.103 1372.02 319.766 1368.32 344.429C1365.74 361.648 1363.91 378.866 1359.71 395.669C1357.88 415.522 1356.03 435.388 1354.17 455.268C1452.04 471.024 1550.64 481.755 1649.61 487.418C1656.54 488.04 1663.53 487.845 1670.41 486.835C1673.85 404.653 1677.29 322.483 1680.73 240.328C1582.57 225.813 1483.79 215.623 1385.05 205.475Z" fill="white" stroke="#436AE5" stroke-linecap="round" stroke-linejoin="round"/>
<path d="M1138.5 747.94C1137.71 742.409 1136.92 735.796 1141.17 732.136C1148.99 725.44 1160.97 737.834 1170.75 734.59C1177.7 732.344 1179.78 723.735 1180.78 716.539C1188.52 660.018 1192.68 602.748 1202.5 546.725L1219.98 446.908C1224.68 420.165 1230.17 394.337 1231.01 367.636L1112.96 342.391C1108.64 341.525 1104.4 340.329 1100.26 338.814C1100.26 339.812 1100.26 340.81 1100.26 341.809C1056.27 330.718 1012.55 318.546 969.107 305.292C962.643 333.712 956.096 362.091 949.466 390.428C941.768 423.076 935.984 455.184 930.741 488.374C930.534 489.627 930.534 490.905 930.741 492.158C931.121 493.764 931.845 495.268 932.863 496.567C951.339 524.1 970.313 550.967 989.205 578.126C1011.67 610.276 1034.39 642.3 1054.53 675.989C1079.61 718.802 1106.87 760.295 1136.22 800.303C1140.35 783.159 1141.12 765.379 1138.5 747.94Z" fill="white" stroke="#436AE5" stroke-linecap="round" stroke-linejoin="round"/>
<path d="M1420.42 715.791C1409.33 835.295 1399.03 954.867 1389.55 1074.51C1403.11 1076.21 1416.68 1077.84 1430.37 1079C1433.49 1079.05 1436.56 1079.81 1439.36 1081.21C1440.57 1070.61 1441.01 1059.93 1440.65 1049.26L1518.87 1058.58C1521.58 1058.91 1523.74 1058.91 1525.66 1059.16C1525.21 1058.26 1524.71 1057.38 1524.16 1056.54C1520.91 1051.97 1516.21 1049.68 1514.8 1043.77C1526.07 1042.07 1537.1 1044.73 1548.5 1045.35L1590.11 1047.68L1673.54 1052.34C1682.42 1053.5 1691.4 1053.75 1700.34 1053.09C1704.5 994.864 1703.58 936.886 1704 878.41C1704 869.635 1703.46 755.427 1708.16 742.492C1700.17 740.263 1691.91 739.158 1683.61 739.207C1595.48 735.962 1507.8 727.395 1420.42 715.791Z" fill="white" stroke="#436AE5" stroke-linecap="round" stroke-linejoin="round"/>
<path d="M1670.41 487.667V486.668C1663.53 487.678 1656.54 487.873 1649.61 487.251C1581.23 483.341 1513.06 476.992 1445.09 468.202C1436.35 550.718 1428.03 633.247 1420.12 715.791C1507.51 727.395 1595.18 735.962 1683.23 739.165C1691.53 739.116 1699.79 740.222 1707.78 742.45C1708.07 741.702 1708.36 741.244 1708.65 741.244C1723.05 742.201 1737.78 741.494 1752.18 741.244C1756.34 657.772 1760.09 574.3 1761.38 490.744C1731.04 488.956 1701.08 487.167 1670.41 487.667Z" fill="white" stroke="#436AE5" stroke-linecap="round" stroke-linejoin="round"/>
<path d="M1185.48 678.775C1184.03 691.253 1182.49 703.979 1180.78 716.54C1179.78 723.735 1177.7 732.344 1170.75 734.59C1160.97 737.834 1148.99 725.44 1141.17 732.136C1137.01 735.796 1137.71 742.409 1138.5 747.941C1140.99 765.39 1140.09 783.155 1135.84 800.261C1137.84 802.923 1139.75 805.585 1141.75 808.205C1140.63 818.769 1139.75 829.001 1147.7 836.071C1150.65 838.691 1154.69 840.23 1156.23 844.098C1158.39 849.13 1154.52 854.787 1150.03 857.864C1145.54 860.942 1140.04 862.897 1136.51 867.056C1131.1 873.419 1131.22 883.692 1124.4 888.683C1122.73 889.523 1121.25 890.681 1120.03 892.093C1119.25 893.664 1118.99 895.439 1119.28 897.167C1119.74 903.196 1120.98 909.138 1122.98 914.843C1124.66 918.343 1125.47 922.194 1125.35 926.073C1124.31 933.31 1116.45 937.011 1110.21 940.796C1108.7 941.619 1107.31 942.625 1106.05 943.79C1108.56 948.865 1111.86 953.511 1115.83 957.557C1134.47 970.325 1154.65 981.305 1173.75 993.782C1206.12 1014.87 1237.87 1037.87 1271.24 1057.37C1286.93 1066.57 1304.82 1064.61 1322.46 1066.32C1344.89 1068.52 1367.07 1071.64 1389.33 1074.63C1398.65 954.992 1408.95 835.419 1420.21 715.916C1341.86 705.393 1263.54 692.5 1185.48 678.775Z" fill="white" stroke="#436AE5" stroke-linecap="round" stroke-linejoin="round"/>
<path d="M1445.18 468.202C1414.66 464.293 1384.3 459.926 1354.09 455.101C1355.98 435.082 1357.84 415.091 1359.67 395.128L1231.01 367.595C1230.17 394.296 1224.68 420.124 1219.98 446.866L1202.5 546.684C1194.85 590.271 1190.64 634.606 1185.48 678.734C1263.55 692.459 1341.86 705.352 1420.42 715.749C1428.21 633.206 1436.47 550.69 1445.18 468.202Z" fill="white" stroke="#436AE5" stroke-linecap="round" stroke-linejoin="round"/>
</g>
<g filter="url(#filter0_d_5_66574)">
<ellipse cx="829.687" cy="573.52" rx="20.5231" ry="20.521" fill="white"/>
<path d="M847.21 573.52C847.21 583.196 839.365 591.041 829.687 591.041C820.009 591.041 812.164 583.196 812.164 573.52C812.164 563.844 820.009 555.999 829.687 555.999C839.365 555.999 847.21 563.844 847.21 573.52Z" stroke="#FF7D01" stroke-width="6"/>
</g>
<g filter="url(#filter1_d_5_66574)">
<ellipse cx="917.476" cy="695.506" rx="20.5231" ry="20.521" fill="white"/>
<path d="M934.999 695.506C934.999 705.183 927.154 713.027 917.476 713.027C907.798 713.027 899.953 705.183 899.953 695.506C899.953 685.83 907.798 677.985 917.476 677.985C927.154 677.985 934.999 685.83 934.999 695.506Z" stroke="#FF7D01" stroke-width="6"/>
</g>
<g filter="url(#filter2_d_5_66574)">
<ellipse cx="896.953" cy="774.169" rx="20.5231" ry="20.521" fill="white"/>
<path d="M914.476 774.169C914.476 783.846 906.631 791.69 896.953 791.69C887.275 791.69 879.43 783.846 879.43 774.169C879.43 764.493 887.275 756.648 896.953 756.648C906.631 756.648 914.476 764.493 914.476 774.169Z" stroke="#FF7D01" stroke-width="6"/>
</g>
<g filter="url(#filter3_d_5_66574)">
<ellipse cx="931.164" cy="779.871" rx="20.5231" ry="20.521" fill="white"/>
<path d="M948.687 779.871C948.687 789.547 940.842 797.392 931.164 797.392C921.486 797.392 913.641 789.547 913.641 779.871C913.641 770.194 921.486 762.35 931.164 762.35C940.842 762.35 948.687 770.194 948.687 779.871Z" stroke="#FF7D01" stroke-width="6"/>
</g>
<g filter="url(#filter4_d_5_66574)">
<ellipse cx="931.164" cy="800.391" rx="20.5231" ry="20.521" fill="white"/>
<path d="M948.687 800.391C948.687 810.067 940.842 817.912 931.164 817.912C921.486 817.912 913.641 810.067 913.641 800.391C913.641 790.715 921.486 782.87 931.164 782.87C940.842 782.87 948.687 790.715 948.687 800.391Z" stroke="#FF7D01" stroke-width="6"/>
</g>
<g filter="url(#filter5_d_5_66574)">
<ellipse cx="951.687" cy="794.691" rx="20.5231" ry="20.521" fill="white"/>
<path d="M969.21 794.691C969.21 804.367 961.365 812.212 951.687 812.212C942.009 812.212 934.164 804.367 934.164 794.691C934.164 785.015 942.009 777.17 951.687 777.17C961.365 777.17 969.21 785.015 969.21 794.691Z" stroke="#FF7D01" stroke-width="6"/>
</g>
<g filter="url(#filter6_d_5_66574)">
<ellipse cx="961.945" cy="818.632" rx="20.5231" ry="20.521" fill="white"/>
<path d="M979.468 818.632C979.468 828.309 971.623 836.153 961.945 836.153C952.267 836.153 944.422 828.309 944.422 818.632C944.422 808.956 952.267 801.111 961.945 801.111C971.623 801.111 979.468 808.956 979.468 818.632Z" stroke="#FF7D01" stroke-width="6"/>
</g>
<g filter="url(#filter7_d_5_66574)">
<ellipse cx="1012.12" cy="907.556" rx="20.5231" ry="20.521" fill="white"/>
<path d="M1029.64 907.556C1029.64 917.232 1021.79 925.077 1012.12 925.077C1002.44 925.077 994.594 917.232 994.594 907.556C994.594 897.88 1002.44 890.035 1012.12 890.035C1021.79 890.035 1029.64 897.88 1029.64 907.556Z" stroke="#FF7D01" stroke-width="6"/>
</g>
<g filter="url(#filter8_d_5_66574)">
<ellipse cx="870.734" cy="521.078" rx="20.5231" ry="20.521" fill="white"/>
<path d="M888.257 521.078C888.257 530.754 880.412 538.599 870.734 538.599C861.056 538.599 853.211 530.754 853.211 521.078C853.211 511.401 861.056 503.557 870.734 503.557C880.412 503.557 888.257 511.401 888.257 521.078Z" stroke="#FF7D01" stroke-width="6"/>
</g>
</g>
<g filter="url(#filter9_d_5_66574)">
<rect x="982" y="427.842" width="284" height="104" rx="25" fill="white"/>
</g>
<path d="M1016.16 471.094C1014.86 469.805 1014.2 468.053 1014.2 465.84C1014.2 463.633 1014.86 461.878 1016.16 460.576C1017.47 459.287 1019.23 458.643 1021.46 458.643C1023.59 458.643 1025.31 459.189 1026.61 460.283C1027.91 461.377 1028.56 462.751 1028.56 464.404H1025.18C1025.17 464.326 1025.15 464.219 1025.12 464.082C1025.09 463.939 1025 463.701 1024.85 463.369C1024.68 463.024 1024.47 462.725 1024.24 462.471C1024 462.21 1023.64 461.973 1023.16 461.758C1022.66 461.549 1022.1 461.445 1021.46 461.445C1020.2 461.445 1019.23 461.859 1018.54 462.686C1017.85 463.512 1017.5 464.564 1017.5 465.84C1017.5 467.116 1017.85 468.171 1018.55 469.004C1019.24 469.831 1020.21 470.244 1021.46 470.244C1022.07 470.244 1022.62 470.146 1023.12 469.951C1023.61 469.756 1023.99 469.505 1024.25 469.199C1024.77 468.587 1025.06 468.047 1025.12 467.578L1025.18 467.285H1028.56C1028.56 468.945 1027.91 470.316 1026.61 471.396C1025.31 472.49 1023.59 473.037 1021.46 473.037C1019.22 473.037 1017.46 472.389 1016.16 471.094ZM1030.66 470.02C1030.66 468.991 1031.08 468.219 1031.93 467.705C1032.77 467.197 1033.84 466.943 1035.14 466.943C1035.81 466.943 1036.41 467.012 1036.95 467.148C1037.48 467.298 1037.85 467.435 1038.06 467.559L1038.38 467.783V466.318C1038.38 465.889 1038.22 465.527 1037.89 465.234C1037.57 464.948 1037.02 464.805 1036.26 464.805C1035.71 464.805 1035.23 464.906 1034.8 465.107C1034.35 465.316 1034.12 465.635 1034.12 466.064H1031.16C1031.17 464.925 1031.63 464.069 1032.55 463.496C1033.46 462.93 1034.7 462.646 1036.26 462.646C1037.84 462.646 1039.07 462.952 1039.94 463.564C1040.82 464.176 1041.26 465.094 1041.26 466.318V469.443C1041.26 469.847 1041.31 470.127 1041.41 470.283C1041.51 470.439 1041.68 470.518 1041.92 470.518L1042.34 470.439V472.842C1042.09 472.972 1041.68 473.037 1041.1 473.037C1040.35 473.037 1039.78 472.874 1039.4 472.549C1039.05 472.269 1038.83 472.012 1038.74 471.777L1038.68 471.641H1038.54C1038.54 471.667 1038.5 471.725 1038.44 471.816C1038.37 471.901 1038.25 472.018 1038.06 472.168C1037.88 472.318 1037.66 472.451 1037.4 472.568C1036.74 472.881 1035.87 473.037 1034.8 473.037C1033.61 473.037 1032.63 472.78 1031.84 472.266C1031.05 471.758 1030.66 471.009 1030.66 470.02ZM1035.98 470.859C1036.49 470.859 1036.96 470.794 1037.37 470.664C1037.76 470.54 1038.03 470.413 1038.18 470.283L1038.38 470.098V469.502C1038.33 469.45 1038.26 469.395 1038.18 469.336C1038.07 469.264 1037.81 469.176 1037.4 469.072C1036.97 468.962 1036.5 468.906 1035.98 468.906C1034.4 468.906 1033.62 469.232 1033.62 469.883C1033.62 470.534 1034.4 470.859 1035.98 470.859ZM1044.34 458.838H1047.22V472.842H1044.34V458.838ZM1050.02 462.842H1052.9V472.842H1050.02V462.842ZM1050.29 460.918C1050.01 460.684 1049.87 460.365 1049.87 459.961C1049.87 459.57 1050.01 459.251 1050.29 459.004C1050.57 458.763 1050.97 458.643 1051.47 458.643C1051.97 458.643 1052.36 458.763 1052.64 459.004C1052.93 459.251 1053.07 459.57 1053.07 459.961C1053.07 460.365 1052.93 460.684 1052.64 460.918C1052.36 461.159 1051.97 461.279 1051.47 461.279C1050.97 461.279 1050.57 461.159 1050.29 460.918ZM1062.09 463.037V465.361H1059.23V472.842H1056.35V465.361H1054.61V463.74L1056.35 463.037V462.725C1056.35 460.003 1057.9 458.643 1061.01 458.643C1061.42 458.643 1061.8 458.685 1062.16 458.77C1062.5 458.854 1062.76 458.945 1062.95 459.043L1063.21 459.16V461.543C1062.77 461.211 1062.2 461.045 1061.51 461.045C1060.78 461.045 1060.22 461.204 1059.83 461.523C1059.43 461.842 1059.23 462.308 1059.23 462.92V463.037H1062.09ZM1069 473.037C1067.3 473.037 1065.93 472.578 1064.88 471.66C1063.82 470.742 1063.29 469.469 1063.29 467.842C1063.29 466.214 1063.82 464.941 1064.88 464.023C1065.93 463.105 1067.3 462.646 1069 462.646C1070.69 462.646 1072.06 463.105 1073.12 464.023C1074.17 464.941 1074.7 466.214 1074.7 467.842C1074.7 469.469 1074.17 470.742 1073.12 471.66C1072.06 472.578 1070.69 473.037 1069 473.037ZM1069 470.566C1069.85 470.566 1070.52 470.312 1071.01 469.805C1071.5 469.297 1071.74 468.643 1071.74 467.842C1071.74 467.041 1071.5 466.387 1071.01 465.879C1070.52 465.371 1069.85 465.117 1069 465.117C1068.14 465.117 1067.47 465.371 1066.99 465.879C1066.51 466.387 1066.26 467.041 1066.26 467.842C1066.26 468.643 1066.51 469.297 1066.99 469.805C1067.47 470.312 1068.14 470.566 1069 470.566ZM1083.62 462.646L1084.61 462.744V465.918C1084.18 465.716 1083.6 465.618 1082.87 465.625C1081.94 465.625 1081.23 465.885 1080.72 466.406C1080.22 466.94 1079.97 467.611 1079.97 468.418V472.842H1077.09V462.842H1079.97V464.678H1080.14C1080.24 464.443 1080.39 464.209 1080.58 463.975C1080.77 463.734 1080.98 463.525 1081.21 463.35C1081.48 463.154 1081.83 462.988 1082.26 462.852C1082.69 462.715 1083.14 462.646 1083.62 462.646ZM1097.56 472.842H1094.68V467.803C1094.68 466.963 1094.46 466.322 1094.01 465.879C1093.56 465.43 1092.94 465.205 1092.14 465.205C1091.33 465.205 1090.7 465.443 1090.27 465.918C1089.82 466.4 1089.6 467.028 1089.6 467.803V472.842H1086.72V462.842H1089.6V464.502H1089.77C1089.84 464.346 1089.99 464.131 1090.23 463.857C1090.43 463.636 1090.64 463.447 1090.87 463.291C1091.14 463.109 1091.5 462.956 1091.95 462.832C1092.39 462.708 1092.87 462.646 1093.36 462.646C1094.62 462.646 1095.63 463.008 1096.41 463.73C1097.18 464.46 1097.56 465.55 1097.56 467.002V472.842ZM1100.26 462.842H1103.14V472.842H1100.26V462.842ZM1100.53 460.918C1100.24 460.684 1100.1 460.365 1100.1 459.961C1100.1 459.57 1100.24 459.251 1100.53 459.004C1100.81 458.763 1101.2 458.643 1101.7 458.643C1102.2 458.643 1102.59 458.763 1102.87 459.004C1103.16 459.251 1103.3 459.57 1103.3 459.961C1103.3 460.365 1103.16 460.684 1102.87 460.918C1102.59 461.159 1102.2 461.279 1101.7 461.279C1101.2 461.279 1100.81 461.159 1100.53 460.918ZM1105.54 470.02C1105.54 468.991 1105.96 468.219 1106.81 467.705C1107.65 467.197 1108.73 466.943 1110.02 466.943C1110.69 466.943 1111.29 467.012 1111.83 467.148C1112.36 467.298 1112.73 467.435 1112.94 467.559L1113.26 467.783V466.318C1113.26 465.889 1113.1 465.527 1112.78 465.234C1112.45 464.948 1111.91 464.805 1111.14 464.805C1110.6 464.805 1110.11 464.906 1109.68 465.107C1109.23 465.316 1109.01 465.635 1109.01 466.064H1106.05C1106.05 464.925 1106.52 464.069 1107.43 463.496C1108.35 462.93 1109.58 462.646 1111.14 462.646C1112.73 462.646 1113.95 462.952 1114.83 463.564C1115.71 464.176 1116.14 465.094 1116.14 466.318V469.443C1116.14 469.847 1116.19 470.127 1116.29 470.283C1116.39 470.439 1116.56 470.518 1116.8 470.518L1117.22 470.439V472.842C1116.97 472.972 1116.56 473.037 1115.98 473.037C1115.23 473.037 1114.66 472.874 1114.28 472.549C1113.93 472.269 1113.72 472.012 1113.62 471.777L1113.57 471.641H1113.42C1113.42 471.667 1113.39 471.725 1113.32 471.816C1113.26 471.901 1113.13 472.018 1112.94 472.168C1112.76 472.318 1112.54 472.451 1112.29 472.568C1111.62 472.881 1110.75 473.037 1109.68 473.037C1108.49 473.037 1107.51 472.78 1106.72 472.266C1105.93 471.758 1105.54 471.009 1105.54 470.02ZM1110.86 470.859C1111.38 470.859 1111.84 470.794 1112.25 470.664C1112.64 470.54 1112.91 470.413 1113.06 470.283L1113.26 470.098V469.502C1113.21 469.45 1113.14 469.395 1113.06 469.336C1112.95 469.264 1112.69 469.176 1112.29 469.072C1111.86 468.962 1111.38 468.906 1110.86 468.906C1109.29 468.906 1108.5 469.232 1108.5 469.883C1108.5 470.534 1109.29 470.859 1110.86 470.859Z" fill="#272727"/>
<path d="M1014.35 496.44H1016.11C1016.15 496.616 1016.27 496.856 1016.45 497.161C1016.61 497.419 1016.79 497.627 1016.97 497.785C1017.18 497.984 1017.48 498.154 1017.87 498.295C1018.26 498.436 1018.68 498.506 1019.13 498.506C1020.32 498.506 1021.22 498.09 1021.84 497.258C1022.46 496.426 1022.77 495.342 1022.77 494.006H1022.72C1022.63 494.146 1022.47 494.313 1022.24 494.507C1022.03 494.677 1021.81 494.823 1021.56 494.946C1021.33 495.069 1020.98 495.187 1020.51 495.298C1020.08 495.409 1019.59 495.465 1019.06 495.465C1017.64 495.465 1016.47 495.072 1015.55 494.287C1014.63 493.508 1014.17 492.503 1014.17 491.272C1014.17 489.989 1014.63 488.967 1015.55 488.205C1016.46 487.443 1017.68 487.062 1019.21 487.062C1020.97 487.062 1022.29 487.599 1023.2 488.671C1024.09 489.755 1024.54 491.246 1024.54 493.145V493.707C1024.54 496.203 1023.75 498.011 1022.18 499.13C1021.34 499.722 1020.32 500.018 1019.13 500.018C1018.5 500.018 1017.9 499.93 1017.33 499.754C1016.78 499.572 1016.31 499.335 1015.94 499.042C1015.59 498.761 1015.29 498.45 1015.04 498.11C1014.58 497.489 1014.35 496.933 1014.35 496.44ZM1021.59 489.312C1020.98 488.82 1020.19 488.574 1019.21 488.574C1018.23 488.574 1017.44 488.82 1016.84 489.312C1016.24 489.805 1015.94 490.458 1015.94 491.272C1015.94 492.087 1016.24 492.737 1016.86 493.224C1017.47 493.71 1018.25 493.953 1019.21 493.953C1020.16 493.953 1020.95 493.71 1021.57 493.224C1022.18 492.737 1022.48 492.087 1022.48 491.272C1022.48 490.458 1022.18 489.805 1021.59 489.312ZM1041.84 499.842H1039.77L1037.5 492.679H1037.42L1035.16 499.842H1033.09L1030.48 491.018H1032.05L1034.12 498.146H1034.19L1036.46 491.018H1038.47L1040.74 498.146H1040.82L1042.88 491.018H1044.45L1041.84 499.842ZM1045.81 497.372C1045.81 496.47 1046.19 495.802 1046.96 495.368C1047.72 494.94 1048.7 494.727 1049.9 494.727C1050.51 494.727 1051.07 494.8 1051.58 494.946C1052.12 495.099 1052.5 495.242 1052.72 495.377L1053.06 495.597V494.208C1053.06 493.61 1052.84 493.142 1052.4 492.802C1051.96 492.456 1051.3 492.283 1050.42 492.283C1048.65 492.283 1047.77 492.764 1047.77 493.725H1046.22C1046.23 492.752 1046.62 492.028 1047.41 491.554C1048.19 491.079 1049.19 490.842 1050.42 490.842C1051.65 490.842 1052.65 491.129 1053.43 491.703C1054.21 492.283 1054.6 493.118 1054.61 494.208V497.416C1054.61 497.861 1054.67 498.172 1054.78 498.348C1054.9 498.518 1055.09 498.603 1055.36 498.603C1055.6 498.603 1055.75 498.57 1055.83 498.506L1055.86 498.488V499.877C1055.68 499.971 1055.42 500.018 1055.07 500.018C1054.49 500.018 1054.05 499.892 1053.77 499.64C1053.55 499.452 1053.39 499.256 1053.28 499.051L1053.24 498.945H1053.17C1053.02 499.092 1052.87 499.215 1052.72 499.314C1052.54 499.438 1052.34 499.546 1052.12 499.64C1051.55 499.892 1050.85 500.018 1050.02 500.018C1048.77 500.018 1047.76 499.804 1046.98 499.376C1046.2 498.954 1045.81 498.286 1045.81 497.372ZM1050.25 496.168C1048.34 496.168 1047.39 496.569 1047.39 497.372C1047.39 498.181 1048.34 498.585 1050.25 498.585C1050.81 498.585 1051.32 498.523 1051.79 498.4C1052.24 498.289 1052.56 498.184 1052.73 498.084C1052.88 498.002 1053 497.929 1053.06 497.864V496.854C1053 496.789 1052.88 496.716 1052.73 496.634C1052.53 496.54 1052.22 496.44 1051.79 496.335C1051.34 496.224 1050.83 496.168 1050.25 496.168ZM1062.46 490.842C1062.81 490.842 1063.12 490.877 1063.39 490.947L1063.51 490.965V492.661C1063.18 492.544 1062.73 492.482 1062.18 492.477C1061.23 492.477 1060.49 492.778 1059.94 493.382C1059.4 493.985 1059.12 494.741 1059.12 495.649V499.842H1057.58V491.018H1059.12V492.731H1059.21C1059.3 492.544 1059.44 492.324 1059.64 492.072C1059.83 491.85 1060.03 491.656 1060.25 491.492C1060.5 491.316 1060.82 491.164 1061.22 491.035C1061.62 490.906 1062.03 490.842 1062.46 490.842ZM1074.35 495.43L1074.29 496.168H1066.32C1066.32 496.672 1066.62 497.199 1067.22 497.75C1067.81 498.307 1068.61 498.585 1069.6 498.585C1070.33 498.585 1070.93 498.447 1071.4 498.172C1071.79 497.938 1072.06 497.727 1072.21 497.539L1072.28 497.416H1074.1C1074.07 497.504 1074.03 497.595 1073.99 497.688C1073.91 497.823 1073.77 498.031 1073.56 498.312C1073.33 498.611 1073.06 498.878 1072.76 499.112C1072.46 499.341 1072.03 499.549 1071.46 499.736C1070.93 499.924 1070.3 500.018 1069.6 500.018C1068.14 500.018 1066.96 499.602 1066.05 498.77C1065.13 497.938 1064.67 496.824 1064.67 495.43C1064.67 494.047 1065.13 492.937 1066.04 492.099C1066.95 491.261 1068.11 490.842 1069.51 490.842C1070.91 490.842 1072.07 491.261 1072.99 492.099C1073.89 492.937 1074.35 494.047 1074.35 495.43ZM1071.85 493.118C1071.27 492.562 1070.49 492.283 1069.51 492.283C1068.53 492.283 1067.75 492.562 1067.18 493.118C1066.6 493.675 1066.31 494.223 1066.31 494.762H1072.71C1072.71 494.223 1072.43 493.675 1071.85 493.118ZM1085.55 499.842H1084.01V495.289C1084.01 494.258 1083.75 493.499 1083.22 493.013C1082.7 492.526 1082 492.283 1081.12 492.283C1080.2 492.283 1079.49 492.559 1079 493.109C1078.5 493.66 1078.25 494.387 1078.25 495.289V499.842H1076.7V487.238H1078.25V492.371H1078.34C1078.46 492.172 1078.6 491.993 1078.77 491.835C1078.96 491.659 1079.16 491.504 1079.38 491.369C1079.62 491.223 1079.93 491.1 1080.33 491C1080.73 490.895 1081.15 490.842 1081.58 490.842C1082.72 490.842 1083.67 491.182 1084.43 491.861C1085.18 492.547 1085.55 493.569 1085.55 494.929V499.842ZM1089.17 498.761C1088.26 497.923 1087.8 496.812 1087.8 495.43C1087.8 494.053 1088.26 492.942 1089.17 492.099C1090.08 491.261 1091.24 490.842 1092.65 490.842C1094.04 490.842 1095.2 491.261 1096.12 492.099C1097.03 492.942 1097.48 494.053 1097.48 495.43C1097.48 496.812 1097.03 497.923 1096.12 498.761C1095.2 499.599 1094.04 500.018 1092.65 500.018C1091.24 500.018 1090.08 499.599 1089.17 498.761ZM1095.01 497.697C1095.6 497.105 1095.9 496.35 1095.9 495.43C1095.9 494.51 1095.6 493.754 1095.01 493.162C1094.42 492.576 1093.63 492.283 1092.65 492.283C1091.66 492.283 1090.87 492.576 1090.28 493.162C1089.68 493.748 1089.39 494.504 1089.39 495.43C1089.39 496.355 1089.68 497.111 1090.28 497.697C1090.87 498.289 1091.66 498.585 1092.65 498.585C1093.62 498.585 1094.41 498.289 1095.01 497.697ZM1099.84 491.018H1101.38V495.579C1101.38 496.61 1101.64 497.369 1102.17 497.855C1102.69 498.342 1103.38 498.585 1104.26 498.585C1105.18 498.585 1105.89 498.307 1106.39 497.75C1106.89 497.199 1107.14 496.476 1107.14 495.579V491.018H1108.69V499.842H1107.14V498.488H1107.05C1106.93 498.676 1106.79 498.854 1106.62 499.024C1106.43 499.206 1106.23 499.361 1106.01 499.49C1105.77 499.643 1105.46 499.769 1105.06 499.868C1104.66 499.968 1104.24 500.018 1103.81 500.018C1102.66 500.018 1101.71 499.675 1100.97 498.989C1100.21 498.315 1099.84 497.299 1099.84 495.939V491.018ZM1118.04 497.231C1118.04 496.886 1117.87 496.619 1117.54 496.432C1117.19 496.238 1116.77 496.13 1116.28 496.106C1115.77 496.077 1115.22 496.024 1114.64 495.948C1114 495.872 1113.45 495.781 1112.98 495.676C1112.48 495.57 1112.06 495.333 1111.73 494.964C1111.39 494.601 1111.22 494.114 1111.22 493.505C1111.22 492.62 1111.6 491.952 1112.35 491.501C1113.11 491.062 1114.09 490.842 1115.29 490.842C1116.51 490.842 1117.49 491.088 1118.24 491.58C1118.98 492.072 1119.36 492.846 1119.36 493.9H1117.77C1117.77 493.35 1117.58 492.942 1117.18 492.679C1116.78 492.415 1116.15 492.283 1115.29 492.283C1113.63 492.283 1112.8 492.69 1112.8 493.505C1112.8 493.839 1112.97 494.094 1113.31 494.27C1113.65 494.451 1114.07 494.554 1114.57 494.577C1115.03 494.601 1115.58 494.65 1116.22 494.727C1116.82 494.809 1117.37 494.905 1117.86 495.017C1118.36 495.14 1118.78 495.386 1119.13 495.755C1119.46 496.136 1119.63 496.628 1119.63 497.231C1119.63 497.888 1119.42 498.433 1119 498.866C1118.59 499.294 1118.08 499.593 1117.46 499.763C1116.85 499.933 1116.14 500.018 1115.32 500.018C1113.61 500.018 1112.38 499.596 1111.65 498.752C1111.23 498.271 1111.02 497.674 1111.02 496.959V496.678H1112.61V496.959C1112.61 498.037 1113.51 498.576 1115.32 498.576C1117.13 498.588 1118.04 498.14 1118.04 497.231ZM1131.28 495.43L1131.23 496.168H1123.26C1123.26 496.672 1123.56 497.199 1124.16 497.75C1124.75 498.307 1125.54 498.585 1126.54 498.585C1127.27 498.585 1127.87 498.447 1128.34 498.172C1128.73 497.938 1129 497.727 1129.15 497.539L1129.22 497.416H1131.04C1131 497.504 1130.96 497.595 1130.92 497.688C1130.85 497.823 1130.7 498.031 1130.49 498.312C1130.26 498.611 1130 498.878 1129.69 499.112C1129.4 499.341 1128.97 499.549 1128.4 499.736C1127.86 499.924 1127.24 500.018 1126.54 500.018C1125.08 500.018 1123.89 499.602 1122.99 498.77C1122.07 497.938 1121.61 496.824 1121.61 495.43C1121.61 494.047 1122.06 492.937 1122.98 492.099C1123.89 491.261 1125.04 490.842 1126.45 490.842C1127.84 490.842 1129 491.261 1129.92 492.099C1130.83 492.937 1131.28 494.047 1131.28 495.43ZM1128.79 493.118C1128.2 492.562 1127.42 492.283 1126.45 492.283C1125.46 492.283 1124.69 492.562 1124.11 493.118C1123.53 493.675 1123.24 494.223 1123.24 494.762H1129.65C1129.65 494.223 1129.36 493.675 1128.79 493.118ZM1140.29 497.231C1140.29 496.886 1140.12 496.619 1139.79 496.432C1139.45 496.238 1139.03 496.13 1138.53 496.106C1138.02 496.077 1137.48 496.024 1136.89 495.948C1136.26 495.872 1135.71 495.781 1135.24 495.676C1134.73 495.57 1134.32 495.333 1133.98 494.964C1133.64 494.601 1133.47 494.114 1133.47 493.505C1133.47 492.62 1133.85 491.952 1134.61 491.501C1135.36 491.062 1136.34 490.842 1137.54 490.842C1138.76 490.842 1139.74 491.088 1140.49 491.58C1141.24 492.072 1141.61 492.846 1141.61 493.9H1140.03C1140.03 493.35 1139.83 492.942 1139.43 492.679C1139.04 492.415 1138.41 492.283 1137.54 492.283C1135.88 492.283 1135.05 492.69 1135.05 493.505C1135.05 493.839 1135.22 494.094 1135.56 494.27C1135.9 494.451 1136.32 494.554 1136.82 494.577C1137.28 494.601 1137.83 494.65 1138.47 494.727C1139.08 494.809 1139.62 494.905 1140.12 495.017C1140.61 495.14 1141.04 495.386 1141.38 495.755C1141.72 496.136 1141.88 496.628 1141.88 497.231C1141.88 497.888 1141.67 498.433 1141.26 498.866C1140.85 499.294 1140.33 499.593 1139.71 499.763C1139.11 499.933 1138.4 500.018 1137.58 500.018C1135.86 500.018 1134.63 499.596 1133.9 498.752C1133.49 498.271 1133.28 497.674 1133.28 496.959V496.678H1134.86V496.959C1134.86 498.037 1135.77 498.576 1137.58 498.576C1139.39 498.588 1140.29 498.14 1140.29 497.231ZM1150.76 490.666V491.018H1153.34V492.424H1150.76V499.842H1149.2V492.424H1147.73V491.562L1149.2 491.018V490.464C1149.2 489.333 1149.52 488.483 1150.15 487.915C1150.77 487.347 1151.62 487.062 1152.7 487.062C1153.02 487.062 1153.33 487.104 1153.65 487.186C1153.97 487.273 1154.2 487.353 1154.35 487.423L1154.57 487.546V488.935C1154.18 488.589 1153.65 488.416 1152.97 488.416C1152.23 488.416 1151.68 488.592 1151.31 488.943C1150.94 489.289 1150.76 489.863 1150.76 490.666ZM1156.2 498.761C1155.29 497.923 1154.83 496.812 1154.83 495.43C1154.83 494.053 1155.29 492.942 1156.2 492.099C1157.11 491.261 1158.27 490.842 1159.67 490.842C1161.07 490.842 1162.22 491.261 1163.14 492.099C1164.05 492.942 1164.51 494.053 1164.51 495.43C1164.51 496.812 1164.05 497.923 1163.14 498.761C1162.22 499.599 1161.07 500.018 1159.67 500.018C1158.27 500.018 1157.11 499.599 1156.2 498.761ZM1162.04 497.697C1162.63 497.105 1162.92 496.35 1162.92 495.43C1162.92 494.51 1162.63 493.754 1162.04 493.162C1161.44 492.576 1160.66 492.283 1159.67 492.283C1158.68 492.283 1157.89 492.576 1157.31 493.162C1156.71 493.748 1156.41 494.504 1156.41 495.43C1156.41 496.355 1156.71 497.111 1157.31 497.697C1157.9 498.289 1158.69 498.585 1159.67 498.585C1160.64 498.585 1161.43 498.289 1162.04 497.697ZM1166.86 491.018H1168.41V495.579C1168.41 496.61 1168.67 497.369 1169.19 497.855C1169.71 498.342 1170.41 498.585 1171.28 498.585C1172.2 498.585 1172.91 498.307 1173.42 497.75C1173.92 497.199 1174.17 496.476 1174.17 495.579V491.018H1175.71V499.842H1174.17V498.488H1174.08C1173.96 498.676 1173.82 498.854 1173.65 499.024C1173.45 499.206 1173.25 499.361 1173.04 499.49C1172.8 499.643 1172.48 499.769 1172.08 499.868C1171.68 499.968 1171.27 500.018 1170.83 500.018C1169.69 500.018 1168.74 499.675 1168 498.989C1167.24 498.315 1166.86 497.299 1166.86 495.939V491.018ZM1187.26 499.842H1185.71V495.289C1185.71 494.258 1185.45 493.499 1184.93 493.013C1184.41 492.526 1183.71 492.283 1182.83 492.283C1181.91 492.283 1181.2 492.559 1180.7 493.109C1180.21 493.66 1179.96 494.387 1179.96 495.289V499.842H1178.41V491.018H1179.96V492.371H1180.04C1180.17 492.172 1180.31 491.993 1180.48 491.835C1180.67 491.659 1180.87 491.504 1181.08 491.369C1181.32 491.223 1181.64 491.1 1182.04 491C1182.44 490.895 1182.85 490.842 1183.29 490.842C1184.42 490.842 1185.37 491.182 1186.14 491.861C1186.89 492.547 1187.26 493.569 1187.26 494.929V499.842ZM1197.64 487.238H1199.19V499.842H1197.64V498.523H1197.57C1197.48 498.676 1197.31 498.852 1197.07 499.051C1196.86 499.215 1196.64 499.364 1196.41 499.499C1196.16 499.64 1195.83 499.76 1195.42 499.859C1195.01 499.965 1194.6 500.018 1194.19 500.018C1192.86 500.018 1191.75 499.596 1190.86 498.752C1189.96 497.908 1189.51 496.801 1189.51 495.43C1189.51 494.07 1189.96 492.963 1190.86 492.107C1191.75 491.264 1192.86 490.842 1194.19 490.842C1194.9 490.842 1195.54 490.968 1196.09 491.22C1196.65 491.472 1197.04 491.718 1197.26 491.958L1197.57 492.336H1197.64V487.238ZM1191.99 493.171C1191.39 493.769 1191.09 494.521 1191.09 495.43C1191.09 496.344 1191.39 497.097 1191.99 497.688C1192.58 498.286 1193.38 498.585 1194.37 498.585C1195.37 498.585 1196.16 498.286 1196.75 497.688C1197.34 497.097 1197.64 496.344 1197.64 495.43C1197.64 494.492 1197.34 493.733 1196.74 493.153C1196.13 492.573 1195.34 492.283 1194.37 492.283C1193.38 492.283 1192.58 492.579 1191.99 493.171Z" fill="#436AE5"/>
</g>
<defs>
<filter id="filter0_d_5_66574" x="789.164" y="542.999" width="81.0469" height="81.042" filterUnits="userSpaceOnUse" color-interpolation-filters="sRGB">
<feFlood flood-opacity="0" result="BackgroundImageFix"/>
<feColorMatrix in="SourceAlpha" type="matrix" values="0 0 0 0 0 0 0 0 0 0 0 0 0 0 0 0 0 0 127 0" result="hardAlpha"/>
<feOffset dy="10"/>
<feGaussianBlur stdDeviation="10"/>
<feComposite in2="hardAlpha" operator="out"/>
<feColorMatrix type="matrix" values="0 0 0 0 0.246875 0 0 0 0 0.367998 0 0 0 0 0.75 0 0 0 0.7 0"/>
<feBlend mode="normal" in2="BackgroundImageFix" result="effect1_dropShadow_5_66574"/>
<feBlend mode="normal" in="SourceGraphic" in2="effect1_dropShadow_5_66574" result="shape"/>
</filter>
<filter id="filter1_d_5_66574" x="876.953" y="664.985" width="81.0469" height="81.042" filterUnits="userSpaceOnUse" color-interpolation-filters="sRGB">
<feFlood flood-opacity="0" result="BackgroundImageFix"/>
<feColorMatrix in="SourceAlpha" type="matrix" values="0 0 0 0 0 0 0 0 0 0 0 0 0 0 0 0 0 0 127 0" result="hardAlpha"/>
<feOffset dy="10"/>
<feGaussianBlur stdDeviation="10"/>
<feComposite in2="hardAlpha" operator="out"/>
<feColorMatrix type="matrix" values="0 0 0 0 0.246875 0 0 0 0 0.367998 0 0 0 0 0.75 0 0 0 0.7 0"/>
<feBlend mode="normal" in2="BackgroundImageFix" result="effect1_dropShadow_5_66574"/>
<feBlend mode="normal" in="SourceGraphic" in2="effect1_dropShadow_5_66574" result="shape"/>
</filter>
<filter id="filter2_d_5_66574" x="856.43" y="743.648" width="81.0469" height="81.042" filterUnits="userSpaceOnUse" color-interpolation-filters="sRGB">
<feFlood flood-opacity="0" result="BackgroundImageFix"/>
<feColorMatrix in="SourceAlpha" type="matrix" values="0 0 0 0 0 0 0 0 0 0 0 0 0 0 0 0 0 0 127 0" result="hardAlpha"/>
<feOffset dy="10"/>
<feGaussianBlur stdDeviation="10"/>
<feComposite in2="hardAlpha" operator="out"/>
<feColorMatrix type="matrix" values="0 0 0 0 0.246875 0 0 0 0 0.367998 0 0 0 0 0.75 0 0 0 0.7 0"/>
<feBlend mode="normal" in2="BackgroundImageFix" result="effect1_dropShadow_5_66574"/>
<feBlend mode="normal" in="SourceGraphic" in2="effect1_dropShadow_5_66574" result="shape"/>
</filter>
<filter id="filter3_d_5_66574" x="890.641" y="749.35" width="81.0469" height="81.042" filterUnits="userSpaceOnUse" color-interpolation-filters="sRGB">
<feFlood flood-opacity="0" result="BackgroundImageFix"/>
<feColorMatrix in="SourceAlpha" type="matrix" values="0 0 0 0 0 0 0 0 0 0 0 0 0 0 0 0 0 0 127 0" result="hardAlpha"/>
<feOffset dy="10"/>
<feGaussianBlur stdDeviation="10"/>
<feComposite in2="hardAlpha" operator="out"/>
<feColorMatrix type="matrix" values="0 0 0 0 0.246875 0 0 0 0 0.367998 0 0 0 0 0.75 0 0 0 0.7 0"/>
<feBlend mode="normal" in2="BackgroundImageFix" result="effect1_dropShadow_5_66574"/>
<feBlend mode="normal" in="SourceGraphic" in2="effect1_dropShadow_5_66574" result="shape"/>
</filter>
<filter id="filter4_d_5_66574" x="890.641" y="769.87" width="81.0469" height="81.042" filterUnits="userSpaceOnUse" color-interpolation-filters="sRGB">
<feFlood flood-opacity="0" result="BackgroundImageFix"/>
<feColorMatrix in="SourceAlpha" type="matrix" values="0 0 0 0 0 0 0 0 0 0 0 0 0 0 0 0 0 0 127 0" result="hardAlpha"/>
<feOffset dy="10"/>
<feGaussianBlur stdDeviation="10"/>
<feComposite in2="hardAlpha" operator="out"/>
<feColorMatrix type="matrix" values="0 0 0 0 0.246875 0 0 0 0 0.367998 0 0 0 0 0.75 0 0 0 0.7 0"/>
<feBlend mode="normal" in2="BackgroundImageFix" result="effect1_dropShadow_5_66574"/>
<feBlend mode="normal" in="SourceGraphic" in2="effect1_dropShadow_5_66574" result="shape"/>
</filter>
<filter id="filter5_d_5_66574" x="911.164" y="764.17" width="81.0469" height="81.042" filterUnits="userSpaceOnUse" color-interpolation-filters="sRGB">
<feFlood flood-opacity="0" result="BackgroundImageFix"/>
<feColorMatrix in="SourceAlpha" type="matrix" values="0 0 0 0 0 0 0 0 0 0 0 0 0 0 0 0 0 0 127 0" result="hardAlpha"/>
<feOffset dy="10"/>
<feGaussianBlur stdDeviation="10"/>
<feComposite in2="hardAlpha" operator="out"/>
<feColorMatrix type="matrix" values="0 0 0 0 0.246875 0 0 0 0 0.367998 0 0 0 0 0.75 0 0 0 0.7 0"/>
<feBlend mode="normal" in2="BackgroundImageFix" result="effect1_dropShadow_5_66574"/>
<feBlend mode="normal" in="SourceGraphic" in2="effect1_dropShadow_5_66574" result="shape"/>
</filter>
<filter id="filter6_d_5_66574" x="921.422" y="788.111" width="81.0469" height="81.042" filterUnits="userSpaceOnUse" color-interpolation-filters="sRGB">
<feFlood flood-opacity="0" result="BackgroundImageFix"/>
<feColorMatrix in="SourceAlpha" type="matrix" values="0 0 0 0 0 0 0 0 0 0 0 0 0 0 0 0 0 0 127 0" result="hardAlpha"/>
<feOffset dy="10"/>
<feGaussianBlur stdDeviation="10"/>
<feComposite in2="hardAlpha" operator="out"/>
<feColorMatrix type="matrix" values="0 0 0 0 0.246875 0 0 0 0 0.367998 0 0 0 0 0.75 0 0 0 0.7 0"/>
<feBlend mode="normal" in2="BackgroundImageFix" result="effect1_dropShadow_5_66574"/>
<feBlend mode="normal" in="SourceGraphic" in2="effect1_dropShadow_5_66574" result="shape"/>
</filter>
<filter id="filter7_d_5_66574" x="971.594" y="877.035" width="81.0469" height="81.042" filterUnits="userSpaceOnUse" color-interpolation-filters="sRGB">
<feFlood flood-opacity="0" result="BackgroundImageFix"/>
<feColorMatrix in="SourceAlpha" type="matrix" values="0 0 0 0 0 0 0 0 0 0 0 0 0 0 0 0 0 0 127 0" result="hardAlpha"/>
<feOffset dy="10"/>
<feGaussianBlur stdDeviation="10"/>
<feComposite in2="hardAlpha" operator="out"/>
<feColorMatrix type="matrix" values="0 0 0 0 0.246875 0 0 0 0 0.367998 0 0 0 0 0.75 0 0 0 0.7 0"/>
<feBlend mode="normal" in2="BackgroundImageFix" result="effect1_dropShadow_5_66574"/>
<feBlend mode="normal" in="SourceGraphic" in2="effect1_dropShadow_5_66574" result="shape"/>
</filter>
<filter id="filter8_d_5_66574" x="830.211" y="490.557" width="81.0469" height="81.042" filterUnits="userSpaceOnUse" color-interpolation-filters="sRGB">
<feFlood flood-opacity="0" result="BackgroundImageFix"/>
<feColorMatrix in="SourceAlpha" type="matrix" values="0 0 0 0 0 0 0 0 0 0 0 0 0 0 0 0 0 0 127 0" result="hardAlpha"/>
<feOffset dy="10"/>
<feGaussianBlur stdDeviation="10"/>
<feComposite in2="hardAlpha" operator="out"/>
<feColorMatrix type="matrix" values="0 0 0 0 0.246875 0 0 0 0 0.367998 0 0 0 0 0.75 0 0 0 0.7 0"/>
<feBlend mode="normal" in2="BackgroundImageFix" result="effect1_dropShadow_5_66574"/>
<feBlend mode="normal" in="SourceGraphic" in2="effect1_dropShadow_5_66574" result="shape"/>
</filter>
<filter id="filter9_d_5_66574" x="942" y="401.842" width="364" height="184" filterUnits="userSpaceOnUse" color-interpolation-filters="sRGB">
<feFlood flood-opacity="0" result="BackgroundImageFix"/>
<feColorMatrix in="SourceAlpha" type="matrix" values="0 0 0 0 0 0 0 0 0 0 0 0 0 0 0 0 0 0 127 0" result="hardAlpha"/>
<feOffset dy="14"/>
<feGaussianBlur stdDeviation="20"/>
<feComposite in2="hardAlpha" operator="out"/>
<feColorMatrix type="matrix" values="0 0 0 0 0.0437383 0 0 0 0 0.109346 0 0 0 0 0.316262 0 0 0 0.2 0"/>
<feBlend mode="normal" in2="BackgroundImageFix" result="effect1_dropShadow_5_66574"/>
<feBlend mode="normal" in="SourceGraphic" in2="effect1_dropShadow_5_66574" result="shape"/>
</filter>
<clipPath id="clip0_5_66574">
<rect width="1920" height="1023" fill="white" transform="translate(0 0.841797)"/>
</clipPath>
<clipPath id="clip1_5_66574">
<rect width="2546" height="1685" fill="white" transform="translate(-152 -661.158)"/>
</clipPath>
<clipPath id="clip2_5_66574">
<rect width="2546" height="1685" fill="white" transform="translate(-1.5 -318.002)"/>
</clipPath>
</defs>
</svg>
