<svg enable-background="new 0 0 128 128" viewBox="0 0 128 128" xmlns="http://www.w3.org/2000/svg" xmlns:xlink="http://www.w3.org/1999/xlink"><linearGradient id="a"><stop offset=".381" stop-color="#ff9800"/><stop offset=".7239" stop-color="#f57c00"/></linearGradient><linearGradient id="b" gradientUnits="userSpaceOnUse" x1="33.875" x2="33.875" xlink:href="#a" y1="74.333" y2="112.67"/><linearGradient id="c" gradientUnits="userSpaceOnUse" x1="69.875" x2="69.875" xlink:href="#a" y1="74.333" y2="112.67"/><linearGradient id="d"><stop offset="0" stop-color="#ff9800"/><stop offset="1" stop-color="#f57c00"/></linearGradient><linearGradient id="e" gradientUnits="userSpaceOnUse" x1="52" x2="52" xlink:href="#d" y1="101.33" y2="123.68"/><linearGradient id="f" gradientUnits="userSpaceOnUse" x1="12" x2="12" xlink:href="#d" y1="95" y2="117.06"/><linearGradient id="g" gradientUnits="userSpaceOnUse" x1="92" x2="92" xlink:href="#d" y1="95" y2="117.06"/><path d="m16 124h8s4-8 4-8v-4.02l-12.02-.03z" fill="#3e2723"/><path d="m87.98 124h-8c.33 0-3.99-8-3.99-8h.01v-4.02l12.01-.03z" fill="#3e2723"/><path d="m17.98 113.95 8.02.02v1.52c-2 3.22-2.79 5.21-3.39 6.51h-4.61zm-2-2.01.02 12.06h8.01-.01c-.33 0 4-8 4-8v-4.02z" fill="#eee" opacity=".2"/><path d="m86.01 113.95-.03 8.05h-4.62c-.59-1.29-1.64-3.28-3.37-6.49v-1.54zm2-2.01-12.01.04v4.02h-.01s4.32 8 3.99 8h-.01 8.01z" fill="#eee" opacity=".2"/><path d="m48 110.83h-28.25c-2.21 0-4-1.79-4-4v-26.83c0-2.21 1.79-4 4-4h28.25c2.21 0 4 1.79 4 4v26.83c0 2.21-1.79 4-4 4z" fill="url(#b)"/><path d="m84 110.73h-28.25c-2.21 0-4-1.79-4-4v-26.73c0-2.21 1.79-4 4-4h28.25c2.21 0 4 1.79 4 4v26.73c0 2.21-1.79 4-4 4z" fill="url(#c)"/><path d="m48 79c.55 0 1 .45 1 1v28c0 .55-.45 1-1 1h-28.25c-.55 0-1-.45-1-1v-28c0-.55.45-1 1-1zm0-3h-28.25c-2.21 0-4 1.79-4 4v28c0 2.21 1.79 4 4 4h28.25c2.21 0 4-1.79 4-4v-28c0-2.21-1.79-4-4-4z" fill="#424242" opacity=".2"/><path d="m84 79c.55 0 1 .45 1 1v26.83c0 .55-.45 1-1 1h-28.25c-.55 0-1-.45-1-1v-26.83c0-.55.45-1 1-1zm0-3h-28.25c-2.21 0-4 1.79-4 4v26.83c0 2.21 1.79 4 4 4h28.25c2.21 0 4-1.79 4-4v-26.83c0-2.21-1.79-4-4-4z" fill="#424242" opacity=".2"/><path d="m-98 106.83h-28.25c-2.21 0-4-1.79-4-4v-22.83c0-2.21 1.79-4 4-4h28.25c2.21 0 4 1.79 4 4v22.83c0 2.21-1.79 4-4 4z" fill="#757575"/><path d="m-62 106.83h-28.25c-2.21 0-4-1.79-4-4v-22.83c0-2.21 1.79-4 4-4h28.25c2.21 0 4 1.79 4 4v22.83c0 2.21-1.79 4-4 4z" fill="#757575"/><g fill="#bdbdbd"><path d="m-138 104h88v12h-88z"/><path d="m-130 116h-8c-2.21 0-4-1.79-4-4v-16c0-2.21 1.79-4 4-4h8c2.21 0 4 1.79 4 4v16c0 2.21-1.79 4-4 4z"/><path d="m-50 116h-8c-2.21 0-4-1.79-4-4v-16c0-2.21 1.79-4 4-4h8c2.21 0 4 1.79 4 4v16c0 2.21-1.79 4-4 4z"/><path d="m-22 68h-32l4-20h24z"/><path d="m-40 64h4v60h-4z"/><path d="m-46 120h16v4h-16z"/></g><path d="m-130 116v8h8s4-8 4-8-11.88-.12-12 0z" fill="#757575"/><path d="m-58 116v8h-8s-4-8-4-8z" fill="#757575"/><path d="m103.79 56.63h4.49v67.37h-4.49z" fill="#9e9e9e"/><path d="m97.05 119.51h17.96v4.49h-17.96z" fill="#757575"/><path d="m8 104h88v12h-88z" fill="url(#e)"/><path d="m93 107v6h-82v-6zm3-3h-88v12h88z" fill="#424242" opacity=".2"/><path d="m16 116h-8c-2.21 0-4-1.79-4-4v-16c0-2.21 1.79-4 4-4h8c2.21 0 4 1.79 4 4v16c0 2.21-1.79 4-4 4z" fill="url(#f)"/><path d="m96 116h-8c-2.21 0-4-1.79-4-4v-16c0-2.21 1.79-4 4-4h8c2.21 0 4 1.79 4 4v16c0 2.21-1.79 4-4 4z" fill="url(#g)"/><path d="m16 95c.55 0 1 .45 1 1v16c0 .55-.45 1-1 1h-8c-.55 0-1-.45-1-1v-16c0-.55.45-1 1-1zm0-3h-8c-2.21 0-4 1.79-4 4v16c0 2.21 1.79 4 4 4h8c2.21 0 4-1.79 4-4v-16c0-2.21-1.79-4-4-4z" fill="#424242" opacity=".2"/><path d="m96 95c.55 0 1 .45 1 1v16c0 .55-.45 1-1 1h-8c-.55 0-1-.45-1-1v-16c0-.55.45-1 1-1zm0-3h-8c-2.21 0-4 1.79-4 4v16c0 2.21 1.79 4 4 4h8c2.21 0 4-1.79 4-4v-16c0-2.21-1.79-4-4-4z" fill="#424242" opacity=".2"/><path d="m103.79 56.63h4.49v67.37h-4.49z" fill="#e0e0e0"/><path d="m97.05 119.51h17.96v4.49h-17.96z" fill="#bdbdbd"/><path d="m107 58v61.51c0 .55.73 1.49 1.28 1.49h5.72v2h-16v-2h5.79c.55 0 1.21-.94 1.21-1.49v-61.51zm1-1h-4v63h-7v4h18v-4h-7z" fill="#424242" opacity=".2"/><path d="m124 61.12h-35.93l4.49-22.45h26.95z" fill="#f9a825"/><path d="m124 61.12h-35.93l4.49-22.45h26.95z" fill="#ffeb3b"/><path d="m117.05 41.67 3.29 16.46h-28.61l3.29-16.46zm2.46-3h-26.95l-4.49 22.46h35.93z" fill="#424242" opacity=".2"/></svg>