<svg enable-background="new 0 0 128 128" viewBox="0 0 128 128" xmlns="http://www.w3.org/2000/svg" xmlns:xlink="http://www.w3.org/1999/xlink"><linearGradient id="a" gradientTransform="matrix(1 0 0 -1 0 128)" gradientUnits="userSpaceOnUse" x1="55.705" x2="55.705" y1="122.02" y2="21.79"><stop offset="0" stop-color="#d19966"/><stop offset=".0278" stop-color="#c99262"/><stop offset=".1699" stop-color="#a2734e"/><stop offset=".2442" stop-color="#936747"/><stop offset=".7751" stop-color="#8d6344"/><stop offset="1" stop-color="#664731"/></linearGradient><linearGradient id="b"><stop offset="0" stop-color="#d19966"/><stop offset=".0278" stop-color="#c99262"/><stop offset=".1699" stop-color="#a2734e"/><stop offset=".2442" stop-color="#936747"/><stop offset="1" stop-color="#664731"/></linearGradient><linearGradient id="c" gradientTransform="matrix(1 0 0 -1 0 128)" gradientUnits="userSpaceOnUse" x1="56.45" x2="56.45" xlink:href="#b" y1="-4.51" y2="45.525"/><linearGradient id="d" gradientTransform="matrix(1 0 0 -1 0 128)" gradientUnits="userSpaceOnUse" x1="97.24" x2="97.24" xlink:href="#b" y1="-4.51" y2="45.525"/><linearGradient id="e" gradientTransform="matrix(1 0 0 -1 0 128)" gradientUnits="userSpaceOnUse" x1="67.575" x2="67.575" y1="59.518" y2="78.444"><stop offset="0" stop-color="#d19966"/><stop offset="1" stop-color="#936747"/></linearGradient><g fill="#553a30"><path d="m72.06 106.21-3.05-2.95v-46.83l3.05-.16z"/><path d="m54.25 124.02-3.66-3.55v-46.83l3.66.44z"/><path d="m34.87 106.21-3.04-2.95.01-94.61 3.04-2.67z"/><path d="m72.66 5.98-3.66 3.55v43.35l3.66-.44z"/><path d="m37.58 20.32h36.83v2.6h-36.83z"/><path d="m37.58 34.61h36.83v2.6h-36.83z"/></g><path d="m73.42 14.59v37.45l-3.42-.12v-15.71h-31.42v-2.77h31.42v-11.52h-31.42v-7.32h34.84m1-1.01h-36.84v9.32h31.42v9.52h-31.42v4.77h31.42v15.68l5.41.2.01-39.49c-.01 0 0 0 0 0z" fill="#212121" opacity=".2"/><path d="m72.07 5.98h-32.73-4.48v100.23h4.48v-71.56h32.73v71.55h4.48v-100.22zm-32.73 22.56v-8.22h32.73v8.22z" fill="url(#a)"/><path d="m54.21 74.08h4.48v49.94h-4.48z" fill="url(#c)"/><path d="m95 74.08h4.48v49.94h-4.48z" fill="url(#d)"/><path d="m95.04 124.02-3.66-3.55v-46.83l3.66.44z" fill="#553a30"/><path d="m33.4 53.08v10.03l20.77 17.92.38-9.19z" fill="#553a30"/><path d="m54.25 71.73h45.24v9.3h-45.24z" fill="#664731"/><path d="m100.17 74.56h-43.83l-21.48-17.97v-4.17l43.59 3.51 21.72 14.64z" fill="#936747"/><path d="m56.34 74.56-21.48-17.97v-4.17l43.59 3.51-21.89 14.64z" fill="#664731"/><path d="m100.17 70.57h-43.6l-21.59-18.15h41.7z" fill="url(#e)"/></svg>