<svg height="48" width="48" xmlns="http://www.w3.org/2000/svg" xmlns:xlink="http://www.w3.org/1999/xlink"><linearGradient id="a"><stop offset="0" stop-color="#cca068"/><stop offset="1" stop-color="#f3d1a5"/></linearGradient><linearGradient id="b" gradientTransform="matrix(.67278895 0 0 .73407204 1.065352 -4.916256)" gradientUnits="userSpaceOnUse" x1="23.99999" x2="23.99999" y1="4.999989" y2="43"><stop offset="0" stop-color="#fff"/><stop offset=".06316455" stop-color="#fff" stop-opacity=".235294"/><stop offset=".95056331" stop-color="#fff" stop-opacity=".156863"/><stop offset="1" stop-color="#fff" stop-opacity=".392157"/></linearGradient><linearGradient id="c" gradientTransform="matrix(.13620013 0 0 .14658129 -2.400534 -7.127159)" gradientUnits="userSpaceOnUse" x1="143.99998" x2="143.99998" xlink:href="#a" y1="207.72729" y2="64.545563"/><linearGradient id="d" gradientTransform="matrix(.71701113 0 0 .97297313 38.879971 -15.851344)" gradientUnits="userSpaceOnUse" x1="4.351438" x2="4.351438" y1="21.430544" y2="32.736099"><stop offset="0" stop-color="#fff"/><stop offset=".00000005" stop-color="#fff" stop-opacity=".235294"/><stop offset=".95056331" stop-color="#fff" stop-opacity=".156863"/><stop offset="1" stop-color="#fff" stop-opacity=".392157"/></linearGradient><linearGradient id="e" gradientTransform="matrix(.67278895 0 0 .73407204 3.299664 8.360992)" gradientUnits="userSpaceOnUse" x1="23.99999" x2="23.99999" y1="4.999989" y2="47.187477"><stop offset="0" stop-color="#fff"/><stop offset=".06316455" stop-color="#fff" stop-opacity=".235294"/><stop offset=".9677093" stop-color="#fff" stop-opacity=".156863"/><stop offset="1" stop-color="#fff" stop-opacity=".392157"/></linearGradient><radialGradient id="f" cx="4.992979" cy="43.5" gradientTransform="matrix(2.003784 0 0 1.4 27.98813 -17.4)" gradientUnits="userSpaceOnUse" r="2.5" xlink:href="#g"/><linearGradient id="g"><stop offset="0" stop-color="#181818"/><stop offset="1" stop-color="#181818" stop-opacity="0"/></linearGradient><radialGradient id="h" cx="4.992979" cy="43.5" gradientTransform="matrix(2.003784 0 0 1.4 -20.01187 -104.4)" gradientUnits="userSpaceOnUse" r="2.5" xlink:href="#g"/><linearGradient id="i" gradientUnits="userSpaceOnUse" x1="25.058096" x2="25.058096" y1="47.027729" y2="39.999443"><stop offset="0" stop-color="#181818" stop-opacity="0"/><stop offset=".5" stop-color="#181818"/><stop offset="1" stop-color="#181818" stop-opacity="0"/></linearGradient><linearGradient id="j" gradientTransform="matrix(.13227393 0 0 .13814979 -4.566781 9.71946)" gradientUnits="userSpaceOnUse" x1="143.99998" x2="143.99998" xlink:href="#a" y1="239.54547" y2=".909244"/><g opacity=".4" transform="matrix(1.1578952 0 0 .57142859 -3.789476 19.142856)"><path d="m38 40h5v7h-5z" fill="url(#f)"/><path d="m-10-47h5v7h-5z" fill="url(#h)" transform="scale(-1)"/><path d="m10 40h28v7.000001h-28z" fill="url(#i)"/></g><rect fill="url(#j)" height="33.053677" rx="1.92277" ry="1.922436" stroke="#8d6738" stroke-opacity=".737255" width="39" x="4.5" y="11.446322"/><path d="m17.25 22.000001h13.499999c1.246501 0 2.250001 1.115 2.250001 2.500001 0 1.384999-1.0035 2.499999-2.250001 2.499999h-13.499999c-1.2465 0-2.25-1.115-2.25-2.499999 0-1.385001 1.0035-2.500001 2.25-2.500001z" fill="#fff" opacity=".3"/><path d="m17.25 21h13.499999c1.246501 0 2.250001 1.114999 2.250001 2.499999s-1.0035 2.500001-2.250001 2.500001h-13.499999c-1.2465 0-2.25-1.115001-2.25-2.500001s1.0035-2.499999 2.25-2.499999z" fill="#8d6738" fill-opacity=".737255" opacity=".8"/><path d="m17.25 21c-1.2465 0-2.25 1.114999-2.25 2.499999 0 .465917.144601.877362.342774 1.249998.390922-.735078 1.08005-1.249998 1.907226-1.249998h13.499999c.827176 0 1.516305.51492 1.907227 1.249998.198172-.372636.342774-.784081.342774-1.249998 0-1.385-1.0035-2.499999-2.250001-2.499999z" opacity=".1"/><g fill="none"><path d="m6 18.5h36" opacity=".1" stroke="#000"/><rect height="31.350992" opacity=".5" rx="1" stroke="url(#e)" stroke-linecap="round" stroke-linejoin="round" width="37" x="5.5" y="12.149006"/><path d="m4.7656881 10.438079h38.4712959v4.526778h-38.4712959z" opacity=".5" stroke="url(#b)" stroke-linecap="round" stroke-linejoin="round"/></g><path d="m45.499992 9.5.00001 5.51841c0 2.88784-2.472797 2.473432-2.472797 2.473432h-38.2556287s-2.3689179.206119-2.2689056-2.370373v-5.621469l5.8034483-6.0000005h31.513542z" fill="url(#c)" stroke="#8d6738" stroke-linejoin="round" stroke-opacity=".737255"/><path d="m4 9.4999496h40.120772" fill="none" opacity=".4" stroke="#fff" stroke-linecap="round"/><path d="m3.5 9.9v5.6c0 .554.446 1 1 1h39c.554 0 1-.446 1-1v-5.6l-5.1-5.4h-30.675z" fill="none" opacity=".3" stroke="url(#d)" stroke-linecap="round" stroke-linejoin="round"/></svg>