<svg width="34" height="33" viewBox="0 0 34 33" fill="none" xmlns="http://www.w3.org/2000/svg">
<g clip-path="url(#clip0_935_1534)">
<path d="M32.3105 13.8073L19.054 13.8066C18.4686 13.8066 17.9941 14.2689 17.9941 14.8393V18.9655C17.9941 19.5358 18.4686 19.9981 19.054 19.9981H26.5192C25.7018 22.0652 24.176 23.7963 22.2295 24.8962L25.4126 30.2652C30.5187 27.3878 33.5376 22.3392 33.5376 16.6876C33.5376 15.8829 33.4767 15.3076 33.355 14.6598C33.2624 14.1677 32.824 13.8073 32.3105 13.8073Z" fill="#167EE6"/>
<path d="M17.2864 26.1979C13.6331 26.1979 10.4438 24.253 8.73087 21.375L3.2207 24.4695C6.02476 29.2048 11.2777 32.3936 17.2864 32.3936C20.2341 32.3936 23.0154 31.6203 25.4114 30.2726V30.2653L22.2283 24.8962C20.7722 25.719 19.0873 26.1979 17.2864 26.1979Z" fill="#12B347"/>
<path d="M25.4121 30.2729V30.2656L22.229 24.8965C20.7729 25.7193 19.0881 26.1982 17.2871 26.1982V32.3939C20.2348 32.3939 23.0162 31.6206 25.4121 30.2729Z" fill="#0F993E"/>
<path d="M7.39582 16.5607C7.39582 14.8061 7.88722 13.1645 8.73157 11.7459L3.2214 8.65137C1.83069 10.9786 1.03711 13.6812 1.03711 16.5607C1.03711 19.4401 1.83069 22.1428 3.2214 24.47L8.73157 21.3754C7.88722 19.9568 7.39582 18.3152 7.39582 16.5607Z" fill="#FFD500"/>
<path d="M17.2864 6.9232C19.6687 6.9232 21.8571 7.74804 23.5663 9.12C23.9879 9.45844 24.6008 9.43405 24.987 9.05769L27.9876 6.13407C28.4259 5.70704 28.3946 5.0081 27.9265 4.6124C25.0628 2.19169 21.3366 0.727539 17.2864 0.727539C11.2777 0.727539 6.02476 3.91629 3.2207 8.65157L8.73088 11.7461C10.4438 8.86809 13.6331 6.9232 17.2864 6.9232Z" fill="#FF4B26"/>
<path d="M23.567 9.12C23.9886 9.45843 24.6016 9.43405 24.9877 9.05769L27.9883 6.13407C28.4265 5.70704 28.3953 5.0081 27.9272 4.6124C25.0635 2.19163 21.3373 0.727539 17.2871 0.727539V6.9232C19.6694 6.9232 21.8577 7.74804 23.567 9.12Z" fill="#D93F21"/>
</g>
<defs>
<clipPath id="clip0_935_1534">
<rect width="33" height="32" fill="white" transform="translate(0.787109 0.560547)"/>
</clipPath>
</defs>
</svg>
