<svg width="17" height="17" viewBox="0 0 17 17" fill="none" xmlns="http://www.w3.org/2000/svg">
<path d="M7.55017 1.0833C7.84952 0.161988 9.15293 0.16199 9.45228 1.0833L10.7464 5.06608C10.8802 5.4781 11.2642 5.75706 11.6974 5.75706H15.8852C16.8539 5.75706 17.2567 6.99668 16.4729 7.56608L13.085 10.0276C12.7345 10.2822 12.5878 10.7336 12.7217 11.1456L14.0158 15.1284C14.3152 16.0497 13.2607 16.8158 12.477 16.2464L9.08901 13.7849C8.73852 13.5303 8.26392 13.5303 7.91343 13.7849L4.52548 16.2464C3.74177 16.8158 2.68729 16.0497 2.98664 15.1284L4.28072 11.1456C4.4146 10.7336 4.26794 10.2822 3.91745 10.0276L0.529495 7.56608C-0.254218 6.99668 0.148559 5.75706 1.11728 5.75706H5.30502C5.73825 5.75706 6.12221 5.4781 6.25608 5.06608L7.55017 1.0833Z" fill="#436AE5"/>
</svg>
