<svg width="1920" height="1023" viewBox="0 0 1920 1023" fill="none" xmlns="http://www.w3.org/2000/svg">
<g clip-path="url(#clip0_0_1133)">
<rect width="1920" height="1023" fill="#F1F4FF"/>
<g clip-path="url(#clip1_0_1133)">
<g clip-path="url(#clip2_0_1133)">
<path d="M1428.69 26.3367L1610.51 -33.8573C1616.39 -35.7908 1622.23 -37.7608 1627.99 -39.9497C1630 -49.6901 1637.74 -58.1902 1637.88 -68.4415C1637.89 -71.7791 1637.06 -75.065 1635.47 -78.0016C1633.88 -80.9382 1631.59 -83.4327 1628.8 -85.2593C1625.15 -87.5941 1620 -89.7465 1620.15 -94.0878C1620.15 -97.1157 1623.07 -99.6329 1622.81 -102.624C1622.55 -105.616 1618.65 -108.06 1618.21 -111.38C1618.16 -113.126 1618.62 -114.849 1619.53 -116.341C1622.52 -122.543 1625.52 -128.769 1628.54 -135.02C1619.08 -137.737 1611.01 -143.944 1605.95 -152.385C1604.31 -155.413 1602.85 -159.097 1599.53 -160.119C1597.83 -160.574 1596.04 -160.574 1594.34 -160.119C1560.48 -153.333 1528.65 -139.543 1496.32 -127.796C1479.78 -121.572 1462.84 -116.442 1445.63 -112.438C1433.04 -109.702 1422.67 -104.12 1410.44 -103.354C1407.5 -100.07 1404.16 -97.1551 1400.52 -94.6715C1406.5 -69.0373 1412.48 -43.4032 1418.44 -17.7691C1421.87 -3.00633 1425.29 11.6956 1428.69 26.3367Z" fill="white" stroke="#436AE5" stroke-linecap="round" stroke-linejoin="round"/>
<path d="M1653.79 23.1629C1653.79 21.1565 1653.79 19.1135 1653.79 17.0706C1653.58 11.6713 1656.5 8.16916 1651.79 5.50603C1646.71 2.98285 1642.02 -0.247528 1637.85 -4.08855C1635.76 -6.05129 1634.11 -8.42832 1633 -11.067C1631.88 -13.7057 1631.34 -16.5477 1631.39 -19.4107C1631.38 -20.2974 1631.64 -21.1652 1632.15 -21.8914C1629.44 -25.7686 1627.87 -30.3332 1627.63 -35.0611C1627.6 -36.6309 1627.76 -38.1984 1628.1 -39.7307C1622.37 -37.5418 1616.57 -35.6083 1610.77 -33.6748C1620.01 -13.0154 1627.15 8.51925 1632.08 30.6051C1639.54 28.832 1646.81 26.3396 1653.79 23.1629Z" fill="white" stroke="#436AE5" stroke-linecap="round" stroke-linejoin="round"/>
<path d="M1473.62 34.618C1476.46 33.9979 1478.25 31.2253 1480.04 28.8905C1483.18 24.7681 1489.02 22.8346 1492.92 18.9676C1495.92 16.0127 1499.64 12.8023 1503.87 13.5319C1506.97 14.0791 1509.93 16.7423 1512.85 15.5384C1515.77 14.3345 1515.99 10.8323 1517.12 8.24215C1517.95 6.62223 1519.16 5.22381 1520.64 4.16284C1522.12 3.10187 1523.83 2.40892 1525.63 2.14145C1527.43 1.87397 1529.27 2.03965 1531 2.62479C1532.72 3.20993 1534.28 4.19765 1535.55 5.50606C1536.48 7.14894 1537.72 8.59786 1539.2 9.77435C1541.9 11.2336 1545.29 9.77437 1548.29 10.3581C1554.09 11.7808 1554.53 20.3539 1559.24 23.8196C1563.51 26.884 1570.18 25.3518 1573.83 29.2553C1574.88 30.8885 1575.44 32.7877 1575.44 34.7275C1575.44 36.6673 1574.88 38.5665 1573.83 40.1997C1571.72 43.4115 1569.81 46.7498 1568.1 50.1955C1567.5 51.4997 1567.4 52.9857 1567.85 54.3544C1568.5 55.3817 1569.47 56.1667 1570.61 56.5886C1571.75 57.0104 1573 57.0458 1574.16 56.6892C1576.46 55.9576 1578.8 55.3487 1581.17 54.8651C1584.2 54.6827 1587.15 56.1055 1590.18 55.8501C1593.83 55.5582 1596.9 52.7857 1600.29 51.3265C1603.13 50.1577 1606.26 49.8655 1609.27 50.4874C1610.48 48.8093 1612.01 47.3135 1611.86 45.307C1611.46 40.8928 1604.05 41.44 1601.53 37.7919C1599.93 35.4206 1600.91 32.2467 1600.69 29.4012C1600.26 24.1844 1595.84 20.3174 1593.4 15.6843C1587.85 4.73993 1593.8 -7.95555 1599.67 -18.5351C1600.26 -19.5931 1601.06 -20.7969 1602.26 -20.9428C1604.27 -21.1252 1605.15 -18.4257 1605.04 -16.4192C1604.64 -10.3268 1601.39 -4.70868 1600.33 1.3472C1599.27 7.40308 1600.99 14.9547 1606.83 16.8517C1609.38 17.7273 1612.99 17.8367 1613.58 20.4998C1613.64 21.9072 1613.33 23.3065 1612.66 24.5493C1612.35 25.7837 1612.31 27.0707 1612.55 28.322C1612.78 29.5734 1613.28 30.7595 1614.02 31.799C1614.75 32.8386 1615.7 33.7069 1616.81 34.3446C1617.91 34.9823 1619.13 35.3743 1620.4 35.4936C1621.79 35.3581 1623.2 35.4443 1624.56 35.749C1630.58 38.0473 1623.32 49.6118 1628.69 53.187C1632.34 55.6677 1638.36 51.0346 1641.64 54.099C1644.93 57.1634 1641.64 61.3953 1639.42 64.6786C1637.16 68.3556 1635.99 72.5972 1636.05 76.9108C1636.11 81.2245 1637.39 85.4332 1639.74 89.048C1648.8 68.3422 1653.46 45.9815 1653.43 23.3818C1646.39 26.5197 1639.05 28.9634 1631.53 30.6781C1626.6 8.59226 1619.46 -12.9424 1610.22 -33.6018L1471.54 12.401C1471.87 23.7467 1472.38 34.9099 1473.62 34.618Z" fill="white" stroke="#436AE5" stroke-linecap="round" stroke-linejoin="round"/>
<path d="M1467.27 524.159C1465.35 523.576 1463.34 523.402 1461.36 523.649C1459.5 524.337 1457.91 525.593 1456.81 527.236C1455.71 528.88 1455.15 530.829 1455.22 532.806C1455.04 536.745 1456.06 540.685 1455.73 544.589C1455.77 545.534 1455.55 546.472 1455.09 547.301C1454.64 548.13 1453.96 548.819 1453.14 549.295C1450.26 550.426 1447.89 547.033 1445.41 545.209C1441.76 542.473 1436.72 542.984 1432.23 543.604L1361.83 553.454C1353.33 554.621 1344.46 555.789 1336.29 553.016C1329.46 550.718 1323.51 545.72 1316.36 544.771C1312.06 544.45 1307.74 544.882 1303.59 546.048L1240.19 559.911C1233.27 561.252 1226.46 563.13 1219.83 565.529C1214.03 567.791 1207.64 572.825 1209.39 578.881C1210.23 581.763 1212.82 583.77 1214.39 586.36C1217.68 591.905 1215.74 598.837 1215.81 605.294C1218.41 604.687 1220.86 603.572 1223.02 602.013C1225.18 600.454 1227.01 598.481 1228.41 596.21C1229.24 594.338 1230.49 592.679 1232.06 591.358C1233.33 590.6 1234.75 590.127 1236.22 589.972C1256.36 586.721 1276.98 588.297 1296.4 594.568C1298.12 594.987 1299.71 595.827 1301.03 597.012C1302.71 598.836 1303.08 601.719 1305.01 603.251C1308.26 605.841 1313.88 603.251 1316.69 606.315C1318.77 608.577 1318.29 613.064 1321.25 613.94C1322.52 614.129 1323.81 613.857 1324.9 613.174L1353.04 599.967C1354.22 599.523 1355.26 598.782 1356.07 597.815C1357.78 595.298 1356.07 591.759 1356.91 588.914C1358.33 584.828 1364.2 584.937 1368.37 585.849C1378 587.856 1388.84 590.774 1393.36 599.493C1395.01 602.631 1395.59 606.279 1397.53 609.27C1401.47 615.435 1409.53 617.041 1416.21 620.214C1422.87 623.404 1428.52 628.389 1432.5 634.608C1436.48 640.827 1438.65 648.034 1438.76 655.419C1438.76 665.561 1434.42 675.702 1435.44 686.1C1435.88 690.368 1436.72 695.913 1442.16 695.804C1445.81 695.804 1446.65 691.28 1449.46 691.025C1453.69 690.696 1456.76 696.278 1456.28 699.926C1455.74 702.213 1454.99 704.447 1454.06 706.602C1450.81 716.671 1458.47 726.703 1465.59 734.51C1466.7 736.051 1468.33 737.13 1470.19 737.538C1473.07 737.793 1475.59 734.729 1478.44 735.276C1482.78 736.079 1481.9 743.083 1485.22 745.965C1487.7 748.118 1492.12 747.643 1493.65 750.489C1495.19 753.334 1493 756.18 1493.84 758.916C1495.15 763.184 1501.68 762.856 1504.57 766.212C1506.86 768.948 1506.03 773.107 1507.23 776.5C1508.41 779.058 1510.2 781.288 1512.45 782.994C1519.26 789.147 1526.1 795.3 1532.96 801.453C1535.52 804.02 1538.39 806.263 1541.5 808.129C1544.18 808.856 1546.8 809.771 1549.35 810.865C1551.86 814.769 1545.33 815.353 1543.91 818.928C1542.96 821.299 1545.4 823.926 1547.96 824.217C1550.57 824.217 1553.12 823.415 1555.26 821.919L1563.36 817.359C1566.5 815.905 1569.21 813.669 1571.24 810.865C1572.47 808.422 1573.18 805.751 1573.32 803.022C1576.28 778.178 1568.43 755.231 1576.97 731.738C1580.62 721.924 1570.73 712.767 1567.52 702.844C1566.53 699.889 1566.17 696.752 1565.37 693.761C1563.74 688.717 1561.49 683.899 1558.65 679.423L1546.61 658.41C1543.86 653.117 1540.42 648.21 1536.39 643.818C1534.07 641.886 1532.02 639.653 1530.29 637.178C1529.46 635.922 1529.06 634.433 1529.14 632.929C1529.22 631.425 1529.78 629.987 1530.73 628.824L1536.72 634.88C1537.07 635.348 1537.6 635.661 1538.18 635.756C1539.86 635.756 1539.42 633.092 1538.43 631.743C1526.79 616.42 1516.54 600.223 1506.1 584.062C1500.12 575.851 1495.67 566.633 1492.96 556.847C1492.27 553.673 1491.57 535.25 1484.57 539.19C1480.62 541.379 1482.81 551.922 1483.14 555.387C1483.36 557.832 1485.77 571.986 1478.62 568.229C1477.56 567.682 1476.98 562.246 1476.79 561.224C1475.29 554.31 1475.95 547.101 1478.69 540.576C1481.15 536.535 1483.02 532.161 1484.24 527.589C1484.35 526.375 1484.35 525.154 1484.24 523.941C1478.66 525.175 1472.88 525.25 1467.27 524.159Z" fill="#76B5FF" stroke="#436AE5" stroke-linecap="round" stroke-linejoin="round"/>
<path d="M1153.52 198.163C1157.68 197.033 1158.59 191.086 1162.5 189.299C1168.12 186.708 1174.83 194.588 1180.27 191.633C1184.32 189.481 1184.39 182.768 1188.66 181.163C1193.55 179.303 1199.87 185.833 1203.66 182.221C1207.46 178.61 1201.69 169.635 1206.55 167.264C1209.9 165.622 1213.26 170.146 1217.02 170.219C1218.32 170.054 1219.58 169.618 1220.7 168.94C1221.83 168.261 1222.8 167.355 1223.55 166.279C1230.12 159.165 1236.91 151.686 1238.92 142.092C1239.94 137.13 1239.87 131.33 1243.66 127.974C1247.46 124.617 1252.89 125.42 1257.75 124.8C1262.6 124.18 1268.26 120.167 1266.58 115.533C1265.99 114.277 1265.32 113.058 1264.57 111.885C1263.87 110.068 1263.75 108.079 1264.23 106.19C1264.7 104.302 1265.76 102.608 1267.24 101.342L1267.67 100.977C1259.79 55.23 1251.88 9.45827 1243.95 -36.3378C1243.16 -39.5001 1242.74 -42.7452 1242.71 -46.0054C1216.55 -38.5101 1189.61 -34.0303 1162.42 -32.6532C1159.14 -28.7638 1155.09 -25.5963 1150.53 -23.3505C1148.88 -22.4354 1147.04 -21.9463 1145.16 -21.9277C1144.5 -21.945 1143.85 -22.0555 1143.23 -22.2561C1146.22 17.3625 1150.53 56.8352 1156.84 96.089C1157.46 98.9661 1157.57 101.929 1157.17 104.844C1156.36 108.967 1153.52 112.688 1153.74 116.883C1154.54 120.509 1155.97 123.967 1157.97 127.098C1161.62 135.27 1158.99 144.791 1155.42 153C1151.84 161.208 1147.24 169.307 1146.84 178.245C1146.62 183.425 1147.82 188.532 1147.97 193.713C1148.03 194.746 1148.03 195.781 1147.97 196.814C1149.59 197.928 1151.57 198.408 1153.52 198.163Z" fill="white" stroke="#436AE5" stroke-linecap="round" stroke-linejoin="round"/>
<path d="M1388.69 158.143C1386.32 156.575 1383.69 155.116 1381.39 153.583C1374.5 148.841 1370.45 141.107 1366.58 133.665C1363.55 127.791 1360.59 120.531 1363.88 114.877C1358.65 113.609 1353.88 110.875 1350.15 106.997C1346.8 103.349 1342.85 98.5332 1338.26 100.394C1335.34 101.598 1334.17 105.209 1331.47 106.814C1325.92 110.171 1317.56 103.531 1312.75 107.872C1311.83 108.711 1311.14 109.879 1310.01 110.39C1306.91 111.812 1304.5 107.471 1301.65 105.647C1297.35 102.874 1291.76 105.975 1286.65 105.647C1280.19 105.647 1273.88 100.029 1267.89 102.51C1267.89 101.962 1267.89 101.452 1267.6 100.941L1267.16 101.306C1265.68 102.572 1264.63 104.265 1264.15 106.154C1263.68 108.042 1263.8 110.032 1264.5 111.849C1265.24 113.022 1265.91 114.24 1266.51 115.497C1268.19 120.13 1262.57 124.179 1257.68 124.763C1252.78 125.347 1247.27 124.763 1243.59 127.937C1239.9 131.111 1239.94 137.094 1238.84 142.055C1236.84 151.504 1230.05 159.128 1223.48 166.242C1222.73 167.318 1221.75 168.225 1220.63 168.903C1219.5 169.582 1218.25 170.018 1216.95 170.182C1213.3 170.182 1209.83 165.586 1206.47 167.227C1201.62 169.599 1207.49 178.463 1203.59 182.185C1199.68 185.906 1193.48 179.266 1188.59 181.127C1184.32 182.732 1184.25 189.444 1180.2 191.597C1174.76 194.552 1168.04 186.672 1162.42 189.262C1158.52 191.05 1157.61 196.996 1153.44 198.127C1151.44 198.481 1149.38 198.064 1147.68 196.959C1147.53 201.105 1145.78 205.03 1142.79 207.904C1142.32 208.242 1141.91 208.662 1141.58 209.144C1140.23 211.552 1144.03 213.412 1145.23 215.784C1147.13 219.031 1144.07 223.08 1140.85 224.977C1137.64 226.874 1133.55 228.881 1132.9 232.565C1132.46 234.645 1133.12 236.943 1132.02 238.73C1130.34 241.467 1126.07 240.627 1123.45 238.73C1120.82 236.833 1118.45 234.17 1115.23 233.988C1113.59 234.041 1112.01 234.604 1110.7 235.597C1109.39 236.591 1108.43 237.966 1107.93 239.533C1107.02 242.646 1106.8 245.92 1107.28 249.128C1107.86 257.372 1108.41 265.581 1108.99 273.825C1116.15 272.407 1123.41 271.578 1130.71 271.345C1144.5 270.104 1157.68 265.252 1170.85 261.166C1222.6 245.261 1277.13 241.065 1330.3 230.668C1333 230.157 1335.67 229.537 1338.37 228.954C1341.61 222.022 1346.4 215.93 1352.38 211.151C1357.09 207.503 1362.64 204.329 1365.59 199.148C1367.49 195.829 1368.18 191.852 1370.15 188.678C1375.08 181.966 1384.9 178.318 1386.03 170.036C1386.58 166.023 1384.97 161.025 1388.15 158.472C1388.32 158.35 1388.5 158.24 1388.69 158.143Z" fill="white" stroke="#436AE5" stroke-linecap="round" stroke-linejoin="round"/>
<path d="M1400.63 -94.5254L1398.95 -93.3945C1393.58 -90.2206 1387.42 -88.3236 1382.67 -84.3107C1376.32 -78.9115 1373.26 -70.3384 1366.54 -65.4499C1361.29 -61.8018 1354.61 -60.6708 1348.51 -58.5549C1339.06 -55.3081 1333.11 -41.8465 1323.22 -40.6062C1322.28 -40.4222 1321.31 -40.6133 1320.51 -41.1386C1319.71 -41.6639 1319.15 -42.4813 1318.95 -43.4152C1318.95 -44.2908 1319.24 -45.2758 1318.95 -46.0419C1318.71 -46.3883 1318.38 -46.6736 1318.01 -46.876C1317.64 -47.0784 1317.22 -47.1925 1316.8 -47.2093C1313.23 -47.4218 1309.64 -47.2505 1306.1 -46.6985C1302.52 -46.1262 1298.86 -46.9631 1295.89 -49.0334C1295.19 -49.5929 1294.62 -50.2962 1294.21 -51.0957C1293.81 -51.8951 1293.58 -52.7719 1293.55 -53.6664C1276.78 -48.8088 1260.3 -42.9741 1244.21 -36.192C1252.19 10.0176 1260.19 56.3123 1268.22 102.692C1274.21 100.211 1280.52 105.684 1286.98 105.829C1292.09 105.829 1297.67 102.874 1301.98 105.829C1304.83 107.653 1307.24 111.995 1310.34 110.572C1311.47 110.061 1312.16 108.894 1313.08 108.055C1317.89 103.714 1326.25 110.353 1331.8 106.997C1334.5 105.392 1335.67 101.78 1338.59 100.576C1343.07 98.7156 1347.13 103.641 1350.48 107.179C1354.21 111.058 1358.97 113.791 1364.2 115.059C1364.2 115.059 1364.2 114.804 1364.2 114.694C1366.5 111.046 1370.85 109.332 1373.29 105.829C1375.74 102.327 1374.5 64.5327 1382.85 83.1381C1388.55 79.7089 1389.13 71.7924 1388.73 65.1894C1388.33 58.5863 1388.07 50.8887 1393 46.4745C1393.52 45.9323 1394.22 45.5957 1394.97 45.526C1397.42 45.526 1397.78 49.9037 1400.19 50.1956C1405.72 44.959 1409.2 37.9221 1410.01 30.3498C1412.56 16.414 1411.83 2.07683 1413.66 -11.9684C1414.2 -16.8337 1415.17 -21.6428 1416.54 -26.342C1411.16 -49.155 1405.86 -71.8827 1400.63 -94.5254Z" fill="white" stroke="#436AE5" stroke-linecap="round" stroke-linejoin="round"/>
<path d="M1539.31 9.62839C1537.83 8.45189 1536.59 7.00297 1535.66 5.3601C1534.39 4.05169 1532.83 3.06396 1531.11 2.47883C1529.38 1.89369 1527.54 1.728 1525.74 1.99548C1523.94 2.26296 1522.23 2.95591 1520.75 4.01688C1519.27 5.07784 1518.06 6.47626 1517.23 8.09619C1516.1 10.8323 1515.7 14.4439 1512.96 15.3924C1510.22 16.3409 1507.08 13.9332 1503.98 13.386C1499.82 12.6563 1496.1 15.8667 1493.03 18.8217C1489.13 22.6887 1483.29 24.6222 1480.15 28.7446C1478.36 31.0794 1476.5 33.852 1473.73 34.4721C1472.38 34.764 1471.87 23.5278 1471.65 11.9997L1428.69 26.1909C1425.29 11.5984 1421.87 -3.05489 1418.44 -17.769L1416.36 -26.6704C1414.98 -21.9711 1414.02 -17.1621 1413.47 -12.2968C1411.76 1.74847 1412.49 16.0856 1409.82 30.0214C1409.02 37.5938 1405.54 44.6306 1400.01 49.8672C1397.6 49.5753 1397.23 45.1976 1394.79 45.1976C1394.04 45.2673 1393.34 45.604 1392.82 46.1461C1387.89 50.5604 1388.18 58.2214 1388.55 64.861C1388.91 71.5005 1388.37 79.4535 1382.67 82.8098C1374.31 64.2043 1375.37 102.218 1373.11 105.501C1370.85 108.784 1366.32 110.791 1364.02 114.366C1360.37 120.057 1363.48 127.499 1366.54 133.519C1370.19 140.815 1374.46 148.695 1381.36 153.437C1383.58 154.97 1386.21 156.429 1388.66 157.997C1389.72 157.492 1390.9 157.277 1392.07 157.373C1393.24 157.469 1394.37 157.873 1395.34 158.545C1397.37 160.138 1399.13 162.047 1400.55 164.199C1403.02 167.366 1405.88 170.209 1409.06 172.663C1411.79 174.815 1415.92 176.603 1418.44 174.268C1420.96 171.933 1419.42 166.352 1422.09 163.725C1423.91 162.047 1426.76 162.375 1429.39 162.083C1437.71 161.025 1443.18 151.978 1451.28 150.665C1455.15 150.081 1459.97 150.92 1462.23 147.746C1463.12 146.305 1463.52 144.616 1463.36 142.931C1463.18 135.635 1459.46 128.63 1460.19 121.37C1461 116.604 1462.76 112.05 1465.37 107.982C1469.86 99.8829 1474.31 91.7476 1478.8 83.6123C1480.7 80.1831 1483.11 76.3161 1486.98 75.6594C1488.64 75.6057 1490.29 75.4596 1491.94 75.2217C1497.92 73.3611 1495.88 63.7301 1500.04 59.024C1501.55 57.6041 1503.23 56.3786 1505.04 55.3759C1514.64 48.7363 1514.38 34.7639 1518.43 23.8196C1519.75 20.1715 1522.7 16.5234 1526.35 17.2895C1530 18.0556 1532.01 22.9805 1535.44 22.105C1537.52 21.5577 1538.43 19.1865 1539.09 17.1071L1541.17 9.81081C1540.54 9.85231 1539.92 9.79068 1539.31 9.62839Z" fill="white" stroke="#436AE5" stroke-linecap="round" stroke-linejoin="round"/>
<path d="M1641.5 118.197C1640.07 116.834 1638.29 115.884 1636.36 115.447C1634.44 115.01 1632.43 115.103 1630.55 115.716C1626.82 116.995 1622.99 117.923 1619.09 118.489C1617.13 118.712 1615.15 118.223 1613.53 117.111C1611.9 115.999 1610.72 114.338 1610.22 112.433C1610.13 111.663 1610.28 110.884 1610.66 110.207C1612.74 106.924 1617.96 111.594 1621.61 110.207C1622.19 109.882 1622.71 109.442 1623.12 108.914C1623.53 108.385 1623.83 107.779 1624 107.131C1624.17 106.483 1624.21 105.808 1624.11 105.145C1624.01 104.483 1623.78 103.847 1623.43 103.276C1621.87 101.045 1619.79 99.2288 1617.37 97.986C1614.96 96.4173 1612.48 93.0611 1614.56 91.0911C1615.33 90.3979 1616.42 90.2155 1617.26 89.5953C1619.67 87.7348 1617.88 83.6124 1615.18 82.2991C1612.48 80.9858 1609.2 81.1317 1606.42 79.9643C1603.65 78.7969 1601.46 74.9664 1603.58 72.6681C1606.72 69.3847 1612.45 75.2218 1616.46 73.1423C1620.48 71.0629 1617.92 65.2624 1614.67 62.4898C1611.42 59.7172 1607.12 56.361 1608.36 52.2751C1608.65 51.4709 1609.07 50.7193 1609.6 50.0497C1606.59 49.4278 1603.46 49.7201 1600.62 50.8888C1597.23 52.3481 1594.24 55.1206 1590.51 55.4125C1587.48 55.6678 1584.53 54.245 1581.5 54.4274C1579.13 54.911 1576.79 55.5199 1574.49 56.2515C1573.33 56.6081 1572.08 56.5728 1570.94 56.1509C1569.8 55.729 1568.83 54.944 1568.18 53.9167C1567.73 52.548 1567.82 51.062 1568.43 49.7579C1570.14 46.3121 1572.05 42.9739 1574.16 39.762C1575.21 38.1288 1575.77 36.2297 1575.77 34.2899C1575.77 32.35 1575.21 30.4509 1574.16 28.8177C1570.73 24.9142 1563.98 26.4464 1559.56 23.3819C1554.71 19.7338 1554.27 11.3431 1548.62 9.92037C1546.19 9.75115 1543.75 9.75115 1541.32 9.92037L1539.24 17.2166C1538.62 19.296 1537.7 21.6674 1535.59 22.2146C1532.16 23.0901 1529.93 18.2381 1526.5 17.399C1523.07 16.56 1519.89 20.4269 1518.58 23.9291C1514.53 34.8735 1514.93 48.8458 1505.19 55.4854C1503.37 56.4881 1501.69 57.7137 1500.19 59.1336C1496.03 63.8396 1498.07 73.4707 1492.08 75.3312C1490.44 75.5691 1488.78 75.7152 1487.12 75.769C1483.25 76.4986 1480.84 80.2927 1478.95 83.7219C1474.46 91.8572 1470.01 99.9925 1465.52 108.091C1462.9 112.16 1461.14 116.714 1460.33 121.48C1459.6 128.776 1463.33 135.744 1463.51 143.04C1463.66 144.725 1463.26 146.415 1462.38 147.856C1460.11 151.03 1455.3 150.191 1451.43 150.774C1443.14 152.088 1437.67 161.135 1429.53 162.193C1427.09 162.485 1424.24 162.193 1422.23 163.835C1419.46 166.461 1421.28 171.788 1418.58 174.378C1415.88 176.968 1411.94 174.925 1409.2 172.773C1406.03 170.319 1403.17 167.475 1400.7 164.309C1399.28 162.157 1397.51 160.247 1395.48 158.654C1394.44 157.866 1393.17 157.422 1391.87 157.383C1390.56 157.344 1389.27 157.712 1388.18 158.435C1385.01 160.989 1386.61 165.987 1386.07 170C1384.97 178.172 1375.12 181.747 1370.7 188.788C1368.73 192.035 1368.04 196.084 1366.14 199.258C1363.18 204.438 1357.64 207.539 1352.93 211.26C1346.95 216.039 1342.16 222.131 1338.91 229.063C1395.23 217.389 1449.97 199.149 1504.53 180.871L1647.3 133.008C1647.54 132.362 1647.75 131.705 1647.92 131.038C1649.42 125.128 1647.48 119.291 1641.5 118.197Z" fill="white" stroke="#436AE5" stroke-linecap="round" stroke-linejoin="round"/>
<path d="M1530.51 286.703C1520.04 280.137 1518.11 278.13 1507.19 284.186C1498.63 288.502 1489.46 291.515 1480 293.124C1478.16 293.763 1476.16 293.763 1474.31 293.124C1472.01 292.066 1471.06 289.476 1469.53 287.433C1464.97 281.632 1456.17 282.289 1448.95 283.456L1418.66 288.381C1409.96 289.313 1401.49 291.783 1393.66 295.678C1388.88 298.377 1384.68 302.098 1379.83 304.725C1376.43 306.438 1372.88 307.795 1369.21 308.774C1368.18 311.294 1367.46 313.927 1367.05 316.618C1366.58 319.223 1366.73 321.902 1367.49 324.438C1368.25 326.974 1369.6 329.294 1371.43 331.21C1375.08 334.858 1380.96 335.624 1385.23 338.689C1394.2 345.183 1393.04 354.412 1404.17 359.191C1412.27 362.839 1423.22 363.642 1429.93 369.771C1435.08 374.477 1436.25 383.014 1442.09 386.954C1444.84 388.277 1447.74 389.245 1450.74 389.836C1453.42 390.834 1455.77 392.568 1457.52 394.838C1459.27 397.109 1460.35 399.825 1460.63 402.677C1460.92 406.544 1459.75 410.63 1461.25 414.205C1463.18 418.875 1468.55 420.735 1472.52 423.982C1475.98 427.381 1478.82 431.356 1480.92 435.729C1483.02 440.115 1486.44 443.737 1490.7 446.09H1490.99C1491.24 444.891 1491.33 443.663 1491.25 442.441C1491 440.854 1491.12 439.23 1491.61 437.699C1492.12 436.532 1493.14 435.656 1493.58 434.489C1494.42 432.373 1493.22 430.038 1492.52 427.885C1491.83 425.733 1492.19 422.632 1494.38 422.085C1496.57 421.538 1498.03 423.289 1499.97 422.669C1501.9 422.049 1501.87 418.473 1503.07 416.43C1505.11 413.001 1510.37 414.169 1513.8 412.053C1516.17 410.52 1517.12 407.565 1518.84 405.304C1522.19 400.889 1528.43 399.138 1531.13 394.359C1531.88 392.786 1532.47 391.15 1532.92 389.471C1533.76 387.004 1535 384.688 1536.57 382.612C1540.7 376.921 1548 372.799 1548.69 365.794C1548.64 364.095 1548.77 362.394 1549.09 360.724C1549.75 359.107 1550.72 357.633 1551.94 356.382C1561.06 344.927 1561.1 327.197 1573.51 319.427C1573.86 318.774 1574.25 318.14 1574.67 317.53C1560.53 306.454 1545.79 296.163 1530.51 286.703Z" fill="white" stroke="#436AE5" stroke-linecap="round" stroke-linejoin="round"/>
<path d="M1164.43 375.316C1164.65 370.2 1163.96 365.085 1162.39 360.213C1161.04 357.129 1159.35 354.205 1157.35 351.494C1149.02 354.157 1140.47 356.098 1131.8 357.294L1071.11 367.254C1066 380.192 1060.28 392.864 1053.96 405.267C1048.12 416.576 1041.7 427.849 1039.36 440.362C1034.87 463.418 1044.03 486.146 1046.66 508.837C1049.51 533.973 1037.5 555.898 1032.83 580.195C1031.66 583.802 1031.92 587.719 1033.56 591.139C1036.44 595.663 1043.16 595.882 1048.16 593.875C1053.16 591.869 1057.43 588.293 1062.53 586.579C1071.77 583.587 1082.02 587.564 1091.51 585.484C1095.82 584.536 1099.8 582.383 1104.14 581.836C1106.29 581.305 1108.55 581.488 1110.58 582.357C1112.62 583.226 1114.32 584.733 1115.42 586.652C1116.95 590.3 1114.91 594.641 1115.42 598.691C1115.85 603.871 1120.09 607.774 1122.72 612.152C1124.54 615.019 1125.78 618.217 1126.37 621.564C1130.46 621.588 1134.51 620.716 1138.23 619.011C1141.91 616.734 1145.43 614.211 1148.77 611.459C1152.43 608.856 1156.96 607.771 1161.4 608.431C1166.64 609.588 1172.12 608.783 1176.8 606.169C1175.4 600.541 1174.31 594.842 1173.52 589.096C1162.6 518.505 1165.23 446.783 1164.43 375.316Z" fill="white" stroke="#436AE5" stroke-linecap="round" stroke-linejoin="round"/>
<path d="M1314.61 499.133C1313.04 491.618 1310.96 482.863 1316.03 477.062C1318 474.8 1321.07 472.648 1320.41 469.766C1319.96 468.384 1319.08 467.182 1317.89 466.337C1312.95 462.089 1308.73 457.076 1305.37 451.489C1302.58 445.945 1300.45 440.092 1299.02 434.051C1289.68 400.61 1280.33 367.156 1270.96 333.691C1255.34 337.485 1239.71 341.133 1224.06 344.635C1213.44 347.043 1202.49 349.451 1191.8 347.554C1185.82 346.459 1179.83 344.088 1173.85 345.037C1170.03 345.994 1166.35 347.441 1162.9 349.341C1161.15 350.144 1159.25 350.837 1157.5 351.494C1159.49 354.205 1161.18 357.129 1162.53 360.213C1164.11 365.085 1164.8 370.2 1164.58 375.316C1165.38 446.673 1162.75 518.395 1173.19 588.987C1173.98 594.732 1175.07 600.432 1176.47 606.06C1180.56 603.871 1184.32 600.77 1189.17 598.107C1197.71 593.401 1200.63 604.819 1209.57 605.695C1211.73 605.891 1213.9 605.718 1216 605.184C1216 598.727 1217.86 591.796 1214.57 586.25C1213 583.66 1210.41 581.654 1209.57 578.772C1207.82 572.789 1214.21 567.827 1220.01 565.42C1226.64 563.021 1233.45 561.142 1240.38 559.802L1303.77 545.939C1307.67 544.886 1311.71 544.444 1315.74 544.625C1318.18 529.522 1317.8 514.097 1314.61 499.133Z" fill="white" stroke="#436AE5" stroke-linecap="round" stroke-linejoin="round"/>
<path d="M1480.92 435.401C1478.82 431.028 1475.98 427.053 1472.52 423.654C1468.65 420.407 1463.18 418.546 1461.25 413.877C1459.75 410.229 1460.92 406.216 1460.63 402.349C1460.35 399.497 1459.27 396.78 1457.52 394.51C1455.77 392.239 1453.42 390.506 1450.74 389.507C1447.74 388.917 1444.84 387.949 1442.09 386.625C1436.25 382.685 1435.08 374.149 1429.93 369.443C1423.22 363.314 1412.27 362.365 1404.17 358.863C1393.04 354.084 1394.2 344.854 1385.23 338.361C1380.96 335.296 1375.26 334.457 1371.43 330.882C1369.6 328.966 1368.25 326.646 1367.49 324.11C1366.73 321.574 1366.58 318.895 1367.05 316.289C1367.46 313.599 1368.18 310.966 1369.2 308.446L1365.56 309.504C1334.17 317.895 1302.7 325.896 1271.14 333.509C1280.48 366.974 1289.84 400.427 1299.21 433.868C1300.63 439.91 1302.76 445.763 1305.56 451.306C1308.91 456.894 1313.13 461.907 1318.07 466.154C1319.26 467 1320.14 468.201 1320.59 469.583C1321.25 472.502 1318.18 474.654 1316.21 476.88C1311.21 482.68 1313.22 491.472 1314.79 498.951C1317.94 513.959 1318.28 529.422 1315.78 544.552H1316.58C1323.88 545.501 1329.68 550.499 1336.51 552.797C1344.64 555.57 1353.51 554.402 1362.05 553.235L1432.45 543.385C1436.94 542.765 1441.98 542.254 1445.63 544.99C1448.11 546.814 1450.48 550.207 1453.36 549.076C1454.18 548.6 1454.85 547.911 1455.31 547.082C1455.77 546.253 1455.99 545.316 1455.95 544.37C1456.28 540.467 1455.26 536.526 1455.44 532.587C1455.37 530.61 1455.93 528.661 1457.03 527.018C1458.13 525.374 1459.72 524.119 1461.57 523.43C1463.56 523.183 1465.57 523.357 1467.49 523.94C1473.11 525.048 1478.9 524.986 1484.49 523.758C1484.49 522.08 1484.13 520.402 1483.87 518.76C1481.8 504.72 1481.57 490.47 1483.18 476.369C1483.53 469.373 1484.76 462.449 1486.83 455.757C1488.58 452.533 1490.02 449.149 1491.14 445.652H1490.84C1486.55 443.352 1483.08 439.768 1480.92 435.401Z" fill="white" stroke="#436AE5" stroke-linecap="round" stroke-linejoin="round"/>
<path d="M1339.86 290.242C1344.61 286.01 1346.76 279.589 1350.81 274.883C1355.99 269.119 1364.02 266.128 1368 259.525C1371.32 254.052 1372.34 245.917 1378.51 244.239C1380.85 243.965 1383.2 243.819 1385.55 243.801C1391.54 242.853 1394.97 236.505 1400.15 233.514C1402.52 232.164 1405.3 231.58 1407.45 230.084C1409.47 228.63 1411.11 226.717 1412.24 224.503C1413.37 222.289 1413.95 219.838 1413.95 217.352C1414.02 214.903 1413.8 212.453 1413.29 210.056C1385.92 218.119 1358.29 225.342 1330.3 230.814C1277.13 241.211 1222.6 245.406 1170.85 261.312C1157.57 265.398 1144.39 270.25 1130.71 271.491C1118.7 272.585 1104.5 271.782 1097.02 281.231C1093.87 286.029 1091.89 291.504 1091.26 297.21C1086.47 321.153 1079.58 344.628 1070.67 367.363L1131.37 357.404C1142.01 356.114 1152.44 353.441 1162.39 349.451C1165.83 347.55 1169.51 346.103 1173.33 345.146C1179.32 344.198 1185.31 346.569 1191.29 347.663C1201.98 349.56 1212.93 347.152 1223.55 344.745C1253.99 337.765 1284.32 330.468 1314.53 322.856C1314.72 315.56 1315.3 307.315 1320.37 301.916C1325.45 296.517 1334.28 295.057 1339.86 290.242Z" fill="white" stroke="#436AE5" stroke-linecap="round" stroke-linejoin="round"/>
<path d="M1667.85 168.285C1667.48 165.549 1665.69 162.12 1663.06 162.886C1661.6 163.287 1660.84 164.819 1660.15 166.169C1658.25 169.817 1654.96 173.648 1650.84 173.247C1648.03 172.991 1645.73 170.875 1643.03 170.073C1634.31 167.41 1634.45 176.566 1628.83 177.551C1623.21 178.536 1620.99 169.088 1621.53 164.892C1623.32 152.854 1628.39 171.167 1633.91 161.244C1636.13 157.341 1639.31 160.733 1641.9 159.311C1644.49 157.888 1644.27 153.802 1646.97 152.233C1648.1 151.577 1649.56 151.759 1650.62 151.212C1653.36 149.899 1652.74 145.703 1650.95 143.259C1649.16 140.815 1646.57 138.516 1646.57 135.488C1646.6 134.618 1646.76 133.758 1647.04 132.935L1504.27 180.798C1474.17 190.867 1444.02 200.936 1413.58 209.983C1414.09 212.38 1414.31 214.83 1414.24 217.279C1414.25 219.765 1413.66 222.216 1412.53 224.43C1411.4 226.644 1409.76 228.557 1407.74 230.011C1405.41 231.507 1402.63 232.091 1400.44 233.441C1395.15 236.359 1391.72 242.78 1385.85 243.728C1383.49 243.746 1381.14 243.892 1378.8 244.166C1372.64 245.844 1371.5 253.979 1368.29 259.452C1364.31 266.055 1356.29 269.046 1351.1 274.81C1346.87 279.516 1344.72 285.755 1340.15 290.169C1334.57 295.094 1326.29 296.298 1321.18 301.733C1316.07 307.169 1315.52 315.195 1315.34 322.674C1332.15 318.418 1348.93 314.052 1365.66 309.577C1370.71 308.424 1375.6 306.711 1380.26 304.469C1385.12 301.843 1389.31 298.122 1394.09 295.422C1401.93 291.528 1410.39 289.057 1419.09 288.126L1449.38 283.201C1456.68 282.034 1465.41 281.377 1469.97 287.177C1471.5 289.147 1472.45 291.811 1474.75 292.868C1476.59 293.508 1478.6 293.508 1480.44 292.868C1489.74 291.275 1498.75 288.325 1507.19 284.113C1518.14 278.057 1520.04 280.064 1530.51 286.63C1545.66 296.054 1560.28 306.296 1574.31 317.311C1576.91 313.127 1580.58 309.704 1584.93 307.388C1588.18 305.673 1591.75 304.652 1595.04 303.01C1598.46 301.603 1601.25 299.013 1602.92 295.714C1603.67 293.419 1604.15 291.043 1604.34 288.637C1606.1 277.364 1614.05 265.909 1620.58 256.752C1622.82 253.311 1625.81 250.423 1629.32 248.306C1632.84 246.189 1636.79 244.898 1640.88 244.531C1642.64 244.592 1644.41 244.507 1646.17 244.275C1647.05 244.155 1647.89 243.806 1648.6 243.262C1649.31 242.719 1649.87 241.999 1650.22 241.175C1650.46 240.097 1650.57 238.995 1650.55 237.891C1650.77 235.629 1652.04 233.623 1652.37 231.361C1652.7 229.099 1653.47 228.662 1651.39 227.713C1647.74 226.071 1643.5 228.552 1640.44 231.179C1637.37 233.805 1634.2 236.943 1630.18 236.687C1626.17 236.432 1623.07 230.376 1626.53 228.443C1627.69 227.967 1628.94 227.755 1630.18 227.822C1632.02 227.849 1633.83 227.432 1635.47 226.606C1637.11 225.78 1638.53 224.571 1639.6 223.08C1640.07 222.314 1640.38 221.453 1640.49 220.558C1640.6 219.663 1640.51 218.755 1640.23 217.897C1639.95 217.04 1639.49 216.253 1638.88 215.591C1638.26 214.93 1637.51 214.411 1636.68 214.069C1634.5 213.902 1632.31 214.062 1630.18 214.543C1627.99 214.543 1625.33 213.157 1625.77 210.895C1626.64 206.481 1636.53 210.457 1636.72 205.97C1636.67 205.205 1636.5 204.453 1636.2 203.745C1636.02 202.513 1636.19 201.255 1636.69 200.114C1637.18 198.972 1637.99 197.994 1639.02 197.29C1640.05 196.586 1641.25 196.185 1642.5 196.133C1643.74 196.081 1644.98 196.38 1646.06 196.996C1647.55 198.127 1648.54 199.951 1650.18 200.863C1653.83 202.76 1657.88 199.695 1660.29 196.485C1666.31 188.387 1669.01 178.303 1667.85 168.285Z" fill="white" stroke="#436AE5" stroke-linecap="round" stroke-linejoin="round"/>
<path d="M1157.86 127.244C1155.86 124.112 1154.43 120.655 1153.63 117.029C1153.44 112.834 1156.25 109.113 1157.06 104.99C1157.46 102.075 1157.35 99.1118 1156.73 96.2348C1150.56 56.981 1146.11 17.5083 1143.12 -22.1103C1142.16 -22.3981 1141.24 -22.8024 1140.38 -23.3142C1133.7 -27.2541 1130.42 -34.9152 1127.53 -42.0655C1125.15 -47.3868 1123.42 -52.9708 1122.35 -58.7009C1086.59 -51.4047 1049.36 -51.4047 1014.25 -41.9925C1014.73 -40.8981 1015.05 -39.6942 1015.46 -38.5633C1018.45 -29.9902 1027.43 -24.9558 1031.84 -17.0029C1033.28 -14.0917 1034.12 -10.9168 1034.29 -7.67271C1034.46 -4.42865 1033.97 -1.18379 1032.84 1.86298C1031.71 4.90974 1029.97 7.69421 1027.73 10.0458C1025.49 12.3973 1022.79 14.2664 1019.8 15.5384C1012.68 18.165 1002.03 20.135 1003.01 27.6501C1003.38 29.3411 1004.01 30.9653 1004.87 32.4656C1012.35 49.2835 994.909 66.5391 992.464 84.7797C991.822 89.7898 992.33 94.8803 993.948 99.6652C995.567 104.45 998.255 108.804 1001.81 112.396C1006.48 117.066 1012.5 120.239 1017.5 124.617C1021.93 128.549 1025.47 133.368 1027.91 138.761C1030.35 144.154 1031.63 150 1031.66 155.918C1037.39 152.27 1045.49 148.95 1050.16 153.802C1055.71 159.493 1049.54 168.759 1049.73 176.712C1050.09 192.801 1074.51 196.449 1081.4 210.968C1085.56 219.76 1082.72 231.507 1089.43 238.512C1094.03 243.254 1101.51 244.02 1107.46 246.683C1107.28 244.304 1107.56 241.912 1108.3 239.642C1108.79 238.076 1109.76 236.7 1111.07 235.707C1112.37 234.713 1113.96 234.151 1115.6 234.097C1118.81 234.28 1121.22 236.979 1123.81 238.84C1126.4 240.7 1130.71 241.576 1132.39 238.84C1133.48 237.052 1132.82 234.754 1133.26 232.674C1134.07 229.026 1138.01 227.093 1141.22 225.086C1144.43 223.08 1147.5 219.14 1145.6 215.893C1144.21 213.522 1140.42 211.661 1141.95 209.254C1142.27 208.771 1142.68 208.351 1143.15 208.013C1144.98 206.166 1146.37 203.94 1147.23 201.493C1148.1 199.047 1148.41 196.44 1148.15 193.859C1148.15 188.678 1146.8 183.571 1147.02 178.39C1147.42 169.453 1152.02 161.354 1155.6 153.146C1159.17 144.937 1161.47 135.452 1157.86 127.244Z" fill="white" stroke="#436AE5" stroke-linecap="round" stroke-linejoin="round"/>
<path d="M901.7 81.2774C915.466 78.6642 929.411 77.1031 943.415 76.6078C949.426 76.9235 955.454 76.5193 961.37 75.4039C966.991 73.7988 970.676 71.3181 977.027 72.5949C983.377 73.8718 987.756 78.8697 992.902 82.4084C996.552 65.0433 1012.03 48.5538 1004.87 32.5021C1004.01 31.0017 1003.38 29.3776 1003.01 27.6866C1002.03 20.1714 1012.68 18.2014 1019.8 15.5748C1022.79 14.3028 1025.49 12.4337 1027.73 10.0822C1029.97 7.73064 1031.71 4.94616 1032.84 1.8994C1033.97 -1.14737 1034.46 -4.39223 1034.29 -7.63628C1034.12 -10.8803 1033.28 -14.0553 1031.84 -16.9665C1027.43 -24.9194 1018.45 -29.9538 1015.46 -38.5269C1014.65 -40.7887 1014.14 -43.4518 1012.06 -44.5828C1009.98 -45.7137 1007.57 -44.8381 1005.31 -44.8746C998.267 -44.8746 994.362 -53.0829 992.793 -59.9049C990.285 -69.9429 988.588 -80.1662 987.72 -90.4761C922.028 -81.8665 855.826 -77.5982 789.66 -73.6947C790.022 -65.1889 789.236 -56.6731 787.324 -48.3768C786.329 -45.2698 785.669 -42.0657 785.354 -38.8187C785.41 -35.9394 785.852 -33.0806 786.667 -30.3186C788.621 -20.4124 791.937 -10.8242 796.521 -1.82677C798.017 0.836357 799.769 3.35358 801.192 6.05318C803.853 11.9739 806.108 18.0681 807.944 24.2938C810.097 31.0063 812.214 37.7189 814.367 44.4314C816.254 49.9345 817.838 55.5366 819.112 61.2128C820.352 68.1807 820.024 75.3675 821.447 82.2989C821.691 83.5393 821.983 84.7553 822.323 85.947C833.089 85.4911 843.809 84.272 854.403 82.2989C870.387 79.3804 885.57 84.3783 901.7 81.2774Z" fill="white" stroke="#436AE5" stroke-linecap="round" stroke-linejoin="round"/>
<path d="M1064.14 306.586C1063.81 307.866 1063.81 309.209 1064.14 310.489C1065.53 314.429 1071.26 313.517 1075.09 312.24C1079.56 310.783 1084.17 309.829 1088.85 309.395C1089.8 305.345 1090.71 301.296 1091.51 297.21C1092.15 291.504 1094.13 286.03 1097.28 281.231C1100.35 277.541 1104.56 274.974 1109.25 273.935C1108.66 265.69 1108.12 257.482 1107.53 249.237C1107.53 248.398 1107.53 247.559 1107.35 246.683C1101.4 244.02 1093.92 243.254 1089.32 238.512C1082.61 231.507 1085.45 219.76 1081.29 210.968C1074.4 196.376 1049.98 192.728 1049.62 176.712C1049.43 168.76 1055.6 159.493 1050.05 153.802C1045.38 148.95 1037.28 152.306 1031.55 155.918C1031.52 150 1030.24 144.154 1027.8 138.761C1025.36 133.368 1021.82 128.549 1017.39 124.617C1012.39 120.239 1006.44 117.066 1001.7 112.396C998.145 108.804 995.458 104.45 993.839 99.6653C992.22 94.8804 991.712 89.7899 992.354 84.7798C992.354 83.9772 992.5 83.1746 992.792 82.372C987.646 78.7239 983.048 73.7624 976.917 72.5585C970.786 71.3546 966.881 73.7624 961.26 75.3676C955.344 76.483 949.317 76.8871 943.305 76.5715C929.302 77.0668 915.357 78.6278 901.591 81.2411C885.46 84.342 870.278 79.3441 854.147 82.3355C843.553 84.3086 832.833 85.5277 822.067 85.9836C823.022 90.6255 825.394 94.8571 828.855 98.0954C830.759 99.6633 832.43 101.494 833.819 103.531C840.534 113.053 856.446 116.956 857.395 128.74C857.833 134.102 854.658 139.283 855.132 144.645C855.935 154.24 865.716 156.502 870.351 163.543C877.102 173.721 876.336 188.532 875.971 200.024C874.913 235.921 880.131 271.491 884.985 307.169C945.531 296.736 1006.73 290.753 1067.9 284.843C1066.76 292.188 1065.5 299.435 1064.14 306.586Z" fill="white" stroke="#436AE5" stroke-linecap="round" stroke-linejoin="round"/>
<path d="M1039.32 440.471C1041.77 427.958 1048.19 416.686 1053.92 405.377C1069.54 374.957 1081.32 342.716 1088.99 309.395C1084.32 309.829 1079.7 310.783 1075.24 312.24C1071.26 313.517 1065.53 314.429 1064.29 310.489C1063.96 309.208 1063.96 307.866 1064.29 306.585C1065.65 299.435 1066.99 292.285 1068.3 285.135C1007.13 291.044 945.932 297.027 885.387 307.461C888.416 329.642 891.299 351.895 892.43 374.222C893.89 402.495 893.89 432.227 896.956 460.354C898.846 462.005 901.068 463.234 903.473 463.957C905.877 464.681 908.408 464.883 910.897 464.549C913.962 464.111 917.648 463.053 919.656 465.425C920.548 466.745 920.984 468.321 920.897 469.912C921.371 479.215 921.626 488.59 921.699 497.929C961.308 490.097 1001.36 484.676 1041.62 481.695C1038.7 468.015 1036.48 454.298 1039.32 440.471Z" fill="white" stroke="#436AE5" stroke-linecap="round" stroke-linejoin="round"/>
<path d="M1153.23 675.155C1152.56 672.692 1151.23 670.464 1149.36 668.722C1147.5 666.981 1145.18 665.798 1142.68 665.305C1140.47 665.126 1138.28 664.834 1136.11 664.43C1134.21 663.871 1132.55 662.723 1131.35 661.154C1130.15 659.584 1129.48 657.673 1129.44 655.698C1129.4 653.723 1129.99 651.787 1131.12 650.169C1132.25 648.551 1133.87 647.336 1135.74 646.7C1137.54 646.344 1139.3 645.831 1141 645.168C1141.9 644.511 1142.64 643.657 1143.15 642.672C1143.67 641.687 1143.96 640.597 1143.99 639.484C1144.02 638.371 1143.8 637.266 1143.34 636.253C1142.88 635.24 1142.19 634.346 1141.33 633.639C1139.45 632.346 1137.22 631.669 1134.95 631.702C1132.67 631.734 1130.46 632.475 1128.63 633.822C1126.83 635.298 1124.93 636.639 1122.93 637.835C1121.91 638.398 1120.72 638.589 1119.57 638.377C1118.42 638.164 1117.38 637.56 1116.62 636.667C1114.8 633.858 1117.39 629.152 1114.65 627.219C1111.91 625.285 1109.58 627.985 1107.57 629.845C1105.23 632.189 1102.25 633.786 1099 634.435C1095.75 635.085 1092.38 634.757 1089.32 633.494C1083.45 630.429 1081.4 621.053 1086.62 616.968C1091.84 612.882 1099.21 616.019 1105.42 618.208C1111.48 620.37 1117.85 621.517 1124.28 621.601H1126C1125.42 618.254 1124.18 615.055 1122.35 612.188C1119.61 607.811 1115.38 603.907 1115.05 598.727C1114.69 594.678 1116.73 590.446 1115.05 586.688C1113.95 584.77 1112.25 583.262 1110.22 582.393C1108.18 581.524 1105.92 581.342 1103.77 581.873C1099.43 582.529 1095.45 584.682 1091.15 585.521C1081.66 587.6 1071.4 583.624 1062.17 586.615C1057.06 588.257 1052.79 591.832 1047.79 593.911C1042.79 595.991 1036.11 595.699 1033.19 591.175C1031.56 587.755 1031.3 583.838 1032.46 580.231C1037.13 555.935 1049.14 534.009 1046.29 508.874C1045.27 499.79 1043.19 490.633 1041.37 481.622C1001.1 484.603 961.053 490.024 921.444 497.856C921.444 508.679 921.286 519.502 920.969 530.325C920.268 538.779 920.537 547.286 921.772 555.679C924.48 567.039 929.567 577.695 936.699 586.944C941.808 594.24 947.648 602.339 946.078 611.058C944.983 617.186 940.275 622.257 939.509 628.423C939.436 632.69 940.002 636.945 941.188 641.045C943.158 651.99 940.932 663.554 940.64 674.681C947.894 672.192 955.624 671.405 963.231 672.383C968.523 673.185 973.596 674.973 978.851 676.031C986.15 677.526 1006.77 681.393 1012.39 675.119C1018.52 668.224 1012.03 660.125 1025.82 664.539C1026.68 664.686 1027.55 664.686 1028.41 664.539C1034.47 664.247 1045.93 677.344 1049.76 670.194C1051.22 667.494 1049.36 664.174 1047.17 662.058C1044.98 659.942 1042.17 658.155 1041.18 655.236C1040.81 654.056 1040.63 652.825 1040.64 651.588C1040.56 650.761 1040.71 649.926 1041.08 649.18C1041.57 648.592 1042.27 648.217 1043.03 648.135C1043.79 648.053 1044.56 648.271 1045.16 648.743C1050.43 652.615 1054.13 658.245 1055.6 664.612C1056.7 671.47 1055.27 678.548 1056.59 685.37C1057.9 692.192 1063.88 699.16 1070.56 697.883C1074.61 697.153 1077.57 693.797 1080.96 691.426C1084.36 689.054 1089.47 687.778 1092.21 690.842C1093.15 691.863 1093.77 693.396 1095.16 693.797C1095.71 693.896 1096.27 693.879 1096.81 693.747C1097.35 693.615 1097.86 693.371 1098.3 693.031C1103.28 690.449 1107.05 686.024 1108.81 680.7C1109.62 678.034 1109.56 675.177 1108.62 672.551C1107.69 669.924 1105.94 667.666 1103.63 666.108C1100.67 664.393 1096.33 663.372 1096.33 659.979C1096.33 656.586 1101.91 654.908 1105.02 657.17C1108.12 659.432 1109.43 663.335 1111.95 666.217C1118.92 674.28 1133.41 673.258 1138.92 682.415C1140.82 685.589 1142.57 690.331 1146.22 689.711C1147.21 689.517 1148.14 689.049 1148.88 688.361C1150.72 686.751 1152.1 684.676 1152.86 682.353C1153.63 680.029 1153.75 677.543 1153.23 675.155Z" fill="white" stroke="#436AE5" stroke-linecap="round" stroke-linejoin="round"/>
<path d="M896.993 460.354C893.927 432.227 893.927 402.495 892.467 374.222C890.862 342.337 885.679 310.635 881.519 278.933L718.531 286.229C683.313 287.834 648.314 286.229 613.096 286.813C598.498 287.068 580.834 290.461 566.601 285.426V286.083C553.974 286.265 541.054 286.886 528.427 286.083C526.858 286.083 525.872 297.903 525.252 314.137C567.181 317.304 609.259 318.011 651.27 316.253C651.732 350.472 652.183 384.704 652.62 418.948C652.62 420.188 652.62 421.684 653.934 422.194C654.698 422.486 655.543 422.486 656.306 422.194C666.124 419.896 671.27 428.031 679.408 428.615C682.145 428.615 683.495 426.426 686.707 427.521C690.685 428.761 693.276 433.978 696.013 436.823C698.889 439.74 702.47 441.864 706.409 442.989C710.348 444.114 714.511 444.202 718.494 443.244C723.677 441.894 729.115 438.793 734.005 440.982C738.129 442.806 739.844 447.585 742.362 451.306C746.012 456.852 748.567 455.356 753.749 453.714C755.72 453.094 758.055 450.759 760.391 451.306C762.727 451.854 763.858 455.867 766.559 457.216C769.259 458.566 772.507 456.56 775.427 455.575C782.726 453.094 790.792 457.253 797.835 460.828C804.879 464.403 813.674 467.431 820.243 463.053C823.564 460.828 825.936 456.852 829.878 456.231C831.776 455.903 833.71 456.45 835.535 455.976C838.637 455.137 840.389 451.744 843.308 450.467C848.454 448.169 854.038 453.094 859.658 452.912C862.345 452.396 865.064 452.067 867.797 451.927C872.286 452.474 875.096 457.034 878.745 459.734C881.353 461.411 884.328 462.432 887.417 462.712C890.505 462.991 893.615 462.52 896.482 461.339L897.394 460.901L896.993 460.354Z" fill="white" stroke="#436AE5" stroke-linecap="round" stroke-linejoin="round"/>
<path d="M834.074 103.677C832.685 101.64 831.014 99.8094 829.111 98.2414C824.658 94.5933 822.615 88.2091 821.447 82.4086C820.023 75.4772 820.352 68.2903 819.111 61.3224C817.837 55.6463 816.253 50.0441 814.367 44.5411C812.213 37.8285 810.097 31.116 807.944 24.4034C806.108 18.1777 803.852 12.0835 801.192 6.16281C799.769 3.4632 798.017 0.945984 796.521 -1.71714C793.024 -8.20653 790.386 -15.123 788.674 -22.2925C773.31 -27.5458 758.638 -37.6876 742.945 -34.5502C739.625 -33.5663 736.214 -32.9185 732.763 -32.6167C724.771 -32.6167 718.567 -39.5117 710.866 -42.0654C706.758 -43.2055 702.5 -43.7099 698.239 -43.5611L498.902 -47.2092C497.369 -10.2173 495.824 26.7625 494.267 63.7302C521.164 63.2924 547.44 64.8611 574.301 66.4663C574.009 84.0502 573.607 101.646 573.096 119.255C578.372 119.759 583.675 119.917 588.972 119.729L730.72 117.175C768.2 116.519 805.571 113.527 843.089 111.995C839.641 109.744 836.594 106.933 834.074 103.677Z" fill="white" stroke="#436AE5" stroke-linecap="round" stroke-linejoin="round"/>
<path d="M876.226 200.206C876.591 188.569 877.358 173.757 870.606 163.725C865.971 156.684 856.19 154.422 855.388 144.828C854.913 139.465 858.088 134.285 857.65 128.922C857.03 121.151 849.913 116.81 843.052 111.995C805.535 113.636 768.164 116.518 730.683 117.175L588.935 119.729C583.639 119.917 578.336 119.759 573.06 119.254C571.454 174.706 568.863 230.121 566.235 285.536C580.469 290.424 597.986 287.177 612.73 286.922C647.948 286.302 682.947 287.943 718.165 286.338L881.153 279.042C877.442 252.934 875.795 226.573 876.226 200.206Z" fill="white" stroke="#436AE5" stroke-linecap="round" stroke-linejoin="round"/>
<path d="M945.078 611.614C946.684 602.858 940.808 594.723 935.699 587.463C928.567 578.214 923.479 567.558 920.772 556.199C919.537 547.818 919.267 539.323 919.969 530.881C920.772 510.695 920.662 490.521 919.641 470.359C919.728 468.768 919.292 467.192 918.4 465.871C916.393 463.537 912.67 464.558 909.641 464.996C907.253 465.324 904.823 465.153 902.505 464.494C900.187 463.834 898.031 462.701 896.174 461.165C895.846 461.165 895.554 461.494 895.225 461.603C892.364 462.782 889.26 463.251 886.178 462.972C883.096 462.692 880.127 461.672 877.525 459.998C873.875 457.335 871.175 452.702 866.576 452.227C863.8 452.373 861.041 452.752 858.328 453.358C852.708 453.541 847.125 448.579 841.979 450.878C839.059 452.191 837.307 455.584 834.205 456.386C832.38 456.861 830.556 456.386 828.548 456.642C824.607 457.262 822.198 461.238 818.877 463.464C812.344 467.841 803.513 464.813 796.506 461.238C789.499 457.663 781.579 453.504 774.097 456.022C771.178 457.007 768.003 458.977 765.229 457.627C762.455 456.277 761.908 452.41 759.061 451.753C756.215 451.096 754.39 453.504 752.419 454.124C747.237 455.803 744.828 457.262 741.033 451.717C738.515 448.069 736.799 443.253 732.675 441.393C727.785 439.204 722.347 442.341 717.165 443.654C713.176 444.623 709.005 444.54 705.058 443.415C701.111 442.289 697.524 440.16 694.647 437.234C691.947 434.425 689.355 429.171 685.377 427.931C682.02 426.873 680.67 429.244 678.078 429.025C669.94 428.442 664.794 420.343 654.977 422.641C654.208 422.905 653.373 422.905 652.605 422.641C651.473 422.094 651.291 420.598 651.291 419.394C650.853 385.151 650.403 350.907 649.941 316.663C607.929 318.439 565.85 317.733 523.922 314.547C522.572 348.329 522.827 401.263 522.791 406.772C522.463 458.101 523.375 508.919 519.616 559.993C511.779 560.557 503.906 560.337 496.113 559.336L422.94 555.214L386.445 553.171C376.481 552.624 366.81 550.289 356.92 551.821C358.161 556.965 362.285 559.117 365.131 563.021C365.606 563.714 366.007 564.517 366.445 565.319C367.595 565.439 368.708 565.795 369.713 566.367C370.718 566.938 371.594 567.712 372.284 568.639C375.35 572.287 374.255 579 379.839 580.714C381.591 581.262 383.488 580.933 385.313 581.371C391.408 582.83 392.101 590.929 393.78 596.948C394.754 600.386 396.431 603.584 398.706 606.341C400.98 609.098 403.801 611.353 406.991 612.964C413.269 616.065 421.59 617.487 423.962 623.908C424.462 626.12 424.816 628.362 425.02 630.621C426.626 639.048 435.494 644.265 438.341 652.509C440.202 657.836 439.18 663.709 439.545 669.364C440.275 681.95 449.289 680.928 456.005 688.297C460.384 693.04 458.194 701.832 463.304 705.881C465.602 707.332 468.221 708.196 470.931 708.399C482.059 710.388 492.346 715.631 500.492 723.465C502.5 725.399 504.835 727.661 507.572 727.113C510.31 726.566 512.098 723.246 513.923 720.766C515.747 718.285 520.163 716.68 521.514 719.489C527.572 714.418 523.74 702.817 530.017 698.001C533.667 695.302 538.812 696.104 542.535 693.624C545.163 691.909 546.586 688.808 549.25 687.166C552.391 685.683 555.942 685.31 559.323 686.108L575.125 687.969C580.128 688.001 584.966 689.767 588.811 692.967C591.913 696.214 592.46 701.029 594.796 704.933C599.431 713.141 609.759 716.242 616 723.173C623.737 731.819 624.065 745.062 630.853 754.438C634.065 758.889 638.481 762.245 641.802 766.513C648.809 775.342 651.218 787.928 660.488 794.275C664.137 796.72 668.553 798.106 671.436 801.572C676.181 807.153 674.392 815.507 675.086 822.804C675.739 830.286 679.177 837.251 684.721 842.321C687.567 844.911 691.217 847.428 691.655 851.259C691.627 853.328 691.419 855.391 691.034 857.424C690.669 864.246 697.056 869.354 703.078 872.527C714.762 878.196 726.989 882.67 739.573 885.88L770.047 894.781C776.652 896.715 787.345 901.165 789.535 894.781C789.696 893.739 789.507 892.673 788.999 891.75C788.491 890.826 787.691 890.096 786.725 889.674C784.769 888.872 782.877 887.921 781.068 886.828C777.419 883.983 778.878 873.184 777.419 868.879C774.377 859.954 771.372 851.016 768.404 842.066C767.791 840.603 767.564 839.008 767.747 837.433C768.404 834.624 771.397 833.164 773.222 830.866C773.829 829.972 774.246 828.963 774.446 827.901C774.647 826.839 774.626 825.747 774.387 824.693C774.147 823.639 773.693 822.646 773.054 821.775C772.414 820.904 771.601 820.174 770.667 819.63C767.966 818.207 763.66 817.222 764.28 814.267C764.609 812.625 766.433 811.859 767.93 811.239C771.542 810.194 774.694 807.956 776.871 804.891C777.374 804.118 777.718 803.252 777.882 802.345C778.046 801.437 778.028 800.506 777.827 799.605C777.626 798.705 777.248 797.854 776.714 797.101C776.18 796.349 775.502 795.711 774.718 795.224C773.757 794.941 772.846 794.51 772.017 793.947C769.645 791.722 773.441 788.037 776.725 787.818C780.01 787.599 784.207 787.818 785.557 784.9C785.857 783.855 785.888 782.752 785.645 781.693C785.402 780.634 784.895 779.653 784.17 778.844C782.682 777.239 781.66 775.258 781.214 773.116C781.032 770.927 783.294 768.556 785.228 769.468C787.163 770.38 786.944 772.824 788.513 773.809C790.082 774.794 792.163 773.554 793.878 772.314L802.089 765.601C803.162 764.864 803.988 763.822 804.462 762.61C805.045 760.348 803.111 758.341 802.126 756.262C801.14 754.182 802.345 750.571 804.498 751.41C805.483 751.775 805.921 752.906 806.578 753.672C809.498 757.137 815.009 754.036 818.257 750.863C819.169 750.024 820.118 748.893 819.717 747.725C819.315 746.558 818.622 746.485 818.038 745.901C815.775 743.639 817.49 739.408 820.41 738.094C823.657 737.095 827.116 737.007 830.41 737.839C837.328 739.145 844.451 738.87 851.249 737.036C854.632 736.11 857.797 734.52 860.56 732.359C863.323 730.198 865.629 727.51 867.343 724.45C869.642 719.927 870.336 714.564 873.474 710.551C875.627 707.778 878.875 705.772 880.408 702.598C882.671 697.965 880.591 692.31 881.868 687.276C883.65 682.524 886.912 678.47 891.174 675.711C891.623 675.241 892.239 674.966 892.89 674.945C894.349 674.945 894.568 677.061 894.094 678.593C893.62 680.126 892.89 681.548 893.802 682.679C894.714 683.81 897.999 682.935 899.349 684.43C901.247 686.583 897.926 690.267 900.298 692.128C902.67 693.988 907.196 691.435 909.239 690.267C918.905 684.134 929.208 679.07 939.969 675.164C940.297 664.22 942.523 652.436 940.516 641.529C939.341 637.427 938.787 633.172 938.874 628.906C939.275 622.777 943.946 617.706 945.078 611.614Z" fill="white" stroke="#436AE5" stroke-miterlimit="10"/>
</g>
<g filter="url(#filter0_d_0_1133)">
<circle cx="1560" cy="733" r="18" fill="white"/>
<circle cx="1560" cy="733" r="15" stroke="#FF7D01" stroke-width="6"/>
</g>
<g filter="url(#filter1_d_0_1133)">
<circle cx="1560" cy="779" r="18" fill="white"/>
<circle cx="1560" cy="779" r="15" stroke="#FF7D01" stroke-width="6"/>
</g>
<g filter="url(#filter2_d_0_1133)">
<circle cx="1456" cy="677" r="18" fill="white"/>
<circle cx="1456" cy="677" r="15" stroke="#FF7D01" stroke-width="6"/>
</g>
<g filter="url(#filter3_d_0_1133)">
<circle cx="1502" cy="644" r="18" fill="white"/>
<circle cx="1502" cy="644" r="15" stroke="#FF7D01" stroke-width="6"/>
</g>
<g filter="url(#filter4_d_0_1133)">
<circle cx="1472" cy="555" r="18" fill="white"/>
<circle cx="1472" cy="555" r="15" stroke="#FF7D01" stroke-width="6"/>
</g>
</g>
<g filter="url(#filter5_d_0_1133)">
<rect x="1126" y="606" width="284" height="104" rx="25" fill="white"/>
</g>
<path d="M1161.76 651H1158.6V636.996H1169.86V639.662H1161.76V643.344H1168.46V645.902H1161.76V651ZM1171.85 636.996H1174.73V651H1171.85V636.996ZM1182.84 651.195C1181.15 651.195 1179.77 650.736 1178.72 649.818C1177.66 648.9 1177.14 647.628 1177.14 646C1177.14 644.372 1177.66 643.1 1178.72 642.182C1179.77 641.264 1181.15 640.805 1182.84 640.805C1184.53 640.805 1185.91 641.264 1186.96 642.182C1188.02 643.1 1188.54 644.372 1188.54 646C1188.54 647.628 1188.02 648.9 1186.96 649.818C1185.91 650.736 1184.53 651.195 1182.84 651.195ZM1182.84 648.725C1183.69 648.725 1184.36 648.471 1184.85 647.963C1185.34 647.455 1185.58 646.801 1185.58 646C1185.58 645.199 1185.34 644.545 1184.85 644.037C1184.36 643.529 1183.69 643.275 1182.84 643.275C1181.98 643.275 1181.31 643.529 1180.84 644.037C1180.35 644.545 1180.11 645.199 1180.11 646C1180.11 646.801 1180.35 647.455 1180.84 647.963C1181.31 648.471 1181.98 648.725 1182.84 648.725ZM1197.46 640.805L1198.46 640.902V644.076C1198.03 643.874 1197.45 643.777 1196.72 643.783C1195.79 643.783 1195.07 644.044 1194.57 644.564C1194.07 645.098 1193.82 645.769 1193.82 646.576V651H1190.94V641H1193.82V642.836H1193.98C1194.09 642.602 1194.23 642.367 1194.42 642.133C1194.61 641.892 1194.82 641.684 1195.06 641.508C1195.32 641.312 1195.67 641.146 1196.1 641.01C1196.53 640.873 1196.98 640.805 1197.46 640.805ZM1200.56 641H1203.45V651H1200.56V641ZM1200.84 639.076C1200.55 638.842 1200.41 638.523 1200.41 638.119C1200.41 637.729 1200.55 637.41 1200.84 637.162C1201.12 636.921 1201.51 636.801 1202.01 636.801C1202.51 636.801 1202.9 636.921 1203.18 637.162C1203.47 637.41 1203.61 637.729 1203.61 638.119C1203.61 638.523 1203.47 638.842 1203.18 639.076C1202.9 639.317 1202.51 639.438 1202.01 639.438C1201.51 639.438 1201.12 639.317 1200.84 639.076ZM1210.69 651.195C1209.32 651.195 1208.18 650.73 1207.24 649.799C1206.31 648.868 1205.85 647.602 1205.85 646C1205.85 644.398 1206.31 643.132 1207.24 642.201C1208.18 641.27 1209.32 640.805 1210.69 640.805C1211.43 640.805 1212.1 640.922 1212.7 641.156C1213.31 641.404 1213.72 641.645 1213.93 641.879L1214.26 642.221H1214.37V636.996H1217.25V651H1214.37V649.359H1214.24C1214.18 649.49 1214.01 649.701 1213.74 649.994C1213.54 650.202 1213.32 650.391 1213.06 650.561C1212.79 650.736 1212.44 650.886 1212.01 651.01C1211.59 651.133 1211.15 651.195 1210.69 651.195ZM1209.57 644.096C1209.07 644.597 1208.82 645.232 1208.82 646C1208.82 646.775 1209.07 647.406 1209.57 647.895C1210.06 648.389 1210.74 648.637 1211.59 648.637C1212.45 648.637 1213.13 648.389 1213.62 647.895C1214.12 647.406 1214.37 646.775 1214.37 646C1214.37 645.212 1214.12 644.574 1213.61 644.086C1213.1 643.604 1212.42 643.363 1211.59 643.363C1210.74 643.363 1210.07 643.607 1209.57 644.096ZM1219.66 648.178C1219.66 647.149 1220.08 646.378 1220.93 645.863C1221.77 645.355 1222.84 645.102 1224.14 645.102C1224.81 645.102 1225.41 645.17 1225.95 645.307C1226.48 645.456 1226.85 645.593 1227.06 645.717L1227.38 645.941V644.477C1227.38 644.047 1227.22 643.686 1226.89 643.393C1226.57 643.106 1226.02 642.963 1225.26 642.963C1224.71 642.963 1224.23 643.064 1223.8 643.266C1223.35 643.474 1223.12 643.793 1223.12 644.223H1220.16C1220.17 643.083 1220.63 642.227 1221.55 641.654C1222.46 641.088 1223.7 640.805 1225.26 640.805C1226.84 640.805 1228.07 641.111 1228.94 641.723C1229.82 642.335 1230.26 643.253 1230.26 644.477V647.602C1230.26 648.005 1230.31 648.285 1230.41 648.441C1230.51 648.598 1230.68 648.676 1230.92 648.676L1231.34 648.598V651C1231.09 651.13 1230.68 651.195 1230.1 651.195C1229.35 651.195 1228.78 651.033 1228.4 650.707C1228.05 650.427 1227.83 650.17 1227.74 649.936L1227.68 649.799H1227.54C1227.54 649.825 1227.5 649.883 1227.44 649.975C1227.37 650.059 1227.25 650.176 1227.06 650.326C1226.88 650.476 1226.66 650.609 1226.4 650.727C1225.74 651.039 1224.87 651.195 1223.8 651.195C1222.61 651.195 1221.63 650.938 1220.84 650.424C1220.05 649.916 1219.66 649.167 1219.66 648.178ZM1224.98 649.018C1225.49 649.018 1225.96 648.952 1226.37 648.822C1226.76 648.699 1227.03 648.572 1227.18 648.441L1227.38 648.256V647.66C1227.33 647.608 1227.26 647.553 1227.18 647.494C1227.07 647.423 1226.81 647.335 1226.4 647.23C1225.97 647.12 1225.5 647.064 1224.98 647.064C1223.4 647.064 1222.62 647.39 1222.62 648.041C1222.62 648.692 1223.4 649.018 1224.98 649.018Z" fill="#272727"/>
<path d="M1167.13 670.731C1168.04 671.493 1168.49 672.542 1168.49 673.878C1168.49 675.214 1168.03 676.266 1167.12 677.033C1166.22 677.795 1165.01 678.176 1163.5 678.176C1161.97 678.176 1160.76 677.836 1159.87 677.156C1158.98 676.477 1158.53 675.551 1158.53 674.379H1160.23C1160.23 675.1 1160.51 675.656 1161.08 676.049C1161.65 676.436 1162.45 676.629 1163.5 676.629C1164.55 676.629 1165.36 676.4 1165.93 675.943C1166.5 675.48 1166.79 674.792 1166.79 673.878C1166.79 672.044 1165.66 671.127 1163.41 671.127C1162.38 671.127 1161.62 671.294 1161.12 671.628C1160.91 671.769 1160.73 671.912 1160.59 672.059C1160.44 672.205 1160.35 672.325 1160.31 672.419L1160.24 672.568H1158.53V665.396H1167.62V666.908H1160.23V670.582H1160.26C1160.35 670.488 1160.46 670.395 1160.59 670.301C1160.73 670.189 1161.08 670.04 1161.66 669.853C1162.22 669.671 1162.87 669.58 1163.59 669.58C1165.04 669.58 1166.23 669.964 1167.13 670.731ZM1185.52 678H1183.46L1181.19 670.837H1181.11L1178.84 678H1176.78L1174.17 669.176H1175.73L1177.8 676.304H1177.87L1180.14 669.176H1182.15L1184.42 676.304H1184.5L1186.57 669.176H1188.13L1185.52 678ZM1189.49 675.53C1189.49 674.628 1189.88 673.96 1190.64 673.526C1191.41 673.099 1192.38 672.885 1193.58 672.885C1194.19 672.885 1194.75 672.958 1195.27 673.104C1195.81 673.257 1196.18 673.4 1196.4 673.535L1196.74 673.755V672.366C1196.74 671.769 1196.52 671.3 1196.08 670.96C1195.65 670.614 1194.98 670.441 1194.1 670.441C1192.33 670.441 1191.45 670.922 1191.45 671.883H1189.91C1189.91 670.91 1190.31 670.187 1191.09 669.712C1191.87 669.237 1192.87 669 1194.1 669C1195.33 669 1196.33 669.287 1197.11 669.861C1197.89 670.441 1198.29 671.276 1198.29 672.366V675.574C1198.29 676.02 1198.35 676.33 1198.47 676.506C1198.58 676.676 1198.78 676.761 1199.05 676.761C1199.28 676.761 1199.44 676.729 1199.51 676.664L1199.55 676.646V678.035C1199.37 678.129 1199.1 678.176 1198.76 678.176C1198.17 678.176 1197.74 678.05 1197.46 677.798C1197.23 677.61 1197.07 677.414 1196.96 677.209L1196.92 677.104H1196.85C1196.7 677.25 1196.55 677.373 1196.4 677.473C1196.22 677.596 1196.02 677.704 1195.8 677.798C1195.23 678.05 1194.53 678.176 1193.7 678.176C1192.46 678.176 1191.44 677.962 1190.66 677.534C1189.88 677.112 1189.49 676.444 1189.49 675.53ZM1193.93 674.326C1192.03 674.326 1191.08 674.728 1191.08 675.53C1191.08 676.339 1192.03 676.743 1193.93 676.743C1194.49 676.743 1195.01 676.682 1195.47 676.559C1195.93 676.447 1196.24 676.342 1196.41 676.242C1196.57 676.16 1196.68 676.087 1196.74 676.022V675.012C1196.68 674.947 1196.57 674.874 1196.41 674.792C1196.21 674.698 1195.9 674.599 1195.48 674.493C1195.03 674.382 1194.51 674.326 1193.93 674.326ZM1206.14 669C1206.49 669 1206.8 669.035 1207.07 669.105L1207.19 669.123V670.819C1206.86 670.702 1206.42 670.641 1205.87 670.635C1204.92 670.635 1204.17 670.937 1203.63 671.54C1203.08 672.144 1202.81 672.899 1202.81 673.808V678H1201.26V669.176H1202.81V670.89H1202.9C1202.98 670.702 1203.13 670.482 1203.33 670.23C1203.51 670.008 1203.71 669.814 1203.93 669.65C1204.19 669.475 1204.51 669.322 1204.9 669.193C1205.3 669.064 1205.71 669 1206.14 669ZM1218.03 673.588L1217.98 674.326H1210.01C1210.01 674.83 1210.31 675.357 1210.9 675.908C1211.5 676.465 1212.29 676.743 1213.29 676.743C1214.02 676.743 1214.62 676.605 1215.09 676.33C1215.47 676.096 1215.74 675.885 1215.9 675.697L1215.97 675.574H1217.79C1217.75 675.662 1217.71 675.753 1217.67 675.847C1217.59 675.981 1217.45 676.189 1217.24 676.471C1217.01 676.77 1216.75 677.036 1216.44 677.271C1216.15 677.499 1215.72 677.707 1215.15 677.895C1214.61 678.082 1213.99 678.176 1213.29 678.176C1211.83 678.176 1210.64 677.76 1209.73 676.928C1208.81 676.096 1208.35 674.982 1208.35 673.588C1208.35 672.205 1208.81 671.095 1209.73 670.257C1210.63 669.419 1211.79 669 1213.2 669C1214.59 669 1215.75 669.419 1216.67 670.257C1217.58 671.095 1218.03 672.205 1218.03 673.588ZM1215.54 671.276C1214.95 670.72 1214.17 670.441 1213.2 670.441C1212.21 670.441 1211.43 670.72 1210.86 671.276C1210.28 671.833 1209.99 672.381 1209.99 672.92H1216.4C1216.4 672.381 1216.11 671.833 1215.54 671.276ZM1229.24 678H1227.69V673.447C1227.69 672.416 1227.43 671.657 1226.91 671.171C1226.39 670.685 1225.69 670.441 1224.81 670.441C1223.88 670.441 1223.17 670.717 1222.68 671.268C1222.18 671.818 1221.93 672.545 1221.93 673.447V678H1220.39V665.396H1221.93V670.529H1222.02C1222.14 670.33 1222.29 670.151 1222.45 669.993C1222.65 669.817 1222.85 669.662 1223.06 669.527C1223.3 669.381 1223.62 669.258 1224.02 669.158C1224.42 669.053 1224.83 669 1225.26 669C1226.4 669 1227.35 669.34 1228.11 670.02C1228.86 670.705 1229.24 671.728 1229.24 673.087V678ZM1232.86 676.919C1231.94 676.081 1231.49 674.971 1231.49 673.588C1231.49 672.211 1231.94 671.101 1232.86 670.257C1233.77 669.419 1234.92 669 1236.33 669C1237.72 669 1238.88 669.419 1239.8 670.257C1240.71 671.101 1241.16 672.211 1241.16 673.588C1241.16 674.971 1240.71 676.081 1239.8 676.919C1238.88 677.757 1237.72 678.176 1236.33 678.176C1234.92 678.176 1233.77 677.757 1232.86 676.919ZM1238.69 675.855C1239.29 675.264 1239.58 674.508 1239.58 673.588C1239.58 672.668 1239.29 671.912 1238.69 671.32C1238.1 670.734 1237.31 670.441 1236.33 670.441C1235.34 670.441 1234.55 670.734 1233.97 671.32C1233.37 671.906 1233.07 672.662 1233.07 673.588C1233.07 674.514 1233.37 675.27 1233.97 675.855C1234.56 676.447 1235.35 676.743 1236.33 676.743C1237.3 676.743 1238.09 676.447 1238.69 675.855ZM1243.52 669.176H1245.07V673.737C1245.07 674.769 1245.33 675.527 1245.85 676.014C1246.37 676.5 1247.07 676.743 1247.94 676.743C1248.86 676.743 1249.57 676.465 1250.08 675.908C1250.57 675.357 1250.82 674.634 1250.82 673.737V669.176H1252.37V678H1250.82V676.646H1250.74C1250.62 676.834 1250.47 677.013 1250.3 677.183C1250.11 677.364 1249.91 677.52 1249.7 677.648C1249.46 677.801 1249.14 677.927 1248.74 678.026C1248.34 678.126 1247.93 678.176 1247.49 678.176C1246.34 678.176 1245.4 677.833 1244.65 677.147C1243.9 676.474 1243.52 675.457 1243.52 674.098V669.176ZM1261.72 675.39C1261.72 675.044 1261.55 674.777 1261.22 674.59C1260.88 674.396 1260.46 674.288 1259.96 674.265C1259.45 674.235 1258.91 674.183 1258.32 674.106C1257.69 674.03 1257.14 673.939 1256.67 673.834C1256.16 673.729 1255.75 673.491 1255.41 673.122C1255.07 672.759 1254.9 672.272 1254.9 671.663C1254.9 670.778 1255.28 670.11 1256.04 669.659C1256.79 669.22 1257.77 669 1258.97 669C1260.19 669 1261.17 669.246 1261.92 669.738C1262.67 670.23 1263.04 671.004 1263.04 672.059H1261.46C1261.46 671.508 1261.26 671.101 1260.86 670.837C1260.47 670.573 1259.84 670.441 1258.97 670.441C1257.31 670.441 1256.48 670.849 1256.48 671.663C1256.48 671.997 1256.65 672.252 1256.99 672.428C1257.33 672.609 1257.75 672.712 1258.25 672.735C1258.71 672.759 1259.26 672.809 1259.9 672.885C1260.51 672.967 1261.05 673.063 1261.55 673.175C1262.04 673.298 1262.47 673.544 1262.81 673.913C1263.15 674.294 1263.31 674.786 1263.31 675.39C1263.31 676.046 1263.1 676.591 1262.69 677.024C1262.28 677.452 1261.76 677.751 1261.14 677.921C1260.54 678.091 1259.83 678.176 1259.01 678.176C1257.29 678.176 1256.06 677.754 1255.33 676.91C1254.92 676.43 1254.71 675.832 1254.71 675.117V674.836H1256.29V675.117C1256.29 676.195 1257.2 676.734 1259.01 676.734C1260.82 676.746 1261.72 676.298 1261.72 675.39ZM1274.97 673.588L1274.91 674.326H1266.94C1266.94 674.83 1267.24 675.357 1267.84 675.908C1268.43 676.465 1269.22 676.743 1270.22 676.743C1270.95 676.743 1271.55 676.605 1272.02 676.33C1272.41 676.096 1272.68 675.885 1272.83 675.697L1272.9 675.574H1274.72C1274.69 675.662 1274.65 675.753 1274.61 675.847C1274.53 675.981 1274.39 676.189 1274.18 676.471C1273.95 676.77 1273.68 677.036 1273.38 677.271C1273.08 677.499 1272.65 677.707 1272.08 677.895C1271.54 678.082 1270.92 678.176 1270.22 678.176C1268.76 678.176 1267.58 677.76 1266.67 676.928C1265.75 676.096 1265.29 674.982 1265.29 673.588C1265.29 672.205 1265.75 671.095 1266.66 670.257C1267.57 669.419 1268.73 669 1270.13 669C1271.53 669 1272.68 669.419 1273.6 670.257C1274.51 671.095 1274.97 672.205 1274.97 673.588ZM1272.47 671.276C1271.88 670.72 1271.11 670.441 1270.13 670.441C1269.15 670.441 1268.37 670.72 1267.79 671.276C1267.21 671.833 1266.92 672.381 1266.92 672.92H1273.33C1273.33 672.381 1273.04 671.833 1272.47 671.276ZM1283.98 675.39C1283.98 675.044 1283.81 674.777 1283.47 674.59C1283.13 674.396 1282.71 674.288 1282.22 674.265C1281.71 674.235 1281.16 674.183 1280.57 674.106C1279.94 674.03 1279.39 673.939 1278.92 673.834C1278.42 673.729 1278 673.491 1277.67 673.122C1277.33 672.759 1277.16 672.272 1277.16 671.663C1277.16 670.778 1277.53 670.11 1278.29 669.659C1279.04 669.22 1280.02 669 1281.22 669C1282.44 669 1283.43 669.246 1284.18 669.738C1284.92 670.23 1285.29 671.004 1285.29 672.059H1283.71C1283.71 671.508 1283.51 671.101 1283.11 670.837C1282.72 670.573 1282.09 670.441 1281.22 670.441C1279.57 670.441 1278.74 670.849 1278.74 671.663C1278.74 671.997 1278.91 672.252 1279.25 672.428C1279.59 672.609 1280.01 672.712 1280.5 672.735C1280.97 672.759 1281.52 672.809 1282.16 672.885C1282.76 672.967 1283.31 673.063 1283.8 673.175C1284.3 673.298 1284.72 673.544 1285.07 673.913C1285.4 674.294 1285.57 674.786 1285.57 675.39C1285.57 676.046 1285.36 676.591 1284.94 677.024C1284.53 677.452 1284.02 677.751 1283.4 677.921C1282.79 678.091 1282.08 678.176 1281.26 678.176C1279.54 678.176 1278.32 677.754 1277.59 676.91C1277.17 676.43 1276.96 675.832 1276.96 675.117V674.836H1278.54V675.117C1278.54 676.195 1279.45 676.734 1281.26 676.734C1283.07 676.746 1283.98 676.298 1283.98 675.39ZM1294.44 668.824V669.176H1297.03V670.582H1294.44V678H1292.89V670.582H1291.41V669.721L1292.89 669.176V668.622C1292.89 667.491 1293.2 666.642 1293.84 666.073C1294.46 665.505 1295.31 665.221 1296.39 665.221C1296.7 665.221 1297.02 665.262 1297.33 665.344C1297.65 665.432 1297.89 665.511 1298.04 665.581L1298.26 665.704V667.093C1297.87 666.747 1297.33 666.574 1296.65 666.574C1295.92 666.574 1295.37 666.75 1295 667.102C1294.63 667.447 1294.44 668.021 1294.44 668.824ZM1299.88 676.919C1298.97 676.081 1298.51 674.971 1298.51 673.588C1298.51 672.211 1298.97 671.101 1299.88 670.257C1300.79 669.419 1301.95 669 1303.36 669C1304.75 669 1305.91 669.419 1306.83 670.257C1307.74 671.101 1308.19 672.211 1308.19 673.588C1308.19 674.971 1307.74 676.081 1306.83 676.919C1305.91 677.757 1304.75 678.176 1303.36 678.176C1301.95 678.176 1300.79 677.757 1299.88 676.919ZM1305.72 675.855C1306.31 675.264 1306.61 674.508 1306.61 673.588C1306.61 672.668 1306.31 671.912 1305.72 671.32C1305.13 670.734 1304.34 670.441 1303.36 670.441C1302.37 670.441 1301.58 670.734 1300.99 671.32C1300.39 671.906 1300.09 672.662 1300.09 673.588C1300.09 674.514 1300.39 675.27 1300.99 675.855C1301.58 676.447 1302.37 676.743 1303.36 676.743C1304.33 676.743 1305.12 676.447 1305.72 675.855ZM1310.54 669.176H1312.09V673.737C1312.09 674.769 1312.35 675.527 1312.87 676.014C1313.4 676.5 1314.09 676.743 1314.97 676.743C1315.89 676.743 1316.6 676.465 1317.1 675.908C1317.6 675.357 1317.85 674.634 1317.85 673.737V669.176H1319.4V678H1317.85V676.646H1317.76C1317.64 676.834 1317.5 677.013 1317.33 677.183C1317.14 677.364 1316.93 677.52 1316.72 677.648C1316.48 677.801 1316.16 677.927 1315.77 678.026C1315.37 678.126 1314.95 678.176 1314.52 678.176C1313.37 678.176 1312.42 677.833 1311.68 677.147C1310.92 676.474 1310.54 675.457 1310.54 674.098V669.176ZM1330.94 678H1329.4V673.447C1329.4 672.416 1329.14 671.657 1328.62 671.171C1328.09 670.685 1327.39 670.441 1326.51 670.441C1325.59 670.441 1324.88 670.717 1324.39 671.268C1323.89 671.818 1323.64 672.545 1323.64 673.447V678H1322.09V669.176H1323.64V670.529H1323.73C1323.85 670.33 1324 670.151 1324.16 669.993C1324.35 669.817 1324.55 669.662 1324.77 669.527C1325.01 669.381 1325.33 669.258 1325.72 669.158C1326.12 669.053 1326.54 669 1326.97 669C1328.11 669 1329.06 669.34 1329.82 670.02C1330.57 670.705 1330.94 671.728 1330.94 673.087V678ZM1341.32 665.396H1342.87V678H1341.32V676.682H1341.25C1341.16 676.834 1340.99 677.01 1340.75 677.209C1340.55 677.373 1340.33 677.522 1340.09 677.657C1339.84 677.798 1339.51 677.918 1339.1 678.018C1338.7 678.123 1338.29 678.176 1337.87 678.176C1336.54 678.176 1335.43 677.754 1334.54 676.91C1333.64 676.066 1333.19 674.959 1333.19 673.588C1333.19 672.229 1333.64 671.121 1334.54 670.266C1335.43 669.422 1336.54 669 1337.87 669C1338.58 669 1339.22 669.126 1339.78 669.378C1340.33 669.63 1340.72 669.876 1340.95 670.116L1341.25 670.494H1341.32V665.396ZM1335.67 671.329C1335.08 671.927 1334.78 672.68 1334.78 673.588C1334.78 674.502 1335.08 675.255 1335.67 675.847C1336.26 676.444 1337.06 676.743 1338.05 676.743C1339.05 676.743 1339.84 676.444 1340.44 675.847C1341.03 675.255 1341.32 674.502 1341.32 673.588C1341.32 672.65 1341.02 671.892 1340.42 671.312C1339.82 670.731 1339.03 670.441 1338.05 670.441C1337.06 670.441 1336.26 670.737 1335.67 671.329Z" fill="#436AE5"/>
</g>
<defs>
<filter id="filter0_d_0_1133" x="1522" y="705" width="76" height="76" filterUnits="userSpaceOnUse" color-interpolation-filters="sRGB">
<feFlood flood-opacity="0" result="BackgroundImageFix"/>
<feColorMatrix in="SourceAlpha" type="matrix" values="0 0 0 0 0 0 0 0 0 0 0 0 0 0 0 0 0 0 127 0" result="hardAlpha"/>
<feOffset dy="10"/>
<feGaussianBlur stdDeviation="10"/>
<feComposite in2="hardAlpha" operator="out"/>
<feColorMatrix type="matrix" values="0 0 0 0 0.246875 0 0 0 0 0.367998 0 0 0 0 0.75 0 0 0 0.7 0"/>
<feBlend mode="normal" in2="BackgroundImageFix" result="effect1_dropShadow_0_1133"/>
<feBlend mode="normal" in="SourceGraphic" in2="effect1_dropShadow_0_1133" result="shape"/>
</filter>
<filter id="filter1_d_0_1133" x="1522" y="751" width="76" height="76" filterUnits="userSpaceOnUse" color-interpolation-filters="sRGB">
<feFlood flood-opacity="0" result="BackgroundImageFix"/>
<feColorMatrix in="SourceAlpha" type="matrix" values="0 0 0 0 0 0 0 0 0 0 0 0 0 0 0 0 0 0 127 0" result="hardAlpha"/>
<feOffset dy="10"/>
<feGaussianBlur stdDeviation="10"/>
<feComposite in2="hardAlpha" operator="out"/>
<feColorMatrix type="matrix" values="0 0 0 0 0.246875 0 0 0 0 0.367998 0 0 0 0 0.75 0 0 0 0.7 0"/>
<feBlend mode="normal" in2="BackgroundImageFix" result="effect1_dropShadow_0_1133"/>
<feBlend mode="normal" in="SourceGraphic" in2="effect1_dropShadow_0_1133" result="shape"/>
</filter>
<filter id="filter2_d_0_1133" x="1418" y="649" width="76" height="76" filterUnits="userSpaceOnUse" color-interpolation-filters="sRGB">
<feFlood flood-opacity="0" result="BackgroundImageFix"/>
<feColorMatrix in="SourceAlpha" type="matrix" values="0 0 0 0 0 0 0 0 0 0 0 0 0 0 0 0 0 0 127 0" result="hardAlpha"/>
<feOffset dy="10"/>
<feGaussianBlur stdDeviation="10"/>
<feComposite in2="hardAlpha" operator="out"/>
<feColorMatrix type="matrix" values="0 0 0 0 0.246875 0 0 0 0 0.367998 0 0 0 0 0.75 0 0 0 0.7 0"/>
<feBlend mode="normal" in2="BackgroundImageFix" result="effect1_dropShadow_0_1133"/>
<feBlend mode="normal" in="SourceGraphic" in2="effect1_dropShadow_0_1133" result="shape"/>
</filter>
<filter id="filter3_d_0_1133" x="1464" y="616" width="76" height="76" filterUnits="userSpaceOnUse" color-interpolation-filters="sRGB">
<feFlood flood-opacity="0" result="BackgroundImageFix"/>
<feColorMatrix in="SourceAlpha" type="matrix" values="0 0 0 0 0 0 0 0 0 0 0 0 0 0 0 0 0 0 127 0" result="hardAlpha"/>
<feOffset dy="10"/>
<feGaussianBlur stdDeviation="10"/>
<feComposite in2="hardAlpha" operator="out"/>
<feColorMatrix type="matrix" values="0 0 0 0 0.246875 0 0 0 0 0.367998 0 0 0 0 0.75 0 0 0 0.7 0"/>
<feBlend mode="normal" in2="BackgroundImageFix" result="effect1_dropShadow_0_1133"/>
<feBlend mode="normal" in="SourceGraphic" in2="effect1_dropShadow_0_1133" result="shape"/>
</filter>
<filter id="filter4_d_0_1133" x="1434" y="527" width="76" height="76" filterUnits="userSpaceOnUse" color-interpolation-filters="sRGB">
<feFlood flood-opacity="0" result="BackgroundImageFix"/>
<feColorMatrix in="SourceAlpha" type="matrix" values="0 0 0 0 0 0 0 0 0 0 0 0 0 0 0 0 0 0 127 0" result="hardAlpha"/>
<feOffset dy="10"/>
<feGaussianBlur stdDeviation="10"/>
<feComposite in2="hardAlpha" operator="out"/>
<feColorMatrix type="matrix" values="0 0 0 0 0.246875 0 0 0 0 0.367998 0 0 0 0 0.75 0 0 0 0.7 0"/>
<feBlend mode="normal" in2="BackgroundImageFix" result="effect1_dropShadow_0_1133"/>
<feBlend mode="normal" in="SourceGraphic" in2="effect1_dropShadow_0_1133" result="shape"/>
</filter>
<filter id="filter5_d_0_1133" x="1086" y="580" width="364" height="184" filterUnits="userSpaceOnUse" color-interpolation-filters="sRGB">
<feFlood flood-opacity="0" result="BackgroundImageFix"/>
<feColorMatrix in="SourceAlpha" type="matrix" values="0 0 0 0 0 0 0 0 0 0 0 0 0 0 0 0 0 0 127 0" result="hardAlpha"/>
<feOffset dy="14"/>
<feGaussianBlur stdDeviation="20"/>
<feComposite in2="hardAlpha" operator="out"/>
<feColorMatrix type="matrix" values="0 0 0 0 0.0437383 0 0 0 0 0.109346 0 0 0 0 0.316262 0 0 0 0.2 0"/>
<feBlend mode="normal" in2="BackgroundImageFix" result="effect1_dropShadow_0_1133"/>
<feBlend mode="normal" in="SourceGraphic" in2="effect1_dropShadow_0_1133" result="shape"/>
</filter>
<clipPath id="clip0_0_1133">
<rect width="1920" height="1023" fill="white"/>
</clipPath>
<clipPath id="clip1_0_1133">
<rect width="2233" height="1478" fill="white" transform="translate(-15 -506)"/>
</clipPath>
<clipPath id="clip2_0_1133">
<rect width="2233" height="1478" fill="white" transform="translate(117 -205)"/>
</clipPath>
</defs>
</svg>
