<svg width="1920" height="1024" viewBox="0 0 1920 1024" fill="none" xmlns="http://www.w3.org/2000/svg">
<g clip-path="url(#clip0_5_64598)">
<rect width="1920" height="1023" transform="translate(0 0.841797)" fill="#F1F4FF"/>
<g clip-path="url(#clip1_5_64598)">
<g clip-path="url(#clip2_5_64598)">
<path d="M1874.18 36.0525C1872.18 39.1339 1858.98 44.3805 1862.98 49.4606C1867.56 55.0403 1875.89 45.0051 1878.3 42.2152C1881.67 38.0512 1887.8 34.8866 1889.42 29.7232C1890.25 27.0999 1890.46 23.5605 1886.92 22.9776C1883.38 22.3946 1878.26 29.64 1876.55 32.2216C1875.8 33.3876 1875.05 34.7617 1874.18 36.0525Z" fill="white" stroke="#436AE5" stroke-linecap="round" stroke-linejoin="round"/>
<path d="M1874.18 36.0525C1872.18 39.1339 1858.98 44.3805 1862.98 49.4606C1867.56 55.0403 1875.89 45.0051 1878.3 42.2152C1881.67 38.0512 1887.8 34.8866 1889.42 29.7232C1890.25 27.0999 1890.46 23.5605 1886.92 22.9776C1883.38 22.3946 1878.26 29.64 1876.55 32.2216C1875.8 33.3876 1875.05 34.7617 1874.18 36.0525Z" fill="white" stroke="#436AE5" stroke-miterlimit="10"/>
<path d="M2021.1 860.982C2021.35 855.143 2020.56 849.304 2018.76 843.743C2017.22 840.223 2015.3 836.885 2013.02 833.791C2003.51 836.831 1993.76 839.046 1983.87 840.412L1914.61 851.779C1908.78 866.548 1902.26 881.011 1895.04 895.168C1888.38 908.077 1881.05 920.943 1878.38 935.226C1873.26 961.542 1883.71 987.484 1886.71 1013.38C1889.96 1042.07 1876.26 1067.1 1870.93 1094.83C1869.6 1098.95 1869.9 1103.42 1871.76 1107.32C1875.05 1112.49 1882.71 1112.74 1888.42 1110.45C1894.12 1108.16 1899 1104.08 1904.83 1102.12C1915.36 1098.7 1927.06 1103.24 1937.89 1100.87C1942.81 1099.79 1947.35 1097.33 1952.3 1096.71C1954.75 1096.1 1957.33 1096.31 1959.66 1097.3C1961.98 1098.29 1963.91 1100.01 1965.17 1102.2C1966.92 1106.37 1964.59 1111.32 1965.17 1115.94C1965.67 1121.86 1970.5 1126.31 1973.5 1131.31C1975.58 1134.58 1976.99 1138.23 1977.66 1142.05C1982.33 1142.08 1986.95 1141.08 1991.2 1139.14C1995.4 1136.54 1999.42 1133.66 2003.23 1130.52C2007.41 1127.55 2012.57 1126.31 2017.64 1127.06C2023.62 1128.38 2029.87 1127.46 2035.21 1124.48C2033.62 1118.06 2032.36 1111.55 2031.47 1104.99C2019.01 1024.42 2022.01 942.554 2021.1 860.982Z" fill="white" stroke="#436AE5" stroke-linecap="round" stroke-linejoin="round"/>
<path d="M2221.27 763.877C2226.69 759.047 2229.14 751.718 2233.76 746.347C2239.68 739.768 2248.84 736.353 2253.38 728.816C2257.17 722.57 2258.33 713.285 2265.37 711.369C2268.04 711.056 2270.72 710.889 2273.41 710.869C2280.24 709.787 2284.15 702.541 2290.07 699.127C2292.77 697.586 2295.94 696.92 2298.4 695.213C2300.7 693.553 2302.57 691.369 2303.86 688.842C2305.15 686.315 2305.82 683.517 2305.81 680.681C2305.89 677.885 2305.64 675.089 2305.06 672.353C2273.83 681.555 2242.3 689.8 2210.36 696.046C2149.69 707.913 2087.47 712.702 2028.42 730.857C2013.26 735.52 1998.23 741.058 1982.61 742.474C1968.91 743.723 1952.71 742.807 1944.18 753.592C1940.58 759.069 1938.32 765.318 1937.6 771.83C1932.13 799.159 1924.28 825.954 1914.11 851.904L1983.36 840.536C1995.51 839.064 2007.41 836.013 2018.76 831.459C2022.69 829.289 2026.89 827.638 2031.25 826.545C2038.08 825.463 2044.91 828.169 2051.74 829.418C2063.94 831.584 2076.44 828.835 2088.55 826.087C2123.28 818.12 2157.89 809.792 2192.37 801.103C2192.58 792.775 2193.25 783.365 2199.03 777.202C2204.82 771.039 2214.9 769.373 2221.27 763.877Z" fill="white" stroke="#436AE5" stroke-linecap="round" stroke-linejoin="round"/>
<path d="M1838.65 139.32C1840.88 141.548 1843.84 142.894 1846.98 143.109C1856.68 144.816 1866.76 144.441 1876.34 146.731C1884.67 148.73 1892.46 152.728 1900.7 155.268C1910.59 158.347 1921.02 159.312 1931.31 158.099C1931.08 160.279 1931.68 162.466 1933.01 164.214C1934.33 165.962 1936.27 167.141 1938.43 167.51C1939.95 167.507 1941.47 167.717 1942.93 168.134C1946.18 169.592 1946.13 174.131 1946.3 177.712C1946.52 181.557 1947.55 185.312 1949.34 188.724C1951.13 192.136 1953.63 195.125 1956.67 197.491C1956.42 195.723 1956.42 193.928 1956.67 192.161C1957.75 186.664 1962.83 183.041 1966.41 178.753C1968.82 175.771 1970.56 172.315 1971.53 168.612C1972.5 164.908 1972.67 161.042 1972.04 157.266C1971.79 154.352 1971.41 148.938 1975.62 150.604C1979.82 152.27 1981.7 165.761 1986.82 154.768C1987.69 152.811 1993.27 150.604 1995.15 152.353C1997.02 154.102 1994.07 160.056 1993.94 162.638C1998.4 163.304 2002.27 159.223 2004.1 155.143C2005.49 150.842 2007.85 146.921 2011.01 143.692C2014.6 141.027 2019.34 140.943 2023.3 138.57C2027.84 135.738 2029.88 130.242 2034.13 126.786C2041.96 120.665 2053.32 124.87 2062.15 129.493C2064.9 130.908 2069.07 131.866 2070.48 129.076C2071.23 127.286 2070.02 125.245 2070.19 123.288C2070.69 118.333 2078.1 118.791 2082.68 120.748C2087.26 122.705 2094.8 122.913 2095.18 117.958C2088.76 108.548 2079.1 97.8878 2068.19 101.052C2064.78 102.052 2056.36 109.38 2052.99 108.423C2052.36 108.101 2051.84 107.611 2051.47 107.009C2051.1 106.406 2050.91 105.714 2050.91 105.008C2050.92 103.599 2050.73 102.195 2050.33 100.844C2048.99 97.9294 2044.79 97.3465 2043.41 94.4733C2042.04 91.6002 2046.75 84.2299 2042.66 82.7725C2041.39 82.5036 2040.07 82.7268 2038.96 83.3971L2009.81 96.1806C2005.83 97.6765 2002.13 99.8148 1998.86 102.51C1996.06 105.05 1994.07 108.423 1991.15 110.838C1986.07 115.002 1982.53 116.126 1976.78 112.837C1971.8 114.748 1966.39 115.274 1961.14 114.357C1955.88 113.441 1950.97 111.116 1946.93 107.632C1943.92 104.388 1940.72 101.329 1937.35 98.4707C1935.08 96.8578 1932.45 95.828 1929.69 95.4721C1926.93 95.1163 1924.13 95.4454 1921.52 96.4304C1918.11 98.0127 1915.19 103.218 1910.7 99.8449C1906.2 96.4721 1908.49 89.4349 1910.9 86.1453C1915.02 81.7731 1919.7 77.9647 1924.81 74.8193C1929.52 71.1133 1933.64 65.367 1932.23 59.5374C1920.11 58.2466 1908.66 65.4919 1899.91 73.9865C1891.16 82.481 1883.79 92.5579 1873.72 99.4285C1871.82 100.423 1870.18 101.849 1868.93 103.592C1867.93 105.466 1867.93 107.756 1866.47 109.422C1865.01 111.088 1861.89 111.129 1859.39 111.629C1848.9 113.628 1845.23 123.788 1836.57 128.285C1836.57 129.576 1836.57 130.825 1836.57 132.116C1836.58 134.665 1837.3 137.16 1838.65 139.32Z" fill="white" stroke="#436AE5" stroke-linecap="round" stroke-linejoin="round"/>
<path d="M1972.66 360.386C1972.66 354.14 1974.45 347.894 1972.66 341.815C1971.6 339.171 1970.29 336.633 1968.75 334.237C1965.5 328.307 1963.55 321.75 1963.04 315.006C1962.53 308.263 1963.47 301.488 1965.79 295.137C1968 291.034 1969.09 286.426 1968.96 281.77C1968.58 279.522 1967.42 277.606 1967.08 275.191C1966 267.946 1973.16 261.825 1973.45 254.371C1973.31 251.578 1972.99 248.797 1972.5 246.043C1972.61 239.889 1974.03 233.829 1976.66 228.263C1978.33 223.516 1987.03 196.45 1977.58 196.575C1973.41 196.575 1970.29 200.739 1968.46 204.486C1963.54 214.855 1962.54 227.055 1955.96 236.383C1953.72 239.506 1949.22 242.337 1946.3 239.797C1945.68 239.14 1945.2 238.359 1944.9 237.506C1944.6 236.652 1944.48 235.744 1944.55 234.842C1944.55 223.058 1957.05 214.022 1957.05 202.363C1957.03 200.634 1956.89 198.909 1956.63 197.2C1953.59 194.834 1951.09 191.845 1949.3 188.433C1947.52 185.021 1946.48 181.266 1946.26 177.421C1946.26 173.84 1946.26 169.301 1942.89 167.843C1941.43 167.426 1939.91 167.216 1938.39 167.219C1936.23 166.85 1934.29 165.671 1932.97 163.923C1931.64 162.175 1931.04 159.988 1931.27 157.808C1920.98 159.021 1910.55 158.056 1900.66 154.977C1892.33 152.437 1884.67 148.439 1876.3 146.44C1866.72 144.15 1856.64 144.525 1846.94 142.818C1843.8 142.603 1840.84 141.257 1838.61 139.029C1837.16 136.901 1836.33 134.402 1836.24 131.825C1836.24 130.534 1836.24 129.285 1836.24 127.994C1834.92 128.686 1833.52 129.23 1832.08 129.618C1827.2 130.909 1813.46 133.49 1810.92 127.911C1808.96 123.747 1816.5 118.125 1813.13 112.92C1811 109.589 1805.88 111.796 1802.63 114.045C1794.06 120.084 1784.53 124.631 1774.44 127.494C1771.39 128.709 1767.99 128.709 1764.95 127.494L1760.53 130.867C1756.37 133.99 1752.2 137.654 1751.54 142.693C1751.52 145.928 1752.07 149.141 1753.16 152.187C1755.83 163.846 1750.29 173.007 1743.58 182.001C1738.63 188.58 1727.38 198.449 1732.01 207.651C1734.96 213.564 1743.58 215.729 1744.96 222.225C1746.58 230.053 1736.21 235.467 1735.05 243.378C1733.75 252.164 1743.96 258.035 1752.7 259.743C1761.45 261.45 1771.78 262.533 1776.19 270.236C1777.9 273.151 1778.4 276.648 1779.98 279.647C1786.98 292.846 1809.92 289.89 1816.63 303.215C1818.29 307.362 1819.02 311.828 1818.75 316.29C1819.17 332.429 1821.37 348.473 1825.29 364.134C1827.24 371.921 1831.53 381.123 1839.57 381.29C1842.15 381.29 1844.98 380.332 1847.28 381.623C1848.42 382.311 1849.3 383.368 1849.77 384.621C1889.75 373.794 1932.48 373.794 1973.08 365.466C1972.83 363.785 1972.69 362.087 1972.66 360.386Z" fill="white" stroke="#436AE5" stroke-linecap="round" stroke-linejoin="round"/>
<path d="M2013.6 577.83C2011.32 574.255 2009.68 570.309 2008.77 566.17C2008.56 561.382 2011.77 557.134 2012.68 552.429C2013.14 549.102 2013.01 545.719 2012.31 542.436C2005.27 497.631 2000.19 452.577 1996.77 407.356C1995.68 407.027 1994.63 406.566 1993.65 405.982C1986.03 401.484 1982.28 392.74 1978.99 384.579C1976.28 378.505 1974.29 372.131 1973.08 365.591C1932.27 373.919 1889.79 373.919 1849.73 384.662C1850.27 385.911 1850.65 387.285 1851.11 388.576C1854.52 398.361 1864.76 404.108 1869.8 413.185C1871.45 416.508 1872.4 420.132 1872.59 423.835C1872.79 427.538 1872.23 431.241 1870.94 434.719C1869.65 438.196 1867.67 441.375 1865.11 444.059C1862.55 446.743 1859.47 448.876 1856.06 450.328C1847.94 453.326 1835.78 455.575 1836.91 464.153C1837.33 466.083 1838.04 467.936 1839.03 469.649C1847.57 488.845 1827.66 508.541 1824.87 529.361C1824.14 535.079 1824.72 540.89 1826.56 546.351C1828.41 551.813 1831.48 556.782 1835.53 560.882C1840.86 566.212 1847.73 569.835 1853.44 574.831C1858.49 579.319 1862.54 584.82 1865.32 590.975C1868.1 597.131 1869.56 603.803 1869.6 610.559C1876.13 606.395 1885.38 602.605 1890.71 608.143C1897.04 614.639 1890 625.216 1890.21 634.293C1890.63 652.656 1918.48 656.82 1926.36 673.393C1931.1 683.428 1927.85 696.836 1935.52 704.831C1940.76 710.244 1949.3 711.119 1956.09 714.159C1955.88 711.443 1956.2 708.713 1957.05 706.122C1957.61 704.334 1958.71 702.764 1960.2 701.63C1961.69 700.496 1963.5 699.854 1965.38 699.793C1969.04 700.001 1971.79 703.082 1974.75 705.206C1977.7 707.33 1982.62 708.329 1984.53 705.206C1985.78 703.166 1985.03 700.542 1985.53 698.169C1986.45 694.005 1990.94 691.798 1994.61 689.508C1998.27 687.218 2001.77 682.72 1999.61 679.014C1998.02 676.308 1993.69 674.184 1995.44 671.436C1995.81 670.886 1996.28 670.406 1996.82 670.02C1998.9 667.912 2000.49 665.371 2001.47 662.579C2002.46 659.786 2002.82 656.811 2002.52 653.864C2002.52 647.951 2000.98 642.122 2001.23 636.209C2001.69 626.007 2006.94 616.763 2011.02 607.394C2015.1 598.025 2017.72 587.199 2013.6 577.83Z" fill="white" stroke="#436AE5" stroke-linecap="round" stroke-linejoin="round"/>
<path d="M1818.71 316.373C1818.98 311.911 1818.25 307.445 1816.58 303.298C1809.88 289.973 1786.93 292.93 1779.94 279.73C1778.35 276.732 1777.85 273.234 1776.15 270.319C1771.73 262.616 1761.36 261.533 1752.66 259.826C1743.96 258.119 1733.71 252.247 1735 243.461C1736.17 235.55 1746.54 230.137 1744.91 222.308C1743.54 215.812 1734.92 213.647 1731.96 207.734C1727.34 198.532 1738.58 188.663 1743.54 182.084C1750.24 173.173 1755.78 163.929 1753.12 152.27C1752.03 149.224 1751.48 146.011 1751.49 142.776C1752.08 137.738 1756.45 134.073 1760.49 130.95L1764.9 127.577C1764.14 127.129 1763.5 126.481 1763.07 125.704L1800.05 78.1508C1803.33 73.4351 1807.29 69.2263 1811.79 65.6589C1817.85 62.095 1824.15 58.9777 1830.66 56.3315C1836.86 53.1253 1844.15 48.0035 1845.07 40.9664C1841.78 33.263 1830.91 33.0548 1822.75 34.9702C1814.58 36.8857 1804.84 39.1342 1798.63 33.5961C1797.05 32.1387 1795.76 30.14 1793.68 29.4321C1789.51 28.0997 1786.27 32.3469 1783.73 35.7197C1781.19 39.0926 1775.94 42.1323 1773.23 38.8844C1771.57 36.8857 1772.07 33.4296 1769.9 31.9722C1767.73 30.5148 1765.74 31.9722 1763.24 31.9722C1758.36 32.3469 1754.58 27.8082 1750.33 25.518C1746.08 23.2278 1738.5 24.477 1739.17 29.3488L1731.3 9.90301C1730.76 8.52889 1729.96 6.90494 1728.46 6.6551C1727.9 6.62962 1727.33 6.71986 1726.8 6.92033C1726.27 7.12081 1725.79 7.42729 1725.38 7.82101C1719.09 12.7345 1712.89 21.7704 1705.56 18.1893C1702.44 16.6487 1699.94 12.7761 1696.61 13.6922C1694.11 14.4001 1693.07 17.4815 1690.78 18.689C1685.95 21.2707 1681.78 14.2336 1676.87 11.7352C1671.95 9.23678 1666.29 11.4853 1660.96 12.6096C1645.8 15.7742 1641.39 -3.29687 1639.35 -14.7062C1638.81 -17.7459 1638.14 -21.3269 1635.18 -22.7011C1633.59 -23.1781 1631.88 -23.076 1630.36 -22.413C1628.83 -21.7499 1627.59 -20.5686 1626.85 -19.0784C1625.49 -16.0523 1624.29 -12.9522 1623.27 -9.79269C1614.94 8.11248 1582.09 3.24061 1566.51 3.32389C1558.81 3.32389 1551.06 3.32389 1543.36 3.32389C1545.41 6.46183 1547.14 9.79555 1548.52 13.2758C1550.98 20.5212 1547.19 25.7678 1547.27 32.4302C1547.27 36.5942 1549.98 38.6346 1551.06 42.5071C1552.73 48.5032 1549.61 53.9164 1550.11 59.9542C1550.61 65.992 1554.64 72.113 1557.68 77.6512C1565.48 91.9804 1569.09 108.214 1568.1 124.496C1567.35 130.113 1567.17 135.79 1567.55 141.444C1568.7 147.077 1570.43 152.576 1572.72 157.85C1577.79 171.704 1579.76 186.499 1578.51 201.197C1577.84 208.567 1576.55 216.645 1580.55 222.85C1582.38 225.681 1585.17 227.846 1586.92 230.72C1588.94 234.799 1589.89 239.329 1589.67 243.878L1593.16 337.484C1593.16 341.107 1593.41 344.771 1593.46 348.477C1668.96 344.022 1744.5 339.15 1819.46 329.323C1819.08 325.034 1818.83 320.703 1818.71 316.373Z" fill="white" stroke="#436AE5" stroke-linecap="round" stroke-linejoin="round"/>
<path d="M1721.31 525.364C1737.01 522.381 1752.93 520.599 1768.9 520.034C1775.76 520.394 1782.64 519.933 1789.39 518.66C1795.81 516.828 1800.01 513.996 1807.26 515.454C1814.5 516.911 1819.5 522.616 1825.37 526.655C1829.54 506.834 1847.19 488.013 1839.03 469.691C1838.05 467.979 1837.33 466.125 1836.91 464.195C1835.78 455.617 1847.94 453.369 1856.06 450.37C1859.48 448.919 1862.56 446.785 1865.12 444.101C1867.67 441.417 1869.66 438.239 1870.94 434.761C1872.23 431.284 1872.79 427.58 1872.6 423.877C1872.4 420.174 1871.45 416.551 1869.81 413.228C1864.77 404.15 1854.52 398.404 1851.11 388.618C1850.19 386.037 1849.61 382.997 1847.24 381.706C1844.86 380.415 1842.11 381.415 1839.53 381.373C1831.5 381.373 1827.04 372.004 1825.25 364.217C1822.39 352.76 1820.45 341.091 1819.46 329.323C1744.5 339.15 1668.96 344.022 1593.46 348.478C1593.87 358.186 1592.98 367.906 1590.8 377.376C1589.66 380.922 1588.91 384.579 1588.55 388.285C1588.61 391.572 1589.12 394.835 1590.05 397.987C1592.28 409.294 1596.06 420.238 1601.29 430.508C1603 433.548 1605 436.421 1606.62 439.502C1609.66 446.26 1612.23 453.216 1614.32 460.322C1616.78 467.984 1619.2 475.646 1621.65 483.308C1623.81 489.589 1625.61 495.983 1627.07 502.462C1628.48 510.415 1628.11 518.618 1629.73 526.53C1630.01 527.946 1630.34 529.334 1630.73 530.694C1643.02 530.173 1655.25 528.782 1667.34 526.53C1685.58 523.199 1702.9 528.903 1721.31 525.364Z" fill="white" stroke="#436AE5" stroke-linecap="round" stroke-linejoin="round"/>
<path d="M1906.66 782.532C1906.29 783.993 1906.29 785.525 1906.66 786.987C1908.24 791.484 1914.78 790.443 1919.15 788.986C1924.25 787.323 1929.51 786.233 1934.85 785.738C1935.93 781.116 1936.98 776.494 1937.89 771.83C1938.62 765.318 1940.87 759.069 1944.47 753.592C1947.98 749.38 1952.78 746.45 1958.13 745.264C1957.46 735.853 1956.84 726.484 1956.17 717.074C1956.17 716.116 1956.17 715.158 1955.96 714.159C1949.18 711.119 1940.64 710.245 1935.39 704.831C1927.73 696.837 1930.98 683.429 1926.23 673.393C1918.36 656.737 1890.5 652.573 1890.08 634.293C1889.88 625.216 1896.91 614.639 1890.58 608.144C1885.25 602.605 1876.01 606.436 1869.47 610.559C1869.44 603.803 1867.98 597.131 1865.2 590.976C1862.41 584.82 1858.36 579.32 1853.31 574.832C1847.61 569.835 1840.82 566.212 1835.41 560.882C1831.35 556.782 1828.29 551.813 1826.44 546.351C1824.59 540.89 1824.01 535.079 1824.75 529.361C1824.75 528.445 1824.91 527.529 1825.25 526.613C1819.37 522.449 1814.13 516.786 1807.13 515.411C1800.13 514.037 1795.68 516.786 1789.27 518.618C1782.52 519.891 1775.64 520.352 1768.78 519.992C1752.8 520.557 1736.89 522.339 1721.18 525.322C1702.77 528.861 1685.45 523.156 1667.04 526.571C1654.95 528.823 1642.72 530.215 1630.44 530.735C1631.53 536.033 1634.23 540.863 1638.18 544.559C1640.36 546.349 1642.26 548.438 1643.85 550.764C1651.51 561.632 1669.67 566.087 1670.75 579.537C1671.25 585.658 1667.63 591.571 1668.17 597.692C1669.08 608.643 1680.24 611.225 1685.53 619.261C1693.24 630.879 1692.36 647.785 1691.94 660.901C1690.74 701.875 1696.69 742.474 1702.23 783.198C1771.32 771.289 1841.15 764.46 1910.95 757.714C1909.64 766.098 1908.21 774.37 1906.66 782.532Z" fill="white" stroke="#436AE5" stroke-linecap="round" stroke-linejoin="round"/>
<path d="M1878.34 935.351C1881.13 921.068 1888.46 908.201 1895 895.293C1912.82 860.572 1926.26 823.772 1935.02 785.738C1929.68 786.234 1924.41 787.323 1919.32 788.986C1914.78 790.444 1908.24 791.485 1906.82 786.988C1906.45 785.526 1906.45 783.994 1906.82 782.532C1908.38 774.371 1909.91 766.209 1911.4 758.048C1841.61 764.794 1771.77 771.622 1702.69 783.531C1706.14 808.849 1709.43 834.249 1710.72 859.733C1712.39 892.004 1712.39 925.94 1715.89 958.044C1718.05 959.929 1720.58 961.332 1723.32 962.158C1726.07 962.984 1728.96 963.214 1731.8 962.833C1735.29 962.333 1739.5 961.126 1741.79 963.832C1742.81 965.339 1743.31 967.138 1743.21 968.954C1743.75 979.572 1744.04 990.274 1744.12 1000.93C1789.32 991.994 1835.02 985.806 1880.96 982.404C1877.63 966.789 1875.09 951.132 1878.34 935.351Z" fill="white" stroke="#436AE5" stroke-linecap="round" stroke-linejoin="round"/>
<path d="M2008.31 1203.22C2007.56 1200.41 2006.03 1197.87 2003.9 1195.88C2001.78 1193.89 1999.13 1192.54 1996.28 1191.98C1993.76 1191.77 1991.26 1191.44 1988.78 1190.98C1986.62 1190.34 1984.72 1189.03 1983.35 1187.24C1981.98 1185.45 1981.22 1183.27 1981.17 1181.01C1981.12 1178.76 1981.79 1176.55 1983.09 1174.7C1984.38 1172.85 1986.23 1171.47 1988.37 1170.74C1990.41 1170.34 1992.42 1169.75 1994.36 1168.99C1995.39 1168.24 1996.23 1167.27 1996.82 1166.14C1997.41 1165.02 1997.74 1163.77 1997.77 1162.5C1997.81 1161.23 1997.56 1159.97 1997.03 1158.82C1996.5 1157.66 1995.72 1156.64 1994.74 1155.83C1992.6 1154.36 1990.06 1153.58 1987.46 1153.62C1984.86 1153.66 1982.34 1154.51 1980.25 1156.04C1978.2 1157.73 1976.02 1159.26 1973.75 1160.62C1972.58 1161.27 1971.22 1161.48 1969.91 1161.24C1968.6 1161 1967.41 1160.31 1966.54 1159.29C1964.46 1156.08 1967.42 1150.71 1964.3 1148.51C1961.17 1146.3 1958.51 1149.38 1956.22 1151.5C1953.55 1154.18 1950.14 1156 1946.44 1156.74C1942.73 1157.48 1938.89 1157.11 1935.4 1155.67C1928.69 1152.17 1926.36 1141.47 1932.31 1136.8C1938.27 1132.14 1946.68 1135.72 1953.76 1138.22C1960.67 1140.69 1967.95 1142 1975.29 1142.09H1977.25C1976.58 1138.27 1975.16 1134.62 1973.08 1131.35C1969.96 1126.35 1965.13 1121.9 1964.75 1115.98C1964.34 1111.36 1966.67 1106.53 1964.75 1102.24C1963.5 1100.05 1961.56 1098.33 1959.24 1097.34C1956.92 1096.35 1954.34 1096.14 1951.89 1096.75C1946.93 1097.5 1942.39 1099.95 1937.48 1100.91C1926.65 1103.28 1914.95 1098.75 1904.41 1102.16C1898.58 1104.03 1893.71 1108.11 1888 1110.49C1882.3 1112.86 1874.68 1112.53 1871.35 1107.36C1869.48 1103.46 1869.18 1098.99 1870.51 1094.87C1875.84 1067.14 1889.55 1042.12 1886.3 1013.43C1885.13 1003.06 1882.76 992.605 1880.68 982.32C1834.73 985.722 1789.03 991.91 1743.84 1000.85C1743.84 1013.2 1743.65 1025.56 1743.29 1037.91C1742.49 1047.56 1742.8 1057.27 1744.21 1066.85C1747.3 1079.82 1753.1 1091.98 1761.24 1102.53C1767.07 1110.86 1773.74 1120.11 1771.94 1130.06C1770.7 1137.05 1765.32 1142.84 1764.45 1149.88C1764.36 1154.75 1765.01 1159.61 1766.36 1164.29C1768.61 1176.78 1766.07 1189.98 1765.74 1202.68C1774.02 1199.84 1782.84 1198.94 1791.52 1200.06C1797.56 1200.97 1803.34 1203.01 1809.34 1204.22C1817.67 1205.93 1841.2 1210.34 1847.61 1203.18C1854.61 1195.31 1847.19 1186.06 1862.94 1191.1C1863.91 1191.27 1864.91 1191.27 1865.89 1191.1C1872.8 1190.77 1885.88 1205.72 1890.25 1197.56C1891.92 1194.48 1889.8 1190.69 1887.3 1188.27C1884.8 1185.86 1881.59 1183.82 1880.47 1180.48C1880.04 1179.14 1879.83 1177.73 1879.84 1176.32C1879.75 1175.38 1879.92 1174.42 1880.34 1173.57C1880.9 1172.9 1881.7 1172.47 1882.57 1172.38C1883.44 1172.29 1884.32 1172.53 1885.01 1173.07C1891.01 1177.49 1895.24 1183.92 1896.92 1191.19C1898.17 1199.01 1896.54 1207.09 1898.04 1214.88C1899.54 1222.67 1906.37 1230.62 1913.99 1229.16C1918.61 1228.33 1921.99 1224.5 1925.86 1221.79C1929.73 1219.08 1935.56 1217.63 1938.68 1221.13C1939.77 1222.29 1940.48 1224.04 1942.06 1224.5C1942.68 1224.61 1943.32 1224.59 1943.94 1224.44C1944.56 1224.29 1945.14 1224.01 1945.64 1223.62C1951.32 1220.68 1955.62 1215.63 1957.63 1209.55C1958.56 1206.51 1958.48 1203.25 1957.42 1200.25C1956.36 1197.25 1954.36 1194.67 1951.72 1192.89C1948.35 1190.94 1943.39 1189.77 1943.39 1185.9C1943.39 1182.03 1949.76 1180.11 1953.3 1182.69C1956.84 1185.27 1958.34 1189.73 1961.21 1193.02C1969.17 1202.22 1985.7 1201.05 1991.99 1211.51C1994.15 1215.13 1996.15 1220.54 2000.32 1219.83C2001.45 1219.61 2002.51 1219.08 2003.36 1218.29C2005.46 1216.46 2007.03 1214.09 2007.9 1211.44C2008.77 1208.78 2008.91 1205.95 2008.31 1203.22Z" fill="white" stroke="#436AE5" stroke-linecap="round" stroke-linejoin="round"/>
<path d="M1715.93 958.044C1712.43 925.94 1712.43 892.003 1710.77 859.732C1708.93 823.339 1703.02 787.154 1698.27 750.969L1512.29 759.297C1472.11 761.129 1432.17 759.297 1391.99 759.963C1375.33 760.254 1355.17 764.127 1338.93 758.381V759.13C1324.52 759.338 1309.78 760.046 1295.37 759.13C1293.58 759.13 1292.46 772.622 1291.75 791.151C1339.59 794.766 1387.61 795.573 1435.55 793.566C1436.07 832.625 1436.59 871.697 1437.09 910.783C1437.09 912.199 1437.09 913.906 1438.58 914.489C1439.46 914.822 1440.42 914.822 1441.29 914.489C1452.49 911.865 1458.37 921.151 1467.65 921.817C1470.78 921.817 1472.32 919.319 1475.98 920.568C1480.52 921.984 1483.48 927.938 1486.6 931.186C1489.88 934.516 1493.97 936.94 1498.46 938.224C1502.96 939.508 1507.71 939.609 1512.25 938.515C1518.17 936.974 1524.37 933.435 1529.95 935.933C1534.66 938.015 1536.61 943.47 1539.49 947.717C1543.65 954.047 1546.57 952.339 1552.48 950.466C1554.73 949.758 1557.39 947.093 1560.06 947.717C1562.72 948.342 1564.02 952.922 1567.1 954.463C1570.18 956.004 1573.88 953.714 1577.22 952.589C1585.54 949.758 1594.75 954.505 1602.79 958.585C1610.82 962.666 1620.86 966.122 1628.35 961.125C1632.14 958.585 1634.85 954.047 1639.35 953.339C1641.51 952.964 1643.72 953.589 1645.8 953.047C1649.34 952.09 1651.34 948.217 1654.67 946.76C1660.54 944.136 1666.92 949.758 1673.33 949.55C1676.4 948.961 1679.5 948.586 1682.62 948.425C1687.74 949.05 1690.94 954.255 1695.11 957.336C1698.08 959.251 1701.48 960.417 1705 960.736C1708.53 961.055 1712.08 960.517 1715.35 959.168L1716.39 958.669L1715.93 958.044Z" fill="white" stroke="#436AE5" stroke-linecap="round" stroke-linejoin="round"/>
<path d="M1578.88 194.243C1579.11 181.835 1577.07 169.489 1572.88 157.808C1570.59 152.535 1568.86 147.036 1567.72 141.402C1567.34 135.749 1567.52 130.072 1568.26 124.455C1569.25 108.172 1565.65 91.9391 1557.85 77.6099C1554.81 72.0718 1550.81 66.3671 1550.27 59.9129C1549.73 53.4587 1552.89 48.4619 1551.23 42.4658C1550.15 38.5933 1547.52 36.7195 1547.44 32.3889C1547.44 25.5184 1551.15 20.4799 1548.69 13.2346C1547.31 9.72558 1545.58 6.36373 1543.52 3.19934C1529.37 3.19934 1515.17 2.74131 1501.01 2.78295L1339.68 3.53247C1318.86 3.53247 1298.29 3.74067 1277.55 3.53247C1274.77 67.9078 1272.08 132.297 1269.47 196.7C1372.54 200.989 1475.85 200.115 1578.88 194.243Z" fill="white" stroke="#436AE5" stroke-linecap="round" stroke-linejoin="round"/>
<path d="M1593.16 337.484L1589.66 243.878C1589.89 239.329 1588.94 234.799 1586.92 230.72C1585.17 227.847 1582.38 225.681 1580.54 222.85C1576.38 216.645 1577.84 208.567 1578.5 201.197C1578.71 198.865 1578.8 196.575 1578.88 194.243C1475.85 200.114 1372.53 200.989 1269.47 196.742C1266.91 257.425 1264.36 318.066 1261.8 378.666L1489.26 382.83C1494.12 382.66 1498.98 383.236 1503.67 384.538C1512.33 387.452 1519.41 395.239 1528.66 395.322C1532.59 394.978 1536.49 394.239 1540.27 393.115C1558.18 389.534 1574.92 401.11 1592.45 407.106C1591.66 404.108 1590.91 401.069 1590.16 398.071C1589.23 394.918 1588.73 391.655 1588.66 388.368C1589.02 384.662 1589.78 381.005 1590.91 377.459C1593.59 364.312 1594.35 350.848 1593.16 337.484Z" fill="white" stroke="#436AE5" stroke-linecap="round" stroke-linejoin="round"/>
<path d="M1644.14 550.931C1642.56 548.605 1640.65 546.516 1638.48 544.726C1633.4 540.562 1631.07 533.275 1629.73 526.655C1628.11 518.743 1628.48 510.54 1627.07 502.587C1625.61 496.108 1623.81 489.714 1621.65 483.432C1619.2 475.771 1616.78 468.109 1614.32 460.447C1612.23 453.341 1609.66 446.385 1606.62 439.627C1605 436.546 1603 433.673 1601.29 430.633C1597.3 423.226 1594.29 415.331 1592.34 407.148C1574.8 401.152 1558.06 389.576 1540.16 393.157C1536.37 394.28 1532.48 395.02 1528.54 395.364C1519.42 395.364 1512.34 387.494 1503.55 384.579C1498.87 383.278 1494.01 382.702 1489.14 382.872L1261.69 378.708C1259.94 420.931 1258.18 463.14 1256.4 505.335C1287.09 504.835 1317.07 506.626 1347.72 508.458C1347.39 528.528 1346.93 548.613 1346.35 568.711C1352.37 569.286 1358.42 569.467 1364.46 569.252L1526.21 566.338C1568.97 565.588 1611.62 562.174 1654.43 560.425C1650.49 557.856 1647.02 554.647 1644.14 550.931Z" fill="white" stroke="#436AE5" stroke-linecap="round" stroke-linejoin="round"/>
<path d="M1692.24 661.11C1692.65 647.827 1693.53 630.921 1685.82 619.47C1680.53 611.434 1669.37 608.852 1668.46 597.901C1667.92 591.78 1671.54 585.867 1671.04 579.746C1670.33 570.876 1662.21 565.921 1654.38 560.425C1611.57 562.299 1568.93 565.588 1526.16 566.338L1364.42 569.252C1358.37 569.467 1352.32 569.287 1346.3 568.711C1344.47 632.004 1341.51 695.255 1338.52 758.506C1354.76 764.086 1374.75 760.38 1391.57 760.088C1431.76 759.38 1471.69 761.254 1511.88 759.422L1697.86 751.094C1693.62 721.293 1691.74 691.206 1692.24 661.11Z" fill="white" stroke="#436AE5" stroke-linecap="round" stroke-linejoin="round"/>
<path d="M1770.8 1130.69C1772.63 1120.7 1765.93 1111.41 1760.1 1103.13C1751.96 1092.57 1746.15 1080.41 1743.06 1067.44C1741.65 1057.88 1741.35 1048.18 1742.15 1038.54C1743.06 1015.5 1742.94 992.477 1741.77 969.464C1741.87 967.648 1741.38 965.849 1740.36 964.342C1738.07 961.678 1733.82 962.843 1730.36 963.343C1727.64 963.718 1724.87 963.523 1722.22 962.77C1719.58 962.017 1717.12 960.724 1715 958.971C1714.62 958.971 1714.29 959.346 1713.91 959.471C1710.65 960.816 1707.11 961.352 1703.59 961.033C1700.07 960.714 1696.69 959.549 1693.72 957.638C1689.55 954.599 1686.47 949.31 1681.22 948.769C1678.06 948.936 1674.91 949.368 1671.81 950.06C1665.4 950.268 1659.03 944.605 1653.16 947.229C1649.82 948.728 1647.83 952.6 1644.29 953.516C1642.2 954.057 1640.12 953.516 1637.83 953.808C1633.33 954.515 1630.58 959.054 1626.8 961.594C1619.34 966.591 1609.26 963.135 1601.27 959.054C1593.27 954.974 1584.24 950.227 1575.7 953.1C1572.37 954.224 1568.74 956.473 1565.58 954.932C1562.41 953.391 1561.79 948.977 1558.54 948.228C1555.29 947.478 1553.21 950.227 1550.96 950.934C1545.05 952.85 1542.3 954.515 1537.97 948.186C1535.1 944.022 1533.14 938.526 1528.43 936.402C1522.85 933.904 1516.65 937.485 1510.73 938.984C1506.18 940.089 1501.42 939.995 1496.92 938.71C1492.42 937.426 1488.32 934.995 1485.04 931.655C1481.96 928.449 1479 922.453 1474.46 921.037C1470.63 919.829 1469.09 922.536 1466.13 922.286C1456.85 921.62 1450.98 912.376 1439.77 914.999C1438.9 915.301 1437.94 915.301 1437.07 914.999C1435.78 914.375 1435.57 912.667 1435.57 911.293C1435.07 872.207 1434.56 833.121 1434.03 794.035C1386.09 796.063 1338.07 795.256 1290.23 791.62C1288.69 830.179 1288.98 890.598 1288.94 896.886C1288.57 955.473 1289.61 1013.48 1285.32 1071.77C1276.38 1072.42 1267.39 1072.17 1258.5 1071.02L1175 1066.32L1133.36 1063.99C1121.99 1063.36 1110.96 1060.7 1099.67 1062.45C1101.09 1068.32 1105.79 1070.77 1109.04 1075.23C1109.58 1076.02 1110.04 1076.94 1110.54 1077.85C1111.85 1077.99 1113.12 1078.4 1114.27 1079.05C1115.42 1079.7 1116.42 1080.58 1117.2 1081.64C1120.7 1085.81 1119.45 1093.47 1125.82 1095.42C1127.82 1096.05 1129.99 1095.67 1132.07 1096.17C1139.02 1097.84 1139.82 1107.08 1141.73 1113.95C1142.84 1117.88 1144.76 1121.53 1147.35 1124.68C1149.95 1127.82 1153.17 1130.4 1156.81 1132.23C1163.97 1135.77 1173.46 1137.4 1176.17 1144.73C1176.74 1147.25 1177.15 1149.81 1177.38 1152.39C1179.21 1162.01 1189.33 1167.96 1192.58 1177.37C1194.7 1183.45 1193.54 1190.16 1193.95 1196.61C1194.79 1210.98 1205.07 1209.81 1212.73 1218.22C1217.73 1223.63 1215.23 1233.67 1221.06 1238.29C1223.68 1239.95 1226.67 1240.93 1229.77 1241.16C1242.46 1243.44 1254.2 1249.42 1263.5 1258.36C1265.79 1260.57 1268.45 1263.15 1271.58 1262.53C1274.7 1261.9 1276.74 1258.11 1278.82 1255.28C1280.9 1252.45 1285.94 1250.62 1287.48 1253.82C1294.4 1248.04 1290.02 1234.79 1297.19 1229.3C1301.35 1226.22 1307.22 1227.13 1311.47 1224.3C1314.47 1222.34 1316.09 1218.8 1319.13 1216.93C1322.72 1215.24 1326.77 1214.81 1330.63 1215.72L1348.66 1217.85C1354.37 1217.88 1359.89 1219.9 1364.27 1223.55C1367.81 1227.26 1368.44 1232.75 1371.1 1237.21C1376.39 1246.58 1388.18 1250.12 1395.3 1258.03C1404.13 1267.9 1404.5 1283.01 1412.25 1293.71C1415.91 1298.79 1420.95 1302.63 1424.74 1307.5C1432.74 1317.57 1435.49 1331.94 1446.06 1339.19C1450.23 1341.98 1455.27 1343.56 1458.56 1347.51C1463.97 1353.88 1461.93 1363.42 1462.72 1371.75C1463.47 1380.29 1467.39 1388.24 1473.71 1394.02C1476.96 1396.98 1481.13 1399.85 1481.63 1404.23C1481.59 1406.59 1481.36 1408.94 1480.92 1411.26C1480.5 1419.05 1487.79 1424.88 1494.66 1428.5C1507.99 1434.97 1521.94 1440.08 1536.3 1443.74L1571.08 1453.9C1578.61 1456.11 1590.82 1461.19 1593.31 1453.9C1593.5 1452.71 1593.28 1451.5 1592.7 1450.44C1592.12 1449.39 1591.21 1448.56 1590.11 1448.07C1587.88 1447.16 1585.72 1446.07 1583.65 1444.83C1579.49 1441.58 1581.15 1429.25 1579.49 1424.34C1576.02 1414.15 1572.59 1403.95 1569.2 1393.73C1568.5 1392.06 1568.24 1390.24 1568.45 1388.45C1569.2 1385.24 1572.62 1383.57 1574.7 1380.95C1575.39 1379.93 1575.87 1378.78 1576.1 1377.57C1576.33 1376.35 1576.3 1375.11 1576.03 1373.9C1575.76 1372.7 1575.24 1371.57 1574.51 1370.57C1573.78 1369.58 1572.85 1368.75 1571.78 1368.12C1568.7 1366.5 1563.79 1365.38 1564.5 1362C1564.87 1360.13 1566.95 1359.26 1568.66 1358.55C1572.78 1357.35 1576.38 1354.8 1578.86 1351.3C1579.44 1350.42 1579.83 1349.43 1580.02 1348.4C1580.2 1347.36 1580.18 1346.3 1579.95 1345.27C1579.73 1344.24 1579.29 1343.27 1578.68 1342.41C1578.08 1341.55 1577.3 1340.82 1576.41 1340.27C1575.31 1339.94 1574.27 1339.45 1573.33 1338.81C1570.62 1336.27 1574.95 1332.06 1578.7 1331.81C1582.45 1331.57 1587.23 1331.81 1588.77 1328.48C1589.12 1327.29 1589.15 1326.03 1588.88 1324.82C1588.6 1323.61 1588.02 1322.5 1587.19 1321.57C1585.49 1319.74 1584.33 1317.48 1583.82 1315.03C1583.61 1312.54 1586.19 1309.83 1588.4 1310.87C1590.61 1311.91 1590.36 1314.7 1592.15 1315.83C1593.94 1316.95 1596.31 1315.53 1598.27 1314.12L1607.64 1306.46C1608.86 1305.61 1609.81 1304.43 1610.35 1303.04C1611.01 1300.46 1608.81 1298.17 1607.68 1295.8C1606.56 1293.42 1607.93 1289.3 1610.39 1290.26C1611.51 1290.67 1612.01 1291.97 1612.76 1292.84C1616.09 1296.8 1622.38 1293.26 1626.09 1289.63C1627.13 1288.68 1628.21 1287.39 1627.75 1286.05C1627.3 1284.72 1626.5 1284.64 1625.84 1283.97C1623.26 1281.39 1625.21 1276.56 1628.54 1275.06C1632.25 1273.92 1636.2 1273.82 1639.95 1274.77C1647.85 1276.26 1655.98 1275.95 1663.73 1273.85C1667.59 1272.79 1671.21 1270.98 1674.36 1268.51C1677.51 1266.05 1680.14 1262.98 1682.1 1259.49C1684.72 1254.32 1685.51 1248.2 1689.09 1243.62C1691.55 1240.46 1695.26 1238.17 1697.01 1234.54C1699.59 1229.26 1697.21 1222.8 1698.67 1217.06C1700.71 1211.63 1704.43 1207 1709.29 1203.86C1709.8 1203.32 1710.51 1203 1711.25 1202.98C1712.91 1202.98 1713.16 1205.4 1712.62 1207.14C1712.08 1208.89 1711.25 1210.52 1712.29 1211.81C1713.33 1213.1 1717.08 1212.1 1718.62 1213.81C1720.78 1216.26 1717 1220.47 1719.7 1222.59C1722.41 1224.72 1727.57 1221.8 1729.9 1220.47C1740.93 1213.47 1752.69 1207.69 1764.97 1203.23C1765.34 1190.74 1767.88 1177.29 1765.59 1164.84C1764.25 1160.16 1763.62 1155.3 1763.72 1150.43C1764.18 1143.44 1769.51 1137.65 1770.8 1130.69Z" fill="white" stroke="#436AE5" stroke-miterlimit="10"/>
<path d="M798.82 9.65319C800.278 17.5956 802.887 25.2827 806.565 32.4718C815.352 51.9177 824.514 71.9049 839.88 86.6037C842.095 88.21 843.707 90.5115 844.461 93.1412C844.443 96.0408 843.494 98.858 841.754 101.178C837.386 109.266 836.17 118.686 838.339 127.619C839.33 130.19 839.618 132.978 839.172 135.697C838.273 137.758 837.003 139.635 835.424 141.235C831.01 146.857 834.175 149.563 833.051 155.851C832.275 158.068 831.977 160.423 832.176 162.763C833.55 168.301 853.747 159.182 858.62 169.967C860.41 174.131 859.369 178.836 861.077 182.917C863.201 187.997 869.405 191.245 869.405 196.783C869.405 202.321 864.117 206.443 865.241 211.44C866.282 215.604 871.321 217.353 874.486 220.351C877.646 224.114 879.643 228.715 880.233 233.593C880.826 238.481 883.023 243.035 886.479 246.543C890.102 249.458 895.224 246.543 899.514 247.084C902.179 247.459 903.345 249.457 906.26 249.624C909.8 249.832 913.006 247.209 916.712 247.625C923.667 248.375 929.206 257.744 935.577 254.996C940.366 252.955 940.616 245.918 944.822 242.878C951.485 238.131 959.772 247.042 964.811 250.623C964.061 242.771 964.061 234.866 964.811 227.014C964.944 225.825 965.489 224.72 966.352 223.891C967.009 223.38 967.776 223.028 968.592 222.861C969.409 222.695 970.252 222.72 971.057 222.933C1069.88 233.093 1168.74 243.295 1267.02 257.661C1270.6 173.02 1274.15 88.3526 1277.68 3.65703C1253.44 3.36555 1229.21 2.61604 1205.01 0.867165C1148.83 -3.29683 1093.24 -12.7491 1037.77 -22.5761C962.145 -35.9426 886.646 -49.7254 811.854 -66.0898C808.439 -50.1279 805.038 -34.1798 801.651 -18.2456C799.149 -9.17068 798.192 0.260612 798.82 9.65319Z" fill="white" stroke="#436AE5" stroke-linecap="round" stroke-linejoin="round"/>
<path d="M477.824 19.855C479.797 20.5446 481.59 21.6688 483.071 23.1445C488.943 28.183 495.106 33.7211 496.897 41.2162C498.104 46.1714 497.188 51.3764 498.063 56.4148C498.937 61.4533 502.685 66.6999 507.766 66.3251C510.514 66.3251 512.971 64.3264 515.719 64.3264C520.925 64.3264 524.048 70.3642 529.212 71.6134C534.376 72.8626 539.914 68.5321 545.203 69.698C550.492 70.8639 554.406 78.4007 560.361 78.484C563.818 78.484 566.774 76.0272 570.148 75.3194C578.143 73.6954 584.431 82.065 592.135 84.6051C600.756 87.3949 611 82.7729 618.829 87.27C622.618 89.3937 625.492 93.516 629.823 94.0157C633.373 93.779 636.835 92.8002 639.984 91.1425C646.245 89.8481 652.748 90.4274 658.682 92.8081L695.828 103.718C708.744 107.848 721.955 110.993 735.347 113.128C742.926 49.5442 757.002 -13.0406 771.785 -75.3755C695.874 -92.5914 621.026 -114.197 547.618 -140.084C541.58 -130.507 558.196 -119.264 554.948 -108.521C553.74 -104.607 550.075 -101.734 549.284 -97.6945C547.66 -89.3666 559.07 -82.5376 557.196 -74.2929C555.989 -69.0046 549.992 -66.4229 547.077 -61.8009C542.913 -55.1385 547.66 -47.8099 545.12 -41.3973C542.913 -35.7343 535.042 -31.1956 530.045 -27.906C528.583 -26.8546 526.927 -26.1044 525.173 -25.6991C519.259 -24.783 514.887 -31.7785 515.345 -37.733C515.334 -39.0804 515.79 -40.39 516.636 -41.439C518.468 -43.4793 521.674 -42.8548 524.381 -42.938C529.837 -42.938 538.165 -47.9348 537.166 -54.3057C536.375 -59.2192 528.587 -60.1769 528.837 -65.4652C528.837 -70.004 535.375 -71.1283 537.999 -74.7926C538.922 -76.3885 539.315 -78.2364 539.121 -80.0699C538.926 -81.9035 538.154 -83.6278 536.916 -84.9944C534.393 -87.6684 531.326 -89.77 527.921 -91.1571L477.532 -115.85C475.018 -117.376 472.144 -118.209 469.204 -118.265C460.875 -117.515 458.918 -105.773 459.459 -97.4447L462.457 -51.3076C462.453 -49.2618 462.908 -47.2411 463.79 -45.3948C465.164 -42.938 467.954 -41.2308 468.287 -38.4409C468.496 -34.9015 464.123 -32.7779 463.04 -29.4883C460.417 -22.4928 471.869 -14.3314 466.955 -8.66837C465.248 -6.66965 462.124 -6.37817 460.375 -4.50436C457.835 -1.58957 459.542 2.9908 461.958 5.98888C464.804 8.60075 466.854 11.9642 467.871 15.691C467.629 15.5627 467.379 15.4514 467.121 15.3579C468.694 17.1253 470.705 18.4467 472.952 19.1887C474.409 19.855 476.158 19.5635 477.824 19.855Z" fill="white" stroke="#436AE5" stroke-linecap="round" stroke-linejoin="round"/>
<path d="M710.906 242.421C712.312 236.74 711.934 230.765 709.824 225.307C708.741 223.1 707.117 221.143 706.034 218.936C701.87 210.025 707.991 199.781 714.821 192.744C721.65 185.707 729.979 178.795 731.478 169.051C731.5 165.444 731.947 161.852 732.811 158.35C734.851 153.02 740.765 150.022 743.888 145.4C749.427 137.072 744.846 125.579 738.474 117.751C737.225 116.21 735.851 114.669 734.31 113.129C721.25 110.98 708.363 107.89 695.748 103.885L658.602 92.975C652.669 90.5942 646.165 90.0149 639.904 91.3094C636.755 92.9671 633.294 93.9459 629.743 94.1826C625.579 93.6829 622.539 89.5605 618.749 87.4369C610.92 82.9398 600.676 87.4369 592.056 84.7719C584.352 82.2319 578.064 73.8623 570.068 75.4862C566.695 76.1941 563.738 78.7342 560.282 78.6509C554.327 78.6509 550.954 71.1141 545.124 69.8649C539.294 68.6157 534.421 73.0711 529.132 71.7803C523.844 70.4895 520.804 64.4517 515.64 64.4933C512.891 64.4933 510.435 66.3254 507.686 66.492C502.606 66.8668 498.858 61.5785 497.983 56.5817C497.109 51.5849 497.983 46.3383 496.817 41.3831C495.026 33.888 488.863 28.3499 482.991 23.3114C481.511 21.8357 479.718 20.7114 477.744 20.0219C476.079 19.5638 474.33 19.7304 472.664 19.314C470.417 18.572 468.406 17.2505 466.834 15.4831C464.463 14.6962 461.904 14.675 459.52 15.4222C457.136 16.1695 455.047 17.6475 453.549 19.6471C450.504 23.9659 448.482 28.9214 447.636 34.1378C437.846 73.148 423.08 110.738 403.702 145.983C396.581 158.933 388.835 171.591 382.88 185.166C379.757 192.494 381.589 197.033 378.425 204.32C374.155 214.449 372.192 225.401 372.678 236.383C373.199 240.99 373.199 245.642 372.678 250.249C371.763 253.798 370.594 257.277 369.18 260.659C472.871 299.111 578.514 332.08 685.67 359.429C687.086 319.33 704.618 281.854 710.906 242.421Z" fill="white" stroke="#436AE5" stroke-linecap="round" stroke-linejoin="round"/>
<path d="M963.06 287.35C964.799 274.851 965.106 262.193 963.976 249.624C958.895 245.71 951.483 238.423 945.236 242.795C941.072 245.835 940.781 252.872 935.991 254.913C929.537 257.661 924.081 248.292 917.127 247.542C913.421 247.126 910.214 249.749 906.674 249.541C903.759 249.541 902.51 247.376 899.928 247.001C895.764 246.418 890.517 249.374 886.894 246.46C883.437 242.952 881.241 238.398 880.647 233.51C880.057 228.632 878.06 224.031 874.9 220.268C871.735 217.27 866.572 215.605 865.656 211.357C864.406 206.36 869.82 201.863 869.82 196.7C869.82 191.537 863.49 187.914 861.491 182.834C859.784 178.67 860.825 173.881 859.034 169.884C854.162 159.099 834.048 168.218 832.591 162.68C832.392 160.34 832.69 157.985 833.465 155.768C834.589 149.564 831.425 146.774 835.839 141.152C837.417 139.552 838.688 137.675 839.587 135.614C840.033 132.895 839.745 130.107 838.754 127.536C836.584 118.603 837.801 109.183 842.169 101.095C843.909 98.775 844.858 95.9578 844.875 93.0582C844.122 90.4285 842.509 88.127 840.295 86.5208C824.762 71.9051 815.6 51.918 806.98 32.3889C803.302 25.1997 800.693 17.5125 799.234 9.57016C798.556 0.156975 799.471 -9.30312 801.941 -18.4119C805.356 -34.3461 808.757 -50.2942 812.144 -66.2561C798.818 -69.1709 785.506 -72.1829 772.208 -75.292C757.424 -12.8321 743.349 49.6278 735.769 113.212H734.812C736.186 114.753 737.56 116.293 738.976 117.834C745.347 125.662 749.928 137.072 744.39 145.483C741.266 150.271 735.353 153.103 733.312 158.433C732.448 161.935 732.001 165.527 731.98 169.134C730.564 178.878 722.235 185.79 715.322 192.827C708.41 199.865 702.371 210.108 706.536 219.019C707.618 221.226 709.243 223.183 710.325 225.39C712.436 230.848 712.814 236.823 711.408 242.504C705.245 280.938 688.504 317.456 686.422 356.306C690.558 357.823 694.804 359.02 699.123 359.887L945.528 412.645V413.019C949.692 396.363 951.566 378.958 954.148 361.719C958.021 337.027 960.436 312.209 963.06 287.35Z" fill="white" stroke="#436AE5" stroke-linecap="round" stroke-linejoin="round"/>
<path d="M970.931 222.766C970.132 222.596 969.305 222.609 968.511 222.804C967.718 222.998 966.979 223.37 966.35 223.891C965.651 224.811 965.284 225.941 965.309 227.097C964.559 234.949 964.559 242.855 965.309 250.707C964.873 250.429 964.456 250.123 964.06 249.791C965.19 262.36 964.882 275.017 963.143 287.517C960.52 312.5 957.896 337.193 954.19 361.885C951.608 379.124 949.776 396.363 945.57 413.186C943.738 433.062 941.891 452.952 940.031 472.856C1037.97 488.63 1136.66 499.374 1235.7 505.044C1242.64 505.667 1249.63 505.471 1256.52 504.461C1259.96 422.18 1263.41 339.913 1266.85 257.661C1168.61 243.128 1069.75 232.927 970.931 222.766Z" fill="white" stroke="#436AE5" stroke-linecap="round" stroke-linejoin="round"/>
<path d="M724.191 765.876C723.4 760.338 722.609 753.717 726.856 750.053C734.685 743.349 746.678 755.757 756.465 752.51C763.419 750.261 765.501 741.641 766.501 734.438C774.246 677.849 778.411 620.511 788.239 564.422L805.729 464.486C810.435 437.712 815.932 411.853 816.764 385.12L698.622 359.845C694.303 358.978 690.057 357.781 685.921 356.264C685.921 357.263 685.921 358.263 685.921 359.262C641.89 348.158 598.136 335.971 554.66 322.702C548.192 351.156 541.64 379.568 535.004 407.939C527.3 440.626 521.512 472.772 516.265 506.001C516.058 507.256 516.058 508.536 516.265 509.79C516.645 511.398 517.37 512.904 518.389 514.204C536.878 541.77 555.868 568.669 574.774 595.86C597.262 628.048 619.999 660.11 640.154 693.839C665.246 736.703 692.531 778.245 721.901 818.301C726.034 801.136 726.812 783.335 724.191 765.876Z" fill="white" stroke="#436AE5" stroke-linecap="round" stroke-linejoin="round"/>
<path d="M1006.33 733.688C995.224 853.334 984.924 973.049 975.43 1092.83C989.005 1094.54 1002.58 1096.16 1016.28 1097.33C1019.41 1097.38 1022.48 1098.14 1025.28 1099.54C1026.5 1088.92 1026.93 1078.23 1026.57 1067.56L1104.86 1076.88C1107.56 1077.22 1109.73 1077.22 1111.65 1077.47C1111.2 1076.56 1110.7 1075.69 1110.15 1074.84C1106.9 1070.26 1102.19 1067.97 1100.78 1062.06C1112.06 1060.35 1123.1 1063.02 1134.51 1063.64L1176.15 1065.98L1259.65 1070.64C1268.54 1071.8 1277.52 1072.05 1286.47 1071.39C1290.63 1013.09 1289.71 955.046 1290.13 896.501C1290.13 887.715 1289.59 773.371 1294.29 760.421C1286.3 758.19 1278.03 757.083 1269.72 757.132C1181.52 753.884 1093.78 745.306 1006.33 733.688Z" fill="white" stroke="#436AE5" stroke-linecap="round" stroke-linejoin="round"/>
<path d="M1256.52 505.293V504.294C1249.62 505.304 1242.63 505.5 1235.7 504.877C1167.26 500.963 1099.04 494.606 1031.02 485.806C1022.27 568.419 1013.94 651.047 1006.03 733.688C1093.48 745.306 1181.23 753.883 1269.34 757.09C1277.65 757.041 1285.92 758.148 1293.91 760.379C1294.2 759.63 1294.5 759.172 1294.79 759.172C1309.2 760.129 1323.94 759.422 1338.35 759.172C1342.51 675.6 1346.26 592.029 1347.55 508.375C1317.19 506.584 1287.21 504.794 1256.52 505.293Z" fill="#76B5FF" stroke="#436AE5" stroke-linecap="round" stroke-linejoin="round"/>
<path d="M771.208 696.629C769.751 709.121 768.21 721.863 766.503 734.438C765.503 741.642 763.421 750.261 756.467 752.51C746.68 755.758 734.687 743.349 726.858 750.053C722.694 753.717 723.402 760.338 724.193 765.876C726.686 783.346 725.781 801.133 721.528 818.259C723.527 820.924 725.442 823.589 727.441 826.212C726.317 836.789 725.442 847.032 733.396 854.111C736.353 856.734 740.392 858.275 741.933 862.148C744.098 867.186 740.226 872.849 735.728 875.93C731.231 879.012 725.734 880.969 722.194 885.133C716.78 891.504 716.905 901.789 710.076 906.786C708.408 907.626 706.923 908.786 705.703 910.2C704.924 911.772 704.662 913.55 704.954 915.28C705.412 921.316 706.658 927.265 708.66 932.977C710.338 936.481 711.152 940.336 711.034 944.22C709.992 951.465 702.122 955.171 695.875 958.96C694.369 959.784 692.97 960.791 691.711 961.958C694.228 967.039 697.53 971.69 701.497 975.741C720.153 988.525 740.351 999.518 759.465 1012.01C791.864 1033.12 823.638 1056.15 857.036 1075.68C872.735 1084.88 890.642 1082.92 908.299 1084.63C930.745 1086.84 952.941 1089.96 975.22 1092.96C984.548 973.173 994.848 853.459 1006.12 733.813C927.705 723.278 849.332 710.37 771.208 696.629Z" fill="white" stroke="#436AE5" stroke-linecap="round" stroke-linejoin="round"/>
<path d="M1031.1 485.806C1000.56 481.892 970.176 477.52 939.943 472.689C941.831 452.647 943.691 432.632 945.523 412.645L816.761 385.079C815.928 411.812 810.431 437.67 805.726 464.445L788.235 564.381C780.573 608.019 776.367 652.407 771.203 696.587C849.326 710.328 927.7 723.237 1006.32 733.647C1014.12 651.006 1022.38 568.392 1031.1 485.806Z" fill="white" stroke="#436AE5" stroke-linecap="round" stroke-linejoin="round"/>
</g>
<g filter="url(#filter0_d_5_64598)">
<ellipse cx="1235.55" cy="588.965" rx="20.5392" ry="20.5453" fill="white"/>
<path d="M1253.09 588.965C1253.09 598.656 1245.24 606.511 1235.55 606.511C1225.87 606.511 1218.02 598.656 1218.02 588.965C1218.02 579.274 1225.87 571.42 1235.55 571.42C1245.24 571.42 1253.09 579.274 1253.09 588.965Z" stroke="#FF7D01" stroke-width="6"/>
</g>
</g>
<g filter="url(#filter1_d_5_64598)">
<rect x="1370" y="453.842" width="284" height="104" rx="25" fill="white"/>
</g>
<path d="M1404.16 497.094C1402.86 495.805 1402.2 494.053 1402.2 491.84C1402.2 489.633 1402.86 487.878 1404.16 486.576C1405.47 485.287 1407.23 484.643 1409.46 484.643C1411.59 484.643 1413.31 485.189 1414.61 486.283C1415.91 487.377 1416.56 488.751 1416.56 490.404H1413.18C1413.17 490.326 1413.15 490.219 1413.12 490.082C1413.09 489.939 1413 489.701 1412.85 489.369C1412.68 489.024 1412.47 488.725 1412.24 488.471C1412 488.21 1411.64 487.973 1411.16 487.758C1410.66 487.549 1410.1 487.445 1409.46 487.445C1408.2 487.445 1407.23 487.859 1406.54 488.686C1405.85 489.512 1405.5 490.564 1405.5 491.84C1405.5 493.116 1405.85 494.171 1406.55 495.004C1407.24 495.831 1408.21 496.244 1409.46 496.244C1410.07 496.244 1410.62 496.146 1411.12 495.951C1411.61 495.756 1411.99 495.505 1412.25 495.199C1412.77 494.587 1413.06 494.047 1413.12 493.578L1413.18 493.285H1416.56C1416.56 494.945 1415.91 496.316 1414.61 497.396C1413.31 498.49 1411.59 499.037 1409.46 499.037C1407.22 499.037 1405.46 498.389 1404.16 497.094ZM1424.36 499.037C1422.67 499.037 1421.29 498.578 1420.24 497.66C1419.18 496.742 1418.66 495.469 1418.66 493.842C1418.66 492.214 1419.18 490.941 1420.24 490.023C1421.29 489.105 1422.67 488.646 1424.36 488.646C1426.05 488.646 1427.43 489.105 1428.48 490.023C1429.54 490.941 1430.06 492.214 1430.06 493.842C1430.06 495.469 1429.54 496.742 1428.48 497.66C1427.43 498.578 1426.05 499.037 1424.36 499.037ZM1424.36 496.566C1425.21 496.566 1425.88 496.312 1426.37 495.805C1426.86 495.297 1427.1 494.643 1427.1 493.842C1427.1 493.041 1426.86 492.387 1426.37 491.879C1425.88 491.371 1425.21 491.117 1424.36 491.117C1423.5 491.117 1422.83 491.371 1422.36 491.879C1421.87 492.387 1421.62 493.041 1421.62 493.842C1421.62 494.643 1421.87 495.297 1422.36 495.805C1422.83 496.312 1423.5 496.566 1424.36 496.566ZM1432.46 484.838H1435.34V498.842H1432.46V484.838ZM1443.44 499.037C1441.75 499.037 1440.38 498.578 1439.32 497.66C1438.27 496.742 1437.74 495.469 1437.74 493.842C1437.74 492.214 1438.27 490.941 1439.32 490.023C1440.38 489.105 1441.75 488.646 1443.44 488.646C1445.13 488.646 1446.51 489.105 1447.56 490.023C1448.62 490.941 1449.14 492.214 1449.14 493.842C1449.14 495.469 1448.62 496.742 1447.56 497.66C1446.51 498.578 1445.13 499.037 1443.44 499.037ZM1443.44 496.566C1444.29 496.566 1444.96 496.312 1445.45 495.805C1445.94 495.297 1446.19 494.643 1446.19 493.842C1446.19 493.041 1445.94 492.387 1445.45 491.879C1444.96 491.371 1444.29 491.117 1443.44 491.117C1442.58 491.117 1441.91 491.371 1441.44 491.879C1440.95 492.387 1440.71 493.041 1440.71 493.842C1440.71 494.643 1440.95 495.297 1441.44 495.805C1441.91 496.312 1442.58 496.566 1443.44 496.566ZM1458.06 488.646L1459.06 488.744V491.918C1458.63 491.716 1458.05 491.618 1457.32 491.625C1456.39 491.625 1455.67 491.885 1455.17 492.406C1454.67 492.94 1454.42 493.611 1454.42 494.418V498.842H1451.54V488.842H1454.42V490.678H1454.58C1454.69 490.443 1454.83 490.209 1455.02 489.975C1455.21 489.734 1455.42 489.525 1455.66 489.35C1455.93 489.154 1456.27 488.988 1456.7 488.852C1457.13 488.715 1457.59 488.646 1458.06 488.646ZM1460.36 496.02C1460.36 494.991 1460.78 494.219 1461.62 493.705C1462.47 493.197 1463.54 492.943 1464.84 492.943C1465.51 492.943 1466.11 493.012 1466.64 493.148C1467.18 493.298 1467.55 493.435 1467.76 493.559L1468.08 493.783V492.318C1468.08 491.889 1467.92 491.527 1467.59 491.234C1467.27 490.948 1466.72 490.805 1465.96 490.805C1465.41 490.805 1464.93 490.906 1464.5 491.107C1464.05 491.316 1463.82 491.635 1463.82 492.064H1460.86C1460.87 490.925 1461.33 490.069 1462.25 489.496C1463.16 488.93 1464.4 488.646 1465.96 488.646C1467.54 488.646 1468.77 488.952 1469.64 489.564C1470.52 490.176 1470.96 491.094 1470.96 492.318V495.443C1470.96 495.847 1471.01 496.127 1471.11 496.283C1471.21 496.439 1471.37 496.518 1471.62 496.518L1472.04 496.439V498.842C1471.79 498.972 1471.37 499.037 1470.79 499.037C1470.05 499.037 1469.48 498.874 1469.1 498.549C1468.75 498.269 1468.53 498.012 1468.44 497.777L1468.38 497.641H1468.24C1468.24 497.667 1468.2 497.725 1468.14 497.816C1468.07 497.901 1467.95 498.018 1467.76 498.168C1467.58 498.318 1467.36 498.451 1467.1 498.568C1466.44 498.881 1465.57 499.037 1464.5 499.037C1463.31 499.037 1462.32 498.78 1461.54 498.266C1460.75 497.758 1460.36 497.009 1460.36 496.02ZM1465.68 496.859C1466.19 496.859 1466.65 496.794 1467.06 496.664C1467.46 496.54 1467.73 496.413 1467.88 496.283L1468.08 496.098V495.502C1468.03 495.45 1467.96 495.395 1467.88 495.336C1467.76 495.264 1467.51 495.176 1467.1 495.072C1466.67 494.962 1466.2 494.906 1465.68 494.906C1464.1 494.906 1463.31 495.232 1463.31 495.883C1463.31 496.534 1464.1 496.859 1465.68 496.859ZM1478.48 499.037C1477.11 499.037 1475.96 498.572 1475.03 497.641C1474.1 496.71 1473.64 495.443 1473.64 493.842C1473.64 492.24 1474.1 490.974 1475.03 490.043C1475.96 489.112 1477.11 488.646 1478.48 488.646C1479.22 488.646 1479.89 488.764 1480.49 488.998C1481.1 489.245 1481.51 489.486 1481.72 489.721L1482.04 490.062H1482.16V484.838H1485.04V498.842H1482.16V497.201H1482.03C1481.97 497.331 1481.8 497.543 1481.53 497.836C1481.33 498.044 1481.11 498.233 1480.85 498.402C1480.58 498.578 1480.23 498.728 1479.8 498.852C1479.38 498.975 1478.94 499.037 1478.48 499.037ZM1477.36 491.938C1476.86 492.439 1476.61 493.074 1476.61 493.842C1476.61 494.617 1476.86 495.248 1477.36 495.736C1477.85 496.231 1478.53 496.479 1479.38 496.479C1480.24 496.479 1480.92 496.231 1481.41 495.736C1481.91 495.248 1482.16 494.617 1482.16 493.842C1482.16 493.054 1481.91 492.416 1481.4 491.928C1480.89 491.446 1480.21 491.205 1479.38 491.205C1478.53 491.205 1477.86 491.449 1477.36 491.938ZM1493.15 499.037C1491.46 499.037 1490.08 498.578 1489.03 497.66C1487.97 496.742 1487.45 495.469 1487.45 493.842C1487.45 492.214 1487.97 490.941 1489.03 490.023C1490.08 489.105 1491.46 488.646 1493.15 488.646C1494.84 488.646 1496.21 489.105 1497.27 490.023C1498.32 490.941 1498.85 492.214 1498.85 493.842C1498.85 495.469 1498.32 496.742 1497.27 497.66C1496.21 498.578 1494.84 499.037 1493.15 499.037ZM1493.15 496.566C1494 496.566 1494.67 496.312 1495.16 495.805C1495.65 495.297 1495.89 494.643 1495.89 493.842C1495.89 493.041 1495.65 492.387 1495.16 491.879C1494.67 491.371 1494 491.117 1493.15 491.117C1492.29 491.117 1491.62 491.371 1491.15 491.879C1490.66 492.387 1490.41 493.041 1490.41 493.842C1490.41 494.643 1490.66 495.297 1491.15 495.805C1491.62 496.312 1492.29 496.566 1493.15 496.566Z" fill="#272727"/>
<path d="M1404.42 515.33L1401.72 517.457V515.55L1404.57 513.238H1406.12V525.842H1404.42V515.33ZM1423.77 525.842H1421.71L1419.44 518.679H1419.36L1417.09 525.842H1415.03L1412.42 517.018H1413.98L1416.06 524.146H1416.13L1418.39 517.018H1420.41L1422.67 524.146H1422.75L1424.82 517.018H1426.38L1423.77 525.842ZM1427.75 523.372C1427.75 522.47 1428.13 521.802 1428.9 521.368C1429.66 520.94 1430.64 520.727 1431.83 520.727C1432.44 520.727 1433 520.8 1433.52 520.946C1434.06 521.099 1434.44 521.242 1434.65 521.377L1435 521.597V520.208C1435 519.61 1434.78 519.142 1434.34 518.802C1433.9 518.456 1433.24 518.283 1432.35 518.283C1430.59 518.283 1429.71 518.764 1429.71 519.725H1428.16C1428.16 518.752 1428.56 518.028 1429.34 517.554C1430.12 517.079 1431.13 516.842 1432.35 516.842C1433.58 516.842 1434.59 517.129 1435.37 517.703C1436.14 518.283 1436.54 519.118 1436.54 520.208V523.416C1436.54 523.861 1436.6 524.172 1436.72 524.348C1436.84 524.518 1437.03 524.603 1437.3 524.603C1437.53 524.603 1437.69 524.57 1437.76 524.506L1437.8 524.488V525.877C1437.62 525.971 1437.35 526.018 1437.01 526.018C1436.42 526.018 1435.99 525.892 1435.71 525.64C1435.49 525.452 1435.32 525.256 1435.22 525.051L1435.17 524.945H1435.1C1434.96 525.092 1434.81 525.215 1434.65 525.314C1434.47 525.438 1434.27 525.546 1434.06 525.64C1433.48 525.892 1432.78 526.018 1431.96 526.018C1430.71 526.018 1429.69 525.804 1428.91 525.376C1428.13 524.954 1427.75 524.286 1427.75 523.372ZM1432.18 522.168C1430.28 522.168 1429.33 522.569 1429.33 523.372C1429.33 524.181 1430.28 524.585 1432.18 524.585C1432.75 524.585 1433.26 524.523 1433.72 524.4C1434.18 524.289 1434.49 524.184 1434.66 524.084C1434.82 524.002 1434.93 523.929 1435 523.864V522.854C1434.93 522.789 1434.82 522.716 1434.66 522.634C1434.46 522.54 1434.15 522.44 1433.73 522.335C1433.28 522.224 1432.76 522.168 1432.18 522.168ZM1444.39 516.842C1444.74 516.842 1445.05 516.877 1445.32 516.947L1445.45 516.965V518.661C1445.11 518.544 1444.67 518.482 1444.12 518.477C1443.17 518.477 1442.42 518.778 1441.88 519.382C1441.33 519.985 1441.06 520.741 1441.06 521.649V525.842H1439.51V517.018H1441.06V518.731H1441.15C1441.24 518.544 1441.38 518.324 1441.58 518.072C1441.76 517.85 1441.96 517.656 1442.19 517.492C1442.44 517.316 1442.76 517.164 1443.15 517.035C1443.55 516.906 1443.96 516.842 1444.39 516.842ZM1456.28 521.43L1456.23 522.168H1448.26C1448.26 522.672 1448.56 523.199 1449.16 523.75C1449.75 524.307 1450.54 524.585 1451.54 524.585C1452.27 524.585 1452.87 524.447 1453.34 524.172C1453.73 523.938 1454 523.727 1454.15 523.539L1454.22 523.416H1456.04C1456 523.504 1455.96 523.595 1455.92 523.688C1455.85 523.823 1455.7 524.031 1455.49 524.312C1455.26 524.611 1455 524.878 1454.69 525.112C1454.4 525.341 1453.97 525.549 1453.4 525.736C1452.86 525.924 1452.24 526.018 1451.54 526.018C1450.08 526.018 1448.89 525.602 1447.99 524.77C1447.07 523.938 1446.61 522.824 1446.61 521.43C1446.61 520.047 1447.06 518.937 1447.98 518.099C1448.89 517.261 1450.04 516.842 1451.45 516.842C1452.84 516.842 1454 517.261 1454.92 518.099C1455.83 518.937 1456.28 520.047 1456.28 521.43ZM1453.79 519.118C1453.2 518.562 1452.42 518.283 1451.45 518.283C1450.46 518.283 1449.69 518.562 1449.11 519.118C1448.53 519.675 1448.24 520.223 1448.24 520.762H1454.65C1454.65 520.223 1454.36 519.675 1453.79 519.118ZM1467.49 525.842H1465.94V521.289C1465.94 520.258 1465.68 519.499 1465.16 519.013C1464.64 518.526 1463.94 518.283 1463.06 518.283C1462.13 518.283 1461.42 518.559 1460.93 519.109C1460.43 519.66 1460.19 520.387 1460.19 521.289V525.842H1458.64V513.238H1460.19V518.371H1460.27C1460.4 518.172 1460.54 517.993 1460.7 517.835C1460.9 517.659 1461.1 517.504 1461.31 517.369C1461.55 517.223 1461.87 517.1 1462.27 517C1462.67 516.895 1463.08 516.842 1463.52 516.842C1464.65 516.842 1465.6 517.182 1466.36 517.861C1467.11 518.547 1467.49 519.569 1467.49 520.929V525.842ZM1471.11 524.761C1470.2 523.923 1469.74 522.812 1469.74 521.43C1469.74 520.053 1470.2 518.942 1471.11 518.099C1472.02 517.261 1473.18 516.842 1474.58 516.842C1475.98 516.842 1477.13 517.261 1478.05 518.099C1478.96 518.942 1479.42 520.053 1479.42 521.43C1479.42 522.812 1478.96 523.923 1478.05 524.761C1477.13 525.599 1475.98 526.018 1474.58 526.018C1473.18 526.018 1472.02 525.599 1471.11 524.761ZM1476.95 523.697C1477.54 523.105 1477.83 522.35 1477.83 521.43C1477.83 520.51 1477.54 519.754 1476.95 519.162C1476.35 518.576 1475.57 518.283 1474.58 518.283C1473.59 518.283 1472.8 518.576 1472.22 519.162C1471.62 519.748 1471.32 520.504 1471.32 521.43C1471.32 522.355 1471.62 523.111 1472.22 523.697C1472.81 524.289 1473.6 524.585 1474.58 524.585C1475.55 524.585 1476.34 524.289 1476.95 523.697ZM1481.77 517.018H1483.32V521.579C1483.32 522.61 1483.58 523.369 1484.1 523.855C1484.62 524.342 1485.32 524.585 1486.19 524.585C1487.11 524.585 1487.82 524.307 1488.33 523.75C1488.83 523.199 1489.08 522.476 1489.08 521.579V517.018H1490.62V525.842H1489.08V524.488H1488.99C1488.87 524.676 1488.73 524.854 1488.56 525.024C1488.36 525.206 1488.16 525.361 1487.95 525.49C1487.71 525.643 1487.39 525.769 1486.99 525.868C1486.59 525.968 1486.18 526.018 1485.74 526.018C1484.6 526.018 1483.65 525.675 1482.91 524.989C1482.15 524.315 1481.77 523.299 1481.77 521.939V517.018ZM1499.97 523.231C1499.97 522.886 1499.81 522.619 1499.47 522.432C1499.13 522.238 1498.71 522.13 1498.22 522.106C1497.71 522.077 1497.16 522.024 1496.57 521.948C1495.94 521.872 1495.39 521.781 1494.92 521.676C1494.42 521.57 1494 521.333 1493.66 520.964C1493.32 520.601 1493.15 520.114 1493.15 519.505C1493.15 518.62 1493.53 517.952 1494.29 517.501C1495.04 517.062 1496.02 516.842 1497.22 516.842C1498.44 516.842 1499.43 517.088 1500.18 517.58C1500.92 518.072 1501.29 518.846 1501.29 519.9H1499.71C1499.71 519.35 1499.51 518.942 1499.11 518.679C1498.72 518.415 1498.09 518.283 1497.22 518.283C1495.56 518.283 1494.74 518.69 1494.74 519.505C1494.74 519.839 1494.91 520.094 1495.25 520.27C1495.58 520.451 1496 520.554 1496.5 520.577C1496.96 520.601 1497.52 520.65 1498.15 520.727C1498.76 520.809 1499.31 520.905 1499.8 521.017C1500.3 521.14 1500.72 521.386 1501.06 521.755C1501.4 522.136 1501.56 522.628 1501.56 523.231C1501.56 523.888 1501.36 524.433 1500.94 524.866C1500.53 525.294 1500.01 525.593 1499.39 525.763C1498.79 525.933 1498.08 526.018 1497.26 526.018C1495.54 526.018 1494.32 525.596 1493.58 524.752C1493.17 524.271 1492.96 523.674 1492.96 522.959V522.678H1494.54V522.959C1494.54 524.037 1495.45 524.576 1497.26 524.576C1499.07 524.588 1499.97 524.14 1499.97 523.231ZM1513.22 521.43L1513.17 522.168H1505.19C1505.19 522.672 1505.49 523.199 1506.09 523.75C1506.68 524.307 1507.48 524.585 1508.47 524.585C1509.21 524.585 1509.81 524.447 1510.27 524.172C1510.66 523.938 1510.93 523.727 1511.08 523.539L1511.15 523.416H1512.97C1512.94 523.504 1512.9 523.595 1512.86 523.688C1512.78 523.823 1512.64 524.031 1512.43 524.312C1512.2 524.611 1511.93 524.878 1511.63 525.112C1511.33 525.341 1510.9 525.549 1510.34 525.736C1509.8 525.924 1509.18 526.018 1508.47 526.018C1507.01 526.018 1505.83 525.602 1504.92 524.77C1504 523.938 1503.54 522.824 1503.54 521.43C1503.54 520.047 1504 518.937 1504.91 518.099C1505.82 517.261 1506.98 516.842 1508.38 516.842C1509.78 516.842 1510.94 517.261 1511.86 518.099C1512.76 518.937 1513.22 520.047 1513.22 521.43ZM1510.72 519.118C1510.14 518.562 1509.36 518.283 1508.38 518.283C1507.4 518.283 1506.62 518.562 1506.05 519.118C1505.47 519.675 1505.18 520.223 1505.18 520.762H1511.58C1511.58 520.223 1511.3 519.675 1510.72 519.118ZM1522.11 516.666V517.018H1524.7V518.424H1522.11V525.842H1520.56V518.424H1519.08V517.562L1520.56 517.018V516.464C1520.56 515.333 1520.87 514.483 1521.51 513.915C1522.13 513.347 1522.98 513.062 1524.06 513.062C1524.37 513.062 1524.69 513.104 1525 513.186C1525.32 513.273 1525.56 513.353 1525.71 513.423L1525.93 513.546V514.935C1525.54 514.589 1525 514.416 1524.32 514.416C1523.59 514.416 1523.04 514.592 1522.67 514.943C1522.3 515.289 1522.11 515.863 1522.11 516.666ZM1527.55 524.761C1526.64 523.923 1526.18 522.812 1526.18 521.43C1526.18 520.053 1526.64 518.942 1527.55 518.099C1528.46 517.261 1529.62 516.842 1531.03 516.842C1532.42 516.842 1533.58 517.261 1534.5 518.099C1535.41 518.942 1535.86 520.053 1535.86 521.43C1535.86 522.812 1535.41 523.923 1534.5 524.761C1533.58 525.599 1532.42 526.018 1531.03 526.018C1529.62 526.018 1528.46 525.599 1527.55 524.761ZM1533.39 523.697C1533.98 523.105 1534.28 522.35 1534.28 521.43C1534.28 520.51 1533.98 519.754 1533.39 519.162C1532.8 518.576 1532.01 518.283 1531.03 518.283C1530.04 518.283 1529.25 518.576 1528.66 519.162C1528.06 519.748 1527.76 520.504 1527.76 521.43C1527.76 522.355 1528.06 523.111 1528.66 523.697C1529.25 524.289 1530.04 524.585 1531.03 524.585C1532 524.585 1532.79 524.289 1533.39 523.697ZM1538.21 517.018H1539.76V521.579C1539.76 522.61 1540.02 523.369 1540.54 523.855C1541.07 524.342 1541.76 524.585 1542.64 524.585C1543.56 524.585 1544.27 524.307 1544.77 523.75C1545.27 523.199 1545.52 522.476 1545.52 521.579V517.018H1547.07V525.842H1545.52V524.488H1545.43C1545.31 524.676 1545.17 524.854 1545 525.024C1544.81 525.206 1544.6 525.361 1544.39 525.49C1544.15 525.643 1543.83 525.769 1543.44 525.868C1543.04 525.968 1542.62 526.018 1542.19 526.018C1541.04 526.018 1540.09 525.675 1539.35 524.989C1538.59 524.315 1538.21 523.299 1538.21 521.939V517.018ZM1558.61 525.842H1557.07V521.289C1557.07 520.258 1556.81 519.499 1556.29 519.013C1555.76 518.526 1555.06 518.283 1554.18 518.283C1553.26 518.283 1552.55 518.559 1552.06 519.109C1551.56 519.66 1551.31 520.387 1551.31 521.289V525.842H1549.76V517.018H1551.31V518.371H1551.4C1551.52 518.172 1551.67 517.993 1551.83 517.835C1552.02 517.659 1552.22 517.504 1552.44 517.369C1552.68 517.223 1553 517.1 1553.39 517C1553.79 516.895 1554.21 516.842 1554.64 516.842C1555.78 516.842 1556.73 517.182 1557.49 517.861C1558.24 518.547 1558.61 519.569 1558.61 520.929V525.842ZM1568.99 513.238H1570.54V525.842H1568.99V524.523H1568.92C1568.83 524.676 1568.66 524.852 1568.42 525.051C1568.22 525.215 1568 525.364 1567.76 525.499C1567.51 525.64 1567.18 525.76 1566.77 525.859C1566.37 525.965 1565.96 526.018 1565.54 526.018C1564.21 526.018 1563.1 525.596 1562.21 524.752C1561.31 523.908 1560.86 522.801 1560.86 521.43C1560.86 520.07 1561.31 518.963 1562.21 518.107C1563.1 517.264 1564.21 516.842 1565.54 516.842C1566.25 516.842 1566.89 516.968 1567.45 517.22C1568 517.472 1568.39 517.718 1568.62 517.958L1568.92 518.336H1568.99V513.238ZM1563.34 519.171C1562.75 519.769 1562.45 520.521 1562.45 521.43C1562.45 522.344 1562.75 523.097 1563.34 523.688C1563.93 524.286 1564.73 524.585 1565.72 524.585C1566.72 524.585 1567.51 524.286 1568.11 523.688C1568.7 523.097 1568.99 522.344 1568.99 521.43C1568.99 520.492 1568.69 519.733 1568.09 519.153C1567.49 518.573 1566.7 518.283 1565.72 518.283C1564.73 518.283 1563.93 518.579 1563.34 519.171Z" fill="#436AE5"/>
</g>
<defs>
<filter id="filter0_d_5_64598" x="1195.02" y="558.42" width="81.0781" height="81.0908" filterUnits="userSpaceOnUse" color-interpolation-filters="sRGB">
<feFlood flood-opacity="0" result="BackgroundImageFix"/>
<feColorMatrix in="SourceAlpha" type="matrix" values="0 0 0 0 0 0 0 0 0 0 0 0 0 0 0 0 0 0 127 0" result="hardAlpha"/>
<feOffset dy="10"/>
<feGaussianBlur stdDeviation="10"/>
<feComposite in2="hardAlpha" operator="out"/>
<feColorMatrix type="matrix" values="0 0 0 0 0.246875 0 0 0 0 0.367998 0 0 0 0 0.75 0 0 0 0.7 0"/>
<feBlend mode="normal" in2="BackgroundImageFix" result="effect1_dropShadow_5_64598"/>
<feBlend mode="normal" in="SourceGraphic" in2="effect1_dropShadow_5_64598" result="shape"/>
</filter>
<filter id="filter1_d_5_64598" x="1330" y="427.842" width="364" height="184" filterUnits="userSpaceOnUse" color-interpolation-filters="sRGB">
<feFlood flood-opacity="0" result="BackgroundImageFix"/>
<feColorMatrix in="SourceAlpha" type="matrix" values="0 0 0 0 0 0 0 0 0 0 0 0 0 0 0 0 0 0 127 0" result="hardAlpha"/>
<feOffset dy="14"/>
<feGaussianBlur stdDeviation="20"/>
<feComposite in2="hardAlpha" operator="out"/>
<feColorMatrix type="matrix" values="0 0 0 0 0.0437383 0 0 0 0 0.109346 0 0 0 0 0.316262 0 0 0 0.2 0"/>
<feBlend mode="normal" in2="BackgroundImageFix" result="effect1_dropShadow_5_64598"/>
<feBlend mode="normal" in="SourceGraphic" in2="effect1_dropShadow_5_64598" result="shape"/>
</filter>
<clipPath id="clip0_5_64598">
<rect width="1920" height="1023" fill="white" transform="translate(0 0.841797)"/>
</clipPath>
<clipPath id="clip1_5_64598">
<rect width="2548" height="1687" fill="white" transform="translate(-47 -663.158)"/>
</clipPath>
<clipPath id="clip2_5_64598">
<rect width="2548" height="1687" fill="white" transform="translate(103.617 -319.595)"/>
</clipPath>
</defs>
</svg>
