<svg width="1920" height="1024" viewBox="0 0 1920 1024" fill="none" xmlns="http://www.w3.org/2000/svg">
<g clip-path="url(#clip0_5_66769)">
<rect width="1920" height="1023" transform="translate(0 0.841797)" fill="#F1F4FF"/>
<g clip-path="url(#clip1_5_66769)">
<path d="M1976.81 530.958C1977.03 518.55 1975 506.204 1970.81 494.523C1968.52 489.25 1966.79 483.751 1965.64 478.117C1965.26 472.464 1965.44 466.787 1966.18 461.17C1967.18 444.887 1963.57 428.654 1955.77 414.325C1952.73 408.787 1948.73 403.082 1948.19 396.628C1947.64 390.174 1950.81 385.177 1949.14 379.181C1948.06 375.308 1945.44 373.434 1945.35 369.104C1945.35 362.233 1949.06 357.195 1946.6 349.949C1945.22 346.44 1943.49 343.079 1941.44 339.914C1927.27 339.914 1913.07 339.456 1898.9 339.498L1737.51 340.247C1716.68 340.247 1696.1 340.456 1675.36 340.247C1672.58 404.623 1669.88 469.012 1667.27 533.415C1770.38 537.704 1873.74 536.829 1976.81 530.958Z" fill="white" stroke="#436AE5" stroke-linecap="round" stroke-linejoin="round"/>
<path d="M1991.1 674.199L1987.6 580.593C1987.82 576.044 1986.87 571.514 1984.85 567.435C1983.1 564.561 1980.31 562.396 1978.47 559.565C1974.31 553.36 1975.77 545.282 1976.43 537.912C1976.64 535.58 1976.72 533.29 1976.81 530.958C1873.74 536.829 1770.38 537.704 1667.27 533.456C1664.72 594.14 1662.16 654.781 1659.61 715.381L1887.16 719.545C1892.02 719.375 1896.88 719.951 1901.57 721.252C1910.23 724.167 1917.32 731.954 1926.57 732.037C1930.5 731.693 1934.4 730.953 1938.19 729.83C1956.1 726.249 1972.85 737.825 1990.39 743.821C1989.6 740.823 1988.85 737.783 1988.1 734.785C1987.17 731.633 1986.66 728.37 1986.6 725.083C1986.96 721.377 1987.71 717.72 1988.85 714.174C1991.52 701.027 1992.28 687.563 1991.1 674.199Z" fill="white" stroke="#436AE5" stroke-linecap="round" stroke-linejoin="round"/>
<path d="M2042.09 887.646C2040.51 885.32 2038.6 883.231 2036.42 881.441C2031.34 877.277 2029.01 869.99 2027.68 863.37C2026.05 855.458 2026.43 847.255 2025.01 839.302C2023.56 832.823 2021.75 826.429 2019.59 820.147C2017.14 812.486 2014.72 804.824 2012.26 797.162C2010.17 790.056 2007.59 783.1 2004.55 776.342C2002.93 773.261 2000.93 770.388 1999.22 767.348C1995.23 759.941 1992.22 752.046 1990.27 743.863C1972.73 737.867 1955.98 726.291 1938.07 729.872C1934.28 730.995 1930.38 731.734 1926.44 732.079C1917.32 732.079 1910.24 724.209 1901.45 721.294C1896.76 719.993 1891.9 719.417 1887.03 719.587L1659.49 715.423C1657.74 757.646 1655.97 799.855 1654.2 842.05C1684.9 841.55 1714.89 843.341 1745.56 845.173C1745.22 865.243 1744.76 885.328 1744.18 905.426C1750.2 906.001 1756.26 906.182 1762.3 905.967L1924.11 903.052C1966.89 902.303 2009.55 898.888 2052.38 897.14C2048.44 894.57 2044.97 891.361 2042.09 887.646Z" fill="white" stroke="#436AE5" stroke-linecap="round" stroke-linejoin="round"/>
<path d="M2090.2 997.825C2090.62 984.542 2091.49 967.636 2083.79 956.185C2078.5 948.149 2067.33 945.567 2066.41 934.616C2065.87 928.495 2069.5 922.582 2069 916.461C2068.29 907.591 2060.17 902.636 2052.33 897.14C2009.51 899.013 1966.85 902.303 1924.06 903.053L1762.26 905.967C1756.21 906.182 1750.16 906.001 1744.13 905.426C1742.3 968.719 1739.34 1031.97 1736.34 1095.22C1752.59 1100.8 1772.59 1097.09 1789.42 1096.8C1829.62 1096.1 1869.57 1097.97 1909.77 1096.14L2095.83 1087.81C2091.59 1058.01 2089.71 1027.92 2090.2 997.825Z" fill="white" stroke="#436AE5" stroke-linecap="round" stroke-linejoin="round"/>
<path d="M1196.44 346.368C1197.9 354.31 1200.51 361.998 1204.19 369.187C1212.98 388.633 1222.14 408.62 1237.51 423.319C1239.73 424.925 1241.34 427.226 1242.1 429.856C1242.08 432.756 1241.13 435.573 1239.39 437.893C1235.02 445.981 1233.8 455.401 1235.97 464.334C1236.96 466.905 1237.25 469.693 1236.81 472.412C1235.91 474.472 1234.64 476.35 1233.06 477.95C1228.64 483.572 1231.81 486.278 1230.68 492.566C1229.91 494.782 1229.61 497.138 1229.81 499.478C1231.18 505.016 1251.39 495.897 1256.26 506.682C1258.05 510.846 1257.01 515.551 1258.72 519.632C1260.84 524.712 1267.05 527.96 1267.05 533.498C1267.05 539.036 1261.76 543.158 1262.88 548.155C1263.93 552.319 1268.97 554.068 1272.13 557.066C1275.29 560.829 1277.29 565.43 1277.88 570.308C1278.48 575.196 1280.67 579.75 1284.13 583.258C1287.76 586.172 1292.88 583.258 1297.17 583.799C1299.84 584.174 1301 586.172 1303.92 586.339C1307.46 586.547 1310.67 583.924 1314.38 584.34C1321.33 585.09 1326.87 594.459 1333.25 591.71C1338.04 589.67 1338.29 582.633 1342.5 579.593C1349.16 574.846 1357.45 583.757 1362.49 587.338C1361.74 579.486 1361.74 571.581 1362.49 563.728C1362.63 562.539 1363.17 561.435 1364.03 560.605C1364.69 560.095 1365.46 559.742 1366.28 559.576C1367.09 559.41 1367.94 559.435 1368.74 559.648C1467.6 569.808 1566.5 580.01 1664.82 594.375C1668.4 509.735 1671.96 425.067 1675.48 340.372C1651.24 340.08 1626.99 339.331 1602.79 337.582C1546.59 333.418 1490.97 323.966 1435.48 314.139C1359.83 300.772 1284.3 286.989 1209.48 270.625C1206.06 286.587 1202.66 302.535 1199.27 318.469C1196.77 327.544 1195.81 336.975 1196.44 346.368Z" fill="white" stroke="#436AE5" stroke-linecap="round" stroke-linejoin="round"/>
<path d="M875.323 356.57C877.298 357.259 879.091 358.384 880.573 359.859C886.447 364.898 892.612 370.436 894.404 377.931C895.612 382.886 894.695 388.091 895.57 393.13C896.445 398.168 900.194 403.415 905.277 403.04C908.026 403.04 910.484 401.041 913.234 401.041C918.441 401.041 921.566 407.079 926.732 408.328C931.897 409.577 937.438 405.247 942.729 406.413C948.02 407.579 951.936 415.116 957.893 415.199C961.351 415.199 964.309 412.742 967.683 412.034C975.682 410.41 981.973 418.78 989.68 421.32C998.303 424.11 1008.55 419.488 1016.38 423.985C1020.17 426.109 1023.05 430.231 1027.38 430.731C1030.93 430.494 1034.4 429.515 1037.55 427.857C1043.81 426.563 1050.32 427.142 1056.25 429.523L1093.41 440.433C1106.33 444.562 1119.55 447.708 1132.95 449.843C1140.53 386.259 1154.61 323.674 1169.4 261.339C1093.46 244.123 1018.58 222.518 945.145 196.631C939.105 206.208 955.727 217.451 952.477 228.194C951.269 232.108 947.603 234.981 946.812 239.02C945.187 247.348 956.602 254.177 954.727 262.422C953.519 267.71 947.52 270.292 944.604 274.914C940.438 281.576 945.187 288.905 942.646 295.318C940.438 300.981 932.564 305.519 927.565 308.809C926.103 309.86 924.446 310.61 922.691 311.016C916.775 311.932 912.401 304.936 912.859 298.982C912.848 297.634 913.304 296.325 914.15 295.276C915.983 293.236 919.191 293.86 921.899 293.777C927.357 293.777 935.689 288.78 934.689 282.409C933.897 277.496 926.107 276.538 926.357 271.25C926.357 266.711 932.897 265.587 935.522 261.922C936.446 260.326 936.839 258.478 936.644 256.645C936.449 254.811 935.677 253.087 934.439 251.721C931.915 249.046 928.846 246.945 925.44 245.558L875.032 220.865C872.516 219.339 869.642 218.506 866.7 218.45C858.368 219.2 856.41 230.942 856.951 239.27L859.951 285.407C859.947 287.453 860.402 289.474 861.284 291.32C862.659 293.777 865.45 295.484 865.783 298.274C865.992 301.813 861.617 303.937 860.534 307.227C857.91 314.222 869.366 322.383 864.45 328.046C862.742 330.045 859.618 330.337 857.868 332.21C855.327 335.125 857.035 339.706 859.451 342.704C862.299 345.316 864.349 348.679 865.367 352.406C865.125 352.278 864.874 352.166 864.617 352.073C866.19 353.84 868.202 355.162 870.449 355.904C871.907 356.57 873.657 356.278 875.323 356.57Z" fill="white" stroke="#436AE5" stroke-linecap="round" stroke-linejoin="round"/>
<path d="M1108.49 579.135C1109.9 573.455 1109.52 567.479 1107.41 562.021C1106.33 559.815 1104.7 557.858 1103.62 555.651C1099.45 546.74 1105.58 536.496 1112.41 529.459C1119.24 522.422 1127.57 515.51 1129.07 505.766C1129.09 502.159 1129.54 498.567 1130.41 495.064C1132.45 489.735 1138.36 486.737 1141.49 482.114C1147.03 473.786 1142.45 462.294 1136.07 454.466C1134.82 452.925 1133.45 451.384 1131.91 449.844C1118.84 447.695 1105.95 444.605 1093.33 440.599L1056.17 429.69C1050.23 427.309 1043.73 426.73 1037.46 428.024C1034.31 429.682 1030.85 430.661 1027.3 430.897C1023.13 430.398 1020.09 426.275 1016.3 424.152C1008.47 419.655 998.22 424.152 989.596 421.487C981.889 418.947 975.599 410.577 967.6 412.201C964.226 412.909 961.268 415.449 957.81 415.366C951.853 415.366 948.478 407.829 942.646 406.58C936.813 405.331 931.939 409.786 926.648 408.495C921.358 407.204 918.316 401.167 913.151 401.208C910.401 401.208 907.943 403.04 905.194 403.207C900.111 403.582 896.362 398.293 895.487 393.297C894.612 388.3 895.487 383.053 894.32 378.098C892.529 370.603 886.363 365.065 880.489 360.026C879.008 358.551 877.214 357.426 875.24 356.737C873.574 356.279 871.824 356.445 870.158 356.029C867.91 355.287 865.898 353.965 864.325 352.198C861.953 351.411 859.393 351.39 857.008 352.137C854.623 352.884 852.534 354.362 851.036 356.362C847.989 360.681 845.966 365.636 845.12 370.853C835.326 409.863 820.554 447.453 801.169 482.697C794.045 495.647 786.296 508.306 780.339 521.881C777.214 529.209 779.047 533.748 775.881 541.035C771.61 551.164 769.646 562.116 770.132 573.098C770.653 577.705 770.653 582.356 770.132 586.964C769.217 590.513 768.048 593.992 766.633 597.374C870.365 635.826 976.049 668.795 1083.25 696.144C1084.66 656.044 1102.2 618.569 1108.49 579.135Z" fill="white" stroke="#436AE5" stroke-linecap="round" stroke-linejoin="round"/>
<path d="M1108.62 1280.98C1108.73 1277.09 1107.92 1273.24 1106.24 1269.73C1104.24 1264.02 1102.99 1258.07 1102.53 1252.04C1102.24 1250.31 1102.5 1248.53 1103.28 1246.96C1104.5 1245.54 1105.99 1244.38 1107.66 1243.54C1114.49 1238.71 1114.37 1228.26 1119.78 1221.89C1123.32 1217.73 1128.82 1215.81 1133.32 1212.69C1137.82 1209.56 1141.65 1203.94 1139.53 1198.9C1137.99 1195.24 1133.95 1193.49 1130.99 1190.87C1123.03 1183.79 1123.91 1173.55 1125.03 1162.97C1093.41 1120.51 1064.2 1076.3 1037.54 1030.55C1017.38 996.825 994.635 964.763 972.139 932.575C953.1 905.384 934.228 878.443 915.731 850.919C914.712 849.619 913.987 848.113 913.606 846.505C913.399 845.251 913.399 843.971 913.606 842.716C918.856 809.404 924.646 777.341 932.353 744.654C939.019 716.256 945.573 687.843 952.017 659.417C889.555 640.596 827.732 619.859 766.547 597.207C765.525 599.86 765.057 602.694 765.172 605.535C765.589 610.573 768.838 615.112 768.838 620.151C768.838 627.729 761.715 633.309 759.132 640.429C756.341 648.341 759.132 657.71 755.549 665.413C751.966 673.117 742.301 676.198 738.177 683.568C734.052 690.939 736.302 700.224 740.051 707.678C743.801 715.131 748.967 722.21 750.8 730.413C751.904 736.485 751.904 742.705 750.8 748.776C747.509 772.553 740.593 798.744 753.341 819.106C757.507 825.644 767.089 831.973 763.839 839.01C761.07 845.38 760.441 852.476 762.049 859.233C763.656 865.99 767.413 872.044 772.754 876.486C777.295 873.863 786.044 862.828 785.711 875.362L785.336 891.726C785.383 892.357 785.19 892.982 784.794 893.475C784.308 893.81 783.711 893.944 783.128 893.85C776.546 893.85 774.796 894.391 774.254 901.345C773.663 908.161 774.522 915.025 776.777 921.484C779.032 927.944 782.63 933.852 787.335 938.821C792.668 944.401 799.833 950.605 798.084 958.1C796.444 961.609 794.433 964.931 792.085 968.011C788.46 974.756 790.668 983.168 794.251 989.996C797.834 996.825 802.583 1003.03 804.541 1010.48C805.183 1015.84 806.284 1021.14 807.832 1026.31C809.552 1029.56 811.68 1032.58 814.164 1035.3C821.465 1044.38 826.735 1054.91 829.62 1066.2C830.878 1070.64 831.398 1075.25 831.162 1079.86C830.495 1088.18 826.079 1096.51 827.454 1104.84C829.579 1117.75 844.118 1124.41 856.907 1126.91C862.836 1127.54 868.59 1129.29 873.863 1132.07C878.066 1135.13 881.572 1139.05 884.153 1143.56C891.152 1154.22 898.276 1166.13 910.274 1170.59C916.106 1172.8 923.771 1173.84 925.729 1179.79C926.854 1183.12 925.73 1187.04 927.021 1190.24C929.062 1194.91 935.353 1195.61 940.019 1197.24C953.392 1201.82 959.766 1216.68 964.598 1230.01C967.931 1239.04 971.264 1248.71 969.347 1258.16C968.389 1262.65 967.389 1269.19 971.847 1270.27L976.013 1265.53C976.729 1272.07 977.969 1278.55 979.721 1284.89C1016.52 1287.83 1053.31 1292.08 1090.08 1297.63C1089.49 1297.63 1089.33 1297.92 1089.49 1298.59C1090.75 1297.42 1092.15 1296.42 1093.66 1295.59C1099.7 1291.89 1107.57 1288.18 1108.62 1280.98Z" fill="white" stroke="#436AE5" stroke-linecap="round" stroke-linejoin="round"/>
<path d="M1360.74 624.065C1362.48 611.565 1362.79 598.908 1361.66 586.339C1356.57 582.425 1349.16 575.138 1342.91 579.51C1338.74 582.55 1338.45 589.587 1333.66 591.627C1327.2 594.376 1321.74 585.007 1314.79 584.257C1311.08 583.841 1307.87 586.464 1304.33 586.256C1301.41 586.256 1300.17 584.091 1297.58 583.716C1293.42 583.133 1288.17 586.089 1284.54 583.175C1281.09 579.667 1278.89 575.113 1278.29 570.225C1277.7 565.347 1275.71 560.746 1272.54 556.983C1269.38 553.985 1264.21 552.319 1263.3 548.072C1262.05 543.075 1267.46 538.578 1267.46 533.415C1267.46 528.251 1261.13 524.629 1259.13 519.549C1257.42 515.385 1258.46 510.596 1256.67 506.599C1251.8 495.814 1231.68 504.933 1230.22 499.395C1230.02 497.055 1230.32 494.699 1231.09 492.483C1232.22 486.278 1229.05 483.489 1233.47 477.867C1235.05 476.267 1236.32 474.389 1237.22 472.329C1237.66 469.61 1237.38 466.822 1236.38 464.251C1234.21 455.318 1235.43 445.898 1239.8 437.81C1241.54 435.49 1242.49 432.673 1242.51 429.773C1241.75 427.143 1240.14 424.842 1237.93 423.236C1222.39 408.62 1213.22 388.633 1204.6 369.104C1200.92 361.915 1198.31 354.227 1196.85 346.285C1196.17 336.872 1197.09 327.412 1199.56 318.303C1202.97 302.369 1206.37 286.421 1209.76 270.459C1196.43 267.544 1183.11 264.532 1169.81 261.423C1155.02 323.883 1140.94 386.343 1133.36 449.927H1132.4C1133.78 451.467 1135.15 453.008 1136.57 454.549C1142.94 462.377 1147.52 473.786 1141.98 482.198C1138.86 486.986 1132.94 489.818 1130.9 495.148C1130.04 498.65 1129.59 502.242 1129.57 505.849C1128.15 515.593 1119.82 522.505 1112.9 529.542C1105.99 536.579 1099.95 546.823 1104.11 555.734C1105.2 557.941 1106.82 559.898 1107.9 562.105C1110.02 567.563 1110.39 573.538 1108.99 579.219C1102.82 617.652 1086.08 654.171 1083.99 693.021C1088.13 694.537 1092.38 695.735 1096.7 696.602L1343.2 749.359V749.734C1347.37 733.078 1349.24 715.673 1351.82 698.434C1355.7 673.741 1358.11 648.924 1360.74 624.065Z" fill="#74B1F9" stroke="#436AE5" stroke-linecap="round" stroke-linejoin="round"/>
<path d="M1368.61 559.481C1367.82 559.311 1366.99 559.324 1366.19 559.518C1365.4 559.713 1364.66 560.085 1364.03 560.606C1363.33 561.526 1362.97 562.656 1362.99 563.812C1362.24 571.664 1362.24 579.57 1362.99 587.422C1362.55 587.144 1362.14 586.838 1361.74 586.506C1362.87 599.075 1362.56 611.732 1360.82 624.231C1358.2 649.215 1355.58 673.908 1351.87 698.6C1349.28 715.839 1347.45 733.078 1343.24 749.901C1341.41 769.777 1339.56 789.667 1337.7 809.571C1435.68 825.345 1534.41 836.089 1633.49 841.758C1640.43 842.382 1647.42 842.186 1654.32 841.175C1657.76 758.895 1661.21 676.628 1664.65 594.376C1566.37 579.843 1467.47 569.641 1368.61 559.481Z" fill="white" stroke="#436AE5" stroke-linecap="round" stroke-linejoin="round"/>
<path d="M1121.78 1102.59C1120.99 1097.05 1120.2 1090.43 1124.45 1086.77C1132.28 1080.06 1144.28 1092.47 1154.07 1089.22C1161.02 1086.98 1163.11 1078.36 1164.11 1071.15C1171.86 1014.56 1176.02 957.226 1185.85 901.137L1203.35 801.201C1208.06 774.426 1213.56 748.568 1214.39 721.835L1096.2 696.56C1091.88 695.693 1087.63 694.496 1083.5 692.979C1083.5 693.978 1083.5 694.977 1083.5 695.977C1039.45 684.873 995.676 672.686 952.183 659.417C945.712 687.871 939.158 716.283 932.52 744.654C924.813 777.341 919.022 809.487 913.773 842.716C913.565 843.971 913.565 845.251 913.773 846.505C914.153 848.113 914.878 849.619 915.897 850.919C934.394 878.485 953.391 905.384 972.305 932.575C994.801 964.763 1017.55 996.825 1037.71 1030.55C1062.81 1073.42 1090.11 1114.96 1119.49 1155.02C1123.62 1137.85 1124.4 1120.05 1121.78 1102.59Z" fill="white" stroke="#436AE5" stroke-linecap="round" stroke-linejoin="round"/>
<path d="M1654.32 842.008V841.009C1647.42 842.019 1640.43 842.215 1633.49 841.592C1565.03 837.677 1496.77 831.32 1428.73 822.521C1419.98 905.134 1411.65 987.762 1403.73 1070.4C1491.22 1082.02 1579 1090.6 1667.15 1093.8C1675.46 1093.76 1683.73 1094.86 1691.73 1097.09C1692.02 1096.34 1692.31 1095.89 1692.6 1095.89C1707.02 1096.84 1721.77 1096.14 1736.18 1095.89C1740.35 1012.32 1744.1 928.744 1745.39 845.089C1715.02 843.299 1685.02 841.508 1654.32 842.008Z" fill="white" stroke="#436AE5" stroke-linecap="round" stroke-linejoin="round"/>
<path d="M1428.81 822.521C1398.26 818.607 1367.86 814.235 1337.62 809.404C1339.51 789.362 1341.37 769.347 1343.2 749.36L1214.39 721.794C1213.56 748.527 1208.06 774.385 1203.35 801.16L1185.85 901.095C1178.19 944.734 1173.98 989.122 1168.81 1033.3C1246.97 1047.04 1325.37 1059.95 1404.02 1070.36C1411.83 987.72 1420.09 905.107 1428.81 822.521Z" fill="white" stroke="#436AE5" stroke-linecap="round" stroke-linejoin="round"/>
<g filter="url(#filter0_d_5_66769)">
<ellipse cx="1148.2" cy="594.672" rx="20.5472" ry="20.5453" fill="white"/>
<path d="M1165.75 594.672C1165.75 604.362 1157.89 612.218 1148.2 612.218C1138.51 612.218 1130.66 604.362 1130.66 594.672C1130.66 584.983 1138.51 577.127 1148.2 577.127C1157.89 577.127 1165.75 584.983 1165.75 594.672Z" stroke="#FF7D01" stroke-width="6"/>
</g>
<g filter="url(#filter1_d_5_66769)">
<ellipse cx="1225.83" cy="675.712" rx="20.5472" ry="20.5453" fill="white"/>
<path d="M1243.38 675.712C1243.38 685.402 1235.52 693.258 1225.83 693.258C1216.14 693.258 1208.28 685.402 1208.28 675.712C1208.28 666.023 1216.14 658.167 1225.83 658.167C1235.52 658.167 1243.38 666.023 1243.38 675.712Z" stroke="#FF7D01" stroke-width="6"/>
</g>
</g>
<g filter="url(#filter2_d_5_66769)">
<rect x="788" y="523.842" width="284" height="104" rx="25" fill="white"/>
</g>
<path d="M820.201 554.838H830.24V557.504H826.803V566.186H830.24V568.842H820.201V566.186H823.639V557.504H820.201V554.838ZM836.676 569.037C835.309 569.037 834.16 568.572 833.229 567.641C832.298 566.71 831.832 565.443 831.832 563.842C831.832 562.24 832.298 560.974 833.229 560.043C834.16 559.112 835.309 558.646 836.676 558.646C837.418 558.646 838.089 558.764 838.688 558.998C839.293 559.245 839.703 559.486 839.918 559.721L840.24 560.062H840.357V554.838H843.238V568.842H840.357V567.201H840.221C840.162 567.331 839.996 567.543 839.723 567.836C839.527 568.044 839.303 568.233 839.049 568.402C838.775 568.578 838.424 568.728 837.994 568.852C837.571 568.975 837.132 569.037 836.676 569.037ZM835.553 561.938C835.051 562.439 834.801 563.074 834.801 563.842C834.801 564.617 835.051 565.248 835.553 565.736C836.048 566.231 836.721 566.479 837.574 566.479C838.434 566.479 839.111 566.231 839.605 565.736C840.107 565.248 840.357 564.617 840.357 563.842C840.357 563.054 840.104 562.416 839.596 561.928C839.081 561.446 838.408 561.205 837.574 561.205C836.728 561.205 836.054 561.449 835.553 561.938ZM845.641 566.02C845.641 564.991 846.064 564.219 846.91 563.705C847.757 563.197 848.827 562.943 850.123 562.943C850.794 562.943 851.396 563.012 851.93 563.148C852.464 563.298 852.835 563.435 853.043 563.559L853.365 563.783V562.318C853.365 561.889 853.202 561.527 852.877 561.234C852.551 560.948 852.008 560.805 851.246 560.805C850.699 560.805 850.211 560.906 849.781 561.107C849.332 561.316 849.107 561.635 849.107 562.064H846.148C846.155 560.925 846.617 560.069 847.535 559.496C848.447 558.93 849.684 558.646 851.246 558.646C852.828 558.646 854.055 558.952 854.928 559.564C855.807 560.176 856.246 561.094 856.246 562.318V565.443C856.246 565.847 856.295 566.127 856.393 566.283C856.49 566.439 856.66 566.518 856.9 566.518L857.32 566.439V568.842C857.073 568.972 856.66 569.037 856.08 569.037C855.331 569.037 854.765 568.874 854.381 568.549C854.036 568.269 853.818 568.012 853.727 567.777L853.668 567.641H853.521C853.521 567.667 853.489 567.725 853.424 567.816C853.359 567.901 853.232 568.018 853.043 568.168C852.861 568.318 852.643 568.451 852.389 568.568C851.725 568.881 850.855 569.037 849.781 569.037C848.596 569.037 847.61 568.78 846.822 568.266C846.035 567.758 845.641 567.009 845.641 566.02ZM850.963 566.859C851.477 566.859 851.939 566.794 852.35 566.664C852.74 566.54 853.01 566.413 853.16 566.283L853.365 566.098V565.502C853.313 565.45 853.245 565.395 853.16 565.336C853.049 565.264 852.792 565.176 852.389 565.072C851.959 564.962 851.484 564.906 850.963 564.906C849.387 564.906 848.6 565.232 848.6 565.883C848.6 566.534 849.387 566.859 850.963 566.859ZM870.162 568.842H867.281V563.803C867.281 562.963 867.057 562.322 866.607 561.879C866.165 561.43 865.543 561.205 864.742 561.205C863.928 561.205 863.303 561.443 862.867 561.918C862.424 562.4 862.203 563.028 862.203 563.803V568.842H859.322V554.838H862.203V560.502H862.369C862.441 560.346 862.594 560.131 862.828 559.857C863.03 559.636 863.245 559.447 863.473 559.291C863.74 559.109 864.098 558.956 864.547 558.832C864.996 558.708 865.468 558.646 865.963 558.646C867.219 558.646 868.235 559.008 869.01 559.73C869.778 560.46 870.162 561.55 870.162 563.002V568.842ZM878.16 569.037C876.467 569.037 875.094 568.578 874.039 567.66C872.984 566.742 872.457 565.469 872.457 563.842C872.457 562.214 872.984 560.941 874.039 560.023C875.094 559.105 876.467 558.646 878.16 558.646C879.853 558.646 881.227 559.105 882.281 560.023C883.336 560.941 883.863 562.214 883.863 563.842C883.863 565.469 883.336 566.742 882.281 567.66C881.227 568.578 879.853 569.037 878.16 569.037ZM878.16 566.566C879.013 566.566 879.684 566.312 880.172 565.805C880.66 565.297 880.904 564.643 880.904 563.842C880.904 563.041 880.66 562.387 880.172 561.879C879.684 561.371 879.013 561.117 878.16 561.117C877.301 561.117 876.633 561.371 876.158 561.879C875.67 562.387 875.426 563.041 875.426 563.842C875.426 564.643 875.67 565.297 876.158 565.805C876.633 566.312 877.301 566.566 878.16 566.566Z" fill="#272727"/>
<path d="M830.162 595.842H819.993V594.506C819.993 593.938 820.143 593.413 820.441 592.933C820.746 592.446 821.153 592.036 821.663 591.702C822.384 591.233 823.532 590.659 825.108 589.979C825.595 589.774 826.017 589.575 826.374 589.382C826.731 589.188 827.074 588.966 827.402 588.714C827.73 588.456 827.979 588.175 828.149 587.87C828.325 587.56 828.413 587.229 828.413 586.877C828.413 586.127 828.141 585.562 827.596 585.181C827.051 584.8 826.263 584.609 825.231 584.609C823.11 584.609 822.047 585.456 822.041 587.149V587.51H820.354V587.149C820.354 585.866 820.793 584.864 821.672 584.144C822.539 583.423 823.726 583.062 825.231 583.062C826.714 583.062 827.9 583.402 828.791 584.082C829.67 584.768 830.109 585.699 830.109 586.877C830.109 587.48 829.96 588.046 829.661 588.573C829.362 589.101 828.958 589.543 828.448 589.9C827.64 590.48 826.512 591.075 825.064 591.685C824.555 591.896 824.13 592.083 823.79 592.247C823.456 592.411 823.119 592.604 822.779 592.827C822.439 593.05 822.185 593.287 822.015 593.539C821.851 593.785 821.769 594.049 821.769 594.33H830.162V595.842ZM847.274 595.842H845.209L842.941 588.679H842.862L840.595 595.842H838.529L835.919 587.018H837.483L839.558 594.146H839.628L841.896 587.018H843.908L846.176 594.146H846.255L848.32 587.018H849.885L847.274 595.842ZM851.247 593.372C851.247 592.47 851.631 591.802 852.398 591.368C853.16 590.94 854.139 590.727 855.334 590.727C855.943 590.727 856.506 590.8 857.021 590.946C857.561 591.099 857.938 591.242 858.155 591.377L858.498 591.597V590.208C858.498 589.61 858.278 589.142 857.839 588.802C857.399 588.456 856.737 588.283 855.853 588.283C854.089 588.283 853.207 588.764 853.207 589.725H851.66C851.666 588.752 852.062 588.028 852.847 587.554C853.626 587.079 854.628 586.842 855.853 586.842C857.083 586.842 858.088 587.129 858.867 587.703C859.646 588.283 860.039 589.118 860.045 590.208V593.416C860.045 593.861 860.104 594.172 860.221 594.348C860.338 594.518 860.531 594.603 860.801 594.603C861.035 594.603 861.19 594.57 861.267 594.506L861.302 594.488V595.877C861.12 595.971 860.856 596.018 860.511 596.018C859.925 596.018 859.491 595.892 859.21 595.64C858.987 595.452 858.823 595.256 858.718 595.051L858.674 594.945H858.604C858.457 595.092 858.308 595.215 858.155 595.314C857.974 595.438 857.774 595.546 857.558 595.64C856.983 595.892 856.283 596.018 855.457 596.018C854.209 596.018 853.195 595.804 852.416 595.376C851.637 594.954 851.247 594.286 851.247 593.372ZM855.686 592.168C853.781 592.168 852.829 592.569 852.829 593.372C852.829 594.181 853.781 594.585 855.686 594.585C856.248 594.585 856.761 594.523 857.224 594.4C857.681 594.289 857.994 594.184 858.164 594.084C858.322 594.002 858.434 593.929 858.498 593.864V592.854C858.434 592.789 858.322 592.716 858.164 592.634C857.965 592.54 857.654 592.44 857.232 592.335C856.781 592.224 856.266 592.168 855.686 592.168ZM867.894 586.842C868.245 586.842 868.556 586.877 868.825 586.947L868.948 586.965V588.661C868.614 588.544 868.172 588.482 867.621 588.477C866.672 588.477 865.925 588.778 865.38 589.382C864.835 589.985 864.562 590.741 864.562 591.649V595.842H863.016V587.018H864.562V588.731H864.65C864.738 588.544 864.882 588.324 865.081 588.072C865.263 587.85 865.465 587.656 865.688 587.492C865.939 587.316 866.262 587.164 866.654 587.035C867.053 586.906 867.466 586.842 867.894 586.842ZM879.785 591.43L879.732 592.168H871.761C871.761 592.672 872.06 593.199 872.657 593.75C873.249 594.307 874.043 594.585 875.039 594.585C875.771 594.585 876.372 594.447 876.841 594.172C877.228 593.938 877.497 593.727 877.649 593.539L877.72 593.416H879.539C879.504 593.504 879.466 593.595 879.425 593.688C879.349 593.823 879.205 594.031 878.994 594.312C878.766 594.611 878.499 594.878 878.194 595.112C877.901 595.341 877.471 595.549 876.902 595.736C876.363 595.924 875.742 596.018 875.039 596.018C873.58 596.018 872.396 595.602 871.488 594.77C870.568 593.938 870.108 592.824 870.108 591.43C870.108 590.047 870.565 588.937 871.479 588.099C872.388 587.261 873.545 586.842 874.951 586.842C876.346 586.842 877.503 587.261 878.423 588.099C879.331 588.937 879.785 590.047 879.785 591.43ZM877.289 589.118C876.703 588.562 875.924 588.283 874.951 588.283C873.967 588.283 873.188 588.562 872.613 589.118C872.033 589.675 871.743 590.223 871.743 590.762H878.15C878.15 590.223 877.863 589.675 877.289 589.118ZM890.991 595.842H889.444V591.289C889.444 590.258 889.184 589.499 888.662 589.013C888.141 588.526 887.44 588.283 886.562 588.283C885.636 588.283 884.927 588.559 884.435 589.109C883.937 589.66 883.688 590.387 883.688 591.289V595.842H882.141V583.238H883.688V588.371H883.775C883.898 588.172 884.042 587.993 884.206 587.835C884.399 587.659 884.602 587.504 884.812 587.369C885.053 587.223 885.372 587.1 885.771 587C886.169 586.895 886.585 586.842 887.019 586.842C888.155 586.842 889.104 587.182 889.866 587.861C890.616 588.547 890.991 589.569 890.991 590.929V595.842ZM894.612 594.761C893.698 593.923 893.241 592.812 893.241 591.43C893.241 590.053 893.698 588.942 894.612 588.099C895.521 587.261 896.678 586.842 898.084 586.842C899.479 586.842 900.636 587.261 901.556 588.099C902.464 588.942 902.918 590.053 902.918 591.43C902.918 592.812 902.464 593.923 901.556 594.761C900.636 595.599 899.479 596.018 898.084 596.018C896.678 596.018 895.521 595.599 894.612 594.761ZM900.448 593.697C901.04 593.105 901.336 592.35 901.336 591.43C901.336 590.51 901.04 589.754 900.448 589.162C899.856 588.576 899.068 588.283 898.084 588.283C897.094 588.283 896.306 588.576 895.72 589.162C895.122 589.748 894.823 590.504 894.823 591.43C894.823 592.355 895.122 593.111 895.72 593.697C896.312 594.289 897.1 594.585 898.084 594.585C899.057 594.585 899.845 594.289 900.448 593.697ZM905.273 587.018H906.82V591.579C906.82 592.61 907.081 593.369 907.603 593.855C908.124 594.342 908.821 594.585 909.694 594.585C910.614 594.585 911.326 594.307 911.83 593.75C912.328 593.199 912.577 592.476 912.577 591.579V587.018H914.124V595.842H912.577V594.488H912.489C912.372 594.676 912.229 594.854 912.059 595.024C911.865 595.206 911.663 595.361 911.452 595.49C911.212 595.643 910.893 595.769 910.494 595.868C910.096 595.968 909.68 596.018 909.246 596.018C908.098 596.018 907.151 595.675 906.407 594.989C905.651 594.315 905.273 593.299 905.273 591.939V587.018ZM923.476 593.231C923.476 592.886 923.309 592.619 922.975 592.432C922.629 592.238 922.21 592.13 921.718 592.106C921.208 592.077 920.66 592.024 920.074 591.948C919.441 591.872 918.891 591.781 918.422 591.676C917.918 591.57 917.499 591.333 917.165 590.964C916.825 590.601 916.655 590.114 916.655 589.505C916.655 588.62 917.033 587.952 917.789 587.501C918.545 587.062 919.523 586.842 920.725 586.842C921.943 586.842 922.928 587.088 923.678 587.58C924.422 588.072 924.794 588.846 924.794 589.9H923.212C923.212 589.35 923.013 588.942 922.614 588.679C922.222 588.415 921.592 588.283 920.725 588.283C919.066 588.283 918.237 588.69 918.237 589.505C918.237 589.839 918.407 590.094 918.747 590.27C919.087 590.451 919.506 590.554 920.004 590.577C920.467 590.601 921.018 590.65 921.656 590.727C922.26 590.809 922.808 590.905 923.3 591.017C923.798 591.14 924.22 591.386 924.565 591.755C924.899 592.136 925.066 592.628 925.066 593.231C925.066 593.888 924.858 594.433 924.442 594.866C924.032 595.294 923.517 595.593 922.896 595.763C922.292 595.933 921.58 596.018 920.76 596.018C919.043 596.018 917.818 595.596 917.086 594.752C916.67 594.271 916.462 593.674 916.462 592.959V592.678H918.044V592.959C918.044 594.037 918.949 594.576 920.76 594.576C922.57 594.588 923.476 594.14 923.476 593.231ZM936.721 591.43L936.668 592.168H928.696C928.696 592.672 928.995 593.199 929.593 593.75C930.185 594.307 930.979 594.585 931.975 594.585C932.707 594.585 933.308 594.447 933.776 594.172C934.163 593.938 934.433 593.727 934.585 593.539L934.655 593.416H936.475C936.439 593.504 936.401 593.595 936.36 593.688C936.284 593.823 936.141 594.031 935.93 594.312C935.701 594.611 935.435 594.878 935.13 595.112C934.837 595.341 934.406 595.549 933.838 595.736C933.299 595.924 932.678 596.018 931.975 596.018C930.516 596.018 929.332 595.602 928.424 594.77C927.504 593.938 927.044 592.824 927.044 591.43C927.044 590.047 927.501 588.937 928.415 588.099C929.323 587.261 930.48 586.842 931.887 586.842C933.281 586.842 934.438 587.261 935.358 588.099C936.267 588.937 936.721 590.047 936.721 591.43ZM934.225 589.118C933.639 588.562 932.859 588.283 931.887 588.283C930.902 588.283 930.123 588.562 929.549 589.118C928.969 589.675 928.679 590.223 928.679 590.762H935.086C935.086 590.223 934.799 589.675 934.225 589.118ZM945.729 593.231C945.729 592.886 945.562 592.619 945.229 592.432C944.883 592.238 944.464 592.13 943.972 592.106C943.462 592.077 942.914 592.024 942.328 591.948C941.695 591.872 941.145 591.781 940.676 591.676C940.172 591.57 939.753 591.333 939.419 590.964C939.079 590.601 938.909 590.114 938.909 589.505C938.909 588.62 939.287 587.952 940.043 587.501C940.799 587.062 941.777 586.842 942.979 586.842C944.197 586.842 945.182 587.088 945.932 587.58C946.676 588.072 947.048 588.846 947.048 589.9H945.466C945.466 589.35 945.267 588.942 944.868 588.679C944.476 588.415 943.846 588.283 942.979 588.283C941.32 588.283 940.491 588.69 940.491 589.505C940.491 589.839 940.661 590.094 941.001 590.27C941.341 590.451 941.76 590.554 942.258 590.577C942.721 590.601 943.271 590.65 943.91 590.727C944.514 590.809 945.062 590.905 945.554 591.017C946.052 591.14 946.474 591.386 946.819 591.755C947.153 592.136 947.32 592.628 947.32 593.231C947.32 593.888 947.112 594.433 946.696 594.866C946.286 595.294 945.771 595.593 945.149 595.763C944.546 595.933 943.834 596.018 943.014 596.018C941.297 596.018 940.072 595.596 939.34 594.752C938.924 594.271 938.716 593.674 938.716 592.959V592.678H940.298V592.959C940.298 594.037 941.203 594.576 943.014 594.576C944.824 594.588 945.729 594.14 945.729 593.231ZM956.197 586.666V587.018H958.781V588.424H956.197V595.842H954.642V588.424H953.165V587.562L954.642 587.018V586.464C954.642 585.333 954.958 584.483 955.591 583.915C956.212 583.347 957.062 583.062 958.14 583.062C958.456 583.062 958.772 583.104 959.089 583.186C959.405 583.273 959.64 583.353 959.792 583.423L960.012 583.546V584.935C959.619 584.589 959.083 584.416 958.403 584.416C957.671 584.416 957.12 584.592 956.751 584.943C956.382 585.289 956.197 585.863 956.197 586.666ZM961.638 594.761C960.724 593.923 960.267 592.812 960.267 591.43C960.267 590.053 960.724 588.942 961.638 588.099C962.546 587.261 963.703 586.842 965.109 586.842C966.504 586.842 967.661 587.261 968.581 588.099C969.489 588.942 969.943 590.053 969.943 591.43C969.943 592.812 969.489 593.923 968.581 594.761C967.661 595.599 966.504 596.018 965.109 596.018C963.703 596.018 962.546 595.599 961.638 594.761ZM967.474 593.697C968.065 593.105 968.361 592.35 968.361 591.43C968.361 590.51 968.065 589.754 967.474 589.162C966.882 588.576 966.094 588.283 965.109 588.283C964.119 588.283 963.331 588.576 962.745 589.162C962.147 589.748 961.849 590.504 961.849 591.43C961.849 592.355 962.147 593.111 962.745 593.697C963.337 594.289 964.125 594.585 965.109 594.585C966.082 594.585 966.87 594.289 967.474 593.697ZM972.299 587.018H973.846V591.579C973.846 592.61 974.106 593.369 974.628 593.855C975.149 594.342 975.847 594.585 976.72 594.585C977.64 594.585 978.352 594.307 978.855 593.75C979.354 593.199 979.603 592.476 979.603 591.579V587.018H981.149V595.842H979.603V594.488H979.515C979.397 594.676 979.254 594.854 979.084 595.024C978.891 595.206 978.688 595.361 978.478 595.49C978.237 595.643 977.918 595.769 977.52 595.868C977.121 595.968 976.705 596.018 976.271 596.018C975.123 596.018 974.177 595.675 973.433 594.989C972.677 594.315 972.299 593.299 972.299 591.939V587.018ZM992.698 595.842H991.151V591.289C991.151 590.258 990.891 589.499 990.369 589.013C989.848 588.526 989.147 588.283 988.269 588.283C987.343 588.283 986.634 588.559 986.142 589.109C985.644 589.66 985.395 590.387 985.395 591.289V595.842H983.848V587.018H985.395V588.371H985.482C985.605 588.172 985.749 587.993 985.913 587.835C986.106 587.659 986.309 587.504 986.52 587.369C986.76 587.223 987.079 587.1 987.478 587C987.876 586.895 988.292 586.842 988.726 586.842C989.862 586.842 990.812 587.182 991.573 587.861C992.323 588.547 992.698 589.569 992.698 590.929V595.842ZM1003.08 583.238H1004.62V595.842H1003.08V594.523H1003.01C1002.91 594.676 1002.75 594.852 1002.51 595.051C1002.3 595.215 1002.08 595.364 1001.85 595.499C1001.6 595.64 1001.26 595.76 1000.85 595.859C1000.45 595.965 1000.04 596.018 999.624 596.018C998.294 596.018 997.184 595.596 996.293 594.752C995.396 593.908 994.948 592.801 994.948 591.43C994.948 590.07 995.396 588.963 996.293 588.107C997.184 587.264 998.294 586.842 999.624 586.842C1000.34 586.842 1000.97 586.968 1001.53 587.22C1002.09 587.472 1002.48 587.718 1002.7 587.958L1003.01 588.336H1003.08V583.238ZM997.427 589.171C996.829 589.769 996.53 590.521 996.53 591.43C996.53 592.344 996.829 593.097 997.427 593.688C998.019 594.286 998.812 594.585 999.809 594.585C1000.8 594.585 1001.6 594.286 1002.19 593.688C1002.78 593.097 1003.08 592.344 1003.08 591.43C1003.08 590.492 1002.78 589.733 1002.17 589.153C1001.57 588.573 1000.78 588.283 999.809 588.283C998.812 588.283 998.019 588.579 997.427 589.171Z" fill="#436AE5"/>
</g>
<defs>
<filter id="filter0_d_5_66769" x="1107.66" y="564.127" width="81.0938" height="81.0908" filterUnits="userSpaceOnUse" color-interpolation-filters="sRGB">
<feFlood flood-opacity="0" result="BackgroundImageFix"/>
<feColorMatrix in="SourceAlpha" type="matrix" values="0 0 0 0 0 0 0 0 0 0 0 0 0 0 0 0 0 0 127 0" result="hardAlpha"/>
<feOffset dy="10"/>
<feGaussianBlur stdDeviation="10"/>
<feComposite in2="hardAlpha" operator="out"/>
<feColorMatrix type="matrix" values="0 0 0 0 0.246875 0 0 0 0 0.367998 0 0 0 0 0.75 0 0 0 0.7 0"/>
<feBlend mode="normal" in2="BackgroundImageFix" result="effect1_dropShadow_5_66769"/>
<feBlend mode="normal" in="SourceGraphic" in2="effect1_dropShadow_5_66769" result="shape"/>
</filter>
<filter id="filter1_d_5_66769" x="1185.28" y="645.167" width="81.0938" height="81.0908" filterUnits="userSpaceOnUse" color-interpolation-filters="sRGB">
<feFlood flood-opacity="0" result="BackgroundImageFix"/>
<feColorMatrix in="SourceAlpha" type="matrix" values="0 0 0 0 0 0 0 0 0 0 0 0 0 0 0 0 0 0 127 0" result="hardAlpha"/>
<feOffset dy="10"/>
<feGaussianBlur stdDeviation="10"/>
<feComposite in2="hardAlpha" operator="out"/>
<feColorMatrix type="matrix" values="0 0 0 0 0.246875 0 0 0 0 0.367998 0 0 0 0 0.75 0 0 0 0.7 0"/>
<feBlend mode="normal" in2="BackgroundImageFix" result="effect1_dropShadow_5_66769"/>
<feBlend mode="normal" in="SourceGraphic" in2="effect1_dropShadow_5_66769" result="shape"/>
</filter>
<filter id="filter2_d_5_66769" x="748" y="497.842" width="364" height="184" filterUnits="userSpaceOnUse" color-interpolation-filters="sRGB">
<feFlood flood-opacity="0" result="BackgroundImageFix"/>
<feColorMatrix in="SourceAlpha" type="matrix" values="0 0 0 0 0 0 0 0 0 0 0 0 0 0 0 0 0 0 127 0" result="hardAlpha"/>
<feOffset dy="14"/>
<feGaussianBlur stdDeviation="20"/>
<feComposite in2="hardAlpha" operator="out"/>
<feColorMatrix type="matrix" values="0 0 0 0 0.0437383 0 0 0 0 0.109346 0 0 0 0 0.316262 0 0 0 0.2 0"/>
<feBlend mode="normal" in2="BackgroundImageFix" result="effect1_dropShadow_5_66769"/>
<feBlend mode="normal" in="SourceGraphic" in2="effect1_dropShadow_5_66769" result="shape"/>
</filter>
<clipPath id="clip0_5_66769">
<rect width="1920" height="1023" fill="white" transform="translate(0 0.841797)"/>
</clipPath>
<clipPath id="clip1_5_66769">
<rect width="2549" height="1687" fill="white" transform="translate(-15 -663.158)"/>
</clipPath>
</defs>
</svg>
