<svg width="33" height="32" viewBox="0 0 33 32" fill="none" xmlns="http://www.w3.org/2000/svg">
<g clip-path="url(#clip0_515_416)">
<path d="M31.5234 13.2467L18.2669 13.2461C17.6815 13.2461 17.207 13.7083 17.207 14.2787V18.405C17.207 18.9752 17.6815 19.4376 18.2669 19.4376H25.7321C24.9146 21.5047 23.3889 23.2357 21.4424 24.3357L24.6255 29.7047C29.7316 26.8273 32.7505 21.7787 32.7505 16.127C32.7505 15.3223 32.6896 14.747 32.5679 14.0993C32.4753 13.6072 32.0369 13.2467 31.5234 13.2467Z" fill="#167EE6"/>
<path d="M16.5003 25.6373C12.847 25.6373 9.65765 23.6924 7.94474 20.8145L2.43457 23.909C5.23863 28.6442 10.4916 31.8329 16.5003 31.8329C19.448 31.8329 22.2293 31.0596 24.6253 29.712V29.7046L21.4422 24.3356C19.9861 25.1584 18.3012 25.6373 16.5003 25.6373Z" fill="#12B347"/>
<path d="M24.625 29.7123V29.705L21.4419 24.3359C19.9858 25.1587 18.301 25.6377 16.5 25.6377V31.8332C19.4477 31.8332 22.2291 31.06 24.625 29.7123Z" fill="#0F993E"/>
<path d="M6.60871 16.0001C6.60871 14.2456 7.10011 12.604 7.94446 11.1854L2.43429 8.09082C1.04359 10.418 0.25 13.1207 0.25 16.0001C0.25 18.8796 1.04359 21.5822 2.43429 23.9094L7.94446 20.8149C7.10011 19.3962 6.60871 17.7547 6.60871 16.0001Z" fill="#FFD500"/>
<path d="M16.5003 6.36266C18.8826 6.36266 21.0709 7.18749 22.7802 8.55945C23.2018 8.89789 23.8147 8.8735 24.2009 8.49715L27.2015 5.57352C27.6397 5.1465 27.6085 4.44756 27.1404 4.05185C24.2766 1.63114 20.5505 0.166992 16.5003 0.166992C10.4916 0.166992 5.23863 3.35574 2.43457 8.09102L7.94474 11.1856C9.65765 8.30754 12.847 6.36266 16.5003 6.36266Z" fill="#FF4B26"/>
<path d="M22.7799 8.55945C23.2015 8.89789 23.8144 8.8735 24.2006 8.49714L27.2012 5.57352C27.6394 5.1465 27.6082 4.44756 27.1401 4.05185C24.2764 1.63108 20.5502 0.166992 16.5 0.166992V6.36265C18.8822 6.36265 21.0706 7.18749 22.7799 8.55945Z" fill="#D93F21"/>
</g>
<defs>
<clipPath id="clip0_515_416">
<rect width="33" height="31.9996" fill="white"/>
</clipPath>
</defs>
</svg>
